<?xml version="1.0" standalone="no"?>
<!DOCTYPE svg PUBLIC "-//W3C//DTD SVG 1.1//EN" "http://www.w3.org/Graphics/SVG/1.1/DTD/svg11.dtd" >
<svg xmlns="http://www.w3.org/2000/svg">
<metadata>
Created by FontPrep 20130207 at Mon May 12 12:00:26 2014
 By Justin Leggio
Copyright (c) 2011 by Tour de Force Font Foundry &#38; Dusan Jelesijevic. All rights reserved.
</metadata>
<defs>
<font id="d70c53052f94d2f59a7350a1de2c535e" horiz-adv-x='1024' >
  <font-face 
    font-family="Centim"
    font-weight="400"
    font-stretch="normal"
    units-per-em="2048"
    panose-1="2 0 5 6 0 0 0 2 0 3"
    ascent="1536"
    descent="-512"
    x-height="1024"
    cap-height="1556"
    bbox="-82 -512.278 3041 2046"
    underline-thickness="102"
    underline-position="-102"
    unicode-range="U+0020-FB04"
  />
<missing-glyph horiz-adv-x="573" 
 />
    <glyph glyph-name="f_f_i" unicode="ffi" horiz-adv-x="1677" 
d="M1391 1536h122v-139h-122v139zM1513 0h-122v907h-445v-907h-123v907h-506v-907h-122v907h-175l41 117h134v217q0 147 94 231t276 84q74 0 115 -4l-25 -114q-27 2 -75 2q-146 0 -204 -60t-59 -178v-178h506v217q1 147 95 231t276 84q74 0 115 -4l-25 -114q-27 2 -76 2
q-145 0 -203 -60t-59 -178v-178h567v-1024z" />
    <glyph glyph-name="f_f_l" unicode="ffl" horiz-adv-x="1677" 
d="M823 0v907h-506v-907h-122v907h-175l41 117h134v217q0 147 94 231t276 84q74 0 115 -4l-25 -114q-27 2 -75 2q-146 0 -204 -60t-59 -178v-178h506v217q1 147 95 231t279 84t316 -14v-1542h-122v1436q-47 4 -187 4t-199 -60q-58 -60 -59 -178v-178h254v-117h-254v-907
h-123z" />
    <glyph glyph-name="f_f_j" unicode="ffj" horiz-adv-x="1677" 
d="M1391 1536h122v-139h-122v139zM1513 1024v-1221q0 -301 -309 -315h-65l-25 119q27 -2 76 -2q123 0 162 57t39 180v1065h-445v-907h-123v907h-506v-907h-122v907h-175l41 117h134v217q0 147 94 231t276 84q74 0 115 -4l-25 -114q-27 2 -75 2q-146 0 -204 -60t-59 -178
v-178h506v217q1 147 95 231t276 84q74 0 115 -4l-25 -114q-27 2 -76 2q-145 0 -203 -60t-59 -178v-178h567z" />
    <glyph glyph-name="t_t" unicode="tt" horiz-adv-x="1128" 
d="M1128 109v-123h-34q-201 0 -275 66t-74 243v612h-428v-567q0 -141 44 -186t196 -45h21v-123h-35q-201 0 -275 66t-73 243v612h-175l41 117h134v225l122 41v-266h428v225l123 41v-266h254v-117h-254v-567q0 -141 44 -186t196 -45h20z" />
    <glyph glyph-name="f_h" unicode="fh" horiz-adv-x="1693" 
d="M1417 0v649q0 147 -51 209t-207 64q-156 0 -274 -88v-834h-123v1438q-53 2 -190 2q-138 0 -196 -60t-59 -178v-178h254v-117h-254v-907h-122v907h-175l41 117h134v217q0 147 94 231q93 84 299 84t297 -4v-608q117 94 303 94t270 -90q82 -90 82 -260v-688h-123z" />
    <glyph glyph-name="f_b" unicode="fb" horiz-adv-x="1646" 
d="M1376 375v274q0 147 -51 209t-207 64q-156 0 -274 -88v-644q115 -88 272 -88t209 63q51 63 51 210zM721 0v1440h-141q-146 0 -204 -60t-59 -178v-178h254v-117h-254v-907h-122v907h-175l41 117h134v217q0 147 94 231t304 84t251 -4v-608q116 94 304 94t272 -90t83 -260
v-352q0 -170 -84 -260t-270 -90t-305 92l-41 -78h-82z" />
    <glyph glyph-name="f_k" unicode="fk" horiz-adv-x="1527" 
d="M885 0h-123v1438q-53 2 -190 2q-138 0 -196 -60t-59 -178v-178h254v-117h-254v-907h-122v907h-175l41 117h134v217q0 147 94 231t276 84q131 0 320 -4v-942l366 414h168l-338 -381q33 -10 61 -42t77 -103l309 -480l-133 -30l-379 581l-131 -147v-422z" />
    <glyph glyph-name="f_f_b" unicode="ffb" horiz-adv-x="2275" 
d="M2005 375v274q0 147 -51 209t-207 64q-156 0 -274 -88v-644q115 -88 272 -88t209 63q51 63 51 210zM1350 0v1440h-142q-145 0 -203 -60t-59 -178v-178h254v-117h-254v-907h-123v907h-506v-907h-122v907h-175l41 117h134v217q0 147 94 231t276 84q74 0 115 -4l-25 -114
q-27 2 -75 2q-146 0 -204 -60t-59 -178v-178h506v217q1 147 95 231t304 84t251 -4v-608q117 94 304 94t271 -90t84 -260v-352q0 -170 -84 -260t-270 -90t-305 92l-41 -78h-82z" />
    <glyph glyph-name="f_f_h" unicode="ffh" horiz-adv-x="2322" 
d="M1200 907h-254v-907h-123v907h-506v-907h-122v907h-175l41 117h134v217q0 147 94 231t276 84q74 0 115 -4l-25 -114q-27 2 -75 2q-146 0 -204 -60t-59 -178v-178h506v217q1 147 95 231t276 84q131 0 319 -4v-608q117 94 303 94t270 -90q83 -90 83 -260v-688h-123v649
q0 147 -51 209t-207 64q-156 0 -275 -88v-834h-122v1438q-53 2 -191 2t-195 -60q-58 -60 -59 -178v-178h254v-117z" />
    <glyph glyph-name="f_f_k" unicode="ffk" horiz-adv-x="2156" 
d="M1200 907h-254v-907h-123v907h-506v-907h-122v907h-175l41 117h134v217q0 147 94 231t276 84q74 0 115 -4l-25 -114q-27 2 -75 2q-146 0 -204 -60t-59 -178v-178h506v217q1 147 95 231t276 84q131 0 319 -4v-942l367 414h168l-338 -381q32 -10 60 -42t77 -103l310 -480
l-134 -30l-378 581l-132 -147v-422h-122v1438q-53 2 -191 2t-195 -60q-58 -60 -59 -178v-178h254v-117z" />
    <glyph glyph-name="f_t" unicode="ft" horiz-adv-x="1144" 
d="M1145 109v-123h-35q-200 0 -274 66t-74 243v612h-445v-907h-122v907h-175l41 117h134v217q0 147 94 231t276 84q74 0 115 -4l-25 -114q-27 2 -75 2q-146 0 -204 -60t-59 -178v-178h445v225l123 41v-266h254v-117h-254v-567q0 -141 44 -186t195 -45h21z" />
    <glyph glyph-name="f_f_t" unicode="fft" horiz-adv-x="1773" 
d="M1774 109v-123h-35q-201 0 -275 66t-73 243v612h-445v-907h-123v907h-506v-907h-122v907h-175l41 117h134v217q0 147 94 231t276 84q74 0 115 -4l-25 -114q-27 2 -75 2q-146 0 -204 -60t-59 -178v-178h506v217q1 147 95 231t276 84q74 0 115 -4l-25 -114q-27 2 -76 2
q-145 0 -203 -60t-59 -178v-178h445v225l122 41v-266h254v-117h-254v-567q1 -141 45 -186t195 -45h21z" />
    <glyph glyph-name=".notdef" horiz-adv-x="573" 
 />
    <glyph glyph-name=".null" horiz-adv-x="0" 
 />
    <glyph glyph-name="nonmarkingreturn" horiz-adv-x="681" 
 />
    <glyph glyph-name="space" unicode=" " horiz-adv-x="512" 
 />
    <glyph glyph-name="exclam" unicode="!" horiz-adv-x="483" 
d="M164 174h155v-174h-155v174zM309 379h-133v1132l133 45v-1177z" />
    <glyph glyph-name="quotedbl" unicode="&#x22;" horiz-adv-x="663" 
d="M389 1554h131l-20 -385h-90zM143 1554h131l-20 -385h-90z" />
    <glyph glyph-name="numbersign" unicode="#" horiz-adv-x="1429" 
d="M606 940l-98 -324h352l98 324h-352zM1286 1067v-127h-188l-99 -324h287v-127h-323l-148 -489h-139l147 489h-352l-147 -489h-140l148 489h-189l41 127h185l98 324h-324l41 127h320l143 469h139l-143 -469h352l144 469h139l-143 -469h151z" />
    <glyph glyph-name="dollar" unicode="$" horiz-adv-x="1015" 
d="M475 -223v211q-276 16 -414 129l39 121q178 -125 441 -125q168 1 222 75t54 210t-56 193t-201 115t-207 91q-155 83 -195 197q-23 67 -23 161q0 360 340 395v170l133 45v-213q176 -4 303 -73l-43 -119q-147 68 -308 68t-224 -66t-64 -182q0 -70 6 -104q15 -92 110 -147
q54 -32 151 -69q225 -88 320 -172t95 -246q0 -214 -80 -328t-266 -126v-211h-133z" />
    <glyph glyph-name="percent" unicode="%" horiz-adv-x="1110" 
d="M373 0h-107l463 1536h107zM841 518q-55 0 -71 -13t-16 -56v-299q0 -40 15 -54t61 -14t63 3q43 8 43 65v299q-2 45 -20 57t-75 12zM1028 473v-346q0 -71 -41 -105t-143 -34t-144 34q-41 34 -41 105v346q0 72 41 106q42 33 144 32t143 -33t41 -105zM264 1460q-56 0 -72 -13
t-16 -56v-299q0 -40 15 -54t61 -14t63 3q15 3 29 19t14 46v299q-2 45 -20 57t-74 12zM451 1415v-346q0 -71 -41 -105q-42 -34 -144 -34t-143 34t-41 105v346q0 71 41 105t143 33t144 -33q41 -33 41 -105z" />
    <glyph glyph-name="ampersand" unicode="&#x26;" horiz-adv-x="1175" 
d="M868 768h-315q-170 -2 -221 -58t-51 -200v-139q0 -145 54 -201q53 -56 217 -57q164 0 241 52q76 52 75 206v397zM1196 895v-127h-190v-446q0 -168 -96 -251t-335 -84t-335 83t-97 252v237q0 203 140 279q-98 74 -99 266v115q0 172 85 254t306 81q113 0 193 -22l-47 -129
q-55 25 -147 25t-142 -14q-91 -23 -104 -127q-6 -40 -6 -118v-16q0 -147 38 -202q39 -54 191 -56h317v186l138 45v-231h190z" />
    <glyph glyph-name="quotesingle" unicode="'" horiz-adv-x="417" 
d="M143 1554h131l-20 -385h-90z" />
    <glyph glyph-name="parenleft" unicode="(" horiz-adv-x="598" 
d="M598 -385v-127q-242 0 -338 75t-96 240v1436q0 166 94 241t336 74h4v-127h-2q-186 0 -240 -48t-55 -189v-1337q0 -141 52 -189t237 -49h8z" />
    <glyph glyph-name="parenright" unicode=")" horiz-adv-x="598" 
d="M0 -512v127h8q184 0 237 48q52 48 52 190v1337q0 141 -54 189t-241 48h-2v127h4q242 0 336 -74t94 -241v-1436q0 -167 -96 -241t-338 -74z" />
    <glyph glyph-name="asterisk" unicode="*" horiz-adv-x="882" 
d="M395 1554h92v-251l195 157l57 -71l-225 -181l225 -180l-55 -72l-197 156v-250h-92v250l-196 -156l-56 72l226 180l-226 181l58 71l194 -157v251z" />
    <glyph glyph-name="plus" unicode="+" horiz-adv-x="1034" 
d="M143 729v109h318v309h114v-309h316v-109h-316v-330h-114v330h-318z" />
    <glyph glyph-name="comma" unicode="," horiz-adv-x="442" 
d="M154 174h145l-139 -383l-99 21z" />
    <glyph glyph-name="hyphen" unicode="-" horiz-adv-x="1040" 
d="M143 715v127h754v-127h-754z" />
    <glyph glyph-name="period" unicode="." horiz-adv-x="501" 
d="M164 174h174v-174h-174v174z" />
    <glyph glyph-name="slash" unicode="/" horiz-adv-x="692" 
d="M168 0h-107l463 1536h107z" />
    <glyph glyph-name="zero" unicode="0" horiz-adv-x="1148" 
d="M562 1427q-173 0 -227 -48t-54 -189v-840q0 -141 52 -189t236 -48q76 0 121 6q122 16 158 101q20 50 20 130v840q-2 152 -68 194t-238 43zM1006 301q0 -166 -96 -240q-96 -75 -336 -75q-242 0 -336 74t-95 241v938q0 167 94 241t336 73t337 -75t96 -239v-938z" />
    <glyph glyph-name="one" unicode="1" horiz-adv-x="681" 
d="M498 1536v-1536h-133v1362l-263 -217l-82 106l345 285h133z" />
    <glyph glyph-name="two" unicode="2" horiz-adv-x="927" 
d="M219 127h627v-127h-764v238q0 163 44 244q26 48 49 80q53 71 286 196q128 71 193 136q40 40 51 133q2 27 2 65v47q1 143 -59 214t-215 71t-302 -68l-43 119q136 75 352 75t310 -108t94 -328q0 -104 -18 -174q-33 -124 -183 -222q-57 -38 -172 -102q-125 -74 -168 -112
t-63 -94t-21 -179v-104z" />
    <glyph glyph-name="three" unicode="3" horiz-adv-x="899" 
d="M264 760v129h55q164 -6 222 76q57 82 57 233q0 225 -254 225q-154 0 -301 -67l-43 119q137 76 362 75q373 0 373 -376q0 -311 -217 -345q121 -4 200 -100t79 -283q0 -246 -114 -354t-330 -106q-216 0 -353 75l43 119q147 -68 304 -68t235 70t78 254t-80 258
q-78 76 -261 66h-55z" />
    <glyph glyph-name="four" unicode="4" horiz-adv-x="940" 
d="M627 578v299l133 45v-344h139l-41 -127h-98v-451h-133v451h-586l285 1085h137l-252 -958h416z" />
    <glyph glyph-name="five" unicode="5" horiz-adv-x="878" 
d="M106 1536h648l-41 -127h-473v-440q184 14 319 -11q279 -57 279 -471q0 -274 -117 -388q-117 -113 -341 -113t-360 75l43 119q147 -68 311 -68t244 78q82 76 82 280t-77 289q-79 85 -223 85t-294 -4v696z" />
    <glyph glyph-name="six" unicode="6" horiz-adv-x="1087" 
d="M564 901q-165 0 -222 -51t-61 -180v-299q0 -145 54 -201q53 -56 217 -57q164 0 241 52q76 52 75 206v272q-2 154 -70 206q-69 52 -234 52zM1006 322q0 -168 -96 -251t-335 -84t-335 83t-97 252v768q0 246 114 354t330 106q216 0 353 -75l-43 -119q-147 68 -304 68
t-235 -70t-77 -240v-186q59 100 295 99t332 -84q97 -83 98 -251v-370z" />
    <glyph glyph-name="seven" unicode="7" horiz-adv-x="765" 
d="M745 1536v-129l-426 -1407h-139l426 1407h-606l41 129h704z" />
    <glyph glyph-name="eight" unicode="8" horiz-adv-x="1107" 
d="M301 1169v-18q0 -131 45 -190t164 -68q166 -16 243 61q54 55 54 197v14q0 154 -65 206q-66 52 -200 52t-188 -58q-53 -59 -53 -196zM532 113q164 0 240 52t76 206v139q0 142 -65 196t-187 60h-88q-154 -6 -201 -62t-47 -194v-139q0 -145 54 -202q54 -56 218 -56z
M944 1214v-112q0 -180 -115 -264q156 -82 156 -279v-237q0 -168 -96 -251t-334 -84t-335 83t-97 252v237q0 197 156 279q-115 84 -115 264v112q0 172 85 254t306 81t305 -83t84 -252z" />
    <glyph glyph-name="nine" unicode="9" horiz-adv-x="1087" 
d="M219 1165v-268q2 -154 71 -206q68 -52 232 -52t222 51t63 180v295q0 145 -54 201t-218 57q-164 0 -240 -52t-76 -206zM82 848v366q0 168 96 251t334 84t335 -83t97 -252v-768q0 -246 -114 -354t-330 -106q-216 0 -353 75l43 119q146 -68 304 -68t236 70t77 240v188
q-33 -50 -99 -74t-194 -24q-238 2 -335 85t-97 251z" />
    <glyph glyph-name="colon" unicode=":" horiz-adv-x="460" 
d="M143 1024h174v-174h-174v174zM143 174h174v-174h-174v174z" />
    <glyph glyph-name="semicolon" unicode=";" horiz-adv-x="452" 
d="M139 174h170l-139 -383l-109 21zM135 1024h174v-174h-174v174z" />
    <glyph glyph-name="less" unicode="&#x3c;" horiz-adv-x="884" 
d="M41 774l668 541l73 -88l-557 -453l557 -455l-73 -88z" />
    <glyph glyph-name="equal" unicode="=" horiz-adv-x="952" 
d="M143 510v108h666v-108h-666zM143 928v108h666v-108h-666z" />
    <glyph glyph-name="greater" unicode="&#x3e;" horiz-adv-x="892" 
d="M174 1315l668 -541l-668 -543l-72 88l555 455l-555 453z" />
    <glyph glyph-name="question" unicode="?" horiz-adv-x="837" 
d="M223 174h137v-174h-137v174zM360 379h-137q0 258 37 336t213 170q61 33 96 59q62 45 68 121q2 25 2 65v50q0 116 -60 182t-214 66t-302 -68l-43 119q137 76 363 75q393 0 393 -399q0 -141 -51 -220t-182 -154t-157 -123t-26 -216v-63z" />
    <glyph glyph-name="at" unicode="@" horiz-adv-x="1576" 
d="M561 586q0 -92 45 -129q46 -37 160 -37t199 63q-4 29 -4 99v155q-152 4 -168 4q-119 0 -176 -31q-56 -32 -56 -124zM455 -14q-156 0 -224 72t-67 206v1008q0 135 67 207q68 72 224 71h667q156 0 224 -72t67 -206v-666q0 -139 -49 -209t-180 -69q-166 0 -201 82
q-94 -82 -219 -82q-305 0 -305 245v23q0 240 321 240q61 0 181 -13v68q0 104 -34 144t-153 40t-201 -22l-20 77q97 39 239 39t204 -59t63 -188v-320q-1 -110 21 -146t104 -36t104 46t23 173v600q0 117 -41 168t-158 51h-647q-117 0 -158 -51t-41 -168v-942q0 -117 41 -168
t158 -51h657l-41 -92h-626z" />
    <glyph glyph-name="A" unicode="A" horiz-adv-x="1120" 
d="M561 1339l-244 -774h486zM139 0h-139l471 1503l162 51l487 -1554h-139l-137 438h-568z" />
    <glyph glyph-name="B" unicode="B" horiz-adv-x="1185" 
d="M317 1409v-541h205q192 0 262 47t70 181v86q0 133 -70 180t-262 47h-205zM604 127q192 0 262 47t70 180v150q0 135 -71 186t-261 51h-287v-614h287zM184 0v1536h338q246 0 358 -77t111 -238v-166q0 -170 -127 -236q209 -59 209 -272v-232q1 -163 -111 -239t-358 -76h-420
z" />
    <glyph glyph-name="C" unicode="C" horiz-adv-x="978" 
d="M648 113q178 0 294 47l37 -105q-143 -65 -357 -67t-331 70t-117 237v940q0 315 453 315q152 0 323 -26l-24 -117q-117 16 -288 16t-249 -44t-78 -183v-860q0 -137 79 -180q80 -43 258 -43z" />
    <glyph glyph-name="D" unicode="D" horiz-adv-x="1247" 
d="M317 1409v-1282h287q192 0 262 47t70 180v828q0 133 -70 180t-262 47h-287zM184 0v1536h420q246 0 358 -77t111 -238v-906q1 -163 -111 -239t-358 -76h-420z" />
    <glyph glyph-name="E" unicode="E" horiz-adv-x="960" 
d="M184 0v1536h766l-41 -127h-592v-537h510v-127h-510v-618h633l-41 -127h-725z" />
    <glyph glyph-name="F" unicode="F" horiz-adv-x="960" 
d="M184 0v1536h766l-41 -127h-592v-537h510v-127h-510v-745h-133z" />
    <glyph glyph-name="G" unicode="G" horiz-adv-x="1140" 
d="M639 113q170 0 287 55v528l133 41v-637l-33 -20h-2q-139 -90 -399 -94q-217 0 -334 72t-117 237v940q0 315 453 315q205 0 389 -39l-25 -114q-133 27 -329 27t-273 -45q-78 -44 -78 -183v-860q0 -137 79 -180t249 -43z" />
    <glyph glyph-name="H" unicode="H" horiz-adv-x="1376" 
d="M1059 0v745h-742v-745h-133v1511l133 45v-684h742v639l133 45v-1556h-133z" />
    <glyph glyph-name="I" unicode="I" horiz-adv-x="501" 
d="M184 0v1511l133 45v-1556h-133z" />
    <glyph glyph-name="J" unicode="J" horiz-adv-x="655" 
d="M0 -14v127q194 0 266 51t72 186v1161l133 45v-1255q0 -162 -112 -239t-357 -76h-2z" />
    <glyph glyph-name="K" unicode="K" horiz-adv-x="1062" 
d="M317 4h-133v1507l133 45v-645l535 625h164l-469 -547q47 -20 117 -153l399 -822l-129 -28l-453 925l-164 -192v-715z" />
    <glyph glyph-name="L" unicode="L" horiz-adv-x="868" 
d="M184 0v1511l133 45v-1429h551v-127h-684z" />
    <glyph glyph-name="M" unicode="M" horiz-adv-x="1542" 
d="M698 322v2l-381 897v-1221h-133v1511l133 45l453 -1064l434 1013l154 51v-1556h-133v1229l-383 -905l2 -2h-146z" />
    <glyph glyph-name="N" unicode="N" horiz-adv-x="1320" 
d="M317 0h-133v1511l133 45l687 -1333v1288l133 45v-1556h-168l-652 1264v-1264z" />
    <glyph glyph-name="O" unicode="O" horiz-adv-x="1333" 
d="M1022 1186q0 135 -71 186t-259 51h-45q-193 0 -265 -51t-71 -186v-836q0 -135 70 -186t260 -51h45q192 0 264 51t72 186v836zM1159 301q-1 -161 -113 -237t-356 -78h-43q-245 0 -359 76t-114 239v934q0 162 113 239t358 76h45q244 -2 357 -79t112 -236v-934z" />
    <glyph glyph-name="P" unicode="P" horiz-adv-x="1073" 
d="M317 1409v-747h246q193 0 263 47t69 180v293q0 133 -70 180t-262 47h-246zM184 0v1536h379q246 0 358 -77t111 -238v-371q0 -162 -112 -239t-357 -76h-246v-535h-133z" />
    <glyph glyph-name="Q" unicode="Q" horiz-adv-x="1333" 
d="M1022 1180q0 137 -72 190t-258 53h-45q-193 0 -265 -51t-71 -186v-836q0 -135 70 -186t260 -51h45q192 0 264 51t72 186v830zM1159 301q0 -258 -299 -303q49 -14 98 -86l117 -162l-143 -20l-193 258q-16 -2 -49 -2h-43q-245 0 -359 76t-114 239v934q0 162 113 239t358 76
h45q244 -2 357 -79t112 -236v-934z" />
    <glyph glyph-name="R" unicode="R" horiz-adv-x="1134" 
d="M317 1409v-625h246q193 0 263 47t69 181v170q0 133 -70 180t-262 47h-246zM184 0v1536h379q246 0 358 -77t111 -238v-248q0 -131 -72 -205t-225 -98q37 -20 94 -115l285 -537l-133 -30l-352 671q-23 -2 -66 -2h-246v-657h-133z" />
    <glyph glyph-name="S" unicode="S" horiz-adv-x="1015" 
d="M954 442q0 -227 -91 -342t-304 -114q-338 0 -498 131l39 121q178 -125 441 -125q168 1 222 75t54 210t-56 193t-201 115t-207 91q-155 83 -195 197q-23 67 -23 161q0 395 414 395q225 1 362 -75l-43 -119q-147 68 -308 68t-224 -66q-63 -64 -64 -178q0 -70 6 -104
q15 -92 110 -147q54 -32 151 -69q225 -88 320 -172t95 -246z" />
    <glyph glyph-name="T" unicode="T" horiz-adv-x="970" 
d="M971 1407h-420v-1407h-133v1407h-418l41 129h930v-129z" />
    <glyph glyph-name="U" unicode="U" horiz-adv-x="1243" 
d="M1069 319q0 -165 -103 -249t-341 -86h-4q-240 0 -343 85t-104 250v1192l133 45v-1187q0 -141 65 -199t250 -59q186 0 250 58t64 200v1142l133 45v-1237z" />
    <glyph glyph-name="V" unicode="V" horiz-adv-x="1017" 
d="M584 0h-150l-434 1532l131 22l377 -1327l373 1309h137z" />
    <glyph glyph-name="W" unicode="W" horiz-adv-x="1427" 
d="M1251 1536h135l-331 -1536h-154l-188 862l-187 -862h-153l-332 1532l131 22l285 -1323l182 869h149l183 -869z" />
    <glyph glyph-name="X" unicode="X" horiz-adv-x="931" 
d="M78 1532l135 22l254 -548l244 530h145l-317 -688l393 -848h-148l-321 696l-316 -696h-147l391 852z" />
    <glyph glyph-name="Y" unicode="Y" horiz-adv-x="933" 
d="M532 0h-133v575l-399 957l133 22l332 -796l326 778h143l-402 -961v-575z" />
    <glyph glyph-name="Z" unicode="Z" horiz-adv-x="843" 
d="M823 129v-129h-803v129l654 1278h-645l41 129h753v-129l-651 -1278h651z" />
    <glyph glyph-name="bracketleft" unicode="[" horiz-adv-x="714" 
d="M184 1536h490l41 -129h-398v-1790h357v-129h-490v2048z" />
    <glyph glyph-name="backslash" unicode="\" horiz-adv-x="692" 
d="M631 0h-107l-463 1536h107z" />
    <glyph glyph-name="bracketright" unicode="]" horiz-adv-x="714" 
d="M530 1536v-2048h-489v129h356v1790h-356l-41 129h530z" />
    <glyph glyph-name="asciicircum" unicode="^" horiz-adv-x="913" 
d="M215 930h-113l289 606h131l289 -606h-113l-243 506z" />
    <glyph glyph-name="underscore" unicode="_" horiz-adv-x="1060" 
d="M20 -463v111h1020v-111h-1020z" />
    <glyph glyph-name="grave" unicode="`" horiz-adv-x="540" 
d="M102 1401l76 72l260 -242l-76 -72z" />
    <glyph glyph-name="a" unicode="a" horiz-adv-x="958" 
d="M477 504q-147 0 -218 -40t-71 -156q0 -114 56 -160t200 -46q142 0 248 78q-4 37 -4 125v195q-188 4 -211 4zM897 0q-141 0 -182 88q-115 -102 -273 -102q-381 0 -381 309v27q0 299 402 299q92 0 225 -15v84q0 131 -43 181q-43 51 -191 51t-251 -29l-25 98q121 47 299 47
t256 -74t78 -235v-399q1 -172 17 -206t69 -38v-86z" />
    <glyph glyph-name="b" unicode="b" horiz-adv-x="1089" 
d="M819 375v274q0 147 -51 209t-207 64q-156 0 -274 -88v-644q115 -88 272 -88t209 63q51 63 51 210zM164 0v1495l123 41v-592q117 94 305 94t270 -90q84 -90 84 -260v-352q0 -170 -84 -260t-270 -90t-305 92l-41 -78h-82z" />
    <glyph glyph-name="c" unicode="c" horiz-adv-x="829" 
d="M143 336v387q1 145 103 230t289 85q92 0 266 -26l-23 -107q-123 16 -229 17q-279 0 -279 -238v-309q0 -145 50 -208t206 -64q158 -1 265 47l38 -95q-133 -69 -325 -69t-277 90q-84 90 -84 260z" />
    <glyph glyph-name="d" unicode="d" horiz-adv-x="1089" 
d="M270 649v-274q0 -147 52 -209t206 -64q156 0 275 88v644q-123 88 -277 88t-204 -63q-52 -63 -52 -210zM496 -14q-186 0 -269 90q-84 90 -84 260v352q0 170 84 260q83 90 269 90t307 -94v551l123 41v-1536h-82l-41 78q-121 -92 -307 -92z" />
    <glyph glyph-name="e" unicode="e" horiz-adv-x="970" 
d="M270 649v-88h512v88q0 147 -51 209t-199 64h-12q-146 0 -198 -63t-52 -210zM547 1038q195 0 279 -90t83 -260v-244h-639v-69q0 -145 49 -207t195 -66q209 0 336 78l35 -92q-137 -98 -379 -102q-195 0 -279 90t-84 260v352q0 170 84 260t279 90h41z" />
    <glyph glyph-name="f" unicode="f" horiz-adv-x="618" 
d="M571 907h-254v-907h-122v907h-175l41 117h134v217q0 147 94 231t276 84q74 0 115 -4l-25 -114q-27 2 -75 2q-146 0 -204 -60t-59 -178v-178h254v-117z" />
    <glyph glyph-name="g" unicode="g" horiz-adv-x="1089" 
d="M270 649v-274q0 -147 52 -209t206 -64q156 0 275 88v644q-123 88 -277 88t-204 -63q-52 -63 -52 -210zM803 -156v234q-121 -92 -307 -92t-269 90q-84 90 -84 260v352q0 170 84 260q85 90 273 90t307 -98l37 72l82 26v-1233q0 -145 -102 -230t-289 -85q-94 0 -267 27
l23 106q123 -16 229 -16q283 -1 283 237z" />
    <glyph glyph-name="h" unicode="h" 
d="M819 0v649q0 147 -51 209t-207 64q-156 0 -274 -88v-834h-123v1495l123 41v-592q117 94 303 94t270 -90q82 -90 82 -260v-688h-123z" />
    <glyph glyph-name="i" unicode="i" horiz-adv-x="450" 
d="M164 1536h123v-139h-123v139zM164 0v997l123 41v-1038h-123z" />
    <glyph glyph-name="j" unicode="j" horiz-adv-x="481" 
d="M195 1536h122v-139h-122v139zM317 -80q0 -301 -309 -315h-65l-25 119q27 -2 76 -3q123 -1 162 57t39 181v1038l122 41v-1118z" />
    <glyph glyph-name="k" unicode="k" horiz-adv-x="929" 
d="M287 0h-123v1495l123 41v-926l366 414h168l-338 -381q33 -10 61 -42t77 -103l309 -480l-133 -30l-379 581l-131 -147v-422z" />
    <glyph glyph-name="l" unicode="l" horiz-adv-x="450" 
d="M164 0v1495l123 41v-1536h-123z" />
    <glyph glyph-name="m" unicode="m" horiz-adv-x="1669" 
d="M778 0v649q0 84 -4 123q-12 112 -85 135q-44 14 -120 15q-164 0 -282 -88v-834h-123v1012l82 26l47 -90q121 90 291 90q211 0 276 -123q60 55 152 89t186 34q188 0 253 -86t65 -264v-688h-123v649q0 84 -4 123q-5 39 -23 80t-62 55t-120 15q-172 0 -293 -97
q10 -68 10 -137v-688h-123z" />
    <glyph glyph-name="n" unicode="n" 
d="M164 0v1012l82 26l45 -90q119 90 303 90t266 -90t82 -260v-688h-123v649q0 147 -51 209t-207 64q-156 0 -274 -88v-834h-123z" />
    <glyph glyph-name="o" unicode="o" horiz-adv-x="1130" 
d="M270 375q0 -147 52 -209t198 -64h90q146 0 198 62t52 211v274q0 147 -51 209t-199 64h-92q-147 -2 -197 -64t-51 -209v-274zM625 1038q195 0 279 -90t83 -260v-352q0 -170 -84 -260t-278 -90h-119q-195 0 -279 90t-84 260v352q0 170 84 260t279 90h119z" />
    <glyph glyph-name="p" unicode="p" horiz-adv-x="1089" 
d="M819 375v274q0 147 -51 209t-207 64q-156 0 -274 -88v-644q115 -88 272 -88t209 63q51 63 51 210zM164 -512v1524l82 26l45 -90q119 90 303 90t268 -90t84 -260v-352q0 -170 -84 -260t-270 -90t-305 92v-590h-123z" />
    <glyph glyph-name="q" unicode="q" horiz-adv-x="1089" 
d="M270 649v-274q0 -147 52 -209t206 -64q156 0 275 88v644q-123 88 -277 88t-204 -63q-52 -63 -52 -210zM803 -512v590q-121 -92 -307 -92t-269 90q-84 90 -84 260v352q0 170 84 260q85 90 273 90t307 -98l37 72l82 26v-1550h-123z" />
    <glyph glyph-name="r" unicode="r" horiz-adv-x="671" 
d="M164 0v1012l82 26l41 -80v-47q94 127 256 127q88 0 149 -18l-24 -127q-53 25 -140 25q-141 0 -241 -123v-795h-123z" />
    <glyph glyph-name="s" unicode="s" horiz-adv-x="782" 
d="M432 922q-130 0 -172 -36q-41 -36 -41 -86t4 -67q14 -61 82 -96q43 -23 115 -47q168 -57 245 -122t76 -175q0 -307 -321 -307q-236 0 -379 102l37 98q135 -84 328 -84q128 0 168 46t40 118t-39 112t-185 90t-222 116t-76 188q0 266 320 266q155 0 288 -63l-38 -94
q-100 41 -230 41z" />
    <glyph glyph-name="t" unicode="t" horiz-adv-x="577" 
d="M578 109v-123h-35q-201 0 -275 66t-73 243v612h-175l41 117h134v225l122 41v-266h254v-117h-254v-567q0 -141 44 -186t196 -45h21z" />
    <glyph glyph-name="u" unicode="u" 
d="M276 375q0 -147 52 -209t206 -64q156 0 275 88v793l123 41v-1024h-82l-41 78q-121 -92 -305 -92t-268 90q-82 90 -82 260v647l122 41v-649z" />
    <glyph glyph-name="v" unicode="v" horiz-adv-x="821" 
d="M483 0h-145l-338 1024l125 14l285 -878l282 864h129z" />
    <glyph glyph-name="w" unicode="w" horiz-adv-x="1161" 
d="M426 0h-135l-260 1018l121 20l215 -878l155 682h115l156 -682l211 864h126l-262 -1024h-137l-153 616z" />
    <glyph glyph-name="x" unicode="x" horiz-adv-x="782" 
d="M782 0h-141l-254 422l-246 -422h-141l317 539l-284 477l131 22l225 -379l207 365h143l-282 -477z" />
    <glyph glyph-name="y" unicode="y" horiz-adv-x="886" 
d="M20 1018l125 20l299 -864l289 850h133l-438 -1286q-92 -283 -344 -246l-10 88q98 -14 149 37t96 182l62 185z" />
    <glyph glyph-name="z" unicode="z" horiz-adv-x="724" 
d="M705 0h-685v117l535 790h-514l41 117h623v-117l-537 -790h537v-117z" />
    <glyph glyph-name="braceleft" unicode="{" horiz-adv-x="649" 
d="M352 -147q0 -141 52 -189t237 -49h8v-127q-242 0 -338 75t-96 240v537l-195 104v154l195 104v537q0 166 94 241t336 74h4v-127h-2q-186 0 -240 -48t-55 -189v-559l-196 -111l196 -108v-559z" />
    <glyph glyph-name="bar" unicode="|" horiz-adv-x="460" 
d="M164 -512v2023l133 45v-2068h-133z" />
    <glyph glyph-name="braceright" unicode="}" horiz-adv-x="649" 
d="M297 -147v559l197 108l-197 111v559q0 141 -54 189t-241 48h-2v127h4q242 0 336 -74t94 -241v-537l195 -104v-154l-195 -104v-537q0 -167 -96 -241t-338 -74v127h8q184 0 237 48q52 49 52 190z" />
    <glyph glyph-name="asciitilde" unicode="~" horiz-adv-x="1107" 
d="M412 639q-141 0 -269 117l64 92q111 -98 205 -98q43 0 104 55q2 2 16 14t26 24q12 13 22 17t22 11q41 24 92 24q139 0 271 -117l-62 -86q-125 94 -209 94q-41 0 -104 -59q-88 -88 -178 -88z" />
    <glyph glyph-name="exclamdown" unicode="&#xa1;" horiz-adv-x="460" 
d="M297 850h-133v174h133v-174zM164 645h133v-1112l-133 -45v1157z" />
    <glyph glyph-name="cent" unicode="&#xa2;" horiz-adv-x="829" 
d="M596 -205h-133v193q-319 16 -320 348v387q0 129 84 212t236 99v170l133 45v-213q47 -2 205 -24l-23 -107q-123 16 -229 17q-279 0 -279 -238v-309q0 -145 50 -208t206 -64q158 -1 265 47l38 -95q-92 -47 -233 -63v-197z" />
    <glyph glyph-name="sterling" unicode="&#xa3;" horiz-adv-x="1056" 
d="M248 844v395q0 315 452 315q152 0 324 -26l-25 -117q-117 16 -287 16t-249 -44q-78 -44 -78 -183v-356h328v-131h-328v-512q31 8 52 8t31 3t28 -2t29 -5q11 1 50 -23t55 -36q96 -71 146 -64q106 12 217 137l84 -94q-125 -150 -289 -168q-104 -12 -210 78q-84 59 -127 53
q-90 -8 -224 -133l-80 88q43 51 101 90v580h-146l41 131h105z" />
    <glyph glyph-name="currency" unicode="&#xa4;" horiz-adv-x="1122" 
d="M281 778v-8q0 -156 54 -222t212 -67h31q158 0 212 67t54 222v8q0 154 -54 220t-212 67h-33q-156 -2 -210 -69t-54 -218zM592 1163q145 0 227 -49l168 168l74 -74l-168 -168q59 -92 59 -223v-88q0 -135 -57 -225l166 -166l-74 -72l-168 164q-80 -47 -227 -47h-60
q-145 0 -231 49l-166 -166l-74 72l168 168q-57 88 -57 223v88q0 137 57 223l-168 168l74 74l166 -168q86 49 231 49h60z" />
    <glyph glyph-name="yen" unicode="&#xa5;" horiz-adv-x="933" 
d="M825 717v-127h-293v-160h293v-127h-293v-303h-133v303h-293l41 127h252v160h-293l41 127h193l-340 815l133 22l332 -796l326 778h143l-344 -819h235z" />
    <glyph glyph-name="brokenbar" unicode="&#xa6;" horiz-adv-x="460" 
d="M164 -510v901h133v-901h-133zM164 614v897l133 45v-942h-133z" />
    <glyph glyph-name="section" unicode="&#xa7;" horiz-adv-x="1015" 
d="M272 690q0 -78 6 -112t30 -74q26 -41 80 -73q54 -33 192 -87t213 -102q25 63 25 178t-57 171t-233 128q-152 57 -225 104q-31 -55 -31 -133zM954 428q0 -176 -59 -281q59 -82 59 -202q0 -227 -91 -342t-304 -115q-338 0 -498 131l39 121q178 -125 441 -125q168 0 222 75
t54 211t-56 192q-56 57 -201 115t-207 91t-117 82q-101 90 -101 263t66 271q-66 88 -66 240q0 399 414 399q225 0 362 -75l-43 -119q-147 68 -308 68t-224 -66t-64 -182q0 -70 6 -104q15 -92 110 -147q54 -32 151 -69q225 -88 320 -172t95 -260z" />
    <glyph glyph-name="dieresis" unicode="&#xa8;" horiz-adv-x="636" 
d="M387 1331h148v-147h-148v147zM102 1331h148v-147h-148v147z" />
    <glyph glyph-name="copyright" unicode="&#xa9;" horiz-adv-x="1462" 
d="M770 324q116 0 199 34l28 -79q-102 -43 -243 -48q-305 0 -305 211v631q0 215 307 215q109 0 219 -16l-17 -88q-66 10 -186 10t-171 -29q-52 -29 -52 -116v-580q0 -88 52 -117q53 -28 169 -28zM1184 1210q0 142 -77 196t-276 54h-194q-203 0 -281 -54t-77 -196v-880
q0 -141 76 -196q77 -54 276 -54h194q203 0 281 54t78 196v880zM1288 301q0 -161 -112 -237t-357 -78h-172q-245 0 -359 76t-114 239v938q0 162 113 239t358 76h174q244 -2 357 -78t112 -237v-938z" />
    <glyph glyph-name="ordfeminine" unicode="&#xaa;" horiz-adv-x="651" 
d="M315 1221q-81 0 -119 -21q-38 -20 -38 -80t30 -79t106 -19q77 0 132 37q-2 20 -2 59v101l-74 2h-35zM569 938q-92 0 -118 47q-63 -55 -156 -55q-233 0 -234 192v6q0 184 246 185q61 0 117 -6v32q0 70 -22 97q-22 26 -102 26t-155 -20l-18 80q76 32 186 32q109 0 157 -46
t48 -146v-229q0 -95 12 -107t39 -14v-74z" />
    <glyph glyph-name="guillemotleft" unicode="&#xab;" horiz-adv-x="968" 
d="M451 614l325 406l90 -76l-264 -330q143 -186 262 -331l-90 -74zM102 614q291 360 326 406l90 -76l-266 -330q209 -263 264 -331l-90 -74z" />
    <glyph glyph-name="logicalnot" unicode="&#xac;" horiz-adv-x="952" 
d="M143 729v109h666v-371h-109v262h-557z" />
    <glyph glyph-name="registered" unicode="&#xae;" horiz-adv-x="1462" 
d="M551 1180v-400h156q123 0 167 30t46 114v114q0 82 -46 112t-167 30h-156zM449 244v1036h258q167 0 243 -52t76 -165v-166q0 -168 -182 -205q6 -6 45 -67l198 -367l-108 -27l-193 367q-29 63 -59 84h-176v-438h-102zM1184 1210q0 142 -77 196t-276 54h-194
q-203 0 -281 -54t-77 -196v-880q0 -141 76 -196q77 -54 276 -54h194q203 0 281 54t78 196v880zM1288 301q0 -161 -112 -237t-357 -78h-172q-245 0 -359 76t-114 239v938q0 162 113 239t358 76h174q244 -2 357 -78t112 -237v-938z" />
    <glyph glyph-name="macron" unicode="&#xaf;" horiz-adv-x="843" 
d="M164 1282h516v-94h-516v94z" />
    <glyph glyph-name="degree" unicode="&#xb0;" horiz-adv-x="802" 
d="M236 1296q0 -70 48 -118t118 -48t117 48q48 48 48 118t-48 118t-118 48q-69 0 -117 -48t-48 -118zM143 1296q0 109 76 184q76 74 182 74t183 -74q76 -75 76 -184q0 -110 -76 -184t-182 -74t-183 74q-76 74 -76 184z" />
    <glyph glyph-name="plusminus" unicode="&#xb1;" horiz-adv-x="952" 
d="M143 262v109h666v-109h-666zM143 909v109h277v268h112v-268h277v-109h-277v-288h-112v288h-277z" />
    <glyph glyph-name="twosuperior" unicode="&#xb2;" horiz-adv-x="493" 
d="M383 936h-322v108q0 94 34 128q35 34 55 46q20 13 67 37q73 44 80 76q2 12 2 49q0 84 -82 84q-41 0 -123 -34l-33 83q70 41 164 41q166 0 166 -182q0 -82 -32 -120t-94 -74t-76 -44q-33 -23 -33 -79v-29h227v-90z" />
    <glyph glyph-name="threesuperior" unicode="&#xb3;" horiz-adv-x="512" 
d="M154 1217v92h34q61 -2 82 22q20 25 21 70q1 61 -65 61t-130 -30l-35 84q70 39 162 38q164 0 164 -159q0 -78 -45 -127q68 -35 68 -144q0 -195 -187 -194q-94 0 -162 41l35 84q62 -33 116 -33t78 20t24 76t-29 77q-29 22 -97 22h-34z" />
    <glyph glyph-name="acute" unicode="&#xb4;" horiz-adv-x="540" 
d="M362 1473l76 -72l-260 -242l-76 72z" />
    <glyph glyph-name="mu" unicode="&#xb5;" horiz-adv-x="1105" 
d="M287 375q0 -147 51 -209t207 -64q156 0 274 88v793l123 41v-1024h-82l-41 78q-121 -92 -286 -92t-246 55v-553h-123v1516l123 40v-669z" />
    <glyph glyph-name="mu" unicode="&#x3bc;" horiz-adv-x="1105" 
d="M287 375q0 -147 51 -209t207 -64q156 0 274 88v793l123 41v-1024h-82l-41 78q-121 -92 -286 -92t-246 55v-553h-123v1516l123 40v-669z" />
    <glyph glyph-name="paragraph" unicode="&#xb6;" horiz-adv-x="1083" 
d="M219 1182v-293q1 -127 63 -176t228 -51v747q-166 -4 -228 -53t-63 -174zM930 1409v-1921h-133v1921h-154v-1921h-133v1047q-223 6 -326 82q-102 77 -102 233v371q0 163 112 239t357 76h532l-41 -127h-112z" />
    <glyph glyph-name="periodcentered" unicode="&#xb7;" horiz-adv-x="460" 
d="M143 854h174v-174h-174v174z" />
    <glyph glyph-name="cedilla" unicode="&#xb8;" horiz-adv-x="694" 
d="M371 -362q53 0 67 12t17 53v16q-1 43 -15 57t-69 13h-72v248h78v-170q84 -2 119 -30t34 -89v-70q0 -61 -36 -90t-127 -28h-52q-120 0 -151 55l53 59q31 -37 94 -36h60z" />
    <glyph glyph-name="onesuperior" unicode="&#xb9;" horiz-adv-x="407" 
d="M285 1536v-606h-97v483l-71 -61l-56 63l142 121h82z" />
    <glyph glyph-name="ordmasculine" unicode="&#xba;" horiz-adv-x="704" 
d="M197 1151q1 -79 27 -103t94 -24t92 3q22 3 48 14q50 21 50 110v182q-2 78 -40 103q-38 24 -127 24t-117 -24t-27 -103v-182zM102 1372q0 96 56 139t195 43q137 0 193 -45t56 -137v-260q0 -96 -55 -139t-193 -43t-195 43q-56 43 -57 139v260z" />
    <glyph glyph-name="guillemotright" unicode="&#xbb;" horiz-adv-x="968" 
d="M543 209l-90 74l264 331q-53 68 -266 330l90 76q262 -326 325 -406zM195 209l-91 74l263 331l-265 330l91 76q262 -326 325 -406z" />
    <glyph glyph-name="onequarter" unicode="&#xbc;" horiz-adv-x="1093" 
d="M334 0h-107l463 1536h107zM305 1536v-606h-96v483l-72 -61l-55 63l141 121h82zM860 264v109l96 26v-135h56l-23 -94h-33v-170h-96v170h-244l119 455h101l-93 -361h117z" />
    <glyph glyph-name="onehalf" unicode="&#xbd;" horiz-adv-x="1081" 
d="M991 0h-321v109q0 95 40 133q40 39 115 77q75 46 80 76q2 12 2 49q0 84 -82 84q-41 0 -123 -34l-32 84q70 41 164 40q166 0 165 -182q1 -82 -31 -120t-94 -74t-76 -44q-34 -22 -34 -79v-29h227v-90zM334 0h-107l463 1536h107zM305 1536v-606h-96v483l-72 -61l-55 63
l141 121h82z" />
    <glyph glyph-name="threequarters" unicode="&#xbe;" horiz-adv-x="1114" 
d="M174 1217v92h35q61 -2 82 22q20 25 20 70q0 61 -65 61t-129 -30l-35 84q70 39 162 38q164 0 164 -159q0 -78 -46 -127q68 -35 68 -144q0 -195 -186 -194q-94 0 -162 41l35 84q63 -33 117 -33t76 20q24 20 24 76t-29 77q-29 22 -96 22h-35zM354 0h-106l463 1536h106z
M881 264v109l96 26v-135h55l-22 -94h-33v-170h-96v170h-244l119 455h100l-92 -361h117z" />
    <glyph glyph-name="questiondown" unicode="&#xbf;" horiz-adv-x="837" 
d="M614 868h-137v174h137v-174zM477 664h137q0 -258 -36 -336t-213 -170q-61 -33 -97 -59q-36 -25 -50 -61q-19 -46 -19 -126v-49q0 -115 60 -181t214 -67q154 0 301 68l43 -119q-137 -76 -362 -76q-393 0 -394 399q-1 141 51 221t183 154t157 122t25 216v64z" />
    <glyph glyph-name="Agrave" unicode="&#xc0;" horiz-adv-x="1120" 
d="M371 1913l75 72l261 -242l-76 -72zM561 1339l-244 -774h486zM139 0h-139l471 1503l162 51l487 -1554h-139l-137 438h-568z" />
    <glyph glyph-name="Aacute" unicode="&#xc1;" horiz-adv-x="1120" 
d="M721 1985l76 -72l-260 -242l-76 72zM561 1339l-244 -774h486zM139 0h-139l471 1503l162 51l487 -1554h-139l-137 438h-568z" />
    <glyph glyph-name="Acircumflex" unicode="&#xc2;" horiz-adv-x="1120" 
d="M408 1665l-76 72l225 207l229 -207l-69 -72l-160 139zM561 1339l-244 -774h486zM139 0h-139l471 1503l162 51l487 -1554h-139l-137 438h-568z" />
    <glyph glyph-name="Atilde" unicode="&#xc3;" horiz-adv-x="1120" 
d="M656 1788q-26 0 -80 -46t-105 -46q-82 0 -174 84l51 69q84 -59 118 -59t85 46t96 46q74 0 176 -86l-51 -65q-90 57 -116 57zM561 1339l-244 -774h486zM139 0h-139l471 1503l162 51l487 -1554h-139l-137 438h-568z" />
    <glyph glyph-name="Adieresis" unicode="&#xc4;" horiz-adv-x="1120" 
d="M629 1843h147v-147h-147v147zM344 1843h148v-147h-148v147zM561 1339l-244 -774h486zM139 0h-139l471 1503l162 51l487 -1554h-139l-137 438h-568z" />
    <glyph glyph-name="Aring" unicode="&#xc5;" horiz-adv-x="1120" 
d="M554 1968q-50 0 -66 -13t-15 -57v-40q0 -42 14 -56q13 -14 57 -14t59 3t30 19q14 16 14 48v40q-2 42 -22 56q-21 14 -71 14zM560 2046q89 0 126 -29t37 -90v-98q0 -61 -36 -90t-126 -29t-127 29t-37 90v98q0 61 37 90t126 29zM561 1339l-244 -774h486zM139 0h-139
l471 1503l162 51l487 -1554h-139l-137 438h-568z" />
    <glyph glyph-name="AE" unicode="&#xc6;" horiz-adv-x="1523" 
d="M748 565v844h-82l-316 -844h398zM748 0v438h-445l-164 -438h-139l563 1536h950l-40 -127h-592v-537h510v-127h-510v-618h632l-40 -127h-725z" />
    <glyph glyph-name="Ccedilla" unicode="&#xc7;" horiz-adv-x="978" 
d="M655 -362q53 0 68 12q14 12 16 53v16q0 43 -14 57t-70 13h-71v199q-410 10 -410 307v940q0 315 453 315q152 0 323 -26l-24 -117q-117 16 -288 16t-249 -44t-78 -183v-860q0 -137 79 -180q80 -43 258 -43t294 47l37 -105q-131 -61 -317 -67v-121q84 -2 118 -30t35 -89
v-70q0 -61 -37 -90t-127 -28h-51q-120 0 -151 55l53 59q31 -37 94 -36h59z" />
    <glyph glyph-name="Egrave" unicode="&#xc8;" horiz-adv-x="960" 
d="M373 1913l76 72l260 -242l-76 -72zM184 0v1536h766l-41 -127h-592v-537h510v-127h-510v-618h633l-41 -127h-725z" />
    <glyph glyph-name="Eacute" unicode="&#xc9;" horiz-adv-x="960" 
d="M694 1985l76 -72l-260 -242l-76 72zM184 0v1536h766l-41 -127h-592v-537h510v-127h-510v-618h633l-41 -127h-725z" />
    <glyph glyph-name="Ecircumflex" unicode="&#xca;" horiz-adv-x="960" 
d="M410 1665l-76 72l225 207l229 -207l-69 -72l-160 139zM184 0v1536h766l-41 -127h-592v-537h510v-127h-510v-618h633l-41 -127h-725z" />
    <glyph glyph-name="Edieresis" unicode="&#xcb;" horiz-adv-x="960" 
d="M655 1843h148v-147h-148v147zM371 1843h147v-147h-147v147zM184 0v1536h766l-41 -127h-592v-537h510v-127h-510v-618h633l-41 -127h-725z" />
    <glyph glyph-name="Igrave" unicode="&#xcc;" horiz-adv-x="501" 
d="M84 1913l76 72l260 -242l-76 -72zM184 0v1511l133 45v-1556h-133z" />
    <glyph glyph-name="Iacute" unicode="&#xcd;" horiz-adv-x="501" 
d="M344 1985l76 -72l-260 -242l-76 72zM184 0v1511l133 45v-1556h-133z" />
    <glyph glyph-name="Icircumflex" unicode="&#xce;" horiz-adv-x="501" 
d="M100 1665l-75 72l225 207l229 -207l-69 -72l-160 139zM184 0v1511l133 45v-1556h-133z" />
    <glyph glyph-name="Idieresis" unicode="&#xcf;" horiz-adv-x="501" 
d="M319 1843h148v-147h-148v147zM35 1843h147v-147h-147v147zM184 0v1511l133 45v-1556h-133z" />
    <glyph glyph-name="Eth" unicode="&#xd0;" horiz-adv-x="1232" 
d="M303 705v-578h287q192 0 262 47t70 180v828q0 133 -70 180t-262 47h-287v-578h236v-126h-236zM170 1536h420q246 0 358 -77t111 -238v-906q0 -163 -112 -239t-357 -76h-420v705h-180l41 126h139v705z" />
    <glyph glyph-name="Ntilde" unicode="&#xd1;" horiz-adv-x="1320" 
d="M756 1788q-26 0 -80 -46t-105 -46q-82 0 -174 84l52 69q83 -59 117 -59t85 46t97 46q74 0 176 -86l-52 -65q-90 57 -116 57zM317 0h-133v1511l133 45l687 -1333v1288l133 45v-1556h-168l-652 1264v-1264z" />
    <glyph glyph-name="Ograve" unicode="&#xd2;" horiz-adv-x="1333" 
d="M416 1913l76 72l260 -242l-76 -72zM1022 1186q0 135 -71 186t-259 51h-45q-193 0 -265 -51t-71 -186v-836q0 -135 70 -186t260 -51h45q192 0 264 51t72 186v836zM1159 301q-1 -161 -113 -237t-356 -78h-43q-245 0 -359 76t-114 239v934q0 162 113 239t358 76h45
q244 -2 357 -79t112 -236v-934z" />
    <glyph glyph-name="Oacute" unicode="&#xd3;" horiz-adv-x="1333" 
d="M819 1985l76 -72l-260 -242l-76 72zM1022 1186q0 135 -71 186t-259 51h-45q-193 0 -265 -51t-71 -186v-836q0 -135 70 -186t260 -51h45q192 0 264 51t72 186v836zM1159 301q-1 -161 -113 -237t-356 -78h-43q-245 0 -359 76t-114 239v934q0 162 113 239t358 76h45
q244 -2 357 -79t112 -236v-934z" />
    <glyph glyph-name="Ocircumflex" unicode="&#xd4;" horiz-adv-x="1333" 
d="M514 1665l-76 72l226 207l229 -207l-70 -72l-159 139zM1022 1186q0 135 -71 186t-259 51h-45q-193 0 -265 -51t-71 -186v-836q0 -135 70 -186t260 -51h45q192 0 264 51t72 186v836zM1159 301q-1 -161 -113 -237t-356 -78h-43q-245 0 -359 76t-114 239v934q0 162 113 239
t358 76h45q244 -2 357 -79t112 -236v-934z" />
    <glyph glyph-name="Otilde" unicode="&#xd5;" horiz-adv-x="1333" 
d="M762 1788q-26 0 -80 -46t-104 -46q-82 0 -175 84l52 69q84 -59 118 -59q35 0 85 46t96 46q74 0 176 -86l-51 -65q-91 57 -117 57zM1022 1186q0 135 -71 186t-259 51h-45q-193 0 -265 -51t-71 -186v-836q0 -135 70 -186t260 -51h45q192 0 264 51t72 186v836zM1159 301
q-1 -161 -113 -237t-356 -78h-43q-245 0 -359 76t-114 239v934q0 162 113 239t358 76h45q244 -2 357 -79t112 -236v-934z" />
    <glyph glyph-name="Odieresis" unicode="&#xd6;" horiz-adv-x="1333" 
d="M735 1843h148v-147h-148v147zM451 1843h147v-147h-147v147zM1022 1186q0 135 -71 186t-259 51h-45q-193 0 -265 -51t-71 -186v-836q0 -135 70 -186t260 -51h45q192 0 264 51t72 186v836zM1159 301q-1 -161 -113 -237t-356 -78h-43q-245 0 -359 76t-114 239v934
q0 162 113 239t358 76h45q244 -2 357 -79t112 -236v-934z" />
    <glyph glyph-name="multiply" unicode="&#xd7;" horiz-adv-x="903" 
d="M221 473l-78 78l226 223l-219 219l81 82l218 -219l223 223l78 -78l-224 -223l234 -231l-82 -82l-234 233z" />
    <glyph glyph-name="Oslash" unicode="&#xd8;" horiz-adv-x="1333" 
d="M1022 1186q0 152 -94 200l-381 -1271q29 -2 94 -2h45q192 0 264 51t72 186v836zM311 350q0 -92 31 -144t102 -73l385 1282q-51 8 -137 8h-45q-193 0 -265 -51t-71 -186v-836zM690 1550q86 0 176 -14l31 102h107l-39 -127q195 -70 194 -276v-934q-1 -161 -113 -237
t-356 -78h-43q-82 0 -137 8l-29 -96h-106l33 112q-233 61 -234 291v934q0 162 113 239t358 76h45z" />
    <glyph glyph-name="Ugrave" unicode="&#xd9;" horiz-adv-x="1243" 
d="M391 1913l76 72l260 -242l-76 -72zM1069 319q0 -165 -103 -249t-341 -86h-4q-240 0 -343 85t-104 250v1192l133 45v-1187q0 -141 65 -199t250 -59q186 0 250 58t64 200v1142l133 45v-1237z" />
    <glyph glyph-name="Uacute" unicode="&#xda;" horiz-adv-x="1243" 
d="M774 1985l76 -72l-260 -242l-76 72zM1069 319q0 -165 -103 -249t-341 -86h-4q-240 0 -343 85t-104 250v1192l133 45v-1187q0 -141 65 -199t250 -59q186 0 250 58t64 200v1142l133 45v-1237z" />
    <glyph glyph-name="Ucircumflex" unicode="&#xdb;" horiz-adv-x="1243" 
d="M469 1665l-76 72l225 207l230 -207l-70 -72l-160 139zM1069 319q0 -165 -103 -249t-341 -86h-4q-240 0 -343 85t-104 250v1192l133 45v-1187q0 -141 65 -199t250 -59q186 0 250 58t64 200v1142l133 45v-1237z" />
    <glyph glyph-name="Udieresis" unicode="&#xdc;" horiz-adv-x="1243" 
d="M406 1843h147v-147h-147v147zM690 1843h148v-147h-148v147zM1069 319q0 -165 -103 -249t-341 -86h-4q-240 0 -343 85t-104 250v1192l133 45v-1187q0 -141 65 -199t250 -59q186 0 250 58t64 200v1142l133 45v-1237z" />
    <glyph glyph-name="Yacute" unicode="&#xdd;" horiz-adv-x="933" 
d="M641 1985l76 -72l-260 -242l-76 72zM532 0h-133v575l-399 957l133 22l332 -796l326 778h143l-402 -961v-575z" />
    <glyph glyph-name="Thorn" unicode="&#xde;" horiz-adv-x="1032" 
d="M461 1102h-144v-668h144q193 0 263 47t69 181v212q1 132 -69 180t-263 48zM184 0v1511l133 45v-327h144q245 0 357 -77t112 -239v-290q0 -162 -112 -239t-357 -77h-144v-307h-133z" />
    <glyph glyph-name="germandbls" unicode="&#xdf;" horiz-adv-x="1091" 
d="M301 0h-137v1274q0 281 411 280q373 0 373 -378q0 -138 -86 -268q-28 -44 -28 -76t28 -66t60 -64t60 -98t28 -158q0 -246 -114 -354t-321 -106q-119 0 -206 18l18 127q76 -18 170 -18q160 -1 238 69t77 240q0 90 -27 152q-28 62 -61 88q-88 71 -88 150q0 80 58 190
t57 198q0 227 -254 227q-129 1 -192 -35t-64 -118v-1274z" />
    <glyph glyph-name="agrave" unicode="&#xe0;" horiz-adv-x="958" 
d="M291 1401l76 72l260 -242l-76 -72zM477 504q-147 0 -218 -40t-71 -156q0 -114 56 -160t200 -46q142 0 248 78q-4 37 -4 125v195q-188 4 -211 4zM897 0q-141 0 -182 88q-115 -102 -273 -102q-381 0 -381 309v27q0 299 402 299q92 0 225 -15v84q0 131 -43 181
q-43 51 -191 51t-251 -29l-25 98q121 47 299 47t256 -74t78 -235v-399q1 -172 17 -206t69 -38v-86z" />
    <glyph glyph-name="aacute" unicode="&#xe1;" horiz-adv-x="958" 
d="M612 1473l76 -72l-260 -242l-76 72zM477 504q-147 0 -218 -40t-71 -156q0 -114 56 -160t200 -46q142 0 248 78q-4 37 -4 125v195q-188 4 -211 4zM897 0q-141 0 -182 88q-115 -102 -273 -102q-381 0 -381 309v27q0 299 402 299q92 0 225 -15v84q0 131 -43 181
q-43 51 -191 51t-251 -29l-25 98q121 47 299 47t256 -74t78 -235v-399q1 -172 17 -206t69 -38v-86z" />
    <glyph glyph-name="acircumflex" unicode="&#xe2;" horiz-adv-x="958" 
d="M328 1153l-76 72l225 207l230 -207l-70 -72l-160 139zM477 504q-147 0 -218 -40t-71 -156q0 -114 56 -160t200 -46q142 0 248 78q-4 37 -4 125v195q-188 4 -211 4zM897 0q-141 0 -182 88q-115 -102 -273 -102q-381 0 -381 309v27q0 299 402 299q92 0 225 -15v84
q0 131 -43 181q-43 51 -191 51t-251 -29l-25 98q121 47 299 47t256 -74t78 -235v-399q1 -172 17 -206t69 -38v-86z" />
    <glyph glyph-name="atilde" unicode="&#xe3;" horiz-adv-x="958" 
d="M574 1276q-26 0 -80 -46q-53 -46 -105 -46q-82 0 -174 84l51 69q84 -59 118 -59t85 46t96 46q74 0 176 -86l-51 -65q-90 57 -116 57zM477 504q-147 0 -218 -40t-71 -156q0 -114 56 -160t200 -46q142 0 248 78q-4 37 -4 125v195q-188 4 -211 4zM897 0q-141 0 -182 88
q-115 -102 -273 -102q-381 0 -381 309v27q0 299 402 299q92 0 225 -15v84q0 131 -43 181q-43 51 -191 51t-251 -29l-25 98q121 47 299 47t256 -74t78 -235v-399q1 -172 17 -206t69 -38v-86z" />
    <glyph glyph-name="adieresis" unicode="&#xe4;" horiz-adv-x="958" 
d="M547 1331h147v-147h-147v147zM262 1331h148v-147h-148v147zM477 504q-147 0 -218 -40t-71 -156q0 -114 56 -160t200 -46q142 0 248 78q-4 37 -4 125v195q-188 4 -211 4zM897 0q-141 0 -182 88q-115 -102 -273 -102q-381 0 -381 309v27q0 299 402 299q92 0 225 -15v84
q0 131 -43 181q-43 51 -191 51t-251 -29l-25 98q121 47 299 47t256 -74t78 -235v-399q1 -172 17 -206t69 -38v-86z" />
    <glyph glyph-name="aring" unicode="&#xe5;" horiz-adv-x="958" 
d="M472 1456q-50 0 -65 -13t-16 -57v-40q1 -42 15 -56t57 -14t58 3t30 19q14 16 14 48v40q-2 42 -22 56q-21 14 -71 14zM478 1534q89 0 126 -29t37 -90v-98q0 -61 -36 -90t-126 -29t-127 29t-37 90v98q0 61 37 90t126 29zM477 504q-147 0 -218 -40t-71 -156q0 -114 56 -160
t200 -46q142 0 248 78q-4 37 -4 125v195q-188 4 -211 4zM897 0q-141 0 -182 88q-115 -102 -273 -102q-381 0 -381 309v27q0 299 402 299q92 0 225 -15v84q0 131 -43 181q-43 51 -191 51t-251 -29l-25 98q121 47 299 47t256 -74t78 -235v-399q1 -172 17 -206t69 -38v-86z" />
    <glyph glyph-name="ae" unicode="&#xe6;" horiz-adv-x="1515" 
d="M815 649v-88h512v88q0 147 -51 209t-199 64h-12q-147 0 -199 -63t-51 -210zM188 309q0 -115 56 -161t206 -46q148 0 257 80q-23 68 -19 154v164q-188 4 -211 4q-147 0 -218 -40t-71 -155zM1092 1038q194 0 278 -90t84 -260v-244h-639v-69q0 -145 49 -207t195 -66
q209 0 336 78l35 -92q-137 -98 -379 -102q-215 0 -301 114q-58 -55 -144 -85t-164 -29q-381 0 -381 309v27q0 299 402 299q92 0 225 -15v84q0 131 -43 181q-43 51 -191 51t-251 -29l-25 98q122 47 316 47t264 -114q86 115 293 114h41z" />
    <glyph glyph-name="ccedilla" unicode="&#xe7;" horiz-adv-x="829" 
d="M541 -362q53 0 67 12t17 53v16q-1 43 -15 57t-69 13h-72v199q-326 16 -326 348v387q1 145 103 230t289 85q92 0 266 -26l-23 -107q-123 16 -229 17q-279 0 -279 -238v-309q0 -145 49 -207t207 -64t265 46l38 -95q-117 -59 -282 -67v-121q84 -2 119 -30t34 -89v-70
q0 -61 -36 -90t-127 -28h-52q-120 0 -151 55l53 59q31 -37 94 -36h60z" />
    <glyph glyph-name="egrave" unicode="&#xe8;" horiz-adv-x="970" 
d="M297 1401l76 72l260 -242l-76 -72zM270 649v-88h512v88q0 147 -51 209t-199 64h-12q-146 0 -198 -63t-52 -210zM547 1038q195 0 279 -90t83 -260v-244h-639v-69q0 -145 49 -207t195 -66q209 0 336 78l35 -92q-137 -98 -379 -102q-195 0 -279 90t-84 260v352q0 170 84 260
t279 90h41z" />
    <glyph glyph-name="eacute" unicode="&#xe9;" horiz-adv-x="970" 
d="M680 1473l76 -72l-260 -242l-76 72zM270 649v-88h512v88q0 147 -51 209t-199 64h-12q-146 0 -198 -63t-52 -210zM547 1038q195 0 279 -90t83 -260v-244h-639v-69q0 -145 49 -207t195 -66q209 0 336 78l35 -92q-137 -98 -379 -102q-195 0 -279 90t-84 260v352
q0 170 84 260t279 90h41z" />
    <glyph glyph-name="ecircumflex" unicode="&#xea;" horiz-adv-x="970" 
d="M352 1153l-76 72l226 207l229 -207l-69 -72l-160 139zM270 649v-88h512v88q0 147 -51 209t-199 64h-12q-146 0 -198 -63t-52 -210zM547 1038q195 0 279 -90t83 -260v-244h-639v-69q0 -145 49 -207t195 -66q209 0 336 78l35 -92q-137 -98 -379 -102q-195 0 -279 90
t-84 260v352q0 170 84 260t279 90h41z" />
    <glyph glyph-name="edieresis" unicode="&#xeb;" horiz-adv-x="970" 
d="M594 1331h147v-147h-147v147zM309 1331h148v-147h-148v147zM270 649v-88h512v88q0 147 -51 209t-199 64h-12q-146 0 -198 -63t-52 -210zM547 1038q195 0 279 -90t83 -260v-244h-639v-69q0 -145 49 -207t195 -66q209 0 336 78l35 -92q-137 -98 -379 -102q-195 0 -279 90
t-84 260v352q0 170 84 260t279 90h41z" />
    <glyph glyph-name="igrave" unicode="&#xec;" horiz-adv-x="450" 
d="M57 1401l76 72l260 -242l-76 -72zM164 0v997l123 41v-1038h-123z" />
    <glyph glyph-name="iacute" unicode="&#xed;" horiz-adv-x="450" 
d="M317 1473l76 -72l-260 -242l-76 72zM164 0v997l123 41v-1038h-123z" />
    <glyph glyph-name="icircumflex" unicode="&#xee;" horiz-adv-x="450" 
d="M74 1153l-76 72l225 207l230 -207l-70 -72l-160 139zM164 0v997l123 41v-1038h-123z" />
    <glyph glyph-name="idieresis" unicode="&#xef;" horiz-adv-x="450" 
d="M295 1331h147v-147h-147v147zM10 1331h148v-147h-148v147zM164 0v997l123 41v-1038h-123z" />
    <glyph glyph-name="eth" unicode="&#xf0;" horiz-adv-x="1087" 
d="M219 371q0 -154 76 -206q75 -52 239 -52t219 56q54 56 54 202v299q-5 129 -63 180t-222 51t-232 -52t-71 -206v-272zM944 322q0 -168 -97 -252t-335 -83t-334 84t-96 251v370q0 168 97 251t335 85q129 0 195 -24t98 -76v6q0 238 -150 377l-149 -150l-92 92l133 133
q-88 49 -203 76l90 92q115 -29 205 -75l109 108l92 -92l-92 -92q195 -176 194 -494v-587z" />
    <glyph glyph-name="ntilde" unicode="&#xf1;" 
d="M652 1276q-26 0 -80 -46t-105 -46q-82 0 -174 84l51 69q84 -59 118 -59t85 46t96 46q74 0 176 -86l-51 -65q-90 57 -116 57zM164 0v1012l82 26l45 -90q119 90 303 90t266 -90t82 -260v-688h-123v649q0 147 -51 209t-207 64q-156 0 -274 -88v-834h-123z" />
    <glyph glyph-name="ograve" unicode="&#xf2;" horiz-adv-x="1130" 
d="M315 1401l76 72l260 -242l-76 -72zM270 375q0 -147 52 -209t198 -64h90q146 0 198 62t52 211v274q0 147 -51 209t-199 64h-92q-147 -2 -197 -64t-51 -209v-274zM625 1038q195 0 279 -90t83 -260v-352q0 -170 -84 -260t-278 -90h-119q-195 0 -279 90t-84 260v352
q0 170 84 260t279 90h119z" />
    <glyph glyph-name="oacute" unicode="&#xf3;" horiz-adv-x="1130" 
d="M739 1473l76 -72l-260 -242l-76 72zM270 375q0 -147 52 -209t198 -64h90q146 0 198 62t52 211v274q0 147 -51 209t-199 64h-92q-147 -2 -197 -64t-51 -209v-274zM625 1038q195 0 279 -90t83 -260v-352q0 -170 -84 -260t-278 -90h-119q-195 0 -279 90t-84 260v352
q0 170 84 260t279 90h119z" />
    <glyph glyph-name="ocircumflex" unicode="&#xf4;" horiz-adv-x="1130" 
d="M414 1153l-76 72l225 207l230 -207l-70 -72l-160 139zM270 375q0 -147 52 -209t198 -64h90q146 0 198 62t52 211v274q0 147 -51 209t-199 64h-92q-147 -2 -197 -64t-51 -209v-274zM625 1038q195 0 279 -90t83 -260v-352q0 -170 -84 -260t-278 -90h-119q-195 0 -279 90
t-84 260v352q0 170 84 260t279 90h119z" />
    <glyph glyph-name="otilde" unicode="&#xf5;" horiz-adv-x="1130" 
d="M660 1276q-26 0 -80 -46q-53 -46 -105 -46q-82 0 -174 84l51 69q84 -59 118 -59t85 46t96 46q74 0 176 -86l-51 -65q-90 57 -116 57zM270 375q0 -147 52 -209t198 -64h90q146 0 198 62t52 211v274q0 147 -51 209t-199 64h-92q-147 -2 -197 -64t-51 -209v-274zM625 1038
q195 0 279 -90t83 -260v-352q0 -170 -84 -260t-278 -90h-119q-195 0 -279 90t-84 260v352q0 170 84 260t279 90h119z" />
    <glyph glyph-name="odieresis" unicode="&#xf6;" horiz-adv-x="1130" 
d="M633 1331h147v-147h-147v147zM348 1331h148v-147h-148v147zM270 375q0 -147 52 -209t198 -64h90q146 0 198 62t52 211v274q0 147 -51 209t-199 64h-92q-147 -2 -197 -64t-51 -209v-274zM625 1038q195 0 279 -90t83 -260v-352q0 -170 -84 -260t-278 -90h-119
q-195 0 -279 90t-84 260v352q0 170 84 260t279 90h119z" />
    <glyph glyph-name="divide" unicode="&#xf7;" horiz-adv-x="841" 
d="M698 821v-108h-555v108h555zM332 1280h174v-174h-174v174zM332 430h174v-174h-174v174z" />
    <glyph glyph-name="oslash" unicode="&#xf8;" horiz-adv-x="1130" 
d="M860 649q0 104 -23 165q-24 60 -87 85l-242 -797h102q146 0 198 62t52 211v274zM270 375q0 -115 29 -176t107 -84l243 805q-12 2 -39 2h-92q-147 -2 -197 -64t-51 -209v-274zM143 688q0 170 84 260t279 90h119q41 0 59 -2l82 273h106l-88 -293q203 -61 203 -328v-352
q0 -170 -84 -260t-278 -90h-119l-33 2l-63 -215h-107l68 227q-227 53 -228 336v352z" />
    <glyph glyph-name="ugrave" unicode="&#xf9;" 
d="M297 1401l76 72l260 -242l-76 -72zM276 375q0 -147 52 -209t206 -64q156 0 275 88v793l123 41v-1024h-82l-41 78q-121 -92 -305 -92t-268 90q-82 90 -82 260v647l122 41v-649z" />
    <glyph glyph-name="uacute" unicode="&#xfa;" 
d="M741 1473l76 -72l-260 -242l-76 72zM276 375q0 -147 52 -209t206 -64q156 0 275 88v793l123 41v-1024h-82l-41 78q-121 -92 -305 -92t-268 90q-82 90 -82 260v647l122 41v-649z" />
    <glyph glyph-name="ucircumflex" unicode="&#xfb;" 
d="M395 1153l-76 72l226 207l229 -207l-69 -72l-160 139zM276 375q0 -147 52 -209t206 -64q156 0 275 88v793l123 41v-1024h-82l-41 78q-121 -92 -305 -92t-268 90q-82 90 -82 260v647l122 41v-649z" />
    <glyph glyph-name="udieresis" unicode="&#xfc;" 
d="M616 1331h148v-147h-148v147zM332 1331h147v-147h-147v147zM276 375q0 -147 52 -209t206 -64q156 0 275 88v793l123 41v-1024h-82l-41 78q-121 -92 -305 -92t-268 90q-82 90 -82 260v647l122 41v-649z" />
    <glyph glyph-name="yacute" unicode="&#xfd;" horiz-adv-x="845" 
d="M596 1473l76 -72l-260 -242l-76 72zM0 1018l125 20l299 -864l289 850h133l-438 -1286q-92 -283 -345 -246l-10 88q98 -14 150 37q51 51 96 182l61 185z" />
    <glyph glyph-name="thorn" unicode="&#xfe;" horiz-adv-x="1052" 
d="M440 897h-143v-770h143q192 0 262 47t70 180v316q0 133 -70 180t-262 47zM164 -512v2023l133 45v-532h143q246 0 358 -77t111 -238v-394q1 -163 -111 -239t-358 -76h-143v-512h-133z" />
    <glyph glyph-name="ydieresis" unicode="&#xff;" horiz-adv-x="845" 
d="M502 1331h147v-147h-147v147zM217 1331h148v-147h-148v147zM0 1018l125 20l299 -864l289 850h133l-438 -1286q-92 -283 -345 -246l-10 88q98 -14 150 37q51 51 96 182l61 185z" />
    <glyph glyph-name="Amacron" unicode="&#x100;" horiz-adv-x="1120" 
d="M301 1794h516v-94h-516v94zM561 1339l-244 -774h486zM139 0h-139l471 1503l162 51l487 -1554h-139l-137 438h-568z" />
    <glyph glyph-name="amacron" unicode="&#x101;" horiz-adv-x="958" 
d="M221 1282h516v-94h-516v94zM477 504q-147 0 -218 -40t-71 -156q0 -114 56 -160t200 -46q142 0 248 78q-4 37 -4 125v195q-188 4 -211 4zM897 0q-141 0 -182 88q-115 -102 -273 -102q-381 0 -381 309v27q0 299 402 299q92 0 225 -15v84q0 131 -43 181q-43 51 -191 51
t-251 -29l-25 98q121 47 299 47t256 -74t78 -235v-399q1 -172 17 -206t69 -38v-86z" />
    <glyph glyph-name="Abreve" unicode="&#x102;" horiz-adv-x="1120" 
d="M647 1862h76v-66q0 -61 -36 -90t-126 -29t-127 29t-37 90v66h76v-37q0 -43 14 -57q13 -14 57 -13q44 0 59 3q15 4 29 20t15 47v37zM561 1339l-244 -774h486zM139 0h-139l471 1503l162 51l487 -1554h-139l-137 438h-568z" />
    <glyph glyph-name="abreve" unicode="&#x103;" horiz-adv-x="958" 
d="M565 1350h76v-66q0 -61 -36 -90t-126 -29t-127 29t-37 90v66h76v-37q1 -43 15 -57t57 -13q43 0 58 3q15 4 29 20t15 47v37zM477 504q-147 0 -218 -40t-71 -156q0 -114 56 -160t200 -46q142 0 248 78q-4 37 -4 125v195q-188 4 -211 4zM897 0q-141 0 -182 88
q-115 -102 -273 -102q-381 0 -381 309v27q0 299 402 299q92 0 225 -15v84q0 131 -43 181q-43 51 -191 51t-251 -29l-25 98q121 47 299 47t256 -74t78 -235v-399q1 -172 17 -206t69 -38v-86z" />
    <glyph glyph-name="Aogonek" unicode="&#x104;" horiz-adv-x="1120" 
d="M561 1339l-244 -774h486zM1077 -276h-51q-90 0 -127 28t-37 90v117q0 98 94 115l-112 364h-568l-137 -438h-139l471 1503l162 51l487 -1554h-119q-41 -2 -52 -15t-11 -55v-59q0 -43 14 -56t70 -14h59q68 0 95 37l53 -59q-31 -55 -152 -55z" />
    <glyph glyph-name="aogonek" unicode="&#x105;" horiz-adv-x="958" 
d="M477 504q-147 0 -218 -40t-71 -156q0 -114 56 -160t200 -46q142 0 248 78q-4 37 -4 125v195q-188 4 -211 4zM596 -276h-51q-90 0 -127 28t-37 90v117q0 20 2 29q-322 23 -322 307v27q0 299 402 299q92 0 225 -15v84q0 131 -43 181q-43 51 -191 51t-251 -29l-25 98
q121 47 299 47t256 -74t78 -235v-399q0 -172 16 -206t70 -38v-86q-141 0 -182 88q-102 -94 -246 -100q-12 -12 -12 -58v-59q0 -43 14 -56t70 -14h59q67 0 94 37l54 -59q-31 -55 -152 -55z" />
    <glyph glyph-name="Cacute" unicode="&#x106;" horiz-adv-x="978" 
d="M745 1985l76 -72l-260 -242l-76 72zM648 113q178 0 294 47l37 -105q-143 -65 -357 -67t-331 70t-117 237v940q0 315 453 315q152 0 323 -26l-24 -117q-117 16 -288 16t-249 -44t-78 -183v-860q0 -137 79 -180q80 -43 258 -43z" />
    <glyph glyph-name="cacute" unicode="&#x107;" horiz-adv-x="829" 
d="M686 1473l76 -72l-260 -242l-76 72zM143 336v387q1 145 103 230t289 85q92 0 266 -26l-23 -107q-123 16 -229 17q-279 0 -279 -238v-309q0 -145 50 -208t206 -64q158 -1 265 47l38 -95q-133 -69 -325 -69t-277 90q-84 90 -84 260z" />
    <glyph glyph-name="Ccircumflex" unicode="&#x108;" horiz-adv-x="978" 
d="M467 1665l-76 72l225 207l230 -207l-70 -72l-160 139zM648 113q178 0 294 47l37 -105q-143 -65 -357 -67t-331 70t-117 237v940q0 315 453 315q152 0 323 -26l-24 -117q-117 16 -288 16t-249 -44t-78 -183v-860q0 -137 79 -180q80 -43 258 -43z" />
    <glyph glyph-name="ccircumflex" unicode="&#x109;" horiz-adv-x="829" 
d="M365 1153l-76 72l225 207l229 -207l-69 -72l-160 139zM143 336v387q1 145 103 230t289 85q92 0 266 -26l-23 -107q-123 16 -229 17q-279 0 -279 -238v-309q0 -145 50 -208t206 -64q158 -1 265 47l38 -95q-133 -69 -325 -69t-277 90q-84 90 -84 260z" />
    <glyph glyph-name="Cdotaccent" unicode="&#x10a;" horiz-adv-x="978" 
d="M541 1862h147v-148h-147v148zM648 113q178 0 294 47l37 -105q-143 -65 -357 -67t-331 70t-117 237v940q0 315 453 315q152 0 323 -26l-24 -117q-117 16 -288 16t-249 -44t-78 -183v-860q0 -137 79 -180q80 -43 258 -43z" />
    <glyph glyph-name="cdotaccent" unicode="&#x10b;" horiz-adv-x="829" 
d="M444 1350h148v-148h-148v148zM143 336v387q1 145 103 230t289 85q92 0 266 -26l-23 -107q-123 16 -229 17q-279 0 -279 -238v-309q0 -145 50 -208t206 -64q158 -1 265 47l38 -95q-133 -69 -325 -69t-277 90q-84 90 -84 260z" />
    <glyph glyph-name="Ccaron" unicode="&#x10c;" horiz-adv-x="978" 
d="M383 1872l76 72l149 -140l160 140l70 -72l-230 -207zM648 113q178 0 294 47l37 -105q-143 -65 -357 -67t-331 70t-117 237v940q0 315 453 315q152 0 323 -26l-24 -117q-117 16 -288 16t-249 -44t-78 -183v-860q0 -137 79 -180q80 -43 258 -43z" />
    <glyph glyph-name="ccaron" unicode="&#x10d;" horiz-adv-x="829" 
d="M285 1360l75 72l150 -140l160 140l69 -72l-229 -207zM143 336v387q1 145 103 230t289 85q92 0 266 -26l-23 -107q-123 16 -229 17q-279 0 -279 -238v-309q0 -145 50 -208t206 -64q158 -1 265 47l38 -95q-133 -69 -325 -69t-277 90q-84 90 -84 260z" />
    <glyph glyph-name="Dcaron" unicode="&#x10e;" horiz-adv-x="1247" 
d="M395 1872l76 72l150 -140l159 140l70 -72l-229 -207zM317 1409v-1282h287q192 0 262 47t70 180v828q0 133 -70 180t-262 47h-287zM184 0v1536h420q246 0 358 -77t111 -238v-906q1 -163 -111 -239t-358 -76h-420z" />
    <glyph glyph-name="dcaron" unicode="&#x10f;" horiz-adv-x="1251" 
d="M1090 1536h131l-125 -346l-88 18zM270 649v-274q0 -147 52 -209t206 -64q156 0 275 88v644q-123 88 -277 88t-204 -63q-52 -63 -52 -210zM496 -14q-186 0 -269 90q-84 90 -84 260v352q0 170 84 260q83 90 269 90t307 -94v551l123 41v-1536h-82l-41 78q-121 -92 -307 -92z
" />
    <glyph glyph-name="Dcroat" unicode="&#x110;" horiz-adv-x="1247" 
d="M303 705v-578h287q192 0 262 47t70 180v828q0 133 -70 180t-262 47h-287v-578h236v-126h-236zM170 1536h420q246 0 358 -77t111 -238v-906q0 -163 -112 -239t-357 -76h-420v705h-180l41 126h139v705z" />
    <glyph glyph-name="dcroat" unicode="&#x111;" horiz-adv-x="1089" 
d="M270 649v-274q0 -147 52 -209t206 -64q156 0 275 88v644q-123 88 -277 88t-204 -63q-52 -63 -52 -210zM803 1311v184l123 41v-225h164v-117h-164v-1194h-82l-41 78q-121 -92 -307 -92t-269 90q-84 90 -84 260v352q0 170 84 260q83 90 269 90t307 -94v250h-281l41 117h240
z" />
    <glyph glyph-name="Emacron" unicode="&#x112;" horiz-adv-x="960" 
d="M303 1794h516v-94h-516v94zM184 0v1536h766l-41 -127h-592v-537h510v-127h-510v-618h633l-41 -127h-725z" />
    <glyph glyph-name="emacron" unicode="&#x113;" horiz-adv-x="970" 
d="M258 1282h516v-94h-516v94zM270 649v-88h512v88q0 147 -51 209t-199 64h-12q-146 0 -198 -63t-52 -210zM547 1038q195 0 279 -90t83 -260v-244h-639v-69q0 -145 49 -207t195 -66q209 0 336 78l35 -92q-137 -98 -379 -102q-195 0 -279 90t-84 260v352q0 170 84 260t279 90
h41z" />
    <glyph glyph-name="Edotaccent" unicode="&#x116;" horiz-adv-x="960" 
d="M508 1862h147v-148h-147v148zM184 0v1536h766l-41 -127h-592v-537h510v-127h-510v-618h633l-41 -127h-725z" />
    <glyph glyph-name="edotaccent" unicode="&#x117;" horiz-adv-x="970" 
d="M444 1350h148v-148h-148v148zM270 649v-88h512v88q0 147 -51 209t-199 64h-12q-146 0 -198 -63t-52 -210zM547 1038q195 0 279 -90t83 -260v-244h-639v-69q0 -145 49 -207t195 -66q209 0 336 78l35 -92q-137 -98 -379 -102q-195 0 -279 90t-84 260v352q0 170 84 260
t279 90h41z" />
    <glyph glyph-name="Eogonek" unicode="&#x118;" horiz-adv-x="960" 
d="M184 0v1536h766l-41 -127h-592v-537h510v-127h-510v-618h633l-41 -127h-329q-40 -2 -52 -15t-12 -55v-59q0 -43 14 -56t70 -14h59q68 0 95 37l53 -59q-31 -55 -152 -55h-51q-90 0 -127 28t-37 90v117q0 29 4 41h-260z" />
    <glyph glyph-name="eogonek" unicode="&#x119;" horiz-adv-x="970" 
d="M270 649v-88h512v88q0 147 -51 209t-199 64h-12q-146 0 -198 -63t-52 -210zM655 -276h-51q-90 0 -127 28t-37 90v117q0 20 2 31q-299 25 -299 346v352q0 170 84 260t279 90h41q195 0 279 -90t83 -260v-244h-639v-69q0 -145 49 -207t195 -66q209 0 336 78l35 -92
q-125 -90 -357 -102q-12 -12 -12 -56v-59q0 -43 14 -56t70 -14h59q68 0 95 37l53 -59q-31 -55 -152 -55z" />
    <glyph glyph-name="Ecaron" unicode="&#x11a;" horiz-adv-x="960" 
d="M354 1872l76 72l150 -140l159 140l70 -72l-229 -207zM184 0v1536h766l-41 -127h-592v-537h510v-127h-510v-618h633l-41 -127h-725z" />
    <glyph glyph-name="ecaron" unicode="&#x11b;" horiz-adv-x="970" 
d="M299 1360l76 72l149 -140l160 140l70 -72l-230 -207zM270 649v-88h512v88q0 147 -51 209t-199 64h-12q-146 0 -198 -63t-52 -210zM547 1038q195 0 279 -90t83 -260v-244h-639v-69q0 -145 49 -207t195 -66q209 0 336 78l35 -92q-137 -98 -379 -102q-195 0 -279 90t-84 260
v352q0 170 84 260t279 90h41z" />
    <glyph glyph-name="Gcircumflex" unicode="&#x11c;" horiz-adv-x="1140" 
d="M494 1665l-76 72l225 207l229 -207l-69 -72l-160 139zM639 113q170 0 287 55v528l133 41v-637l-33 -20h-2q-139 -90 -399 -94q-217 0 -334 72t-117 237v940q0 315 453 315q205 0 389 -39l-25 -114q-133 27 -329 27t-273 -45q-78 -44 -78 -183v-860q0 -137 79 -180
t249 -43z" />
    <glyph glyph-name="gcircumflex" unicode="&#x11d;" horiz-adv-x="1089" 
d="M393 1153l-76 72l226 207l229 -207l-70 -72l-159 139zM270 649v-274q0 -147 52 -209t206 -64q156 0 275 88v644q-123 88 -277 88t-204 -63q-52 -63 -52 -210zM803 -156v234q-121 -92 -307 -92t-269 90q-84 90 -84 260v352q0 170 84 260q85 90 273 90t307 -98l37 72l82 26
v-1233q0 -145 -102 -230t-289 -85q-94 0 -267 27l23 106q123 -16 229 -16q283 -1 283 237z" />
    <glyph glyph-name="Gbreve" unicode="&#x11e;" horiz-adv-x="1140" 
d="M721 1862h76v-66q0 -61 -36 -90t-126 -29t-127 29t-37 90v66h76v-37q0 -43 14 -57q13 -14 57 -13q44 0 59 3q15 4 29 20t15 47v37zM639 113q170 0 287 55v528l133 41v-637l-33 -20h-2q-139 -90 -399 -94q-217 0 -334 72t-117 237v940q0 315 453 315q205 0 389 -39
l-25 -114q-133 27 -329 27t-273 -45q-78 -44 -78 -183v-860q0 -137 79 -180t249 -43z" />
    <glyph glyph-name="gbreve" unicode="&#x11f;" horiz-adv-x="1089" 
d="M631 1350h76v-66q0 -61 -36 -90t-126 -29t-127 29t-37 90v66h76v-37q0 -43 14 -57q13 -14 57 -13q44 0 59 3q15 4 29 20t15 47v37zM270 649v-274q0 -147 52 -209t206 -64q156 0 275 88v644q-123 88 -277 88t-204 -63q-52 -63 -52 -210zM803 -156v234q-121 -92 -307 -92
t-269 90q-84 90 -84 260v352q0 170 84 260q85 90 273 90t307 -98l37 72l82 26v-1233q0 -145 -102 -230t-289 -85q-94 0 -267 27l23 106q123 -16 229 -16q283 -1 283 237z" />
    <glyph glyph-name="Gdotaccent" unicode="&#x120;" horiz-adv-x="1140" 
d="M553 1862h147v-148h-147v148zM639 113q170 0 287 55v528l133 41v-637l-33 -20h-2q-139 -90 -399 -94q-217 0 -334 72t-117 237v940q0 315 453 315q205 0 389 -39l-25 -114q-133 27 -329 27t-273 -45q-78 -44 -78 -183v-860q0 -137 79 -180t249 -43z" />
    <glyph glyph-name="gdotaccent" unicode="&#x121;" horiz-adv-x="1089" 
d="M451 1350h147v-148h-147v148zM270 649v-274q0 -147 52 -209t206 -64q156 0 275 88v644q-123 88 -277 88t-204 -63q-52 -63 -52 -210zM803 -156v234q-121 -92 -307 -92t-269 90q-84 90 -84 260v352q0 170 84 260q85 90 273 90t307 -98l37 72l82 26v-1233q0 -145 -102 -230
t-289 -85q-94 0 -267 27l23 106q123 -16 229 -16q283 -1 283 237z" />
    <glyph glyph-name="Gcommaaccent" unicode="&#x122;" horiz-adv-x="1140" 
d="M639 113q170 0 287 55v528l133 41v-637l-33 -20h-2q-139 -90 -399 -94q-217 0 -334 72t-117 237v940q0 315 453 315q205 0 389 -39l-25 -114q-133 27 -329 27t-273 -45q-78 -44 -78 -183v-860q0 -137 79 -180t249 -43zM594 -109h131l-125 -346l-88 19z" />
    <glyph glyph-name="gcommaaccent" unicode="&#x123;" horiz-adv-x="1089" 
d="M590 1194h-131l125 346l88 -18zM270 649v-274q0 -147 52 -209t206 -64q156 0 275 88v644q-123 88 -277 88t-204 -63q-52 -63 -52 -210zM803 -156v234q-121 -92 -307 -92t-269 90q-84 90 -84 260v352q0 170 84 260q85 90 273 90t307 -98l37 72l82 26v-1233
q0 -145 -102 -230t-289 -85q-94 0 -267 27l23 106q123 -16 229 -16q283 -1 283 237z" />
    <glyph glyph-name="Hcircumflex" unicode="&#x124;" horiz-adv-x="1376" 
d="M537 1665l-76 72l225 207l229 -207l-69 -72l-160 139zM1059 0v745h-742v-745h-133v1511l133 41v-680h742v639l133 45v-1556h-133z" />
    <glyph glyph-name="hcircumflex" unicode="&#x125;" 
d="M461 1257l-76 72l225 207l230 -207l-70 -72l-160 140zM819 0v649q0 147 -51 209t-207 64q-156 0 -274 -88v-834h-123v1495l123 41v-592q117 94 303 94t270 -90q82 -90 82 -260v-688h-123z" />
    <glyph glyph-name="Hbar" unicode="&#x126;" horiz-adv-x="1376" 
d="M317 872h742v263h-742v-263zM33 1135v127h151v249l133 45v-294h742v249l133 45v-294h151v-127h-151v-1135h-133v745h-742v-745h-133v1135h-151z" />
    <glyph glyph-name="hbar" unicode="&#x127;" 
d="M0 1194v117h164v184l123 41v-225h280v-117h-280v-250q117 94 303 94t270 -90q82 -90 82 -260v-688h-123v649q0 147 -51 209t-207 64q-156 0 -274 -88v-834h-123v1194h-164z" />
    <glyph glyph-name="Itilde" unicode="&#x128;" horiz-adv-x="501" 
d="M346 1788q-26 0 -80 -46t-104 -46q-82 0 -174 84l51 69q84 -59 118 -59t85 46t96 46q74 0 176 -86l-51 -65q-91 57 -117 57zM184 0v1511l133 45v-1556h-133z" />
    <glyph glyph-name="itilde" unicode="&#x129;" horiz-adv-x="450" 
d="M322 1276q-26 0 -80 -46q-53 -46 -105 -46q-82 0 -174 84l51 69q84 -59 118 -59t85 46t96 46q74 0 176 -86l-51 -65q-90 57 -116 57zM164 0v997l123 41v-1038h-123z" />
    <glyph glyph-name="Imacron" unicode="&#x12a;" horiz-adv-x="501" 
d="M-6 1794h516v-94h-516v94zM184 0v1511l133 45v-1556h-133z" />
    <glyph glyph-name="imacron" unicode="&#x12b;" horiz-adv-x="450" 
d="M-33 1282h516v-94h-516v94zM164 0v997l123 41v-1038h-123z" />
    <glyph glyph-name="Iogonek" unicode="&#x12e;" horiz-adv-x="501" 
d="M303 -276h-51q-90 0 -127 28t-37 90v117q0 98 96 115v1437l133 45v-1556h-98q-35 -2 -45 -16t-10 -54v-59q0 -43 14 -56t70 -14h59q67 0 94 37l54 -59q-31 -55 -152 -55z" />
    <glyph glyph-name="iogonek" unicode="&#x12f;" horiz-adv-x="450" 
d="M164 1536h123v-139h-123v139zM289 -276h-51q-90 0 -127 28t-37 90v117q0 96 90 113v925l123 41v-1038h-82q-35 -2 -45 -16t-10 -54v-59q0 -43 14 -56t69 -14h60q67 0 94 37l53 -59q-31 -55 -151 -55z" />
    <glyph glyph-name="Idotaccent" unicode="&#x130;" horiz-adv-x="501" 
d="M176 1862h148v-148h-148v148zM184 0v1511l133 45v-1556h-133z" />
    <glyph glyph-name="dotlessi" unicode="&#x131;" horiz-adv-x="450" 
d="M164 0v997l123 41v-1038h-123z" />
    <glyph glyph-name="Jcircumflex" unicode="&#x134;" horiz-adv-x="655" 
d="M258 1665l-76 72l226 207l229 -207l-70 -72l-159 139zM0 -14v127q194 0 266 51t72 186v1161l133 45v-1255q0 -162 -112 -239t-357 -76h-2z" />
    <glyph glyph-name="jcircumflex" unicode="&#x135;" horiz-adv-x="522" 
d="M145 1153l-75 72l225 207l229 -207l-69 -72l-160 139zM358 -80q0 -301 -309 -315h-65l-25 119q27 -2 76 -3q123 -1 162 57t39 181v1038l122 41v-1118z" />
    <glyph glyph-name="Kcommaaccent" unicode="&#x136;" horiz-adv-x="1062" 
d="M317 4h-133v1507l133 45v-645l535 625h164l-469 -547q47 -20 117 -153l399 -822l-129 -28l-453 925l-164 -192v-715zM532 -109h132l-125 -346l-88 19z" />
    <glyph glyph-name="kcommaaccent" unicode="&#x137;" horiz-adv-x="929" 
d="M287 0h-123v1495l123 41v-926l366 414h168l-338 -381q33 -10 61 -42t77 -103l309 -480l-133 -30l-379 581l-131 -147v-422zM451 -109h131l-125 -346l-88 19z" />
    <glyph glyph-name="kgreenlandic" unicode="&#x138;" horiz-adv-x="929" 
d="M287 0h-123v997l123 41v-428l366 414h168l-338 -381q33 -10 61 -42t77 -103l309 -480l-133 -30l-379 581l-131 -147v-422z" />
    <glyph glyph-name="Lacute" unicode="&#x139;" horiz-adv-x="868" 
d="M748 1536l75 -72l-260 -241l-76 71zM184 0v1511l133 45v-1429h551v-127h-684z" />
    <glyph glyph-name="lacute" unicode="&#x13a;" horiz-adv-x="450" 
d="M317 1966l76 -72l-260 -241l-76 71zM164 0v1495l123 41v-1536h-123z" />
    <glyph glyph-name="Lcommaaccent" unicode="&#x13b;" horiz-adv-x="868" 
d="M184 0v1511l133 45v-1429h551v-127h-684zM469 -109h131l-125 -346l-88 19z" />
    <glyph glyph-name="lcommaaccent" unicode="&#x13c;" horiz-adv-x="450" 
d="M164 0v1495l123 41v-1536h-123zM184 -109h131l-125 -346l-88 19z" />
    <glyph glyph-name="Lcaron" unicode="&#x13d;" horiz-adv-x="868" 
d="M723 1536h131l-125 -346l-88 18zM184 0v1511l133 45v-1429h551v-127h-684z" />
    <glyph glyph-name="lcaron" unicode="&#x13e;" horiz-adv-x="634" 
d="M473 1536h131l-125 -346l-88 18zM164 0v1495l123 41v-1536h-123z" />
    <glyph glyph-name="Lslash" unicode="&#x141;" horiz-adv-x="1044" 
d="M494 127h550v-127h-684v666l-194 -111l-64 111l258 147v698l134 45v-665l192 110l64 -110l-256 -148v-616z" />
    <glyph glyph-name="lslash" unicode="&#x142;" horiz-adv-x="811" 
d="M467 0h-123v670l-199 -115l-63 111l262 149v680l123 41v-649l199 114l63 -110l-262 -152v-739z" />
    <glyph glyph-name="Nacute" unicode="&#x143;" horiz-adv-x="1320" 
d="M854 1985l76 -72l-260 -242l-76 72zM317 0h-133v1511l133 45l687 -1333v1288l133 45v-1556h-168l-652 1264v-1264z" />
    <glyph glyph-name="nacute" unicode="&#x144;" 
d="M700 1473l76 -72l-260 -242l-76 72zM164 0v1012l82 26l45 -90q119 90 303 90t266 -90t82 -260v-688h-123v649q0 147 -51 209t-207 64q-156 0 -274 -88v-834h-123z" />
    <glyph glyph-name="Ncommaaccent" unicode="&#x145;" horiz-adv-x="1320" 
d="M317 0h-133v1511l133 45l687 -1333v1288l133 45v-1556h-168l-652 1264v-1264zM594 -109h131l-125 -346l-88 19z" />
    <glyph glyph-name="ncommaaccent" unicode="&#x146;" 
d="M164 0v1012l82 26l45 -90q119 90 303 90t266 -90t82 -260v-688h-123v649q0 147 -51 209t-207 64q-156 0 -274 -88v-834h-123zM512 -109h131l-125 -346l-88 19z" />
    <glyph glyph-name="Ncaron" unicode="&#x147;" horiz-adv-x="1320" 
d="M432 1872l76 72l149 -140l160 140l70 -72l-230 -207zM317 0h-133v1511l133 45l687 -1333v1288l133 45v-1556h-168l-652 1264v-1264z" />
    <glyph glyph-name="ncaron" unicode="&#x148;" 
d="M340 1360l76 72l149 -140l160 140l70 -72l-230 -207zM164 0v1012l82 26l45 -90q119 90 303 90t266 -90t82 -260v-688h-123v649q0 147 -51 209t-207 64q-156 0 -274 -88v-834h-123z" />
    <glyph glyph-name="Eng" unicode="&#x14a;" horiz-adv-x="1320" 
d="M317 0h-133v1511l133 45l687 -1333v1288l133 45v-1753q0 -163 -112 -239t-357 -76h-2v127q194 0 266 51t72 187v147h-35l-652 1264v-1264z" />
    <glyph glyph-name="eng" unicode="&#x14b;" 
d="M819 649q0 147 -51 209t-207 64q-156 0 -274 -88v-834h-123v1012l82 26l45 -90q119 90 303 90t266 -90t82 -260v-885q0 -301 -309 -315h-66l-24 119q27 -2 75 -2q123 0 162 57t39 180v807z" />
    <glyph glyph-name="Omacron" unicode="&#x14c;" horiz-adv-x="1333" 
d="M408 1794h516v-94h-516v94zM1022 1186q0 135 -71 186t-259 51h-45q-193 0 -265 -51t-71 -186v-836q0 -135 70 -186t260 -51h45q192 0 264 51t72 186v836zM1159 301q-1 -161 -113 -237t-356 -78h-43q-245 0 -359 76t-114 239v934q0 162 113 239t358 76h45q244 -2 357 -79
t112 -236v-934z" />
    <glyph glyph-name="omacron" unicode="&#x14d;" horiz-adv-x="1130" 
d="M311 1282h516v-94h-516v94zM270 375q0 -147 52 -209t198 -64h90q146 0 198 62t52 211v274q0 147 -51 209t-199 64h-92q-147 -2 -197 -64t-51 -209v-274zM625 1038q195 0 279 -90t83 -260v-352q0 -170 -84 -260t-278 -90h-119q-195 0 -279 90t-84 260v352q0 170 84 260
t279 90h119z" />
    <glyph glyph-name="Ohungarumlaut" unicode="&#x150;" horiz-adv-x="1333" 
d="M905 2046h166l-207 -283h-106zM612 2046h166l-207 -283h-106zM1022 1186q0 135 -71 186t-259 51h-45q-193 0 -265 -51t-71 -186v-836q0 -135 70 -186t260 -51h45q192 0 264 51t72 186v836zM1159 301q-1 -161 -113 -237t-356 -78h-43q-245 0 -359 76t-114 239v934
q0 162 113 239t358 76h45q244 -2 357 -79t112 -236v-934z" />
    <glyph glyph-name="ohungarumlaut" unicode="&#x151;" horiz-adv-x="1130" 
d="M825 1534h166l-207 -283h-106zM532 1534h166l-206 -283h-107zM270 375q0 -147 52 -209t198 -64h90q146 0 198 62t52 211v274q0 147 -51 209t-199 64h-92q-147 -2 -197 -64t-51 -209v-274zM625 1038q195 0 279 -90t83 -260v-352q0 -170 -84 -260t-278 -90h-119
q-195 0 -279 90t-84 260v352q0 170 84 260t279 90h119z" />
    <glyph glyph-name="OE" unicode="&#x152;" horiz-adv-x="1798" 
d="M1022 1128q0 178 -69 238t-261 61h-45q-193 0 -265 -51t-71 -186v-840q0 -135 70 -186t260 -51h45q194 0 264 57t72 223v735zM1022 0v76q-84 -88 -332 -90h-43q-245 0 -359 76t-114 239v938q0 162 113 239t358 76h45q244 -2 332 -86v68h766l-41 -127h-592v-537h510v-127
h-510v-618h633l-41 -127h-725z" />
    <glyph glyph-name="oe" unicode="&#x153;" horiz-adv-x="1687" 
d="M987 561h512v88q0 147 -51 209t-199 64h-12q-141 0 -193 -58t-57 -188v-115zM270 375q0 -147 52 -209t198 -64h90q146 0 198 62t52 211v274q0 147 -51 209t-199 64h-92q-147 -2 -197 -64t-51 -209v-274zM625 1038q211 0 299 -114q88 115 299 114h41q194 0 278 -90
t84 -260v-244h-639v-96q4 -129 54 -186t190 -60q209 0 336 78l35 -92q-137 -98 -379 -102q-213 0 -299 114q-86 -115 -299 -114h-119q-195 0 -279 90t-84 260v352q0 170 84 260t279 90h119z" />
    <glyph glyph-name="Racute" unicode="&#x154;" horiz-adv-x="1124" 
d="M756 1985l75 -72l-260 -242l-75 72zM317 1409v-625h246q193 0 263 47t69 181v170q0 133 -70 180t-262 47h-246zM184 0v1536h379q246 0 358 -77t111 -238v-248q0 -131 -72 -205t-225 -98q37 -20 94 -115l285 -537l-133 -30l-352 671q-23 -2 -66 -2h-246v-657h-133z" />
    <glyph glyph-name="racute" unicode="&#x155;" horiz-adv-x="651" 
d="M573 1473l76 -72l-260 -242l-76 72zM164 0v1012l82 26l41 -80v-47q94 127 256 127q88 0 149 -18l-24 -127q-53 25 -140 25q-141 0 -241 -123v-795h-123z" />
    <glyph glyph-name="Rcommaaccent" unicode="&#x156;" horiz-adv-x="1124" 
d="M317 1409v-625h246q193 0 263 47t69 181v170q0 133 -70 180t-262 47h-246zM184 0v1536h379q246 0 358 -77t111 -238v-248q0 -131 -72 -205t-225 -98q37 -20 94 -115l285 -537l-133 -30l-352 671q-23 -2 -66 -2h-246v-657h-133zM553 -109h131l-125 -346l-88 19z" />
    <glyph glyph-name="rcommaaccent" unicode="&#x157;" horiz-adv-x="651" 
d="M164 0v1012l82 26l41 -80v-47q94 127 256 127q88 0 149 -18l-24 -127q-53 25 -140 25q-141 0 -241 -123v-795h-123zM166 -109h131l-125 -346l-88 19z" />
    <glyph glyph-name="Rcaron" unicode="&#x158;" horiz-adv-x="1124" 
d="M354 1872l76 72l150 -140l159 140l70 -72l-229 -207zM317 1409v-625h246q193 0 263 47t69 181v170q0 133 -70 180t-262 47h-246zM184 0v1536h379q246 0 358 -77t111 -238v-248q0 -131 -72 -205t-225 -98q37 -20 94 -115l285 -537l-133 -30l-352 671q-23 -2 -66 -2h-246
v-657h-133z" />
    <glyph glyph-name="rcaron" unicode="&#x159;" horiz-adv-x="651" 
d="M186 1360l76 72l150 -140l159 140l70 -72l-229 -207zM164 0v1012l82 26l41 -80v-47q94 127 256 127q88 0 149 -18l-24 -127q-53 25 -140 25q-141 0 -241 -123v-795h-123z" />
    <glyph glyph-name="Sacute" unicode="&#x15a;" horiz-adv-x="944" 
d="M670 1985l75 -72l-260 -242l-75 72zM903 442q0 -227 -91 -342t-304 -114q-338 0 -498 131l39 121q178 -125 440 -125q168 0 223 74q54 75 54 211t-56 193t-201 115t-207 91q-156 83 -196 197q-23 67 -22 161q0 395 414 395q225 1 362 -75l-43 -119q-147 68 -308 68
t-224 -66q-63 -64 -64 -178q0 -70 5 -104q13 -91 111 -147q54 -32 150 -69q225 -88 321 -172t95 -246z" />
    <glyph glyph-name="sacute" unicode="&#x15b;" horiz-adv-x="761" 
d="M555 1473l76 -72l-260 -242l-76 72zM411 922q-130 0 -171 -36t-41 -86t4 -67q14 -62 82 -96q43 -23 114 -47q168 -57 245 -122t77 -175q0 -307 -322 -307q-236 0 -379 102l37 98q135 -84 328 -84q127 0 168 46t41 118t-39 112t-185 90t-223 116q-76 66 -75 188
q0 266 319 266q156 0 289 -63l-39 -94q-100 41 -230 41z" />
    <glyph glyph-name="Scircumflex" unicode="&#x15c;" horiz-adv-x="944" 
d="M354 1665l-75 72l225 207l229 -207l-69 -72l-160 139zM903 442q0 -227 -91 -342t-304 -114q-338 0 -498 131l39 121q178 -125 440 -125q168 0 223 74q54 75 54 211t-56 193t-201 115t-207 91q-156 83 -196 197q-23 67 -22 161q0 395 414 395q225 1 362 -75l-43 -119
q-147 68 -308 68t-224 -66q-63 -64 -64 -178q0 -70 5 -104q13 -91 111 -147q54 -32 150 -69q225 -88 321 -172t95 -246z" />
    <glyph glyph-name="scircumflex" unicode="&#x15d;" horiz-adv-x="761" 
d="M246 1153l-76 72l225 207l230 -207l-70 -72l-160 139zM411 922q-130 0 -171 -36t-41 -86t4 -67q14 -62 82 -96q43 -23 114 -47q168 -57 245 -122t77 -175q0 -307 -322 -307q-236 0 -379 102l37 98q135 -84 328 -84q127 0 168 46t41 118t-39 112t-185 90t-223 116
q-76 66 -75 188q0 266 319 266q156 0 289 -63l-39 -94q-100 41 -230 41z" />
    <glyph glyph-name="Scedilla" unicode="&#x15e;" horiz-adv-x="944" 
d="M496 -362q53 0 67 12t17 53v16q0 43 -14 57t-70 13h-72v199q-276 16 -414 129l39 121q178 -125 440 -125q168 0 223 74q54 75 54 211t-56 193t-201 115t-207 91q-156 83 -196 197q-23 67 -22 161q0 395 414 395q225 0 362 -75l-43 -119q-147 68 -308 68t-224 -66
q-63 -64 -64 -178q0 -70 5 -104q13 -91 111 -147q54 -32 150 -69q225 -88 321 -172t95 -246q0 -227 -91 -342t-304 -114h-6v-119q84 -2 119 -30t34 -89v-70q0 -61 -37 -90t-126 -28h-52q-120 0 -151 55l53 59q31 -37 94 -36h60z" />
    <glyph glyph-name="scedilla" unicode="&#x15f;" horiz-adv-x="761" 
d="M403 -362q53 0 68 12q14 12 16 53v16q0 43 -14 57t-70 13h-71v201q-195 16 -312 98l37 98q135 -84 328 -84q127 0 168 46t41 118t-39 112t-185 90t-223 116q-76 66 -75 188q0 266 319 266q156 0 289 -63l-39 -94q-100 41 -230 41t-171 -36t-41 -86t4 -67q14 -62 82 -96
q43 -23 114 -47q168 -57 245 -122t77 -175q0 -301 -311 -307v-119q84 -2 118 -30t35 -89v-70q0 -61 -37 -90t-127 -28h-51q-120 0 -151 55l53 59q31 -37 94 -36h59z" />
    <glyph glyph-name="Scaron" unicode="&#x160;" horiz-adv-x="944" 
d="M285 1872l75 72l150 -140l160 140l69 -72l-229 -207zM903 442q0 -227 -91 -342t-304 -114q-338 0 -498 131l39 121q178 -125 440 -125q168 0 223 74q54 75 54 211t-56 193t-201 115t-207 91q-156 83 -196 197q-23 67 -22 161q0 395 414 395q225 1 362 -75l-43 -119
q-147 68 -308 68t-224 -66q-63 -64 -64 -178q0 -70 5 -104q13 -91 111 -147q54 -32 150 -69q225 -88 321 -172t95 -246z" />
    <glyph glyph-name="scaron" unicode="&#x161;" horiz-adv-x="782" 
d="M195 1360l75 72l150 -140l160 140l69 -72l-229 -207zM432 922q-130 0 -172 -36q-41 -36 -41 -86t4 -67q14 -61 82 -96q43 -23 115 -47q168 -57 245 -122t76 -175q0 -307 -321 -307q-236 0 -379 102l37 98q135 -84 328 -84q128 0 168 46t40 118t-39 112t-185 90t-222 116
t-76 188q0 266 320 266q155 0 288 -63l-38 -94q-100 41 -230 41z" />
    <glyph glyph-name="Tcommaaccent" unicode="&#x162;" horiz-adv-x="970" 
d="M971 1407h-420v-1407h-133v1407h-418l41 129h930v-129zM420 -109h131l-125 -346l-88 19z" />
    <glyph glyph-name="tcommaaccent" unicode="&#x163;" horiz-adv-x="577" 
d="M307 -109h131l-125 -346l-88 19zM578 109v-123h-35q-201 0 -275 66t-73 243v612h-175l41 117h134v225l122 41v-266h254v-117h-254v-567q0 -141 44 -186t196 -45h21z" />
    <glyph glyph-name="Tcaron" unicode="&#x164;" horiz-adv-x="970" 
d="M258 1872l76 72l149 -140l160 140l70 -72l-230 -207zM971 1407h-420v-1407h-133v1407h-418l41 129h930v-129z" />
    <glyph glyph-name="tcaron" unicode="&#x165;" horiz-adv-x="663" 
d="M502 1536h131l-125 -346l-88 18zM578 109v-123h-35q-201 0 -275 66t-73 243v612h-175l41 117h134v225l122 41v-266h254v-117h-254v-567q0 -141 44 -186t196 -45h21z" />
    <glyph glyph-name="Tbar" unicode="&#x166;" horiz-adv-x="970" 
d="M72 705v126h346v576h-418l41 129h930v-129h-420v-576h346v-126h-346v-705h-133v705h-346z" />
    <glyph glyph-name="tbar" unicode="&#x167;" horiz-adv-x="577" 
d="M195 758v149h-175l41 117h134v225l122 41v-266h254v-117h-254v-149h254v-117h-254v-301q0 -141 44 -186t196 -45h21v-123h-35q-201 0 -275 66t-73 243v346h-175l41 117h134z" />
    <glyph glyph-name="Utilde" unicode="&#x168;" horiz-adv-x="1243" 
d="M718 1788q-26 0 -80 -46t-106 -46q-82 0 -174 84l52 69q84 -59 118 -59t84 46q51 46 97 46q74 0 176 -86l-51 -65q-90 57 -116 57zM1069 319q0 -165 -103 -249t-341 -86h-4q-240 0 -343 85t-104 250v1192l133 45v-1187q0 -141 65 -199t250 -59q186 0 250 58t64 200v1142
l133 45v-1237z" />
    <glyph glyph-name="utilde" unicode="&#x169;" 
d="M644 1276q-26 0 -80 -46t-105 -46q-82 0 -174 84l51 69q84 -59 118 -59t85 46t96 46q74 0 176 -86l-51 -65q-90 57 -116 57zM276 375q0 -147 52 -209t206 -64q156 0 275 88v793l123 41v-1024h-82l-41 78q-121 -92 -305 -92t-268 90q-82 90 -82 260v647l122 41v-649z" />
    <glyph glyph-name="Umacron" unicode="&#x16a;" horiz-adv-x="1243" 
d="M362 1794h517v-94h-517v94zM1069 319q0 -165 -103 -249t-341 -86h-4q-240 0 -343 85t-104 250v1192l133 45v-1187q0 -141 65 -199t250 -59q186 0 250 58t64 200v1142l133 45v-1237z" />
    <glyph glyph-name="umacron" unicode="&#x16b;" 
d="M289 1282h516v-94h-516v94zM276 375q0 -147 52 -209t206 -64q156 0 275 88v793l123 41v-1024h-82l-41 78q-121 -92 -305 -92t-268 90q-82 90 -82 260v647l122 41v-649z" />
    <glyph glyph-name="Ubreve" unicode="&#x16c;" horiz-adv-x="1243" 
d="M709 1862h75v-66q0 -61 -36 -90t-125 -29q-90 0 -127 29t-37 90v66h76v-37q0 -43 14 -57t57 -13q42 0 58 3q16 4 30 20t15 47v37zM1069 319q0 -165 -103 -249t-341 -86h-4q-240 0 -343 85t-104 250v1192l133 45v-1187q0 -141 65 -199t250 -59q186 0 250 58t64 200v1142
l133 45v-1237z" />
    <glyph glyph-name="ubreve" unicode="&#x16d;" 
d="M635 1350h76v-66q0 -61 -36 -90t-126 -29t-127 29t-37 90v66h76v-37q0 -43 14 -57q13 -14 57 -13q44 0 59 3q15 4 29 20t15 47v37zM276 375q0 -147 52 -209t206 -64q156 0 275 88v793l123 41v-1024h-82l-41 78q-121 -92 -305 -92t-268 90q-82 90 -82 260v647l122 41v-649
z" />
    <glyph glyph-name="Uring" unicode="&#x16e;" horiz-adv-x="1243" 
d="M616 1968q-50 0 -66 -13t-15 -57v-40q0 -42 14 -56t57 -14q42 0 58 3t30 19t15 48v40q-3 42 -23 56t-70 14zM622 2046q89 0 126 -29t36 -90v-98q0 -61 -36 -90t-125 -29q-90 0 -127 29t-37 90v98q0 61 37 90t126 29zM1069 319q0 -165 -103 -249t-341 -86h-4
q-240 0 -343 85t-104 250v1192l133 45v-1187q0 -141 65 -199t250 -59q186 0 250 58t64 200v1142l133 45v-1237z" />
    <glyph glyph-name="uring" unicode="&#x16f;" 
d="M542 1456q-50 0 -66 -13t-15 -57v-40q0 -42 14 -56q13 -14 57 -14t59 3t30 19q14 16 14 48v40q-3 42 -23 56t-70 14zM548 1534q89 0 126 -29t37 -90v-98q0 -61 -36 -90t-126 -29t-127 29t-37 90v98q0 61 37 90t126 29zM276 375q0 -147 52 -209t206 -64q156 0 275 88v793
l123 41v-1024h-82l-41 78q-121 -92 -305 -92t-268 90q-82 90 -82 260v647l122 41v-649z" />
    <glyph glyph-name="Uhungarumlaut" unicode="&#x170;" horiz-adv-x="1243" 
d="M860 2046h166l-207 -283h-106zM567 2046h166l-207 -283h-106zM1069 319q0 -165 -103 -249t-341 -86h-4q-240 0 -343 85t-104 250v1192l133 45v-1187q0 -141 65 -199t250 -59q186 0 250 58t64 200v1142l133 45v-1237z" />
    <glyph glyph-name="uhungarumlaut" unicode="&#x171;" 
d="M807 1534h166l-207 -283h-107zM514 1534h166l-207 -283h-106zM276 375q0 -147 52 -209t206 -64q156 0 275 88v793l123 41v-1024h-82l-41 78q-121 -92 -305 -92t-268 90q-82 90 -82 260v647l122 41v-649z" />
    <glyph glyph-name="Uogonek" unicode="&#x172;" horiz-adv-x="1243" 
d="M782 -276h-51q-90 0 -127 28t-37 90v144q-209 8 -301 92t-92 241v1192l133 45v-1187q0 -141 65 -199t250 -59q186 0 250 58t64 200v1142l133 45v-1237q0 -163 -97 -245t-319 -90q-10 -12 -10 -54v-59q0 -43 14 -56t70 -14h59q68 0 95 37l53 -59q-31 -55 -152 -55z" />
    <glyph glyph-name="uogonek" unicode="&#x173;" 
d="M678 -276h-51q-90 0 -127 28t-37 90v117q0 18 2 29q-168 10 -240 99t-71 249v647l122 41v-649q0 -147 52 -209t206 -64q156 0 275 88v793l123 41v-1024h-82l-41 78q-106 -80 -256 -90q-14 -12 -14 -58v-59q0 -43 14 -56t70 -14h59q67 0 94 37l53 -59q-31 -55 -151 -55z
" />
    <glyph glyph-name="Wcircumflex" unicode="&#x174;" horiz-adv-x="1427" 
d="M561 1665l-76 72l226 207l229 -207l-70 -72l-159 139zM1251 1536h135l-331 -1536h-164l-178 823l-176 -823h-164l-332 1532l131 22l285 -1323l182 869h149l183 -869z" />
    <glyph glyph-name="wcircumflex" unicode="&#x175;" horiz-adv-x="1161" 
d="M428 1153l-76 72l226 207l229 -207l-70 -72l-159 139zM434 0h-143l-260 1018l121 20l215 -878l155 682h115l156 -682l211 864h126l-262 -1024h-145l-145 592z" />
    <glyph glyph-name="Ycircumflex" unicode="&#x176;" horiz-adv-x="933" 
d="M324 1665l-76 72l225 207l229 -207l-69 -72l-160 139zM532 0h-133v575l-399 957l133 22l332 -796l326 778h143l-402 -961v-575z" />
    <glyph glyph-name="ycircumflex" unicode="&#x177;" horiz-adv-x="845" 
d="M270 1153l-75 72l225 207l229 -207l-69 -72l-160 139zM0 1018l125 20l299 -864l289 850h133l-438 -1286q-92 -283 -345 -246l-10 88q98 -14 150 37q51 51 96 182l61 185z" />
    <glyph glyph-name="Ydieresis" unicode="&#x178;" horiz-adv-x="933" 
d="M543 1843h147v-147h-147v147zM258 1843h148v-147h-148v147zM532 0h-133v575l-399 957l133 22l332 -796l326 778h143l-402 -961v-575z" />
    <glyph glyph-name="Zacute" unicode="&#x179;" horiz-adv-x="843" 
d="M616 1985l76 -72l-260 -242l-76 72zM823 129v-129h-803v129l654 1278h-645l41 129h753v-129l-651 -1278h651z" />
    <glyph glyph-name="zacute" unicode="&#x17a;" horiz-adv-x="724" 
d="M561 1473l76 -72l-260 -242l-76 72zM705 0h-685v117l535 790h-514l41 117h623v-117l-537 -790h537v-117z" />
    <glyph glyph-name="Zdotaccent" unicode="&#x17b;" horiz-adv-x="843" 
d="M369 1862h147v-148h-147v148zM823 129v-129h-803v129l654 1278h-645l41 129h753v-129l-651 -1278h651z" />
    <glyph glyph-name="zdotaccent" unicode="&#x17c;" horiz-adv-x="724" 
d="M319 1350h148v-148h-148v148zM705 0h-685v117l535 790h-514l41 117h623v-117l-537 -790h537v-117z" />
    <glyph glyph-name="Zcaron" unicode="&#x17d;" horiz-adv-x="843" 
d="M215 1872l76 72l149 -140l160 140l70 -72l-230 -207zM823 129v-129h-803v129l654 1278h-645l41 129h753v-129l-651 -1278h651z" />
    <glyph glyph-name="zcaron" unicode="&#x17e;" horiz-adv-x="724" 
d="M156 1360l75 72l150 -140l160 140l69 -72l-229 -207zM705 0h-685v117l535 790h-514l41 117h623v-117l-537 -790h537v-117z" />
    <glyph glyph-name="florin" unicode="&#x192;" horiz-adv-x="643" 
d="M260 1227q0 177 74 243t274 66h35v-117h-20q-152 0 -196 -45t-44 -186v-164h254v-117h-254v-1110q0 -177 -74 -243t-274 -66h-35v117h20q152 0 196 45t44 186v1071h-174l41 117h133v203z" />
    <glyph glyph-name="Scommaaccent" unicode="&#x218;" horiz-adv-x="944" 
d="M903 442q0 -227 -91 -342t-304 -114q-338 0 -498 131l39 121q178 -125 440 -125q168 0 223 74q54 75 54 211t-56 193t-201 115t-207 91q-156 83 -196 197q-23 67 -22 161q0 395 414 395q225 1 362 -75l-43 -119q-147 68 -308 68t-224 -66q-63 -64 -64 -178q0 -70 5 -104
q13 -91 111 -147q54 -32 150 -69q225 -88 321 -172t95 -246zM430 -109h131l-125 -346l-88 19z" />
    <glyph glyph-name="scommaaccent" unicode="&#x219;" horiz-adv-x="761" 
d="M411 922q-130 0 -171 -36t-41 -86t4 -67q14 -62 82 -96q43 -23 114 -47q168 -57 245 -122t77 -175q0 -307 -322 -307q-236 0 -379 102l37 98q135 -84 328 -84q127 0 168 46t41 118t-39 112t-185 90t-223 116q-76 66 -75 188q0 266 319 266q156 0 289 -63l-39 -94
q-100 41 -230 41zM328 -109h131l-125 -346l-88 19z" />
    <glyph glyph-name="circumflex" unicode="&#x2c6;" horiz-adv-x="782" 
d="M240 1153l-76 72l225 207l229 -207l-69 -72l-160 139z" />
    <glyph glyph-name="caron" unicode="&#x2c7;" horiz-adv-x="782" 
d="M164 1360l76 72l149 -140l160 140l69 -72l-229 -207z" />
    <glyph glyph-name="breve" unicode="&#x2d8;" horiz-adv-x="653" 
d="M414 1350h75v-66q1 -61 -35 -90t-126 -29t-127 29t-37 90v66h76v-37q0 -43 14 -57t58 -13q44 0 58 3q15 4 29 20t15 47v37z" />
    <glyph glyph-name="dotaccent" unicode="&#x2d9;" horiz-adv-x="475" 
d="M164 1350h147v-148h-147v148z" />
    <glyph glyph-name="ring" unicode="&#x2da;" horiz-adv-x="653" 
d="M321 1456q-49 0 -65 -13t-16 -57v-40q0 -42 14 -56t58 -14t58 3q15 3 29 19t15 48v40q-2 42 -22 56t-71 14zM327 1534q89 0 126 -29t36 -90v-98q1 -61 -35 -90t-126 -29t-127 29t-37 90v98q0 61 37 90t126 29z" />
    <glyph glyph-name="ogonek" unicode="&#x2db;" horiz-adv-x="694" 
d="M379 -276h-51q-90 0 -127 28t-37 90v117q0 98 96 115l43 -74q-41 -2 -52 -15t-11 -55v-59q0 -43 14 -56t70 -14h59q67 0 94 37l53 -59q-31 -55 -151 -55z" />
    <glyph glyph-name="tilde" unicode="&#x2dc;" horiz-adv-x="854" 
d="M522 1276q-26 0 -80 -46t-104 -46q-82 0 -174 84l51 69q84 -59 118 -59t85 46t96 46q74 0 176 -86l-51 -65q-91 57 -117 57z" />
    <glyph glyph-name="hungarumlaut" unicode="&#x2dd;" horiz-adv-x="811" 
d="M502 1534h166l-207 -283h-107zM209 1534h166l-207 -283h-107z" />
    <glyph glyph-name="Delta" unicode="&#x394;" horiz-adv-x="1261" 
d="M631 1165l-334 -1056h668zM143 0l488 1536l487 -1536h-975z" />
    <glyph glyph-name="Delta" unicode="&#x2206;" horiz-adv-x="1261" 
d="M631 1165l-334 -1056h668zM143 0l488 1536l487 -1536h-975z" />
    <glyph glyph-name="Omega" unicode="&#x3a9;" horiz-adv-x="1427" 
d="M432 129v117q-186 68 -186 276v717q0 162 112 239q113 77 359 76h14q246 0 359 -76t112 -239v-717q0 -209 -186 -276v-117h268v-129h-401v344q100 16 141 68t41 159v619q0 135 -72 186t-264 51h-10q-193 0 -265 -51t-71 -186v-619q0 -104 41 -157t141 -70v-344h-422
l41 129h248z" />
    <glyph glyph-name="Omega" unicode="&#x2126;" horiz-adv-x="1427" 
d="M432 129v117q-186 68 -186 276v717q0 162 112 239q113 77 359 76h14q246 0 359 -76t112 -239v-717q0 -209 -186 -276v-117h268v-129h-401v344q100 16 141 68t41 159v619q0 135 -72 186t-264 51h-10q-193 0 -265 -51t-71 -186v-619q0 -104 41 -157t141 -70v-344h-422
l41 129h248z" />
    <glyph glyph-name="pi" unicode="&#x3c0;" horiz-adv-x="1202" 
d="M799 0v915h-379v-915h-115v915h-141l35 109h839v-109h-125v-915h-114z" />
    <glyph glyph-name="uni1E02" unicode="&#x1e02;" horiz-adv-x="1185" 
d="M498 1862h147v-148h-147v148zM317 1409v-541h205q192 0 262 47t70 181v86q0 133 -70 180t-262 47h-205zM604 127q192 0 262 47t70 180v150q0 135 -71 186t-261 51h-287v-614h287zM184 0v1536h338q246 0 358 -77t111 -238v-166q0 -170 -127 -236q209 -59 209 -272v-232
q1 -163 -111 -239t-358 -76h-420z" />
    <glyph glyph-name="uni1E03" unicode="&#x1e03;" horiz-adv-x="1089" 
d="M532 1536h148v-147h-148v147zM819 375v274q0 147 -51 209t-207 64q-156 0 -274 -88v-644q115 -88 272 -88t209 63q51 63 51 210zM164 0v1495l123 41v-592q117 94 305 94t270 -90q84 -90 84 -260v-352q0 -170 -84 -260t-270 -90t-305 92l-41 -78h-82z" />
    <glyph glyph-name="uni1E0A" unicode="&#x1e0a;" horiz-adv-x="1247" 
d="M549 1862h147v-148h-147v148zM317 1409v-1282h287q192 0 262 47t70 180v828q0 133 -70 180t-262 47h-287zM184 0v1536h420q246 0 358 -77t111 -238v-906q1 -163 -111 -239t-358 -76h-420z" />
    <glyph glyph-name="uni1E0B" unicode="&#x1e0b;" horiz-adv-x="1089" 
d="M410 1536h147v-147h-147v147zM270 649v-274q0 -147 52 -209t206 -64q156 0 275 88v644q-123 88 -277 88t-204 -63q-52 -63 -52 -210zM496 -14q-186 0 -269 90q-84 90 -84 260v352q0 170 84 260q83 90 269 90t307 -94v551l123 41v-1536h-82l-41 78q-121 -92 -307 -92z" />
    <glyph glyph-name="uni1E1E" unicode="&#x1e1e;" horiz-adv-x="960" 
d="M487 1862h148v-148h-148v148zM184 0v1536h766l-41 -127h-592v-537h510v-127h-510v-745h-133z" />
    <glyph glyph-name="uni1E1F" unicode="&#x1e1f;" horiz-adv-x="598" 
d="M344 1862h148v-148h-148v148zM571 907h-254v-907h-122v907h-175l41 117h134v211q0 147 94 231t276 84q74 0 115 -4l-25 -114q-27 2 -75 2q-146 0 -204 -60t-59 -178v-172h254v-117z" />
    <glyph glyph-name="uni1E40" unicode="&#x1e40;" horiz-adv-x="1542" 
d="M696 1862h148v-148h-148v148zM698 322v2l-381 897v-1221h-133v1511l133 45l453 -1064l434 1013l154 51v-1556h-133v1229l-383 -905l2 -2h-146z" />
    <glyph glyph-name="uni1E41" unicode="&#x1e41;" horiz-adv-x="1669" 
d="M760 1350h147v-148h-147v148zM778 0v649q0 84 -4 123q-12 112 -85 135q-44 14 -120 15q-164 0 -282 -88v-834h-123v1012l82 26l47 -90q121 90 291 90q211 0 276 -123q60 55 152 89t186 34q188 0 253 -86t65 -264v-688h-123v649q0 84 -4 123q-5 39 -23 80t-62 55t-120 15
q-172 0 -293 -97q10 -68 10 -137v-688h-123z" />
    <glyph glyph-name="uni1E56" unicode="&#x1e56;" horiz-adv-x="1062" 
d="M539 1862h147v-148h-147v148zM317 1409v-747h246q193 0 263 47t69 180v293q0 133 -70 180t-262 47h-246zM184 0v1536h379q246 0 358 -77t111 -238v-371q0 -162 -112 -239t-357 -76h-246v-535h-133z" />
    <glyph glyph-name="uni1E57" unicode="&#x1e57;" horiz-adv-x="1089" 
d="M512 1350h147v-148h-147v148zM819 375v274q0 147 -51 209t-207 64q-156 0 -274 -88v-644q115 -88 272 -88t209 63q51 63 51 210zM164 -512v1524l82 26l45 -90q119 90 303 90t268 -90t84 -260v-352q0 -170 -84 -260t-270 -90t-305 92v-590h-123z" />
    <glyph glyph-name="uni1E60" unicode="&#x1e60;" horiz-adv-x="944" 
d="M438 1862h148v-148h-148v148zM903 442q0 -227 -91 -342t-304 -114q-338 0 -498 131l39 121q178 -125 440 -125q168 0 223 74q54 75 54 211t-56 193t-201 115t-207 91q-156 83 -196 197q-23 67 -22 161q0 395 414 395q225 1 362 -75l-43 -119q-147 68 -308 68t-224 -66
q-63 -64 -64 -178q0 -70 5 -104q13 -91 111 -147q54 -32 150 -69q225 -88 321 -172t95 -246z" />
    <glyph glyph-name="uni1E61" unicode="&#x1e61;" horiz-adv-x="761" 
d="M328 1350h147v-148h-147v148zM411 922q-130 0 -171 -36t-41 -86t4 -67q14 -62 82 -96q43 -23 114 -47q168 -57 245 -122t77 -175q0 -307 -322 -307q-236 0 -379 102l37 98q135 -84 328 -84q127 0 168 46t41 118t-39 112t-185 90t-223 116q-76 66 -75 188q0 266 319 266
q156 0 289 -63l-39 -94q-100 41 -230 41z" />
    <glyph glyph-name="uni1E6A" unicode="&#x1e6a;" horiz-adv-x="970" 
d="M412 1862h147v-148h-147v148zM971 1407h-420v-1407h-133v1407h-418l41 129h930v-129z" />
    <glyph glyph-name="uni1E6B" unicode="&#x1e6b;" horiz-adv-x="577" 
d="M182 1536h148v-147h-148v147zM578 109v-123h-35q-201 0 -275 66t-73 243v612h-175l41 117h134v225l122 41v-266h254v-117h-254v-567q0 -141 44 -186t196 -45h21z" />
    <glyph glyph-name="Wgrave" unicode="&#x1e80;" horiz-adv-x="1427" 
d="M438 1913l76 72l260 -242l-76 -72zM1251 1536h135l-331 -1536h-164l-178 823l-176 -823h-164l-332 1532l131 22l285 -1323l182 869h149l183 -869z" />
    <glyph glyph-name="wgrave" unicode="&#x1e81;" horiz-adv-x="1161" 
d="M330 1401l76 72l260 -242l-76 -72zM434 0h-143l-260 1018l121 20l215 -878l155 682h115l156 -682l211 864h126l-262 -1024h-145l-145 592z" />
    <glyph glyph-name="Wacute" unicode="&#x1e82;" horiz-adv-x="1427" 
d="M907 1985l76 -72l-260 -242l-76 72zM1251 1536h135l-331 -1536h-164l-178 823l-176 -823h-164l-332 1532l131 22l285 -1323l182 869h149l183 -869z" />
    <glyph glyph-name="wacute" unicode="&#x1e83;" horiz-adv-x="1161" 
d="M803 1473l76 -72l-261 -242l-75 72zM434 0h-143l-260 1018l121 20l215 -878l155 682h115l156 -682l211 864h126l-262 -1024h-145l-145 592z" />
    <glyph glyph-name="Wdieresis" unicode="&#x1e84;" horiz-adv-x="1427" 
d="M782 1843h148v-147h-148v147zM498 1843h147v-147h-147v147zM1251 1536h135l-331 -1536h-164l-178 823l-176 -823h-164l-332 1532l131 22l285 -1323l182 869h149l183 -869z" />
    <glyph glyph-name="wdieresis" unicode="&#x1e85;" horiz-adv-x="1161" 
d="M649 1331h148v-147h-148v147zM365 1331h147v-147h-147v147zM434 0h-143l-260 1018l121 20l215 -878l155 682h115l156 -682l211 864h126l-262 -1024h-145l-145 592z" />
    <glyph glyph-name="Ygrave" unicode="&#x1ef2;" horiz-adv-x="933" 
d="M217 1913l76 72l260 -242l-76 -72zM532 0h-133v575l-399 957l133 22l332 -796l326 778h143l-402 -961v-575z" />
    <glyph glyph-name="ygrave" unicode="&#x1ef3;" horiz-adv-x="845" 
d="M190 1401l76 72l260 -242l-75 -72zM0 1018l125 20l299 -864l289 850h133l-438 -1286q-92 -283 -345 -246l-10 88q98 -14 150 37q51 51 96 182l61 185z" />
    <glyph glyph-name="endash" unicode="&#x2013;" horiz-adv-x="1034" 
d="M143 719v108h748v-108h-748z" />
    <glyph glyph-name="emdash" unicode="&#x2014;" horiz-adv-x="1742" 
d="M143 719v108h1456v-108h-1456z" />
    <glyph glyph-name="quoteleft" unicode="&#x2018;" horiz-adv-x="417" 
d="M233 1210h-131l125 346l88 -18z" />
    <glyph glyph-name="quoteright" unicode="&#x2019;" horiz-adv-x="417" 
d="M184 1556h131l-125 -346l-88 19z" />
    <glyph glyph-name="quotesinglbase" unicode="&#x201a;" horiz-adv-x="442" 
d="M195 174h145l-139 -383l-99 21z" />
    <glyph glyph-name="quotedblleft" unicode="&#x201c;" horiz-adv-x="677" 
d="M233 1210h-131l125 346l88 -18zM494 1210h-132l125 346l88 -18z" />
    <glyph glyph-name="quotedblright" unicode="&#x201d;" horiz-adv-x="677" 
d="M444 1556h131l-124 -346l-89 19zM184 1556h131l-125 -346l-88 19z" />
    <glyph glyph-name="quotedblbase" unicode="&#x201e;" horiz-adv-x="731" 
d="M483 174h146l-140 -383l-98 21zM195 174h145l-139 -383l-99 21z" />
    <glyph glyph-name="dagger" unicode="&#x2020;" horiz-adv-x="620" 
d="M20 915v109h232v500l115 39v-539h233v-109h-233v-1427h-115v1427h-232z" />
    <glyph glyph-name="daggerdbl" unicode="&#x2021;" horiz-adv-x="620" 
d="M20 915v109h232v500l115 39v-539h233v-109h-233v-806h233v-109h-233v-512h-115v512h-232v109h232v806h-232z" />
    <glyph glyph-name="bullet" unicode="&#x2022;" horiz-adv-x="536" 
d="M143 764q0 51 37 88t88 37t88 -37t37 -88t-37 -88t-88 -37t-88 37t-37 88z" />
    <glyph glyph-name="ellipsis" unicode="&#x2026;" horiz-adv-x="1464" 
d="M1147 174h174v-174h-174v174zM645 174h174v-174h-174v174zM143 174h174v-174h-174v174z" />
    <glyph glyph-name="perthousand" unicode="&#x2030;" horiz-adv-x="1558" 
d="M1290 518q-56 0 -72 -13q-15 -13 -16 -56v-299q0 -40 16 -54t61 -14q46 0 62 3q43 8 43 65v299q-2 45 -20 57t-74 12zM1477 473v-346q0 -71 -41 -105q-42 -34 -144 -34t-143 34t-41 105v346q0 71 41 105t143 33t144 -33q41 -33 41 -105zM373 0h-107l463 1536h107z
M824 518q-56 0 -71 -13t-16 -56v-299q-1 -40 15 -54t62 -14t62 3q42 8 44 65v299q-2 45 -20 57q-20 12 -76 12zM1012 473v-346q0 -71 -41 -105t-143 -34t-144 34q-41 34 -41 105v346q0 71 41 105t143 33t144 -33q41 -33 41 -105zM264 1460q-56 0 -72 -13t-16 -56v-299
q0 -40 15 -54t61 -14t63 3q15 3 29 19t14 46v299q-2 45 -20 57t-74 12zM451 1415v-346q0 -71 -41 -105q-42 -34 -144 -34t-143 34t-41 105v346q0 71 41 105t143 33t144 -33q41 -33 41 -105z" />
    <glyph glyph-name="guilsinglleft" unicode="&#x2039;" horiz-adv-x="620" 
d="M102 512l326 406l90 -76l-266 -330q209 -264 264 -332l-90 -74z" />
    <glyph glyph-name="guilsinglright" unicode="&#x203a;" horiz-adv-x="620" 
d="M193 106l-89 74l263 332l-265 330l88 76q190 -231 328 -406z" />
    <glyph glyph-name="fraction" unicode="&#x2044;" horiz-adv-x="897" 
d="M168 0h-107l668 1536h107z" />
    <glyph glyph-name="Euro" unicode="&#x20ac;" horiz-adv-x="1009" 
d="M0 1012h205v227q0 315 452 315q150 0 324 -26l-25 -117q-118 16 -288 16t-248 -44t-78 -183v-188h449l-41 -127h-408v-189h377l-41 -127h-336v-233q0 -137 79 -180t257 -43t295 47l37 -105q-144 -65 -358 -67t-330 70t-117 237v274h-205v127h205v189h-205v127z" />
    <glyph glyph-name="trademark" unicode="&#x2122;" horiz-adv-x="1167" 
d="M469 1536v-96h-162v-510h-98v510h-139l-29 96h428zM645 930h-98v594l90 26l158 -372l149 344l100 30v-622h-98v344l-104 -250h-88l-109 250v-344z" />
    <glyph glyph-name="partialdiff" unicode="&#x2202;" horiz-adv-x="1212" 
d="M468 113q150 1 218 29t94 79t39 150l39 272q20 145 -28 201t-217 57q-169 0 -243 -52t-100 -206l-39 -272q-23 -162 31 -210t206 -48zM618 1028q130 0 192 -24t87 -76l27 190q25 170 -43 240t-225 70t-314 -68l-27 119q147 75 363 75t315 -106q98 -106 66 -354l-109 -772
q-26 -170 -134 -253t-346 -82t-322 84q-85 83 -60 251l51 370q25 168 133 251t346 85z" />
    <glyph glyph-name="product" unicode="&#x220f;" horiz-adv-x="1292" 
d="M975 -512v1921h-658v-1921h-133v2048h924v-2048h-133z" />
    <glyph glyph-name="summation" unicode="&#x2211;" horiz-adv-x="854" 
d="M813 1536v-127h-557l362 -897l-362 -897h557v-127h-752l412 1026l-412 1022h752z" />
    <glyph glyph-name="minus" unicode="&#x2212;" horiz-adv-x="868" 
d="M143 727v109h582v-109h-582z" />
    <glyph glyph-name="radical" unicode="&#x221a;" horiz-adv-x="1163" 
d="M20 915v109h332l238 -842l395 1377h117l-443 -1559h-137l-260 915h-242z" />
    <glyph glyph-name="infinity" unicode="&#x221e;" horiz-adv-x="1425" 
d="M453 940h-17q-90 0 -131 -37t-41 -128t35 -134t139 -43h15q96 0 131 36t41 107v60q-4 79 -44 109t-128 30zM985 569q104 1 140 53t36 162t-39 148q-39 37 -137 37h-96q-92 0 -132 -33t-42 -135v-62q4 -82 42 -126t132 -44h96zM481 496h-82q-119 2 -176 60t-58 213t56 214
t178 59h82q123 0 185 -79q59 109 194 108h166q119 1 177 -67q57 -68 57 -235t-58 -235t-176 -67h-166q-137 0 -196 108q-56 -79 -183 -79z" />
    <glyph glyph-name="integral" unicode="&#x222b;" horiz-adv-x="663" 
d="M643 1536v-117h-20q-152 0 -196 -45t-44 -186v-1391q0 -177 -74 -243t-274 -66h-35v117h20q152 0 196 45t44 186v1391q0 177 74 243t274 66h35z" />
    <glyph glyph-name="approxequal" unicode="&#x2248;" horiz-adv-x="1107" 
d="M412 809q-141 0 -269 117l64 92q111 -98 205 -98q43 0 104 55q2 2 16 14t26 24q12 13 22 17t22 11q41 24 92 24q139 0 271 -117l-62 -86q-125 94 -209 94q-41 0 -104 -59q-88 -88 -178 -88zM412 469q-141 0 -269 117l64 92q111 -98 205 -98q43 0 104 55q2 2 16 14t26 24
q12 13 22 17t22 11q41 24 92 24q139 0 271 -117l-62 -86q-125 94 -209 94q-41 0 -104 -59q-88 -88 -178 -88z" />
    <glyph glyph-name="notequal" unicode="&#x2260;" horiz-adv-x="999" 
d="M172 928v108h358l72 240h86l-72 -240h222v-108h-256l-95 -310h351v-108h-381l-72 -236h-88l74 236h-199v108h229l95 310h-324z" />
    <glyph glyph-name="lessequal" unicode="&#x2264;" horiz-adv-x="677" 
d="M616 371v-109h-555v109h555zM61 877l482 391l73 -90l-370 -301l370 -302l-73 -90z" />
    <glyph glyph-name="greaterequal" unicode="&#x2265;" horiz-adv-x="677" 
d="M61 262v109h555v-109h-555zM135 1268l481 -391l-481 -392l-74 90l371 302l-371 301z" />
    <glyph glyph-name="lozenge" unicode="&#x25ca;" horiz-adv-x="1112" 
d="M913 766l-358 661l-358 -661l358 -660zM639 0h-166l-412 768l414 768h162l414 -768z" />
    <glyph glyph-name="fi" unicode="&#xfb01;" horiz-adv-x="1048" 
d="M762 1536h123v-139h-123v139zM885 0h-123v907h-445v-907h-122v907h-175l41 117h134v217q0 147 94 231t276 84q74 0 115 -4l-25 -114q-27 2 -75 2q-146 0 -204 -60t-59 -178v-178h568v-1024z" />
    <glyph glyph-name="fl" unicode="&#xfb02;" horiz-adv-x="1048" 
d="M195 0v907h-175l41 117h134v217q0 147 94 231t279 84t317 -14v-1542h-123v1436q-47 4 -187 4q-141 0 -199 -60t-59 -178v-178h254v-117h-254v-907h-122z" />
    <glyph glyph-name="apple" horiz-adv-x="1658" 
d="M1133 1536q18 -133 -78 -247t-228 -105q-14 127 82 235q41 49 105 82t119 35zM1112 4q-49 0 -121 32t-133 32t-133 -32q-115 -51 -179 -24t-177 187q-162 231 -162 509q0 151 57 250q56 99 142 151t160 54t162 -33q86 -34 108 -34t124 39t170 32q184 -8 283 -153
q-168 -113 -167 -284t135 -275q55 -43 73 -43q-39 -120 -93 -198t-81 -112t-73 -66t-95 -32z" />
    <glyph glyph-name="TourDeForce" horiz-adv-x="3246" 
d="M2982 637h59v-64h-59v64zM2814 573v64h61v-64h-61zM2648 573v64h57v-64h-57zM1456 975q70 0 111 -50t41 -125t-39 -124t-113 -49h-98v348h98zM2314 901v33h-213v-352h37v174h139v26h-139v119h176zM2030 453v30h-312v-30h312zM1456 573q90 0 148 65q57 65 57 160t-54 163
t-151 67h-153v-455h153zM1212 424v37h-370v-37h370zM817 1051v69h-375v-69h154v-478h72v478h149zM2345 508v-31h250l18 -133l-2244 -317l-164 1140l2240 320l144 -979h-244z" />
    </font>
</defs>
</svg>
