<?xml version="1.0" standalone="no"?>
<!DOCTYPE svg PUBLIC "-//W3C//DTD SVG 1.1//EN" "http://www.w3.org/Graphics/SVG/1.1/DTD/svg11.dtd" >
<svg xmlns="http://www.w3.org/2000/svg">
<metadata>
Created by FontPrep 20130207 at Mon May 12 12:00:28 2014
 By Justin Leggio
(c) 2006 Microsoft Corporation. All Rights Reserved.
</metadata>
<defs>
<font id="59b2d6b423cfc293af6522c3d2806199" horiz-adv-x='1024' >
  <font-face 
    font-family="TrebuchetMS"
    font-weight="400"
    font-stretch="normal"
    units-per-em="2048"
    panose-1="2 11 6 3 2 2 2 2 2 4"
    ascent="1638"
    descent="-410"
    x-height="1071"
    cap-height="1464"
    bbox="-176 -537 2216 1931"
    underline-thickness="127"
    underline-position="-198"
    unicode-range="U+0020-FB02"
  />
<missing-glyph horiz-adv-x="748" 
d="M136 68h408v1229h-408v-1229zM68 0v1365h544v-1365h-544z" />
    <glyph glyph-name=".notdef" horiz-adv-x="748" 
d="M136 68h408v1229h-408v-1229zM68 0v1365h544v-1365h-544z" />
    <glyph glyph-name="glyph1" horiz-adv-x="0" 
 />
    <glyph glyph-name="glyph2" horiz-adv-x="752" 
 />
    <glyph glyph-name="space" unicode=" " horiz-adv-x="617" 
 />
    <glyph glyph-name="exclam" unicode="!" horiz-adv-x="752" 
d="M384 281q62 0 106 -44t44 -106t-44 -106.5t-106 -44.5t-106 44.5t-44 106.5t44 106t106 44zM265 1081v410h226v-409q0 -191 -78 -700h-71q-77 503 -77 699z" />
    <glyph glyph-name="quotedbl" unicode="&#x22;" horiz-adv-x="665" 
d="M559 1086h-133l-24 381h184zM229 1086h-133l-24 381h184z" />
    <glyph glyph-name="numbersign" unicode="#" 
d="M455 947l-99 -393h297l99 393h-297zM941 554v-128h-194l-124 -446h-127l124 446h-297l-124 -446h-130l123 446h-155v128h188l99 393h-172v128h205l102 412h131l-103 -412h297l103 412h127l-103 -412h175v-128h-207l-99 -393h161z" />
    <glyph glyph-name="dollar" unicode="$" 
d="M502 155q117 0 188 64t71 175t-56 158t-182 106l-118 55q-150 70 -209.5 166t-59.5 233t87.5 240t234.5 130v160h139v-153q215 -9 291 -78l-59 -174q-40 29 -122 56t-168 27t-144.5 -58t-58.5 -160t60 -151.5t173 -103.5l92 -43q156 -73 228 -178.5t72 -255.5t-96.5 -253
t-267.5 -132v-231h-139v221q-69 4 -174 35t-144 57l72 184q52 -38 137.5 -67t152.5 -29z" />
    <glyph glyph-name="percent" unicode="%" horiz-adv-x="1229" 
d="M727 324q0 -113 39.5 -177.5t103.5 -64.5q162 0 162 242t-147 241q-73 0 -115.5 -64t-42.5 -177zM601 338q0 147 81 238t205 91t197.5 -90t73.5 -252t-78 -253.5t-201 -91.5q-278 0 -278 358zM187 1148q0 -113 39.5 -177.5t103.5 -64.5q162 0 162 242t-147 241
q-73 0 -115.5 -64t-42.5 -177zM61 1162q0 147 81 238t205 91t197.5 -90t73.5 -252t-78 -253.5t-201 -91.5q-278 0 -278 358zM218 -20h-127l883 1511h126z" />
    <glyph glyph-name="ampersand" unicode="&#x26;" horiz-adv-x="1446" 
d="M840 314v404h-403q-95 -122 -95 -256q0 -312 305 -312q136 0 204 49q-11 46 -11 115zM577 -20q-207 0 -321 123.5t-114 349.5q0 116 34.5 201t126.5 176q-141 140 -141 292t115.5 260.5t315.5 108.5t312 -91l-83 -154q-114 95 -204 95q-266 0 -266 -240q0 -130 116 -220
h372v183l190 73v-259h249v-160h-249v-330q0 -138 37 -188t128 -50q54 0 127 37l27 -177q-105 -30 -240 -30q-93 0 -180 71q-145 -71 -352 -71z" />
    <glyph glyph-name="quotesingle" unicode="'" horiz-adv-x="327" 
d="M229 1086h-133l-24 381h184z" />
    <glyph glyph-name="parenleft" unicode="(" horiz-adv-x="752" 
d="M420 557q0 -652 198 -880v-105q-202 141 -313.5 404.5t-111.5 559.5t127 573t298 366v-83q-198 -286 -198 -835z" />
    <glyph glyph-name="parenright" unicode=")" horiz-adv-x="752" 
d="M391 557q0 549 -198 835v83q171 -89 298 -366t127 -573t-111.5 -559.5t-313.5 -404.5v105q198 228 198 880z" />
    <glyph glyph-name="asterisk" unicode="*" horiz-adv-x="752" 
d="M278 1470h176v-76l-60 -211l158 107l74 27l57 -161l-86 -29l-173 -3l158 -105l47 -62l-122 -104l-54 70l-82 159l-91 -162l-43 -64l-131 101l50 69l158 83l-176 27l-90 32l72 150l96 -37l125 -95l-63 205v79z" />
    <glyph glyph-name="plus" unicode="+" 
d="M611 706h349v-141h-349v-345h-141v345h-348v141h348v343h141v-343z" />
    <glyph glyph-name="comma" unicode="," horiz-adv-x="752" 
d="M345 -51q0 44 -30 88q-86 41 -86 118q0 53 41.5 87.5t99.5 34.5t101.5 -48t43.5 -112q0 -133 -55.5 -239.5t-235.5 -240.5l-51 72q172 141 172 240z" />
    <glyph glyph-name="hyphen" unicode="-" horiz-adv-x="752" 
d="M159 506v175h428v-175h-428z" />
    <glyph glyph-name="hyphen" unicode="&#x2010;" horiz-adv-x="752" 
d="M159 506v175h428v-175h-428z" />
    <glyph glyph-name="period" unicode="." horiz-adv-x="752" 
d="M354 281q62 0 106 -44t44 -106t-44 -106.5t-106 -44.5t-106 44.5t-44 106.5t44 106t106 44z" />
    <glyph glyph-name="slash" unicode="/" 
d="M350 0h-161l531 1471h159z" />
    <glyph glyph-name="zero" unicode="0" 
d="M264 759q0 -609 260 -609q149 0 219 135t70 473q0 233 -41 398t-225 165q-283 0 -283 -562zM64 777q0 316 128 515t359 199t346.5 -166t115.5 -551t-121 -589.5t-354 -204.5t-353.5 165t-120.5 632z" />
    <glyph glyph-name="one" unicode="1" 
d="M498 0v1123l-298 -186v187q113 57 240.5 157t197.5 190h60v-1471h-200z" />
    <glyph glyph-name="two" unicode="2" 
d="M69 0v40l459 703q144 221 144 375q0 203 -229 203q-81 0 -152 -42.5t-103 -107.5l-129 106q34 98 133.5 156t240.5 58q211 0 330 -97.5t119 -269.5t-158 -422l-329 -522h574v-180h-900z" />
    <glyph glyph-name="three" unicode="3" 
d="M453 150q278 0 278 272q0 124 -81 201.5t-215 77.5h-16v162h9q254 0 254 224q0 234 -239 234q-130 0 -207 -87l-89 136q93 121 298 121t326 -102.5t121 -262.5q0 -122 -67.5 -216t-158.5 -126q126 -41 200.5 -139.5t74.5 -238.5q0 -204 -129 -315t-362 -111
q-98 0 -192 36.5t-149 87.5l96 154q98 -108 248 -108z" />
    <glyph glyph-name="four" unicode="4" 
d="M692 553v519l-430 -519h430zM882 399v-399h-190v399h-667v114l787 958h70v-918h148v-154h-148z" />
    <glyph glyph-name="five" unicode="5" 
d="M164 1471h729v-170h-539v-356q74 55 188 55q204 0 311.5 -122t107.5 -347q0 -551 -491 -551q-205 0 -340 114l77 167q136 -111 262 -111q282 0 282 352q0 328 -278 328q-134 0 -241 -115l-68 47v709z" />
    <glyph glyph-name="six" unicode="6" 
d="M294 458q0 -313 257 -313q108 0 170.5 81.5t62.5 217.5t-66 219.5t-170 83.5q-254 0 -254 -289zM561 917q194 0 311 -124t117 -340t-120.5 -347t-302.5 -131q-482 0 -482 639q0 266 188.5 544.5t399.5 332.5l97 -107q-88 -35 -254.5 -236.5t-184.5 -310.5q83 80 231 80z
" />
    <glyph glyph-name="seven" unicode="7" 
d="M84 1281v190h950v-78l-129 -254q-234 -465 -339.5 -748t-137.5 -391h-222q74 235 249 621.5t320 659.5h-691z" />
    <glyph glyph-name="eight" unicode="8" 
d="M289 406q0 -109 68 -182.5t178 -73.5t182.5 72t72.5 168t-50 168t-231 170q-220 -119 -220 -322zM734 1142q0 82 -54.5 130.5t-141.5 48.5q-196 0 -196 -181q0 -134 256 -263q136 128 136 265zM142 1138q0 163 110.5 258t292.5 95t286 -95t104 -259q0 -96 -63 -195.5
t-146 -146.5q264 -148 264 -389q0 -203 -122 -314.5t-335 -111.5q-444 0 -444 426q0 123 76 242t188 167q-93 50 -152 139t-59 184z" />
    <glyph glyph-name="nine" unicode="9" 
d="M769 1008q0 313 -257 313q-108 0 -170.5 -81.5t-62.5 -217.5t66 -219.5t170 -83.5q254 0 254 289zM502 549q-194 0 -311 124t-117 340t120.5 347t302.5 131q482 0 482 -639q0 -266 -188.5 -544.5t-399.5 -332.5l-97 107q87 35 254.5 236t184.5 310q-82 -79 -231 -79z" />
    <glyph glyph-name="colon" unicode=":" horiz-adv-x="752" 
d="M354 281q62 0 106 -44t44 -106t-44 -106.5t-106 -44.5t-106 44.5t-44 106.5t44 106t106 44zM354 1091q62 0 106 -44t44 -106t-44 -106.5t-106 -44.5t-106 44.5t-44 106.5t44 106t106 44z" />
    <glyph glyph-name="semicolon" unicode=";" horiz-adv-x="752" 
d="M345 -51q0 44 -30 88q-86 41 -86 118q0 53 41.5 87.5t99.5 34.5t101.5 -48t43.5 -112q0 -133 -55.5 -239.5t-235.5 -240.5l-51 72q172 141 172 240zM354 1091q62 0 106 -44t44 -106t-44 -106.5t-106 -44.5t-106 44.5t-44 106.5t44 106t106 44z" />
    <glyph glyph-name="less" unicode="&#x3c;" 
d="M889 218l-739 358v123l739 354v-161l-571 -255l571 -258v-161z" />
    <glyph glyph-name="equal" unicode="=" 
d="M960 536v-141h-838v141h838zM960 876v-141h-838v141h838z" />
    <glyph glyph-name="greater" unicode="&#x3e;" 
d="M889 576l-739 -358v161l571 258l-571 255v161l739 -354v-123z" />
    <glyph glyph-name="question" unicode="?" horiz-adv-x="752" 
d="M324 281q62 0 106 -44t44 -106t-44 -106.5t-106 -44.5t-106 44.5t-44 106.5t44 106t106 44zM200 581q0 57 26.5 132t120 179.5t125.5 160.5t32 109q0 176 -213 176q-102 0 -178 -73l-73 143q101 83 301 83q150 0 249.5 -85t99.5 -232t-104 -256l-146 -156
q-88 -108 -88 -242q0 -21 14 -91h-132q-34 95 -34 152z" />
    <glyph glyph-name="at" unicode="@" horiz-adv-x="1578" 
d="M882 627h-51q-195 0 -195 -160q0 -54 38 -89t98 -35t110 50v234zM802 -134q-317 0 -509.5 197t-192.5 521t195 532.5t504 208.5t494 -181t185 -483q0 -170 -89.5 -288.5t-242.5 -118.5t-224 70q-84 -78 -196 -78t-178 58.5t-66 157.5q0 126 108 192t292 66
q-15 147 -119 147t-165 -56l-48 99q82 61 200 61q278 0 278 -319v-239q72 -53 122 -53q186 0 186 304q0 231 -150 385t-392 154t-397 -174.5t-155 -444.5t153 -433t397 -163t384 128q46 -17 135 -58q-192 -192 -509 -192z" />
    <glyph glyph-name="A" unicode="A" horiz-adv-x="1208" 
d="M616 1101l-227 -645h435zM982 0l-101 309h-545l-108 -309h-224l595 1485h53l552 -1485h-222z" />
    <glyph glyph-name="B" unicode="B" horiz-adv-x="1159" 
d="M508 160q188 0 274.5 71t86.5 219t-82.5 216t-275.5 68l-161 -5v-559q103 -10 158 -10zM506 878q284 0 284 231q0 203 -261 203q-100 0 -179 -7v-421q63 -6 156 -6zM568 0h-418v1465q267 13 385 13q217 0 336 -93.5t119 -267.5q0 -102 -76 -186t-168 -105
q174 -42 253.5 -139t79.5 -277t-141.5 -295t-369.5 -115z" />
    <glyph glyph-name="C" unicode="C" horiz-adv-x="1225" 
d="M722 1310q-200 0 -316 -166t-116 -422t119 -411.5t317 -155.5t309 146l110 -153q-175 -173 -455 -173t-445 206.5t-165 540.5t176 551t455 217q239 0 374 -79l-67 -171q-96 70 -296 70z" />
    <glyph glyph-name="D" unicode="D" horiz-adv-x="1256" 
d="M516 180q210 0 330 157.5t120 437.5q0 520 -467 520q-28 0 -149 -10v-1095q67 -10 166 -10zM445 0h-295v1465q282 10 361 10q307 0 486 -186.5t179 -496.5q0 -792 -731 -792z" />
    <glyph glyph-name="E" unicode="E" horiz-adv-x="1097" 
d="M350 1285v-407h484v-170h-484v-528h664v-180h-864v1465h875v-180h-675z" />
    <glyph glyph-name="F" unicode="F" horiz-adv-x="1075" 
d="M350 1285v-407h515v-170h-515v-708h-200v1465h905v-180h-705z" />
    <glyph glyph-name="G" unicode="G" horiz-adv-x="1385" 
d="M786 1310q-230 0 -363 -162t-133 -422t130.5 -415.5t355.5 -155.5q160 0 259 96v343h-203v170h403v-638q-80 -68 -223 -109.5t-278 -41.5q-303 0 -478.5 205.5t-175.5 545.5t192.5 552t519.5 212q229 0 373 -127l-83 -165q-151 112 -296 112z" />
    <glyph glyph-name="H" unicode="H" horiz-adv-x="1340" 
d="M990 0v708h-640v-708h-200v1465h200v-587h640v587h200v-1465h-200z" />
    <glyph glyph-name="I" unicode="I" horiz-adv-x="570" 
d="M185 0v1465h200v-1465h-200z" />
    <glyph glyph-name="J" unicode="J" horiz-adv-x="976" 
d="M382 160q134 0 189 57.5t55 321.5v926h200v-918q0 -300 -97 -433.5t-345 -133.5q-143 0 -234.5 85t-100.5 228h175q24 -133 158 -133z" />
    <glyph glyph-name="K" unicode="K" horiz-adv-x="1179" 
d="M350 0h-200v1465h200v-797l544 797h223l-438 -635l500 -830h-221l-413 674l-195 -277v-397z" />
    <glyph glyph-name="L" unicode="L" horiz-adv-x="1037" 
d="M150 0v1465h200v-1285h662v-180h-862z" />
    <glyph glyph-name="M" unicode="M" horiz-adv-x="1453" 
d="M1253 0l-174 941l-320 -961h-50l-329 961l-170 -941h-190l274 1465h91l349 -1069l322 1069h90l297 -1465h-190z" />
    <glyph glyph-name="N" unicode="N" horiz-adv-x="1307" 
d="M340 0h-190v1465h80l737 -1013v1013h190v-1485h-60l-757 1071v-1051z" />
    <glyph glyph-name="O" unicode="O" horiz-adv-x="1380" 
d="M290 750q0 -257 99.5 -426t292.5 -169t300.5 155t107.5 435q0 566 -420 566q-186 0 -283 -152t-97 -409zM80 735q0 328 159.5 542t430.5 214q305 0 467.5 -197.5t162.5 -553.5t-163 -560.5t-453 -204.5t-447 216t-157 544z" />
    <glyph glyph-name="P" unicode="P" horiz-adv-x="1142" 
d="M484 734q372 0 372 293q0 268 -397 268q-40 0 -109 -10v-541q127 -10 134 -10zM350 0h-200v1465q227 10 274 10q638 0 638 -427q0 -494 -564 -494q-34 0 -148 10v-564z" />
    <glyph glyph-name="Q" unicode="Q" horiz-adv-x="1384" 
d="M670 1311q-186 0 -283 -152t-97 -409t99 -426t293 -169t301 156.5t107 433.5q0 566 -420 566zM670 -25q-277 0 -433.5 215.5t-156.5 543.5t159 542.5t431 214.5q305 0 467.5 -197t162.5 -549q0 -505 -302 -693q109 -160 366 -160h156l-30 -195q-524 0 -687 291
q-31 -13 -133 -13z" />
    <glyph glyph-name="R" unicode="R" horiz-adv-x="1192" 
d="M500 799q180 0 262 58t82 194t-88 190t-278 54q-30 0 -118 -10v-476q72 -10 140 -10zM1054 1060q0 -138 -85 -248.5t-202 -137.5l425 -674h-229l-391 629q-67 0 -212 10v-639h-200v1465l366 15q528 0 528 -420z" />
    <glyph glyph-name="S" unicode="S" horiz-adv-x="985" 
d="M446 155q117 0 188 64.5t71 150.5t-39.5 149.5t-198.5 138.5l-118 55q-150 70 -209.5 165.5t-59.5 245.5t116 258t298 108q243 0 338 -79l-59 -174q-40 29 -122 56t-168 27t-144.5 -58t-58.5 -160t58.5 -150.5t174.5 -104.5l120 -57q150 -71 210.5 -169.5t60.5 -256.5
t-133 -273.5t-341 -115.5t-346 92l73 184q56 -41 139.5 -68.5t149.5 -27.5z" />
    <glyph glyph-name="T" unicode="T" horiz-adv-x="1189" 
d="M684 1285v-1285h-200v1285h-466v180h1153v-180h-487z" />
    <glyph glyph-name="U" unicode="U" horiz-adv-x="1328" 
d="M150 1465h200v-1003q0 -134 85 -220.5t229 -86.5t229 84t85 228v998h200v-1019q0 -222 -139 -346.5t-381 -124.5t-375 122t-133 350v1018z" />
    <glyph glyph-name="V" unicode="V" horiz-adv-x="1203" 
d="M660 -20h-101l-546 1485h222l377 -1079l363 1079h215z" />
    <glyph glyph-name="W" unicode="W" horiz-adv-x="1745" 
d="M1276 -20h-63l-349 1010l-326 -1010h-63l-462 1485h208l294 -1023l322 1023h70l318 -1021l299 1021h208z" />
    <glyph glyph-name="X" unicode="X" horiz-adv-x="1140" 
d="M915 0l-364 588l-336 -588h-202l432 760l-397 706l197 -1l313 -554l345 554h201l-455 -709l478 -756h-212z" />
    <glyph glyph-name="Y" unicode="Y" horiz-adv-x="1168" 
d="M685 0h-200v656l-472 809h206l365 -640l365 640h206l-470 -809v-656z" />
    <glyph glyph-name="Z" unicode="Z" horiz-adv-x="1127" 
d="M100 0v50l630 1235h-620v180h895v-50l-632 -1235h654v-180h-927z" />
    <glyph glyph-name="bracketleft" unicode="[" horiz-adv-x="752" 
d="M202 -420v1930h463v-170h-263v-1590h263v-170h-463z" />
    <glyph glyph-name="backslash" unicode="\" horiz-adv-x="728" 
d="M512 0l-515 1471h142l516 -1471h-143z" />
    <glyph glyph-name="bracketright" unicode="]" horiz-adv-x="752" 
d="M550 -420h-463v170h263v1590h-263v170h463v-1930z" />
    <glyph glyph-name="asciicircum" unicode="^" 
d="M763 907l-244 448l-248 -452h-122l318 568h107l316 -564h-127z" />
    <glyph glyph-name="underscore" unicode="_" 
d="M-8 -254v129h1085v-129h-1085z" />
    <glyph glyph-name="grave" unicode="`" 
d="M559 1285l-226 333h197l169 -333h-140z" />
    <glyph glyph-name="a" unicode="a" horiz-adv-x="1076" 
d="M596 546q-144 0 -235 -74t-91 -175q0 -167 197 -167q144 0 255 137v259q-90 20 -126 20zM391 -20q-126 0 -218.5 91t-92.5 241t142.5 262.5t363.5 112.5q60 0 136 -26q0 260 -232 260q-178 0 -274 -96l-80 159q54 44 149.5 75.5t182.5 31.5q233 0 338.5 -106t105.5 -337
v-384q0 -141 84 -188v-95q-116 0 -173.5 33t-82.5 109q-114 -143 -349 -143z" />
    <glyph glyph-name="b" unicode="b" horiz-adv-x="1141" 
d="M325 229q0 -16 71 -52.5t108 -36.5q194 0 278 93t84 293t-98 302.5t-264 102.5q-35 0 -97.5 -30t-81.5 -54v-618zM135 -20v1530h190v-518q27 37 101.5 68t146.5 31q220 0 356.5 -152t136.5 -402t-137 -403.5t-371 -153.5q-76 0 -149.5 28.5t-111.5 68.5l-67 -97h-95z" />
    <glyph glyph-name="c" unicode="c" horiz-adv-x="1014" 
d="M602 931q-155 0 -246 -108.5t-91 -296.5t93.5 -287t239.5 -99t276 99l75 -160q-153 -99 -375 -99t-365.5 147t-143.5 401t148.5 408.5t406.5 154.5q83 0 180 -35t143 -72l-94 -134q-29 29 -102.5 55t-144.5 26z" />
    <glyph glyph-name="d" unicode="d" horiz-adv-x="1141" 
d="M603 931q-139 0 -233.5 -114t-94.5 -290q0 -387 352 -387q45 0 108 28.5t79 60.5v594q-72 108 -211 108zM814 1v79q-99 -99 -294 -99t-320 144.5t-125 384.5t144 410.5t343 170.5q166 0 252 -78v497h190v-1509h-190z" />
    <glyph glyph-name="e" unicode="e" horiz-adv-x="1117" 
d="M863 655q1 115 -75 195t-208 81q-132 0 -215 -80q-84 -80 -95 -196h593zM265 517q0 -189 97 -283t250 -94t262 95l80 -137q-44 -44 -146 -81t-243 -37q-202 0 -351 144t-149 404q1 260 153 412t365 151t341 -127t128 -331q0 -63 -15 -116h-772z" />
    <glyph glyph-name="f" unicode="f" horiz-adv-x="757" 
d="M606 1360q-87 0 -143.5 -66t-56.5 -167q0 -27 5 -56h218v-160h-218v-911h-190v911h-156v160h156q0 205 101 322t267 117q83 0 178 -30l-53 -140q-58 20 -108 20z" />
    <glyph glyph-name="g" unicode="g" horiz-adv-x="1028" 
d="M496 938q-96 0 -158.5 -70t-62.5 -176t60.5 -179.5t162.5 -73.5t159 71.5t57 179.5t-61 178t-157 70zM500 -252q134 0 208.5 44.5t74.5 110.5q0 130 -188 130q-32 0 -116 -16t-131 -16q-228 0 -228 172q0 53 53.5 96t132.5 62q-226 106 -226 368q0 168 117 280t282 112
t254 -65l95 114l124 -117l-114 -86q73 -95 73 -253t-101 -267.5t-265 -125.5l-157 -16q-28 -3 -75 -21.5t-47 -48.5q0 -41 98 -41q43 0 134 15.5t135 15.5q158 0 246.5 -75.5t88.5 -216.5t-132.5 -232t-335.5 -91q-104 0 -219 37t-185 90l103 152q167 -111 301 -111z" />
    <glyph glyph-name="h" unicode="h" horiz-adv-x="1119" 
d="M795 0v673q0 120 -59 189t-166 69q-69 0 -138.5 -40.5t-106.5 -94.5v-796h-190v1510h190v-557q38 59 122.5 98.5t174.5 39.5q170 0 266.5 -112t96.5 -306v-673h-190z" />
    <glyph glyph-name="i" unicode="i" horiz-adv-x="584" 
d="M227 0v911h-147v160h337v-1071h-190zM331 1476q49 0 83.5 -35t34.5 -83t-34.5 -82.5t-82.5 -34.5t-83 34.5t-35 83.5t34 83t83 34z" />
    <glyph glyph-name="j" unicode="j" horiz-adv-x="751" 
d="M18 -420v170q196 0 268.5 59.5t72.5 195.5v906h-213v160h403v-1062q0 -221 -130 -325t-401 -104zM428 1476q49 0 83.5 -35t34.5 -83t-34.5 -82.5t-83.5 -34.5t-83 34.5t-34 83.5t34 83t83 34z" />
    <glyph glyph-name="k" unicode="k" horiz-adv-x="1033" 
d="M325 0h-190v1510h190v-937l410 498h222l-343 -407l419 -664h-206l-336 536l-166 -171v-365z" />
    <glyph glyph-name="l" unicode="l" horiz-adv-x="604" 
d="M150 303v1207h190v-1175q0 -86 49.5 -135.5t129.5 -49.5v-170q-369 0 -369 323z" />
    <glyph glyph-name="m" unicode="m" horiz-adv-x="1700" 
d="M1375 0v678q0 253 -219 253q-69 0 -129 -42.5t-82 -96.5v-792h-190v761q0 79 -59.5 124.5t-137.5 45.5t-142 -44t-91 -97v-790h-190v1071h124l63 -124q110 144 275 144q230 0 322 -143q32 61 119 102t179 41q166 0 257 -98.5t91 -276.5v-716h-190z" />
    <glyph glyph-name="n" unicode="n" horiz-adv-x="1119" 
d="M794 0v623q0 171 -51.5 239.5t-172.5 68.5q-65 0 -136 -39t-109 -96v-796h-190v1071h130l60 -138q94 158 307 158q352 0 352 -428v-663h-190z" />
    <glyph glyph-name="o" unicode="o" horiz-adv-x="1099" 
d="M265 538q0 -403 285 -403q133 0 208.5 108t75.5 295q0 398 -284 398q-130 0 -207.5 -106t-77.5 -292zM65 534q0 252 133.5 404.5t357.5 152.5t351 -146.5t127 -406.5t-130 -409t-356 -149t-354.5 151t-128.5 403z" />
    <glyph glyph-name="p" unicode="p" horiz-adv-x="1141" 
d="M514 140q354 0 354 400q0 203 -84 297t-269 94q-40 0 -98 -28t-92 -63v-624q18 -27 76 -51.5t113 -24.5zM325 -420h-190v1491h190v-88q108 108 261 108q228 0 355 -142t127 -401t-128 -413.5t-370 -154.5q-68 0 -145.5 24t-99.5 55v-479z" />
    <glyph glyph-name="q" unicode="q" horiz-adv-x="1141" 
d="M616 931q-161 0 -251 -109t-90 -292t90 -286.5t235 -103.5t221 70v639q-82 82 -205 82zM821 -420v483q-83 -83 -290 -83t-331.5 147t-124.5 405t142.5 408.5t366.5 150.5q140 0 261 -101l51 81h115v-1491h-190z" />
    <glyph glyph-name="r" unicode="r" horiz-adv-x="796" 
d="M592 931q-101 0 -176.5 -93t-75.5 -224v-614h-190v1071h190v-171q104 191 309 191q51 0 147 -18l-79 -185q-62 43 -125 43z" />
    <glyph glyph-name="s" unicode="s" horiz-adv-x="829" 
d="M388 140q176 0 176 148q0 106 -170 182q-131 60 -226.5 125t-95.5 207q0 141 96 215t232 74t314 -74l-54 -176q-113 90 -227 90q-68 0 -114.5 -32t-46.5 -81q0 -103 117 -156l136 -62q125 -57 182 -130t57 -183q0 -144 -101 -225.5t-275 -81.5t-323 84l67 180
q159 -104 256 -104z" />
    <glyph glyph-name="t" unicode="t" horiz-adv-x="812" 
d="M203 921h-124v150h124v224l190 73v-297h294v-150h-294v-532q0 -135 45.5 -192t132.5 -57t165 37l28 -167q-118 -30 -252 -30t-221.5 94.5t-87.5 238.5v608z" />
    <glyph glyph-name="u" unicode="u" horiz-adv-x="1119" 
d="M315 1071v-683q0 -248 215 -248q94 0 172 54t103 125v752h190v-1071h-190v148q-32 -63 -128.5 -115.5t-188.5 -52.5q-176 0 -269.5 101t-93.5 287v703h190z" />
    <glyph glyph-name="v" unicode="v" horiz-adv-x="1003" 
d="M521 -20h-50l-459 1094h208l283 -750l289 750h199z" />
    <glyph glyph-name="w" unicode="w" horiz-adv-x="1524" 
d="M1125 -20h-50l-314 729l-313 -729h-50l-383 1094h203l229 -703l285 703h50l294 -703l246 703h187z" />
    <glyph glyph-name="x" unicode="x" horiz-adv-x="1026" 
d="M787 0l-292 390l-261 -390h-222l389 548l-357 523h214l240 -368l269 368h210l-389 -523l426 -548h-227z" />
    <glyph glyph-name="y" unicode="y" horiz-adv-x="1010" 
d="M124 -420v170q119 0 204 55.5t85 139.5t-31 169.5t-80 211.5l-290 745h194l315 -828l283 828h194l-454 -1253q-37 -102 -155.5 -170t-264.5 -68z" />
    <glyph glyph-name="z" unicode="z" horiz-adv-x="972" 
d="M932 170v-170h-892v50l609 851h-599v170h876v-54l-588 -847h594z" />
    <glyph glyph-name="braceleft" unicode="{" horiz-adv-x="752" 
d="M568 -420q-171 0 -283 82t-112 216q0 70 37 214t37 219q0 198 -209 212v84q99 8 154 69.5t55 144.5t-37 208.5t-37 186.5q0 128 111.5 207t274.5 79h148v-133h-175q-164 0 -164 -184q0 -65 31.5 -167t31.5 -163q0 -158 -225 -288q105 -43 165 -112t60 -136t-31.5 -182
t-31.5 -189q0 -228 263 -228h76v-140h-139z" />
    <glyph glyph-name="bar" unicode="|" 
d="M462 -276v1681h146v-1681h-146z" />
    <glyph glyph-name="braceright" unicode="}" horiz-adv-x="752" 
d="M38 -420v140h76q263 0 263 228q0 74 -31.5 189t-31.5 182t60 136t165 112q-225 130 -225 288q0 61 31.5 163t31.5 167q0 184 -164 184h-175v133h148q163 0 274.5 -79t111.5 -207q0 -61 -37 -186.5t-37 -208.5t55 -144.5t154 -69.5v-84q-209 -14 -209 -212
q0 -74 37 -216.5t37 -216.5q0 -134 -112 -216t-283 -82h-139z" />
    <glyph glyph-name="asciitilde" unicode="~" 
d="M712 509q-79 0 -203 38.5t-152 38.5q-71 0 -108 -77h-91q14 84 64.5 145.5t128.5 61.5t193.5 -38.5t163.5 -38.5q81 0 108 77h88q-53 -207 -192 -207z" />
    <glyph glyph-name="nonbreakingspace" unicode="&#xa0;" horiz-adv-x="617" 
 />
    <glyph glyph-name="exclamdown" unicode="&#xa1;" horiz-adv-x="752" 
d="M491 -11v-409h-226v410q0 196 77 699h71q78 -512 78 -700zM384 790q-62 0 -106 44t-44 106t44 106.5t106 44.5t106 -44.5t44 -106.5t-44 -106t-106 -44z" />
    <glyph glyph-name="cent" unicode="&#xa2;" 
d="M353 519q0 -132 72 -210l158 532q-101 -16 -165.5 -103t-64.5 -219zM634 227q102 0 206 79l60 -136q-122 -79 -303 -79q-62 0 -119 15l-74 -258h-115l88 300q-184 110 -184 379q0 202 115 325.5t316 127.5l70 237h102l-71 -248q109 -26 170 -75l-78 -113q-38 38 -130 56
l-169 -590q53 -20 116 -20z" />
    <glyph glyph-name="sterling" unicode="&#xa3;" 
d="M140 856h82v148q0 233 112 360t306 127t282 -121l-94 -133q-64 86 -222 86q-184 0 -184 -311v-156h199v-149h-199v-527h223q152 0 234 113l142 -111q-102 -182 -445 -182h-444v139q90 30 90 129v439h-82v149z" />
    <glyph glyph-name="currency" unicode="&#xa4;" 
d="M236 726q0 -125 87 -212.5t211 -87.5t212 88t88 212t-87 211.5t-212 87.5t-212 -87t-87 -212zM536 306q-132 0 -253 84l-143 -144l-84 88l143 140q-82 128 -82 252t82 251l-143 140l84 88l143 -143q121 83 253 83t253 -83l143 143l85 -88l-143 -140q82 -127 82 -251
t-82 -252l143 -140l-85 -88l-143 144q-121 -84 -253 -84z" />
    <glyph glyph-name="yen" unicode="&#xa5;" horiz-adv-x="1168" 
d="M932 475h-254v-475h-200v475h-243v131h243v50l-439 809h206l332 -640l368 640h197l-464 -809v-50h254v-131z" />
    <glyph glyph-name="brokenbar" unicode="&#xa6;" 
d="M472 -276v723h146v-723h-146zM472 694v723h146v-723h-146z" />
    <glyph glyph-name="section" unicode="&#xa7;" horiz-adv-x="929" 
d="M291 788q0 -31 29.5 -68.5t84.5 -57.5t191 -50q18 36 18 88t-24 84.5t-67.5 52t-69.5 22.5t-98 22q-64 -42 -64 -93zM85 1180q0 137 118 223.5t274 86.5q64 0 152.5 -29.5t136.5 -69.5l-62 -184q-108 103 -222 103q-187 0 -187 -127q0 -44 30.5 -83t187 -78t226 -109.5
t69.5 -178.5t-81 -191q123 -82 123 -221q0 -167 -108 -256t-311 -89t-330 92l68 186q109 -100 270 -100q201 0 201 147q0 135 -229 182q-136 28 -220 103t-84 153q0 136 97 197q-119 68 -119 243z" />
    <glyph glyph-name="dieresis" unicode="&#xa8;" 
d="M774 1513q47 0 80 -32.5t33 -79.5t-33 -80t-80 -33t-79.5 33t-32.5 80t32.5 79.5t79.5 32.5zM302 1513q47 0 79.5 -32.5t32.5 -79.5t-32.5 -80t-79.5 -33t-80 33t-33 80t33 79.5t80 32.5z" />
    <glyph glyph-name="copyright" unicode="&#xa9;" horiz-adv-x="1460" 
d="M780 236q-158 0 -252 117t-94 307t100 312.5t248 122.5t222 -44l-38 -97q-54 39 -168 39t-179.5 -94t-65.5 -239t68 -233t180 -88t174 82l63 -86q-100 -99 -258 -99zM1344 661q0 234 -165 399t-399 165t-399.5 -165t-165.5 -399t165.5 -399.5t399.5 -165.5t399 165.5
t165 399.5zM105 661q0 279 198 476.5t477 197.5t476.5 -197.5t197.5 -476.5t-197.5 -477t-476.5 -198t-477 198t-198 477z" />
    <glyph glyph-name="ordfeminine" unicode="&#xaa;" horiz-adv-x="752" 
d="M498 1157h-72q-92 0 -148.5 -40t-56.5 -89t35.5 -72t87.5 -23q92 0 154 69v155zM297 824q-89 0 -149.5 50.5t-60.5 127.5q0 115 93.5 182t242.5 67h39l35 -1q-3 127 -138 127q-109 0 -175 -62l-58 108q91 68 219 68q288 0 288 -267v-225q0 -79 53 -107v-67
q-139 0 -173 77q-75 -78 -216 -78z" />
    <glyph glyph-name="guillemotleft" unicode="&#xab;" 
d="M129 535v64l355 244v-125l-212 -157l212 -138v-125zM528 535v64l355 244v-125l-212 -157l212 -138v-125z" />
    <glyph glyph-name="logicalnot" unicode="&#xac;" 
d="M960 886v-486h-141v345h-697v141h838z" />
    <glyph glyph-name="sfthyphen" unicode="&#xad;" horiz-adv-x="752" 
d="M159 506v175h428v-175h-428z" />
    <glyph glyph-name="registered" unicode="&#xae;" horiz-adv-x="1460" 
d="M764 705q90 0 129.5 29.5t39.5 112.5q0 137 -180 137h-47l-47 -1v-276q15 -2 105 -2zM659 611v-357h-119v831h213q300 0 300 -230q0 -160 -161 -226l227 -375h-129l-211 357h-120zM1344 661q0 234 -165 399t-399 165t-399.5 -165t-165.5 -399t165.5 -399.5t399.5 -165.5
t399 165.5t165 399.5zM105 661q0 279 198 476.5t477 197.5t476.5 -197.5t197.5 -476.5t-197.5 -477t-476.5 -198t-477 198t-198 477z" />
    <glyph glyph-name="overscore" unicode="&#xaf;" 
d="M-8 1546v129h1085v-129h-1085z" />
    <glyph glyph-name="degree" unicode="&#xb0;" 
d="M508 1421q-57 0 -98 -41t-41 -98t41 -98t98 -41t98 41t41 98t-41 98t-98 41zM508 1072q-88 0 -150 61.5t-62 148.5t62 148t150 61t149.5 -61t61.5 -148t-61.5 -148.5t-149.5 -61.5z" />
    <glyph glyph-name="plusminus" unicode="&#xb1;" 
d="M960 121v-141h-838v141h838zM611 706h349v-141h-349v-345h-141v345h-348v141h348v343h141v-343z" />
    <glyph glyph-name="twosuperior" unicode="&#xb2;" horiz-adv-x="924" 
d="M184 595v24l266 414q86 134 86 223q0 122 -128 122q-107 0 -169 -124l-77 63q26 74 93 123.5t147 49.5q264 0 264 -224q0 -120 -93 -266l-183 -287h334v-118h-540z" />
    <glyph glyph-name="threesuperior" unicode="&#xb3;" horiz-adv-x="929" 
d="M392 705q163 0 163 142q0 73 -46 118t-128 45h-10v102h6q148 0 148 139q0 119 -139 119q-85 0 -124 -44l-54 91q56 73 180 73t195.5 -62.5t71.5 -146.5t-39.5 -139.5t-95.5 -76.5q165 -54 165 -227q0 -253 -295 -253q-129 0 -205 72l59 102q49 -54 148 -54z" />
    <glyph glyph-name="acute" unicode="&#xb4;" 
d="M744 1618l-226 -333h-140l169 333h197z" />
    <glyph glyph-name="mu1" unicode="&#xb5;" horiz-adv-x="1119" 
d="M325 -420h-190v1491h190v-623q0 -302 235 -302q84 0 148 43.5t87 105.5v776h190v-1071h-190v148q-34 -75 -112.5 -121.5t-180.5 -46.5t-177 38v-438z" />
    <glyph glyph-name="paragraph" unicode="&#xb6;" 
d="M778 -250v1616h-158v-1616h-154v893q-348 0 -348 434q0 176 81 294t226 118h507v-1739h-154z" />
    <glyph glyph-name="middot" unicode="&#xb7;" horiz-adv-x="752" 
d="M355 801q62 0 106 -44t44 -106q0 -63 -44 -107t-106 -44t-106 44t-44 107q0 62 44 106t106 44z" />
    <glyph glyph-name="cedilla" unicode="&#xb8;" 
d="M513 -254q0 74 -90 74v119q99 0 154 -55.5t55 -143.5t-73 -141.5t-204 -53.5l-24 99q78 0 130 27t52 75z" />
    <glyph glyph-name="onesuperior" unicode="&#xb9;" horiz-adv-x="924" 
d="M439 595v674l-188 -112v113q197 99 282 208h36v-883h-130z" />
    <glyph glyph-name="ordmasculine" unicode="&#xba;" horiz-adv-x="752" 
d="M207 1158q-1 -220 171 -220t172 220t-172 219q-172 1 -171 -219zM66 1156q0 151 86 243t231 92t226.5 -88.5t81.5 -242.5t-82.5 -245t-229.5 -91t-230 90.5t-83 241.5z" />
    <glyph glyph-name="guillemotright" unicode="&#xbb;" 
d="M524 535l-355 -237v125l212 138l-212 157v125l355 -244v-64zM923 535l-355 -237v125l212 138l-212 157v125l355 -244v-64z" />
    <glyph glyph-name="onequarter" unicode="&#xbc;" horiz-adv-x="1668" 
d="M1270 312v311l-252 -311h252zM1400 210v-210h-130v210h-404v68l492 605h42v-571h89v-102h-89zM259 595v664l-178 -102v113q197 99 282 208h36v-883h-140zM349 -35h-128l974 1526h126z" />
    <glyph glyph-name="onehalf" unicode="&#xbd;" horiz-adv-x="1668" 
d="M1024 0v24l266 414q86 134 86 223q0 122 -128 122q-107 0 -169 -124l-77 63q26 74 93 123.5t147 49.5q264 0 264 -224q0 -120 -93 -266l-183 -287h334v-118h-540zM289 595v674l-188 -112v113q197 99 282 208h36v-883h-130zM336 -35h-128l974 1526h126z" />
    <glyph glyph-name="threequarters" unicode="&#xbe;" horiz-adv-x="1668" 
d="M1300 312v311l-252 -311h252zM1430 210v-210h-130v210h-404v68l492 605h42v-571h89v-102h-89zM332 705q163 0 163 142q0 73 -46 118t-128 45h-10v102h6q148 0 148 139q0 119 -139 119q-85 0 -124 -44l-54 91q56 73 180 73t195.5 -62.5t71.5 -146.5t-39.5 -139.5
t-95.5 -76.5q165 -54 165 -227q0 -253 -295 -253q-129 0 -205 72l59 102q49 -54 148 -54zM429 -35h-128l974 1526h126z" />
    <glyph glyph-name="questiondown" unicode="&#xbf;" horiz-adv-x="752" 
d="M530 490q0 -57 -26.5 -132t-120 -179.5t-125.5 -160.5t-32 -109q0 -176 213 -176q102 0 178 73l73 -143q-101 -83 -301 -83q-150 0 -249.5 85t-99.5 232t104 256l146 156q88 108 88 242q0 21 -14 91h132q34 -95 34 -152zM406 790q-62 0 -106 44t-44 106t44 106.5
t106 44.5t106 -44.5t44 -106.5t-44 -106t-106 -44z" />
    <glyph glyph-name="Agrave" unicode="&#xc0;" horiz-adv-x="1208" 
d="M616 1101l-227 -645h435zM982 0l-101 309h-545l-108 -309h-224l595 1485h53l552 -1485h-222zM578 1585l-226 333h197l169 -333h-140z" />
    <glyph glyph-name="Aacute" unicode="&#xc1;" horiz-adv-x="1208" 
d="M616 1101l-227 -645h435zM982 0l-101 309h-545l-108 -309h-224l595 1485h53l552 -1485h-222zM859 1918l-226 -333h-140l169 333h197z" />
    <glyph glyph-name="Acircumflex" unicode="&#xc2;" horiz-adv-x="1208" 
d="M616 1101l-227 -645h435zM982 0l-101 309h-545l-108 -309h-224l595 1485h53l552 -1485h-222zM778 1585l-163 189l-178 -189h-172l298 338h107l305 -338h-197z" />
    <glyph glyph-name="Atilde" unicode="&#xc3;" horiz-adv-x="1208" 
d="M616 1101l-227 -645h435zM982 0l-101 309h-545l-108 -309h-224l595 1485h53l552 -1485h-222zM740 1585q-62 1 -138 39t-107 38q-71 0 -108 -77h-91q14 83 64 145t126 62t146 -38t104 -39q81 0 108 77h88q-53 -207 -192 -207z" />
    <glyph glyph-name="Adieresis" unicode="&#xc4;" horiz-adv-x="1208" 
d="M616 1101l-227 -645h435zM982 0l-101 309h-545l-108 -309h-224l595 1485h53l552 -1485h-222zM858 1813q47 -1 80 -33t33 -79t-33 -80t-80 -33q-48 0 -80 33t-32 80t32 79t80 33zM386 1813q48 -1 80 -33t32 -79t-32 -80t-80 -33q-47 0 -80 33t-33 80t33 79t80 33z" />
    <glyph glyph-name="Aring" unicode="&#xc5;" horiz-adv-x="1208" 
d="M616 1101l-227 -645h435zM627 1505q42 0 71.5 29.5t29.5 70.5t-29.5 70t-71.5 29t-72 -29t-30 -70t30 -70.5t72 -29.5zM415 1614q0 78 62 139t150 61t149.5 -61t61.5 -141t-43.5 -136t-111.5 -74l521 -1402h-222l-101 309h-549l-104 -309h-224l562 1404q-66 20 -108.5 76
t-42.5 134z" />
    <glyph glyph-name="AE" unicode="&#xc6;" horiz-adv-x="1775" 
d="M828 456v829l-384 -829h384zM828 307h-448l-139 -307h-224l705 1465h981v-180h-675v-407h484v-170h-484v-528h664v-180h-864v307z" />
    <glyph glyph-name="Ccedilla" unicode="&#xc7;" horiz-adv-x="1225" 
d="M722 1310q-200 0 -316 -166t-116 -422t120 -412t316 -155q198 0 309 146l110 -153q-175 -173 -455 -173t-445 207q-165 206 -165 540t176 551t455 217q239 0 374 -79l-67 -171q-96 70 -296 70zM625 -254q0 74 -90 74v119q99 0 154 -56q55 -55 55 -143t-73 -142t-204 -53
l-24 99q78 0 130 27t52 75z" />
    <glyph glyph-name="Egrave" unicode="&#xc8;" horiz-adv-x="1097" 
d="M350 1285v-407h484v-170h-484v-528h664v-180h-864v1465h875v-180h-675zM592 1585l-226 333h197l169 -333h-140z" />
    <glyph glyph-name="Eacute" unicode="&#xc9;" horiz-adv-x="1097" 
d="M350 1285v-407h484v-170h-484v-528h664v-180h-864v1465h875v-180h-675zM802 1918l-226 -333h-140l169 333h197z" />
    <glyph glyph-name="Ecircumflex" unicode="&#xca;" horiz-adv-x="1097" 
d="M350 1285v-407h484v-170h-484v-528h664v-180h-864v1465h875v-180h-675zM718 1585l-163 189l-178 -189h-172l298 338h107l305 -338h-197z" />
    <glyph glyph-name="Edieresis" unicode="&#xcb;" horiz-adv-x="1097" 
d="M350 1285v-407h484v-170h-484v-528h664v-180h-864v1465h875v-180h-675zM815 1813q47 -1 80 -33t33 -79t-33 -80t-80 -33t-79 33t-33 80q1 47 33 79t79 33zM343 1813q47 -1 79 -33t33 -79q-1 -47 -33 -80t-79 -33t-80 33t-33 80t33 79t80 33z" />
    <glyph glyph-name="Igrave" unicode="&#xcc;" horiz-adv-x="570" 
d="M185 0v1465h200v-1465h-200zM329 1585l-226 333h197l169 -333h-140z" />
    <glyph glyph-name="Iacute" unicode="&#xcd;" horiz-adv-x="570" 
d="M185 0v1465h200v-1465h-200zM577 1918l-226 -333h-140l169 333h197z" />
    <glyph glyph-name="Icircumflex" unicode="&#xce;" horiz-adv-x="570" 
d="M185 0v1465h200v-1465h-200zM433 1585l-163 189l-178 -189h-172l298 338h107l305 -338h-197z" />
    <glyph glyph-name="Idieresis" unicode="&#xcf;" horiz-adv-x="570" 
d="M185 0v1465h200v-1465h-200zM554 1813q47 -1 80 -33t33 -79t-33 -80t-80 -33q-48 0 -80 33t-32 80t32 79t80 33zM82 1813q48 -1 80 -33t32 -79t-32 -80t-80 -33q-47 0 -80 33t-33 80t33 79t80 33z" />
    <glyph glyph-name="Eth" unicode="&#xd0;" horiz-adv-x="1256" 
d="M350 851h149v-160h-149v-501q67 -10 166 -10q210 0 330 157.5t120 437.5q0 520 -467 520q-28 0 -149 -10v-434zM15 691v160h135v614q282 10 361 10q307 0 486 -186.5t179 -496.5q0 -792 -731 -792h-295v691h-135z" />
    <glyph glyph-name="Ntilde" unicode="&#xd1;" horiz-adv-x="1307" 
d="M340 0h-190v1465h80l737 -1013v1013h190v-1485h-60l-757 1071v-1051zM738 1585q-62 1 -138 39t-107 38q-71 0 -108 -77h-91q14 83 64 145t126 62t146 -38t104 -39q81 0 108 77h88q-53 -207 -192 -207z" />
    <glyph glyph-name="Ograve" unicode="&#xd2;" horiz-adv-x="1380" 
d="M290 750q0 -257 100 -426t292 -169t300 155t108 435q0 566 -420 566q-186 0 -283 -152t-97 -409zM80 735q0 328 160 542t430 214q306 0 468 -197q162 -198 162 -554t-163 -560t-453 -205q-290 0 -448 216q-156 216 -156 544zM718 1585l-226 333h197l169 -333h-140z" />
    <glyph glyph-name="Oacute" unicode="&#xd3;" horiz-adv-x="1380" 
d="M290 750q0 -257 100 -426t292 -169t300 155t108 435q0 566 -420 566q-186 0 -283 -152t-97 -409zM80 735q0 328 160 542t430 214q306 0 468 -197q162 -198 162 -554t-163 -560t-453 -205q-290 0 -448 216q-156 216 -156 544zM889 1918l-226 -333h-140l169 333h197z" />
    <glyph glyph-name="Ocircumflex" unicode="&#xd4;" horiz-adv-x="1380" 
d="M290 750q0 -257 100 -426t292 -169t300 155t108 435q0 566 -420 566q-186 0 -283 -152t-97 -409zM80 735q0 328 160 542t430 214q306 0 468 -197q162 -198 162 -554t-163 -560t-453 -205q-290 0 -448 216q-156 216 -156 544zM828 1585l-163 189l-178 -189h-172l298 338
h107l305 -338h-197z" />
    <glyph glyph-name="Otilde" unicode="&#xd5;" horiz-adv-x="1380" 
d="M290 750q0 -257 100 -426t292 -169t300 155t108 435q0 566 -420 566q-186 0 -283 -152t-97 -409zM80 735q0 328 160 542t430 214q306 0 468 -197q162 -198 162 -554t-163 -560t-453 -205q-290 0 -448 216q-156 216 -156 544zM808 1585q-62 1 -138 39t-107 38
q-71 0 -108 -77h-91q14 83 64 145t126 62t146 -38t104 -39q81 0 108 77h88q-53 -207 -192 -207z" />
    <glyph glyph-name="Odieresis" unicode="&#xd6;" horiz-adv-x="1380" 
d="M290 750q0 -257 100 -426t292 -169t300 155t108 435q0 566 -420 566q-186 0 -283 -152t-97 -409zM80 735q0 328 160 542t430 214q306 0 468 -197q162 -198 162 -554t-163 -560t-453 -205q-290 0 -448 216q-156 216 -156 544zM922 1813q47 -1 80 -33t33 -79t-33 -80
t-80 -33q-48 0 -80 33t-32 80t32 79t80 33zM450 1813q48 -1 80 -33t32 -79t-32 -80t-80 -33q-47 0 -80 33t-33 80t33 79t80 33z" />
    <glyph glyph-name="multiply" unicode="&#xd7;" 
d="M544 728l317 317l100 -99l-317 -317l314 -315l-100 -100l-314 315l-317 -317l-100 99l317 317l-321 321l100 100z" />
    <glyph glyph-name="Oslash" unicode="&#xd8;" horiz-adv-x="1345" 
d="M657 155q206 0 313 156t107 434q0 205 -58 338l-562 -856q84 -72 200 -72zM657 1311q-186 0 -283 -151.5t-97 -391.5t77 -401l559 862q-99 82 -256 82zM67 732q0 332 159.5 545.5t430.5 213.5q214 0 361 -100l67 100h202l-144 -220q144 -195 144 -541t-163 -550.5
t-467 -204.5q-176 0 -307 91l-67 -91h-216l160 211q-160 214 -160 546z" />
    <glyph glyph-name="Ugrave" unicode="&#xd9;" horiz-adv-x="1328" 
d="M150 1465h200v-1003q0 -134 85 -220t229 -87q144 0 229 84t85 228v998h200v-1019q0 -222 -138 -346t-382 -125q-242 0 -375 122t-133 350v1018zM659 1585l-226 333h197l169 -333h-140z" />
    <glyph glyph-name="Uacute" unicode="&#xda;" horiz-adv-x="1328" 
d="M150 1465h200v-1003q0 -134 85 -220t229 -87q144 0 229 84t85 228v998h200v-1019q0 -222 -138 -346t-382 -125q-242 0 -375 122t-133 350v1018zM854 1918l-226 -333h-140l169 333h197z" />
    <glyph glyph-name="Ucircumflex" unicode="&#xdb;" horiz-adv-x="1328" 
d="M150 1465h200v-1003q0 -134 85 -220t229 -87q144 0 229 84t85 228v998h200v-1019q0 -222 -138 -346t-382 -125q-242 0 -375 122t-133 350v1018zM792 1585l-163 189l-178 -189h-172l298 338h107l305 -338h-197z" />
    <glyph glyph-name="Udieresis" unicode="&#xdc;" horiz-adv-x="1328" 
d="M150 1465h200v-1003q0 -134 85 -220t229 -87q144 0 229 84t85 228v998h200v-1019q0 -222 -138 -346t-382 -125q-242 0 -375 122t-133 350v1018zM874 1813q47 -1 80 -33t33 -79t-33 -80t-80 -33q-48 0 -80 33t-32 80t32 79t80 33zM402 1813q48 -1 80 -33t32 -79t-32 -80
t-80 -33q-47 0 -80 33t-33 80t33 79t80 33z" />
    <glyph glyph-name="Yacute" unicode="&#xdd;" horiz-adv-x="1168" 
d="M685 0h-200v656l-472 809h206l365 -640l365 640h206l-470 -809v-656zM819 1918l-226 -333h-140l169 333h197z" />
    <glyph glyph-name="Thorn" unicode="&#xde;" horiz-adv-x="1138" 
d="M460 1095h-109v-601h134q372 0 372 313q0 150 -92 219t-305 69zM499 314h-148v-314h-201v1465h201v-190h74q638 0 638 -447q0 -245 -148.5 -379.5t-415.5 -134.5z" />
    <glyph glyph-name="germandbls" unicode="&#xdf;" horiz-adv-x="1119" 
d="M839 444q0 72 -29.5 134t-57.5 85.5t-152 125.5q-84 68 -84 146q0 22 50.5 65t76.5 81.5t26 96.5q0 162 -169 162q-96 0 -135.5 -75t-39.5 -249v-1016h-190v1115q0 184 91.5 289.5t257.5 105.5t263 -75t97 -203t-95 -237q-33 -39 -33 -55t13 -27t79 -45
q231 -120 231 -422q0 -219 -97 -342.5t-279 -123.5q-76 0 -141 23l36 151l56 -9q18 -3 59.5 5.5t72.5 30.5t51.5 57.5t31 84.5t10.5 121z" />
    <glyph glyph-name="agrave" unicode="&#xe0;" horiz-adv-x="1076" 
d="M596 546q-144 0 -235 -74t-91 -175q0 -167 197 -167q144 0 255 137v259q-90 20 -126 20zM391 -20q-127 0 -219 92t-92 240q0 150 142 262t364 113q60 0 136 -26q0 260 -232 260q-178 0 -274 -96l-80 159q54 44 150 76t182 31q232 0 338 -106t106 -337v-384
q0 -141 84 -188v-95q-116 0 -174 33t-82 109q-114 -143 -349 -143zM505 1285l-226 333h197l169 -333h-140z" />
    <glyph glyph-name="aacute" unicode="&#xe1;" horiz-adv-x="1076" 
d="M596 546q-144 0 -235 -74t-91 -175q0 -167 197 -167q144 0 255 137v259q-90 20 -126 20zM391 -20q-127 0 -219 92t-92 240q0 150 142 262t364 113q60 0 136 -26q0 260 -232 260q-178 0 -274 -96l-80 159q54 44 150 76t182 31q232 0 338 -106t106 -337v-384
q0 -141 84 -188v-95q-116 0 -174 33t-82 109q-114 -143 -349 -143zM765 1618l-226 -333h-140l169 333h197z" />
    <glyph glyph-name="acircumflex" unicode="&#xe2;" horiz-adv-x="1076" 
d="M596 546q-144 0 -235 -74t-91 -175q0 -167 197 -167q144 0 255 137v259q-90 20 -126 20zM391 -20q-127 0 -219 92t-92 240q0 150 142 262t364 113q60 0 136 -26q0 260 -232 260q-178 0 -274 -96l-80 159q54 44 150 76t182 31q232 0 338 -106t106 -337v-384
q0 -141 84 -188v-95q-116 0 -174 33t-82 109q-114 -143 -349 -143zM680 1285l-163 189l-178 -189h-172l298 338h107l305 -338h-197z" />
    <glyph glyph-name="atilde" unicode="&#xe3;" horiz-adv-x="1076" 
d="M596 546q-144 0 -235 -74t-91 -175q0 -167 197 -167q144 0 255 137v259q-90 20 -126 20zM391 -20q-127 0 -219 92t-92 240q0 150 142 262t364 113q60 0 136 -26q0 260 -232 260q-178 0 -274 -96l-80 159q54 44 150 76t182 31q232 0 338 -106t106 -337v-384
q0 -141 84 -188v-95q-116 0 -174 33t-82 109q-114 -143 -349 -143zM641 1285q-63 1 -139 39t-106 38q-71 0 -108 -77h-91q15 83 65 145t126 62t144 -38q70 -38 105 -39q81 0 108 77h88q-53 -207 -192 -207z" />
    <glyph glyph-name="adieresis" unicode="&#xe4;" horiz-adv-x="1076" 
d="M596 546q-144 0 -235 -74t-91 -175q0 -167 197 -167q144 0 255 137v259q-90 20 -126 20zM391 -20q-127 0 -219 92t-92 240q0 150 142 262t364 113q60 0 136 -26q0 260 -232 260q-178 0 -274 -96l-80 159q54 44 150 76t182 31q232 0 338 -106t106 -337v-384
q0 -141 84 -188v-95q-116 0 -174 33t-82 109q-114 -143 -349 -143zM748 1513q47 -1 80 -33t33 -79t-33 -80t-80 -33q-48 0 -80 33t-32 80t32 79t80 33zM276 1513q48 -1 80 -33t32 -79t-32 -80t-80 -33q-47 0 -80 33t-33 80t33 79t80 33z" />
    <glyph glyph-name="aring" unicode="&#xe5;" horiz-adv-x="1076" 
d="M596 546q-144 0 -235 -74t-91 -175q0 -167 197 -167q144 0 255 137v259q-90 20 -126 20zM391 -20q-127 0 -219 92t-92 240q0 150 142 262t364 113q60 0 136 -26q0 260 -232 260q-178 0 -274 -96l-80 159q54 44 150 76t182 31q232 0 338 -106t106 -337v-384
q0 -141 84 -188v-95q-116 0 -174 33t-82 109q-114 -143 -349 -143zM514 1395q42 -1 72 29t29 71q1 41 -29 70t-72 29t-72 -29t-30 -70t30 -71t72 -29zM514 1704q88 0 150 -61t61 -148q0 -87 -62 -149q-61 -62 -149 -61q-88 -1 -150 61t-62 149t62 148t150 61z" />
    <glyph glyph-name="ae" unicode="&#xe6;" horiz-adv-x="1788" 
d="M597 546q-142 0 -234.5 -79.5t-92.5 -169.5q0 -167 198 -167q145 0 256 137v259q-60 20 -127 20zM934 655h598q0 123 -85 199.5t-215 76.5t-214 -90t-84 -186zM934 517q0 -170 89 -273.5t251 -103.5t261 109l80 -152q-78 -69 -169.5 -93t-241.5 -24t-278 95q5 -50 11 -95
h-161q-11 47 -35 143q-114 -143 -339 -143q-133 0 -227.5 87.5t-94.5 213.5q0 182 141.5 292t370.5 110q56 0 132 -22q0 260 -233 260q-178 0 -274 -96l-80 159q54 44 149.5 75.5t182.5 31.5q293 0 389 -173q148 173 369 173t352.5 -133t131.5 -345q0 -46 -15 -96h-762z" />
    <glyph glyph-name="ccedilla" unicode="&#xe7;" horiz-adv-x="1014" 
d="M602 931q-155 -1 -246 -109t-91 -296t93 -288q94 -98 240 -98t276 99l75 -160q-153 -99 -375 -99t-366 147q-143 147 -143 401q1 254 149 408q148 155 406 155q83 0 180 -35t143 -72l-94 -134q-29 29 -103 55t-144 26zM565 -254q0 74 -90 74v119q99 0 154 -56
q55 -55 55 -143t-73 -142t-204 -53l-24 99q78 0 130 27t52 75z" />
    <glyph glyph-name="egrave" unicode="&#xe8;" horiz-adv-x="1117" 
d="M863 655q1 115 -75 195t-208 81q-132 0 -215 -80q-84 -80 -95 -196h593zM265 517q0 -189 97 -283t250 -94t262 95l80 -137q-44 -44 -146 -81t-243 -37q-202 0 -351 144t-149 404q1 260 153 412t365 151t341 -127t128 -331q0 -63 -15 -116h-772zM587 1285l-226 333h197
l169 -333h-140z" />
    <glyph glyph-name="eacute" unicode="&#xe9;" horiz-adv-x="1117" 
d="M863 655q1 115 -75 195t-208 81q-132 0 -215 -80q-84 -80 -95 -196h593zM265 517q0 -189 97 -283t250 -94t262 95l80 -137q-44 -44 -146 -81t-243 -37q-202 0 -351 144t-149 404q1 260 153 412t365 151t341 -127t128 -331q0 -63 -15 -116h-772zM824 1618l-226 -333h-140
l169 333h197z" />
    <glyph glyph-name="ecircumflex" unicode="&#xea;" horiz-adv-x="1117" 
d="M863 655q1 115 -75 195t-208 81q-132 0 -215 -80q-84 -80 -95 -196h593zM265 517q0 -189 97 -283t250 -94t262 95l80 -137q-44 -44 -146 -81t-243 -37q-202 0 -351 144t-149 404q1 260 153 412t365 151t341 -127t128 -331q0 -63 -15 -116h-772zM729 1285l-163 189
l-178 -189h-172l298 338h107l305 -338h-197z" />
    <glyph glyph-name="edieresis" unicode="&#xeb;" horiz-adv-x="1117" 
d="M863 655q1 115 -75 195t-208 81q-132 0 -215 -80q-84 -80 -95 -196h593zM265 517q0 -189 97 -283t250 -94t262 95l80 -137q-44 -44 -146 -81t-243 -37q-202 0 -351 144t-149 404q1 260 153 412t365 151t341 -127t128 -331q0 -63 -15 -116h-772zM799 1513q47 -1 80 -33
t33 -79t-33 -80t-80 -33t-79 33t-33 80q1 47 33 79t79 33zM327 1513q47 -1 79 -33t33 -79q-1 -47 -33 -80t-79 -33t-80 33t-33 80t33 79t80 33z" />
    <glyph glyph-name="igrave" unicode="&#xec;" horiz-adv-x="584" 
d="M227 0v911h-147v160h340v-1071h-193zM288 1285l-226 333h197l169 -333h-140z" />
    <glyph glyph-name="iacute" unicode="&#xed;" horiz-adv-x="584" 
d="M227 0v911h-147v160h340v-1071h-193zM540 1618l-226 -333h-140l169 333h197z" />
    <glyph glyph-name="icircumflex" unicode="&#xee;" horiz-adv-x="584" 
d="M227 0v911h-147v160h340v-1071h-193zM443 1285l-163 189l-178 -189h-172l298 338h107l305 -338h-197z" />
    <glyph glyph-name="idieresis" unicode="&#xef;" horiz-adv-x="584" 
d="M227 0v911h-147v160h340v-1071h-193zM525 1513q47 -1 80 -33t33 -79t-33 -80t-80 -33t-79 33t-33 80q1 47 33 79t79 33zM53 1513q47 -1 79 -33t33 -79q-1 -47 -33 -80t-79 -33t-80 33t-33 80t33 79t80 33z" />
    <glyph glyph-name="eth" unicode="&#xf0;" horiz-adv-x="1125" 
d="M251 538q0 -388 295 -388q141 0 217.5 106t76.5 282q0 383 -294 383q-141 0 -218 -105t-77 -278zM1030 538q0 -254 -128 -406t-356 -152t-356.5 152t-128.5 400t131.5 403.5t353.5 155.5q77 0 146 -18q-64 112 -115 183l-174 -94l-46 90l159 84q-91 110 -176 174h251
q29 -30 80 -92l173 92l46 -85l-159 -86q184 -283 241.5 -456.5t57.5 -344.5z" />
    <glyph glyph-name="ntilde" unicode="&#xf1;" horiz-adv-x="1119" 
d="M794 0v623q0 171 -52 239t-172 69q-65 0 -136 -39t-109 -96v-796h-190v1071h130l60 -138q94 158 307 158q352 0 352 -428v-663h-190zM658 1285q-62 1 -138 39t-107 38q-71 0 -108 -77h-91q14 83 64 145t126 62t146 -38t104 -39q81 0 108 77h88q-53 -207 -192 -207z" />
    <glyph glyph-name="ograve" unicode="&#xf2;" horiz-adv-x="1099" 
d="M265 538q0 -403 285 -403q132 0 208 108t76 295q0 398 -284 398q-130 0 -208 -106t-77 -292zM65 534q-1 252 133 404t358 153q224 -1 351 -147t127 -406t-130 -408q-130 -150 -356 -150t-355 151q-128 151 -128 403zM565 1285l-226 333h197l169 -333h-140z" />
    <glyph glyph-name="oacute" unicode="&#xf3;" horiz-adv-x="1099" 
d="M265 538q0 -403 285 -403q132 0 208 108t76 295q0 398 -284 398q-130 0 -208 -106t-77 -292zM65 534q-1 252 133 404t358 153q224 -1 351 -147t127 -406t-130 -408q-130 -150 -356 -150t-355 151q-128 151 -128 403zM774 1618l-226 -333h-140l169 333h197z" />
    <glyph glyph-name="ocircumflex" unicode="&#xf4;" horiz-adv-x="1099" 
d="M265 538q0 -403 285 -403q132 0 208 108t76 295q0 398 -284 398q-130 0 -208 -106t-77 -292zM65 534q-1 252 133 404t358 153q224 -1 351 -147t127 -406t-130 -408q-130 -150 -356 -150t-355 151q-128 151 -128 403zM709 1285l-163 189l-178 -189h-172l298 338h107
l305 -338h-197z" />
    <glyph glyph-name="otilde" unicode="&#xf5;" horiz-adv-x="1099" 
d="M265 538q0 -403 285 -403q132 0 208 108t76 295q0 398 -284 398q-130 0 -208 -106t-77 -292zM65 534q-1 252 133 404t358 153q224 -1 351 -147t127 -406t-130 -408q-130 -150 -356 -150t-355 151q-128 151 -128 403zM688 1285q-62 1 -138 39t-107 38q-71 0 -108 -77h-91
q14 83 64 145t126 62t146 -38t104 -39q81 0 108 77h88q-53 -207 -192 -207z" />
    <glyph glyph-name="odieresis" unicode="&#xf6;" horiz-adv-x="1099" 
d="M265 538q0 -403 285 -403q132 0 208 108t76 295q0 398 -284 398q-130 0 -208 -106t-77 -292zM65 534q-1 252 133 404t358 153q224 -1 351 -147t127 -406t-130 -408q-130 -150 -356 -150t-355 151q-128 151 -128 403zM800 1513q47 -1 80 -33t33 -79t-33 -80t-80 -33
q-48 0 -80 33t-32 80t32 79t80 33zM328 1513q48 -1 80 -33t32 -79t-32 -80t-80 -33q-47 0 -80 33t-33 80t33 79t80 33z" />
    <glyph glyph-name="divide" unicode="&#xf7;" 
d="M694 250q0 -62 -44 -106.5t-106 -44.5t-106 44.5t-44 106.5t44 106t106 44t106 -44t44 -106zM960 705v-141h-838v141h838zM694 1000q0 -62 -44 -106.5t-106 -44.5t-106 44.5t-44 106.5t44 106t106 44t106 -44t44 -106z" />
    <glyph glyph-name="oslash" unicode="&#xf8;" horiz-adv-x="1117" 
d="M546 135q134 0 214 108.5t80 274.5t-43 257l-424 -576q69 -64 173 -64zM546 926q-134 0 -214.5 -103t-80.5 -268t44 -258l424 575q-75 54 -173 54zM61 538q0 248 133.5 400.5t351.5 152.5q165 0 278 -76l56 76h150l-117 -159q117 -146 117 -400t-130 -403t-354 -149
q-162 0 -276 78l-58 -78h-151l119 162q-119 148 -119 396z" />
    <glyph glyph-name="ugrave" unicode="&#xf9;" horiz-adv-x="1119" 
d="M315 1071v-683q0 -248 215 -248q94 0 172 54t103 125v752h190v-1071h-190v148q-33 -64 -129 -116t-188 -52q-176 0 -270 101t-93 287v703h190zM547 1285l-226 333h197l169 -333h-140z" />
    <glyph glyph-name="uacute" unicode="&#xfa;" horiz-adv-x="1119" 
d="M315 1071v-683q0 -248 215 -248q94 0 172 54t103 125v752h190v-1071h-190v148q-33 -64 -129 -116t-188 -52q-176 0 -270 101t-93 287v703h190zM740 1618l-226 -333h-140l169 333h197z" />
    <glyph glyph-name="ucircumflex" unicode="&#xfb;" horiz-adv-x="1119" 
d="M315 1071v-683q0 -248 215 -248q94 0 172 54t103 125v752h190v-1071h-190v148q-33 -64 -129 -116t-188 -52q-176 0 -270 101t-93 287v703h190zM679 1285l-163 189l-178 -189h-172l298 338h107l305 -338h-197z" />
    <glyph glyph-name="udieresis" unicode="&#xfc;" horiz-adv-x="1119" 
d="M315 1071v-683q0 -248 215 -248q94 0 172 54t103 125v752h190v-1071h-190v148q-33 -64 -129 -116t-188 -52q-176 0 -270 101t-93 287v703h190zM766 1513q47 -1 80 -33t33 -79t-33 -80t-80 -33q-48 0 -80 33t-32 80t32 79t80 33zM294 1513q48 -1 80 -33t32 -79t-32 -80
t-80 -33q-47 0 -80 33t-33 80t33 79t80 33z" />
    <glyph glyph-name="yacute" unicode="&#xfd;" horiz-adv-x="1010" 
d="M124 -420v170q119 0 204 56t85 139t-31 169t-80 212l-290 745h194l315 -828l283 828h194l-454 -1253q-38 -102 -156 -170t-264 -68zM755 1618l-226 -333h-140l169 333h197z" />
    <glyph glyph-name="thorn" unicode="&#xfe;" horiz-adv-x="1133" 
d="M514 150q186 0 270 93t84 295t-83 292.5t-270 90.5q-40 0 -98 -28t-92 -63v-604q89 -76 189 -76zM325 -420h-190v1930h190v-527q108 108 261 108q228 0 355 -142t127 -401t-128 -413.5t-370 -154.5q-166 0 -245 79v-479z" />
    <glyph glyph-name="ydieresis" unicode="&#xff;" horiz-adv-x="1010" 
d="M124 -420v170q119 0 204 56t85 139t-31 169t-80 212l-290 745h194l315 -828l283 828h194l-454 -1253q-38 -102 -156 -170t-264 -68zM736 1513q47 -1 80 -33t33 -79t-33 -80t-80 -33q-48 0 -80 33t-32 80t32 79t80 33zM264 1513q48 -1 80 -33t32 -79t-32 -80t-80 -33
q-47 0 -80 33t-33 80t33 79t80 33z" />
    <glyph glyph-name="Amacron" unicode="&#x100;" horiz-adv-x="1208" 
d="M616 1101l-227 -645h435zM982 0l-101 309h-545l-108 -309h-224l595 1485h53l552 -1485h-222zM995 1726v-141h-738v141h738z" />
    <glyph glyph-name="amacron" unicode="&#x101;" horiz-adv-x="1076" 
d="M596 546q-144 0 -235 -74t-91 -175q0 -167 197 -167q144 0 255 137v259q-90 20 -126 20zM391 -20q-127 0 -219 92t-92 240q0 150 142 262t364 113q60 0 136 -26q0 260 -232 260q-178 0 -274 -96l-80 159q54 44 150 76t182 31q232 0 338 -106t106 -337v-384
q0 -141 84 -188v-95q-116 0 -174 33t-82 109q-114 -143 -349 -143zM863 1426v-141h-738v141h738z" />
    <glyph glyph-name="Abreve" unicode="&#x102;" horiz-adv-x="1208" 
d="M616 1101l-227 -645h435zM982 0l-101 309h-545l-108 -309h-224l595 1485h53l552 -1485h-222zM954 1910q0 -118 -94 -222t-246 -103q-152 0 -238 94q-85 94 -85 231h141q-3 -61 51 -116t133 -55q79 -1 137 51t58 120h143z" />
    <glyph glyph-name="abreve" unicode="&#x103;" horiz-adv-x="1076" 
d="M596 546q-144 0 -235 -74t-91 -175q0 -167 197 -167q144 0 255 137v259q-90 20 -126 20zM391 -20q-127 0 -219 92t-92 240q0 150 142 262t364 113q60 0 136 -26q0 260 -232 260q-178 0 -274 -96l-80 159q54 44 150 76t182 31q232 0 338 -106t106 -337v-384
q0 -141 84 -188v-95q-116 0 -174 33t-82 109q-114 -143 -349 -143zM850 1610q0 -118 -94 -222t-246 -103q-152 0 -238 94q-85 94 -85 231h141q-3 -61 51 -116t133 -55q79 -1 137 51t58 120h143z" />
    <glyph glyph-name="Aogonek" unicode="&#x104;" horiz-adv-x="1208" 
d="M824 456l-208 645l-227 -645h435zM1136 -373q-100 0 -177.5 68.5t-77.5 180.5t82 183l-82 250h-545l-108 -309h-224l595 1485h53l552 -1485h-65q-24 0 -58.5 -31t-34.5 -87t33.5 -82.5t82.5 -26.5t102 31l67 -142q-95 -35 -195 -35z" />
    <glyph glyph-name="aogonek" unicode="&#x105;" horiz-adv-x="1076" 
d="M596 546q-144 0 -235 -74t-91 -175q0 -167 197 -167q144 0 255 137v259q-90 20 -126 20zM974 -373q-100 0 -177 69t-77 171t61 180q-25 29 -41 76q-114 -143 -349 -143q-126 0 -218.5 91t-92.5 241t142.5 262.5t363.5 112.5q60 0 136 -26q0 260 -232 260q-178 0 -274 -96
l-80 159q54 44 149.5 75.5t182.5 31.5q233 0 338.5 -106t105.5 -337v-384q0 -141 84 -188v-95q-31 0 -47 1q-64 -37 -64 -115q0 -94 111 -94q54 0 107 31l67 -142q-96 -35 -196 -35z" />
    <glyph glyph-name="Cacute" unicode="&#x106;" horiz-adv-x="1225" 
d="M722 1310q-200 0 -316 -166t-116 -422t120 -412t316 -155q198 0 309 146l110 -153q-175 -173 -455 -173t-445 207q-165 206 -165 540t176 551t455 217q239 0 374 -79l-67 -171q-96 70 -296 70zM954 1918l-226 -333h-140l169 333h197z" />
    <glyph glyph-name="cacute" unicode="&#x107;" horiz-adv-x="1014" 
d="M602 931q-155 -1 -246 -109t-91 -296t93 -288q94 -98 240 -98t276 99l75 -160q-153 -99 -375 -99t-366 147q-143 147 -143 401q1 254 149 408q148 155 406 155q83 0 180 -35t143 -72l-94 -134q-29 29 -103 55t-144 26zM834 1618l-226 -333h-140l169 333h197z" />
    <glyph glyph-name="Ccircumflex" unicode="&#x108;" horiz-adv-x="1225" 
d="M722 1310q-200 0 -316 -166t-116 -422t120 -412t316 -155q198 0 309 146l110 -153q-175 -173 -455 -173t-445 207q-165 206 -165 540t176 551t455 217q239 0 374 -79l-67 -171q-96 70 -296 70zM874 1585l-163 189l-178 -189h-172l298 338h107l305 -338h-197z" />
    <glyph glyph-name="ccircumflex" unicode="&#x109;" horiz-adv-x="1014" 
d="M602 931q-155 -1 -246 -109t-91 -296t93 -288q94 -98 240 -98t276 99l75 -160q-153 -99 -375 -99t-366 147q-143 147 -143 401q1 254 149 408q148 155 406 155q83 0 180 -35t143 -72l-94 -134q-29 29 -103 55t-144 26zM746 1285l-163 189l-178 -189h-172l298 338h107
l305 -338h-197z" />
    <glyph glyph-name="Cdot" unicode="&#x10a;" horiz-adv-x="1225" 
d="M722 1310q-200 0 -316 -166t-116 -422t120 -412t316 -155q198 0 309 146l110 -153q-175 -173 -455 -173t-445 207q-165 206 -165 540t176 551t455 217q239 0 374 -79l-67 -171q-96 70 -296 70zM695 1820q49 0 83 -34t35 -84q-1 -48 -35 -82t-82 -35q-48 1 -84 35
q-34 34 -34 83t34 83t83 34z" />
    <glyph glyph-name="cdot" unicode="&#x10b;" horiz-adv-x="1014" 
d="M602 931q-155 -1 -246 -109t-91 -296t93 -288q94 -98 240 -98t276 99l75 -160q-153 -99 -375 -99t-366 147q-143 147 -143 401q1 254 149 408q148 155 406 155q83 0 180 -35t143 -72l-94 -134q-29 29 -103 55t-144 26zM575 1520q49 0 83 -34t35 -84q-1 -48 -35 -82
t-82 -35q-48 1 -84 35q-34 34 -34 83t34 83t83 34z" />
    <glyph glyph-name="Ccaron" unicode="&#x10c;" horiz-adv-x="1225" 
d="M722 1310q-200 0 -316 -166t-116 -422t120 -412t316 -155q198 0 309 146l110 -153q-175 -173 -455 -173t-445 207q-165 206 -165 540t176 551t455 217q239 0 374 -79l-67 -171q-96 70 -296 70zM1049 1919l-305 -334h-107l-298 338h172l178 -192l163 188h197z" />
    <glyph glyph-name="ccaron" unicode="&#x10d;" horiz-adv-x="1014" 
d="M602 931q-155 -1 -246 -109t-91 -296t93 -288q94 -98 240 -98t276 99l75 -160q-153 -99 -375 -99t-366 147q-143 147 -143 401q1 254 149 408q148 155 406 155q83 0 180 -35t143 -72l-94 -134q-29 29 -103 55t-144 26zM919 1619l-305 -334h-107l-298 338h172l178 -192
l163 188h197z" />
    <glyph glyph-name="Dcaron" unicode="&#x10e;" horiz-adv-x="1256" 
d="M517 180q210 0 330 158t120 437q0 520 -467 520q-28 0 -149 -10v-1095q67 -10 166 -10zM446 0h-295v1465q282 10 361 10q307 -1 486 -187t179 -496q0 -792 -731 -792zM940 1919l-305 -334h-107l-298 338h172l178 -192l163 188h197z" />
    <glyph glyph-name="dcaron" unicode="&#x10f;" horiz-adv-x="1416" 
d="M603 931q-139 0 -233 -114t-95 -290q0 -387 352 -387q45 0 108 28t79 61v594q-72 108 -211 108zM814 1v79q-99 -99 -294 -99t-320 144q-125 145 -125 385t144 410t343 171q166 0 252 -78v497h190v-1509h-190zM1280 1276q0 28 -34 62t-35 69q0 103 102 103q108 0 108 -124
q0 -188 -185 -303l-47 63q71 58 81 80t10 50z" />
    <glyph glyph-name="Dslash" unicode="&#x110;" horiz-adv-x="1256" 
d="M350 851h149v-160h-149v-501q67 -10 166 -10q210 0 330 158t120 437q0 520 -467 520q-28 0 -149 -10v-434zM15 691v160h135v614q282 10 361 10q307 -1 486 -187t179 -496q0 -792 -731 -792h-295v691h-135z" />
    <glyph glyph-name="dcroat" unicode="&#x111;" horiz-adv-x="1141" 
d="M814 239v574q-72 108 -197 108q-156 0 -249 -110.5t-93 -283.5q0 -377 352 -377q58 0 122.5 35.5t64.5 53.5zM1004 1h-190v79q-99 -99 -294 -99t-320 144.5t-125 384.5t144 410.5t343 170.5q166 0 252 -78v178h-249v150h249v169h190v-169h119v-150h-119v-1190z" />
    <glyph glyph-name="Emacron" unicode="&#x112;" horiz-adv-x="1097" 
d="M350 1285v-407h484v-170h-484v-528h664v-180h-864v1465h875v-180h-675zM956 1726v-141h-738v141h738z" />
    <glyph glyph-name="emacron" unicode="&#x113;" horiz-adv-x="1117" 
d="M863 655q1 115 -75 195t-208 81q-132 0 -215 -80q-84 -80 -95 -196h593zM265 517q0 -189 97 -283t250 -94t262 95l80 -137q-44 -44 -146 -81t-243 -37q-202 0 -351 144t-149 404q1 260 153 412t365 151t341 -127t128 -331q0 -63 -15 -116h-772zM936 1426v-141h-738v141
h738z" />
    <glyph glyph-name="Ebreve" unicode="&#x114;" horiz-adv-x="1097" 
d="M350 1285v-407h484v-170h-484v-528h664v-180h-864v1465h875v-180h-675zM919 1910q0 -118 -94 -222q-95 -104 -247 -103q-152 0 -237 94t-85 231h141q-3 -61 51 -116t133 -55q79 -1 137 51t58 120h143z" />
    <glyph glyph-name="ebreve" unicode="&#x115;" horiz-adv-x="1117" 
d="M863 655q1 115 -75 195t-208 81q-132 0 -215 -80q-84 -80 -95 -196h593zM265 517q0 -189 97 -283t250 -94t262 95l80 -137q-44 -44 -146 -81t-243 -37q-202 0 -351 144t-149 404q1 260 153 412t365 151t341 -127t128 -331q0 -63 -15 -116h-772zM910 1610q0 -118 -94 -222
t-246 -103q-152 0 -238 94q-85 94 -85 231h141q-3 -61 51 -116t133 -55q79 -1 137 51t58 120h143z" />
    <glyph glyph-name="Edot" unicode="&#x116;" horiz-adv-x="1097" 
d="M350 1285v-407h484v-170h-484v-528h664v-180h-864v1465h875v-180h-675zM587 1820q49 0 83 -34t35 -84q-1 -48 -35 -82t-82 -35q-48 1 -84 35q-34 34 -34 83t34 83t83 34z" />
    <glyph glyph-name="edot" unicode="&#x117;" horiz-adv-x="1117" 
d="M863 655q1 115 -75 195t-208 81q-132 0 -215 -80q-84 -80 -95 -196h593zM265 517q0 -189 97 -283t250 -94t262 95l80 -137q-44 -44 -146 -81t-243 -37q-202 0 -351 144t-149 404q1 260 153 412t365 151t341 -127t128 -331q0 -63 -15 -116h-772zM557 1520q49 0 83 -34
t35 -84q-1 -48 -35 -82t-82 -35q-48 1 -84 35q-34 34 -34 83t34 83t83 34z" />
    <glyph glyph-name="Eogonek" unicode="&#x118;" horiz-adv-x="1097" 
d="M848 -373q-100 0 -177.5 69t-77.5 179q0 66 32 125h-475v1465h875v-180h-674v-407h483v-170h-483v-528h663v-180h-158q-4 0 -41.5 -23t-47 -50t-9.5 -60q0 -94 111 -94q54 0 107 31l67 -142q-95 -35 -195 -35z" />
    <glyph glyph-name="eogonek" unicode="&#x119;" horiz-adv-x="1117" 
d="M863 655q0 120 -78 198t-206 78t-213 -79t-96 -197h593zM670 -373q-100 0 -177.5 69t-77.5 179q0 46 22 121q-172 43 -272 182.5t-100 344.5q0 254 147.5 411t363.5 157t346 -125t130 -333q0 -46 -15 -116h-772q0 -179 92 -278t250 -99t267 95l79 -153
q-122 -91 -309 -100q-64 -37 -64 -115q0 -94 111 -94q54 0 107 31l67 -142q-95 -35 -195 -35z" />
    <glyph glyph-name="Ecaron" unicode="&#x11a;" horiz-adv-x="1097" 
d="M350 1285v-407h484v-170h-484v-528h664v-180h-864v1465h875v-180h-675zM939 1919l-305 -334h-107l-298 338h172l178 -192l163 188h197z" />
    <glyph glyph-name="ecaron" unicode="&#x11b;" horiz-adv-x="1117" 
d="M863 655q1 115 -75 195t-208 81q-132 0 -215 -80q-84 -80 -95 -196h593zM265 517q0 -189 97 -283t250 -94t262 95l80 -137q-44 -44 -146 -81t-243 -37q-202 0 -351 144t-149 404q1 260 153 412t365 151t341 -127t128 -331q0 -63 -15 -116h-772zM909 1619l-305 -334h-107
l-298 338h172l178 -192l163 188h197z" />
    <glyph glyph-name="Gcircumflex" unicode="&#x11c;" horiz-adv-x="1385" 
d="M786 1310q-230 0 -363 -162t-133 -422t130 -416q130 -155 356 -155q160 0 259 96v343h-203v170h403v-638q-80 -68 -223 -110t-278 -41q-302 -1 -478 205t-176 546t192 552t520 212q229 0 373 -127l-83 -165q-151 112 -296 112zM892 1585l-163 189l-178 -189h-172l298 338
h107l305 -338h-197z" />
    <glyph glyph-name="gcircumflex" unicode="&#x11d;" horiz-adv-x="1028" 
d="M496 938q-96 0 -158 -70t-63 -176q1 -106 61 -180t162 -73q102 -1 159 71t57 180t-62 178q-60 70 -156 70zM500 -252q134 0 208 44t75 111q0 130 -188 130q-32 0 -116 -16t-131 -16q-228 0 -228 172q0 53 54 96t132 62q-226 106 -226 368q0 168 117 280t282 112t254 -65
l95 114l124 -117l-114 -86q73 -95 73 -253t-101 -267q-101 -110 -265 -126l-157 -16q-28 -3 -75 -21t-47 -49q0 -41 98 -41q43 0 134 16t135 15q159 1 247 -75t88 -217t-132 -232t-336 -91q-104 0 -219 37t-185 90l103 152q167 -111 301 -111zM662 1285l-163 189l-178 -189
h-172l298 338h107l305 -338h-197z" />
    <glyph glyph-name="Gbreve" unicode="&#x11e;" horiz-adv-x="1385" 
d="M786 1310q-230 0 -363 -162t-133 -422t130 -416q130 -155 356 -155q160 0 259 96v343h-203v170h403v-638q-80 -68 -223 -110t-278 -41q-302 -1 -478 205t-176 546t192 552t520 212q229 0 373 -127l-83 -165q-151 112 -296 112zM1060 1910q0 -118 -94 -222t-246 -103
q-152 0 -238 94q-85 94 -85 231h141q-3 -61 51 -116t133 -55q79 -1 137 51t58 120h143z" />
    <glyph glyph-name="gbreve" unicode="&#x11f;" horiz-adv-x="1028" 
d="M496 938q-96 0 -158 -70t-63 -176q1 -106 61 -180t162 -73q102 -1 159 71t57 180t-62 178q-60 70 -156 70zM500 -252q134 0 208 44t75 111q0 130 -188 130q-32 0 -116 -16t-131 -16q-228 0 -228 172q0 53 54 96t132 62q-226 106 -226 368q0 168 117 280t282 112t254 -65
l95 114l124 -117l-114 -86q73 -95 73 -253t-101 -267q-101 -110 -265 -126l-157 -16q-28 -3 -75 -21t-47 -49q0 -41 98 -41q43 0 134 16t135 15q159 1 247 -75t88 -217t-132 -232t-336 -91q-104 0 -219 37t-185 90l103 152q167 -111 301 -111zM810 1610q0 -118 -94 -222
t-246 -103q-152 0 -238 94q-85 94 -85 231h141q-3 -61 51 -116t133 -55q79 -1 137 51t58 120h143z" />
    <glyph glyph-name="Gdot" unicode="&#x120;" horiz-adv-x="1385" 
d="M786 1310q-230 0 -363 -162t-133 -422t130 -416q130 -155 356 -155q160 0 259 96v343h-203v170h403v-638q-80 -68 -223 -110t-278 -41q-302 -1 -478 205t-176 546t192 552t520 212q229 0 373 -127l-83 -165q-151 112 -296 112zM745 1820q49 0 83 -34t35 -84
q-1 -48 -35 -82t-82 -35q-48 1 -84 35q-34 34 -34 83t34 83t83 34z" />
    <glyph glyph-name="gdot" unicode="&#x121;" horiz-adv-x="1028" 
d="M496 938q-96 0 -158 -70t-63 -176q1 -106 61 -180t162 -73q102 -1 159 71t57 180t-62 178q-60 70 -156 70zM500 -252q134 0 208 44t75 111q0 130 -188 130q-32 0 -116 -16t-131 -16q-228 0 -228 172q0 53 54 96t132 62q-226 106 -226 368q0 168 117 280t282 112t254 -65
l95 114l124 -117l-114 -86q73 -95 73 -253t-101 -267q-101 -110 -265 -126l-157 -16q-28 -3 -75 -21t-47 -49q0 -41 98 -41q43 0 134 16t135 15q159 1 247 -75t88 -217t-132 -232t-336 -91q-104 0 -219 37t-185 90l103 152q167 -111 301 -111zM486 1520q50 0 84 -34t34 -84
q0 -48 -34 -82t-84 -35q-48 1 -82 35t-35 83q0 49 34 83t83 34z" />
    <glyph glyph-name="Gcedilla" unicode="&#x122;" horiz-adv-x="1385" 
d="M786 1310q-230 0 -363 -162t-133 -422t130 -416q130 -155 356 -155q160 0 259 96v343h-203v170h403v-638q-80 -68 -223 -110t-278 -41q-302 -1 -478 205t-176 546t192 552t520 212q229 0 373 -127l-83 -165q-151 112 -296 112zM765 -254q0 74 -90 74v119q99 0 154 -56
q55 -55 55 -143t-73 -142t-204 -53l-24 99q78 0 130 27t52 75z" />
    <glyph glyph-name="gcedilla" unicode="&#x123;" horiz-adv-x="1028" 
d="M496 938q-96 0 -158 -70t-63 -176q1 -106 61 -180t162 -73q102 -1 159 71t57 180t-62 178q-60 70 -156 70zM500 -252q134 0 208 44t75 111q0 130 -188 130q-32 0 -116 -16t-131 -16q-228 0 -228 172q0 53 54 96t132 62q-226 106 -226 368q0 168 117 280t282 112t254 -65
l95 114l124 -117l-114 -86q73 -95 73 -253t-101 -267q-101 -110 -265 -126l-157 -16q-28 -3 -75 -21t-47 -49q0 -41 98 -41q43 0 134 16t135 15q159 1 247 -75t88 -217t-132 -232t-336 -91q-104 0 -219 37t-185 90l103 152q167 -111 301 -111zM508 1539q0 -41 42 -75t42 -81
q0 -98 -107 -98q-107 1 -107 157t154 276l54 -57q-62 -61 -70 -83t-8 -39z" />
    <glyph glyph-name="Hcircumflex" unicode="&#x124;" horiz-adv-x="1340" 
d="M990 0v708h-640v-708h-200v1465h200v-587h640v587h200v-1465h-200zM828 1585l-163 189l-178 -189h-172l298 338h107l305 -338h-197z" />
    <glyph glyph-name="hcircumflex" unicode="&#x125;" horiz-adv-x="1119" 
d="M795 0v673q0 120 -59 189t-166 69q-68 -1 -138 -41t-107 -94v-796h-190v1510h190v-557q39 59 123 99t174 39q170 0 266 -112t97 -306v-673h-190zM718 1585l-163 189l-178 -189h-172l298 338h107l305 -338h-197z" />
    <glyph glyph-name="Hbar" unicode="&#x126;" horiz-adv-x="1395" 
d="M1022 866v235h-651v-235h651zM1373 1101h-152v-1101h-199v696h-651v-696h-199v1101h-152v139h152v225h199v-225h651v225h199v-225h152v-139z" />
    <glyph glyph-name="hbar" unicode="&#x127;" horiz-adv-x="1122" 
d="M993 0h-192v623q0 251 -221 251q-70 0 -136 -38t-110 -101v-735h-193v1190h-145v139h145v181h193v-181h373v-139h-373v-293q50 65 128 102t169 37q170 0 266 -110t96 -303v-623z" />
    <glyph glyph-name="Itilde" unicode="&#x128;" horiz-adv-x="570" 
d="M185 0v1465h200v-1465h-200zM411 1585q-63 1 -139 39t-106 38q-71 0 -108 -77h-91q15 83 65 145t126 62t144 -38q70 -38 105 -39q81 0 108 77h88q-53 -207 -192 -207z" />
    <glyph glyph-name="itilde" unicode="&#x129;" horiz-adv-x="584" 
d="M227 0v911h-147v160h340v-1071h-193zM418 1285q-62 1 -138 39t-107 38q-71 0 -108 -77h-91q14 83 64 145t126 62t146 -38t104 -39q81 0 108 77h88q-53 -207 -192 -207z" />
    <glyph glyph-name="Imacron" unicode="&#x12a;" horiz-adv-x="570" 
d="M185 0v1465h200v-1465h-200zM654 1726v-141h-738v141h738z" />
    <glyph glyph-name="imacron" unicode="&#x12b;" horiz-adv-x="584" 
d="M227 0v911h-147v160h340v-1071h-193zM661 1426v-141h-738v141h738z" />
    <glyph glyph-name="Ibreve" unicode="&#x12c;" horiz-adv-x="570" 
d="M185 0v1465h200v-1465h-200zM617 1910q0 -118 -94 -222q-95 -104 -247 -103q-152 0 -237 94t-85 231h141q-3 -61 51 -116t133 -55q79 -1 137 51t58 120h143z" />
    <glyph glyph-name="ibreve" unicode="&#x12d;" horiz-adv-x="584" 
d="M227 0v911h-147v160h340v-1071h-193zM626 1610q0 -118 -94 -222t-246 -103q-152 0 -238 94q-85 94 -85 231h141q-3 -61 51 -116t133 -55q79 -1 137 51t58 120h143z" />
    <glyph glyph-name="Iogonek" unicode="&#x12e;" horiz-adv-x="570" 
d="M378 -373q-98 -1 -176 67t-79 172q0 104 62 182v1417h200v-1465q-55 -26 -76 -52t-21 -81q0 -94 111 -94q54 0 107 31l67 -142q-97 -35 -195 -35z" />
    <glyph glyph-name="iogonek" unicode="&#x12f;" horiz-adv-x="584" 
d="M410 -373q-98 -1 -176 67t-79 176q0 108 72 189v852h-147v160h337v-1071q-55 -26 -76 -52t-22 -81q1 -94 111 -94q55 0 107 31l67 -142q-96 -35 -194 -35zM449 1358q0 -49 -36 -83t-82 -34t-82 34t-36 83t35 84t83 35t83 -35t35 -84z" />
    <glyph glyph-name="Idotaccent" unicode="&#x130;" horiz-adv-x="570" 
d="M185 0v1465h200v-1465h-200zM283 1820q49 0 83 -34t35 -84q-1 -48 -35 -82t-82 -35q-48 1 -84 35q-34 34 -34 83t34 83t83 34z" />
    <glyph glyph-name="dotlessi" unicode="&#x131;" horiz-adv-x="584" 
d="M227 0v911h-147v160h340v-1071h-193z" />
    <glyph glyph-name="IJ" unicode="&#x132;" horiz-adv-x="1489" 
d="M185 0v1465h200v-1465h-200zM896 160q134 0 188 58t55 321v926h200v-918q0 -299 -97 -433t-345 -134q-143 0 -235 85t-100 228h175q25 -133 159 -133z" />
    <glyph glyph-name="ij" unicode="&#x133;" horiz-adv-x="1233" 
d="M227 0v911h-147v160h337v-1071h-190zM331 1476q49 0 83 -34t35 -84q-1 -48 -35 -82t-82 -35q-48 1 -84 35q-34 34 -34 83t34 83t83 34zM500 -420v170q196 0 268 60t73 195v906h-213v160h403v-1062q0 -221 -130 -325t-401 -104zM910 1476q50 0 84 -34t34 -84
q0 -48 -34 -82t-84 -35q-49 1 -83 35t-34 83t34 83t83 34z" />
    <glyph glyph-name="Jcircumflex" unicode="&#x134;" horiz-adv-x="976" 
d="M382 160q134 0 190 58q54 58 54 321v926h200v-918q0 -299 -97 -433t-345 -134q-142 0 -234 85t-101 228h175q24 -133 158 -133zM789 1585l-163 189l-178 -189h-172l298 338h107l305 -338h-197z" />
    <glyph glyph-name="jcircumflex" unicode="&#x135;" horiz-adv-x="751" 
d="M18 -420v170q196 0 268 60t73 195v906h-213v160h403v-1062q0 -221 -130 -325t-401 -104zM534 1285l-163 189l-178 -189h-172l298 338h107l305 -338h-197z" />
    <glyph glyph-name="Kcedilla" unicode="&#x136;" horiz-adv-x="1179" 
d="M350 0h-200v1465h200v-797l544 797h223l-438 -635l500 -830h-221l-413 674l-195 -277v-397zM617 -254q0 74 -90 74v119q99 0 154 -56q55 -55 55 -143t-73 -142t-204 -53l-24 99q78 0 130 27t52 75z" />
    <glyph glyph-name="kcedilla" unicode="&#x137;" horiz-adv-x="1033" 
d="M325 0h-190v1510h190v-937l410 498h222l-343 -407l419 -664h-206l-336 536l-166 -171v-365zM562 -254q0 74 -90 74v119q99 0 154 -56q55 -55 55 -143t-73 -142t-204 -53l-24 99q78 0 130 27t52 75z" />
    <glyph glyph-name="kgreenlandic" unicode="&#x138;" horiz-adv-x="1116" 
d="M336 0h-191v1071h191v-530l442 530h242l-399 -450l454 -621h-248l-331 485l-160 -178v-307z" />
    <glyph glyph-name="Lacute" unicode="&#x139;" horiz-adv-x="1037" 
d="M150 0v1465h200v-1285h662v-180h-862zM604 1918l-226 -333h-140l169 333h197z" />
    <glyph glyph-name="lacute" unicode="&#x13a;" horiz-adv-x="604" 
d="M150 303v1207h190v-1175q0 -85 50 -135t129 -50v-170q-369 0 -369 323zM544 1918l-226 -333h-140l169 333h197z" />
    <glyph glyph-name="Lcedilla" unicode="&#x13b;" horiz-adv-x="1037" 
d="M150 0v1465h200v-1285h662v-180h-862zM581 -254q0 74 -90 74v119q99 0 154 -56q55 -55 55 -143t-73 -142t-204 -53l-24 99q78 0 130 27t52 75z" />
    <glyph glyph-name="lcedilla" unicode="&#x13c;" horiz-adv-x="604" 
d="M150 303v1207h190v-1175q0 -85 50 -135t129 -50v-170q-369 0 -369 323zM400 -254q0 74 -90 74v119q99 0 154 -56q55 -55 55 -143t-73 -142t-204 -53l-24 99q78 0 130 27t52 75z" />
    <glyph glyph-name="Lcaron" unicode="&#x13d;" horiz-adv-x="1037" 
d="M150 0v1465h200v-1285h662v-180h-862zM630 1258q0 28 -34 60q-34 34 -35 70q0 103 102 103q108 0 108 -124q0 -188 -185 -303l-47 63q71 59 81 81t10 50z" />
    <glyph glyph-name="lcaron" unicode="&#x13e;" horiz-adv-x="604" 
d="M150 303v1207h190v-1175q0 -85 50 -135t129 -50v-170q-369 0 -369 323zM570 1276q0 28 -34 62t-35 69q0 103 102 103q108 0 108 -124q0 -188 -185 -303l-47 63q71 58 81 80t10 50z" />
    <glyph glyph-name="Ldot" unicode="&#x13f;" horiz-adv-x="1037" 
d="M150 0v1465h200v-1285h662v-180h-862zM695 850q49 0 83 -34t35 -84q-1 -48 -35 -82t-82 -35q-48 1 -84 35q-34 34 -34 83t34 83t83 34z" />
    <glyph glyph-name="ldot" unicode="&#x140;" horiz-adv-x="675" 
d="M150 303v1207h190v-1175q0 -85 50 -135t129 -50v-170q-369 0 -369 323zM635 890q49 0 83 -34t35 -84q-1 -48 -35 -82t-82 -35q-48 1 -84 35q-34 34 -34 83t34 83t83 34z" />
    <glyph glyph-name="Lslash" unicode="&#x141;" horiz-adv-x="1037" 
d="M350 180h662v-180h-862v679l-152 -106v144l152 102v646h200v-511l135 91v-131l-135 -95v-639z" />
    <glyph glyph-name="lslash" unicode="&#x142;" horiz-adv-x="610" 
d="M156 303v382l-107 -74v144l107 72v683h190v-555q24 16 139 90v-131l-139 -97v-482q0 -86 49.5 -135.5t129.5 -49.5v-170q-369 0 -369 323z" />
    <glyph glyph-name="Nacute" unicode="&#x143;" horiz-adv-x="1307" 
d="M340 0h-190v1465h80l737 -1013v1013h190v-1485h-60l-757 1071v-1051zM864 1918l-226 -333h-140l169 333h197z" />
    <glyph glyph-name="nacute" unicode="&#x144;" horiz-adv-x="1119" 
d="M794 0v623q0 171 -52 239t-172 69q-65 0 -136 -39t-109 -96v-796h-190v1071h130l60 -138q94 158 307 158q352 0 352 -428v-663h-190zM794 1618l-226 -333h-140l169 333h197z" />
    <glyph glyph-name="Ncedilla" unicode="&#x145;" horiz-adv-x="1307" 
d="M340 0h-190v1465h80l737 -1013v1013h190v-1485h-60l-757 1071v-1051zM653 -254q0 74 -90 74v119q99 0 154 -56q55 -55 55 -143t-73 -142t-204 -53l-24 99q78 0 130 27t52 75z" />
    <glyph glyph-name="ncedilla" unicode="&#x146;" horiz-adv-x="1119" 
d="M794 0v623q0 171 -52 239t-172 69q-65 0 -136 -39t-109 -96v-796h-190v1071h130l60 -138q94 158 307 158q352 0 352 -428v-663h-190zM560 -254q0 74 -90 74v119q99 0 154 -56q55 -55 55 -143t-73 -142t-204 -53l-24 99q78 0 130 27t52 75z" />
    <glyph glyph-name="Ncaron" unicode="&#x147;" horiz-adv-x="1307" 
d="M340 0h-190v1465h80l737 -1013v1013h190v-1485h-60l-757 1071v-1051zM959 1919l-305 -334h-107l-298 338h172l178 -192l163 188h197z" />
    <glyph glyph-name="ncaron" unicode="&#x148;" horiz-adv-x="1119" 
d="M794 0v623q0 171 -52 239t-172 69q-65 0 -136 -39t-109 -96v-796h-190v1071h130l60 -138q94 158 307 158q352 0 352 -428v-663h-190zM929 1619l-305 -334h-107l-298 338h172l178 -192l163 188h197z" />
    <glyph glyph-name="napostrophe" unicode="&#x149;" horiz-adv-x="1300" 
d="M111 1276q-1 28 -35 62t-34 69q0 103 102 103q108 0 108 -124q0 -188 -185 -303l-47 63q72 58 82 80t9 50zM975 0v623q1 171 -51 239t-173 69q-65 0 -136 -39t-109 -96v-796h-190v1071h130l60 -138q94 158 307 158q352 0 352 -428v-663h-190z" />
    <glyph glyph-name="Eng" unicode="&#x14a;" horiz-adv-x="1337" 
d="M1194 457q0 -257 -88 -367t-251 -110t-256 77l82 146q72 -51 138 -51q123 0 155 100q20 61 20 213v393q0 271 -85 362t-251 91t-308 -172v-1139h-200v1465h118l82 -134q144 160 379 160q465 0 465 -584v-450z" />
    <glyph glyph-name="eng" unicode="&#x14b;" horiz-adv-x="1119" 
d="M984 0q0 -208 -120 -314t-322 -106v170q128 0 190 60t62 190v622q0 170 -52 239.5t-174 69.5q-66 0 -136 -39t-107 -95v-797h-190v1071h130l60 -137q92 157 307 157q352 0 352 -428v-663z" />
    <glyph glyph-name="Omacron" unicode="&#x14c;" horiz-adv-x="1380" 
d="M290 750q0 -257 100 -426t292 -169t300 155t108 435q0 566 -420 566q-186 0 -283 -152t-97 -409zM80 735q0 328 160 542t430 214q306 0 468 -197q162 -198 162 -554t-163 -560t-453 -205q-290 0 -448 216q-156 216 -156 544zM1039 1726v-141h-738v141h738z" />
    <glyph glyph-name="omacron" unicode="&#x14d;" horiz-adv-x="1099" 
d="M265 538q0 -403 285 -403q132 0 208 108t76 295q0 398 -284 398q-130 0 -208 -106t-77 -292zM65 534q-1 252 133 404t358 153q224 -1 351 -147t127 -406t-130 -408q-130 -150 -356 -150t-355 151q-128 151 -128 403zM919 1426v-141h-738v141h738z" />
    <glyph glyph-name="Obreve" unicode="&#x14e;" horiz-adv-x="1380" 
d="M290 750q0 -257 100 -426t292 -169t300 155t108 435q0 566 -420 566q-186 0 -283 -152t-97 -409zM80 735q0 328 160 542t430 214q306 0 468 -197q162 -198 162 -554t-163 -560t-453 -205q-290 0 -448 216q-156 216 -156 544zM1014 1910q0 -118 -94 -222t-246 -103
q-152 0 -238 94q-85 94 -85 231h141q-3 -61 51 -116t133 -55q79 -1 137 51t58 120h143z" />
    <glyph glyph-name="obreve" unicode="&#x14f;" horiz-adv-x="1099" 
d="M265 538q0 -403 285 -403q132 0 208 108t76 295q0 398 -284 398q-130 0 -208 -106t-77 -292zM65 534q-1 252 133 404t358 153q224 -1 351 -147t127 -406t-130 -408q-130 -150 -356 -150t-355 151q-128 151 -128 403zM894 1610q0 -118 -94 -222t-246 -103q-152 0 -238 94
q-85 94 -85 231h141q-3 -61 51 -116t133 -55q79 -1 137 51t58 120h143z" />
    <glyph glyph-name="Odblacute" unicode="&#x150;" horiz-adv-x="1380" 
d="M290 750q0 -257 100 -426t292 -169t300 155t108 435q0 566 -420 566q-186 0 -283 -152t-97 -409zM80 735q0 328 160 542t430 214q306 0 468 -197q162 -198 162 -554t-163 -560t-453 -205q-290 0 -448 216q-156 216 -156 544zM1120 1868l-199 -283h-140l142 283h197z
M750 1868l-199 -283h-140l142 283h197z" />
    <glyph glyph-name="odblacute" unicode="&#x151;" horiz-adv-x="1099" 
d="M265 538q0 -403 285 -403q132 0 208 108t76 295q0 398 -284 398q-130 0 -208 -106t-77 -292zM65 534q-1 252 133 404t358 153q224 -1 351 -147t127 -406t-130 -408q-130 -150 -356 -150t-355 151q-128 151 -128 403zM990 1568l-199 -283h-140l142 283h197zM620 1568
l-199 -283h-140l142 283h197z" />
    <glyph glyph-name="OE" unicode="&#x152;" horiz-adv-x="2034" 
d="M277 750q0 -257 99.5 -426t292.5 -169t300.5 155t107.5 435q0 566 -420 566q-186 0 -283 -152t-97 -409zM1287 1285v-407h484v-170h-484v-528h664v-180h-864v138q-161 -163 -434 -163t-429.5 216t-156.5 544t159.5 542t429.5 214t431 -156v130h875v-180h-675z" />
    <glyph glyph-name="oe" unicode="&#x153;" horiz-adv-x="1893" 
d="M261 538q0 -388 285 -388q138 0 211 104.5t73 283.5q0 383 -284 383q-134 0 -209.5 -100t-75.5 -283zM1039 655h598q0 123 -84.5 199.5t-205.5 76.5t-214.5 -86t-93.5 -190zM1322 1091q231 0 362.5 -133t131.5 -345q0 -46 -15 -96h-762q0 -171 89.5 -274t247.5 -103
t264 101l80 -152q-124 -109 -384 -109t-403 193q-129 -193 -373 -193t-371.5 151t-127.5 403t133.5 404.5t351.5 152.5q271 0 396 -199q149 199 380 199z" />
    <glyph glyph-name="Racute" unicode="&#x154;" horiz-adv-x="1192" 
d="M500 799q180 0 262 58t82 194t-88 190t-278 54q-30 0 -118 -10v-476q72 -10 140 -10zM1054 1060q0 -138 -85 -248t-202 -138l425 -674h-229l-391 629q-67 0 -212 10v-639h-200v1465l366 15q528 0 528 -420zM744 1918l-226 -333h-140l169 333h197z" />
    <glyph glyph-name="racute" unicode="&#x155;" horiz-adv-x="796" 
d="M592 931q-100 0 -176 -93t-76 -224v-614h-190v1071h190v-171q104 191 309 191q51 0 147 -18l-79 -185q-62 43 -125 43zM694 1618l-226 -333h-140l169 333h197z" />
    <glyph glyph-name="Rcedilla" unicode="&#x156;" horiz-adv-x="1192" 
d="M500 799q180 0 262 58t82 194t-88 190t-278 54q-30 0 -118 -10v-476q72 -10 140 -10zM1054 1060q0 -138 -85 -248t-202 -138l425 -674h-229l-391 629q-67 0 -212 10v-639h-200v1465l366 15q528 0 528 -420zM613 -254q0 74 -90 74v119q99 0 154 -56q55 -55 55 -143
t-73 -142t-204 -53l-24 99q78 0 130 27t52 75z" />
    <glyph glyph-name="rcedilla" unicode="&#x157;" horiz-adv-x="796" 
d="M592 931q-100 0 -176 -93t-76 -224v-614h-190v1071h190v-171q104 191 309 191q51 0 147 -18l-79 -185q-62 43 -125 43zM313 -254q0 74 -90 74v119q99 0 154 -56q55 -55 55 -143t-73 -142t-204 -53l-24 99q78 0 130 27t52 75z" />
    <glyph glyph-name="Rcaron" unicode="&#x158;" horiz-adv-x="1192" 
d="M500 799q180 0 262 58t82 194t-88 190t-278 54q-30 0 -118 -10v-476q72 -10 140 -10zM1054 1060q0 -138 -85 -248t-202 -138l425 -674h-229l-391 629q-67 0 -212 10v-639h-200v1465l366 15q528 0 528 -420zM920 1919l-305 -334h-107l-298 338h172l178 -192l163 188h197z
" />
    <glyph glyph-name="rcaron" unicode="&#x159;" horiz-adv-x="796" 
d="M592 931q-100 0 -176 -93t-76 -224v-614h-190v1071h190v-171q104 191 309 191q51 0 147 -18l-79 -185q-62 43 -125 43zM809 1619l-305 -334h-107l-298 338h172l178 -192l163 188h197z" />
    <glyph glyph-name="Sacute" unicode="&#x15a;" horiz-adv-x="985" 
d="M446 155q117 0 188 64q71 65 71 151q1 86 -39 150t-199 138l-118 55q-149 70 -209 166q-60 95 -60 245t116 258t298 108q243 0 338 -79l-59 -174q-40 29 -122 56t-168 27q-87 0 -145 -58t-58 -160t80 -168q38 -31 153 -87l120 -57q151 -72 211 -170t60 -256t-132 -274
q-132 -115 -342 -115q-208 0 -346 92l73 184q55 -41 139 -69t150 -27zM760 1918l-226 -333h-140l169 333h197z" />
    <glyph glyph-name="sacute" unicode="&#x15b;" horiz-adv-x="829" 
d="M388 140q176 0 176 148q0 106 -170 182q-130 60 -176 91q-146 99 -146 241q0 141 96 215t232 74t314 -74l-54 -176q-113 90 -227 90q-69 0 -115 -32t-46 -81q0 -103 117 -156l136 -62q125 -57 182 -130t57 -183q0 -143 -101 -225t-275 -82t-323 84l67 180
q159 -104 256 -104zM654 1618l-226 -333h-140l169 333h197z" />
    <glyph glyph-name="Scircumflex" unicode="&#x15c;" horiz-adv-x="985" 
d="M446 155q117 0 188 64q71 65 71 151q1 86 -39 150t-199 138l-118 55q-149 70 -209 166q-60 95 -60 245t116 258t298 108q243 0 338 -79l-59 -174q-40 29 -122 56t-168 27q-87 0 -145 -58t-58 -160t80 -168q38 -31 153 -87l120 -57q151 -72 211 -170t60 -256t-132 -274
q-132 -115 -342 -115q-208 0 -346 92l73 184q55 -41 139 -69t150 -27zM642 1585l-163 189l-178 -189h-172l298 338h107l305 -338h-197z" />
    <glyph glyph-name="scircumflex" unicode="&#x15d;" horiz-adv-x="829" 
d="M388 140q176 0 176 148q0 106 -170 182q-130 60 -176 91q-146 99 -146 241q0 141 96 215t232 74t314 -74l-54 -176q-113 90 -227 90q-69 0 -115 -32t-46 -81q0 -103 117 -156l136 -62q125 -57 182 -130t57 -183q0 -143 -101 -225t-275 -82t-323 84l67 180
q159 -104 256 -104zM551 1285l-163 189l-178 -189h-172l298 338h107l305 -338h-197z" />
    <glyph glyph-name="Scedilla" unicode="&#x15e;" horiz-adv-x="985" 
d="M446 155q117 0 188 64q71 65 71 151q1 86 -39 150t-199 138l-118 55q-149 70 -209 166q-60 95 -60 245t116 258t298 108q243 0 338 -79l-59 -174q-40 29 -122 56t-168 27q-87 0 -145 -58t-58 -160t80 -168q38 -31 153 -87l120 -57q151 -72 211 -170t60 -256t-132 -274
q-132 -115 -342 -115q-208 0 -346 92l73 184q55 -41 139 -69t150 -27zM463 -254q0 74 -90 74v119q99 0 154 -56q55 -55 55 -143t-73 -142t-204 -53l-24 99q78 0 130 27t52 75z" />
    <glyph glyph-name="scedilla" unicode="&#x15f;" horiz-adv-x="829" 
d="M388 140q176 0 176 148q0 106 -170 182q-130 60 -176 91q-146 99 -146 241q0 141 96 215t232 74t314 -74l-54 -176q-113 90 -227 90q-69 0 -115 -32t-46 -81q0 -103 117 -156l136 -62q125 -57 182 -130t57 -183q0 -143 -101 -225t-275 -82t-323 84l67 180
q159 -104 256 -104zM383 -254q0 74 -90 74v119q99 0 154 -56q55 -55 55 -143t-73 -142t-204 -53l-24 99q78 0 130 27t52 75z" />
    <glyph glyph-name="Scaron" unicode="&#x160;" horiz-adv-x="985" 
d="M446 155q117 0 188 64q71 65 71 151q1 86 -39 150t-199 138l-118 55q-149 70 -209 166q-60 95 -60 245t116 258t298 108q243 0 338 -79l-59 -174q-40 29 -122 56t-168 27q-87 0 -145 -58t-58 -160t80 -168q38 -31 153 -87l120 -57q151 -72 211 -170t60 -256t-132 -274
q-132 -115 -342 -115q-208 0 -346 92l73 184q55 -41 139 -69t150 -27zM859 1919l-305 -334h-107l-298 338h172l178 -192l163 188h197z" />
    <glyph glyph-name="scaron" unicode="&#x161;" horiz-adv-x="829" 
d="M388 140q176 0 176 148q0 106 -170 182q-130 60 -176 91q-146 99 -146 241q0 141 96 215t232 74t314 -74l-54 -176q-113 90 -227 90q-69 0 -115 -32t-46 -81q0 -103 117 -156l136 -62q125 -57 182 -130t57 -183q0 -143 -101 -225t-275 -82t-323 84l67 180
q159 -104 256 -104zM762 1619l-305 -334h-107l-298 338h172l178 -192l163 188h197z" />
    <glyph glyph-name="Tcedilla" unicode="&#x162;" horiz-adv-x="1189" 
d="M684 1285v-1285h-200v1285h-466v180h1153v-180h-487zM617 -254q0 74 -90 74v119q99 0 154 -56q55 -55 55 -143t-73 -142t-204 -53l-24 99q78 0 130 27t52 75z" />
    <glyph glyph-name="tcedilla" unicode="&#x163;" horiz-adv-x="812" 
d="M203 921h-124v150h124v224l190 73v-297h294v-150h-294v-532q-1 -135 45 -192t133 -57t165 37l28 -167q-118 -30 -252 -30t-222 94t-87 239v608zM430 -254q0 74 -90 74v119q99 0 154 -56q55 -55 55 -143t-73 -142t-204 -53l-24 99q78 0 130 27t52 75z" />
    <glyph glyph-name="Tcaron" unicode="&#x164;" horiz-adv-x="1189" 
d="M684 1285v-1285h-200v1285h-466v180h1153v-180h-487zM949 1919l-305 -334h-107l-298 338h172l178 -192l163 188h197z" />
    <glyph glyph-name="tcaron" unicode="&#x165;" horiz-adv-x="1016" 
d="M203 921h-124v150h124v224l190 73v-297h294v-150h-294v-532q-1 -135 45 -192t133 -57t165 37l28 -167q-118 -30 -252 -30t-222 94t-87 239v608zM853 1146q-1 28 -35 60q-34 34 -34 70q0 103 102 103q108 0 108 -124q0 -188 -185 -303l-47 63q72 59 82 81t9 50z" />
    <glyph glyph-name="Tbar" unicode="&#x166;" horiz-adv-x="1189" 
d="M1171 1285h-487v-505h317v-147h-317v-633h-200v633h-315v147h315v505h-466v180h1153v-180z" />
    <glyph glyph-name="tbar" unicode="&#x167;" horiz-adv-x="812" 
d="M514 -20q-136 0 -223.5 94t-87.5 239v207h-154v139h154v262h-154v150h154v223l190 74v-297h313v-150h-313v-262h262v-139h-262v-131q0 -136 46.5 -193t132.5 -57t163 37l29 -166q-114 -30 -250 -30z" />
    <glyph glyph-name="Utilde" unicode="&#x168;" horiz-adv-x="1328" 
d="M150 1465h200v-1003q0 -134 85 -220t229 -87q144 0 229 84t85 228v998h200v-1019q0 -222 -138 -346t-382 -125q-242 0 -375 122t-133 350v1018zM790 1585q-62 1 -138 39t-107 38q-71 0 -108 -77h-91q14 83 64 145t126 62t146 -38t104 -39q81 0 108 77h88
q-53 -207 -192 -207z" />
    <glyph glyph-name="utilde" unicode="&#x169;" horiz-adv-x="1119" 
d="M315 1071v-683q0 -248 215 -248q94 0 172 54t103 125v752h190v-1071h-190v148q-33 -64 -129 -116t-188 -52q-176 0 -270 101t-93 287v703h190zM686 1285q-62 1 -138 39t-107 38q-71 0 -108 -77h-91q14 83 64 145t126 62t146 -38t104 -39q81 0 108 77h88
q-53 -207 -192 -207z" />
    <glyph glyph-name="Umacron" unicode="&#x16a;" horiz-adv-x="1328" 
d="M150 1465h200v-1003q0 -134 85 -220t229 -87q144 0 229 84t85 228v998h200v-1019q0 -222 -138 -346t-382 -125q-242 0 -375 122t-133 350v1018zM1033 1726v-141h-738v141h738z" />
    <glyph glyph-name="umacron" unicode="&#x16b;" horiz-adv-x="1119" 
d="M315 1071v-683q0 -248 215 -248q94 0 172 54t103 125v752h190v-1071h-190v148q-33 -64 -129 -116t-188 -52q-176 0 -270 101t-93 287v703h190zM929 1426v-141h-738v141h738z" />
    <glyph glyph-name="Ubreve" unicode="&#x16c;" horiz-adv-x="1328" 
d="M150 1465h200v-1003q0 -134 85 -220t229 -87q144 0 229 84t85 228v998h200v-1019q0 -222 -138 -346t-382 -125q-242 0 -375 122t-133 350v1018zM995 1910q0 -118 -94 -222q-95 -104 -247 -103q-152 0 -237 94t-85 231h141q-3 -61 51 -116t133 -55q79 -1 137 51t58 120
h143z" />
    <glyph glyph-name="ubreve" unicode="&#x16d;" horiz-adv-x="1119" 
d="M315 1071v-683q0 -248 215 -248q94 0 172 54t103 125v752h190v-1071h-190v148q-33 -64 -129 -116t-188 -52q-176 0 -270 101t-93 287v703h190zM904 1610q0 -118 -94 -222t-246 -103q-152 0 -238 94q-85 94 -85 231h141q-3 -61 51 -116t133 -55q79 -1 137 51t58 120h143z
" />
    <glyph glyph-name="Uring" unicode="&#x16e;" horiz-adv-x="1328" 
d="M150 1465h200v-1003q0 -134 85 -220t229 -87q144 0 229 84t85 228v998h200v-1019q0 -222 -138 -346t-382 -125q-242 0 -375 122t-133 350v1018zM678 1595q42 -1 72 29t29 71q1 41 -29 70t-72 29t-72 -29t-30 -70t30 -71t72 -29zM678 1904q88 0 150 -61t61 -148
q0 -87 -62 -149q-61 -62 -149 -61q-88 -1 -150 61t-62 149t62 148t150 61z" />
    <glyph glyph-name="uring" unicode="&#x16f;" horiz-adv-x="1119" 
d="M315 1071v-683q0 -248 215 -248q94 0 172 54t103 125v752h190v-1071h-190v148q-33 -64 -129 -116t-188 -52q-176 0 -270 101t-93 287v703h190zM588 1395q42 -1 72 29t29 71q1 41 -29 70t-72 29t-72 -29t-30 -70t30 -71t72 -29zM588 1704q88 0 150 -61t61 -148
q0 -87 -62 -149q-61 -62 -149 -61q-88 -1 -150 61t-62 149t62 148t150 61z" />
    <glyph glyph-name="Udblacute" unicode="&#x170;" horiz-adv-x="1328" 
d="M150 1465h200v-1003q0 -134 85 -220t229 -87q144 0 229 84t85 228v998h200v-1019q0 -222 -138 -346t-382 -125q-242 0 -375 122t-133 350v1018zM1090 1868l-199 -283h-140l142 283h197zM720 1868l-199 -283h-140l142 283h197z" />
    <glyph glyph-name="udblacute" unicode="&#x171;" horiz-adv-x="1119" 
d="M315 1071v-683q0 -248 215 -248q94 0 172 54t103 125v752h190v-1071h-190v148q-33 -64 -129 -116t-188 -52q-176 0 -270 101t-93 287v703h190zM1000 1568l-199 -283h-140l142 283h197zM630 1568l-199 -283h-140l142 283h197z" />
    <glyph glyph-name="Uogonek" unicode="&#x172;" horiz-adv-x="1328" 
d="M1178 446q0 -223 -138 -346q-83 -74 -258 -116q-30 -8 -48 -40t-19 -77q0 -94 111 -94q54 0 107 31l67 -142q-96 -35 -194 -35q-98 -1 -178 67q-78 68 -78 181q0 55 21 105q-421 44 -421 466v1019h200v-1002q0 -138 85 -222.5t227 -84.5t229 82.5t87 228.5v998h200v-1019
z" />
    <glyph glyph-name="uogonek" unicode="&#x173;" horiz-adv-x="1119" 
d="M988 -373q-98 -1 -178 67q-78 68 -78 176t73 191v86q-30 -61 -128.5 -114t-189.5 -53q-172 0 -267 101t-95 288v702h190v-684q0 -248 215 -248q90 0 170 55t105 125v752h190v-1071q-56 -26 -77 -52t-21 -81q0 -94 111 -94q54 0 107 31l67 -142q-96 -35 -194 -35z" />
    <glyph glyph-name="Wcircumflex" unicode="&#x174;" horiz-adv-x="1745" 
d="M1276 -20h-63l-349 1010l-326 -1010h-63l-462 1485h208l294 -1023l322 1023h70l318 -1021l299 1021h208zM1035 1585l-163 189l-178 -189h-172l298 338h107l305 -338h-197z" />
    <glyph glyph-name="wcircumflex" unicode="&#x175;" horiz-adv-x="1524" 
d="M1125 -20h-50l-314 729l-313 -729h-50l-383 1094h203l229 -703l285 703h50l294 -703l246 703h187zM920 1285l-163 189l-178 -189h-172l298 338h107l305 -338h-197z" />
    <glyph glyph-name="Ycircumflex" unicode="&#x176;" horiz-adv-x="1168" 
d="M685 0h-200v656l-472 809h206l365 -640l365 640h206l-470 -809v-656zM747 1585l-163 189l-178 -189h-172l298 338h107l305 -338h-197z" />
    <glyph glyph-name="ycircumflex" unicode="&#x177;" horiz-adv-x="1010" 
d="M124 -420v170q119 0 204 56t85 139t-31 169t-80 212l-290 745h194l315 -828l283 828h194l-454 -1253q-38 -102 -156 -170t-264 -68zM668 1285l-163 189l-178 -189h-172l298 338h107l305 -338h-197z" />
    <glyph glyph-name="Ydieresis" unicode="&#x178;" horiz-adv-x="1168" 
d="M685 0h-200v656l-472 809h206l365 -640l365 640h206l-470 -809v-656zM826 1813q47 -1 80 -33t33 -79t-33 -80t-80 -33q-48 0 -80 33t-32 80t32 79t80 33zM354 1813q48 -1 80 -33t32 -79t-32 -80t-80 -33q-47 0 -80 33t-33 80t33 79t80 33z" />
    <glyph glyph-name="Zacute" unicode="&#x179;" horiz-adv-x="1127" 
d="M100 0v50l630 1235h-620v180h895v-50l-632 -1235h654v-180h-927zM703 1918l-226 -333h-140l169 333h197z" />
    <glyph glyph-name="zacute" unicode="&#x17a;" horiz-adv-x="972" 
d="M932 170v-170h-892v50l609 851h-599v170h876v-54l-588 -847h594zM673 1618l-226 -333h-140l169 333h197z" />
    <glyph glyph-name="Zdot" unicode="&#x17b;" horiz-adv-x="1127" 
d="M100 0v50l630 1235h-620v180h895v-50l-632 -1235h654v-180h-927zM494 1820q50 0 84 -34t34 -84q0 -48 -34 -82t-84 -35q-48 1 -82 35t-35 83q0 49 34 83t83 34z" />
    <glyph glyph-name="zdot" unicode="&#x17c;" horiz-adv-x="972" 
d="M932 170v-170h-892v50l609 851h-599v170h876v-54l-588 -847h594zM494 1520q50 0 84 -34t34 -84q0 -48 -34 -82t-84 -35q-48 1 -82 35t-35 83q0 49 34 83t83 34z" />
    <glyph glyph-name="Zcaron" unicode="&#x17d;" horiz-adv-x="1127" 
d="M100 0v50l630 1235h-620v180h895v-50l-632 -1235h654v-180h-927zM898 1919l-305 -334h-107l-298 338h172l178 -192l163 188h197z" />
    <glyph glyph-name="zcaron" unicode="&#x17e;" horiz-adv-x="972" 
d="M932 170v-170h-892v50l609 851h-599v170h876v-54l-588 -847h594zM828 1619l-305 -334h-107l-298 338h172l178 -192l163 188h197z" />
    <glyph glyph-name="longs" unicode="&#x17f;" horiz-adv-x="678" 
d="M537 1355q-91 1 -143 -69t-52 -257v-1029h-190v1058q0 221 100.5 336.5t267.5 115.5q82 0 178 -28l-47 -146q-57 19 -114 19z" />
    <glyph glyph-name="florin" unicode="&#x192;" horiz-adv-x="795" 
d="M684 1360q-199 0 -237 -288q34 -2 94 -2t157 10l-13 -116q-167 -24 -265 -29l-165 -1008q-24 -144 -125.5 -231t-251.5 -104q-1 -1 -3 5t-7.5 20.5t-11.5 33.5l-19 57q-13 37 -13 39q81 16 156 68t85 112l166 999q-44 0 -151 -13l30 158l147 1q88 438 439 438
q53 0 142 -30l-36 -148q-76 28 -118 28z" />
    <glyph glyph-name="Aringacute" unicode="&#x1fa;" horiz-adv-x="1208" 
d="M823 456l-207 595l-220 -595h427zM525 1495q-1 -90 101 -90q102 -1 102 89t-101 90q-43 0 -72.5 -24.5t-29.5 -64.5zM415 1492q0 142 132 188l99 198h196l-134 -198q130 -48 130 -192t-155 -186l521 -1302h-222l-107 309h-535l-112 -309h-224l562 1304q-151 46 -151 188z
" />
    <glyph glyph-name="aringacute" unicode="&#x1fb;" horiz-adv-x="1076" 
d="M596 546q-144 0 -235 -74t-91 -175q0 -167 197 -167q144 0 255 137v259q-90 20 -126 20zM391 -20q-127 0 -219 92t-92 240q0 150 142 262t364 113q60 0 136 -26q0 260 -232 260q-178 0 -274 -96l-80 159q54 44 150 76t182 31q232 0 338 -106t106 -337v-384
q0 -141 84 -188v-95q-116 0 -174 33t-82 109q-114 -143 -349 -143zM514 1245q42 -1 72 29t29 71q1 41 -29 70t-72 29t-72 -29t-30 -70t30 -71t72 -29zM514 1554q88 0 150 -61t61 -148q0 -87 -62 -149q-61 -62 -149 -61q-88 -1 -150 61t-62 149t62 148t150 61zM765 1931
l-226 -333h-140l169 333h197z" />
    <glyph glyph-name="AEacute" unicode="&#x1fc;" horiz-adv-x="1775" 
d="M828 456v829l-384 -829h384zM828 307h-448l-139 -307h-224l705 1465h981v-180h-675v-407h484v-170h-484v-528h664v-180h-864v307zM1394 1918l-226 -333h-140l169 333h197z" />
    <glyph glyph-name="aeacute" unicode="&#x1fd;" horiz-adv-x="1788" 
d="M597 546q-143 0 -235 -80t-92 -169q0 -167 198 -167q145 0 256 137v259q-60 20 -127 20zM934 655h598q0 123 -84 199t-216 77q-130 0 -214 -90t-84 -186zM934 517q0 -169 89 -273t251 -104t261 109l80 -152q-78 -69 -169 -93q-92 -24 -242 -24t-278 95q5 -50 11 -95h-161
q-11 47 -35 143q-114 -143 -339 -143q-134 0 -228 88t-94 213q0 182 142 292t370 110q56 0 132 -22q0 260 -233 260q-178 0 -274 -96l-80 159q53 44 149 76t183 31q293 0 389 -173q148 173 369 173t353 -133t131 -345q0 -46 -15 -96h-762zM1160 1618l-226 -333h-140l169 333
h197z" />
    <glyph glyph-name="Oslashacute" unicode="&#x1fe;" horiz-adv-x="1345" 
d="M657 155q206 0 313 156t107 434q0 205 -58 338l-562 -856q84 -72 200 -72zM657 1311q-186 0 -283 -152q-97 -151 -97 -391t77 -401l559 862q-99 82 -256 82zM67 732q-1 332 159 545q160 214 431 214q214 0 361 -100l67 100h202l-144 -220q144 -195 144 -541t-163 -550
t-467 -205q-176 0 -307 91l-67 -91h-216l160 211q-160 214 -160 546zM876 1918l-226 -333h-140l169 333h197z" />
    <glyph glyph-name="oslashacute" unicode="&#x1ff;" horiz-adv-x="1117" 
d="M546 135q134 1 214 109t80 274t-43 257l-424 -576q69 -64 173 -64zM546 926q-134 0 -214 -103t-81 -268q0 -165 44 -258l424 575q-75 54 -173 54zM61 538q-1 248 133 400t352 153q165 0 278 -76l56 76h150l-117 -159q117 -146 117 -400t-130 -402q-130 -150 -354 -150
q-162 0 -276 78l-58 -78h-151l119 162q-119 148 -119 396zM770 1618l-226 -333h-140l169 333h197z" />
    <glyph glyph-name="Scommaaccent" unicode="&#x218;" horiz-adv-x="985" 
d="M446 155q117 0 188 64q71 65 71 151q1 86 -39 150t-199 138l-118 55q-149 70 -209 166q-60 95 -60 245t116 258t298 108q243 0 338 -79l-59 -174q-40 29 -122 56t-168 27q-87 0 -145 -58t-58 -160t80 -168q38 -31 153 -87l120 -57q151 -72 211 -170t60 -256t-132 -274
q-132 -115 -342 -115q-208 0 -346 92l73 184q55 -41 139 -69t150 -27zM448 -344q0 28 -34 62t-35 69q0 103 102 103q108 0 108 -124q0 -188 -185 -303l-47 63q71 58 81 80t10 50z" />
    <glyph glyph-name="scommaaccent" unicode="&#x219;" horiz-adv-x="829" 
d="M388 140q176 0 176 148q0 106 -170 182q-130 60 -176 91q-146 99 -146 241q0 141 96 215t232 74t314 -74l-54 -176q-113 90 -227 90q-69 0 -115 -32t-46 -81q0 -103 117 -156l136 -62q125 -57 182 -130t57 -183q0 -143 -101 -225t-275 -82t-323 84l67 180
q159 -104 256 -104zM370 -342q0 28 -34 60q-34 34 -35 70q0 103 102 103q108 0 108 -124q0 -188 -185 -303l-47 63q71 59 81 81t10 50z" />
    <glyph glyph-name="Tcommaaccent" unicode="&#x21a;" horiz-adv-x="1189" 
d="M684 1285v-1285h-200v1285h-466v180h1153v-180h-487zM548 -344q0 28 -34 62t-35 69q0 103 102 103q108 0 108 -124q0 -188 -185 -303l-47 63q71 58 81 80t10 50z" />
    <glyph glyph-name="tcommaaccent" unicode="&#x21b;" horiz-adv-x="812" 
d="M203 921h-124v150h124v224l190 73v-297h294v-150h-294v-532q-1 -135 45 -192t133 -57t165 37l28 -167q-118 -30 -252 -30t-222 94t-87 239v608zM430 -344q0 28 -34 62t-35 69q0 103 102 103q108 0 108 -124q0 -188 -185 -303l-47 63q71 58 81 80t10 50z" />
    <glyph glyph-name="circumflex" unicode="&#x2c6;" 
d="M682 1285l-163 189l-178 -189h-172l298 338h107l305 -338h-197z" />
    <glyph glyph-name="caron" unicode="&#x2c7;" 
d="M879 1619l-305 -334h-107l-298 338h172l178 -192l163 188h197z" />
    <glyph glyph-name="macron" unicode="&#x2c9;" 
d="M913 1426v-141h-738v141h738z" />
    <glyph glyph-name="breve" unicode="&#x2d8;" 
d="M870 1610q0 -118 -94 -221.5t-246 -103.5t-237.5 94t-85.5 231h141q-3 -61 51 -116t133 -55t137 51.5t58 119.5h143z" />
    <glyph glyph-name="dotaccent" unicode="&#x2d9;" 
d="M535 1520q49 0 83.5 -35t34.5 -83t-34.5 -82.5t-82.5 -34.5t-83 34.5t-35 83.5t34 83t83 34z" />
    <glyph glyph-name="ring" unicode="&#x2da;" 
d="M508 1395q42 0 71.5 29.5t29.5 70.5t-29.5 70t-71.5 29t-72 -29t-30 -70t30 -70.5t72 -29.5zM508 1704q88 0 149.5 -61t61.5 -148t-61.5 -148.5t-149.5 -61.5t-150 61.5t-62 148.5t62 148t150 61z" />
    <glyph glyph-name="ogonek" unicode="&#x2db;" 
d="M586 -373q-100 0 -177.5 69t-77.5 179q0 174 205 286l58 -161q-66 -32 -82 -59.5t-16 -73.5q0 -94 111 -94q54 0 107 31l67 -142q-95 -35 -195 -35z" />
    <glyph glyph-name="tilde" unicode="&#x2dc;" 
d="M648 1285q-63 0 -138.5 38.5t-106.5 38.5q-71 0 -108 -77h-91q14 84 64 145.5t126 61.5t145.5 -38.5t104.5 -38.5q81 0 108 77h88q-53 -207 -192 -207z" />
    <glyph glyph-name="hungarumlaut" unicode="&#x2dd;" 
d="M910 1568l-199 -283h-140l142 283h197zM540 1568l-199 -283h-140l142 283h197z" />
    <glyph glyph-name="questiongreek" unicode="&#x37e;" horiz-adv-x="752" 
d="M345 -51q0 44 -30 88q-86 41 -86 118q0 53 41.5 87.5t99.5 34.5t101.5 -48t43.5 -112q0 -133 -55.5 -239.5t-235.5 -240.5l-51 72q172 141 172 240zM354 1091q62 0 106 -44t44 -106t-44 -106.5t-106 -44.5t-106 44.5t-44 106.5t44 106t106 44z" />
    <glyph glyph-name="tonos" unicode="&#x384;" horiz-adv-x="1073" 
d="M731 1618l-178 -334h-158l111 334h225z" />
    <glyph glyph-name="dieresistonos" unicode="&#x385;" horiz-adv-x="1073" 
d="M358 1407h2q0 -48 -32.5 -81.5t-80.5 -33.5t-81 33t-33 81t32.5 80t80.5 32t80 -32t32 -79zM824 1518q48 0 82 -32t34 -79t-33 -81t-81 -34t-80.5 33.5t-32.5 81.5t31.5 79.5t79.5 31.5zM672 1618l-117 -354h-117l58 354h176z" />
    <glyph glyph-name="Alphatonos" unicode="&#x386;" horiz-adv-x="1208" 
d="M373 1464l-164 -350h-154l101 350h217zM616 1102l-227 -645h434zM981 0l-100 309h-545l-109 -309h-223l594 1485h53l553 -1485h-223z" />
    <glyph glyph-name="anoteleia" unicode="&#x387;" horiz-adv-x="754" 
d="M357 805q61 0 106 -45t45 -103t-42 -106.5t-106 -48.5t-108.5 44t-44.5 108t44.5 107.5t105.5 43.5z" />
    <glyph glyph-name="Epsilontonos" unicode="&#x388;" horiz-adv-x="1323" 
d="M223 1464l-164 -350h-153l100 350h217zM575 1284v-405h484v-170h-484v-529h664v-180h-864v1464h874v-180h-674z" />
    <glyph glyph-name="Etatonos" unicode="&#x389;" horiz-adv-x="1565" 
d="M223 1464l-164 -350h-153l100 350h217zM1214 0v709h-639v-709h-200v1464h200v-585h639v585h201v-1464h-201z" />
    <glyph glyph-name="Iotatonos" unicode="&#x38a;" horiz-adv-x="760" 
d="M223 1464l-164 -350h-153l100 350h217zM375 0v1464h200v-1464h-200z" />
    <glyph glyph-name="Omicrontonos" unicode="&#x38c;" horiz-adv-x="1483" 
d="M223 1464l-164 -350h-153l100 350h217zM393 756q0 -258 96.5 -429t292.5 -171t303 153.5t107 435.5q0 566 -420 566q-182 0 -280.5 -148.5t-98.5 -406.5zM182 745q0 223 119.5 484.5t470.5 261.5q308 0 469.5 -199t161.5 -552t-163 -559t-455 -206t-447.5 216t-155.5 554
z" />
    <glyph glyph-name="Upsilontonos" unicode="&#x38e;" horiz-adv-x="1462" 
d="M223 1464l-164 -350h-153l100 350h217zM1004 0h-199v655l-473 809h207l364 -639l365 639h207l-471 -809v-655z" />
    <glyph glyph-name="Omegatonos" unicode="&#x38f;" horiz-adv-x="1520" 
d="M223 1464l-164 -350h-153l100 350h217zM1448 0h-555v51q155 194 238 371.5t83 370.5q0 252 -106 389t-297 137t-297 -144.5t-106 -352.5t82.5 -387.5t238.5 -383.5v-51h-555v172q183 0 279 -10q-256 310 -256 624t168.5 513.5t451.5 199.5t445.5 -191.5t162.5 -508.5
q0 -151 -67.5 -324t-192.5 -313q96 10 283 10v-172z" />
    <glyph glyph-name="iotadieresistonos" unicode="&#x390;" horiz-adv-x="569" 
d="M-26 1518q48 0 80 -32t32 -80t-32.5 -81t-80.5 -33t-80 33t-32 81t32.5 80t80.5 32zM551 1518q48 0 81.5 -32t33.5 -79t-34 -81t-81 -34t-79 33t-32 81t31.5 80t79.5 32zM399 1618l-118 -354h-115l57 354h176zM483 -18q-331 0 -331 309v780h192v-756q0 -163 139 -174
v-159z" />
    <glyph glyph-name="Alpha" unicode="&#x391;" horiz-adv-x="1208" 
d="M616 1102l-227 -645h434zM981 0l-100 309h-545l-109 -309h-223l594 1485h53l553 -1485h-223z" />
    <glyph glyph-name="Beta" unicode="&#x392;" horiz-adv-x="1159" 
d="M508 160q182 0 271 68.5t89 221.5t-85.5 218.5t-245.5 65.5q-9 0 -187 -5v-559q112 -10 158 -10zM506 879q285 0 285 231q0 203 -263 203q-74 0 -178 -8v-420q62 -6 156 -6zM567 0h-417v1464q249 15 385 15q212 0 333 -92.5t121 -270.5q0 -99 -75.5 -184t-168.5 -107
q334 -74 334 -401q0 -194 -141 -309t-371 -115z" />
    <glyph glyph-name="Gamma" unicode="&#x393;" horiz-adv-x="1044" 
d="M1004 1284h-652v-1284h-202v1464h854v-180z" />
    <glyph glyph-name="glyph168" unicode="&#x394;" horiz-adv-x="1198" 
d="M619 1216l-376 -1046h725zM25 0v124l526 1341h144l480 -1341v-124h-1150z" />
    <glyph glyph-name="Epsilon" unicode="&#x395;" horiz-adv-x="1098" 
d="M350 1284v-405h484v-170h-484v-529h664v-180h-864v1464h874v-180h-674z" />
    <glyph glyph-name="Zeta" unicode="&#x396;" horiz-adv-x="1126" 
d="M100 0v49l629 1235h-618v180h895v-49l-633 -1235h653v-180h-926z" />
    <glyph glyph-name="Eta" unicode="&#x397;" horiz-adv-x="1339" 
d="M989 0v709h-639v-709h-200v1464h200v-585h639v585h201v-1464h-201z" />
    <glyph glyph-name="Theta" unicode="&#x398;" horiz-adv-x="1415" 
d="M997 664h-579v176h579v-176zM709 152q201 0 310 145t109 433t-110 436.5t-312 148.5t-310.5 -149.5t-108.5 -425.5t110.5 -432t311.5 -156zM702 1491q185 0 333 -85.5t224 -263.5t76 -397q0 -358 -175 -564t-461 -206t-452.5 206t-166.5 564q0 202 74 373t218.5 272
t329.5 101z" />
    <glyph glyph-name="Iota" unicode="&#x399;" horiz-adv-x="569" 
d="M184 0v1464h201v-1464h-201z" />
    <glyph glyph-name="Kappa" unicode="&#x39a;" horiz-adv-x="1180" 
d="M350 0h-200v1464h200v-796l545 796h221l-436 -635l500 -829h-222l-413 674l-195 -277v-397z" />
    <glyph glyph-name="Lambda" unicode="&#x39b;" horiz-adv-x="1200" 
d="M1192 0h-225l-359 1071l-377 -1071h-223l580 1485h53z" />
    <glyph glyph-name="Mu" unicode="&#x39c;" horiz-adv-x="1452" 
d="M1253 0l-174 940l-319 -960h-51l-328 960l-170 -940h-191l275 1464h90l348 -1069l324 1069h90l297 -1464h-191z" />
    <glyph glyph-name="Nu" unicode="&#x39d;" horiz-adv-x="1307" 
d="M340 0h-190v1464h79l738 -1011v1011h190v-1484h-59l-758 1071v-1051z" />
    <glyph glyph-name="Xi" unicode="&#x39e;" horiz-adv-x="1223" 
d="M1120 0h-1018v170h412v541h-299v159h299v426h-399v168h993v-168h-399v-426h299v-159h-299v-541h411v-170z" />
    <glyph glyph-name="Omicron" unicode="&#x39f;" horiz-adv-x="1380" 
d="M291 752q0 -262 98.5 -429t292.5 -167t301 153.5t107 435.5q0 566 -420 566q-182 0 -280.5 -148.5t-98.5 -410.5zM80 736q0 328 159.5 541.5t430.5 213.5q307 0 468.5 -199t161.5 -552t-163 -559t-455 -206t-447 216.5t-155 544.5z" />
    <glyph glyph-name="Pi" unicode="&#x3a0;" horiz-adv-x="1300" 
d="M1151 0h-201v1284h-600v-1284h-200v1464h1001v-1464z" />
    <glyph glyph-name="Rho" unicode="&#x3a1;" horiz-adv-x="1143" 
d="M856 1026q0 268 -397 268q-52 0 -109 -10v-541l133 -10q373 0 373 293zM350 0h-200v1464q189 11 274 11q639 0 639 -426q0 -494 -565 -494q-47 0 -148 8v-563z" />
    <glyph glyph-name="Sigma" unicode="&#x3a3;" horiz-adv-x="1110" 
d="M1040 1284h-616l373 -483l-441 -621h676v-180h-991v49l522 731l-483 637v47h960v-180z" />
    <glyph glyph-name="Tau" unicode="&#x3a4;" horiz-adv-x="1190" 
d="M684 1284v-1284h-201v1284h-465v180h1153v-180h-487z" />
    <glyph glyph-name="Upsilon" unicode="&#x3a5;" horiz-adv-x="1167" 
d="M709 0h-199v655l-473 809h207l364 -639l365 639h207l-471 -809v-655z" />
    <glyph glyph-name="Phi" unicode="&#x3a6;" horiz-adv-x="1561" 
d="M274 746q0 -208 107 -337.5t301 -138.5v947q-196 -9 -302 -136t-106 -335zM1284 745q0 208 -106.5 335.5t-300.5 136.5v-947q195 9 301 138t106 337zM1485 752q0 -264 -163 -444.5t-443 -192.5v-152h-199v152q-275 13 -440.5 187t-165.5 438t162.5 442t443.5 190v152h199
v-152q275 -13 440.5 -184.5t165.5 -435.5z" />
    <glyph glyph-name="Chi" unicode="&#x3a7;" horiz-adv-x="1141" 
d="M915 0l-364 588l-336 -588h-203l432 760l-397 706l199 -2l311 -553l346 553h201l-455 -708l477 -756h-211z" />
    <glyph glyph-name="Psi" unicode="&#x3a8;" horiz-adv-x="1583" 
d="M1464 907q0 -234 -152 -382t-419 -173v-356h-199v354q-271 19 -423 163t-152 378v573h198v-555q0 -163 99 -271.5t280 -123.5v950h195v-950q180 16 277.5 123.5t97.5 263.5v563h198v-557z" />
    <glyph glyph-name="Omega" unicode="&#x3a9;" horiz-adv-x="1370" 
d="M1295 0h-500v152q161 148 225 286t65 307q0 566 -415 566q-187 0 -286 -153t-99 -413q1 -154 87 -337t203 -258v-150h-500v150h269q-269 209 -269 595q-1 317 161 531t434 215q304 0 464 -196t161 -550q0 -183 -76 -343t-213 -252h289v-150z" />
    <glyph glyph-name="Iotadieresis" unicode="&#x3aa;" horiz-adv-x="569" 
d="M50 1819q48 0 80 -32.5t32 -80.5t-32 -80.5t-80 -32.5t-80.5 33t-32.5 80t32.5 80t80.5 33zM522 1819q48 0 81.5 -32.5t33.5 -80.5t-33.5 -80.5t-81.5 -32.5t-79 32.5t-31 80.5t31 80.5t79 32.5zM184 0v1464h201v-1464h-201z" />
    <glyph glyph-name="Upsilondieresis" unicode="&#x3ab;" horiz-adv-x="1167" 
d="M370 1819q48 0 81.5 -33t33.5 -80t-33.5 -80t-81.5 -33t-80 32.5t-32 80.5t32 80.5t80 32.5zM846 1819q48 0 80 -32.5t32 -80.5t-32 -80.5t-80 -32.5t-80.5 33t-32.5 80t32.5 80t80.5 33zM709 0h-199v655l-473 809h207l364 -639l365 639h207l-471 -809v-655z" />
    <glyph glyph-name="alphatonos" unicode="&#x3ac;" horiz-adv-x="1192" 
d="M825 1618l-178 -334h-158l111 334h225zM610 932q-156 0 -242.5 -108t-86.5 -294t87.5 -287.5t219.5 -101.5t229 129v572q-94 90 -207 90zM1112 -18q-134 0 -192 32t-84 113q-108 -147 -308 -147t-324 146.5t-124 398.5t136 409.5t362 157.5q149 0 268 -111q36 63 91.5 87
t162.5 24v-109q-52 -20 -72 -55t-20 -109v-540q0 -89 25 -128.5t79 -54.5v-114z" />
    <glyph glyph-name="epsilontonos" unicode="&#x3ad;" horiz-adv-x="956" 
d="M743 1618l-178 -334h-157l110 334h225zM504 -20q-206 0 -313 84t-107 223q0 181 231 266q-95 24 -149.5 86t-54.5 137q0 139 102.5 227.5t276.5 88.5t360 -84l-70 -154q-161 82 -291 82q-82 0 -131 -40t-49 -111t56.5 -111.5t148.5 -40.5t152 4v-154q-54 6 -158 6
t-162.5 -50.5t-58.5 -132.5t59 -126.5t168 -44.5q156 0 293 113l90 -144q-187 -124 -393 -124z" />
    <glyph glyph-name="etatonos" unicode="&#x3ae;" horiz-adv-x="1126" 
d="M834 1618l-179 -334h-157l110 334h226zM795 623q0 177 -56 243t-164 66q-69 0 -136 -43t-105 -101v-788h-191v1071h129l60 -133q114 154 294 154q356 0 357 -441v-930l-188 -47v949z" />
    <glyph glyph-name="iotatonos" unicode="&#x3af;" horiz-adv-x="569" 
d="M489 1618l-178 -334h-157l110 334h225zM483 -18q-331 0 -331 309v780h192v-756q0 -163 139 -174v-159z" />
    <glyph glyph-name="upsilondieresistonos" unicode="&#x3b0;" horiz-adv-x="1128" 
d="M264 1518q48 0 80.5 -32t32.5 -80t-32.5 -81t-80.5 -33t-80 33t-32 81t32 80t80 32zM842 1518q48 0 81 -32t33 -79t-33.5 -81t-80.5 -34t-79 33t-32 81t31.5 80t79.5 32zM690 1618l-119 -354h-114l57 354h176zM987 465q0 -259 -104.5 -371t-324.5 -112t-321.5 116
t-101.5 363v614h191v-624q0 -316 229 -316q127 0 185.5 75t58.5 236v629h188v-610z" />
    <glyph glyph-name="alpha" unicode="&#x3b1;" horiz-adv-x="1192" 
d="M610 932q-156 0 -242.5 -108t-86.5 -294t87.5 -287.5t219.5 -101.5t229 129v572q-94 90 -207 90zM1112 -18q-134 0 -192 32t-84 113q-108 -147 -308 -147t-324 146.5t-124 398.5t136 409.5t362 157.5q149 0 268 -111q36 63 91.5 87t162.5 24v-109q-52 -20 -72 -55
t-20 -109v-540q0 -89 25 -128.5t79 -54.5v-114z" />
    <glyph glyph-name="beta" unicode="&#x3b2;" horiz-adv-x="1155" 
d="M569 133q143 0 225.5 81.5t82.5 224.5t-100 233t-292 90h-155v-526q43 -47 110 -75t129 -28zM330 909h162q125 0 201.5 70.5t76.5 170.5t-55.5 157t-158.5 57t-164.5 -79.5t-61.5 -227.5v-148zM1073 440q0 -201 -129.5 -330.5t-331.5 -129.5t-307 106l-69 -104h-93v1067
q0 209 112.5 338t299.5 129t296.5 -96.5t109.5 -254.5q0 -105 -69.5 -192.5t-180.5 -124.5q176 -34 269 -141.5t93 -266.5z" />
    <glyph glyph-name="gamma" unicode="&#x3b3;" horiz-adv-x="1112" 
d="M664 -420h-195v445q-106 364 -192.5 584t-133.5 264.5t-114 44.5v161q122 0 185.5 -28.5t136.5 -134t229 -666.5l309 821h203l-428 -1030v-461z" />
    <glyph glyph-name="delta" unicode="&#x3b4;" horiz-adv-x="1133" 
d="M842 539q0 239 -135 389q-58 18 -127 18q-148 0 -228 -112t-80 -295q0 -404 285 -404q138 0 211.5 111t73.5 293zM1042 535q0 -248 -129 -401.5t-357 -153.5t-355 151t-127 408q0 150 56 276t157 196t221 70q52 0 98 -10l-307 385v53h688v-153h-399q45 -35 207.5 -233
t204.5 -322t42 -266z" />
    <glyph glyph-name="epsilon" unicode="&#x3b5;" horiz-adv-x="956" 
d="M504 -20q-206 0 -313 84t-107 223q0 181 231 266q-95 24 -149.5 86t-54.5 137q0 139 102.5 227.5t276.5 88.5t360 -84l-70 -154q-161 82 -291 82q-82 0 -131 -40t-49 -111t56.5 -111.5t147.5 -40.5t153 4v-154q-54 6 -158 6t-162.5 -50.5t-58.5 -132.5t59 -126.5
t168 -44.5q156 0 293 113l90 -144q-187 -124 -393 -124z" />
    <glyph glyph-name="zeta" unicode="&#x3b6;" horiz-adv-x="907" 
d="M283 432q0 -131 65.5 -199.5t227.5 -80.5t245.5 -84t83.5 -198t-95 -208t-239 -82q-67 0 -125 14l35 154q50 -18 106 -18t96 33t40 90t-33.5 89t-79 40t-139.5 14q-182 5 -289.5 113.5t-107.5 305.5t122.5 415.5t417.5 523.5h-397v155h692v-53q-321 -344 -473.5 -582
t-152.5 -442z" />
    <glyph glyph-name="eta" unicode="&#x3b7;" horiz-adv-x="1126" 
d="M795 623q0 177 -56 243t-164 66q-69 0 -136 -43t-105 -101v-788h-191v1071h129l60 -133q114 154 294 154q356 0 357 -441v-930l-188 -47v949z" />
    <glyph glyph-name="theta" unicode="&#x3b8;" horiz-adv-x="1114" 
d="M560 133q264 0 271 569h-548q13 -569 277 -569zM553 1362q-245 0 -268 -508h544q-5 217 -73.5 362.5t-202.5 145.5zM556 1516q222 0 346 -198t124 -570t-122 -570t-346 -198t-347 196t-123 567t123 572t345 201z" />
    <glyph glyph-name="iota" unicode="&#x3b9;" horiz-adv-x="569" 
d="M483 -18q-331 0 -331 309v780h192v-756q0 -163 139 -174v-159z" />
    <glyph glyph-name="kappa" unicode="&#x3ba;" horiz-adv-x="1116" 
d="M336 0h-191v1071h191v-530l442 530h242l-399 -450l454 -621h-248l-331 485l-160 -178v-307z" />
    <glyph glyph-name="lambda" unicode="&#x3bb;" horiz-adv-x="1085" 
d="M293 1358q-52 0 -133 -37l-51 160q116 35 208 35q151 0 223 -82.5t119 -225.5l404 -1208h-211l-272 868l-342 -868h-211l465 1090q-40 140 -77 204t-122 64z" />
    <glyph glyph-name="mu" unicode="&#x3bc;" horiz-adv-x="1119" 
d="M325 -420h-190v1491h190v-623q0 -302 235 -302q84 0 148 44t87 105v776h190v-1071h-190v148q-34 -76 -112 -122q-79 -46 -181 -46t-177 38v-438z" />
    <glyph glyph-name="nu" unicode="&#x3bd;" horiz-adv-x="1020" 
d="M999 1071l-469 -1091h-49l-461 1091h213l281 -737l281 737h204z" />
    <glyph glyph-name="xi" unicode="&#x3be;" horiz-adv-x="942" 
d="M588 1360q-252 0 -252 -219q0 -108 87.5 -173t242.5 -65h143v-155h-174q-129 0 -239.5 -92.5t-110.5 -247.5q0 -120 64.5 -183t234.5 -73t256 -82.5t86 -198.5t-95 -208.5t-239 -82.5q-78 0 -137 14l34 154q51 -18 113 -18t101.5 33t39.5 96t-44 95.5t-112 36.5l-98 5
q-187 5 -299 108.5t-112 267.5t86 278t239 169q-124 23 -196 107.5t-72 203.5q0 177 124 281.5t303 104.5t325 -60l-62 -160q-112 64 -237 64z" />
    <glyph glyph-name="omicron" unicode="&#x3bf;" horiz-adv-x="1116" 
d="M559 135q134 0 208.5 111t74.5 293q0 397 -283 397q-133 0 -210 -108t-77 -289q0 -404 287 -404zM566 1092q224 0 350 -149t126 -409t-133 -407t-355 -147t-351 150t-129 403t134 406t358 153z" />
    <glyph glyph-name="pi" unicode="&#x3c0;" horiz-adv-x="1232" 
d="M982 0h-193v911h-337v-911h-193v911h-167v160h1048v-160h-158v-911z" />
    <glyph glyph-name="rho" unicode="&#x3c1;" horiz-adv-x="1169" 
d="M570 139q150 0 233.5 100t83.5 291t-78.5 298.5t-208.5 107.5t-203 -116.5t-73 -305.5v-297q96 -78 246 -78zM129 -420v877q0 328 128 481.5t350 153.5t351 -152t129 -402t-130 -404t-353 -154q-180 0 -285 83v-483h-190z" />
    <glyph glyph-name="sigma1" unicode="&#x3c2;" horiz-adv-x="940" 
d="M604 932q-153 0 -242.5 -109.5t-89.5 -298.5q0 -284 342 -352q165 -33 242.5 -103.5t77.5 -197.5t-94 -209t-236 -82q-69 0 -127 14l33 154q50 -18 108 -18t96 32.5t38 93.5t-39 100t-176 58q-221 29 -342 163t-121 347q0 262 148 415t392 153q170 0 295 -91l-84 -137
q-101 68 -221 68z" />
    <glyph glyph-name="sigma" unicode="&#x3c3;" horiz-adv-x="1167" 
d="M848 466q0 136 -66.5 253.5t-171.5 193.5q-162 0 -250 -103.5t-88 -283.5t78.5 -285.5t216.5 -105.5t209.5 97.5t71.5 233.5zM1122 913h-319q117 -88 181.5 -201.5t64.5 -228.5q0 -216 -131 -359.5t-356 -143.5t-356.5 145.5t-131.5 391.5t146 400t386 154h516v-158z" />
    <glyph glyph-name="tau" unicode="&#x3c4;" horiz-adv-x="905" 
d="M498 303q0 -160 110 -160q54 0 115 25l25 -160q-86 -26 -168 -26q-132 0 -202.5 75.5t-70.5 216.5v637h-270v160h825v-160h-364v-608z" />
    <glyph glyph-name="upsilon" unicode="&#x3c5;" horiz-adv-x="1128" 
d="M991 467q0 -485 -438 -485q-211 0 -313.5 119t-102.5 364v606h191v-622q0 -314 231 -314q127 0 184.5 74t57.5 235v627h190v-604z" />
    <glyph glyph-name="phi" unicode="&#x3c6;" horiz-adv-x="1446" 
d="M1176 530q0 172 -66 292t-168 120q-127 0 -127 -213v-600q169 15 265 122t96 279zM629 696q0 203 84 300.5t229 97.5q191 0 307.5 -155.5t116.5 -391.5t-143.5 -390.5t-405.5 -174.5v-402h-190v402q-267 14 -409 159.5t-142 382.5q0 179 81 329.5t232 240.5l103 -131
q-224 -158 -224 -447q0 -161 98 -266t263 -119v565z" />
    <glyph glyph-name="chi" unicode="&#x3c7;" horiz-adv-x="1042" 
d="M1022 0h-236l-274 410l-266 -410h-226l398 549l-365 522h223l240 -377l254 377h215l-377 -514z" />
    <glyph glyph-name="psi" unicode="&#x3c8;" horiz-adv-x="1475" 
d="M1341 537q0 -248 -128 -391.5t-377 -163.5v-402h-191v402q-512 35 -512 546v543h191v-547q0 -169 82 -273t241 -120v940h187v-942q159 16 240 118t81 275v549h186v-534z" />
    <glyph glyph-name="omega" unicode="&#x3c9;" horiz-adv-x="1556" 
d="M1477 485q0 -236 -106 -370.5t-303 -134.5t-290 196q-102 -196 -294 -196t-298 131.5t-106 361.5q0 378 303 627l127 -117q-114 -95 -175 -228t-61 -287t59 -243.5t165 -89.5q44 0 79.5 20t72 77.5t36.5 74.5v199q0 160 -8 268h196q-8 -97 -8 -262v-182q40 -109 89 -152
t128 -43q199 0 199 342q0 299 -238 504l134 119q299 -248 299 -615z" />
    <glyph glyph-name="iotadieresis" unicode="&#x3ca;" horiz-adv-x="569" 
d="M16 1518q48 0 79.5 -32t31.5 -80t-31.5 -81t-79.5 -33t-80 33t-32 81t32 80t80 32zM490 1518q48 0 80 -32t32 -80t-32 -81t-80 -33t-80.5 33t-32.5 81t32.5 80t80.5 32zM483 -18q-331 0 -331 309v780h192v-756q0 -163 139 -174v-159z" />
    <glyph glyph-name="upsilondieresis" unicode="&#x3cb;" horiz-adv-x="1128" 
d="M326 1518q48 0 80 -32t32 -80t-32 -81t-80 -33t-80.5 33t-32.5 81t32.5 80t80.5 32zM798 1518q48 0 80.5 -32t32.5 -80t-31.5 -81t-79.5 -33t-81 33t-33 81t32 80t80 32zM987 465q0 -259 -104.5 -371t-324.5 -112t-321.5 116t-101.5 363v614h191v-624q0 -316 229 -316
q127 0 185.5 75t58.5 236v629h188v-610z" />
    <glyph glyph-name="omicrontonos" unicode="&#x3cc;" horiz-adv-x="1116" 
d="M799 1618l-178 -334h-158l117 334h219zM559 135q134 0 208.5 111t74.5 293q0 397 -283 397q-133 0 -210 -108t-77 -289q0 -404 287 -404zM566 1092q224 0 350 -149t126 -409t-133 -407t-355 -147t-351 150t-129 403t134 406t358 153z" />
    <glyph glyph-name="upsilontonos" unicode="&#x3cd;" horiz-adv-x="1128" 
d="M809 1618l-178 -334h-162l102 334h238zM991 467q0 -485 -438 -485q-211 0 -313.5 119t-102.5 364v606h191v-622q0 -314 231 -314q127 0 184.5 74t57.5 235v627h190v-604z" />
    <glyph glyph-name="omegatonos" unicode="&#x3ce;" horiz-adv-x="1556" 
d="M1032 1618l-178 -334h-158l111 334h225zM1477 485q0 -237 -106 -371t-303 -134t-290 196q-102 -196 -294 -196t-298 131.5t-106 361.5q0 378 303 627l127 -117q-114 -95 -175 -228t-61 -287t59 -243.5t165 -89.5q45 0 80.5 19.5t71.5 78t36 74.5v199q0 160 -8 268h196
q-8 -97 -8 -262v-182q40 -109 89 -152t128 -43q199 0 199 342q0 297 -238 504l134 119q147 -122 223 -281t76 -334z" />
    <glyph glyph-name="afii10023" unicode="&#x401;" horiz-adv-x="1112" 
d="M400 1812q46 0 79 -33t33 -79t-32 -79.5t-81 -33.5t-80.5 34.5t-31.5 79.5t33.5 78t79.5 33zM801 1812q42 0 76 -31.5t34 -79.5t-32.5 -81t-80.5 -33t-80 34.5t-32 83.5t36.5 78t78.5 29zM350 1284v-405h484v-170h-484v-529h664v-180h-864v1464h874v-180h-674z" />
    <glyph glyph-name="afii10051" unicode="&#x402;" horiz-adv-x="1493" 
d="M1421 436q0 -138 -53 -238.5t-148.5 -154t-185.5 -53.5t-149 8v166q67 -8 106 -8q103 0 163 70t60 198v29q0 136 -80 209t-216 73t-256 -24v-711h-199v1288h-406v176h1078v-176h-473v-414q115 25 245 25q245 0 379.5 -116.5t134.5 -331.5v-15z" />
    <glyph glyph-name="afii10052" unicode="&#x403;" horiz-adv-x="1065" 
d="M868 1919l-225 -334h-139l168 334h196zM1004 1284h-652v-1284h-202v1464h854v-180z" />
    <glyph glyph-name="afii10053" unicode="&#x404;" horiz-adv-x="1198" 
d="M689 -25q-283 0 -446 208.5t-163 536.5t173.5 549.5t473.5 221.5q195 0 358 -80l-67 -170q-134 76 -303 76t-280 -121t-142 -340h545v-162h-555q10 -250 126.5 -397t312.5 -147t312 149l111 -152q-173 -172 -456 -172z" />
    <glyph glyph-name="afii10054" unicode="&#x405;" horiz-adv-x="993" 
d="M451 156q112 0 185 61t73 153t-36.5 144.5t-89.5 85t-157 78.5t-174 91.5t-119 128t-49 212.5q0 173 119.5 277t294.5 104q241 0 338 -80l-60 -174q-50 36 -131.5 60t-140.5 24q-98 0 -158.5 -56.5t-60.5 -142.5t34.5 -136.5t86 -81t154.5 -76.5t174.5 -92.5t122 -135
t50.5 -229.5q0 -181 -141 -288.5t-340 -107.5t-338 93l74 184q58 -43 140 -69.5t149 -26.5z" />
    <glyph glyph-name="afii10055" unicode="&#x406;" horiz-adv-x="569" 
d="M184 0v1464h201v-1464h-201z" />
    <glyph glyph-name="afii10056" unicode="&#x407;" horiz-adv-x="569" 
d="M84 1812q48 0 80.5 -32t32.5 -80t-34.5 -80.5t-78.5 -32.5t-78.5 33.5t-34.5 79.5t32.5 79t80.5 33zM482 1812q46 0 80 -31t34 -77t-31.5 -81.5t-78.5 -35.5t-81 33.5t-34 79.5t32.5 79t78.5 33zM184 0v1464h201v-1464h-201z" />
    <glyph glyph-name="afii10057" unicode="&#x408;" horiz-adv-x="961" 
d="M382 160q138 0 189.5 62.5t51.5 316.5v925h198v-917q0 -323 -104.5 -445t-335.5 -122q-142 0 -234.5 84t-101.5 229h174q25 -133 163 -133z" />
    <glyph glyph-name="afii10058" unicode="&#x409;" horiz-adv-x="1989" 
d="M1348 160q356 0 356 309q0 140 -90 213.5t-254 73.5q-74 0 -164 -11v-575q82 -10 152 -10zM1368 920q254 0 395.5 -118t141.5 -336t-143.5 -342t-372.5 -124h-388v1288h-270q-68 -377 -155 -669.5t-172.5 -421.5t-170 -169t-202.5 -40v182q80 0 139 44.5t136.5 210.5
t141 416.5t140.5 622.5h610v-555q110 11 170 11z" />
    <glyph glyph-name="afii10059" unicode="&#x40a;" horiz-adv-x="1870" 
d="M1229 160q356 0 356 309q0 138 -89 212.5t-255 74.5q-74 0 -164 -11v-575q82 -10 152 -10zM1249 920q254 0 395.5 -118t141.5 -336t-143 -342t-373 -124h-387v709h-537v-709h-196v1464h196v-585h537v585h196v-555q110 11 170 11z" />
    <glyph glyph-name="afii10060" unicode="&#x40b;" horiz-adv-x="1520" 
d="M1393 0h-203v457q0 136 -77 207t-201 71t-250 -24v-711h-199v1288h-406v176h1073v-176h-468v-414q118 25 227 25q238 0 371 -115.5t133 -328.5v-455z" />
    <glyph glyph-name="afii10061" unicode="&#x40c;" horiz-adv-x="1253" 
d="M907 1919l-225 -334h-139l168 334h196zM1087 -10q-125 0 -183 64.5t-85 221.5q-36 215 -148 313.5t-313 98.5h-8v-688h-200v1464h200v-606h19q187 0 301 86.5t140 242.5t82.5 221t176.5 65q39 0 70 -5v-172q-7 2 -43 2t-56.5 -25.5t-38.5 -113.5q-28 -141 -119 -243.5
t-229 -141.5q302 -105 367 -450q19 -100 41.5 -128t50.5 -28t49 4v-178q-15 -4 -74 -4z" />
    <glyph glyph-name="afii10062" unicode="&#x40e;" horiz-adv-x="1182" 
d="M614 1581q-292 0 -358 307l170 39q37 -205 188 -205q170 0 197 203l162 -37q-67 -307 -359 -307zM133 -14v194q242 0 383 230l-502 1054h228l397 -893q205 417 313 893h217q-129 -488 -301 -839.5t-339.5 -495t-395.5 -143.5z" />
    <glyph glyph-name="afii10145" unicode="&#x40f;" horiz-adv-x="1300" 
d="M1151 0h-408v-420h-186v420h-407v1464h200v-1286h600v1286h201v-1464z" />
    <glyph glyph-name="afii10017" unicode="&#x410;" horiz-adv-x="1217" 
d="M621 1102l-228 -645h434zM985 0l-100 309h-545l-109 -309h-223l594 1485h53l553 -1485h-223z" />
    <glyph glyph-name="afii10018" unicode="&#x411;" horiz-adv-x="1165" 
d="M518 160q352 0 352 299q0 274 -342 274q-89 0 -178 -10v-553q137 -10 168 -10zM541 895q259 0 399.5 -113.5t140.5 -327.5t-142.5 -334t-377.5 -120h-411v1464h829v-174h-629v-405q112 10 191 10z" />
    <glyph glyph-name="afii10019" unicode="&#x412;" horiz-adv-x="1163" 
d="M508 160q182 0 271 68.5t89 221.5t-85.5 218.5t-245.5 65.5q-9 0 -187 -5v-559q112 -10 158 -10zM506 879q285 0 285 231q0 203 -263 203q-74 0 -178 -8v-420q62 -6 156 -6zM567 0h-417v1464q249 15 385 15q212 0 333 -92.5t121 -270.5q0 -99 -75.5 -184t-168.5 -107
q334 -74 334 -401q0 -194 -141 -309t-371 -115z" />
    <glyph glyph-name="afii10020" unicode="&#x413;" horiz-adv-x="1065" 
d="M1004 1284h-652v-1284h-202v1464h854v-180z" />
    <glyph glyph-name="afii10021" unicode="&#x414;" horiz-adv-x="1415" 
d="M1022 168v1128h-260q-133 -703 -440 -1128h700zM1370 -420h-182v420h-977v-420h-182v588h86q259 342 347.5 646.5t162.5 649.5h589v-1296h156v-588z" />
    <glyph glyph-name="afii10022" unicode="&#x415;" horiz-adv-x="1112" 
d="M350 1284v-405h484v-170h-484v-529h664v-180h-864v1464h874v-180h-674z" />
    <glyph glyph-name="afii10024" unicode="&#x416;" horiz-adv-x="1829" 
d="M1673 -10q-122 0 -178 64.5t-82 224.5q-36 224 -130.5 318.5t-264.5 94.5v-692h-197v692q-179 0 -276.5 -95.5t-132.5 -317.5q-25 -155 -81.5 -222t-172.5 -67q-55 0 -70 4v178q23 -4 43 -4q45 0 66 43t32 113q30 176 110.5 282.5t219.5 163.5q-262 68 -315 389
q-11 66 -28.5 102.5t-59.5 36.5t-50 -2v172q33 5 68 5q119 0 176.5 -66.5t83.5 -228.5t119 -242t268 -80v608h197v-608q328 0 381 325q26 160 82 226t174 66q35 0 67 -5v-172q-8 2 -42 2t-56 -25t-39 -114q-27 -144 -110 -245.5t-209 -139.5q145 -60 226.5 -165.5
t111.5 -284.5q10 -67 29.5 -111.5t64.5 -44.5q20 0 43 4v-178q-16 -4 -68 -4z" />
    <glyph glyph-name="afii10025" unicode="&#x417;" horiz-adv-x="1075" 
d="M991 428q0 -209 -144.5 -331t-394.5 -122t-399 97l74 182q156 -107 346 -107q145 0 230 75t85 205t-96.5 206t-265.5 76q-51 0 -125 -4v167q79 -4 143 -4q141 0 224.5 66t83.5 173t-73 163.5t-207 56.5t-304 -92l-62 166q182 90 392 90t328 -98.5t118 -280.5
q0 -102 -70.5 -193t-185.5 -128q147 -39 225 -133.5t78 -229.5z" />
    <glyph glyph-name="afii10026" unicode="&#x418;" horiz-adv-x="1376" 
d="M1227 0h-201v1051l-823 -1071h-53v1484h200v-1050l824 1071h53v-1485z" />
    <glyph glyph-name="afii10027" unicode="&#x419;" horiz-adv-x="1376" 
d="M727 1581q-291 0 -358 307l170 39q37 -205 188 -205q169 0 197 203l161 -37q-67 -307 -358 -307zM1227 0h-201v1051l-823 -1071h-53v1484h200v-1050l824 1071h53v-1485z" />
    <glyph glyph-name="afii10028" unicode="&#x41a;" horiz-adv-x="1253" 
d="M1087 -10q-125 0 -183 64.5t-85 221.5q-36 215 -148 313.5t-313 98.5h-8v-688h-200v1464h200v-606h19q187 0 301 86.5t140 242.5t82.5 221t176.5 65q39 0 70 -5v-172q-7 2 -43 2t-56.5 -25.5t-38.5 -113.5q-28 -141 -119 -243.5t-229 -141.5q302 -105 367 -450
q19 -100 41.5 -128t50.5 -28t49 4v-178q-15 -4 -74 -4z" />
    <glyph glyph-name="afii10029" unicode="&#x41b;" horiz-adv-x="1376" 
d="M1227 0h-201v1288h-324q-70 -651 -175 -881t-170.5 -301t-139 -95.5t-186.5 -24.5v188q69 0 118.5 24.5t104 100t119 259.5t104.5 409.5t72 496.5h678v-1464z" />
    <glyph glyph-name="afii10030" unicode="&#x41c;" horiz-adv-x="1522" 
d="M1282 0l-176 946l-324 -966h-51l-319 966l-172 -946h-191l285 1464h88l340 -1067l338 1067h86l287 -1464h-191z" />
    <glyph glyph-name="afii10031" unicode="&#x41d;" horiz-adv-x="1339" 
d="M989 0v709h-639v-709h-200v1464h200v-585h639v585h201v-1464h-201z" />
    <glyph glyph-name="afii10032" unicode="&#x41e;" horiz-adv-x="1380" 
d="M291 752q0 -262 98.5 -429t292.5 -167t301 153.5t107 435.5q0 566 -420 566q-182 0 -280.5 -148.5t-98.5 -410.5zM80 736q0 328 159.5 541.5t430.5 213.5q307 0 468.5 -199t161.5 -552t-163 -559t-455 -206t-447 216.5t-155 544.5z" />
    <glyph glyph-name="afii10033" unicode="&#x41f;" horiz-adv-x="1300" 
d="M1151 0h-201v1284h-600v-1284h-200v1464h1001v-1464z" />
    <glyph glyph-name="afii10034" unicode="&#x420;" horiz-adv-x="1143" 
d="M856 1026q0 268 -397 268q-52 0 -109 -10v-541l133 -10q373 0 373 293zM350 0h-200v1464q189 11 274 11q639 0 639 -426q0 -494 -565 -494q-47 0 -148 8v-563z" />
    <glyph glyph-name="afii10035" unicode="&#x421;" horiz-adv-x="1206" 
d="M720 1311q-204 0 -316.5 -171.5t-112.5 -415.5t114 -406t316 -162t313 145l111 -154q-175 -172 -457 -172t-445 209t-163 536t172.5 549t458.5 222q235 0 374 -80l-67 -172q-94 72 -298 72z" />
    <glyph glyph-name="afii10036" unicode="&#x422;" horiz-adv-x="1268" 
d="M723 1284v-1284h-201v1284h-465v180h1153v-180h-487z" />
    <glyph glyph-name="afii10037" unicode="&#x423;" horiz-adv-x="1182" 
d="M133 -14v194q242 0 383 230l-502 1054h228l397 -893q205 417 313 893h217q-129 -488 -301 -839.5t-339.5 -495t-395.5 -143.5z" />
    <glyph glyph-name="afii10038" unicode="&#x424;" horiz-adv-x="1511" 
d="M268 743q0 -183 104 -303.5t287 -128.5v860q-184 -7 -287.5 -126t-103.5 -302zM1243 743q0 183 -104 302t-287 126v-860q184 8 287.5 128.5t103.5 303.5zM1438 752q0 -242 -158 -412t-426 -182v-178h-197v178q-262 12 -422.5 173t-160.5 403t157.5 410.5t425.5 180.5v170
h197v-170q263 -12 423.5 -171.5t160.5 -401.5z" />
    <glyph glyph-name="afii10039" unicode="&#x425;" horiz-adv-x="1155" 
d="M924 0l-365 588l-336 -588h-203l433 760l-398 706l199 -2l311 -553l346 553h201l-455 -708l478 -756h-211z" />
    <glyph glyph-name="afii10040" unicode="&#x426;" horiz-adv-x="1333" 
d="M1288 -420h-182v420h-956v1464h200v-1286h578v1286h200v-1286h160v-598z" />
    <glyph glyph-name="afii10041" unicode="&#x427;" horiz-adv-x="1223" 
d="M1073 0h-199v590q-142 -33 -268 -33q-231 0 -359 121.5t-128 345.5v440h203v-417q0 -160 76 -242t212 -82t264 33v708h199v-1464z" />
    <glyph glyph-name="afii10042" unicode="&#x428;" horiz-adv-x="1831" 
d="M1681 0h-1531v1464h192v-1294h477v1294h193v-1294h477v1294h192v-1464z" />
    <glyph glyph-name="afii10043" unicode="&#x429;" horiz-adv-x="1884" 
d="M1839 -420h-180v420h-1509v1464h192v-1294h477v1294h193v-1294h477v1294h192v-1294h158v-590z" />
    <glyph glyph-name="afii10044" unicode="&#x42a;" horiz-adv-x="1516" 
d="M868 160q353 0 353 309q0 140 -88 212.5t-252 72.5q-93 0 -183 -11v-573q138 -10 170 -10zM893 918q257 0 398 -117t141 -335t-144 -342t-377 -124h-413v1286h-441v178h641v-557q113 11 195 11z" />
    <glyph glyph-name="afii10045" unicode="&#x42b;" horiz-adv-x="1602" 
d="M512 158q356 0 356 311q0 139 -89 214t-255 75q-91 0 -180 -10v-580q89 -10 168 -10zM532 920q254 0 395.5 -118t141.5 -336t-143 -342t-373 -124h-403v1464h196v-555q110 11 186 11zM1452 0h-197v1464h197v-1464z" />
    <glyph glyph-name="afii10046" unicode="&#x42c;" horiz-adv-x="1180" 
d="M532 160q353 0 353 309q0 139 -87.5 212t-252.5 73q-104 0 -195 -11v-573q84 -10 182 -10zM557 918q257 0 398 -117t141 -335t-144 -342t-377 -124h-425v1464h200v-557q113 11 207 11z" />
    <glyph glyph-name="afii10047" unicode="&#x42d;" horiz-adv-x="1202" 
d="M498 1491q292 0 458 -207.5t166 -541.5t-167.5 -550.5t-467.5 -216.5q-260 0 -434 138l88 176q148 -139 339 -139t310 143.5t130 400.5h-558v162h551q-20 208 -135 334.5t-282 126.5t-306 -92l-84 168q172 98 392 98z" />
    <glyph glyph-name="afii10048" unicode="&#x42e;" horiz-adv-x="1810" 
d="M1154 150q178 0 275 153t97 437t-98 430.5t-281 146.5t-275 -156.5t-92 -426.5t98 -427t276 -157zM1143 1491q286 0 437 -202.5t151 -543.5q0 -237 -112 -503.5t-482 -266.5q-254 0 -401.5 197t-155.5 539h-236v-711h-194v1464h194v-585h244q34 283 181.5 447.5
t373.5 164.5z" />
    <glyph glyph-name="afii10049" unicode="&#x42f;" horiz-adv-x="1225" 
d="M664 1307q-173 0 -242.5 -72t-69.5 -168q0 -264 367 -268l158 -2v497q-106 13 -213 13zM1075 0h-198v635l-86 2q-183 0 -282 -86.5t-131 -268.5t-86.5 -237t-172.5 -55q-45 0 -60 4v178q21 -4 43 -4t42.5 25t37.5 112q58 298 297 387q-192 51 -262 141t-70 216
q0 194 140 313t422 119q146 0 366 -19v-1462z" />
    <glyph glyph-name="afii10065" unicode="&#x430;" horiz-adv-x="1051" 
d="M586 547q-144 0 -235 -75t-91 -175q0 -168 197 -168q141 0 256 137v260q-102 21 -127 21zM381 -20q-127 0 -219 92t-92 227q0 163 141.5 275t363.5 112q61 0 138 -24q0 260 -234 260q-175 0 -274 -97l-80 158q48 41 145.5 75t188.5 34q226 0 334 -103t108 -342v-383
q0 -141 84 -188v-94q-124 0 -179.5 37t-76.5 104q-116 -143 -348 -143z" />
    <glyph glyph-name="afii10066" unicode="&#x431;" horiz-adv-x="1128" 
d="M581 137q136 0 207.5 97.5t71.5 267.5t-71 261t-205 91t-218.5 -104t-84.5 -258t82 -254.5t218 -100.5zM614 1010q209 0 329 -133t120 -367t-131 -382t-361 -148t-361.5 170.5t-131.5 461.5q0 396 99 539t201 202t266 97l343 78l41 -176q-373 -81 -460 -104t-161.5 -73
t-117 -143.5t-60.5 -259.5q68 116 168.5 177t216.5 61z" />
    <glyph glyph-name="afii10067" unicode="&#x432;" horiz-adv-x="1057" 
d="M549 145q239 1 239 175t-260 174q-136 0 -213 -5v-337q113 -7 234 -7zM540 633q208 0 208 158q0 68 -47.5 106.5t-133.5 38.5q-165 0 -252 -8v-293q17 -2 225 -2zM979 305q0 -132 -102 -218.5t-306 -86.5h-436v1069q227 12 413 12t286 -73.5t100 -214.5q0 -71 -43 -130
t-117 -88q205 -66 205 -270z" />
    <glyph glyph-name="afii10068" unicode="&#x433;" horiz-adv-x="887" 
d="M825 911h-499v-911h-191v1071h690v-160z" />
    <glyph glyph-name="afii10069" unicode="&#x434;" horiz-adv-x="1184" 
d="M831 152v768h-292q0 -211 -60.5 -419t-171.5 -349h524zM1135 -350h-168v350h-758v-350h-168v502h82q124 145 191 354.5t67 425.5v139h633v-919h121v-502z" />
    <glyph glyph-name="afii10070" unicode="&#x435;" horiz-adv-x="1120" 
d="M578 932q-128 0 -213.5 -81.5t-94.5 -195.5h592q0 122 -78 199.5t-206 77.5zM264 516q0 -232 115.5 -304.5t222.5 -72.5q161 0 272 97l78 -154q-75 -59 -165 -80.5t-222 -21.5q-218 0 -358.5 149.5t-140.5 398.5t147.5 406.5t361.5 157.5t346 -124.5t132 -334.5
q0 -42 -17 -117h-772z" />
    <glyph glyph-name="afii10072" unicode="&#x436;" horiz-adv-x="1509" 
d="M1360 -10q-177 0 -203 186q-24 168 -96 239.5t-211 71.5v-487h-180v487q-148 0 -221.5 -68.5t-98.5 -242.5q-27 -186 -203 -186q-37 0 -65 4v166q19 -4 43 -4q51 0 61 59q53 284 267 350q-106 26 -168.5 93t-87.5 198q-11 59 -56 59q-40 0 -45 -2v164q29 4 68 4
q167 0 198 -182q26 -145 96.5 -201.5t211.5 -56.5v430h180v-430q138 0 208 60t93 196q32 184 197 184q37 0 65 -4v-164q-5 2 -47 2t-55 -61q-43 -228 -246 -289q107 -38 169.5 -118.5t90.5 -233.5q10 -57 59 -57q28 0 43 4v-166q-28 -4 -67 -4z" />
    <glyph glyph-name="afii10073" unicode="&#x437;" horiz-adv-x="930" 
d="M862 297q0 -149 -112.5 -233t-315.5 -84t-383 120l96 152q127 -117 306 -117q97 0 154 44.5t57 117.5q0 192 -240 192q-68 0 -119 -6v152q19 -2 121 -2t156.5 38.5t54.5 110.5t-49.5 113t-138.5 41q-135 0 -281 -82l-70 154q184 84 352 84t274.5 -83.5t106.5 -222.5
q0 -165 -169 -227q200 -73 200 -262z" />
    <glyph glyph-name="afii10074" unicode="&#x438;" horiz-adv-x="1171" 
d="M1036 0h-190v733l-668 -762h-43v1100h191v-733l667 762h43v-1100z" />
    <glyph glyph-name="afii10075" unicode="&#x439;" horiz-adv-x="1171" 
d="M604 1282q-292 0 -358 307l170 39q37 -205 188 -205q169 0 197 203l162 -37q-67 -307 -359 -307zM1036 0h-190v733l-668 -762h-43v1100h191v-733l667 762h43v-1100z" />
    <glyph glyph-name="afii10076" unicode="&#x43a;" horiz-adv-x="1057" 
d="M909 -10q-188 0 -215 188q-23 160 -108 234.5t-244 74.5h-16v-487h-191v1071h191v-428h26q149 0 229 61.5t103 190.5q32 186 211 186q34 0 66 -4v-164q-13 2 -50 2q-45 0 -57 -61q-45 -224 -266 -289q231 -79 284 -352q13 -57 54 -57t53 4v-166q-28 -4 -70 -4z" />
    <glyph glyph-name="afii10077" unicode="&#x43b;" horiz-adv-x="1153" 
d="M1024 0h-190v920h-287q-10 -473 -118.5 -665.5t-190.5 -229.5t-197 -37v174q179 0 253.5 277.5t74.5 531.5v100h655v-1071z" />
    <glyph glyph-name="afii10078" unicode="&#x43c;" horiz-adv-x="1397" 
d="M1155 0l-113 645l-323 -663h-51l-322 653l-110 -635h-183l205 1090h51l396 -799l391 799h49l201 -1090h-191z" />
    <glyph glyph-name="afii10079" unicode="&#x43d;" horiz-adv-x="1145" 
d="M1010 0h-191v483h-493v-483h-191v1071h191v-430h493v430h191v-1071z" />
    <glyph glyph-name="afii10080" unicode="&#x43e;" horiz-adv-x="1100" 
d="M551 135q134 0 208.5 111t74.5 293q0 397 -283 397q-134 0 -210.5 -108t-76.5 -289q0 -404 287 -404zM558 1092q224 0 350 -148t126 -408t-132 -408t-356 -148t-352 150t-128 403t134 406t358 153z" />
    <glyph glyph-name="afii10081" unicode="&#x43f;" horiz-adv-x="1118" 
d="M983 0h-190v911h-467v-911h-191v1071h848v-1071z" />
    <glyph glyph-name="afii10082" unicode="&#x440;" horiz-adv-x="1141" 
d="M514 139q354 0 354 402q0 208 -86 299.5t-268 91.5q-39 0 -99 -30t-89 -62v-625q22 -29 78 -52.5t110 -23.5zM326 -420h-191v1491h191v-88q108 109 260 109q227 0 354 -143t127 -403t-128.5 -413t-369.5 -153q-66 0 -143.5 24t-99.5 55v-479z" />
    <glyph glyph-name="afii10083" unicode="&#x441;" horiz-adv-x="1018" 
d="M604 932q-156 0 -247 -110t-91 -295t91 -286.5t261 -101.5q128 0 259 101l73 -160q-149 -100 -373 -100t-366.5 147.5t-142.5 403.5t150.5 408.5t404.5 152.5q87 0 183 -36t138 -73l-92 -133q-35 31 -105.5 56.5t-142.5 25.5z" />
    <glyph glyph-name="afii10084" unicode="&#x442;" horiz-adv-x="928" 
d="M866 911h-307v-911h-190v911h-308v160h805v-160z" />
    <glyph glyph-name="afii10085" unicode="&#x443;" horiz-adv-x="1018" 
d="M129 -414v170q117 0 203 55t86 143t-31 167l-371 956h195l313 -827l285 827h192l-452 -1253q-37 -101 -155 -169.5t-265 -68.5z" />
    <glyph glyph-name="afii10086" unicode="&#x444;" horiz-adv-x="1591" 
d="M557 940q-140 0 -216.5 -104t-76.5 -294t76.5 -300.5t239.5 -110.5q56 0 127 29v743q-85 37 -150 37zM1024 131q303 0 303 410q0 186 -81 292.5t-220 106.5q-61 0 -135 -29v-745q72 -35 133 -35zM1049 1092q226 0 346.5 -145t120.5 -411t-125 -411t-318 -145
q-92 0 -182 45v-445h-184v445q-91 -45 -183 -45q-214 0 -331 149.5t-117 400.5t123 406.5t342 155.5q79 0 166 -52v469h184v-467q82 50 158 50z" />
    <glyph glyph-name="afii10087" unicode="&#x445;" horiz-adv-x="1042" 
d="M1022 0h-236l-274 410l-266 -410h-226l398 549l-365 522h223l240 -377l254 377h215l-377 -514z" />
    <glyph glyph-name="afii10088" unicode="&#x446;" horiz-adv-x="1128" 
d="M1079 -346h-172v346h-772v1071h191v-913h438v913h190v-913h125v-504z" />
    <glyph glyph-name="afii10089" unicode="&#x447;" horiz-adv-x="1087" 
d="M952 0h-190v420q-130 -33 -292 -33t-261.5 101t-99.5 294v289h190v-285q0 -119 60.5 -181t175.5 -62t229 24v504h188v-1071z" />
    <glyph glyph-name="afii10090" unicode="&#x448;" horiz-adv-x="1552" 
d="M1417 0h-1282v1071h180v-917h371v917h180v-917h371v917h180v-1071z" />
    <glyph glyph-name="afii10091" unicode="&#x449;" horiz-adv-x="1581" 
d="M1532 -350h-168v350h-1229v1071h180v-917h367v917h178v-917h367v917h180v-917h125v-504z" />
    <glyph glyph-name="afii10092" unicode="&#x44a;" horiz-adv-x="1247" 
d="M744 150q118 0 180.5 49.5t62.5 144.5t-63 146t-179 51q-61 0 -190 -15v-370q71 -6 189 -6zM758 690q205 0 312.5 -89t107.5 -263q0 -136 -104 -237t-322 -101h-383v915h-312v156h498v-395q124 14 203 14z" />
    <glyph glyph-name="afii10093" unicode="&#x44b;" horiz-adv-x="1403" 
d="M500 147q110 0 173.5 51t63.5 148t-66.5 147t-176.5 50q-60 0 -172 -13v-376q68 -7 178 -7zM504 690q206 0 314 -89t108 -263q0 -87 -74.5 -212.5t-351.5 -125.5h-365v1071h187v-393q82 12 182 12zM1268 0h-187v1071h187v-1071z" />
    <glyph glyph-name="afii10094" unicode="&#x44c;" horiz-adv-x="1036" 
d="M524 150q252 0 252 192q0 199 -237 199q-82 0 -215 -17v-368q70 -6 200 -6zM547 690q205 0 312.5 -89t107.5 -263q0 -136 -104 -237t-322 -101h-406v1071h189v-397q137 16 223 16z" />
    <glyph glyph-name="afii10095" unicode="&#x44d;" horiz-adv-x="1018" 
d="M460 1092q217 0 353.5 -152.5t136.5 -406.5t-142 -403.5t-400 -149.5q-205 0 -345 114l93 146q118 -107 269 -107t238.5 90t96.5 258h-434v148h430q-22 149 -109 229t-225 80t-256 -88l-80 141q157 101 374 101z" />
    <glyph glyph-name="afii10096" unicode="&#x44e;" horiz-adv-x="1479" 
d="M966 129q127 0 191 110.5t64 297.5q0 405 -258 405q-126 0 -193.5 -108t-67.5 -300t68.5 -298.5t195.5 -106.5zM963 1092q209 0 327.5 -146t118.5 -402t-121.5 -410t-322.5 -154t-317.5 132t-131.5 373h-199v-485h-182v1071h182v-432h203q28 212 147.5 332.5t295.5 120.5
z" />
    <glyph glyph-name="afii10097" unicode="&#x44f;" horiz-adv-x="1073" 
d="M552 938q-104 0 -162 -51t-58 -135t75.5 -130.5t190.5 -48.5l158 -2v357q-100 10 -204 10zM938 0h-182v436h-88q-150 0 -228 -62t-104 -212q-30 -172 -199 -172q-37 0 -65 4v166q15 -4 39 -4q46 0 57 59q40 203 233 277q-121 20 -189.5 93.5t-68.5 175.5t60 183
t154.5 110t248.5 29t332 -16v-1067z" />
    <glyph glyph-name="afii10071" unicode="&#x451;" horiz-adv-x="1120" 
d="M397 1473q43 0 76 -33t33 -79t-31 -80t-81 -34t-81.5 34.5t-31.5 83.5t36.5 78.5t79.5 29.5zM791 1473q45 0 79.5 -32t34.5 -80t-32.5 -81t-80.5 -33t-80 34.5t-32 79.5t33 78.5t78 33.5zM578 932q-128 0 -213.5 -81.5t-94.5 -195.5h592q0 122 -78 199.5t-206 77.5z
M264 516q0 -232 115.5 -304.5t222.5 -72.5q161 0 272 97l78 -154q-75 -59 -165 -80.5t-222 -21.5q-218 0 -358.5 149.5t-140.5 398.5t147.5 406.5t361.5 157.5t346 -124.5t132 -334.5q0 -42 -17 -117h-772z" />
    <glyph glyph-name="afii10099" unicode="&#x452;" horiz-adv-x="1122" 
d="M993 0q0 -424 -479 -424v168q138 0 212.5 49.5t74.5 206.5v623q0 251 -221 251q-137 0 -246 -139v-735h-193v1190h-145v139h145v180h193v-180h373v-139h-373v-293q110 139 288 139t274.5 -111t96.5 -302v-623z" />
    <glyph glyph-name="afii10100" unicode="&#x453;" horiz-adv-x="887" 
d="M776 1618l-227 -334h-139l170 334h196zM825 911h-499v-911h-191v1071h690v-160z" />
    <glyph glyph-name="afii10101" unicode="&#x454;" horiz-adv-x="1018" 
d="M576 -20q-232 0 -370 152.5t-138 401.5t148 403.5t407 154.5q188 0 321 -109l-94 -133q-103 88 -242 88t-231.5 -84t-114.5 -227h430v-148h-434q12 -167 106.5 -256.5t241.5 -89.5t275 96l69 -149q-142 -100 -374 -100z" />
    <glyph glyph-name="afii10102" unicode="&#x455;" horiz-adv-x="840" 
d="M391 139q176 0 176 150q0 47 -34.5 89t-148.5 98t-211 118.5t-97 205.5q0 144 96 218t232 74t315 -74l-55 -176q-113 90 -228 90q-63 0 -111.5 -31t-48.5 -83t34 -94.5t149 -93.5t171.5 -86t97 -98t40.5 -159q0 -148 -103.5 -227.5t-272.5 -79.5t-322 83l65 181
q161 -105 256 -105z" />
    <glyph glyph-name="afii10103" unicode="&#x456;" horiz-adv-x="578" 
d="M231 0v911h-147v160h338v-1071h-191zM306 1491q56 0 95 -37.5t39 -97.5t-41 -94.5t-96 -34.5t-92 38.5t-37 92.5t38 93.5t94 39.5z" />
    <glyph glyph-name="afii10104" unicode="&#x457;" horiz-adv-x="578" 
d="M422 0h-191v911h-147v160h338v-1071zM80 1473q47 0 80 -33.5t33 -79.5t-32.5 -79.5t-81.5 -33.5t-80.5 34.5t-31.5 79.5t33 78.5t80 33.5zM478 1473q45 0 79.5 -32t34.5 -80t-33 -81t-81 -33t-79.5 34.5t-31.5 79.5t33 78.5t78 33.5z" />
    <glyph glyph-name="afii10105" unicode="&#x458;" horiz-adv-x="625" 
d="M-55 -420v170q193 0 266.5 58.5t73.5 195.5v907h-213v160h403v-1063q0 -229 -135 -328.5t-395 -99.5zM354 1491q56 0 95.5 -38t39.5 -95t-38.5 -94t-96.5 -37t-94.5 38.5t-36.5 91.5t37.5 93.5t93.5 40.5z" />
    <glyph glyph-name="afii10106" unicode="&#x459;" horiz-adv-x="1688" 
d="M1195 150q110 0 172.5 49.5t62.5 144.5t-63 146t-179 51q-60 0 -172 -13v-372q69 -6 179 -6zM1198 690q205 0 312.5 -89t107.5 -263q0 -88 -72.5 -213t-351.5 -125h-365v920h-286q-20 -479 -123 -666.5t-186.5 -226.5t-192.5 -39v174q71 0 124 40.5t100 153t75.5 284.5
t28.5 327v104h647v-393q82 12 182 12z" />
    <glyph glyph-name="afii10107" unicode="&#x45a;" horiz-adv-x="1616" 
d="M1123 150q110 0 172.5 49.5t62.5 144.5t-63 146t-179 51q-60 0 -172 -13v-372q69 -6 179 -6zM1126 690q206 0 313 -89t107 -263q0 -88 -72.5 -213t-351.5 -125h-364v483h-432v-483h-191v1071h191v-430h432v430h186v-393q82 12 182 12z" />
    <glyph glyph-name="afii10108" unicode="&#x45b;" horiz-adv-x="1122" 
d="M993 0h-192v623q0 251 -221 251q-137 0 -246 -139v-735h-193v1190h-145v139h145v180h193v-180h373v-139h-373v-293q110 139 288 139t274.5 -111t96.5 -302v-623z" />
    <glyph glyph-name="afii10109" unicode="&#x45c;" horiz-adv-x="1057" 
d="M817 1618l-227 -334h-139l170 334h196zM909 -10q-188 0 -215 188q-23 160 -108 234.5t-244 74.5h-16v-487h-191v1071h191v-428h26q149 0 229 61.5t103 190.5q32 186 211 186q34 0 66 -4v-164q-13 2 -50 2q-45 0 -57 -61q-45 -224 -266 -289q231 -79 284 -352
q13 -57 54 -57t53 4v-166q-28 -4 -70 -4z" />
    <glyph glyph-name="afii10110" unicode="&#x45e;" horiz-adv-x="1018" 
d="M532 1284q-292 0 -358 307l170 39q37 -205 188 -205q170 0 197 203l162 -37q-67 -307 -359 -307zM125 -420v170q117 0 203 55.5t86 142.5t-31 167l-371 956h195l313 -827l285 827h192l-452 -1253q-37 -101 -155 -169.5t-265 -68.5z" />
    <glyph glyph-name="afii10193" unicode="&#x45f;" horiz-adv-x="1118" 
d="M983 0h-340v-350h-168v350h-340v1071h191v-913h467v913h190v-1071z" />
    <glyph glyph-name="afii10050" unicode="&#x490;" horiz-adv-x="1065" 
d="M1004 1284h-652v-1284h-202v1464h688v318h166v-498z" />
    <glyph glyph-name="afii10098" unicode="&#x491;" horiz-adv-x="887" 
d="M825 911h-499v-911h-191v1071h533v268h157v-428z" />
    <glyph glyph-name="Wgrave" unicode="&#x1e80;" horiz-adv-x="1745" 
d="M1276 -20h-63l-349 1010l-326 -1010h-63l-462 1485h208l294 -1023l322 1023h70l318 -1021l299 1021h208zM837 1585l-226 333h197l169 -333h-140z" />
    <glyph glyph-name="wgrave" unicode="&#x1e81;" horiz-adv-x="1524" 
d="M1125 -20h-50l-314 729l-313 -729h-50l-383 1094h203l229 -703l285 703h50l294 -703l246 703h187zM732 1285l-226 333h197l169 -333h-140z" />
    <glyph glyph-name="Wacute" unicode="&#x1e82;" horiz-adv-x="1745" 
d="M1276 -20h-63l-349 1010l-326 -1010h-63l-462 1485h208l294 -1023l322 1023h70l318 -1021l299 1021h208zM1133 1918l-226 -333h-140l169 333h197z" />
    <glyph glyph-name="wacute" unicode="&#x1e83;" horiz-adv-x="1524" 
d="M1125 -20h-50l-314 729l-313 -729h-50l-383 1094h203l229 -703l285 703h50l294 -703l246 703h187zM1008 1618l-226 -333h-140l169 333h197z" />
    <glyph glyph-name="Wdieresis" unicode="&#x1e84;" horiz-adv-x="1745" 
d="M1276 -20h-63l-349 1010l-326 -1010h-63l-462 1485h208l294 -1023l322 1023h70l318 -1021l299 1021h208zM1108 1813q47 -1 80 -33t33 -79t-33 -80t-80 -33q-48 0 -80 33t-32 80t32 79t80 33zM636 1813q48 -1 80 -33t32 -79t-32 -80t-80 -33q-47 0 -80 33t-33 80t33 79
t80 33z" />
    <glyph glyph-name="wdieresis" unicode="&#x1e85;" horiz-adv-x="1524" 
d="M1125 -20h-50l-314 729l-313 -729h-50l-383 1094h203l229 -703l285 703h50l294 -703l246 703h187zM993 1513q47 -1 80 -33t33 -79t-33 -80t-80 -33t-79 33t-33 80q1 47 33 79t79 33zM521 1513q47 -1 79 -33t33 -79q-1 -47 -33 -80t-79 -33t-80 33t-33 80t33 79t80 33z
" />
    <glyph glyph-name="Ygrave" unicode="&#x1ef2;" horiz-adv-x="1168" 
d="M685 0h-200v656l-472 809h206l365 -640l365 640h206l-470 -809v-656zM575 1585l-226 333h197l169 -333h-140z" />
    <glyph glyph-name="ygrave" unicode="&#x1ef3;" horiz-adv-x="1010" 
d="M124 -420v170q119 0 204 56t85 139t-31 169t-80 212l-290 745h194l315 -828l283 828h194l-454 -1253q-38 -102 -156 -170t-264 -68zM481 1285l-226 333h197l169 -333h-140z" />
    <glyph glyph-name="endash" unicode="&#x2013;" horiz-adv-x="752" 
d="M93 532v96h521v-96h-521z" />
    <glyph glyph-name="emdash" unicode="&#x2014;" horiz-adv-x="1504" 
d="M93 532v96h1309v-96h-1309z" />
    <glyph glyph-name="afii00208" unicode="&#x2015;" horiz-adv-x="1504" 
d="M93 532v96h1309v-96h-1309z" />
    <glyph glyph-name="underscoredbl" unicode="&#x2017;" 
d="M1077 -504h-1085v129h1085v-129zM1077 -254h-1085v129h1085v-129z" />
    <glyph glyph-name="quoteleft" unicode="&#x2018;" horiz-adv-x="752" 
d="M423 1256q0 -54 49 -108.5t49 -99.5q0 -147 -145 -147q-155 0 -155 177q0 265 265 432l67 -89l-75 -64q-55 -47 -55 -101z" />
    <glyph glyph-name="quoteright" unicode="&#x2019;" horiz-adv-x="752" 
d="M531 1333q0 -265 -265 -432l-67 89l75 64q55 48 55 102t-49 108t-49 99q0 147 145 147q155 0 155 -177z" />
    <glyph glyph-name="quotesinglbase" unicode="&#x201a;" horiz-adv-x="752" 
d="M531 100q0 -265 -265 -432l-67 89l75 64q55 47 55 101t-49 108.5t-49 99.5q0 147 145 147q155 0 155 -177z" />
    <glyph glyph-name="quotereversed" unicode="&#x201b;" horiz-adv-x="752" 
d="M221 1333q0 177 155 177q145 0 145 -147q0 -45 -49 -99t-49 -108t55 -102l75 -64l-67 -89q-265 167 -265 432z" />
    <glyph glyph-name="quotedblleft" unicode="&#x201c;" 
d="M369 1256q0 -54 49 -108.5t49 -99.5q0 -147 -145 -147q-155 0 -155 177q0 265 265 432l67 -89l-75 -64q-55 -47 -55 -101zM819 1256q0 -54 49 -108.5t49 -99.5q0 -147 -145 -147q-155 0 -155 177q0 265 265 432l67 -89l-75 -64q-55 -47 -55 -101z" />
    <glyph glyph-name="quotedblright" unicode="&#x201d;" 
d="M496 1333q0 -265 -265 -432l-67 89l75 64q55 48 55 102t-49 108t-49 99q0 147 145 147q155 0 155 -177zM955 1333q0 -265 -265 -432l-67 89l75 64q55 48 55 102t-49 108t-49 99q0 147 145 147q155 0 155 -177z" />
    <glyph glyph-name="quotedblbase" unicode="&#x201e;" 
d="M496 100q0 -265 -265 -432l-67 89l75 64q55 47 55 101t-49 108.5t-49 99.5q0 147 145 147q155 0 155 -177zM955 100q0 -265 -265 -432l-67 89l75 64q55 47 55 101t-49 108.5t-49 99.5q0 147 145 147q155 0 155 -177z" />
    <glyph glyph-name="dagger" unicode="&#x2020;" horiz-adv-x="940" 
d="M395 931h-370v140h370v314h150v-314h370v-140h-370v-1181l-74 -88l-76 88v1181z" />
    <glyph glyph-name="daggerdbl" unicode="&#x2021;" horiz-adv-x="940" 
d="M915 381v-140h-370v-491l-76 -94l-74 94v491h-370v140h370v550h-370v140h370v314h150v-314h370v-140h-370v-550h370z" />
    <glyph glyph-name="bullet" unicode="&#x2022;" 
d="M542 863q120 0 204.5 -84.5t84.5 -204.5t-84.5 -204.5t-204.5 -84.5t-204.5 84.5t-84.5 204.5t84.5 204.5t204.5 84.5z" />
    <glyph glyph-name="ellipsis" unicode="&#x2026;" horiz-adv-x="1504" 
d="M1404 131q0 -62 -44 -106.5t-106 -44.5t-106 44.5t-44 106.5t44 106t106 44t106 -44t44 -106zM902 131q0 -62 -44 -106.5t-106 -44.5t-106 44.5t-44 106.5t44 106t106 44t106 -44t44 -106zM400 131q0 -62 -44 -106.5t-106 -44.5t-106 44.5t-44 106.5t44 106t106 44
t106 -44t44 -106z" />
    <glyph glyph-name="perthousand" unicode="&#x2030;" horiz-adv-x="1869" 
d="M1377 324q0 -113 39.5 -177.5t103.5 -64.5q162 0 162 242t-147 241q-73 0 -115.5 -64t-42.5 -177zM1251 338q0 147 81 238t205 91t197.5 -90t73.5 -252t-78 -253.5t-201 -91.5q-278 0 -278 358zM727 324q0 -113 39.5 -177.5t103.5 -64.5q162 0 162 242t-147 241
q-73 0 -115.5 -64t-42.5 -177zM601 338q0 147 81 238t205 91t197.5 -90t73.5 -252t-78 -253.5t-201 -91.5q-278 0 -278 358zM187 1148q0 -113 39.5 -177.5t103.5 -64.5q162 0 162 242t-147 241q-73 0 -115.5 -64t-42.5 -177zM61 1162q0 147 81 238t205 91t197.5 -90
t73.5 -252t-78 -253.5t-201 -91.5q-278 0 -278 358zM218 -20h-127l883 1511h126z" />
    <glyph glyph-name="minute" unicode="&#x2032;" horiz-adv-x="327" 
d="M189 1056h-133l116 411h184z" />
    <glyph glyph-name="second" unicode="&#x2033;" horiz-adv-x="694" 
d="M489 1056h-133l116 411h184zM189 1056h-133l116 411h184z" />
    <glyph glyph-name="guilsinglleft" unicode="&#x2039;" horiz-adv-x="752" 
d="M171 535v64l355 244v-125l-212 -157l212 -138v-125z" />
    <glyph glyph-name="guilsinglright" unicode="&#x203a;" horiz-adv-x="752" 
d="M566 535l-355 -237v125l212 138l-212 157v125l355 -244v-64z" />
    <glyph glyph-name="exclamdbl" unicode="&#x203c;" horiz-adv-x="1248" 
d="M384 281q62 0 106 -44t44 -106q0 -63 -44 -107t-106 -44t-106 44t-44 107q0 62 44 106t106 44zM265 1081v410h226v-409q0 -191 -78 -700h-71q-77 503 -77 699zM876 281q62 0 106 -44t44 -106q0 -63 -44 -107t-106 -44t-106 44t-44 107q0 62 44 106t106 44zM757 1081v410
h226v-409q0 -191 -78 -700h-71q-77 503 -77 699z" />
    <glyph glyph-name="radicalex" unicode="&#x203e;" 
d="M785 1471v-122h-791v122h791z" />
    <glyph glyph-name="fraction" unicode="&#x2044;" horiz-adv-x="1083" 
d="M131 -35h-127l973 1526h126z" />
    <glyph glyph-name="fraction" unicode="&#x2215;" horiz-adv-x="1083" 
d="M131 -35h-127l973 1526h126z" />
    <glyph glyph-name="nsuperior" unicode="&#x207f;" horiz-adv-x="801" 
d="M698 836h-135v372q0 96 -28 133t-105 37t-147 -69v-473h-136v643h95l34 -60q78 72 193 72q229 0 229 -258v-397z" />
    <glyph glyph-name="franc" unicode="&#x20a3;" horiz-adv-x="1075" 
d="M350 1285v-407h515v-170h-515v-207h149v-160h-149v-341h-200v341h-135v160h135v964h905v-180h-705z" />
    <glyph glyph-name="afii08941" unicode="&#x20a4;" 
d="M576 0h-444v139q90 30 90 129v254h-90v135h90v156h-90v135h90v56q0 210 103 348t307 139q204 0 291 -121l-95 -133q-64 86 -221 86q-184 0 -184 -311v-64h303v-135h-303v-156h303v-135h-303v-342h223q155 0 234 113l143 -111q-105 -182 -447 -182z" />
    <glyph glyph-name="peseta" unicode="&#x20a7;" horiz-adv-x="2281" 
d="M762 1026q0 271 -342 271q-49 0 -86 -8v-546q43 -10 96 -10q332 0 332 293zM2216 284q0 -156 -100 -230t-254 -74t-269 81q-85 -81 -217 -81t-210.5 91.5t-78.5 247.5v605h-138q-66 -367 -512 -367q-17 0 -78 6l-25 2v-565h-195v1465q165 11 260 11q545 0 560 -405h128
v223l189 74v-297h229v-147h-229v-543q0 -139 38 -191t111 -53q100 0 181 129q125 -129 260 -129q157 0 157 152q-1 89 -111 152t-216 124q-115 91 -115 237t92 217q92 72 210 72t290 -72l-53 -178q-110 90 -211 90q-57 -1 -96 -31t-39 -88q0 -94 110 -158t217 -124
q115 -91 115 -246z" />
    <glyph glyph-name="Euro" unicode="&#x20ac;" 
d="M330 719q0 -31 2 -63h347l-49 -141h-283q14 -133 113 -247t227 -113q89 0 187 40t157 103v-217q-141 -106 -361 -106t-363 167q-124 145 -160 373h-116v141h98q-5 68 -1 131h-97v141h115q37 234 183 398t383 164t340 -93l-89 -164q-101 77 -256 77t-246 -110t-115 -272
h459l-58 -141h-414q-3 -37 -3 -68z" />
    <glyph glyph-name="afii61248" unicode="&#x2105;" horiz-adv-x="1546" 
d="M1137 84q172 0 172 232t-172 232t-172 -232t172 -232zM1450 320q0 -159 -85 -255t-232 -96q-147 1 -228 95t-81 249t88 252t232 97t225 -91.5t81 -250.5zM1334 1497l-979 -1538h-127l979 1538h127zM412 804q-138 0 -226.5 92t-88.5 246t93.5 254.5t235.5 100.5t228 -65
l-66 -96q-69 47 -154 47t-140.5 -62.5t-55.5 -176.5t57 -170t139 -56t166 59l58 -104q-108 -69 -246 -69z" />
    <glyph glyph-name="afii61289" unicode="&#x2113;" horiz-adv-x="1073" 
d="M672 1180q0 142 -87 141q-78 0 -112 -143q-21 -90 -21 -203v-157q220 220 220 362zM638 -20q-221 0 -307 139q-69 109 -69 347l-86 -51l-59 165q85 48 145 88v144q0 286 40 425q72 254 285 254q131 0 203 -79t71 -214q0 -135 -132 -314t-277 -310v-108q0 -146 29 -214
q45 -102 170 -102q65 0 146 85l110 -153q-38 -42 -122 -72t-147 -30z" />
    <glyph glyph-name="afii61352" unicode="&#x2116;" horiz-adv-x="1872" 
d="M1487 434q138 0 138 214t-141 214t-141 -214t144 -214zM1067 -14h-66l-671 1027v-1013h-180v1480h65l672 -1027v1012h180v-1479zM1731 0h-490v131h490v-131zM1774 651q0 -151 -73 -249t-217 -97t-216 99q-74 98 -74 244t78 244t218 99q140 -1 212 -95t72 -245z" />
    <glyph glyph-name="trademark" unicode="&#x2122;" horiz-adv-x="1300" 
d="M1254 739l-83 498l-147 -503h-59l-155 510l-77 -505h-95l112 732h75l169 -567l167 567h75l113 -732h-95zM499 1381v-643h-100v643h-208v90h527v-90h-219z" />
    <glyph glyph-name="Ohm" unicode="&#x2126;" horiz-adv-x="1370" 
d="M1295 0h-500v152q161 148 225.5 285.5t64.5 307.5q0 566 -415 566q-187 0 -286 -153t-99 -413q0 -154 86.5 -337t203.5 -258v-150h-500v150h269q-269 209 -269 595q0 317 161.5 531.5t433.5 214.5q304 0 464.5 -196t160.5 -550q0 -183 -76 -342.5t-213 -252.5h289v-150z
" />
    <glyph glyph-name="estimated" unicode="&#x212e;" horiz-adv-x="1125" 
d="M250 605h630v281q-120 142 -310 142t-320 -142v-281zM1063 537h-814v-371q151 -123 309 -123q94 0 220 45t166 93l47 -53q-163 -148 -430 -148q-217 0 -358.5 149t-141.5 399t147.5 406.5t366.5 156.5t353.5 -166.5t134.5 -387.5z" />
    <glyph glyph-name="oneeighth" unicode="&#x215b;" horiz-adv-x="1668" 
d="M1400 236q0 103 -159 192q-122 -68 -122 -192q0 -144 136 -144q145 0 145 144zM1365 671q-1 104 -107 104t-106 -98q0 -41 44 -87t98 -74q71 69 71 155zM419 595h-130v675l-188 -113v113q202 99 282 208h36v-883zM1308 1491l-973 -1526h-127l973 1526h127zM1530 236
q0 -120 -73 -188t-202 -68q-266 0 -266 256q0 75 46 145t114 98q-127 67 -127 195q0 100 67 156t173 57q106 0 170 -58q63 -58 63 -155q0 -60 -36 -118t-89 -89q160 -89 160 -231z" />
    <glyph glyph-name="threeeighths" unicode="&#x215c;" horiz-adv-x="1668" 
d="M1408 236q0 103 -159 192q-122 -68 -122 -192q1 -144 141 -144t140 144zM1375 671q1 104 -107 104t-108 -98q0 -84 145 -161q70 66 70 155zM598 852q0 -266 -295 -266q-131 0 -205 71l60 104q49 -55 147 -55q163 0 163 142q0 74 -49 118t-124 44h-10v102h6q146 0 146 139
q0 120 -138 120q-84 0 -125 -47l-53 93q56 74 178 74t195 -62q73 -63 73 -145t-36 -139t-99 -80q166 -55 166 -213zM1354 1491l-973 -1526h-127l973 1526h127zM1538 246q0 -133 -72.5 -199.5t-199.5 -66.5q-269 0 -269 256q0 72 47 144t113 99q-127 68 -127 195
q0 101 68 157t174 56q106 1 170 -57t63 -156q0 -61 -36 -117.5t-89 -89.5q158 -88 158 -221z" />
    <glyph glyph-name="fiveeighths" unicode="&#x215d;" horiz-adv-x="1668" 
d="M1410 236q0 103 -159 192q-122 -68 -122 -192q0 -144 137 -144q144 0 144 144zM1375 671q-1 104 -107 104t-106 -98q0 -40 43.5 -85.5t99.5 -75.5q70 68 70 155zM633 913q0 -327 -309 -327q-127 0 -206 67l45 112q75 -59 161 -59q179 0 179 183t-177 183q-88 0 -149 -61
l-39 28v436h440v-118h-322v-198q42 33 111 33q122 0 194 -74t72 -205zM1354 1491l-973 -1526h-127l973 1526h127zM1540 236q0 -120 -73 -188t-201 -68q-267 0 -267 256q0 75 46 145t114 98q-127 67 -127 195q0 100 67.5 156.5t173.5 56.5t169 -58t63 -155q0 -60 -36 -118
t-89 -89q160 -89 160 -231z" />
    <glyph glyph-name="seveneighths" unicode="&#x215e;" horiz-adv-x="1668" 
d="M1410 236q0 103 -159 192q-122 -68 -122 -192q0 -144 137 -144q144 0 144 144zM1375 671q-1 104 -107 104t-106 -98q0 -40 43.5 -85.5t99.5 -75.5q70 68 70 155zM164 1357v118h569v-47l-117 -234q-168 -335 -245 -598h-154q74 240 350 761h-403zM1333 1491l-973 -1526
h-127l973 1526h127zM1540 236q0 -120 -73 -188t-201 -68q-267 0 -267 256q0 75 46 145t114 98q-127 67 -127 195q0 100 67.5 156.5t173.5 56.5t169 -58t63 -155q0 -60 -36 -118t-89 -89q160 -89 160 -231z" />
    <glyph glyph-name="partialdiff" unicode="&#x2202;" horiz-adv-x="1125" 
d="M245 468q0 -154 71.5 -236t206.5 -82t218 108t83 300q0 256 -106 362q-216 0 -344.5 -128.5t-128.5 -323.5zM592 1079q0 56 -167 178.5t-298 122.5l44 161q170 0 381 -143t336.5 -366.5t125.5 -476.5t-140 -414.5t-369 -161.5q-450 0 -450 489q0 261 168.5 436t368.5 175
z" />
    <glyph glyph-name="Delta" unicode="&#x2206;" horiz-adv-x="1198" 
d="M619 1216l-376 -1046h725zM25 0v124l526 1341h144l480 -1341v-124h-1150z" />
    <glyph glyph-name="product" unicode="&#x220f;" horiz-adv-x="1132" 
d="M164 -170v1455h-130v180h1050v-180h-130v-1455h-200v1455h-389l-1 -1455h-200z" />
    <glyph glyph-name="summation" unicode="&#x2211;" horiz-adv-x="1075" 
d="M1002 7v-180h-914v180l400 732l-400 566v160h875v-180h-634l399 -546l-409 -732h683z" />
    <glyph glyph-name="minus" unicode="&#x2212;" 
d="M960 706v-141h-838v141h838z" />
    <glyph glyph-name="periodcentered" unicode="&#x2219;" horiz-adv-x="752" 
d="M355 801q62 0 106 -44t44 -106t-44 -106.5t-106 -44.5t-106 44.5t-44 106.5t44 106t106 44z" />
    <glyph glyph-name="radical" unicode="&#x221a;" 
d="M1088 1471v-122h-337l-384 -1349h-142l-209 268l98 83l150 -194l374 1314h450z" />
    <glyph glyph-name="infinity" unicode="&#x221e;" 
d="M299 787q-140 0 -140 -116t130 -116q105 0 190 119q-104 113 -180 113zM788 555q130 0 130 116t-140 116q-76 0 -180 -113q85 -119 190 -119zM304 452q-120 0 -186 57t-66 157t67 160t167 60q145 0 250 -129q105 129 255 129q99 0 166 -60t67 -159t-66 -157t-186 -58
t-235 144q-113 -144 -233 -144z" />
    <glyph glyph-name="integral" unicode="&#x222b;" 
d="M237 -250q82 0 125 74t43 167v1073q0 180 110.5 313t270.5 133t280 -102l-124 -142q-59 74 -166 74q-68 0 -110 -55t-42 -251v-1011q0 -188 -93 -315.5t-261 -127.5t-292 123l100 142q77 -95 159 -95z" />
    <glyph glyph-name="approxequal" unicode="&#x2248;" 
d="M712 299q-66 0 -186.5 38.5t-168.5 38.5q-71 0 -108 -77h-91q14 86 65 146.5t121 60.5t192 -38.5t172 -38.5q81 0 108 77h88q-53 -207 -192 -207zM712 629q-66 0 -186.5 38.5t-168.5 38.5q-71 0 -108 -77h-91q14 86 65 146.5t121 60.5t192 -38.5t172 -38.5q81 0 108 77
h88q-53 -207 -192 -207z" />
    <glyph glyph-name="notequal" unicode="&#x2260;" 
d="M960 876v-141h-257l-162 -199h419v-141h-534l-165 -202h-138l165 202h-166v141h280l163 199h-443v141h557l143 175h139l-143 -175h142z" />
    <glyph glyph-name="lessequal" unicode="&#x2264;" 
d="M960 121v-141h-838v141h838zM150 594v123l739 354v-161l-571 -255l571 -258v-161z" />
    <glyph glyph-name="greaterequal" unicode="&#x2265;" 
d="M122 121h838v-141h-838v141zM932 594l-739 -358v161l571 258l-571 255v161l739 -354v-123z" />
    <glyph glyph-name="H22073" unicode="&#x25a1;" horiz-adv-x="1237" 
d="M222 868v-792h792v792h-792zM146 944h944v-944h-944v944z" />
    <glyph glyph-name="H18543" unicode="&#x25aa;" horiz-adv-x="726" 
d="M594 908v-463h-463v463h463z" />
    <glyph glyph-name="H18551" unicode="&#x25ab;" horiz-adv-x="726" 
d="M518 832h-311v-311h311v311zM594 908v-463h-463v463h463z" />
    <glyph glyph-name="lozenge" unicode="&#x25ca;" horiz-adv-x="1012" 
d="M495 1325l-340 -616l340 -615l359 615zM549 1422l418 -713l-418 -709h-111l-391 709l391 713h111z" />
    <glyph glyph-name="H18533" unicode="&#x25cf;" horiz-adv-x="1237" 
d="M177 576q0 182 129.5 311.5t311.5 129.5t311 -129.5t129 -311.5t-129 -311t-311 -129t-311.5 129t-129.5 311z" />
    <glyph glyph-name="openbullet" unicode="&#x25e6;" horiz-adv-x="726" 
d="M363 852q-73 0 -124 -52t-51 -124t51.5 -123t123.5 -51t123.5 51t51.5 123t-51 124t-124 52zM362 928q104 0 178 -73.5t74 -177.5t-73.5 -177.5t-177.5 -73.5t-177.5 73.5t-73.5 177.5t73 177.5t177 73.5z" />
    <glyph glyph-name="fi" unicode="&#xfb01;" horiz-adv-x="1187" 
d="M917 1476q49 0 83.5 -35t34.5 -83t-34.5 -82.5t-82.5 -34.5t-83 34.5t-35 83.5t34 83t83 34zM843 0v911h-444v-911h-190v911h-156v160h156q0 205 101 322t267 117q83 0 178 -30l-53 -140q-58 20 -108 20q-87 0 -143.5 -66t-56.5 -167q0 -27 5 -56h637v-1071h-193z" />
    <glyph glyph-name="fl" unicode="&#xfb02;" horiz-adv-x="1230" 
d="M1145 -20q-176 0 -252.5 73t-76.5 250v982q-26 30 -87 52.5t-135 22.5t-131 -66t-57 -167q0 -27 5 -56h188v-160h-188v-911h-190v911h-156v160h156q0 205 101.5 322t257.5 117t236 -47v27h190v-1155q0 -185 139 -185v-170z" />
    <glyph glyph-name="glyph0" horiz-adv-x="1024" 
d="M256 478h512v512h-512v-512zM128 350v768h768v-768h-768z" />
    <glyph glyph-name="apple" horiz-adv-x="1024" 
d="M256 478h512v512h-512v-512zM128 350v768h768v-768h-768z" />
    <glyph glyph-name="dotlessj" horiz-adv-x="751" 
d="M18 -420v170q196 0 268.5 59.5t72.5 195.5v906h-213v160h403v-1062q0 -221 -130 -325t-401 -104z" />
    <glyph glyph-name="f007" horiz-adv-x="752" 
d="M387 1539q0 -41 42 -75t42 -81q0 -98 -107 -98q-107 1 -107 157t154 276l54 -57q-62 -61 -70 -82.5t-8 -39.5z" />
    <glyph glyph-name="commaaccenthigh" horiz-adv-x="752" 
d="M340 1276q0 28 -34.5 61.5t-34.5 69.5q0 103 102 103q108 0 108 -124q0 -188 -185 -303l-47 63q72 58 81.5 80t9.5 50z" />
    <glyph glyph-name="dottediacute" horiz-adv-x="584" 
d="M227 0v911h-147v160h337v-1071h-190zM331 1476q49 0 83 -34t35 -84q-1 -48 -35 -82t-82 -35q-48 1 -84 35q-34 34 -34 83t34 83t83 34zM561 1908l-226 -333h-140l169 333h197z" />
    </font>
</defs>
</svg>
