<?xml version="1.0" standalone="no"?>
<!DOCTYPE svg PUBLIC "-//W3C//DTD SVG 1.1//EN" "http://www.w3.org/Graphics/SVG/1.1/DTD/svg11.dtd" >
<svg xmlns="http://www.w3.org/2000/svg">
<metadata>
Created by FontPrep 20130207 at Mon May 12 12:00:32 2014
 By Justin Leggio
(c) 2006 Microsoft Corporation. All Rights Reserved.
</metadata>
<defs>
<font id="162538ac012964909e89d78833a6b26d" horiz-adv-x='1024' >
  <font-face 
    font-family="Trebuchet-BoldItalic"
    font-weight="700"
    font-style="italic"
    font-stretch="normal"
    units-per-em="2048"
    panose-1="2 11 7 3 2 2 2 9 2 4"
    ascent="1638"
    descent="-410"
    x-height="1071"
    cap-height="1464"
    bbox="-221 -571 2367 1977"
    underline-thickness="200"
    underline-position="-161"
    slope="-10"
    unicode-range="U+0020-FB02"
  />
<missing-glyph horiz-adv-x="748" 
d="M136 68h408v1229h-408v-1229zM68 0v1365h544v-1365h-544z" />
    <glyph glyph-name=".notdef" horiz-adv-x="748" 
d="M136 68h408v1229h-408v-1229zM68 0v1365h544v-1365h-544z" />
    <glyph glyph-name="glyph1" horiz-adv-x="0" 
 />
    <glyph glyph-name="glyph2" horiz-adv-x="994" 
 />
    <glyph glyph-name="space" unicode=" " horiz-adv-x="617" 
 />
    <glyph glyph-name="exclam" unicode="!" horiz-adv-x="752" 
d="M163 141q0 68 49.5 114.5t117.5 46.5t117.5 -46.5t49.5 -114.5t-49 -114.5t-118 -46.5t-118 46.5t-49 114.5zM442 424h-132l10 279q8 212 36 368l78 420h297l-57 -330q-13 -77 -103 -348z" />
    <glyph glyph-name="quotedbl" unicode="&#x22;" horiz-adv-x="800" 
d="M363 1086h-200l52 381h260zM773 1086h-200l52 381h260z" />
    <glyph glyph-name="numbersign" unicode="#" 
d="M769 910h-237l-84 -320h235zM1174 910h-215l-84 -320h154v-181h-202l-120 -429h-195l118 429h-230l-118 -429h-195l118 429h-140v181h189l83 320h-157v181h205l108 396h193l-105 -396h229l108 396h193l-104 -396h167v-181z" />
    <glyph glyph-name="dollar" unicode="$" 
d="M789 1266q-241 0 -241 -183q0 -81 143 -189t205 -162.5t103.5 -141t41.5 -190.5q0 -181 -111 -290.5t-309 -134.5l-29 -156h-227l29 161q-134 21 -246 75l84 259q134 -102 311 -102q228 0 228 177q0 96 -88.5 167t-275.5 215q-128 125 -128 291t98 280t271 145l37 199
h227l-36 -194q153 -11 229 -49l-80 -263q-108 86 -236 86z" />
    <glyph glyph-name="percent" unicode="%" horiz-adv-x="1500" 
d="M969 260q1 -116 81 -116t124.5 83t44.5 197t-86 115q-76 0 -120 -81.5t-44 -197.5zM770 240q0 196 109.5 329.5t285.5 133.5q249 0 249 -269q0 -187 -107.5 -320.5t-278.5 -133.5q-258 0 -258 260zM310 -20h-208l1190 1511h207zM398 1048q0 -116 80 -116t125 83t45 197
t-86 115q-75 0 -119.5 -81.5t-44.5 -197.5zM199 1027q0 195 109 329.5t285 134.5q250 0 250 -269q0 -187 -107.5 -320.5t-278.5 -133.5q-258 0 -258 259z" />
    <glyph glyph-name="ampersand" unicode="&#x26;" horiz-adv-x="1446" 
d="M379 384q0 -186 230 -186q114 0 184 36q0 45 10 99l66 358h-357q-133 -138 -133 -307zM1051 300q0 -102 86 -102q69 0 177 78v-247q-101 -49 -239 -49t-207 63q-157 -63 -340 -63t-297 96.5t-114 266.5q0 287 229 487q-85 109 -85 216q0 209 143.5 327t380.5 118
q180 0 283 -62l-65 -221q-93 84 -219 84t-202 -64.5t-76 -184.5q0 -81 64 -140h337l32 173l257 37l-41 -213h248l-37 -209h-250q-65 -289 -65 -391z" />
    <glyph glyph-name="quotesingle" unicode="'" horiz-adv-x="617" 
d="M475 1086h-200l52 381h260z" />
    <glyph glyph-name="parenleft" unicode="(" horiz-adv-x="752" 
d="M139 294q0 360 188 710t479 502v-150q-392 -414 -392 -1246q0 -230 81 -387v-178q-356 264 -356 749z" />
    <glyph glyph-name="parenright" unicode=")" horiz-adv-x="752" 
d="M400 935q0 251 -89 418v140q177 -75 271 -273t94 -468q0 -360 -188.5 -690.5t-497.5 -516.5v179q182 138 296 505.5t114 705.5z" />
    <glyph glyph-name="asterisk" unicode="*" horiz-adv-x="885" 
d="M420 1510h236v-131l-46 -162l100 89l141 62l82 -201l-151 -65l-133 -11l137 -78l86 -111l-193 -144l-84 122l-53 128l-50 -114l-111 -136l-172 154l119 115l110 57l-135 12l-156 62l98 205l158 -67l71 -76l-54 155v135z" />
    <glyph glyph-name="plus" unicode="+" 
d="M713 535v-355h-201v355h-348v201h348v343h201v-343h349v-201h-349z" />
    <glyph glyph-name="comma" unicode="," horiz-adv-x="752" 
d="M310 -50q0 56 -58 101t-58 103t53 100.5t125 42.5t125 -58t53 -133q0 -302 -322 -520l-77 101q159 117 159 263z" />
    <glyph glyph-name="hyphen" unicode="-" horiz-adv-x="752" 
d="M88 476l42 235h529l-42 -235h-529z" />
    <glyph glyph-name="hyphen" unicode="&#x2010;" horiz-adv-x="752" 
d="M88 476l42 235h529l-42 -235h-529z" />
    <glyph glyph-name="period" unicode="." horiz-adv-x="752" 
d="M204 139q0 66 46.5 112.5t112.5 46.5t112.5 -46.5t46.5 -112.5t-46.5 -112.5t-112.5 -46.5t-112.5 46.5t-46.5 112.5z" />
    <glyph glyph-name="slash" unicode="/" horiz-adv-x="813" 
d="M226 0h-236l556 1471h234z" />
    <glyph glyph-name="zero" unicode="0" 
d="M361 466q0 -257 156 -257q192 0 294 240t102 589q0 224 -166 224q-176 0 -281 -255.5t-105 -540.5zM91 430q0 458 181 759.5t509 301.5q403 0 403 -435q0 -497 -173.5 -786.5t-509.5 -289.5q-195 0 -302.5 119.5t-107.5 330.5z" />
    <glyph glyph-name="one" unicode="1" 
d="M701 0h-271l190 1024l-293 -143l40 265q356 158 486 325h120z" />
    <glyph glyph-name="two" unicode="2" 
d="M43 0v84l582 683q137 161 180 225t43 144q0 133 -199 133q-123 0 -228 -150l-184 122q116 250 436 250q204 0 324 -89.5t120 -254.5q0 -100 -58.5 -210t-220.5 -307l-322 -391h524l-45 -239h-952z" />
    <glyph glyph-name="three" unicode="3" 
d="M1016 496q0 -516 -608 -516q-216 0 -356 150l130 225q114 -146 254 -146t225.5 76.5t85.5 203.5q0 180 -285 180l41 222q313 0 313 223q0 148 -179 148q-102 0 -203 -81l-130 163q145 147 378 147q183 0 296.5 -94.5t113.5 -256.5q0 -108 -66 -206t-174 -153
q164 -89 164 -285z" />
    <glyph glyph-name="four" unicode="4" 
d="M408 595h306l66 356zM985 595h148l-39 -214h-148l-70 -381h-271l70 381h-657l29 158l974 932h126z" />
    <glyph glyph-name="five" unicode="5" 
d="M687 1021q156 0 270 -101t114 -255q0 -685 -635 -685q-206 0 -338 126l113 232q46 -54 118 -91.5t136 -37.5q155 0 247.5 118t92.5 292q0 89 -60.5 141t-156.5 52q-132 0 -237 -114l-112 52l125 721h800l-43 -229h-539l-45 -246q68 25 150 25z" />
    <glyph glyph-name="six" unicode="6" 
d="M381 379q0 -175 176 -175q118 0 193 99.5t75 230.5q0 83 -43.5 131t-121.5 48q-132 0 -205.5 -91.5t-73.5 -242.5zM703 942q182 0 287 -98t105 -271q0 -248 -158.5 -423t-394.5 -175q-426 0 -426 432q0 357 260 687.5t553 400.5l120 -155q-111 -42 -253 -164t-246 -257
q70 23 153 23z" />
    <glyph glyph-name="seven" unicode="7" 
d="M1314 1471v-119q-524 -704 -845 -1352h-320q206 400 776 1223h-678l46 248h1021z" />
    <glyph glyph-name="eight" unicode="8" 
d="M342 371q0 -72 54.5 -117t134.5 -45q121 0 191 68t70 195t-168 213q-123 -31 -202.5 -117.5t-79.5 -196.5zM872 1143q0 52 -45.5 85.5t-104.5 33.5q-185 0 -185 -170q0 -109 171 -183q164 133 164 234zM1064 471q0 -491 -563 -491q-188 0 -306 95.5t-118 258.5t83 289
t229 196q-125 109 -125 278t146 281.5t326 112.5t291.5 -87t111.5 -231q0 -114 -67.5 -219.5t-175.5 -165.5q168 -128 168 -317z" />
    <glyph glyph-name="nine" unicode="9" 
d="M420 932q0 -179 164 -179q134 0 206.5 90t72.5 244q0 175 -175 175q-124 0 -196 -93.5t-72 -236.5zM541 524q-168 0 -279.5 110t-111.5 278q0 262 150 420.5t403 158.5q201 0 313.5 -120.5t112.5 -331.5q0 -342 -241.5 -656.5t-572.5 -411.5l-119 155q119 44 271 175
t228 245q-67 -22 -154 -22z" />
    <glyph glyph-name="colon" unicode=":" horiz-adv-x="752" 
d="M290 912q0 66 46.5 112.5t112.5 46.5t112.5 -46.5t46.5 -112.5t-46.5 -112.5t-112.5 -46.5t-112.5 46.5t-46.5 112.5zM164 139q0 66 46.5 112.5t112.5 46.5t112.5 -46.5t46.5 -112.5t-46.5 -112.5t-112.5 -46.5t-112.5 46.5t-46.5 112.5z" />
    <glyph glyph-name="semicolon" unicode=";" horiz-adv-x="752" 
d="M290 912q0 66 46.5 112.5t112.5 46.5t112.5 -46.5t46.5 -112.5t-46.5 -112.5t-112.5 -46.5t-112.5 46.5t-46.5 112.5zM310 -50q0 56 -58 101t-58 105t54 100q54 41 126 41t124 -59t52 -132q0 -302 -322 -520l-77 101q159 117 159 263z" />
    <glyph glyph-name="less" unicode="&#x3c;" 
d="M192 557v161l799 383v-228l-528 -236l528 -239v-228z" />
    <glyph glyph-name="equal" unicode="=" 
d="M179 325v201h898v-201h-898zM179 745v201h898v-201h-898z" />
    <glyph glyph-name="greater" unicode="&#x3e;" 
d="M265 170v228l527 239l-527 236v228l799 -383v-161z" />
    <glyph glyph-name="question" unicode="?" horiz-adv-x="813" 
d="M56 141q0 68 49.5 114.5t117.5 46.5t117.5 -46.5t49.5 -114.5t-49 -114.5t-118 -46.5t-118 46.5t-49 114.5zM558 1186q0 108 -141 108q-111 0 -204 -71l-85 169q113 99 346 99q147 0 236 -79.5t89 -218.5q0 -89 -38 -175t-107 -146l-172 -149q-102 -88 -140 -147
t-39 -127v-34h-146l-16 120q0 132 108 253l189 177q120 113 120 221z" />
    <glyph glyph-name="at" unicode="@" horiz-adv-x="1578" 
d="M874 812q-101 0 -171 -105t-70 -224q0 -95 82 -95q71 0 118.5 52t64.5 132t42 215q-29 25 -66 25zM687 218q-126 0 -200 67t-74 187q0 196 136.5 344.5t331.5 148.5q99 0 279 -76q-69 -251 -78 -315.5t-9 -109.5q0 -71 52 -71q106 0 168 113.5t62 277.5t-119 272.5
t-307 108.5q-293 0 -479 -205t-186 -511q0 -203 126 -328.5t329 -125.5q106 0 210.5 35t159.5 93l117 -143q-89 -74 -233 -119.5t-276 -45.5q-281 0 -459 169t-178 443q0 395 251.5 656.5t639.5 261.5q276 0 442.5 -145.5t166.5 -385.5t-126 -412.5t-325 -172.5
q-130 0 -204 79q-92 -90 -218 -90z" />
    <glyph glyph-name="A" unicode="A" horiz-adv-x="1257" 
d="M760 1040l-301 -547h384zM918 0l-46 298h-524l-172 -298h-271l890 1485h93l301 -1485h-271z" />
    <glyph glyph-name="B" unicode="B" horiz-adv-x="1208" 
d="M445 208q200 0 314 68.5t114 196.5q0 245 -321 245q-50 0 -101 -4l-94 -501q46 -5 88 -5zM593 899q143 0 228 60.5t85 174.5q0 132 -232 132q-48 0 -126 -6l-63 -358q59 -3 108 -3zM1137 494q0 -253 -178 -379.5t-577 -126.5q-131 0 -328 12l268 1463q168 24 299 24
q546 0 546 -360q0 -96 -58.5 -180.5t-147.5 -128.5q75 -33 125.5 -126t50.5 -198z" />
    <glyph glyph-name="C" unicode="C" horiz-adv-x="1255" 
d="M912 1264q-225 0 -377.5 -214.5t-152.5 -475.5q0 -169 83 -270t231 -101q230 0 361 125l-5 -229q-142 -124 -394 -124t-398.5 156.5t-146.5 406.5q0 404 224.5 678t586.5 274q177 0 314 -58l-73 -249q-114 81 -253 81z" />
    <glyph glyph-name="D" unicode="D" horiz-adv-x="1295" 
d="M429 229q268 0 426 189t158 485q0 162 -109 260t-280 98q-48 0 -97 -10l-178 -1018q44 -4 80 -4zM397 0h-354l267 1462q146 26 274 26q335 0 518 -153t183 -443q0 -407 -242 -649.5t-646 -242.5z" />
    <glyph glyph-name="E" unicode="E" horiz-adv-x="1215" 
d="M1212 1237h-675l-61 -337h484l-41 -218h-484l-82 -454h664l-43 -228h-932l270 1465h943z" />
    <glyph glyph-name="F" unicode="F" horiz-adv-x="1199" 
d="M1240 1237h-705l-61 -337h515l-41 -218h-515l-125 -682h-267l272 1465h969z" />
    <glyph glyph-name="G" unicode="G" horiz-adv-x="1385" 
d="M651 -25q-252 0 -409.5 161.5t-157.5 409.5q0 435 239.5 689.5t652.5 254.5q224 0 333 -100l-78 -217q-147 89 -293 89q-264 0 -424 -193.5t-160 -484.5q0 -180 99 -280.5t257 -100.5t264 79l53 290h-203l40 218h461l-121 -657q-226 -158 -553 -158z" />
    <glyph glyph-name="H" unicode="H" horiz-adv-x="1389" 
d="M1162 0h-263l125 682h-582l-125 -682h-264l269 1465h264l-104 -565h582l104 565h265z" />
    <glyph glyph-name="I" unicode="I" horiz-adv-x="570" 
d="M329 0h-261l269 1465h262z" />
    <glyph glyph-name="J" unicode="J" horiz-adv-x="1021" 
d="M333 208q169 0 210 84.5t72 257.5l167 915h258l-168 -916q-63 -344 -194.5 -456.5t-374.5 -112.5q-142 0 -227 75.5t-85 206.5q0 30 6 74h229q-2 -128 107 -128z" />
    <glyph glyph-name="K" unicode="K" horiz-adv-x="1331" 
d="M815 821l364 -821h-293l-274 626l-208 -229l-74 -397h-260l269 1465h260l-121 -666l608 666h308z" />
    <glyph glyph-name="L" unicode="L" horiz-adv-x="1082" 
d="M974 0h-924l269 1465h262l-227 -1237h662z" />
    <glyph glyph-name="M" unicode="M" horiz-adv-x="1610" 
d="M1240 0l-17 793l-445 -813h-91l-145 821l-307 -801h-251l544 1465h146l148 -929l484 929h150l42 -1465h-258z" />
    <glyph glyph-name="N" unicode="N" horiz-adv-x="1352" 
d="M1113 -20h-101l-540 947l-162 -927h-258l269 1465h120l529 -908l159 908h257z" />
    <glyph glyph-name="O" unicode="O" horiz-adv-x="1438" 
d="M369 572q0 -169 67 -269t196 -100q238 0 376 214t138 511q0 336 -296 336q-208 0 -344.5 -220t-136.5 -472zM99 545q0 391 213.5 668.5t555.5 277.5q263 0 405 -139.5t142 -403.5q0 -433 -218 -703t-597 -270q-232 0 -366.5 156.5t-134.5 413.5z" />
    <glyph glyph-name="P" unicode="P" horiz-adv-x="1195" 
d="M585 746q170 0 270 73t100 210q0 231 -262 231q-70 0 -151 -17l-87 -483q51 -14 130 -14zM644 1485q581 0 581 -437q0 -246 -176.5 -386.5t-457.5 -140.5q-90 0 -177 17l-99 -538h-266l276 1463q209 22 319 22z" />
    <glyph glyph-name="Q" unicode="Q" horiz-adv-x="1576" 
d="M386 566q0 -173 67.5 -272.5t196.5 -99.5q237 0 375 215t138 515q0 338 -295 338q-208 0 -345 -221.5t-137 -474.5zM618 -36q-241 0 -371.5 152.5t-130.5 422.5q0 393 213 672.5t556 279.5q262 0 404.5 -141.5t142.5 -404.5q0 -310 -118 -550t-336 -342
q42 -85 145 -132.5t223 -47.5t226 72l96 -156q-128 -161 -377 -161q-169 0 -308.5 96.5t-201.5 257.5q-75 -18 -163 -18z" />
    <glyph glyph-name="R" unicode="R" horiz-adv-x="1277" 
d="M576 824q378 0 378 240q0 101 -72.5 143.5t-240.5 42.5q-14 0 -95 -10l-75 -410q59 -6 105 -6zM702 1480q237 0 374.5 -92t137.5 -266t-100.5 -303.5t-268.5 -169.5l327 -649h-293l-280 606q-68 1 -167 8l-113 -614h-268l268 1465q292 15 383 15z" />
    <glyph glyph-name="S" unicode="S" horiz-adv-x="1027" 
d="M704 1261q-241 0 -241 -182q0 -77 128 -184l151 -128q70 -60 97 -87.5t72 -101t45 -176.5q0 -201 -151 -314t-369 -113t-393 85l84 257q134 -101 311 -101q107 0 177.5 45t70.5 129t-128 184l-157 125q-72 58 -97.5 84t-67.5 95.5t-42 173.5q0 202 134 320t351 118
q72 0 184 -16.5t157 -37.5l-80 -260q-116 85 -236 85z" />
    <glyph glyph-name="T" unicode="T" horiz-adv-x="1403" 
d="M1391 1237h-462l-226 -1237h-263l226 1237h-466l42 228h1192z" />
    <glyph glyph-name="U" unicode="U" horiz-adv-x="1355" 
d="M612 -25q-228 0 -358.5 99.5t-130.5 274.5q0 53 11 113l184 1003h268l-187 -998q-5 -27 -5 -57q0 -99 61 -153t181 -54t208.5 73t112.5 205l183 984h264l-187 -1014q-42 -226 -209.5 -351t-395.5 -125z" />
    <glyph glyph-name="V" unicode="V" horiz-adv-x="1399" 
d="M674 -20h-142l-294 1485h278l175 -972l514 972h291z" />
    <glyph glyph-name="W" unicode="W" horiz-adv-x="1897" 
d="M1272 -20h-105l-159 894l-475 -894h-105l-207 1485h265l111 -888l462 888h113l136 -882l428 882h282z" />
    <glyph glyph-name="X" unicode="X" horiz-adv-x="1345" 
d="M848 741l345 -741h-287l-232 517l-394 -517h-303l588 772l-279 694l268 -1l189 -488l395 488h303z" />
    <glyph glyph-name="Y" unicode="Y" horiz-adv-x="1400" 
d="M848 648l-119 -648h-258l121 656l-345 809h271l236 -573l439 573h297z" />
    <glyph glyph-name="Z" unicode="Z" horiz-adv-x="1252" 
d="M87 0v83l793 1154h-602l42 228h928v-83l-766 -1154h597l-43 -228h-949z" />
    <glyph glyph-name="bracketleft" unicode="[" horiz-adv-x="994" 
d="M923 1278h-263l-267 -1466h263l-43 -232h-544l353 1930h544z" />
    <glyph glyph-name="backslash" unicode="\" horiz-adv-x="978" 
d="M710 0l-539 1471h216l540 -1471h-217z" />
    <glyph glyph-name="bracketright" unicode="]" horiz-adv-x="994" 
d="M552 -420h-544l43 232h263l267 1466h-263l43 232h544z" />
    <glyph glyph-name="asciicircum" unicode="^" 
d="M887 907l-214 358l-218 -362h-192l358 568h107l356 -564h-197z" />
    <glyph glyph-name="underscore" unicode="_" 
d="M-8 -334v209h1215v-209h-1215z" />
    <glyph glyph-name="grave" unicode="`" 
d="M637 1285l-153 333h280l35 -333h-162z" />
    <glyph glyph-name="a" unicode="a" horiz-adv-x="1214" 
d="M699 887q-168 0 -268 -160.5t-100 -369.5q0 -173 170 -173q108 0 188.5 133t143.5 550q-71 20 -134 20zM981 302q0 -220 34 -302h-156q-70 0 -104 107q-129 -127 -311 -127t-277.5 98t-95.5 273q0 305 184.5 522.5t460.5 217.5t396 -50l-124 -657q-7 -37 -7 -82z" />
    <glyph glyph-name="b" unicode="b" horiz-adv-x="1215" 
d="M632 880q-101 0 -174 -86l-97 -529q38 -78 151 -78q174 1 276 123t102 300q0 270 -258 270zM518 -20q-159 0 -234 101l-80 -81h-183q96 245 131 440l190 1070h244l-84 -479q93 60 227 60q201 -1 314 -131t113 -335q0 -267 -186 -456t-452 -189z" />
    <glyph glyph-name="c" unicode="c" horiz-adv-x="1009" 
d="M715 883q-172 0 -276.5 -128.5t-104.5 -321.5q0 -100 59 -171t152 -71q134 0 315 114l-30 -261q-154 -64 -336 -64t-300.5 112.5t-118.5 309.5q0 299 173 494t453 195q160 0 277 -66l-51 -219q-105 77 -212 77z" />
    <glyph glyph-name="d" unicode="d" horiz-adv-x="1215" 
d="M707 880q-173 0 -275.5 -127t-102.5 -323q0 -244 202 -244q218 0 283 348l48 256q-48 90 -155 90zM466 -20q-190 0 -296 110.5t-106 300.5q0 307 171 503.5t455 196.5q54 0 121 -21t97 -46l92 486h242l-273 -1510h-249l19 100q-83 -120 -273 -120z" />
    <glyph glyph-name="e" unicode="e" horiz-adv-x="1130" 
d="M562 635q106 0 200 41.5t94 119.5q0 87 -190 87q-75 0 -153 -65.5t-122 -163.5q65 -19 171 -19zM341 420q0 -112 66.5 -172t184.5 -60q63 0 145 34.5t129 77.5l-29 -263q-127 -57 -317 -57t-313.5 125t-123.5 343q0 276 177.5 459.5t464.5 183.5q169 0 274 -71.5
t105 -204.5q0 -181 -156.5 -284t-385.5 -103q-112 0 -219 37q-2 -26 -2 -45z" />
    <glyph glyph-name="f" unicode="f" horiz-adv-x="840" 
d="M790 1307q-144 0 -198 -236h246l-25 -201h-252l-160 -938q-26 -153 -141 -252t-269 -100l-53 166q71 16 128 71t70 125l167 928h-151l33 201h148q103 439 469 439q104 0 177 -43l-50 -196q-81 36 -139 36z" />
    <glyph glyph-name="g" unicode="g" horiz-adv-x="1096" 
d="M368 645q0 -97 36 -148t99 -51q110 0 182 87.5t72 212.5q0 141 -147 141q-111 0 -176.5 -72.5t-65.5 -169.5zM1017 765q0 -156 -67.5 -270t-222.5 -185t-170 -96q68 13 106 13q112 0 191 -68.5t79 -174.5q0 -194 -136.5 -299t-395.5 -105q-97 0 -212.5 38t-188.5 94
l109 189q143 -102 297 -102q278 0 278 150q0 63 -115 85l-191 34q-107 33 -107 124q0 53 88 107q-108 31 -176.5 116.5t-68.5 190.5q0 216 143 350.5t367 134.5q138 0 233 -59l94 102l147 -146l-103 -103q22 -50 22 -120z" />
    <glyph glyph-name="h" unicode="h" horiz-adv-x="1151" 
d="M832 730q0 150 -150 150q-135 0 -243 -114l-142 -766h-255l272 1510h249l-82 -504q133 85 284 85t238.5 -86t87.5 -240q0 -51 -11 -110l-123 -655h-257l126 665q6 32 6 65z" />
    <glyph glyph-name="i" unicode="i" horiz-adv-x="669" 
d="M397 0h-254l162 870h-137l42 201h387zM323 1415q0 67 47.5 111.5t115.5 44.5t115.5 -44.5t47.5 -110.5t-48 -111.5t-115 -45.5t-115 44.5t-48 111.5z" />
    <glyph glyph-name="j" unicode="j" horiz-adv-x="794" 
d="M512 15q-41 -222 -191 -328.5t-466 -106.5l11 221q140 0 254 28.5t144 191.5l152 849h-144l47 201h389zM444 1413q0 67 47.5 112.5t115.5 45.5t115.5 -45.5t47.5 -112.5t-48 -112t-115 -45t-115 45t-48 112z" />
    <glyph glyph-name="k" unicode="k" horiz-adv-x="1105" 
d="M763 0l-339 441l-42 -35l-71 -406h-251l262 1510h246l-129 -795l189 164q193 168 256 256l175 -151q-44 -54 -442 -405l442 -579h-296z" />
    <glyph glyph-name="l" unicode="l" horiz-adv-x="655" 
d="M298 -10q-90 0 -142 59t-52 167t48 337l201 957h248l-206 -997q-44 -213 -44 -287t36 -108t90 -34q-59 -94 -179 -94z" />
    <glyph glyph-name="m" unicode="m" horiz-adv-x="1700" 
d="M1396 744q0 139 -147 139q-52 0 -113 -36t-91 -78l-143 -769h-256l142 755q2 11 2 24q0 104 -159 104q-48 0 -108.5 -35.5t-96.5 -81.5l-143 -766h-255l145 774q5 27 5 105t-28 172l245 43q13 -51 22 -97q121 94 317 94t285 -115q127 115 320 115q321 0 321 -292
q0 -43 -10 -97l-131 -702h-256l127 676q6 32 6 68z" />
    <glyph glyph-name="n" unicode="n" horiz-adv-x="1151" 
d="M819 750q0 133 -157 133q-134 0 -241 -113l-143 -770h-251l151 803q4 21 4 84t-29 164l245 45l23 -120q132 115 331 115q330 0 330 -309q0 -55 -14 -130l-121 -652h-259l117 624q14 75 14 126z" />
    <glyph glyph-name="o" unicode="o" horiz-adv-x="1167" 
d="M332 413q0 -229 197 -229q156 0 247 144.5t91 342.5q0 216 -197 216q-153 0 -245.5 -142.5t-92.5 -331.5zM72 401q0 290 177 490t448 200q207 0 319 -107.5t112 -305.5q0 -296 -175 -497t-452 -201q-203 0 -316 108.5t-113 312.5z" />
    <glyph glyph-name="p" unicode="p" horiz-adv-x="1226" 
d="M489 191q197 0 301.5 119.5t104.5 339.5q0 102 -63 163.5t-173 61.5q-49 0 -115.5 -32.5t-99.5 -71.5l-100 -529q49 -51 145 -51zM203 880q0 76 -18 166l244 44q14 -38 23 -102q139 103 276 103q429 0 429 -416q0 -305 -176 -500t-465 -195q-115 0 -211 49l-80 -449h-250
l216 1160q12 64 12 140z" />
    <glyph glyph-name="q" unicode="q" horiz-adv-x="1226" 
d="M704 880q-176 0 -283.5 -127.5t-107.5 -318.5q0 -115 65.5 -179t181.5 -64t196 54l107 576q-60 59 -159 59zM464 -20q-193 0 -304 108t-111 301q0 300 182 501t469 201q62 0 140.5 -27.5t114.5 -65.5q41 64 92 69t144 5q-55 -138 -92 -339l-213 -1153h-251l86 474
q-108 -74 -257 -74z" />
    <glyph glyph-name="r" unicode="r" horiz-adv-x="915" 
d="M712 883q-97 0 -177.5 -84.5t-101.5 -193.5l-113 -605h-251l200 1071h251l-17 -93q133 113 294 113q41 0 147 -19l-75 -255q-89 66 -157 66z" />
    <glyph glyph-name="s" unicode="s" horiz-adv-x="940" 
d="M571 883q-62 0 -107.5 -28.5t-45.5 -82.5t108.5 -108.5t166.5 -87t95 -88t37 -127.5q0 -177 -132.5 -279t-323.5 -102t-359 99l132 227q125 -118 245 -118q76 0 125.5 38t49.5 98t-94 108.5t-203.5 110t-109.5 212.5t124.5 243.5t305.5 92.5q124 0 322 -84l-116 -229
q-120 105 -220 105z" />
    <glyph glyph-name="t" unicode="t" horiz-adv-x="897" 
d="M425 300q0 -110 124 -110q55 0 180 52v-225q-108 -37 -294 -37q-122 0 -196 76t-74 198q0 40 9 79l121 537h-124l43 201h124l42 219l286 104l-75 -323h293l-43 -201h-295l-108 -475q-13 -57 -13 -95z" />
    <glyph glyph-name="u" unicode="u" horiz-adv-x="1141" 
d="M357 -20q-138 0 -216.5 79t-78.5 219q0 44 11 103l129 690h254l-127 -680q-8 -43 -8 -73q0 -130 146 -130q119 0 199.5 77.5t100.5 186.5l110 619h251l-200 -1072h-250l15 78q-134 -97 -336 -97z" />
    <glyph glyph-name="v" unicode="v" horiz-adv-x="1131" 
d="M511 -20h-90l-328 1091h261l180 -649l377 649h290z" />
    <glyph glyph-name="w" unicode="w" horiz-adv-x="1584" 
d="M1064 -20h-90l-187 619l-401 -619h-92l-211 1091h254l107 -590l367 590h90l177 -597l309 597h265z" />
    <glyph glyph-name="x" unicode="x" horiz-adv-x="1179" 
d="M755 538l311 -538h-305l-176 333l-285 -333h-308l466 559l-284 512h292l169 -325l258 325h315z" />
    <glyph glyph-name="y" unicode="y" horiz-adv-x="1155" 
d="M620 -107q-149 -311 -578 -313v241q283 1 363 183l52 120q-137 39 -185 288l-127 659h263q117 -704 149 -735l344 735h283z" />
    <glyph glyph-name="z" unicode="z" horiz-adv-x="1091" 
d="M28 0v85l626 769h-525l41 217h892v-89l-615 -765h508l-41 -217h-886z" />
    <glyph glyph-name="braceleft" unicode="{" horiz-adv-x="994" 
d="M862 1502h190l-36 -196l-151 3q-131 0 -175.5 -52.5t-44.5 -161.5l16 -188q0 -201 -242 -340q144 -83 144 -216q0 -74 -68 -217.5t-68 -219.5q0 -132 222 -132h47l42 1l-36 -203h-169q-164 0 -273 72.5t-109 201.5q0 90 79.5 257.5t79.5 253.5q0 116 -182 128l26 143
q250 18 250 262l-18 230q0 171 137 272.5t339 101.5z" />
    <glyph glyph-name="bar" unicode="|" 
d="M505 -420v1930h206v-1930h-206z" />
    <glyph glyph-name="braceright" unicode="}" horiz-adv-x="994" 
d="M469 803q0 72 65 205.5t65 205.5q0 92 -102 92h-217l36 196h177q159 0 267 -71.5t108 -195.5q0 -80 -75 -230t-75 -229q0 -127 180 -141l-26 -143q-250 -16 -250 -268l14 -233q0 -192 -135.5 -301.5t-354.5 -109.5h-181l36 203q149 0 265.5 31.5t116.5 240.5l-12 194
q0 213 240 324q-142 107 -142 230z" />
    <glyph glyph-name="asciitilde" unicode="~" 
d="M400 746q48 0 96 -10t197 -56q41 -11 73 -11q60 0 87 77h148q-38 -148 -92 -207.5t-135 -59.5t-210.5 38.5t-148.5 38.5q-52 0 -89 -77h-146q21 120 78.5 193.5t141.5 73.5z" />
    <glyph glyph-name="nonbreakingspace" unicode="&#xa0;" horiz-adv-x="617" 
 />
    <glyph glyph-name="exclamdown" unicode="&#xa1;" horiz-adv-x="752" 
d="M472 647l-10 -279q-8 -212 -36 -368l-78 -420h-297l57 330q13 77 103 348l129 389h132zM452 769q-68 0 -117.5 46.5t-49.5 114.5t49 114.5t118 46.5t118 -46.5t49 -114.5t-49.5 -114.5t-117.5 -46.5z" />
    <glyph glyph-name="cent" unicode="&#xa2;" 
d="M434 462q0 -114 59 -175l166 534q-106 -37 -165.5 -141t-59.5 -218zM192 410q0 264 146.5 438t386.5 187l57 182h145l-58 -191q78 -14 145 -52l-48 -205q-80 60 -153 69l-183 -605q117 4 278 105l-28 -244q-140 -58 -309 -58l-56 -188h-159l67 215q-231 83 -231 347z" />
    <glyph glyph-name="sterling" unicode="&#xa3;" 
d="M846 1251q-242 0 -242 -381h219l-39 -209h-179q-2 -116 -38.5 -258t-86.5 -207q90 -41 234 -41t244 151l163 -171q-51 -97 -170.5 -158t-250.5 -61q-74 0 -218.5 28t-219.5 28t-210 -18l-62 200q38 14 107 42t84.5 39.5t46 49.5t69 148.5t38.5 227.5h-184l36 209h147
q4 609 565 609q152 0 262 -85l-136 -205q-93 62 -179 62z" />
    <glyph glyph-name="currency" unicode="&#xa4;" 
d="M321 726q0 -112 78 -191t190 -79t191 79t79 191t-78.5 190.5t-190.5 78.5t-190.5 -78.5t-78.5 -190.5zM591 276q-131 0 -250 75l-147 -148l-126 132l147 144q-73 123 -73 247t73 246l-147 144l126 132l148 -148q118 75 249 75t249 -74l147 147l127 -132l-147 -144
q74 -122 74 -246t-74 -247l147 -144l-127 -132l-147 148q-118 -75 -249 -75z" />
    <glyph glyph-name="yen" unicode="&#xa5;" 
d="M744 648l-15 -80h255l-37 -182h-251l-71 -386h-258l71 386h-259l37 182h256l16 88l-345 809h271l236 -573l439 573h298z" />
    <glyph glyph-name="brokenbar" unicode="&#xa6;" 
d="M504 -420v837h206v-837h-206zM504 673v837h206v-837h-206z" />
    <glyph glyph-name="section" unicode="&#xa7;" 
d="M477 781q0 -42 35 -75t201 -68q19 46 19 80t-17.5 66t-66.5 43l-120 29q-51 -33 -51 -75zM722 1262q-175 0 -175 -109q0 -52 73 -83q176 -54 234.5 -81t97 -79.5t38.5 -121.5q0 -130 -104 -233q77 -71 77 -168q0 -184 -144.5 -297t-362.5 -113t-354 105l122 222
q102 -101 284 -101t181 132q0 89 -182 131q-121 28 -201 92.5t-80 149.5q0 130 112 220q-64 62 -64 163q0 185 134 292t332 107t321 -113l-119 -215q-105 100 -220 100z" />
    <glyph glyph-name="dieresis" unicode="&#xa8;" 
d="M342 1400q0 50 45 81.5t103 31.5t102.5 -30.5t44.5 -80.5t-45 -82t-103 -32t-102.5 31t-44.5 81zM815 1401q0 51 44.5 81.5t102.5 30.5t103 -31.5t45 -81.5t-45 -81t-103 -31t-102.5 31t-44.5 82z" />
    <glyph glyph-name="copyright" unicode="&#xa9;" horiz-adv-x="1460" 
d="M795 934q-92 0 -144.5 -76.5t-52.5 -197.5t55 -191.5t142 -70.5t158 92l92 -126q-115 -113 -269 -113t-246.5 114t-92.5 295t97.5 300.5t240.5 119.5t237 -55l-56 -142q-69 51 -161 51zM245 661q0 -221 157 -378t378 -157t377.5 156t156.5 378t-156 378.5t-378 156.5
t-378.5 -156.5t-156.5 -377.5zM75 661q0 292 206.5 498t498.5 206t498 -206t206 -498t-206 -498.5t-498 -206.5t-498.5 206.5t-206.5 498.5z" />
    <glyph glyph-name="ordfeminine" unicode="&#xaa;" horiz-adv-x="876" 
d="M583 1343q-108 0 -173 -111.5t-65 -252.5q0 -117 119 -117q72 0 109 84t45 126l42 258q-38 13 -77 13zM733 728q-85 0 -118 71q-73 -85 -189 -85t-179.5 70t-63.5 191q0 206 115.5 361t291.5 155t245 -36l-75 -458q-5 -31 -5 -57q0 -77 53 -212h-75z" />
    <glyph glyph-name="guillemotleft" unicode="&#xab;" horiz-adv-x="1074" 
d="M99 519v96l415 285v-197l-189 -140l189 -124v-197zM551 519v96l415 285v-197l-189 -140l189 -124v-197z" />
    <glyph glyph-name="logicalnot" unicode="&#xac;" 
d="M1062 966v-556h-201v355h-697v201h898z" />
    <glyph glyph-name="sfthyphen" unicode="&#xad;" horiz-adv-x="752" 
d="M88 476l42 235h529l-42 -235h-529z" />
    <glyph glyph-name="registered" unicode="&#xae;" horiz-adv-x="1460" 
d="M742 926h-58v-197q94 0 143.5 7.5t49.5 93.5q0 96 -135 96zM684 590v-323h-162v805h220q297 0 297 -235q0 -145 -133 -216l214 -354h-180l-190 323h-66zM245 661q0 -221 157 -378t378 -157t377.5 156t156.5 378t-156 378.5t-378 156.5t-378.5 -156.5t-156.5 -377.5z
M75 661q0 292 206.5 498t498.5 206t498 -206t206 -498t-206 -498.5t-498 -206.5t-498.5 206.5t-206.5 498.5z" />
    <glyph glyph-name="overscore" unicode="&#xaf;" 
d="M-8 1466v209h1215v-209h-1215z" />
    <glyph glyph-name="degree" unicode="&#xb0;" 
d="M460 1282q0 -38 31 -63.5t72 -25.5t73 25t32 64t-32 64t-73 25t-72 -25.5t-31 -63.5zM317 1282q0 91 73.5 150t173.5 59t173 -59t73 -150t-74 -150.5t-174 -59.5t-172.5 59.5t-72.5 150.5z" />
    <glyph glyph-name="plusminus" unicode="&#xb1;" 
d="M713 535v-334h349v-201h-898v201h348v334h-348v201h348v343h201v-343h349v-201h-349z" />
    <glyph glyph-name="twosuperior" unicode="&#xb2;" horiz-adv-x="952" 
d="M284 566v63l303 384q119 151 119 219q0 47 -37 73t-91 26t-110 -89l-118 84q29 73 100.5 119t171.5 46t177 -68t77 -185q0 -62 -49.5 -160t-259.5 -347h270l-27 -165h-526z" />
    <glyph glyph-name="threesuperior" unicode="&#xb3;" horiz-adv-x="949" 
d="M816 876q0 -324 -351 -324q-138 0 -220 101l80 157q67 -99 157 -99q166 0 166 151q0 105 -184 105l26 144q85 0 139.5 38t54.5 102q0 38 -31.5 59.5t-82.5 21.5t-111 -55l-81 115q86 99 224 99q100 0 177.5 -65t77.5 -158q0 -148 -120 -228q79 -57 79 -164z" />
    <glyph glyph-name="acute" unicode="&#xb4;" 
d="M710 1285h-216l205 333h284z" />
    <glyph glyph-name="mu1" unicode="&#xb5;" horiz-adv-x="1141" 
d="M357 -17q-52 0 -103 13l-76 -416h-251l275 1491h254l-127 -679q-8 -43 -8 -72q0 -130 146 -130q119 0 199.5 77.5t100.5 185.5l110 618h251l-202 -1071h-250l17 80q-134 -97 -336 -97z" />
    <glyph glyph-name="paragraph" unicode="&#xb6;" 
d="M169 923q0 232 117.5 399t310.5 167h579l-319 -1739h-205l285 1553h-137l-285 -1553h-225l158 860q-279 21 -279 313z" />
    <glyph glyph-name="middot" unicode="&#xb7;" horiz-adv-x="752" 
d="M220 689q0 67 46 113t113 46t113 -46t46 -113t-46 -113t-113 -46t-113 46t-46 113z" />
    <glyph glyph-name="cedilla" unicode="&#xb8;" 
d="M396 -332q40 0 96 28t56 80q0 35 -29 64.5t-64 30.5l62 86q230 -15 230 -186q0 -115 -109 -176q-89 -50 -213 -50q-15 0 -87 5v123q18 -5 58 -5z" />
    <glyph glyph-name="onesuperior" unicode="&#xb9;" horiz-adv-x="980" 
d="M687 565h-166l100 613l-155 -86l24 186q192 97 263 200h81z" />
    <glyph glyph-name="ordmasculine" unicode="&#xba;" horiz-adv-x="888" 
d="M393 1017q0 -155 125 -155q96 0 153 103.5t57 240.5t-115 137q-95 0 -157.5 -103t-62.5 -223zM231 1009q0 192 113 337t285 145q126 0 194 -76t68 -213q0 -202 -108 -345t-281 -143q-128 0 -199.5 79t-71.5 216z" />
    <glyph glyph-name="guillemotright" unicode="&#xbb;" horiz-adv-x="1074" 
d="M189 242v197l189 124l-189 140v197l415 -285v-96zM591 242v197l189 124l-189 140v197l415 -285v-96z" />
    <glyph glyph-name="onequarter" unicode="&#xbc;" horiz-adv-x="1796" 
d="M451 565h-166l100 613l-155 -86l24 186q192 97 263 200h81zM531 -35h-188l884 1526h186zM1201 381h185l37 214zM1624 231h-97l-37 -231h-166l37 231h-385l18 110l560 572h83l-87 -532h97z" />
    <glyph glyph-name="onehalf" unicode="&#xbd;" horiz-adv-x="1796" 
d="M434 565h-166l100 613l-155 -86l24 186q192 97 263 200h81zM504 -35h-188l884 1526h186zM1041 0v63l303 384q119 151 119 219q-1 47 -37 73t-90 26t-111 -89l-118 84q29 73 101 119t172 46t176 -68t77 -185q1 -62 -49 -160t-260 -347h270l-27 -165h-526z" />
    <glyph glyph-name="threequarters" unicode="&#xbe;" horiz-adv-x="1796" 
d="M703 876q0 -324 -351 -324q-138 0 -220 101l80 157q67 -99 157 -99q166 0 166 151q0 105 -184 105l26 144q85 0 139 38t55 102q1 37 -31 59t-83 22t-111 -55l-81 115q86 99 224 99q99 0 177 -65t78 -158q0 -148 -120 -228q79 -57 79 -164zM594 -35h-188l884 1526h186z
M1202 381h185l37 214zM1625 231h-97l-37 -231h-166l37 231h-385l18 110l560 572h83l-87 -532h97z" />
    <glyph glyph-name="questiondown" unicode="&#xbf;" horiz-adv-x="752" 
d="M167 -114q0 -109 141 -109q111 0 204 71l85 -169q-113 -99 -346 -99q-148 0 -236.5 80t-88.5 234t128 291l228 196q140 123 140 241v34h146l16 -120q0 -132 -108 -253l-165 -156q-68 -64 -106 -119t-38 -122zM502 769q-68 0 -117.5 46.5t-49.5 114.5t49.5 114.5
t117.5 46.5t117.5 -46.5t49.5 -114.5t-49.5 -114.5t-117.5 -46.5z" />
    <glyph glyph-name="Agrave" unicode="&#xc0;" horiz-adv-x="1257" 
d="M760 1040l-301 -547h384zM918 0l-46 298h-524l-172 -298h-271l890 1485h93l301 -1485h-271zM736 1585l-153 333h280l35 -333h-162z" />
    <glyph glyph-name="Aacute" unicode="&#xc1;" horiz-adv-x="1257" 
d="M760 1040l-301 -547h384zM918 0l-46 298h-524l-172 -298h-271l890 1485h93l301 -1485h-271zM859 1585h-216l205 333h284z" />
    <glyph glyph-name="Acircumflex" unicode="&#xc2;" horiz-adv-x="1257" 
d="M760 1040l-301 -547h384zM918 0l-46 298h-524l-172 -298h-271l890 1485h93l301 -1485h-271zM942 1568l-118 143l-191 -146h-271l432 358h139l290 -355h-281z" />
    <glyph glyph-name="Atilde" unicode="&#xc3;" horiz-adv-x="1257" 
d="M760 1040l-301 -547h384zM918 0l-46 298h-524l-172 -298h-271l890 1485h93l301 -1485h-271zM671 1908q49 0 151 -43t129 -43q28 0 57 26t34 60h162q-19 -87 -90 -170t-150 -83q-32 1 -144 47t-149 46q-56 0 -83 -93h-160q23 105 90 179t153 74z" />
    <glyph glyph-name="Adieresis" unicode="&#xc4;" horiz-adv-x="1257" 
d="M760 1040l-301 -547h384zM918 0l-46 298h-524l-172 -298h-271l890 1485h93l301 -1485h-271zM471 1770q0 50 45 82q44 32 102 31t103 -31t45 -80t-45 -82t-103 -32t-102 31t-45 81zM944 1771q0 51 45 81t103 31t102 -31q45 -32 45 -82q-1 -50 -45 -81t-102 -31t-104 31
q-44 31 -44 82z" />
    <glyph glyph-name="Aring" unicode="&#xc5;" horiz-adv-x="1257" 
d="M760 1040l-301 -547h384zM918 0l-46 298h-524l-172 -298h-271l890 1485h93l301 -1485h-271zM849 1802q-51 0 -89 -26t-38 -66t38 -65q38 -26 89 -26t89 26q38 25 38 65t-38 66t-89 26zM846 1504q-99 0 -173 60t-74 150t74 150q73 60 173 59q100 0 173 -59t73 -150
q0 -90 -74 -150t-172 -60z" />
    <glyph glyph-name="AE" unicode="&#xc6;" horiz-adv-x="1965" 
d="M554 493h329l140 750zM1962 1237h-675l-61 -337h484l-41 -218h-484l-82 -454h664l-43 -228h-932l55 298h-391l-183 -298h-307l969 1465h1070z" />
    <glyph glyph-name="Ccedilla" unicode="&#xc7;" horiz-adv-x="1255" 
d="M912 1264q-226 0 -378 -214t-152 -476q0 -169 83 -270t231 -101q230 0 361 125l-5 -229q-142 -124 -394 -124q-252 1 -399 157q-146 156 -146 406q1 404 225 678t586 274q177 0 314 -58l-73 -249q-114 81 -253 81zM396 -332q40 0 96 28t56 80q0 34 -29 64t-64 31l62 86
q230 -15 230 -186q0 -115 -109 -176q-89 -50 -213 -50q-15 0 -87 5v123q18 -5 58 -5z" />
    <glyph glyph-name="Egrave" unicode="&#xc8;" horiz-adv-x="1215" 
d="M1212 1237h-675l-61 -337h484l-41 -218h-484l-82 -454h664l-43 -228h-932l270 1465h943zM700 1585l-153 333h280l35 -333h-162z" />
    <glyph glyph-name="Eacute" unicode="&#xc9;" horiz-adv-x="1215" 
d="M1212 1237h-675l-61 -337h484l-41 -218h-484l-82 -454h664l-43 -228h-932l270 1465h943zM843 1585h-216l205 333h284z" />
    <glyph glyph-name="Ecircumflex" unicode="&#xca;" horiz-adv-x="1215" 
d="M1212 1237h-675l-61 -337h484l-41 -218h-484l-82 -454h664l-43 -228h-932l270 1465h943zM956 1568l-118 143l-191 -146h-271l432 358h139l290 -355h-281z" />
    <glyph glyph-name="Edieresis" unicode="&#xcb;" horiz-adv-x="1215" 
d="M1212 1237h-675l-61 -337h484l-41 -218h-484l-82 -454h664l-43 -228h-932l270 1465h943zM415 1770q0 50 45 82q44 32 102 31t103 -31t45 -80t-45 -82t-103 -32t-102 31t-45 81zM888 1771q0 51 45 81t103 31t102 -31q45 -32 45 -82q-1 -50 -45 -81t-102 -31t-104 31
q-44 31 -44 82z" />
    <glyph glyph-name="Igrave" unicode="&#xcc;" horiz-adv-x="570" 
d="M329 0h-261l269 1465h262zM399 1585l-153 333h280l35 -333h-162z" />
    <glyph glyph-name="Iacute" unicode="&#xcd;" horiz-adv-x="570" 
d="M329 0h-261l269 1465h262zM520 1585h-216l205 333h284z" />
    <glyph glyph-name="Icircumflex" unicode="&#xce;" horiz-adv-x="570" 
d="M329 0h-261l269 1465h262zM623 1568l-118 143l-191 -146h-271l432 358h139l290 -355h-281z" />
    <glyph glyph-name="Idieresis" unicode="&#xcf;" horiz-adv-x="570" 
d="M329 0h-261l269 1465h262zM122 1770q0 50 45 82t103 31t102 -31q45 -30 45 -80t-45 -82t-103 -32q-59 0 -103 31t-44 81zM595 1771q0 51 45 81q44 30 102 31t103 -31t45 -82t-44 -81t-104 -31q-58 0 -102 31t-45 82z" />
    <glyph glyph-name="Eth" unicode="&#xd0;" horiz-adv-x="1340" 
d="M429 229q268 0 426 189t158 485q0 162 -109 260t-280 98q-48 0 -97 -10l-62 -356h273l-40 -223h-272l-77 -439q44 -4 80 -4zM584 1488q335 0 518 -153t183 -443q0 -407 -242 -649.5t-646 -242.5h-354l123 672h-131l40 223h132l103 567q146 26 274 26z" />
    <glyph glyph-name="Ntilde" unicode="&#xd1;" horiz-adv-x="1352" 
d="M1113 -20h-101l-540 947l-162 -927h-258l269 1465h120l529 -908l159 908h257zM724 1908q48 0 150 -43t130 -43t57 26t34 60h162q-19 -87 -90 -170t-150 -83q-32 1 -144 47t-149 46q-56 0 -83 -93h-160q23 105 90 179t153 74z" />
    <glyph glyph-name="Ograve" unicode="&#xd2;" horiz-adv-x="1438" 
d="M369 572q0 -169 67 -269t196 -100q238 0 376 214t138 511q0 336 -296 336q-208 0 -344 -220t-137 -472zM99 545q-1 391 213 669t556 277q263 1 405 -139t142 -404q0 -433 -218 -703t-597 -270q-232 1 -366 157t-135 413zM810 1585l-153 333h280l35 -333h-162z" />
    <glyph glyph-name="Oacute" unicode="&#xd3;" horiz-adv-x="1438" 
d="M369 572q0 -169 67 -269t196 -100q238 0 376 214t138 511q0 336 -296 336q-208 0 -344 -220t-137 -472zM99 545q-1 391 213 669t556 277q263 1 405 -139t142 -404q0 -433 -218 -703t-597 -270q-232 1 -366 157t-135 413zM935 1585h-216l205 333h284z" />
    <glyph glyph-name="Ocircumflex" unicode="&#xd4;" horiz-adv-x="1438" 
d="M369 572q0 -169 67 -269t196 -100q238 0 376 214t138 511q0 336 -296 336q-208 0 -344 -220t-137 -472zM99 545q-1 391 213 669t556 277q263 1 405 -139t142 -404q0 -433 -218 -703t-597 -270q-232 1 -366 157t-135 413zM1026 1568l-118 143l-191 -146h-271l432 358h139
l290 -355h-281z" />
    <glyph glyph-name="Otilde" unicode="&#xd5;" horiz-adv-x="1438" 
d="M369 572q0 -169 67 -269t196 -100q238 0 376 214t138 511q0 336 -296 336q-208 0 -344 -220t-137 -472zM99 545q-1 391 213 669t556 277q263 1 405 -139t142 -404q0 -433 -218 -703t-597 -270q-232 1 -366 157t-135 413zM695 1908q49 0 151 -43t129 -43q28 0 57 26t34 60
h162q-19 -87 -90 -170t-150 -83q-32 1 -144 47t-149 46q-56 0 -83 -93h-160q23 105 90 179t153 74z" />
    <glyph glyph-name="Odieresis" unicode="&#xd6;" horiz-adv-x="1438" 
d="M369 572q0 -169 67 -269t196 -100q238 0 376 214t138 511q0 336 -296 336q-208 0 -344 -220t-137 -472zM99 545q-1 391 213 669t556 277q263 1 405 -139t142 -404q0 -433 -218 -703t-597 -270q-232 1 -366 157t-135 413zM515 1770q0 50 45 82q44 32 102 31t103 -31
t45 -80t-45 -82t-103 -32t-102 31t-45 81zM988 1771q0 51 45 81t103 31t102 -31q45 -32 45 -82q-1 -50 -45 -81t-102 -31t-104 31q-44 31 -44 82z" />
    <glyph glyph-name="multiply" unicode="&#xd7;" 
d="M759 629l314 -315l-143 -142l-314 315l-317 -317l-142 141l317 317l-321 321l142 142l321 -321l317 317l143 -141z" />
    <glyph glyph-name="Oslash" unicode="&#xd8;" horiz-adv-x="1438" 
d="M632 203q238 0 376 214t138 511q0 71 -13 127l-629 -819q54 -33 128 -33zM850 1264q-208 0 -344.5 -220t-136.5 -472q0 -88 19 -160l623 816q-65 36 -161 36zM1415 948q0 -433 -218 -703t-597 -270q-142 0 -250 61l-54 -71h-248l156 205q-105 150 -105 375
q0 391 213.5 668.5t555.5 277.5q174 0 296 -62l48 62h256l-149 -194q96 -134 96 -349z" />
    <glyph glyph-name="Ugrave" unicode="&#xd9;" horiz-adv-x="1355" 
d="M612 -25q-228 -1 -358 99t-131 275q0 53 11 113l184 1003h268l-187 -998q-5 -27 -5 -57q0 -99 61 -153t181 -54t208 73q89 73 113 205l183 984h264l-187 -1014q-42 -226 -210 -351q-167 -125 -395 -125zM801 1585l-153 333h280l35 -333h-162z" />
    <glyph glyph-name="Uacute" unicode="&#xda;" horiz-adv-x="1355" 
d="M612 -25q-228 -1 -358 99t-131 275q0 53 11 113l184 1003h268l-187 -998q-5 -27 -5 -57q0 -99 61 -153t181 -54t208 73q89 73 113 205l183 984h264l-187 -1014q-42 -226 -210 -351q-167 -125 -395 -125zM954 1585h-216l205 333h284z" />
    <glyph glyph-name="Ucircumflex" unicode="&#xdb;" horiz-adv-x="1355" 
d="M612 -25q-228 -1 -358 99t-131 275q0 53 11 113l184 1003h268l-187 -998q-5 -27 -5 -57q0 -99 61 -153t181 -54t208 73q89 73 113 205l183 984h264l-187 -1014q-42 -226 -210 -351q-167 -125 -395 -125zM1037 1568l-118 143l-191 -146h-271l432 358h139l290 -355h-281z
" />
    <glyph glyph-name="Udieresis" unicode="&#xdc;" horiz-adv-x="1355" 
d="M612 -25q-228 -1 -358 99t-131 275q0 53 11 113l184 1003h268l-187 -998q-5 -27 -5 -57q0 -99 61 -153t181 -54t208 73q89 73 113 205l183 984h264l-187 -1014q-42 -226 -210 -351q-167 -125 -395 -125zM516 1770q0 50 45 82t103 31t102 -31q45 -30 45 -80t-45 -82
t-103 -32q-59 0 -103 31t-44 81zM989 1771q0 51 45 81q44 30 102 31t103 -31t45 -82t-44 -81t-104 -31q-58 0 -102 31t-45 82z" />
    <glyph glyph-name="Yacute" unicode="&#xdd;" horiz-adv-x="1400" 
d="M848 648l-119 -648h-258l121 656l-345 809h271l236 -573l439 573h297zM920 1585h-216l205 333h284z" />
    <glyph glyph-name="Thorn" unicode="&#xde;" horiz-adv-x="1150" 
d="M559 500q167 0 259.5 90t92.5 254q0 118 -61 174.5t-205 56.5q-66 0 -144 -16l-97 -538q79 -21 155 -21zM664 1296q238 0 377 -111t139 -316q0 -280 -163 -435t-462 -155q-92 0 -193 19l-54 -298h-259l268 1465h259l-32 -178q64 9 120 9z" />
    <glyph glyph-name="germandbls" unicode="&#xdf;" horiz-adv-x="1182" 
d="M598 200q118 0 184.5 85t66.5 220q0 93 -47 137.5t-134 122.5q-63 63 -63 121t53 105l86 74q65 57 65 142q0 78 -115 78q-71 0 -120 -59t-80 -229l-190 -1048q-31 -169 -148 -268.5t-289 -100.5l-19 171q167 34 210 271l192 1070q33 185 154.5 301.5t289.5 116.5
t264.5 -64t96.5 -186q0 -63 -28 -131.5t-158 -206.5q247 -142 247 -378t-138 -400t-361 -164q-112 0 -176 23l84 209q51 -12 73 -12z" />
    <glyph glyph-name="agrave" unicode="&#xe0;" horiz-adv-x="1214" 
d="M699 887q-168 -1 -268 -161t-100 -369q0 -173 170 -173q109 0 189 133t143 550q-71 20 -134 20zM981 302q0 -220 34 -302h-156q-70 0 -104 107q-129 -127 -311 -127t-278 98t-95 273q1 305 185 523t460 217q276 0 396 -50l-124 -657q-7 -37 -7 -82zM662 1285l-153 333
h280l35 -333h-162z" />
    <glyph glyph-name="aacute" unicode="&#xe1;" horiz-adv-x="1214" 
d="M699 887q-168 -1 -268 -161t-100 -369q0 -173 170 -173q109 0 189 133t143 550q-71 20 -134 20zM981 302q0 -220 34 -302h-156q-70 0 -104 107q-129 -127 -311 -127t-278 98t-95 273q1 305 185 523t460 217q276 0 396 -50l-124 -657q-7 -37 -7 -82zM775 1285h-216
l205 333h284z" />
    <glyph glyph-name="acircumflex" unicode="&#xe2;" horiz-adv-x="1214" 
d="M699 887q-168 -1 -268 -161t-100 -369q0 -173 170 -173q109 0 189 133t143 550q-71 20 -134 20zM981 302q0 -220 34 -302h-156q-70 0 -104 107q-129 -127 -311 -127t-278 98t-95 273q1 305 185 523t460 217q276 0 396 -50l-124 -657q-7 -37 -7 -82zM878 1285l-118 143
l-191 -146h-271l432 358h139l290 -355h-281z" />
    <glyph glyph-name="atilde" unicode="&#xe3;" horiz-adv-x="1214" 
d="M699 887q-168 -1 -268 -161t-100 -369q0 -173 170 -173q109 0 189 133t143 550q-71 20 -134 20zM981 302q0 -220 34 -302h-156q-70 0 -104 107q-129 -127 -311 -127t-278 98t-95 273q1 305 185 523t460 217q276 0 396 -50l-124 -657q-7 -37 -7 -82zM567 1538
q49 0 151 -43t129 -43q28 0 57 26t34 60h162q-19 -87 -90 -170t-150 -83q-32 1 -144 47t-149 46q-56 0 -83 -93h-160q23 105 90 179t153 74z" />
    <glyph glyph-name="adieresis" unicode="&#xe4;" horiz-adv-x="1214" 
d="M699 887q-168 -1 -268 -161t-100 -369q0 -173 170 -173q109 0 189 133t143 550q-71 20 -134 20zM981 302q0 -220 34 -302h-156q-70 0 -104 107q-129 -127 -311 -127t-278 98t-95 273q1 305 185 523t460 217q276 0 396 -50l-124 -657q-7 -37 -7 -82zM357 1400q0 50 45 82
q44 32 102 31t103 -31t45 -80t-45 -82t-103 -32t-102 31t-45 81zM830 1401q0 51 45 81t103 31t102 -31q45 -32 45 -82q-1 -50 -45 -81t-102 -31t-104 31q-44 31 -44 82z" />
    <glyph glyph-name="aring" unicode="&#xe5;" horiz-adv-x="1214" 
d="M699 887q-168 -1 -268 -161t-100 -369q0 -173 170 -173q109 0 189 133t143 550q-71 20 -134 20zM981 302q0 -220 34 -302h-156q-70 0 -104 107q-129 -127 -311 -127t-278 98t-95 273q1 305 185 523t460 217q276 0 396 -50l-124 -657q-7 -37 -7 -82zM774 1583
q-51 0 -89 -26q-38 -25 -38 -65t38 -66t89 -26t89 26t38 66t-38 65q-38 26 -89 26zM771 1285q-99 0 -173 60t-74 150q0 89 74 149t174 60t172 -59q73 -59 73 -150q1 -91 -73 -151t-173 -59z" />
    <glyph glyph-name="ae" unicode="&#xe6;" horiz-adv-x="1830" 
d="M729 879q-170 1 -281 -147t-111 -344t120 -196q144 0 282 295q40 107 60 202l28 148q-34 42 -98 42zM1551 784q0 91 -145 91q-91 0 -177 -60.5t-131 -158.5q59 -17 134 -17q319 0 319 145zM1425 1091q157 0 258 -60q126 -73 126 -219q0 -196 -185 -301q-151 -87 -362 -87
q-113 0 -214 35q-2 -19 -2 -38q0 -117 57 -171t189 -54q67 0 152 38t129 81l-31 -277q-128 -58 -292 -58t-243 38t-135 130q-2 -23 17 -148h-93q-68 0 -101 151q-108 -171 -276 -171q-169 0 -261 105t-92 268q0 294 188 516t467 222q157 0 299 -61l-23 -109q163 170 428 170
z" />
    <glyph glyph-name="ccedilla" unicode="&#xe7;" horiz-adv-x="1009" 
d="M715 883q-173 -1 -277 -129t-104 -321q0 -100 59 -171t152 -71q134 0 315 114l-30 -261q-154 -64 -336 -64t-300 112t-119 310q0 299 173 494t453 195q160 0 277 -66l-51 -219q-105 77 -212 77zM300 -332q40 0 96 28t57 80q0 34 -29 64t-64 31l62 86q230 -15 230 -186
q0 -115 -109 -176q-89 -50 -213 -50q-15 0 -87 5v123q17 -5 57 -5z" />
    <glyph glyph-name="egrave" unicode="&#xe8;" horiz-adv-x="1130" 
d="M562 635q106 -1 200 41t94 120q0 87 -190 87q-75 1 -153 -65t-122 -164q65 -19 171 -19zM341 420q1 -112 67 -172t184 -60q63 0 145 34t129 78l-29 -263q-127 -57 -317 -57t-314 125q-123 125 -123 343q-1 276 177 460t465 183q169 1 274 -71t105 -205q0 -181 -156 -284
t-386 -103q-112 0 -219 37q-2 -26 -2 -45zM677 1285l-153 333h280l35 -333h-162z" />
    <glyph glyph-name="eacute" unicode="&#xe9;" horiz-adv-x="1130" 
d="M562 635q106 -1 200 41t94 120q0 87 -190 87q-75 1 -153 -65t-122 -164q65 -19 171 -19zM341 420q1 -112 67 -172t184 -60q63 0 145 34t129 78l-29 -263q-127 -57 -317 -57t-314 125q-123 125 -123 343q-1 276 177 460t465 183q169 1 274 -71t105 -205q0 -181 -156 -284
t-386 -103q-112 0 -219 37q-2 -26 -2 -45zM755 1285h-216l205 333h284z" />
    <glyph glyph-name="ecircumflex" unicode="&#xea;" horiz-adv-x="1130" 
d="M562 635q106 -1 200 41t94 120q0 87 -190 87q-75 1 -153 -65t-122 -164q65 -19 171 -19zM341 420q1 -112 67 -172t184 -60q63 0 145 34t129 78l-29 -263q-127 -57 -317 -57t-314 125q-123 125 -123 343q-1 276 177 460t465 183q169 1 274 -71t105 -205q0 -181 -156 -284
t-386 -103q-112 0 -219 37q-2 -26 -2 -45zM893 1285l-118 143l-191 -146h-271l432 358h139l290 -355h-281z" />
    <glyph glyph-name="edieresis" unicode="&#xeb;" horiz-adv-x="1130" 
d="M562 635q106 -1 200 41t94 120q0 87 -190 87q-75 1 -153 -65t-122 -164q65 -19 171 -19zM341 420q1 -112 67 -172t184 -60q63 0 145 34t129 78l-29 -263q-127 -57 -317 -57t-314 125q-123 125 -123 343q-1 276 177 460t465 183q169 1 274 -71t105 -205q0 -181 -156 -284
t-386 -103q-112 0 -219 37q-2 -26 -2 -45zM317 1400q0 50 45 82q44 32 102 31t103 -31t45 -80t-45 -82t-103 -32t-102 31t-45 81zM790 1401q0 51 45 81t103 31t102 -31q45 -32 45 -82q-1 -50 -45 -81t-102 -31t-104 31q-44 31 -44 82z" />
    <glyph glyph-name="igrave" unicode="&#xec;" horiz-adv-x="669" 
d="M397 0h-254l162 870h-137l42 201h387zM358 1285l-153 333h280l35 -333h-162z" />
    <glyph glyph-name="iacute" unicode="&#xed;" horiz-adv-x="669" 
d="M397 0h-254l162 870h-137l42 201h387zM524 1285h-216l205 333h284z" />
    <glyph glyph-name="icircumflex" unicode="&#xee;" horiz-adv-x="669" 
d="M397 0h-254l162 870h-137l42 201h387zM603 1285l-118 143l-191 -146h-271l432 358h139l290 -355h-281z" />
    <glyph glyph-name="idieresis" unicode="&#xef;" horiz-adv-x="669" 
d="M397 0h-254l162 870h-137l42 201h387zM72 1400q0 50 45 82t103 31t102 -31q45 -30 45 -80t-45 -82t-103 -32q-59 0 -103 31t-44 81zM545 1401q0 51 45 81q44 30 102 31t103 -31t45 -82t-44 -81t-104 -31q-58 0 -102 31t-45 82z" />
    <glyph glyph-name="eth" unicode="&#xf0;" horiz-adv-x="1167" 
d="M332 412q0 -229 197 -229q155 0 246.5 145t91.5 341q0 216 -197 216q-153 0 -245.5 -142t-92.5 -331zM1127 640q0 -279 -178 -469.5t-448 -190.5q-203 0 -316 108.5t-113 311.5q0 289 176.5 488.5t448.5 199.5q54 0 110 -9q-52 120 -82 150l-179 -84l-50 103l169 79
q-45 57 -147 177l272 49q44 -52 99 -122l174 84l59 -110l-170 -80q80 -127 127.5 -316.5t47.5 -368.5z" />
    <glyph glyph-name="ntilde" unicode="&#xf1;" horiz-adv-x="1151" 
d="M819 750q0 133 -157 133q-134 0 -241 -113l-143 -770h-251l151 803q4 21 4 84t-29 164l245 45l23 -120q132 115 331 115q330 0 330 -309q0 -55 -14 -130l-121 -652h-259l117 624q14 75 14 126zM526 1538q48 0 150 -43t130 -43t57 26t34 60h162q-19 -87 -90 -170t-150 -83
q-32 1 -144 47t-149 46q-56 0 -83 -93h-160q23 105 90 179t153 74z" />
    <glyph glyph-name="ograve" unicode="&#xf2;" horiz-adv-x="1167" 
d="M332 413q0 -229 197 -229q156 0 247 144t91 343q0 216 -197 216q-154 -1 -246 -143t-92 -331zM72 401q0 290 177 490t448 200q207 1 319 -107t112 -306q0 -296 -175 -497t-452 -201q-203 0 -316 108t-113 313zM637 1285l-153 333h280l35 -333h-162z" />
    <glyph glyph-name="oacute" unicode="&#xf3;" horiz-adv-x="1167" 
d="M332 413q0 -229 197 -229q156 0 247 144t91 343q0 216 -197 216q-154 -1 -246 -143t-92 -331zM72 401q0 290 177 490t448 200q207 1 319 -107t112 -306q0 -296 -175 -497t-452 -201q-203 0 -316 108t-113 313zM725 1285h-216l205 333h284z" />
    <glyph glyph-name="ocircumflex" unicode="&#xf4;" horiz-adv-x="1167" 
d="M332 413q0 -229 197 -229q156 0 247 144t91 343q0 216 -197 216q-154 -1 -246 -143t-92 -331zM72 401q0 290 177 490t448 200q207 1 319 -107t112 -306q0 -296 -175 -497t-452 -201q-203 0 -316 108t-113 313zM843 1285l-118 143l-191 -146h-271l432 358h139l290 -355
h-281z" />
    <glyph glyph-name="otilde" unicode="&#xf5;" horiz-adv-x="1167" 
d="M332 413q0 -229 197 -229q156 0 247 144t91 343q0 216 -197 216q-154 -1 -246 -143t-92 -331zM72 401q0 290 177 490t448 200q207 1 319 -107t112 -306q0 -296 -175 -497t-452 -201q-203 0 -316 108t-113 313zM552 1538q48 0 150 -43t130 -43t57 26t34 60h162
q-19 -87 -90 -170t-150 -83q-32 1 -144 47t-149 46q-56 0 -83 -93h-160q23 105 90 179t153 74z" />
    <glyph glyph-name="odieresis" unicode="&#xf6;" horiz-adv-x="1167" 
d="M332 413q0 -229 197 -229q156 0 247 144t91 343q0 216 -197 216q-154 -1 -246 -143t-92 -331zM72 401q0 290 177 490t448 200q207 1 319 -107t112 -306q0 -296 -175 -497t-452 -201q-203 0 -316 108t-113 313zM317 1400q0 50 45 82q44 32 102 31t103 -31t45 -80t-45 -82
t-103 -32t-102 31t-45 81zM790 1401q0 51 45 81t103 31t102 -31q45 -32 45 -82q-1 -50 -45 -81t-102 -31t-104 31q-44 31 -44 82z" />
    <glyph glyph-name="divide" unicode="&#xf7;" 
d="M763 230q0 -62 -44 -106.5t-106 -44.5t-106 44.5t-44 106.5t44 106t106 44t106 -44t44 -106zM1062 736v-201h-898v201h898zM763 1020q0 -62 -44 -106.5t-106 -44.5t-106 44.5t-44 106.5t44 106t106 44t106 -44t44 -106z" />
    <glyph glyph-name="oslash" unicode="&#xf8;" horiz-adv-x="1167" 
d="M529 184q156 0 247 144.5t91 342.5q0 27 -3 51l-445 -512q44 -26 110 -26zM670 887q-153 0 -245.5 -142.5t-92.5 -331.5q0 -32 4 -60l444 510q-44 24 -110 24zM1128 678q0 -296 -175 -497t-452 -201q-139 0 -237 52l-58 -67h-208l148 170q-74 104 -74 266q0 290 177 490
t448 200q140 0 238 -50l44 50h206l-131 -151q74 -102 74 -262z" />
    <glyph glyph-name="ugrave" unicode="&#xf9;" horiz-adv-x="1141" 
d="M357 -20q-139 0 -217 79t-78 219q0 44 11 103l129 690h254l-127 -680q-8 -43 -8 -73q0 -130 146 -130q119 0 199 78t101 186l110 619h251l-200 -1072h-250l15 78q-134 -97 -336 -97zM612 1285l-153 333h280l35 -333h-162z" />
    <glyph glyph-name="uacute" unicode="&#xfa;" horiz-adv-x="1141" 
d="M357 -20q-139 0 -217 79t-78 219q0 44 11 103l129 690h254l-127 -680q-8 -43 -8 -73q0 -130 146 -130q119 0 199 78t101 186l110 619h251l-200 -1072h-250l15 78q-134 -97 -336 -97zM735 1285h-216l205 333h284z" />
    <glyph glyph-name="ucircumflex" unicode="&#xfb;" horiz-adv-x="1141" 
d="M357 -20q-139 0 -217 79t-78 219q0 44 11 103l129 690h254l-127 -680q-8 -43 -8 -73q0 -130 146 -130q119 0 199 78t101 186l110 619h251l-200 -1072h-250l15 78q-134 -97 -336 -97zM843 1285l-118 143l-191 -146h-271l432 358h139l290 -355h-281z" />
    <glyph glyph-name="udieresis" unicode="&#xfc;" horiz-adv-x="1141" 
d="M357 -20q-139 0 -217 79t-78 219q0 44 11 103l129 690h254l-127 -680q-8 -43 -8 -73q0 -130 146 -130q119 0 199 78t101 186l110 619h251l-200 -1072h-250l15 78q-134 -97 -336 -97zM277 1400q0 50 45 82q44 32 102 31t103 -31t45 -80t-45 -82t-103 -32t-102 31t-45 81z
M750 1401q0 51 45 81t103 31t102 -31q45 -32 45 -82q-1 -50 -45 -81t-102 -31t-104 31q-44 31 -44 82z" />
    <glyph glyph-name="yacute" unicode="&#xfd;" horiz-adv-x="1155" 
d="M620 -107q-149 -311 -578 -313v241q283 1 363 183l52 120q-137 39 -185 288l-127 659h263q117 -704 149 -735l344 735h283zM710 1285h-216l205 333h284z" />
    <glyph glyph-name="thorn" unicode="&#xfe;" horiz-adv-x="1226" 
d="M489 191q197 0 301.5 119.5t104.5 339.5q0 102 -63 163.5t-173 61.5q-50 0 -119 -32.5t-102 -71.5l-94 -529q49 -51 145 -51zM728 1091q429 0 429 -416q0 -305 -176 -500t-465 -195q-115 0 -211 49l-80 -449h-250l329 1931h259l-95 -518q131 98 260 98z" />
    <glyph glyph-name="ydieresis" unicode="&#xff;" horiz-adv-x="1155" 
d="M620 -107q-149 -311 -578 -313v241q283 1 363 183l52 120q-137 39 -185 288l-127 659h263q117 -704 149 -735l344 735h283zM342 1400q0 50 45 82t103 31t102 -31q45 -30 45 -80t-45 -82t-103 -32q-59 0 -103 31t-44 81zM815 1401q0 51 45 81q44 30 102 31t103 -31t45 -82
t-44 -81t-104 -31q-58 0 -102 31t-45 82z" />
    <glyph glyph-name="Amacron" unicode="&#x100;" horiz-adv-x="1257" 
d="M760 1040l-301 -547h384zM918 0l-46 298h-524l-172 -298h-271l890 1485h93l301 -1485h-271zM1261 1568h-809l38 141h809z" />
    <glyph glyph-name="amacron" unicode="&#x101;" horiz-adv-x="1214" 
d="M699 887q-168 -1 -268 -161t-100 -369q0 -173 170 -173q109 0 189 133t143 550q-71 20 -134 20zM981 302q0 -220 34 -302h-156q-70 0 -104 107q-129 -127 -311 -127t-278 98t-95 273q1 305 185 523t460 217q276 0 396 -50l-124 -657q-7 -37 -7 -82zM1151 1285h-809
l38 141h809z" />
    <glyph glyph-name="Abreve" unicode="&#x102;" horiz-adv-x="1257" 
d="M760 1040l-301 -547h384zM918 0l-46 298h-524l-172 -298h-271l890 1485h93l301 -1485h-271zM755 1837q0 -68 130 -68q162 0 192 141h214q-70 -325 -434 -325q-313 0 -313 236q0 32 13 89h214q-16 -55 -16 -73z" />
    <glyph glyph-name="abreve" unicode="&#x103;" horiz-adv-x="1214" 
d="M699 887q-168 -1 -268 -161t-100 -369q0 -173 170 -173q109 0 189 133t143 550q-71 20 -134 20zM981 302q0 -220 34 -302h-156q-70 0 -104 107q-129 -127 -311 -127t-278 98t-95 273q1 305 185 523t460 217q276 0 396 -50l-124 -657q-7 -37 -7 -82zM646 1537
q0 -68 130 -68q162 0 192 141h214q-70 -325 -434 -325q-313 0 -313 236q0 32 13 89h214q-16 -55 -16 -73z" />
    <glyph glyph-name="Aogonek" unicode="&#x104;" horiz-adv-x="1257" 
d="M760 1040l-301 -547h384zM989 0q-13 0 -48 -20.5t-57 -54.5t-22 -70q0 -44 78 -44t157 61v-205q-131 -40 -225 -40t-170.5 57t-76.5 153q0 193 269 320l-22 141h-524l-172 -298h-271l890 1485h93l301 -1485h-200z" />
    <glyph glyph-name="aogonek" unicode="&#x105;" horiz-adv-x="1214" 
d="M699 887q-168 0 -268 -160.5t-100 -369.5q0 -173 170 -173q108 0 188.5 133t143.5 550q-71 20 -134 20zM444 -20q-182 0 -277.5 98t-95.5 273q0 305 184.5 522.5t460.5 217.5t396 -50l-124 -657q-7 -37 -7 -82q0 -220 34 -302h-6q-13 0 -48 -20.5t-57 -54.5t-22 -70
q0 -44 78 -44t157 61v-205q-131 -40 -225 -40t-170.5 57t-76.5 153q0 131 133 219q-14 23 -23 51q-129 -127 -311 -127z" />
    <glyph glyph-name="Cacute" unicode="&#x106;" horiz-adv-x="1255" 
d="M912 1264q-226 0 -378 -214t-152 -476q0 -169 83 -270t231 -101q230 0 361 125l-5 -229q-142 -124 -394 -124q-252 1 -399 157q-146 156 -146 406q1 404 225 678t586 274q177 0 314 -58l-73 -249q-114 81 -253 81zM963 1585h-216l205 333h284z" />
    <glyph glyph-name="cacute" unicode="&#x107;" horiz-adv-x="1009" 
d="M715 883q-173 -1 -277 -129t-104 -321q0 -100 59 -171t152 -71q134 0 315 114l-30 -261q-154 -64 -336 -64t-300 112t-119 310q0 299 173 494t453 195q160 0 277 -66l-51 -219q-105 77 -212 77zM710 1285h-216l205 333h284z" />
    <glyph glyph-name="Ccircumflex" unicode="&#x108;" horiz-adv-x="1255" 
d="M912 1264q-226 0 -378 -214t-152 -476q0 -169 83 -270t231 -101q230 0 361 125l-5 -229q-142 -124 -394 -124q-252 1 -399 157q-146 156 -146 406q1 404 225 678t586 274q177 0 314 -58l-73 -249q-114 81 -253 81zM1023 1568l-118 143l-191 -146h-271l432 358h139
l290 -355h-281z" />
    <glyph glyph-name="ccircumflex" unicode="&#x109;" horiz-adv-x="1009" 
d="M715 883q-173 -1 -277 -129t-104 -321q0 -100 59 -171t152 -71q134 0 315 114l-30 -261q-154 -64 -336 -64t-300 112t-119 310q0 299 173 494t453 195q160 0 277 -66l-51 -219q-105 77 -212 77zM819 1285l-118 143l-191 -146h-271l432 358h139l290 -355h-281z" />
    <glyph glyph-name="Cdot" unicode="&#x10a;" horiz-adv-x="1255" 
d="M912 1264q-226 0 -378 -214t-152 -476q0 -169 83 -270t231 -101q230 0 361 125l-5 -229q-142 -124 -394 -124q-252 1 -399 157q-146 156 -146 406q1 404 225 678t586 274q177 0 314 -58l-73 -249q-114 81 -253 81zM738 1702q0 52 46 86q46 32 105 32t107 -32t47 -85
q-1 -52 -47 -85t-106 -33q-60 1 -106 33t-46 84z" />
    <glyph glyph-name="cdot" unicode="&#x10b;" horiz-adv-x="1009" 
d="M715 883q-173 -1 -277 -129t-104 -321q0 -100 59 -171t152 -71q134 0 315 114l-30 -261q-154 -64 -336 -64t-300 112t-119 310q0 299 173 494t453 195q160 0 277 -66l-51 -219q-105 77 -212 77zM549 1402q0 52 46 86q46 32 105 32q58 0 106 -32t48 -85q0 -52 -46 -85
t-106 -33q-60 1 -106 33t-47 84z" />
    <glyph glyph-name="Ccaron" unicode="&#x10c;" horiz-adv-x="1255" 
d="M912 1264q-226 0 -378 -214t-152 -476q0 -169 83 -270t231 -101q230 0 361 125l-5 -229q-142 -124 -394 -124q-252 1 -399 157q-146 156 -146 406q1 404 225 678t586 274q177 0 314 -58l-73 -249q-114 81 -253 81zM951 1565h-140l-281 358h255l130 -146l178 143h298z" />
    <glyph glyph-name="ccaron" unicode="&#x10d;" horiz-adv-x="1009" 
d="M715 883q-173 -1 -277 -129t-104 -321q0 -100 59 -171t152 -71q134 0 315 114l-30 -261q-154 -64 -336 -64t-300 112t-119 310q0 299 173 494t453 195q160 0 277 -66l-51 -219q-105 77 -212 77zM743 1285h-140l-281 358h255l130 -146l178 143h298z" />
    <glyph glyph-name="Dcaron" unicode="&#x10e;" horiz-adv-x="1295" 
d="M429 229q268 0 426 189t158 485q0 162 -109 260t-280 98q-48 0 -97 -10l-178 -1018q44 -4 80 -4zM397 0h-354l267 1462q146 26 274 26q335 0 518 -153t183 -443q0 -408 -242 -650t-646 -242zM770 1565h-140l-281 358h255l130 -146l178 143h298z" />
    <glyph glyph-name="dcaron" unicode="&#x10f;" horiz-adv-x="1446" 
d="M707 880q-173 0 -275 -127t-103 -323q0 -244 202 -244q218 0 283 348l48 256q-48 90 -155 90zM466 -20q-190 0 -296 110t-106 301q0 307 171 503t455 197q54 0 121 -21t97 -46l92 486h242l-273 -1510h-249l19 100q-83 -120 -273 -120zM1430 1256q0 26 -34 60t-35 76
q0 118 117 118q123 0 123 -139q0 -196 -204 -323l-63 85q66 49 81 73t15 50z" />
    <glyph glyph-name="Dslash" unicode="&#x110;" horiz-adv-x="1340" 
d="M429 229q268 0 426 189t158 485q0 162 -109 260t-280 98q-48 0 -97 -10l-62 -356h273l-40 -223h-272l-77 -439q44 -4 80 -4zM584 1488q335 0 518 -153t183 -443q0 -408 -242 -650t-646 -242h-354l123 672h-131l40 223h132l103 567q146 26 274 26z" />
    <glyph glyph-name="dcroat" unicode="&#x111;" horiz-adv-x="1215" 
d="M707 880q-173 0 -275.5 -127t-102.5 -323q0 -244 202 -244q218 0 283 348l48 256q-48 90 -155 90zM466 -20q-190 0 -296 110.5t-106 300.5q0 307 171 503.5t455 196.5q54 0 121 -21t97 -46l33 174h-271l30 150h269l31 162h242l-29 -162h145l-30 -150h-142l-217 -1198
h-249l19 100q-83 -120 -273 -120z" />
    <glyph glyph-name="Emacron" unicode="&#x112;" horiz-adv-x="1215" 
d="M1212 1237h-675l-61 -337h484l-41 -218h-484l-82 -454h664l-43 -228h-932l270 1465h943zM1201 1568h-809l38 141h809z" />
    <glyph glyph-name="emacron" unicode="&#x113;" horiz-adv-x="1130" 
d="M562 635q106 -1 200 41t94 120q0 87 -190 87q-75 1 -153 -65t-122 -164q65 -19 171 -19zM341 420q1 -112 67 -172t184 -60q63 0 145 34t129 78l-29 -263q-127 -57 -317 -57t-314 125q-123 125 -123 343q-1 276 177 460t465 183q169 1 274 -71t105 -205q0 -181 -156 -284
t-386 -103q-112 0 -219 37q-2 -26 -2 -45zM1151 1285h-809l38 141h809z" />
    <glyph glyph-name="Ebreve" unicode="&#x114;" horiz-adv-x="1215" 
d="M1212 1237h-675l-61 -337h484l-41 -218h-484l-82 -454h664l-43 -228h-932l270 1465h943zM696 1837q0 -68 130 -68q162 0 192 141h214q-70 -325 -434 -325q-313 0 -313 236q0 32 13 89h214q-16 -55 -16 -73z" />
    <glyph glyph-name="ebreve" unicode="&#x115;" horiz-adv-x="1130" 
d="M562 635q106 -1 200 41t94 120q0 87 -190 87q-75 1 -153 -65t-122 -164q65 -19 171 -19zM341 420q1 -112 67 -172t184 -60q63 0 145 34t129 78l-29 -263q-127 -57 -317 -57t-314 125q-123 125 -123 343q-1 276 177 460t465 183q169 1 274 -71t105 -205q0 -181 -156 -284
t-386 -103q-112 0 -219 37q-2 -26 -2 -45zM646 1537q0 -68 130 -68q162 0 192 141h214q-70 -325 -434 -325q-313 0 -313 236q0 32 13 89h214q-16 -55 -16 -73z" />
    <glyph glyph-name="Edot" unicode="&#x116;" horiz-adv-x="1215" 
d="M1212 1237h-675l-61 -337h484l-41 -218h-484l-82 -454h664l-43 -228h-932l270 1465h943zM648 1702q0 52 46 86q46 32 105 32t107 -32t47 -85q-1 -52 -47 -85t-106 -33q-60 1 -106 33t-46 84z" />
    <glyph glyph-name="edot" unicode="&#x117;" horiz-adv-x="1130" 
d="M562 635q106 -1 200 41t94 120q0 87 -190 87q-75 1 -153 -65t-122 -164q65 -19 171 -19zM341 420q1 -112 67 -172t184 -60q63 0 145 34t129 78l-29 -263q-127 -57 -317 -57t-314 125q-123 125 -123 343q-1 276 177 460t465 183q169 1 274 -71t105 -205q0 -181 -156 -284
t-386 -103q-112 0 -219 37q-2 -26 -2 -45zM596 1402q0 52 46 86q46 32 105 32t107 -32t47 -85q-1 -52 -47 -85t-106 -33q-60 1 -106 33t-46 84z" />
    <glyph glyph-name="Eogonek" unicode="&#x118;" horiz-adv-x="1215" 
d="M889 0q-13 0 -48 -20.5t-57 -54.5t-22 -70q0 -44 78 -44t157 61v-205q-131 -40 -225 -40t-170.5 57.5t-76.5 149.5t56 166h-539l270 1465h943l-43 -228h-675l-61 -337h484l-41 -218h-484l-82 -454h664l-43 -228h-85z" />
    <glyph glyph-name="eogonek" unicode="&#x119;" horiz-adv-x="1130" 
d="M562 635q106 0 200 41.5t94 119.5q0 87 -190 87q-75 0 -153 -65.5t-122 -163.5q65 -19 171 -19zM83 448q0 276 177.5 459.5t464.5 183.5q169 0 274 -71.5t105 -204.5q0 -181 -156.5 -284t-385.5 -103q-112 0 -219 37q-2 -26 -2 -45q0 -112 66.5 -172t184.5 -60
q63 0 145 34.5t129 77.5l-29 -263q-62 -28 -158 -44q-107 -43 -107 -138q0 -44 78 -44t157 61v-205q-131 -40 -225 -40t-170.5 57t-76.5 149t55 165q-145 41 -226 158t-81 292z" />
    <glyph glyph-name="Ecaron" unicode="&#x11a;" horiz-adv-x="1215" 
d="M1212 1237h-675l-61 -337h484l-41 -218h-484l-82 -454h664l-43 -228h-932l270 1465h943zM841 1565h-140l-281 358h255l130 -146l178 143h298z" />
    <glyph glyph-name="ecaron" unicode="&#x11b;" horiz-adv-x="1130" 
d="M562 635q106 -1 200 41t94 120q0 87 -190 87q-75 1 -153 -65t-122 -164q65 -19 171 -19zM341 420q1 -112 67 -172t184 -60q63 0 145 34t129 78l-29 -263q-127 -57 -317 -57t-314 125q-123 125 -123 343q-1 276 177 460t465 183q169 1 274 -71t105 -205q0 -181 -156 -284
t-386 -103q-112 0 -219 37q-2 -26 -2 -45zM838 1285h-140l-281 358h255l130 -146l178 143h298z" />
    <glyph glyph-name="Gcircumflex" unicode="&#x11c;" horiz-adv-x="1385" 
d="M651 -25q-251 -1 -409 161t-158 410q0 436 240 690t652 254q224 0 333 -100l-78 -217q-147 89 -293 89q-264 0 -424 -194t-160 -484q0 -180 99 -280t257 -101q158 0 264 79l53 290h-203l40 218h461l-121 -657q-226 -158 -553 -158zM1020 1568l-118 143l-191 -146h-271
l432 358h139l290 -355h-281z" />
    <glyph glyph-name="gcircumflex" unicode="&#x11d;" horiz-adv-x="1096" 
d="M368 645q0 -97 36 -148t99 -51q110 0 182 88t72 212q0 141 -147 141q-110 -1 -176 -73t-66 -169zM1017 765q1 -156 -67 -270t-223 -185t-170 -96q68 13 106 13q112 -1 191 -69t79 -174q-1 -194 -137 -299t-395 -105q-97 0 -213 38t-188 94l109 189q143 -102 297 -102
q278 0 278 150q0 63 -115 85l-191 34q-107 33 -107 124q0 53 88 107q-109 31 -177 117t-68 190q0 216 143 350t367 135q138 0 233 -59l94 102l147 -146l-103 -103q22 -50 22 -120zM783 1285l-118 143l-191 -146h-271l432 358h139l290 -355h-281z" />
    <glyph glyph-name="Gbreve" unicode="&#x11e;" horiz-adv-x="1385" 
d="M651 -25q-251 -1 -409 161t-158 410q0 436 240 690t652 254q224 0 333 -100l-78 -217q-147 89 -293 89q-264 0 -424 -194t-160 -484q0 -180 99 -280t257 -101q158 0 264 79l53 290h-203l40 218h461l-121 -657q-226 -158 -553 -158zM779 1837q0 -68 130 -68q162 0 192 141
h214q-70 -325 -434 -325q-313 0 -313 236q0 32 13 89h214q-16 -55 -16 -73z" />
    <glyph glyph-name="gbreve" unicode="&#x11f;" horiz-adv-x="1096" 
d="M368 645q0 -97 36 -148t99 -51q110 0 182 88t72 212q0 141 -147 141q-110 -1 -176 -73t-66 -169zM1017 765q1 -156 -67 -270t-223 -185t-170 -96q68 13 106 13q112 -1 191 -69t79 -174q-1 -194 -137 -299t-395 -105q-97 0 -213 38t-188 94l109 189q143 -102 297 -102
q278 0 278 150q0 63 -115 85l-191 34q-107 33 -107 124q0 53 88 107q-109 31 -177 117t-68 190q0 216 143 350t367 135q138 0 233 -59l94 102l147 -146l-103 -103q22 -50 22 -120zM560 1537q0 -68 130 -68q162 0 192 141h214q-70 -325 -434 -325q-313 0 -313 236q0 32 13 89
h214q-16 -55 -16 -73z" />
    <glyph glyph-name="Gdot" unicode="&#x120;" horiz-adv-x="1385" 
d="M651 -25q-251 -1 -409 161t-158 410q0 436 240 690t652 254q224 0 333 -100l-78 -217q-147 89 -293 89q-264 0 -424 -194t-160 -484q0 -180 99 -280t257 -101q158 0 264 79l53 290h-203l40 218h461l-121 -657q-226 -158 -553 -158zM748 1702q0 52 46 86q46 32 105 32
t107 -32t47 -85q-1 -52 -47 -85t-106 -33q-60 1 -106 33t-46 84z" />
    <glyph glyph-name="gdot" unicode="&#x121;" horiz-adv-x="1096" 
d="M368 645q0 -97 36 -148t99 -51q110 0 182 88t72 212q0 141 -147 141q-110 -1 -176 -73t-66 -169zM1017 765q1 -156 -67 -270t-223 -185t-170 -96q68 13 106 13q112 -1 191 -69t79 -174q-1 -194 -137 -299t-395 -105q-97 0 -213 38t-188 94l109 189q143 -102 297 -102
q278 0 278 150q0 63 -115 85l-191 34q-107 33 -107 124q0 53 88 107q-109 31 -177 117t-68 190q0 216 143 350t367 135q138 0 233 -59l94 102l147 -146l-103 -103q22 -50 22 -120zM528 1402q0 52 46 86q46 32 105 32t107 -32t47 -85q-1 -52 -47 -85t-106 -33q-60 1 -106 33
t-46 84z" />
    <glyph glyph-name="Gcedilla" unicode="&#x122;" horiz-adv-x="1385" 
d="M651 -25q-251 -1 -409 161t-158 410q0 436 240 690t652 254q224 0 333 -100l-78 -217q-147 89 -293 89q-264 0 -424 -194t-160 -484q0 -180 99 -280t257 -101q158 0 264 79l53 290h-203l40 218h461l-121 -657q-226 -158 -553 -158zM456 -332q40 0 96 28t56 80
q0 34 -29 64t-64 31l62 86q230 -15 230 -186q0 -115 -109 -176q-89 -50 -213 -50q-15 0 -87 5v123q18 -5 58 -5z" />
    <glyph glyph-name="gcedilla" unicode="&#x123;" horiz-adv-x="1096" 
d="M368 645q0 -97 36 -148t99 -51q110 0 182 88t72 212q0 141 -147 141q-110 -1 -176 -73t-66 -169zM1017 765q1 -156 -67 -270t-223 -185t-170 -96q68 13 106 13q112 -1 191 -69t79 -174q-1 -194 -137 -299t-395 -105q-97 0 -213 38t-188 94l109 189q143 -102 297 -102
q278 0 278 150q0 63 -115 85l-191 34q-107 33 -107 124q0 53 88 107q-109 31 -177 117t-68 190q0 216 143 350t367 135q138 0 233 -59l94 102l147 -146l-103 -103q22 -50 22 -120zM689 1496q-1 -28 37 -68t38 -92q0 -53 -40 -87t-93 -34q-128 0 -128 164q0 194 204 336
l77 -101q-95 -90 -95 -118z" />
    <glyph glyph-name="Hcircumflex" unicode="&#x124;" horiz-adv-x="1389" 
d="M1162 0h-263l125 682h-582l-125 -682h-264l269 1465h264l-104 -565h582l104 565h265zM1043 1568l-118 143l-191 -146h-271l432 358h139l290 -355h-281z" />
    <glyph glyph-name="hcircumflex" unicode="&#x125;" horiz-adv-x="1151" 
d="M832 730q0 150 -150 150q-135 0 -243 -114l-142 -766h-255l272 1510h249l-82 -504q133 85 284 85t239 -86t87 -240q0 -51 -11 -110l-123 -655h-257l126 665q6 32 6 65zM883 1588l-118 143l-191 -146h-271l432 358h139l290 -355h-281z" />
    <glyph glyph-name="Hbar" unicode="&#x126;" horiz-adv-x="1432" 
d="M1122 1102h-585l-37 -202h585zM1567 1257l-31 -155h-150l-204 -1102h-262l124 682h-583l-125 -682h-264l202 1102h-151l31 155h147l39 207h264l-39 -207h586l37 207h264l-37 -207h152z" />
    <glyph glyph-name="hbar" unicode="&#x127;" horiz-adv-x="1151" 
d="M813 661q-1 70 -43 120t-144 50t-203 -112l-126 -719h-255l208 1184h-151l29 159h151l35 189h255l-34 -189h390l-28 -159h-390l-43 -236q115 88 252 88q187 0 285 -116q67 -81 67 -222q0 -51 -10 -106l-101 -592h-257l107 604q6 30 6 57z" />
    <glyph glyph-name="Itilde" unicode="&#x128;" horiz-adv-x="570" 
d="M329 0h-261l269 1465h262zM361 1908q49 0 151 -43t129 -43q28 0 57 26t34 60h162q-19 -87 -90 -170t-150 -83q-32 1 -144 47t-149 46q-56 0 -83 -93h-160q23 105 90 179t153 74z" />
    <glyph glyph-name="itilde" unicode="&#x129;" horiz-adv-x="669" 
d="M397 0h-254l162 870h-137l42 201h387zM344 1538q48 0 150 -43t130 -43t57 26t34 60h162q-19 -87 -90 -170t-150 -83q-32 1 -144 47t-149 46q-56 0 -83 -93h-160q23 105 90 179t153 74z" />
    <glyph glyph-name="Imacron" unicode="&#x12a;" horiz-adv-x="570" 
d="M329 0h-261l269 1465h262zM872 1568h-809l38 141h809z" />
    <glyph glyph-name="imacron" unicode="&#x12b;" horiz-adv-x="669" 
d="M397 0h-254l162 870h-137l42 201h387zM861 1285h-809l38 141h809z" />
    <glyph glyph-name="Ibreve" unicode="&#x12c;" horiz-adv-x="570" 
d="M329 0h-261l269 1465h262zM386 1837q0 -68 130 -68q162 0 192 141h214q-70 -325 -434 -325q-313 0 -313 236q0 32 13 89h214q-16 -55 -16 -73z" />
    <glyph glyph-name="ibreve" unicode="&#x12d;" horiz-adv-x="669" 
d="M397 0h-254l162 870h-137l42 201h387zM356 1537q0 -68 130 -68q162 0 192 141h214q-70 -325 -434 -325q-313 0 -313 236q0 32 13 89h214q-16 -55 -16 -73z" />
    <glyph glyph-name="Iogonek" unicode="&#x12e;" horiz-adv-x="570" 
d="M202 -145q0 -44 78 -44t157 61v-205q-132 -40 -222 -40t-170 54t-80 167t113 211l259 1406h262l-270 -1465q-51 -14 -89 -54t-38 -91z" />
    <glyph glyph-name="iogonek" unicode="&#x12f;" horiz-adv-x="669" 
d="M265 -145q-1 -44 77 -44t158 61v-205q-132 -40 -222 -40t-170 54t-80 156q0 133 128 235l149 798h-137l42 201h387l-200 -1071h-5q-51 -14 -89 -54t-38 -91zM649 1416q0 -64 -48.5 -110t-116.5 -46t-114 43t-46 111t47 112.5t114 44.5t115.5 -45.5t48.5 -109.5z" />
    <glyph glyph-name="Idotaccent" unicode="&#x130;" horiz-adv-x="570" 
d="M329 0h-261l269 1465h262zM348 1772q0 52 46 86q46 32 105 32t107 -32t47 -85q-1 -52 -47 -85t-106 -33q-60 1 -106 33t-46 84z" />
    <glyph glyph-name="dotlessi" unicode="&#x131;" horiz-adv-x="669" 
d="M397 0h-254l162 870h-137l42 201h387z" />
    <glyph glyph-name="IJ" unicode="&#x132;" horiz-adv-x="1550" 
d="M329 0h-261l269 1465h262zM862 208q170 0 224 112q28 56 58 230l167 915h258l-168 -916q-63 -345 -195 -457t-374 -112q-142 0 -227 76t-85 206q0 30 6 74h229q-2 -128 107 -128z" />
    <glyph glyph-name="ij" unicode="&#x133;" horiz-adv-x="1290" 
d="M397 0h-254l162 870h-137l42 201h387zM323 1415q-1 67 47 111t116 45q68 -1 115 -45q48 -44 48 -110t-48 -112q-48 -45 -115 -45q-67 1 -115 45t-48 111zM1008 15q-41 -223 -191 -329t-466 -106l11 221q140 0 216 19q152 38 182 201l152 849h-144l47 201h389zM940 1413
q0 67 48 113t115 45q67 1 115 -45t48 -113t-48 -112t-115 -45t-115 45t-48 112z" />
    <glyph glyph-name="Jcircumflex" unicode="&#x134;" horiz-adv-x="1021" 
d="M333 208q169 0 223 112q28 56 59 230l167 915h258l-168 -916q-62 -345 -194 -457t-375 -112q-142 0 -227 76t-85 206q0 30 6 74h229q-2 -128 107 -128zM1003 1568l-118 143l-191 -146h-271l432 358h139l290 -355h-281z" />
    <glyph glyph-name="jcircumflex" unicode="&#x135;" horiz-adv-x="794" 
d="M512 15q-41 -223 -191 -329t-466 -106l11 221q140 0 216 19q152 38 182 201l152 849h-144l47 201h389zM663 1285l-118 143l-191 -146h-271l432 358h139l290 -355h-281z" />
    <glyph glyph-name="Kcedilla" unicode="&#x136;" horiz-adv-x="1331" 
d="M815 821l364 -821h-293l-274 626l-208 -229l-74 -397h-260l269 1465h260l-121 -666l608 666h308zM382 -332q40 0 96 28t56 80q0 34 -29 64t-64 31l62 86q230 -15 230 -186q0 -115 -109 -176q-89 -50 -213 -50q-15 0 -87 5v123q18 -5 58 -5z" />
    <glyph glyph-name="kcedilla" unicode="&#x137;" horiz-adv-x="1105" 
d="M763 0l-339 441l-42 -35l-71 -406h-251l262 1510h246l-129 -795l189 164q193 168 256 256l175 -151q-44 -54 -442 -405l442 -579h-296zM322 -332q40 0 96 28t56 80q0 34 -29 64t-64 31l62 86q230 -15 230 -186q0 -115 -109 -176q-89 -50 -213 -50q-15 0 -87 5v123
q18 -5 58 -5z" />
    <glyph glyph-name="kgreenlandic" unicode="&#x138;" horiz-adv-x="1176" 
d="M795 0l-260 451l-177 -134l-59 -317h-250l195 1071h250l-84 -469q356 292 439 366t130 134l168 -166q-80 -95 -420 -354l354 -582h-286z" />
    <glyph glyph-name="Lacute" unicode="&#x139;" horiz-adv-x="1082" 
d="M974 0h-924l269 1465h262l-227 -1237h662zM632 1585h-216l205 333h284z" />
    <glyph glyph-name="lacute" unicode="&#x13a;" horiz-adv-x="655" 
d="M298 -10q-90 0 -142 59t-52 167t48 337l201 957h248l-206 -997q-44 -213 -44 -287t36 -108t90 -34q-59 -94 -179 -94zM673 1585h-216l205 333h284z" />
    <glyph glyph-name="Lcedilla" unicode="&#x13b;" horiz-adv-x="1082" 
d="M974 0h-924l269 1465h262l-227 -1237h662zM296 -332q40 0 96 28t56 80q0 34 -29 64t-64 31l62 86q230 -15 230 -186q0 -115 -109 -176q-89 -50 -213 -50q-15 0 -87 5v123q18 -5 58 -5z" />
    <glyph glyph-name="lcedilla" unicode="&#x13c;" horiz-adv-x="655" 
d="M298 -10q-90 0 -142 59t-52 167t48 337l201 957h248l-206 -997q-44 -213 -44 -287t36 -108t90 -34q-59 -94 -179 -94zM86 -332q40 0 96 28t56 80q0 34 -29 64t-64 31l62 86q230 -15 230 -186q0 -115 -109 -176q-89 -50 -213 -50q-15 0 -87 5v123q18 -5 58 -5z" />
    <glyph glyph-name="Lcaron" unicode="&#x13d;" horiz-adv-x="1082" 
d="M974 0h-924l269 1465h262l-227 -1237h662zM887 1256q-1 26 -35 60t-34 76q0 118 117 118q123 0 123 -139q0 -196 -204 -323l-63 85q66 49 81 73t15 50z" />
    <glyph glyph-name="lcaron" unicode="&#x13e;" horiz-adv-x="830" 
d="M298 -10q-90 0 -142 59t-52 167t48 337l201 957h248l-206 -997q-44 -213 -44 -287t36 -108t90 -34q-59 -94 -179 -94zM798 1256q0 26 -34 60t-35 76q0 118 117 118q123 0 123 -139q0 -196 -204 -323l-63 85q66 49 81 73t15 50z" />
    <glyph glyph-name="Ldot" unicode="&#x13f;" horiz-adv-x="1082" 
d="M974 0h-924l269 1465h262l-227 -1237h662zM864 961q62 1 106 -43t44 -107t-44 -107t-106 -44t-106 44t-44 107q0 62 44 106t106 44z" />
    <glyph glyph-name="ldot" unicode="&#x140;" horiz-adv-x="915" 
d="M291 -10q-90 0 -142 59t-52 167t48 337l201 957h248l-206 -997q-44 -213 -44 -287t36 -108t90 -34q-59 -94 -179 -94zM786 961q62 1 106 -43t43 -107q1 -63 -43 -107t-106 -44t-107 44q-44 44 -44 107q0 62 44 106q45 44 107 44z" />
    <glyph glyph-name="Lslash" unicode="&#x141;" horiz-adv-x="1082" 
d="M661 887l-202 -87l-105 -572h662l-42 -228h-924l124 677l-163 -70v168l197 85l111 605h262l-88 -481l168 75v-172z" />
    <glyph glyph-name="lslash" unicode="&#x142;" horiz-adv-x="655" 
d="M298 -10q-90 0 -142 59t-52 167t48 337l29 138l-148 -71l-1 195l194 90l127 605h248l-98 -477l163 76v-185l-206 -99l-65 -312q-44 -211 -44 -287t36 -109t90 -33q-59 -94 -179 -94z" />
    <glyph glyph-name="Nacute" unicode="&#x143;" horiz-adv-x="1352" 
d="M1113 -20h-101l-540 947l-162 -927h-258l269 1465h120l529 -908l159 908h257zM922 1585h-216l205 333h284z" />
    <glyph glyph-name="nacute" unicode="&#x144;" horiz-adv-x="1151" 
d="M819 750q0 133 -157 133q-134 0 -241 -113l-143 -770h-251l151 803q4 21 4 84t-29 164l245 45l23 -120q132 115 331 115q330 0 330 -309q0 -55 -14 -130l-121 -652h-259l117 624q14 75 14 126zM774 1285h-216l205 333h284z" />
    <glyph glyph-name="Ncedilla" unicode="&#x145;" horiz-adv-x="1352" 
d="M1113 -20h-101l-540 947l-162 -927h-258l269 1465h120l529 -908l159 908h257zM416 -332q40 0 96 28t56 80q0 34 -29 64t-64 31l62 86q230 -15 230 -186q0 -115 -109 -176q-89 -50 -213 -50q-15 0 -87 5v123q18 -5 58 -5z" />
    <glyph glyph-name="ncedilla" unicode="&#x146;" horiz-adv-x="1151" 
d="M819 750q0 133 -157 133q-134 0 -241 -113l-143 -770h-251l151 803q4 21 4 84t-29 164l245 45l23 -120q132 115 331 115q330 0 330 -309q0 -55 -14 -130l-121 -652h-259l117 624q14 75 14 126zM276 -332q40 0 96 28t56 80q0 34 -29 64t-64 31l62 86q230 -15 230 -186
q0 -115 -109 -176q-89 -50 -213 -50q-15 0 -87 5v123q18 -5 58 -5z" />
    <glyph glyph-name="Ncaron" unicode="&#x147;" horiz-adv-x="1352" 
d="M1113 -20h-101l-540 947l-162 -927h-258l269 1465h120l529 -908l159 908h257zM902 1565h-140l-281 358h255l130 -146l178 143h298z" />
    <glyph glyph-name="ncaron" unicode="&#x148;" horiz-adv-x="1151" 
d="M819 750q0 133 -157 133q-134 0 -241 -113l-143 -770h-251l151 803q4 21 4 84t-29 164l245 45l23 -120q132 115 331 115q330 0 330 -309q0 -55 -14 -130l-121 -652h-259l117 624q14 75 14 126zM748 1285h-140l-281 358h255l130 -146l178 143h298z" />
    <glyph glyph-name="napostrophe" unicode="&#x149;" horiz-adv-x="1341" 
d="M96 1256q0 26 -34 60t-35 76q0 118 117 118q123 0 123 -139q0 -196 -204 -323l-63 85q66 49 81 73t15 50zM1009 750q0 133 -157 133q-134 0 -241 -113l-143 -770h-251l151 803q4 21 4 84t-29 164l245 45l23 -120q132 115 331 115q330 0 330 -309q0 -55 -14 -130
l-121 -652h-259l117 624q14 75 14 126z" />
    <glyph glyph-name="Eng" unicode="&#x14a;" horiz-adv-x="1378" 
d="M1073 1053q0 207 -244 207q-80 0 -169.5 -42t-145.5 -104l-199 -1114h-262l260 1464h174l29 -125q172 152 402 152t344 -145q79 -102 79 -261q0 -62 -12 -131l-102 -571q-74 -414 -430 -414q-140 0 -228 92l121 179q55 -47 111 -47q130 0 162 182l94 536q16 94 16 142z
" />
    <glyph glyph-name="eng" unicode="&#x14b;" horiz-adv-x="1151" 
d="M819 750q0 133 -157 133q-137 0 -240 -113l-143 -770h-252l151 803q4 22 4 82t-28 166l243 45l25 -119q133 115 330 115q330 0 330 -310q0 -53 -14 -131l-106 -579q-48 -260 -182 -376t-372 -116l44 215q201 0 253 281l100 549q14 78 14 125z" />
    <glyph glyph-name="Omacron" unicode="&#x14c;" horiz-adv-x="1438" 
d="M369 572q0 -169 67 -269t196 -100q238 0 376 214t138 511q0 336 -296 336q-208 0 -344 -220t-137 -472zM99 545q-1 391 213 669t556 277q263 1 405 -139t142 -404q0 -433 -218 -703t-597 -270q-232 1 -366 157t-135 413zM1291 1568h-809l38 141h809z" />
    <glyph glyph-name="omacron" unicode="&#x14d;" horiz-adv-x="1167" 
d="M332 413q0 -229 197 -229q156 0 247 144t91 343q0 216 -197 216q-154 -1 -246 -143t-92 -331zM72 401q0 290 177 490t448 200q207 1 319 -107t112 -306q0 -296 -175 -497t-452 -201q-203 0 -316 108t-113 313zM1129 1285h-809l38 141h809z" />
    <glyph glyph-name="Obreve" unicode="&#x14e;" horiz-adv-x="1438" 
d="M369 572q0 -169 67 -269t196 -100q238 0 376 214t138 511q0 336 -296 336q-208 0 -344 -220t-137 -472zM99 545q-1 391 213 669t556 277q263 1 405 -139t142 -404q0 -433 -218 -703t-597 -270q-232 1 -366 157t-135 413zM786 1837q0 -68 130 -68q162 0 192 141h214
q-70 -325 -434 -325q-313 0 -313 236q0 32 13 89h214q-16 -55 -16 -73z" />
    <glyph glyph-name="obreve" unicode="&#x14f;" horiz-adv-x="1167" 
d="M332 413q0 -229 197 -229q156 0 247 144t91 343q0 216 -197 216q-154 -1 -246 -143t-92 -331zM72 401q0 290 177 490t448 200q207 1 319 -107t112 -306q0 -296 -175 -497t-452 -201q-203 0 -316 108t-113 313zM616 1537q0 -68 130 -68q162 0 192 141h214
q-70 -325 -434 -325q-313 0 -313 236q0 32 13 89h214q-16 -55 -16 -73z" />
    <glyph glyph-name="Odblacute" unicode="&#x150;" horiz-adv-x="1438" 
d="M369 572q0 -169 67 -269t196 -100q238 0 376 214t138 511q0 336 -296 336q-208 0 -344 -220t-137 -472zM99 545q-1 391 213 669t556 277q263 1 405 -139t142 -404q0 -433 -218 -703t-597 -270q-232 1 -366 157t-135 413zM822 1585h-215l177 283h286zM1192 1585h-215
l177 283h286z" />
    <glyph glyph-name="odblacute" unicode="&#x151;" horiz-adv-x="1167" 
d="M332 413q0 -229 197 -229q156 0 247 144t91 343q0 216 -197 216q-154 -1 -246 -143t-92 -331zM72 401q0 290 177 490t448 200q207 1 319 -107t112 -306q0 -296 -175 -497t-452 -201q-203 0 -316 108t-113 313zM609 1285h-215l177 283h286zM979 1285h-215l177 283h286z
" />
    <glyph glyph-name="OE" unicode="&#x152;" horiz-adv-x="2167" 
d="M369 572q0 -173 67.5 -271t195.5 -98q238 0 376 214t138 511q0 336 -296 336q-208 0 -344.5 -219t-136.5 -473zM596 -25q-229 0 -363 156t-134 414q0 392 213 669t556 277q233 0 379 -117l17 91h943l-43 -228h-675l-61 -337h484l-41 -218h-481l-85 -454h664l-43 -228
h-932l15 81q-184 -106 -413 -106z" />
    <glyph glyph-name="oe" unicode="&#x153;" horiz-adv-x="1900" 
d="M1332 635q106 0 200 41.5t94 119.5q0 87 -190 87q-71 0 -155 -74.5t-120 -154.5q65 -19 171 -19zM332 413q0 -229 197 -229q155 0 246.5 145.5t91.5 341.5q0 216 -197 216q-153 0 -245.5 -142.5t-92.5 -331.5zM1111 420q0 -122 59.5 -177t191.5 -55q63 0 142.5 33
t131.5 79l-29 -263q-128 -57 -310 -57q-271 0 -377 167q-174 -167 -419 -167q-203 0 -316 109t-113 312q0 289 176.5 489.5t436.5 200.5t373 -157q178 157 437 157q172 0 275.5 -72t103.5 -204q0 -181 -157 -284t-385 -103q-110 0 -219 37q-2 -25 -2 -45z" />
    <glyph glyph-name="Racute" unicode="&#x154;" horiz-adv-x="1277" 
d="M576 824q378 0 378 240q0 102 -72 144t-241 42q-14 0 -95 -10l-75 -410q59 -6 105 -6zM702 1480q236 0 374 -92t138 -266t-100 -304t-269 -169l327 -649h-293l-280 606q-68 1 -167 8l-113 -614h-268l268 1465q292 15 383 15zM762 1585h-216l205 333h284z" />
    <glyph glyph-name="racute" unicode="&#x155;" horiz-adv-x="915" 
d="M712 883q-98 -1 -178 -85t-101 -193l-113 -605h-251l200 1071h251l-17 -93q133 113 294 113q41 0 147 -19l-75 -255q-89 66 -157 66zM684 1285h-216l205 333h284z" />
    <glyph glyph-name="Rcedilla" unicode="&#x156;" horiz-adv-x="1277" 
d="M576 824q378 0 378 240q0 102 -72 144t-241 42q-14 0 -95 -10l-75 -410q59 -6 105 -6zM702 1480q236 0 374 -92t138 -266t-100 -304t-269 -169l327 -649h-293l-280 606q-68 1 -167 8l-113 -614h-268l268 1465q292 15 383 15zM366 -332q40 0 96 28t56 80q0 34 -29 64
t-64 31l62 86q230 -15 230 -186q0 -115 -109 -176q-89 -50 -213 -50q-15 0 -87 5v123q18 -5 58 -5z" />
    <glyph glyph-name="rcedilla" unicode="&#x157;" horiz-adv-x="915" 
d="M712 883q-98 -1 -178 -85t-101 -193l-113 -605h-251l200 1071h251l-17 -93q133 113 294 113q41 0 147 -19l-75 -255q-89 66 -157 66zM26 -332q40 0 96 28t56 80q0 34 -29 64t-64 31l62 86q230 -15 230 -186q0 -115 -109 -176q-89 -50 -213 -50q-15 0 -87 5v123
q18 -5 58 -5z" />
    <glyph glyph-name="Rcaron" unicode="&#x158;" horiz-adv-x="1277" 
d="M576 824q378 0 378 240q0 102 -72 144t-241 42q-14 0 -95 -10l-75 -410q59 -6 105 -6zM702 1480q236 0 374 -92t138 -266t-100 -304t-269 -169l327 -649h-293l-280 606q-68 1 -167 8l-113 -614h-268l268 1465q292 15 383 15zM820 1568h-140l-281 358h255l130 -146
l178 143h298z" />
    <glyph glyph-name="rcaron" unicode="&#x159;" horiz-adv-x="915" 
d="M712 883q-98 -1 -178 -85t-101 -193l-113 -605h-251l200 1071h251l-17 -93q133 113 294 113q41 0 147 -19l-75 -255q-89 66 -157 66zM692 1285h-140l-281 358h255l130 -146l178 143h298z" />
    <glyph glyph-name="Sacute" unicode="&#x15a;" horiz-adv-x="1027" 
d="M704 1261q-241 0 -241 -182q0 -77 128 -184l151 -128q70 -59 97 -87t57 -77q60 -98 60 -201q0 -201 -150 -314t-370 -113q-218 0 -393 85l84 257q134 -101 311 -101q108 0 178 46t70 128q0 84 -128 184l-157 125q-71 58 -97 84q-26 27 -54 73q-56 93 -56 196
q0 202 134 320t351 118q72 0 184 -16t157 -38l-80 -260q-116 85 -236 85zM770 1585h-216l205 333h284z" />
    <glyph glyph-name="sacute" unicode="&#x15b;" horiz-adv-x="940" 
d="M571 883q-61 -1 -107 -29t-46 -82t108 -108q108 -56 167 -88q58 -32 95 -88t37 -127q-1 -177 -133 -279t-323 -102t-359 99l132 227q125 -118 245 -118q75 0 125 38t50 98t-94 108q-94 50 -166 90q-147 83 -147 233q1 151 125 243t305 93q124 0 322 -84l-116 -229
q-120 105 -220 105zM653 1285h-216l205 333h284z" />
    <glyph glyph-name="Scircumflex" unicode="&#x15c;" horiz-adv-x="1027" 
d="M704 1261q-241 0 -241 -182q0 -77 128 -184l151 -128q70 -59 97 -87t57 -77q60 -98 60 -201q0 -201 -150 -314t-370 -113q-218 0 -393 85l84 257q134 -101 311 -101q108 0 178 46t70 128q0 84 -128 184l-157 125q-71 58 -97 84q-26 27 -54 73q-56 93 -56 196
q0 202 134 320t351 118q72 0 184 -16t157 -38l-80 -260q-116 85 -236 85zM803 1568l-118 143l-191 -146h-271l432 358h139l290 -355h-281z" />
    <glyph glyph-name="scircumflex" unicode="&#x15d;" horiz-adv-x="940" 
d="M571 883q-61 -1 -107 -29t-46 -82t108 -108q108 -56 167 -88q58 -32 95 -88t37 -127q-1 -177 -133 -279t-323 -102t-359 99l132 227q125 -118 245 -118q75 0 125 38t50 98t-94 108q-94 50 -166 90q-147 83 -147 233q1 151 125 243t305 93q124 0 322 -84l-116 -229
q-120 105 -220 105zM703 1285l-118 143l-191 -146h-271l432 358h139l290 -355h-281z" />
    <glyph glyph-name="Scedilla" unicode="&#x15e;" horiz-adv-x="1027" 
d="M704 1261q-241 0 -241 -182q0 -77 128 -184l151 -128q70 -59 97 -87t57 -77q60 -98 60 -201q0 -201 -150 -314t-370 -113q-218 0 -393 85l84 257q134 -101 311 -101q108 0 178 46t70 128q0 84 -128 184l-157 125q-71 58 -97 84q-26 27 -54 73q-56 93 -56 196
q0 202 134 320t351 118q72 0 184 -16t157 -38l-80 -260q-116 85 -236 85zM246 -332q40 0 96 28t56 80q0 34 -29 64t-64 31l62 86q230 -15 230 -186q0 -115 -109 -176q-89 -50 -213 -50q-15 0 -87 5v123q18 -5 58 -5z" />
    <glyph glyph-name="scedilla" unicode="&#x15f;" horiz-adv-x="940" 
d="M571 883q-61 -1 -107 -29t-46 -82t108 -108q108 -56 167 -88q58 -32 95 -88t37 -127q-1 -177 -133 -279t-323 -102t-359 99l132 227q125 -118 245 -118q75 0 125 38t50 98t-94 108q-94 50 -166 90q-147 83 -147 233q1 151 125 243t305 93q124 0 322 -84l-116 -229
q-120 105 -220 105zM168 -332q40 0 96 28t57 80q0 34 -29 64t-64 31l62 86q230 -15 230 -186q0 -115 -109 -176q-89 -50 -213 -50q-15 0 -87 5v123q17 -5 57 -5z" />
    <glyph glyph-name="Scaron" unicode="&#x160;" horiz-adv-x="1027" 
d="M704 1261q-241 0 -241 -182q0 -77 128 -184l151 -128q70 -59 97 -87t57 -77q60 -98 60 -201q0 -201 -150 -314t-370 -113q-218 0 -393 85l84 257q134 -101 311 -101q108 0 178 46t70 128q0 84 -128 184l-157 125q-71 58 -97 84q-26 27 -54 73q-56 93 -56 196
q0 202 134 320t351 118q72 0 184 -16t157 -38l-80 -260q-116 85 -236 85zM728 1565h-140l-281 358h255l130 -146l178 143h298z" />
    <glyph glyph-name="scaron" unicode="&#x161;" horiz-adv-x="940" 
d="M571 883q-61 -1 -107 -29t-46 -82t108 -108q108 -56 167 -88q58 -32 95 -88t37 -127q-1 -177 -133 -279t-323 -102t-359 99l132 227q125 -118 245 -118q75 0 125 38t50 98t-94 108q-94 50 -166 90q-147 83 -147 233q1 151 125 243t305 93q124 0 322 -84l-116 -229
q-120 105 -220 105zM611 1285h-140l-281 358h255l130 -146l178 143h298z" />
    <glyph glyph-name="Tcedilla" unicode="&#x162;" horiz-adv-x="1403" 
d="M1391 1237h-462l-226 -1237h-263l226 1237h-466l42 228h1192zM366 -332q40 0 96 28t57 80q0 34 -29 64t-64 31l62 86q230 -15 230 -186q0 -115 -109 -176q-89 -50 -213 -50q-15 0 -87 5v123q17 -5 57 -5z" />
    <glyph glyph-name="tcedilla" unicode="&#x163;" horiz-adv-x="897" 
d="M425 300q0 -110 124 -110q55 0 180 52v-225q-108 -37 -294 -37q-122 0 -196 76t-74 198q0 40 9 79l121 537h-124l43 201h124l42 219l286 104l-75 -323h293l-43 -201h-295l-108 -475q-13 -57 -13 -95zM172 -332q40 0 96 28t56 80q0 34 -29 64t-64 31l62 86
q230 -15 230 -186q0 -115 -109 -176q-89 -50 -213 -50q-15 0 -87 5v123q18 -5 58 -5z" />
    <glyph glyph-name="Tcaron" unicode="&#x164;" horiz-adv-x="1403" 
d="M1391 1237h-462l-226 -1237h-263l226 1237h-466l42 228h1192zM858 1568h-140l-281 358h255l130 -146l178 143h298z" />
    <glyph glyph-name="tcaron" unicode="&#x165;" horiz-adv-x="1238" 
d="M425 300q0 -110 124 -110q55 0 180 52v-225q-108 -37 -294 -37q-122 0 -196 76t-74 198q0 40 9 79l121 537h-124l43 201h124l42 219l286 104l-75 -323h293l-43 -201h-295l-108 -475q-13 -57 -13 -95zM1133 1125q-1 27 -35 61t-34 75q0 118 117 118q123 0 123 -139
q0 -196 -204 -323l-63 85q66 50 81 74t15 49z" />
    <glyph glyph-name="Tbar" unicode="&#x166;" horiz-adv-x="1403" 
d="M1434 1465l-43 -228h-462l-84 -457h318l-30 -164h-317l-113 -616h-263l113 616h-315l30 164h314l84 457h-466l42 228h1192z" />
    <glyph glyph-name="tbar" unicode="&#x167;" horiz-adv-x="897" 
d="M426 299q0 -109 123 -109q57 0 180 52v-226q-107 -36 -295 -36q-120 0 -194 75.5t-74 198.5q0 43 8 80l37 164h-123l33 155h125l49 217h-125l43 201h125l43 219l285 105l-74 -324h293l-43 -201h-295l-49 -217h243l-34 -155h-246l-23 -103q-12 -56 -12 -96z" />
    <glyph glyph-name="Utilde" unicode="&#x168;" horiz-adv-x="1355" 
d="M612 -25q-228 -1 -358 99t-131 275q0 53 11 113l184 1003h268l-187 -998q-5 -27 -5 -57q0 -99 61 -153t181 -54t208 73q89 73 113 205l183 984h264l-187 -1014q-42 -226 -210 -351q-167 -125 -395 -125zM752 1908q48 0 150 -43t130 -43t57 26t34 60h162q-19 -87 -90 -170
t-150 -83q-32 1 -144 47t-149 46q-56 0 -83 -93h-160q23 105 90 179t153 74z" />
    <glyph glyph-name="utilde" unicode="&#x169;" horiz-adv-x="1141" 
d="M357 -20q-139 0 -217 79t-78 219q0 44 11 103l129 690h254l-127 -680q-8 -43 -8 -73q0 -130 146 -130q119 0 199 78t101 186l110 619h251l-200 -1072h-250l15 78q-134 -97 -336 -97zM592 1538q48 0 150 -43t130 -43t57 26t34 60h162q-19 -87 -90 -170t-150 -83
q-32 1 -144 47t-149 46q-56 0 -83 -93h-160q23 105 90 179t153 74z" />
    <glyph glyph-name="Umacron" unicode="&#x16a;" horiz-adv-x="1355" 
d="M612 -25q-228 -1 -358 99t-131 275q0 53 11 113l184 1003h268l-187 -998q-5 -27 -5 -57q0 -99 61 -153t181 -54t208 73q89 73 113 205l183 984h264l-187 -1014q-42 -226 -210 -351q-167 -125 -395 -125zM1281 1568h-809l38 141h809z" />
    <glyph glyph-name="umacron" unicode="&#x16b;" horiz-adv-x="1141" 
d="M357 -20q-139 0 -217 79t-78 219q0 44 11 103l129 690h254l-127 -680q-8 -43 -8 -73q0 -130 146 -130q119 0 199 78t101 186l110 619h251l-200 -1072h-250l15 78q-134 -97 -336 -97zM1101 1285h-809l38 141h809z" />
    <glyph glyph-name="Ubreve" unicode="&#x16c;" horiz-adv-x="1355" 
d="M612 -25q-228 -1 -358 99t-131 275q0 53 11 113l184 1003h268l-187 -998q-5 -27 -5 -57q0 -99 61 -153t181 -54t208 73q89 73 113 205l183 984h264l-187 -1014q-42 -226 -210 -351q-167 -125 -395 -125zM766 1837q0 -68 130 -68q162 0 192 141h214q-70 -325 -434 -325
q-313 0 -313 236q0 32 13 89h214q-16 -55 -16 -73z" />
    <glyph glyph-name="ubreve" unicode="&#x16d;" horiz-adv-x="1141" 
d="M357 -20q-139 0 -217 79t-78 219q0 44 11 103l129 690h254l-127 -680q-8 -43 -8 -73q0 -130 146 -130q119 0 199 78t101 186l110 619h251l-200 -1072h-250l15 78q-134 -97 -336 -97zM586 1537q0 -68 130 -68q162 0 192 141h214q-70 -325 -434 -325q-313 0 -313 236
q0 32 13 89h214q-16 -55 -16 -73z" />
    <glyph glyph-name="Uring" unicode="&#x16e;" horiz-adv-x="1355" 
d="M612 -25q-228 -1 -358 99t-131 275q0 53 11 113l184 1003h268l-187 -998q-5 -27 -5 -57q0 -99 61 -153t181 -54t208 73q89 73 113 205l183 984h264l-187 -1014q-42 -226 -210 -351q-167 -125 -395 -125zM918 1802q-51 0 -89 -26t-38 -66t38 -65q38 -26 89 -26t89 26
q38 25 38 65t-38 66t-89 26zM915 1504q-99 0 -173 60t-74 150t74 150t174 59q100 0 172 -59q73 -59 73 -150q1 -90 -73 -150t-173 -60z" />
    <glyph glyph-name="uring" unicode="&#x16f;" horiz-adv-x="1141" 
d="M357 -20q-139 0 -217 79t-78 219q0 44 11 103l129 690h254l-127 -680q-8 -43 -8 -73q0 -130 146 -130q119 0 199 78t101 186l110 619h251l-200 -1072h-250l15 78q-134 -97 -336 -97zM692 1583q-51 0 -89 -26q-38 -25 -38 -65t38 -66t89 -26t89 26t38 66t-38 65
q-38 26 -89 26zM689 1285q-99 0 -173 60t-74 150q0 89 74 149t174 60t172 -59q73 -59 73 -150q1 -91 -73 -151t-173 -59z" />
    <glyph glyph-name="Udblacute" unicode="&#x170;" horiz-adv-x="1355" 
d="M612 -25q-228 -1 -358 99t-131 275q0 53 11 113l184 1003h268l-187 -998q-5 -27 -5 -57q0 -99 61 -153t181 -54t208 73q89 73 113 205l183 984h264l-187 -1014q-42 -226 -210 -351q-167 -125 -395 -125zM803 1585h-215l177 283h286zM1173 1585h-215l177 283h286z" />
    <glyph glyph-name="udblacute" unicode="&#x171;" horiz-adv-x="1141" 
d="M357 -20q-139 0 -217 79t-78 219q0 44 11 103l129 690h254l-127 -680q-8 -43 -8 -73q0 -130 146 -130q119 0 199 78t101 186l110 619h251l-200 -1072h-250l15 78q-134 -97 -336 -97zM609 1285h-215l177 283h286zM979 1285h-215l177 283h286z" />
    <glyph glyph-name="Uogonek" unicode="&#x172;" horiz-adv-x="1355" 
d="M393 410q-1 -207 243 -207q120 0 207.5 72.5t112.5 205.5l184 984h264l-187 -1014q-42 -225 -209 -351q-121 -91 -286 -116q-87 -46 -87 -129q-1 -44 77 -44t158 61v-205q-132 -40 -222 -40t-170 54t-80 146t49 162q-112 23 -193 85q-131 100 -131 274q0 61 10 115
l184 1002h269l-187 -998q-6 -32 -6 -57z" />
    <glyph glyph-name="uogonek" unicode="&#x173;" horiz-adv-x="1141" 
d="M801 -145q-1 -44 77 -44t158 61v-205q-132 -40 -222 -40t-170 54q-80 53 -80 147t114 177l14 73q-132 -98 -335 -98q-139 0 -217 80t-78 219q0 32 11 102l129 690h254l-127 -680q-8 -43 -8 -74q0 -129 147 -129q117 0 199 79t101 186l109 618h251l-200 -1071
q-51 -14 -89 -54t-38 -91z" />
    <glyph glyph-name="Wcircumflex" unicode="&#x174;" horiz-adv-x="1897" 
d="M1272 -20h-105l-159 894l-475 -894h-105l-207 1485h265l111 -888l462 888h113l136 -882l428 882h282zM1273 1568l-118 143l-191 -146h-271l432 358h139l290 -355h-281z" />
    <glyph glyph-name="wcircumflex" unicode="&#x175;" horiz-adv-x="1584" 
d="M1064 -20h-90l-187 619l-401 -619h-92l-211 1091h254l107 -590l367 590h90l177 -597l309 597h265zM1033 1285l-118 143l-191 -146h-271l432 358h139l290 -355h-281z" />
    <glyph glyph-name="Ycircumflex" unicode="&#x176;" horiz-adv-x="1400" 
d="M848 648l-119 -648h-258l121 656l-345 809h271l236 -573l439 573h297zM1013 1568l-118 143l-191 -146h-271l432 358h139l290 -355h-281z" />
    <glyph glyph-name="ycircumflex" unicode="&#x177;" horiz-adv-x="1155" 
d="M620 -107q-149 -311 -578 -313v241q283 1 363 183l52 120q-137 39 -185 288l-127 659h263q117 -704 149 -735l344 735h283zM809 1285l-118 143l-191 -146h-271l432 358h139l290 -355h-281z" />
    <glyph glyph-name="Ydieresis" unicode="&#x178;" horiz-adv-x="1400" 
d="M848 648l-119 -648h-258l121 656l-345 809h271l236 -573l439 573h297zM492 1770q0 50 45 82t103 31t102 -31q45 -30 45 -80t-45 -82t-103 -32q-59 0 -103 31t-44 81zM965 1771q0 51 45 81q44 30 102 31t103 -31t45 -82t-44 -81t-104 -31q-58 0 -102 31t-45 82z" />
    <glyph glyph-name="Zacute" unicode="&#x179;" horiz-adv-x="1252" 
d="M87 0v83l793 1154h-602l42 228h928v-83l-766 -1154h597l-43 -228h-949zM874 1585h-216l205 333h284z" />
    <glyph glyph-name="zacute" unicode="&#x17a;" horiz-adv-x="1091" 
d="M28 0v85l626 769h-525l41 217h892v-89l-615 -765h508l-41 -217h-886zM680 1285h-216l205 333h284z" />
    <glyph glyph-name="Zdot" unicode="&#x17b;" horiz-adv-x="1252" 
d="M87 0v83l793 1154h-602l42 228h928v-83l-766 -1154h597l-43 -228h-949zM662 1702q0 52 46 86q46 32 105 32t107 -32t47 -85q-1 -52 -47 -85t-106 -33q-60 1 -106 33t-46 84z" />
    <glyph glyph-name="zdot" unicode="&#x17c;" horiz-adv-x="1091" 
d="M28 0v85l626 769h-525l41 217h892v-89l-615 -765h508l-41 -217h-886zM488 1402q0 52 46 86q46 32 105 32t107 -32t47 -85q-1 -52 -47 -85t-106 -33q-60 1 -106 33t-46 84z" />
    <glyph glyph-name="Zcaron" unicode="&#x17d;" horiz-adv-x="1252" 
d="M87 0v83l793 1154h-602l42 228h928v-83l-766 -1154h597l-43 -228h-949zM842 1565h-140l-281 358h255l130 -146l178 143h298z" />
    <glyph glyph-name="zcaron" unicode="&#x17e;" horiz-adv-x="1091" 
d="M28 0v85l626 769h-525l41 217h892v-89l-615 -765h508l-41 -217h-886zM673 1285h-140l-281 358h255l130 -146l178 143h298z" />
    <glyph glyph-name="longs" unicode="&#x17f;" horiz-adv-x="719" 
d="M715 1509q101 0 180 -41l-49 -194q-81 33 -141 33q-157 0 -201 -265l-176 -1042h-267l187 1051q81 458 467 458z" />
    <glyph glyph-name="florin" unicode="&#x192;" 
d="M1030 1307q-144 0 -198 -236h246l-25 -201h-252l-160 -938q-26 -153 -141 -252t-269 -100l-53 166q71 16 128 71t70 125l167 928h-151l33 201h148q103 439 469 439q104 0 177 -43l-50 -196q-81 36 -139 36z" />
    <glyph glyph-name="Aringacute" unicode="&#x1fa;" horiz-adv-x="1257" 
d="M838 493l-78 497l-295 -497h373zM849 1396q47 0 87 24t40 68t-40 67q-40 24 -87 24t-87 -24q-40 -23 -40 -67t40 -68t87 -24zM1092 1502q0 -90 -52 -142q-52 -54 -131 -72l280 -1288h-271l-48 298h-520l-174 -298h-271l836 1301q-142 56 -142 190q1 89 69 145t159 63
l110 179h284l-216 -226q87 -60 87 -150z" />
    <glyph glyph-name="aringacute" unicode="&#x1fb;" horiz-adv-x="1214" 
d="M699 887q-168 -1 -268 -161t-100 -369q0 -173 170 -173q109 0 189 133t143 550q-71 20 -134 20zM981 302q0 -220 34 -302h-156q-70 0 -104 107q-129 -127 -311 -127t-278 98t-95 273q1 305 185 523t460 217q276 0 396 -50l-124 -657q-7 -37 -7 -82zM774 1464
q-51 0 -89 -26t-38 -66t38 -65q38 -26 89 -26t89 26q38 25 38 65t-38 66t-89 26zM771 1166q-99 0 -173 60t-74 150t74 150t174 59q100 0 172 -59q73 -59 73 -150q1 -90 -73 -150t-173 -60zM860 1644h-216l205 333h284z" />
    <glyph glyph-name="AEacute" unicode="&#x1fc;" horiz-adv-x="1965" 
d="M554 493h329l140 750zM1962 1237h-675l-61 -337h484l-41 -218h-484l-82 -454h664l-43 -228h-932l55 298h-391l-183 -298h-307l969 1465h1070zM1380 1585h-216l205 333h284z" />
    <glyph glyph-name="aeacute" unicode="&#x1fd;" horiz-adv-x="1830" 
d="M729 879q-170 1 -281 -147t-111 -344t120 -196q144 0 282 295q40 107 60 202l28 148q-34 42 -98 42zM1551 784q0 91 -145 91q-91 -1 -177 -61t-131 -158q59 -17 134 -17q319 0 319 145zM1425 1091q157 0 258 -60q126 -73 126 -219q0 -196 -185 -301q-151 -87 -362 -87
q-113 0 -214 35q-2 -19 -2 -38q0 -117 57 -171t189 -54q67 0 152 38t129 81l-31 -277q-128 -58 -292 -58t-243 38t-135 130q-2 -23 17 -148h-93q-68 0 -101 151q-108 -171 -276 -171q-169 0 -261 105t-92 268q0 294 188 516t467 222q157 0 299 -61l-23 -109q163 170 428 170
zM1100 1285h-216l205 333h284z" />
    <glyph glyph-name="Oslashacute" unicode="&#x1fe;" horiz-adv-x="1438" 
d="M632 203q238 0 376 214t138 511q0 71 -13 127l-629 -819q54 -33 128 -33zM850 1264q-208 0 -344 -220t-137 -472q0 -88 19 -160l623 816q-65 36 -161 36zM1415 948q0 -433 -218 -703t-597 -270q-142 0 -250 61l-54 -71h-248l156 205q-105 150 -105 375q-1 391 213 669
t556 277q174 0 296 -62l48 62h256l-149 -194q96 -134 96 -349zM935 1585h-216l205 333h284z" />
    <glyph glyph-name="oslashacute" unicode="&#x1ff;" horiz-adv-x="1167" 
d="M529 184q156 0 247 144t91 343q0 27 -3 51l-445 -512q44 -26 110 -26zM670 887q-154 -1 -246 -143t-92 -331q0 -32 4 -60l444 510q-44 24 -110 24zM1128 678q0 -296 -175 -497t-452 -201q-139 0 -237 52l-58 -67h-208l148 170q-74 104 -74 266q0 290 177 490t448 200
q140 0 238 -50l44 50h206l-131 -151q74 -102 74 -262zM725 1285h-216l205 333h284z" />
    <glyph glyph-name="Scommaaccent" unicode="&#x218;" horiz-adv-x="1027" 
d="M704 1261q-241 0 -241 -182q0 -77 128 -184l151 -128q70 -59 97 -87t57 -77q60 -98 60 -201q0 -201 -150 -314t-370 -113q-218 0 -393 85l84 257q134 -101 311 -101q108 0 178 46t70 128q0 84 -128 184l-157 125q-71 58 -97 84q-26 27 -54 73q-56 93 -56 196
q0 202 134 320t351 118q72 0 184 -16t157 -38l-80 -260q-116 85 -236 85zM391 -363q-1 27 -35 61t-34 75q0 118 117 118q123 0 123 -139q0 -196 -204 -323l-63 85q66 50 81 74t15 49z" />
    <glyph glyph-name="scommaaccent" unicode="&#x219;" horiz-adv-x="940" 
d="M571 883q-61 -1 -107 -29t-46 -82t108 -108q108 -56 167 -88q58 -32 95 -88t37 -127q-1 -177 -133 -279t-323 -102t-359 99l132 227q125 -118 245 -118q75 0 125 38t50 98t-94 108q-94 50 -166 90q-147 83 -147 233q1 151 125 243t305 93q124 0 322 -84l-116 -229
q-120 105 -220 105zM316 -363q0 27 -34 61t-35 75q0 118 117 118q123 0 123 -139q0 -196 -204 -323l-63 85q66 50 81 74t15 49z" />
    <glyph glyph-name="Tcommaaccent" unicode="&#x21a;" horiz-adv-x="1403" 
d="M1391 1237h-462l-226 -1237h-263l226 1237h-466l42 228h1192zM472 -344q0 26 -34 60t-35 76q0 118 117 118q123 0 123 -139q0 -196 -204 -323l-63 85q66 49 81 73t15 50z" />
    <glyph glyph-name="tcommaaccent" unicode="&#x21b;" horiz-adv-x="897" 
d="M425 300q0 -110 124 -110q55 0 180 52v-225q-108 -37 -294 -37q-122 0 -196 76t-74 198q0 40 9 79l121 537h-124l43 201h124l42 219l286 104l-75 -323h293l-43 -201h-295l-108 -475q-13 -57 -13 -95zM325 -344q-1 26 -35 60t-34 76q0 118 117 118q123 0 123 -139
q0 -196 -204 -323l-63 85q66 49 81 73t15 50z" />
    <glyph glyph-name="circumflex" unicode="&#x2c6;" 
d="M843 1285l-118 143l-191 -146h-271l432 358h139l290 -355h-281z" />
    <glyph glyph-name="caron" unicode="&#x2c7;" 
d="M788 1285h-140l-281 358h255l130 -146l178 143h298z" />
    <glyph glyph-name="macron" unicode="&#x2c9;" 
d="M1151 1285h-809l38 141h809z" />
    <glyph glyph-name="breve" unicode="&#x2d8;" 
d="M646 1537q0 -68 130 -68q162 0 192 141h214q-70 -325 -434 -325q-313 0 -313 236q0 32 13 89h214q-16 -55 -16 -73z" />
    <glyph glyph-name="dotaccent" unicode="&#x2d9;" 
d="M648 1402q0 52 46 85t105 33t106.5 -32.5t47.5 -84.5t-46.5 -85t-106.5 -33t-106 32.5t-46 84.5z" />
    <glyph glyph-name="ring" unicode="&#x2da;" 
d="M774 1583q-51 0 -89 -25.5t-38 -65.5t38 -66t89 -26t89 26t38 66t-38 65.5t-89 25.5zM771 1285q-99 0 -173 60t-74 150t74 149.5t174 59.5t172.5 -59t72.5 -150t-73.5 -150.5t-172.5 -59.5z" />
    <glyph glyph-name="ogonek" unicode="&#x2db;" 
d="M572 -144q0 -44 78 -45q78 0 157 61v-205q-131 -40 -225 -40t-170.5 57t-76.5 153q0 201 295 332l69 -169q-57 -16 -92 -58t-35 -86z" />
    <glyph glyph-name="tilde" unicode="&#x2dc;" 
d="M632 1538q49 0 150.5 -43t129.5 -43t57 26t34 60h162q-19 -87 -90 -170t-150 -83q-32 0 -144 46.5t-149 46.5q-56 0 -83 -93h-160q23 105 90 179t153 74z" />
    <glyph glyph-name="hungarumlaut" unicode="&#x2dd;" 
d="M609 1285h-215l177 283h286zM979 1285h-215l177 283h286z" />
    <glyph glyph-name="questiongreek" unicode="&#x37e;" horiz-adv-x="752" 
d="M309 -49q0 55 -57 100t-57 103t52.5 100.5t126.5 42.5t125.5 -58.5t51.5 -132.5q0 -301 -324 -520l-75 101q157 117 157 264zM450 1071q64 0 111 -47t47 -111t-44 -111.5t-114 -47.5t-114.5 46t-44.5 114t47.5 112.5t111.5 44.5z" />
    <glyph glyph-name="tonos" unicode="&#x384;" 
d="M711 1284h-217l204 334h285z" />
    <glyph glyph-name="dieresistonos" unicode="&#x385;" 
d="M377 1507q60 0 101.5 -41.5t41.5 -99.5t-41.5 -100.5t-100.5 -42.5t-100.5 41.5t-41.5 101.5t40.5 100.5t100.5 40.5zM1026 1507q60 0 101.5 -41.5t41.5 -99.5t-43 -100.5t-101 -42.5t-99 41.5t-41 101.5t40.5 100.5t100.5 40.5zM729 1214h-123l43 336h189z" />
    <glyph glyph-name="Alphatonos" unicode="&#x386;" horiz-adv-x="1280" 
d="M451 1464l-181 -366h-194l121 366h254zM768 1040l-301 -546h385zM926 0l-45 299h-525l-172 -299h-270l889 1485h94l301 -1485h-272z" />
    <glyph glyph-name="anoteleia" unicode="&#x387;" horiz-adv-x="752" 
d="M394 831q62 0 105.5 -44t43.5 -106t-43.5 -106.5t-105.5 -44.5t-107 45t-45 106t45 105.5t107 44.5z" />
    <glyph glyph-name="Epsilontonos" unicode="&#x388;" horiz-adv-x="1323" 
d="M268 1464l-180 -366h-194l120 366h254zM1356 1237h-676l-62 -338h486l-41 -217h-485l-82 -455h665l-43 -227h-932l269 1464h944z" />
    <glyph glyph-name="Etatonos" unicode="&#x389;" horiz-adv-x="1522" 
d="M268 1464l-180 -366h-194l120 366h254zM1294 0h-262l125 682h-582l-124 -682h-265l269 1464h264l-105 -565h584l102 565h267z" />
    <glyph glyph-name="Iotatonos" unicode="&#x38a;" horiz-adv-x="688" 
d="M268 1464l-180 -366h-194l120 366h254zM449 0h-263l271 1464h260z" />
    <glyph glyph-name="Omicrontonos" unicode="&#x38c;" horiz-adv-x="1511" 
d="M268 1464l-180 -366h-194l120 366h254zM442 571q0 -166 67 -267t198 -101q236 0 375 215t139 510q0 336 -297 336q-209 0 -345.5 -220t-136.5 -473zM172 545q0 387 212.5 666.5t557.5 279.5q259 0 403 -137t144 -406q0 -428 -217.5 -700.5t-597.5 -272.5q-234 0 -368 157
t-134 413z" />
    <glyph glyph-name="Upsilontonos" unicode="&#x38e;" horiz-adv-x="1436" 
d="M268 1464l-180 -366h-194l120 366h254zM897 647l-119 -647h-258l121 655l-344 809h270l236 -571l440 571h297z" />
    <glyph glyph-name="Omegatonos" unicode="&#x38f;" horiz-adv-x="1569" 
d="M268 1464l-180 -366h-194l120 366h254zM190 653q0 226 107 427.5t283.5 311t382.5 109.5q258 0 403 -152.5t145 -392.5t-95 -434.5t-255 -318.5q92 16 258 16l-43 -219h-583v80q230 213 338 417.5t108 432.5q0 162 -77 253t-218 91q-207 0 -345 -185t-138 -445t184 -564
v-80h-612l43 221q157 0 268 -18q-154 224 -154 450z" />
    <glyph glyph-name="iotadieresistonos" unicode="&#x390;" horiz-adv-x="578" 
d="M90 1507q60 0 100.5 -40.5t40.5 -99.5t-41.5 -101.5t-100.5 -42.5t-100.5 41.5t-41.5 101.5t41.5 100.5t101.5 40.5zM736 1507q60 0 102.5 -41.5t42.5 -99.5t-43.5 -100.5t-101.5 -42.5t-99 41.5t-41 101.5t40 100.5t100 40.5zM549 1550l-109 -336h-123l43 336h189z
M350 214q0 -62 35.5 -96t91.5 -34q-58 -94 -166 -94t-161.5 64t-53.5 156t45 320l107 541h254l-125 -654q-27 -141 -27 -203z" />
    <glyph glyph-name="Alpha" unicode="&#x391;" horiz-adv-x="1280" 
d="M768 1040l-301 -546h385zM926 0l-45 299h-525l-172 -299h-270l889 1485h94l301 -1485h-272z" />
    <glyph glyph-name="Beta" unicode="&#x392;" horiz-adv-x="1229" 
d="M444 209q198 0 313 66.5t115 197.5q0 246 -319 246q-35 0 -102 -4l-95 -502q30 -4 88 -4zM594 899q137 0 224 58.5t87 177.5q0 131 -231 131q-48 0 -125 -6l-64 -359q37 -2 109 -2zM1137 494q0 -255 -180 -380.5t-574 -125.5q-133 0 -330 12l269 1462q169 25 299 25
q546 0 546 -361q0 -91 -56.5 -175.5t-149.5 -133.5q74 -30 125 -122t51 -201z" />
    <glyph glyph-name="Gamma" unicode="&#x393;" horiz-adv-x="1126" 
d="M1192 1237h-647l-228 -1237h-264l269 1464h911z" />
    <glyph glyph-name="uni0394" unicode="&#x394;" horiz-adv-x="1198" 
d="M779 1076l-481 -855h640zM-32 0l27 153l767 1312h186l257 -1312l-27 -153h-1210z" />
    <glyph glyph-name="Epsilon" unicode="&#x395;" horiz-adv-x="1190" 
d="M1223 1237h-676l-62 -338h486l-41 -217h-486l-82 -455h666l-43 -227h-932l269 1464h944z" />
    <glyph glyph-name="Zeta" unicode="&#x396;" horiz-adv-x="1206" 
d="M61 0v84l795 1153h-602l41 227h928v-82l-766 -1155h598l-43 -227h-951z" />
    <glyph glyph-name="Eta" unicode="&#x397;" horiz-adv-x="1389" 
d="M1161 0h-262l125 682h-582l-125 -682h-264l269 1464h264l-105 -565h584l102 565h267z" />
    <glyph glyph-name="Theta" unicode="&#x398;" horiz-adv-x="1470" 
d="M1075 860l-47 -223h-553l47 223h553zM360 543q0 -344 302 -344q158 0 277 103.5t183 285.5t64 354q0 326 -307 326q-224 0 -371.5 -215.5t-147.5 -509.5zM98 538q0 266 116.5 496t295.5 343.5t420 113.5t379.5 -143.5t138.5 -407.5q0 -218 -90.5 -444.5t-273.5 -373.5
t-448 -147t-401.5 148.5t-136.5 414.5z" />
    <glyph glyph-name="Iota" unicode="&#x399;" horiz-adv-x="569" 
d="M330 0h-262l270 1464h260z" />
    <glyph glyph-name="Kappa" unicode="&#x39a;" horiz-adv-x="1276" 
d="M799 821l364 -821h-293l-274 627l-209 -230l-74 -397h-260l271 1464h258l-121 -665l608 665h309z" />
    <glyph glyph-name="Lambda" unicode="&#x39b;" horiz-adv-x="1290" 
d="M809 1485h98l291 -1485h-289l-143 973l-543 -973h-297z" />
    <glyph glyph-name="Mu" unicode="&#x39c;" horiz-adv-x="1612" 
d="M1233 0l-16 793l-445 -813h-92l-143 821l-308 -801h-252l545 1464h146l147 -927l485 927h150l41 -1464h-258z" />
    <glyph glyph-name="Nu" unicode="&#x39d;" horiz-adv-x="1352" 
d="M1118 -20h-100l-541 948l-162 -928h-258l271 1464h118l531 -907l158 907h258z" />
    <glyph glyph-name="Xi" unicode="&#x39e;" horiz-adv-x="1335" 
d="M1380 1464l-39 -215h-403l-66 -356h304l-37 -205h-303l-86 -471h415l-41 -217h-1087l41 217h416l86 471h-304l37 205h303l66 356h-403l38 215h1063z" />
    <glyph glyph-name="Omicron" unicode="&#x39f;" horiz-adv-x="1438" 
d="M369 571q0 -166 67 -267t197 -101q236 0 375 215t139 510q0 336 -297 336q-208 0 -344.5 -220t-136.5 -473zM98 545q0 387 212.5 666.5t557.5 279.5q259 0 403 -136.5t144 -422.5t-162 -621.5t-653 -335.5q-234 0 -368 157t-134 413z" />
    <glyph glyph-name="Pi" unicode="&#x3a0;" horiz-adv-x="1346" 
d="M1120 0h-264l227 1237h-536l-228 -1237h-264l269 1464h1065z" />
    <glyph glyph-name="Rho" unicode="&#x3a1;" horiz-adv-x="1208" 
d="M590 745q168 0 268 74t100 209q0 232 -262 232q-64 0 -149 -17l-88 -483q61 -15 131 -15zM647 1485q582 0 582 -436q0 -245 -175.5 -387t-457.5 -142q-92 0 -178 19l-99 -539h-266l277 1462q192 23 317 23z" />
    <glyph glyph-name="Sigma" unicode="&#x3a3;" horiz-adv-x="1274" 
d="M25 0v84l661 696l-379 602v82h1030l-41 -227h-591l292 -467l-503 -543h614l-43 -227h-1040z" />
    <glyph glyph-name="Tau" unicode="&#x3a4;" horiz-adv-x="1335" 
d="M1391 1237h-461l-228 -1237h-262l226 1237h-465l41 227h1192z" />
    <glyph glyph-name="Upsilon" unicode="&#x3a5;" horiz-adv-x="1243" 
d="M776 647l-119 -647h-258l121 655l-344 809h270l236 -571l440 571h297z" />
    <glyph glyph-name="Phi" unicode="&#x3a6;" horiz-adv-x="1655" 
d="M381 641q0 -133 75.5 -216.5t217.5 -100.5l157 850q-206 -34 -328 -187.5t-122 -345.5zM1374 834q0 301 -291 337l-157 -849q245 42 346.5 201t101.5 311zM1636 868q0 -290 -197 -504.5t-546 -240.5l-29 -152h-260l29 152q-236 16 -375 153t-139 351q0 270 201.5 494.5
t543.5 250.5l29 152h260l-29 -152q239 -19 375.5 -154.5t136.5 -349.5z" />
    <glyph glyph-name="Chi" unicode="&#x3a7;" horiz-adv-x="1321" 
d="M836 741l346 -741h-289l-231 516l-394 -516h-303l588 772l-279 694l269 -2l188 -487l395 487h304z" />
    <glyph glyph-name="Psi" unicode="&#x3a8;" horiz-adv-x="1698" 
d="M199 772q0 63 13 131l105 561h258q-101 -539 -105.5 -578t-4.5 -73q0 -250 268 -274l172 925h252l-170 -925q158 17 261.5 116t134.5 267l100 542h258l-100 -567q-61 -344 -279 -449.5t-410 -121.5l-59 -330h-260l59 328q-493 52 -493 448z" />
    <glyph glyph-name="Omega" unicode="&#x3a9;" horiz-adv-x="1370" 
d="M1114 902q0 206 -76 287q-76 80 -246 80q-172 0 -312 -183t-140 -427q0 -139 54 -276t145 -200l-32 -183l-550 1l34 192l226 -1q-143 166 -143 404q0 380 210 638t555 257q237 0 387 -149t150 -392q0 -482 -357 -757h241l-33 -192l-550 -1l31 181q224 171 315 343t91 378
z" />
    <glyph glyph-name="Iotadieresis" unicode="&#x3aa;" horiz-adv-x="569" 
d="M268 1884q56 0 102 -30t46 -81t-44.5 -82.5t-102.5 -31.5t-103 30.5t-45 80.5t45.5 82t101.5 32zM740 1884q56 0 102.5 -32t46.5 -82t-44.5 -80.5t-102.5 -30.5t-103 30.5t-45 82.5t45 82t101 30zM330 0h-262l270 1464h260z" />
    <glyph glyph-name="Upsilondieresis" unicode="&#x3ab;" horiz-adv-x="1243" 
d="M641 1884q56 0 101.5 -30t45.5 -81t-44 -82.5t-102 -31.5t-103 30.5t-45 80.5t45.5 82t101.5 32zM1114 1884q56 0 102 -32t46 -82t-45 -80.5t-103 -30.5t-102.5 30.5t-44.5 82.5t45.5 82t101.5 30zM776 647l-119 -647h-258l121 655l-344 809h270l236 -571l440 571h297z
" />
    <glyph glyph-name="alphatonos" unicode="&#x3ac;" horiz-adv-x="1190" 
d="M1032 1610l-182 -330h-193l115 330h260zM700 887q-167 0 -266.5 -157.5t-99.5 -373.5q0 -172 170 -172q109 0 187 123t145 559q-68 21 -136 21zM449 -20q-184 0 -279.5 96.5t-95.5 273.5q0 223 95.5 395.5t238.5 259.5t315 87q276 0 393 -52q-109 -539 -128 -649.5
t-19 -152.5q0 -130 75 -234l-147 -16q-116 0 -152 125q-112 -133 -296 -133z" />
    <glyph glyph-name="epsilontonos" unicode="&#x3ad;" horiz-adv-x="1040" 
d="M932 1610l-182 -330h-193l115 330h260zM616 893q-83 0 -137.5 -42t-54.5 -103q0 -105 174 -105q92 0 180 6l-35 -192q-101 6 -197 6t-161.5 -52.5t-65.5 -121.5q0 -111 174 -111t334 109l82 -191q-200 -119 -475 -119q-167 0 -273 70.5t-106 202.5q0 97 68.5 177
t187.5 122q-68 19 -106.5 71t-38.5 130t58.5 159t169.5 133t276 52t340 -82l-84 -189q-134 70 -310 70z" />
    <glyph glyph-name="etatonos" unicode="&#x3ae;" horiz-adv-x="1202" 
d="M997 1610l-182 -330h-192l114 330h260zM844 750q0 133 -158 133q-136 0 -240 -113l-143 -770h-252l152 803q4 27 4 85t-29 163l244 45l24 -119q134 115 330 115q330 0 330 -310q0 -52 -14 -131l-170 -927l-273 -64l182 965q13 59 13 125z" />
    <glyph glyph-name="iotatonos" unicode="&#x3af;" horiz-adv-x="578" 
d="M641 1610l-182 -330h-193l115 330h260zM350 214q0 -62 35.5 -96t91.5 -34q-58 -94 -166 -94t-161.5 64t-53.5 156t45 320l107 541h254l-125 -654q-27 -141 -27 -203z" />
    <glyph glyph-name="upsilondieresistonos" unicode="&#x3b0;" horiz-adv-x="1206" 
d="M377 1507q60 0 101.5 -41.5t41.5 -99.5t-41.5 -100.5t-100.5 -42.5t-100.5 41.5t-41.5 101.5t40.5 100.5t100.5 40.5zM1026 1507q60 0 101.5 -41.5t41.5 -99.5t-43 -100.5t-101 -42.5t-99 41.5t-41 101.5t40.5 100.5t100.5 40.5zM838 1550l-109 -336h-123l43 336h189z
M1139 936q0 -239 -67.5 -460t-218 -357.5t-343.5 -136.5t-293 97.5t-100 264.5q0 80 22 187l113 540h258l-85 -421q-46 -234 -46 -290q0 -170 153 -170q106 0 192 109.5t120.5 320t34.5 298.5t-5 153h256q9 -73 9 -135z" />
    <glyph glyph-name="alpha" unicode="&#x3b1;" horiz-adv-x="1190" 
d="M700 887q-167 0 -266.5 -157.5t-99.5 -373.5q0 -172 170 -172q109 0 187 123t145 559q-68 21 -136 21zM449 -20q-184 0 -279.5 96.5t-95.5 273.5q0 223 95.5 395.5t238.5 259.5t315 87q276 0 393 -52q-109 -539 -128 -649.5t-19 -152.5q0 -130 75 -234l-147 -16
q-116 0 -152 125q-112 -133 -296 -133z" />
    <glyph glyph-name="beta" unicode="&#x3b2;" horiz-adv-x="1196" 
d="M535 178q150 0 237.5 87t87.5 213q0 251 -301 251h-137l-88 -485q17 -31 75 -48.5t126 -17.5zM596 920q139 0 219 80t80 184q0 135 -156 135q-96 0 -172 -78.5t-110 -320.5h139zM1116 486q0 -128 -86 -257t-223 -189t-269 -60t-262 29t-171.5 51t-41.5 46q0 12 3 23
l161 887q42 230 187 366t356 136q164 0 268.5 -84t104.5 -214t-76.5 -233.5t-218.5 -155.5q130 -35 199 -126t69 -219z" />
    <glyph glyph-name="gamma" unicode="&#x3b3;" horiz-adv-x="1159" 
d="M360 80q0 170 -40 393.5t-84.5 306t-151.5 88.5l35 211h51q158 0 239.5 -82t125.5 -300t49 -355q226 362 360 729h275q-193 -466 -605 -1036q-10 -148 -51.5 -288.5t-326.5 -172.5l-39 213q83 8 123 65.5t40 227.5z" />
    <glyph glyph-name="delta" unicode="&#x3b4;" horiz-adv-x="1192" 
d="M870 678q0 124 -67 211q-52 16 -113 16q-160 0 -258 -150.5t-98 -344.5q0 -108 49.5 -167t144.5 -59q161 0 251.5 152t90.5 342zM1128 662q0 -161 -74.5 -326.5t-217 -260.5t-340.5 -95t-310 115t-112 307t81.5 350.5t209 242.5t270.5 84q41 0 84 -10l-223 361l14 79h731
l-37 -200q-348 0 -375 8l-4 -6q28 -14 144 -199t137.5 -284t21.5 -166z" />
    <glyph glyph-name="epsilon" unicode="&#x3b5;" horiz-adv-x="1040" 
d="M616 893q-83 0 -137.5 -42t-54.5 -103q0 -105 174 -105q92 0 180 6l-35 -192q-101 6 -197 6t-161.5 -52.5t-65.5 -121.5q0 -111 174 -111t334 109l82 -191q-200 -119 -475 -119q-167 0 -273 70.5t-106 202.5q0 97 68.5 177t187.5 122q-68 19 -106.5 71t-38.5 119
q0 141 135.5 248t334.5 107t374 -82l-84 -189q-140 70 -310 70z" />
    <glyph glyph-name="zeta" unicode="&#x3b6;" horiz-adv-x="977" 
d="M328 346q0 -78 51 -108.5t183 -44.5t192.5 -42.5t94.5 -81t34 -120.5q0 -148 -115 -258.5t-299 -110.5q-88 0 -150 14l48 187q55 -19 119 -19t105.5 39t41.5 95t-44 74t-198 25t-247 88t-93 214q0 269 260.5 578t454.5 436v6q-28 -8 -387 -8l39 200h739v-79
q-437 -403 -633 -657t-196 -427z" />
    <glyph glyph-name="eta" unicode="&#x3b7;" horiz-adv-x="1202" 
d="M844 750q0 133 -158 133q-136 0 -240 -113l-143 -770h-252l152 803q4 27 4 85t-29 163l244 45l24 -119q134 115 330 115q330 0 330 -310q0 -52 -14 -131l-170 -927l-273 -64l182 965q13 59 13 125z" />
    <glyph glyph-name="theta" unicode="&#x3b8;" horiz-adv-x="1227" 
d="M375 471q0 -150 43 -219.5t133 -69.5q129 0 212.5 140.5t129.5 351.5h-496q-22 -151 -22 -203zM944 1030q0 283 -178 283q-219 0 -328 -441h488q18 124 18 158zM797 1516q399 0 399 -498q0 -224 -136 -631t-532 -407q-404 0 -405 491q0 225 134 635t540 410z" />
    <glyph glyph-name="iota" unicode="&#x3b9;" horiz-adv-x="578" 
d="M350 214q0 -62 35.5 -96t91.5 -34q-58 -94 -166 -94t-161.5 64t-53.5 156t45 320l107 541h254l-125 -654q-27 -141 -27 -203z" />
    <glyph glyph-name="kappa" unicode="&#x3ba;" horiz-adv-x="1176" 
d="M795 0l-260 451l-177 -134l-59 -317h-250l195 1071h250l-84 -469q356 291 439 365.5t130 134.5l168 -166q-80 -95 -420 -354l354 -582h-286z" />
    <glyph glyph-name="lambda" unicode="&#x3bb;" horiz-adv-x="1151" 
d="M482 1303q-58 0 -142 -37l-74 204q134 46 260 46t207.5 -77.5t112.5 -277.5l180 -1161h-264l-100 793l-451 -793h-289l682 1098q-13 123 -38.5 164t-83.5 41z" />
    <glyph glyph-name="mu" unicode="&#x3bc;" horiz-adv-x="1141" 
d="M357 -17q-52 0 -103 13l-76 -416h-251l275 1491h254l-127 -679q-8 -43 -8 -72q0 -130 146 -130q119 0 199 78t101 185l110 618h251l-202 -1071h-250l17 80q-134 -97 -336 -97z" />
    <glyph glyph-name="nu" unicode="&#x3bd;" horiz-adv-x="1118" 
d="M520 -20h-90l-330 1091h267l186 -696q231 369 350 696h275q-207 -498 -658 -1091z" />
    <glyph glyph-name="xi" unicode="&#x3be;" horiz-adv-x="1012" 
d="M786 1315q-125 0 -200.5 -63.5t-75.5 -157.5q0 -170 274 -170h166l-35 -205h-127q-127 0 -200 -30t-136 -85t-95.5 -122.5t-32.5 -137.5t57 -106t208.5 -47.5t224.5 -76t73 -165.5q0 -148 -116 -258.5t-298 -110.5q-88 0 -149 14l47 187q55 -19 119 -19t105.5 39t41.5 95
t-44 74t-199 25t-247 92t-92 237t110 287t296 208q-97 21 -155 97t-58 178q0 170 152 297t388 127q172 0 330 -64l-92 -205q-115 66 -240 66z" />
    <glyph glyph-name="omicron" unicode="&#x3bf;" horiz-adv-x="1188" 
d="M336 414q0 -230 196 -230q156 0 247 142t91 352t-196 209q-155 0 -246.5 -142.5t-91.5 -330.5zM76 401q0 289 177.5 490t446.5 201q205 0 319 -107t114 -309t-84.5 -361t-221.5 -247t-333 -88t-307 109.5t-111 311.5z" />
    <glyph glyph-name="pi" unicode="&#x3c0;" horiz-adv-x="1232" 
d="M721 241q0 52 50 314l59 308h-277l-152 -863h-253l152 863h-167l36 208h1108l-36 -208h-158l-54 -290q-41 -220 -41 -261q0 -131 151 -131l-33 -201q-385 0 -385 261z" />
    <glyph glyph-name="rho" unicode="&#x3c1;" horiz-adv-x="1217" 
d="M545 188q182 0 272 141.5t90 329.5q0 228 -198 228q-245 0 -315 -372l-50 -269q67 -58 201 -58zM741 1092q196 0 312 -107t116 -317q0 -273 -170 -480.5t-464 -207.5q-127 0 -230 57l-82 -457h-254l174 957q45 244 197.5 399.5t400.5 155.5z" />
    <glyph glyph-name="sigma1" unicode="&#x3c2;" horiz-adv-x="973" 
d="M735 883q-173 0 -276 -138.5t-103 -295.5q0 -185 226 -228q162 -30 238.5 -97t76.5 -177q0 -151 -114.5 -260t-297.5 -109q-87 0 -149 14l47 187q55 -19 117 -19t104.5 35.5t42.5 98.5q0 90 -125 110q-187 30 -268 81t-123.5 141t-42.5 200q0 171 87 333t234 247.5
t328 85.5t320 -84l-94 -201q-106 76 -228 76z" />
    <glyph glyph-name="sigma" unicode="&#x3c3;" horiz-adv-x="1251" 
d="M340 412q0 -109 52 -168.5t151 -59.5q131 0 224 112t93 289t-125 281q-186 0 -290.5 -133t-104.5 -321zM76 406q0 276 188.5 470.5t499.5 194.5h522l-37 -207l-262 4q131 -127 131 -331t-169.5 -380.5t-432.5 -176.5q-205 0 -322.5 116t-117.5 310z" />
    <glyph glyph-name="tau" unicode="&#x3c4;" horiz-adv-x="963" 
d="M512 279q0 -82 82 -82q43 0 100 18v-209q-86 -22 -162 -22q-130 0 -204 67.5t-74 190.5q0 56 18 137l105 483h-287l37 209h879l-37 -209h-342l-85 -412q-30 -147 -30 -171z" />
    <glyph glyph-name="upsilon" unicode="&#x3c5;" horiz-adv-x="1206" 
d="M1139 936q0 -239 -67.5 -460t-218 -357.5t-343.5 -136.5t-293 97.5t-100 264.5q0 80 22 187l113 540h258l-85 -421q-46 -234 -46 -290q0 -170 153 -170q106 0 192 109.5t120.5 320t34.5 298.5t-5 153h256q9 -73 9 -135z" />
    <glyph glyph-name="phi" unicode="&#x3c6;" horiz-adv-x="1552" 
d="M1251 645q0 123 -46.5 188.5t-106.5 65.5q-120 0 -149 -148l-105 -575q183 18 295 144.5t112 324.5zM1106 1094q187 0 293 -123.5t106 -306.5q0 -256 -176 -455t-520 -227l-72 -402h-243l71 402q-239 21 -362 135.5t-123 304.5q0 231 125 407.5t311 268.5l100 -158
q-143 -92 -212.5 -224t-69.5 -258t69 -197t201 -83l86 474q30 170 115.5 306t300.5 136z" />
    <glyph glyph-name="chi" unicode="&#x3c7;" horiz-adv-x="1176" 
d="M729 541l318 -541h-295l-189 373l-287 -373h-317l490 561l-293 510h288l174 -340l271 340h301z" />
    <glyph glyph-name="psi" unicode="&#x3c8;" horiz-adv-x="1608" 
d="M131 414q0 66 16 153l95 504h250l-68 -368q-39 -212 -39 -265q0 -232 244 -258l162 891h239l-162 -893q149 19 243 115t123 259l93 519h244l-88 -504q-95 -552 -649 -585l-72 -402h-244l72 402q-459 49 -459 432z" />
    <glyph glyph-name="omega" unicode="&#x3c9;" horiz-adv-x="1628" 
d="M1556 610q0 -246 -150 -438t-362 -192t-282 149q-120 -149 -324 -149q-165 0 -260.5 107t-95.5 299t109.5 382.5t314.5 333.5l151 -166q-149 -105 -232 -252.5t-83 -304.5q0 -93 39 -142t108 -49q103 0 180 118q5 7 42 189t45 279h252q-21 -75 -57 -259l-38 -189
q0 -36 32 -87t104 -51q109 0 180 119t71 297q0 219 -153 336l137 162q133 -77 202.5 -211.5t69.5 -280.5z" />
    <glyph glyph-name="iotadieresis" unicode="&#x3ca;" horiz-adv-x="578" 
d="M139 1507q60 0 101 -40.5t41 -99.5t-42.5 -101.5t-100.5 -42.5t-100 41.5t-42 101.5t41.5 100.5t101.5 40.5zM678 1507q60 0 101.5 -41.5t41.5 -99.5t-42.5 -100.5t-100.5 -42.5t-99.5 41.5t-41.5 101.5t40.5 100.5t100.5 40.5zM350 214q0 -62 35.5 -96t91.5 -34
q-58 -94 -166 -94t-161.5 64t-53.5 156t45 320l107 541h254l-125 -654q-27 -141 -27 -203z" />
    <glyph glyph-name="upsilondieresis" unicode="&#x3cb;" horiz-adv-x="1206" 
d="M434 1507q60 0 100.5 -40.5t40.5 -99.5t-41.5 -101.5t-99.5 -42.5t-100.5 41.5t-42.5 101.5t41.5 100.5t101.5 40.5zM978 1507q60 0 102 -41.5t42 -99.5t-43 -100.5t-101 -42.5t-99 41.5t-41 101.5t40 100.5t100 40.5zM1139 936q0 -239 -67.5 -460t-218 -357.5
t-343.5 -136.5t-293 97.5t-100 264.5q0 80 22 187l113 540h258l-85 -421q-46 -234 -46 -290q0 -170 153 -170q106 0 192 109.5t120.5 320t34.5 298.5t-5 153h256q9 -73 9 -135z" />
    <glyph glyph-name="omicrontonos" unicode="&#x3cc;" horiz-adv-x="1188" 
d="M985 1610l-182 -330h-193l115 330h260zM336 414q0 -230 196 -230q156 0 247 142t91 352t-196 209q-155 0 -246.5 -142.5t-91.5 -330.5zM76 401q0 289 177.5 490t446.5 201q205 0 319 -107t114 -309t-84.5 -361t-221.5 -247t-333 -88t-307 109.5t-111 311.5z" />
    <glyph glyph-name="upsilontonos" unicode="&#x3cd;" horiz-adv-x="1206" 
d="M971 1610l-183 -330h-192l115 330h260zM1139 936q0 -239 -67.5 -460t-218 -357.5t-343.5 -136.5t-293 97.5t-100 264.5q0 80 22 187l113 540h258l-85 -421q-46 -234 -46 -290q0 -170 153 -170q106 0 192 109.5t120.5 320t34.5 298.5t-5 153h256q9 -73 9 -135z" />
    <glyph glyph-name="omegatonos" unicode="&#x3ce;" horiz-adv-x="1628" 
d="M1196 1610l-182 -330h-193l115 330h260zM1556 610q0 -246 -150 -438t-362 -192t-282 149q-120 -149 -324 -149q-165 0 -260.5 107t-95.5 299t109.5 382.5t314.5 333.5l151 -166q-149 -105 -232 -252.5t-83 -304.5q0 -93 39 -142t108 -49q103 0 180 118q5 7 42 189t45 279
h252q-21 -75 -57 -259l-38 -189q0 -36 32 -87t104 -51q109 0 180 119t71 297q0 219 -153 336l137 162q133 -77 202.5 -211.5t69.5 -280.5z" />
    <glyph glyph-name="afii10023" unicode="&#x401;" horiz-adv-x="1178" 
d="M612 1911q56 0 102 -36.5t46 -97.5t-42 -101t-101 -40t-103.5 37t-44.5 97t43.5 100.5t99.5 40.5zM1078 1911q58 0 102.5 -39.5t44.5 -99.5t-43.5 -98t-101.5 -38t-102 37t-44 99t43 100.5t101 38.5zM1223 1237h-676l-62 -338h486l-41 -217h-486l-82 -455h666l-43 -227
h-932l269 1464h944z" />
    <glyph glyph-name="afii10051" unicode="&#x402;" horiz-adv-x="1571" 
d="M1038 903q205 0 326.5 -102.5t121.5 -278.5q0 -124 -58 -256.5t-175 -204t-266 -71.5q-45 0 -121 8l41 215q52 -8 86 -8q74 0 129 44t76 119.5t21 127.5q0 95 -63.5 146.5t-169.5 51.5t-216 -22l-123 -672h-264l229 1239h-401l41 225h1110l-41 -225h-447l-67 -360
q112 24 231 24z" />
    <glyph glyph-name="afii10052" unicode="&#x403;" horiz-adv-x="1139" 
d="M1163 1921l-268 -332h-207l205 332h270zM1200 1237h-645l-236 -1237h-266l277 1464h911z" />
    <glyph glyph-name="afii10053" unicode="&#x404;" horiz-adv-x="1206" 
d="M898 1270q-146 0 -276 -107t-196 -291h539l-39 -215h-553q-8 -50 -8 -88q0 -197 94 -283.5t233 -86.5q183 0 363 129l-6 -238q-152 -115 -403 -115t-394 154.5t-143 406.5t101.5 468.5t284.5 351.5t433 135q165 0 309 -57l-78 -238q-115 74 -261 74z" />
    <glyph glyph-name="afii10054" unicode="&#x405;" horiz-adv-x="1047" 
d="M702 1262q-241 0 -241 -183q0 -77 129 -184q181 -154 224.5 -193t91.5 -122t48 -179q0 -197 -149 -311.5t-368 -114.5t-396 84l84 258q136 -102 311 -102q105 0 176.5 45.5t71.5 127.5t-120 178l-165 132q-87 70 -146.5 144.5t-59.5 210.5q0 203 135 320.5t350 117.5
q57 0 178.5 -18t161.5 -37l-80 -260q-117 86 -236 86z" />
    <glyph glyph-name="afii10055" unicode="&#x406;" horiz-adv-x="569" 
d="M330 0h-262l270 1464h260z" />
    <glyph glyph-name="afii10056" unicode="&#x407;" horiz-adv-x="569" 
d="M276 1911q56 0 101 -36.5t45 -97.5t-42 -101t-101 -40t-103.5 37t-44.5 98t44.5 100.5t100.5 39.5zM740 1911q58 0 102.5 -39.5t44.5 -99.5t-43.5 -98t-101.5 -38t-102 37t-44 99t43 100.5t101 38.5zM330 0h-262l270 1464h260z" />
    <glyph glyph-name="afii10057" unicode="&#x408;" horiz-adv-x="1016" 
d="M246 336q0 -127 108 -127q187 0 220 96t61 246l168 913h258l-168 -915q-67 -356 -202 -462.5t-367 -106.5q-137 0 -224.5 73t-87.5 209q0 31 6 74h228z" />
    <glyph glyph-name="afii10058" unicode="&#x409;" horiz-adv-x="2101" 
d="M1554 926q221 0 345 -98t124 -277q0 -236 -163.5 -393.5t-462.5 -157.5h-439l232 1243h-287q-108 -407 -252 -714.5t-291.5 -425t-396.5 -117.5l47 241q139 0 220 81.5t208 333t285 822.5h762l-103 -551q116 13 172 13zM1759 518q0 199 -268 199q-51 0 -145 -10l-91 -490
q106 -6 127 -6q201 0 289 92.5t88 214.5z" />
    <glyph glyph-name="afii10059" unicode="&#x40a;" horiz-adv-x="1946" 
d="M1399 926q221 0 344.5 -98t123.5 -277q0 -236 -163 -393.5t-463 -157.5h-440l125 682h-484l-125 -682h-264l269 1464h264l-105 -565h486l102 565h262l-102 -551q114 13 170 13zM1604 518q0 199 -269 199q-51 0 -145 -10l-90 -490q106 -6 127 -6q201 0 289 92.5t88 214.5z
" />
    <glyph glyph-name="afii10060" unicode="&#x40b;" horiz-adv-x="1608" 
d="M1036 903q206 0 324.5 -96.5t118.5 -268.5q0 -50 -11 -105l-82 -433h-268l64 344q23 126 23 158q0 192 -230 192q-94 0 -203 -22l-121 -672h-264l223 1239h-399l41 225h1110l-41 -225h-447l-65 -360q112 24 227 24z" />
    <glyph glyph-name="afii10061" unicode="&#x40c;" horiz-adv-x="1307" 
d="M1186 1921l-268 -332h-207l204 332h271zM1288 1241q-38 0 -61.5 -23t-52.5 -100q-53 -134 -160.5 -228t-251.5 -122q268 -97 274 -416q2 -85 20 -107t54 -22t55 4l-43 -233q-29 -6 -86 -6q-132 0 -191 69t-59 248t-80 269t-260 90h-12l-121 -664h-260l269 1464h260
l-109 -579h10q352 0 465 319q51 141 121 206t215 65q55 0 92 -5l-41 -231q-9 2 -47 2z" />
    <glyph glyph-name="afii10062" unicode="&#x40e;" horiz-adv-x="1270" 
d="M823 1583q-152 0 -241 79.5t-89 217.5q0 30 5 62l217 -23q-4 -22 -4 -42q0 -124 133 -124q154 0 186 176l201 -45q-82 -301 -408 -301zM98 -14h-24l49 239q12 -2 47 -2q241 0 399 187l-374 1054h280l266 -858q245 405 410 858h274q-189 -473 -415 -836t-420 -502.5
t-492 -139.5z" />
    <glyph glyph-name="afii10145" unicode="&#x40f;" horiz-adv-x="1343" 
d="M467 0h-414l269 1464h262l-228 -1237h541l227 1237h262l-268 -1464h-413l-76 -420h-238z" />
    <glyph glyph-name="afii10017" unicode="&#x410;" horiz-adv-x="1298" 
d="M776 1040l-301 -546h385zM934 0l-45 299h-524l-172 -299h-271l889 1485h94l301 -1485h-272z" />
    <glyph glyph-name="afii10018" unicode="&#x411;" horiz-adv-x="1214" 
d="M655 901q225 0 352.5 -97t127.5 -274q0 -228 -165.5 -379t-465.5 -151h-451l269 1464h886l-39 -225h-624l-70 -348q106 10 180 10zM863 508q0 184 -271 184q-74 0 -154 -8l-86 -467q81 -6 137 -6q203 0 288.5 89t85.5 208z" />
    <glyph glyph-name="afii10019" unicode="&#x412;" horiz-adv-x="1219" 
d="M455 205q233 0 327.5 75.5t94.5 194.5q0 244 -306 244q-50 0 -127 -4l-94 -506q30 -4 105 -4zM606 899q151 0 225 58t74 147q0 168 -223 168q-68 0 -139 -10l-66 -361q38 -2 129 -2zM1143 492q0 -230 -176.5 -367t-583.5 -137q-133 0 -330 12l269 1462q186 23 333 23
q251 0 380.5 -93t129.5 -266q0 -108 -64.5 -193t-182.5 -128q106 -39 165.5 -125t59.5 -188z" />
    <glyph glyph-name="afii10020" unicode="&#x413;" horiz-adv-x="1139" 
d="M1200 1237h-645l-236 -1237h-266l277 1464h911z" />
    <glyph glyph-name="afii10021" unicode="&#x414;" horiz-adv-x="1518" 
d="M1206 1251h-256q-90 -277 -251 -571t-316 -465h618zM1255 215h164l-114 -635h-232l76 420h-961l-79 -420h-232l119 635h100q161 171 339.5 457t367.5 792h686z" />
    <glyph glyph-name="afii10022" unicode="&#x415;" horiz-adv-x="1178" 
d="M1223 1237h-676l-62 -338h486l-41 -217h-486l-82 -455h666l-43 -227h-932l269 1464h944z" />
    <glyph glyph-name="afii10024" unicode="&#x416;" horiz-adv-x="1927" 
d="M1905 1243q-39 0 -62 -30t-47 -97q-106 -289 -385 -348q238 -105 248 -416q3 -86 20 -108.5t50 -22.5t51 4l-41 -231q-27 -6 -82 -6q-121 0 -177.5 66.5t-56.5 207.5q0 404 -299 404l-120 -666h-250l120 666q-321 0 -454 -394q-50 -149 -127 -216.5t-205 -67.5
q-57 0 -84 6l43 231q15 -4 47 -4t55.5 24t57.5 115q115 323 416 416q-248 67 -258 340q-3 68 -15 97.5t-53 29.5t-49 -2l41 229q35 5 92 5q118 0 167.5 -63.5t49.5 -217.5t74.5 -232.5t240.5 -78.5l109 581h250l-109 -581q151 0 261 82t160 230t119 214t198 66q59 0 94 -5
l-43 -229q-8 2 -47 2z" />
    <glyph glyph-name="afii10025" unicode="&#x417;" horiz-adv-x="1124" 
d="M1045 478q0 -112 -66.5 -232.5t-213.5 -195.5t-345 -75q-100 0 -215 29.5t-193 75.5l88 231q69 -50 164 -81t180 -31q146 0 239.5 77t93.5 194q0 222 -283 222q-95 0 -158 -6l37 213q79 -8 147 -8q160 0 247.5 66.5t87.5 170.5q0 142 -198 142q-160 0 -329 -76l-70 225
q212 72 424 72t326.5 -87.5t114.5 -229.5t-84.5 -242t-215.5 -144q106 -34 164 -116t58 -194z" />
    <glyph glyph-name="afii10026" unicode="&#x418;" horiz-adv-x="1427" 
d="M1198 0h-264l178 975l-946 -998h-113l273 1487h264l-180 -975l948 998h112z" />
    <glyph glyph-name="afii10027" unicode="&#x419;" horiz-adv-x="1427" 
d="M938 1583q-152 0 -241 79.5t-89 217.5q0 30 4 62l217 -23q-3 -22 -3 -42q0 -124 132 -124q156 0 189 176l199 -45q-82 -301 -408 -301zM1198 0h-264l178 975l-946 -998h-113l273 1487h264l-180 -975l948 998h112z" />
    <glyph glyph-name="afii10028" unicode="&#x41a;" horiz-adv-x="1307" 
d="M1288 1241q-38 0 -61.5 -23t-52.5 -100q-53 -134 -160.5 -228t-251.5 -122q268 -97 274 -416q2 -85 20 -107t54 -22t55 4l-43 -233q-29 -6 -86 -6q-132 0 -191 69t-59 248t-80 269t-260 90h-12l-121 -664h-260l269 1464h260l-109 -579h10q352 0 465 319q51 141 121 206
t215 65q55 0 92 -5l-41 -231q-9 2 -47 2z" />
    <glyph glyph-name="afii10029" unicode="&#x41b;" horiz-adv-x="1446" 
d="M1217 0h-263l236 1243h-279q-103 -388 -252.5 -704.5t-297 -434.5t-398.5 -118l47 241q139 0 219.5 81t214.5 342t287 814h758z" />
    <glyph glyph-name="afii10030" unicode="&#x41c;" horiz-adv-x="1624" 
d="M1231 0l-17 811l-444 -831h-92l-146 827l-303 -807h-254l545 1464h150l153 -948l488 948h137l41 -1464h-258z" />
    <glyph glyph-name="afii10031" unicode="&#x41d;" horiz-adv-x="1391" 
d="M1161 0h-262l125 682h-582l-125 -682h-264l269 1464h264l-105 -565h584l102 565h267z" />
    <glyph glyph-name="afii10032" unicode="&#x41e;" horiz-adv-x="1440" 
d="M381 571q0 -166 67 -267t197 -101q236 0 375 215t139 510q0 336 -297 336q-208 0 -344.5 -220t-136.5 -473zM111 545q0 387 212.5 666.5t557.5 279.5q259 0 402.5 -136.5t143.5 -422.5t-162 -621.5t-653 -335.5q-233 0 -367 157t-134 413z" />
    <glyph glyph-name="afii10033" unicode="&#x41f;" horiz-adv-x="1343" 
d="M1118 0h-264l227 1237h-536l-228 -1237h-264l269 1464h1064z" />
    <glyph glyph-name="afii10034" unicode="&#x420;" horiz-adv-x="1204" 
d="M590 745q168 0 268 74t100 209q0 232 -262 232q-64 0 -149 -17l-88 -483q61 -15 131 -15zM647 1485q582 0 582 -436q0 -245 -175.5 -387t-457.5 -142q-92 0 -178 19l-99 -539h-266l277 1462q192 23 317 23z" />
    <glyph glyph-name="afii10035" unicode="&#x421;" 
d="M907 1264q-221 0 -374.5 -212t-153.5 -479q0 -174 84 -272t229 -98q230 0 361 125l-4 -230q-143 -123 -397 -123t-398.5 157.5t-144.5 421.5t108 481t285.5 336.5t417.5 119.5q175 0 313 -59l-72 -248q-113 80 -254 80z" />
    <glyph glyph-name="afii10036" unicode="&#x422;" horiz-adv-x="1346" 
d="M1401 1237h-461l-227 -1237h-262l225 1237h-465l41 227h1192z" />
    <glyph glyph-name="afii10037" unicode="&#x423;" horiz-adv-x="1270" 
d="M98 -14h-24l49 239q12 -2 47 -2q241 0 399 187l-374 1054h280l266 -858q245 405 410 858h274q-189 -473 -415 -836t-420 -502.5t-492 -139.5z" />
    <glyph glyph-name="afii10038" unicode="&#x424;" horiz-adv-x="1620" 
d="M370 621q0 -276 295 -304l158 844q-222 -23 -337.5 -183t-115.5 -357zM1362 864q0 273 -293 299l-158 -844q227 28 339 188t112 357zM1609 866q0 -279 -190 -496.5t-539 -244.5l-26 -158h-254l26 160q-236 15 -369.5 146.5t-133.5 343.5q0 284 197.5 498.5t531.5 240.5
l28 157h254l-28 -159q236 -15 369.5 -145.5t133.5 -342.5z" />
    <glyph glyph-name="afii10039" unicode="&#x425;" horiz-adv-x="1296" 
d="M838 743l329 -743h-288l-220 530l-403 -530h-307l610 768l-305 696h278l203 -487l377 487h303z" />
    <glyph glyph-name="afii10040" unicode="&#x426;" horiz-adv-x="1382" 
d="M1016 0h-963l269 1464h262l-228 -1237h510l228 1237h260l-228 -1237h168l-116 -647h-238z" />
    <glyph glyph-name="afii10041" unicode="&#x427;" horiz-adv-x="1288" 
d="M660 553q-209 0 -325 93.5t-116 264.5q0 52 11 110l84 443h277l-63 -328q-29 -150 -29 -183q0 -187 221 -187q105 0 233 31l125 667h264l-270 -1464h-264l108 582q-132 -29 -256 -29z" />
    <glyph glyph-name="afii10042" unicode="&#x428;" horiz-adv-x="1886" 
d="M1929 1464l-268 -1464h-1608l269 1464h251l-229 -1247h428l229 1247h252l-229 -1247h428l229 1247h248z" />
    <glyph glyph-name="afii10043" unicode="&#x429;" horiz-adv-x="1958" 
d="M1513 -420l76 420h-1536l269 1464h251l-229 -1247h428l229 1247h252l-229 -1247h428l229 1247h248l-229 -1241h164l-115 -643h-236z" />
    <glyph glyph-name="afii10044" unicode="&#x42a;" horiz-adv-x="1610" 
d="M1063 926q222 0 345 -98t123 -277q0 -240 -171 -395.5t-469 -155.5h-440l227 1237h-469l39 227h729l-103 -551q98 13 189 13zM1264 516q0 201 -279 201q-49 0 -147 -10l-90 -490q109 -6 131 -6q201 0 293 89.5t92 215.5z" />
    <glyph glyph-name="afii10045" unicode="&#x42b;" horiz-adv-x="1696" 
d="M1739 1464l-266 -1464h-261l267 1464h260zM651 926q222 0 346.5 -98.5t124.5 -277.5q0 -237 -166.5 -393.5t-466.5 -156.5h-436l266 1464h259l-103 -551q117 13 176 13zM858 518q0 199 -270 199q-54 0 -150 -10l-90 -490q106 -6 127 -6q202 0 292.5 92t90.5 215z" />
    <glyph glyph-name="afii10046" unicode="&#x42c;" horiz-adv-x="1237" 
d="M682 928q223 0 349.5 -100.5t126.5 -280.5q0 -239 -173.5 -393t-472.5 -154h-459l266 1464h265l-103 -549q125 13 201 13zM886 519q0 198 -268 198q-58 0 -174 -10l-90 -490q82 -6 152 -6q200 0 290 92t90 216z" />
    <glyph glyph-name="afii10047" unicode="&#x42d;" horiz-adv-x="1223" 
d="M690 1491q238 0 372.5 -146t134.5 -411q0 -217 -85.5 -451.5t-267.5 -371t-433 -136.5t-407 115l90 240q62 -59 151.5 -93t178.5 -34q167 0 298.5 121t178.5 333h-551l39 215h543q3 36 3 68q0 328 -286 328q-167 0 -321 -78l-72 223q196 78 434 78z" />
    <glyph glyph-name="afii10048" unicode="&#x42e;" horiz-adv-x="1927" 
d="M1161 197q235 0 356.5 244.5t121.5 501.5q0 319 -269 319q-215 0 -340 -240t-125 -502q0 -174 72 -248.5t184 -74.5zM1412 1487q240 0 364.5 -149.5t124.5 -381.5t-88.5 -462.5t-262.5 -376.5t-417 -146t-360.5 143t-117.5 395q0 74 11 153h-236l-121 -662h-256l266 1464
h254l-102 -575h242q91 287 275 442.5t424 155.5z" />
    <glyph glyph-name="afii10049" unicode="&#x42f;" horiz-adv-x="1288" 
d="M864 1272q-163 0 -253.5 -74t-90.5 -187q0 -188 291 -194l147 -2l84 447q-75 10 -178 10zM879 608q-202 0 -317.5 -84.5t-163.5 -244.5t-125 -225.5t-207 -65.5q-69 0 -97 6l41 231q22 -4 54 -4t55 26.5t53 112.5q44 129 140 218.5t225 121.5q-172 52 -225 136.5
t-53 175.5q0 194 171 331.5t477 137.5q157 0 424 -25l-268 -1456h-258l115 608h-41z" />
    <glyph glyph-name="afii10065" unicode="&#x430;" horiz-adv-x="1141" 
d="M707 887q-167 0 -267 -157.5t-100 -373.5q0 -172 170 -172q106 0 186 129.5t146 552.5q-68 21 -135 21zM989 301q0 -215 35 -301h-158q-69 0 -102 106q-130 -126 -312 -126t-277 96.5t-95 273.5q0 309 185 525.5t461 216.5t394 -52l-82 -433q-44 -228 -46.5 -251
t-2.5 -55z" />
    <glyph glyph-name="afii10066" unicode="&#x431;" 
d="M360 462q0 -282 218 -282q151 0 244 130.5t93 299.5q0 108 -55 166t-155 58q-158 0 -299 -103q-46 -125 -46 -269zM772 1028q183 0 290 -105t107 -279t-82.5 -336t-225 -245t-314.5 -83q-211 0 -324.5 123t-113.5 337t91.5 484t251.5 407t478 160q190 12 287 53l55 -213
q-90 -52 -371 -65q-162 -8 -285.5 -56.5t-203.5 -287.5q177 106 360 106z" />
    <glyph glyph-name="afii10067" unicode="&#x432;" horiz-adv-x="1153" 
d="M547 174q254 0 254 162q0 52 -52 87.5t-141 35.5h-231l-45 -236q14 -20 79 -34.5t136 -14.5zM586 637q260 0 260 156q0 50 -41 83t-115 33q-226 0 -280 -272h176zM1051 317q0 -154 -136 -247t-383 -93q-85 0 -192 16t-171 35.5t-81.5 32.5t-17.5 29t53.5 291t70.5 343.5
t114.5 221t393.5 152.5q185 0 284 -81t99 -206q0 -93 -64.5 -166.5t-174.5 -95.5q205 -51 205 -232z" />
    <glyph glyph-name="afii10068" unicode="&#x433;" horiz-adv-x="999" 
d="M596 1092q194 0 290.5 -71.5t96.5 -191.5t-61.5 -187.5t-199.5 -120.5t-233 -87t-131 -68t-36 -83q0 -95 143 -95q178 0 395 123l-33 -264q-206 -67 -394 -67t-282 76t-94 208q0 231 301 336q248 89 282 103.5t58.5 37t24.5 64.5q0 80 -145 80t-277 -80l-98 209
q199 78 393 78z" />
    <glyph glyph-name="afii10069" unicode="&#x434;" horiz-adv-x="1237" 
d="M686 838q-148 0 -249 -126t-101 -300q0 -232 207 -232q298 0 418 582q-127 76 -275 76zM709 1532q532 0 532 -481q0 -241 -93 -524t-248.5 -415t-369.5 -132t-332 111.5t-118 303.5q0 252 169.5 444.5t444.5 192.5q162 0 297 -78q2 26 2 74q0 155 -73.5 227t-225.5 72
t-286 -45l-33 227q150 23 334 23z" />
    <glyph glyph-name="afii10070" unicode="&#x435;" horiz-adv-x="1114" 
d="M545 627q319 0 319 161q0 99 -166 99q-113 0 -199.5 -68t-119.5 -168q71 -24 166 -24zM342 420q0 -111 68 -172.5t188 -61.5q65 0 145 31t131 78l-32 -258q-132 -57 -322 -57t-310 124t-120 316t78 344t225.5 240t328.5 88t285.5 -72t104.5 -209q0 -179 -158 -281
t-387 -102q-113 0 -225 41v-49z" />
    <glyph glyph-name="afii10072" unicode="&#x436;" horiz-adv-x="1604" 
d="M1546 879q-40 0 -65 -70q-78 -205 -312 -252q199 -82 220 -289q3 -40 13 -56.5t40 -16.5t41 4l-37 -205q-50 -6 -116 -6t-112.5 47t-46.5 137q0 289 -241 293l-84 -465h-230l84 465q-139 0 -225.5 -70.5t-130.5 -218.5q-54 -188 -246 -188q-45 0 -94 6l37 205
q10 -4 41 -4q39 0 68 71q88 230 335 303q-94 23 -149.5 85.5t-63.5 148.5q-6 76 -46 76q-22 0 -48 -5l37 203q73 6 100 6q166 0 166 -174q0 -239 256 -245l72 407h229l-71 -407q250 0 323 239q55 180 230 180q30 0 106 -6l-37 -203q-22 5 -43 5z" />
    <glyph glyph-name="afii10073" unicode="&#x437;" horiz-adv-x="989" 
d="M899 342q0 -152 -131.5 -258.5t-363.5 -106.5t-400 78l115 213q134 -88 299 -88q98 0 162.5 44.5t64.5 119.5q0 117 -182 117q-84 0 -148 -6l35 194q38 -2 144 -2t163.5 39.5t57.5 94.5q-1 114 -147 114t-312 -70l-55 217q197 52 383 52t282.5 -73t96.5 -194
q0 -92 -60 -166t-166 -108q162 -59 162 -211z" />
    <glyph glyph-name="afii10074" unicode="&#x438;" horiz-adv-x="1188" 
d="M410 -20q-138 0 -216.5 80.5t-78.5 218.5q0 43 38 245l103 547h254q-120 -644 -127.5 -681.5t-7.5 -72.5q0 -129 145 -129q120 0 202 81t98 177l110 625h252l-201 -1071h-250l14 78q-132 -98 -335 -98z" />
    <glyph glyph-name="afii10075" unicode="&#x439;" horiz-adv-x="1188" 
d="M739 1225q-152 0 -241 79t-89 218q0 29 5 61l217 -22q-4 -23 -4 -42q0 -124 133 -124q156 0 188 176l199 -45q-82 -301 -408 -301zM410 -20q-138 0 -216.5 80.5t-78.5 218.5q0 43 38 245l103 547h254q-120 -644 -127.5 -681.5t-7.5 -72.5q0 -129 145 -129q120 0 202 81
t98 177l110 625h252l-201 -1071h-250l14 78q-132 -98 -335 -98z" />
    <glyph glyph-name="afii10076" unicode="&#x43a;" horiz-adv-x="1122" 
d="M1061 879q-40 0 -66 -66q-85 -217 -319 -256q225 -76 235 -307q3 -55 50 -55q15 0 45 4l-37 -205q-54 -6 -127 -6t-120.5 48.5t-47.5 139.5q0 285 -271 285h-10l-82 -461h-252l193 1071h252l-72 -403h12q259 0 340 239q30 88 82.5 132t159.5 44q36 0 119 -6l-37 -203
q-26 5 -47 5z" />
    <glyph glyph-name="afii10077" unicode="&#x43b;" horiz-adv-x="1247" 
d="M1049 0h-254l159 874h-262q-42 -227 -120 -430.5t-171.5 -298.5t-188 -126t-222.5 -31l43 221q123 0 239 143t232 719h737z" />
    <glyph glyph-name="afii10078" unicode="&#x43c;" horiz-adv-x="1552" 
d="M1169 0l11 567l-422 -585h-90l-201 591l-227 -573h-250l461 1092h90l247 -730l523 730h92l18 -1092h-252z" />
    <glyph glyph-name="afii10079" unicode="&#x43d;" horiz-adv-x="1204" 
d="M1006 0h-254l82 459h-439l-82 -459h-254l193 1071h254l-74 -405h438l74 405h254z" />
    <glyph glyph-name="afii10080" unicode="&#x43e;" horiz-adv-x="1165" 
d="M340 414q0 -230 197 -230q155 0 246 142t91 352t-196 209q-155 0 -246.5 -142.5t-91.5 -330.5zM80 401q0 289 177.5 490t447.5 201q204 0 318 -107.5t114 -306.5q0 -294 -175 -496t-452 -202q-208 0 -319 109.5t-111 311.5z" />
    <glyph glyph-name="afii10081" unicode="&#x43f;" horiz-adv-x="1186" 
d="M854 750q0 133 -158 133q-135 0 -239 -113l-144 -770h-252l152 803q4 27 4 85t-29 163l244 45l25 -119q133 115 329 115q330 0 330 -310q0 -56 -8 -97l-127 -685h-258l119 634q12 65 12 116z" />
    <glyph glyph-name="afii10082" unicode="&#x440;" horiz-adv-x="1194" 
d="M498 190q194 0 299.5 120t105.5 339q0 103 -63 164t-162 61t-154 -42.5t-68 -58.5q-3 -3 -34 -165l-70 -366q52 -52 146 -52zM211 880q0 76 -18 167l243 43q15 -37 25 -103q138 105 274 105q430 0 430 -416q0 -305 -175.5 -500.5t-465.5 -195.5q-115 0 -211 49l-80 -449
h-249l215 1159q12 65 12 141z" />
    <glyph glyph-name="afii10083" unicode="&#x441;" horiz-adv-x="1004" 
d="M729 883q-171 0 -276 -128t-105 -323q0 -96 58.5 -169t152.5 -73q133 0 315 115l-30 -262q-159 -63 -316 -63q-202 0 -320 111.5t-118 315.5t82.5 358.5t220 240.5t309.5 86t291 -68l-51 -217q-106 76 -213 76z" />
    <glyph glyph-name="afii10084" unicode="&#x442;" horiz-adv-x="1763" 
d="M1430 743q0 140 -148 140q-66 0 -134 -49t-71 -66l-143 -768h-256l143 756l2 22q0 105 -159 105q-63 0 -132.5 -51t-72.5 -66l-144 -766h-254l144 774q6 28 6 104t-29 173l246 43q16 -65 23 -97q122 95 317 95t285 -115q127 115 319 115q322 0 322 -293q0 -42 -6 -71
l-136 -728h-256l88 469q46 241 46 274z" />
    <glyph glyph-name="afii10085" unicode="&#x443;" horiz-adv-x="1094" 
d="M43 -178q286 0 362 182l52 121q-137 35 -189 305l-123 641h263q115 -696 149 -735l344 735h283l-563 -1177q-148 -311 -578 -314v242z" />
    <glyph glyph-name="afii10086" unicode="&#x444;" horiz-adv-x="1626" 
d="M667 899q-155 0 -237.5 -163.5t-82.5 -336.5q0 -105 41 -164t150 -59q56 0 148 39l104 666q-65 18 -123 18zM1034 176q99 0 177 72t116.5 201t38.5 234q0 216 -179 216q-78 0 -159 -31l-107 -671q53 -21 113 -21zM1253 1092q155 0 254.5 -98t99.5 -284t-66 -362
t-193 -272t-290 -96q-87 0 -163 32q-19 -133 -44 -215t-128 -152t-293 -96l-21 156q182 39 204.5 124t39.5 198q-105 -47 -211 -47q-150 0 -244 100t-94 301q0 286 152 498.5t415 212.5q66 0 146 -35q24 162 48 227.5t104.5 150.5t306.5 103l18 -156q-90 -15 -135 -47
t-62.5 -85.5t-38.5 -207.5q105 50 195 50z" />
    <glyph glyph-name="afii10087" unicode="&#x445;" horiz-adv-x="1169" 
d="M748 543l307 -543h-295l-180 375l-301 -375h-310l504 559l-287 512h287l168 -344l285 344h297z" />
    <glyph glyph-name="afii10088" unicode="&#x446;" horiz-adv-x="1217" 
d="M403 -20q-130 0 -210 75.5t-80 225.5q0 44 11 105l128 685h252l-96 -522q-35 -192 -35 -240t34 -84.5t111 -36.5t163 62.5t89 81.5l133 739h250l-137 -743q-7 -38 -7 -67q0 -128 156 -128l-102 -506h-229l79 365q-45 0 -85 37t-52 92q-160 -141 -373 -141z" />
    <glyph glyph-name="afii10089" unicode="&#x447;" horiz-adv-x="1161" 
d="M504 367q-156 0 -241 77t-85 220q0 48 10 103l55 304h254q-54 -295 -57 -313t-3 -45q0 -138 163 -138q116 0 227 37l82 459h250l-193 -1071h-249l73 414q-130 -47 -286 -47z" />
    <glyph glyph-name="afii10090" unicode="&#x448;" horiz-adv-x="1737" 
d="M1032 -20q-199 0 -260 145q-141 -145 -348 -145q-151 0 -231 75t-80 215q0 51 10 105l131 696h250l-126 -679q-7 -41 -7 -68q0 -138 143 -138q78 0 146.5 56.5t72.5 79.5l135 749h250l-125 -690q-8 -43 -8 -70q0 -125 137 -125q69 0 146.5 62t81.5 82l133 741h248
l-156 -866q-21 -124 -27 -205h-243l10 92q-131 -112 -283 -112z" />
    <glyph glyph-name="afii10091" unicode="&#x449;" horiz-adv-x="1778" 
d="M1016 -20q-191 0 -252 145q-142 -145 -344 -145q-150 0 -228.5 74.5t-78.5 215.5q0 51 10 105l131 696h250l-126 -679q-7 -41 -7 -68q0 -138 139 -138q77 0 144 57t71 79l135 749h248l-125 -690q-8 -43 -8 -70q0 -125 131 -125q71 0 146 61.5t79 82.5l133 741h248
l-135 -743q-7 -38 -7 -67q0 -128 156 -128l-102 -506h-229l80 365q-46 0 -87 38t-51 93q-130 -143 -321 -143z" />
    <glyph glyph-name="afii10092" unicode="&#x44a;" horiz-adv-x="1315" 
d="M881 700q163 0 260.5 -92t97.5 -244t-122.5 -268t-385.5 -116q-103 0 -228.5 23t-205.5 58l156 803h-322l41 207h565l-78 -397q112 26 222 26zM991 352q0 76 -48.5 117t-132.5 41t-185 -18l-56 -285q56 -39 176 -39t183 54t63 130z" />
    <glyph glyph-name="afii10093" unicode="&#x44b;" horiz-adv-x="1544" 
d="M1538 1071l-195 -1071h-245l194 1071h246zM639 700q160 0 254 -91t94 -249t-125.5 -269t-374.5 -111q-101 0 -225 23t-203 58l193 1010h248l-78 -397q108 26 217 26zM741 348q0 80 -47.5 121t-128.5 41t-178 -18l-55 -285q55 -39 168 -39t177 50t64 130z" />
    <glyph glyph-name="afii10094" unicode="&#x44c;" horiz-adv-x="1102" 
d="M670 700q163 0 259.5 -91t96.5 -249t-128.5 -269t-383.5 -111q-110 0 -241 23t-214 58l193 1010h254l-80 -401q132 30 244 30zM772 348q0 80 -47.5 120t-134.5 40t-201 -27l-49 -266q16 -18 73 -30.5t137 -12.5t151 48t71 128z" />
    <glyph glyph-name="afii10095" unicode="&#x44d;" horiz-adv-x="1001" 
d="M549 1094q188 0 301 -114t113 -321q0 -160 -70 -327t-213.5 -261t-329.5 -94t-336 70l88 215q120 -82 243 -82t211 72.5t126 204.5h-420l37 192h412q0 84 -16.5 132.5t-62 81t-138.5 32.5t-215 -53l-60 211q142 41 330 41z" />
    <glyph glyph-name="afii10096" unicode="&#x44e;" horiz-adv-x="1563" 
d="M975 184q144 0 228.5 156.5t84.5 336.5q0 210 -172 210q-132 0 -221.5 -152.5t-89.5 -337.5q0 -213 170 -213zM1132 1092q192 0 295 -107t103 -276t-60.5 -338.5t-193.5 -280t-321 -110.5t-291 106t-103 297q0 38 4 78h-180l-84 -461h-242l195 1071h244l-76 -407h186
q62 190 197 309t327 119z" />
    <glyph glyph-name="afii10097" unicode="&#x44f;" horiz-adv-x="1145" 
d="M685 897q-114 0 -171.5 -48t-57.5 -117q0 -135 220 -138l129 -2l53 280q-59 25 -173 25zM202 722q0 142 128.5 252.5t378.5 110.5q114 0 233 -16t150.5 -29t31.5 -34q0 -9 -4 -31l-178 -975h-248l78 406h-76q-269 0 -354 -248q-57 -170 -238 -170q-54 0 -104 6l37 205
q26 -4 43 -4q41 0 63 57q74 187 279 242q-106 22 -163 82t-57 146z" />
    <glyph glyph-name="afii10071" unicode="&#x451;" horiz-adv-x="1114" 
d="M538 1552q56 0 102 -36t46 -98t-42 -101t-101 -39t-103.5 37t-44.5 97t43.5 100t99.5 40zM1004 1552q59 0 103 -40t44 -100t-44.5 -97t-100.5 -37t-101 37t-45 99t42.5 100t101.5 38zM545 627q319 0 319 161q0 99 -166 99q-113 0 -199.5 -68t-119.5 -168q71 -24 166 -24z
M342 420q0 -111 68 -172.5t188 -61.5q65 0 145 31t131 78l-32 -258q-132 -57 -322 -57t-310 124t-120 316t78 344t225.5 240t328.5 88t285.5 -72t104.5 -209q0 -179 -158 -281t-387 -102q-113 0 -225 41v-49z" />
    <glyph glyph-name="afii10099" unicode="&#x452;" horiz-adv-x="1192" 
d="M768 1036q164 0 259 -87t95 -250q0 -51 -33 -232l-62 -342q-29 -161 -71 -252.5t-149.5 -191t-396.5 -103.5l39 215q184 2 242.5 99t82.5 227l64 342q32 172 32 201q0 79 -48 124t-120 45q-152 0 -258 -112l-129 -719h-252l213 1184h-151l29 159h151l35 189h252l-35 -189
h391l-28 -159h-392l-43 -236q119 88 283 88z" />
    <glyph glyph-name="afii10100" unicode="&#x453;" horiz-adv-x="999" 
d="M1006 1575l-269 -332h-207l205 332h271zM596 1092q194 0 290.5 -71.5t96.5 -191.5t-61.5 -187.5t-199.5 -120.5t-232 -87t-131 -68t-37 -83q0 -95 143 -95q178 0 395 123l-33 -264q-206 -67 -394 -67t-282 76t-94 208q0 231 301 336q248 89 282 103.5t58.5 37t24.5 64.5
q0 80 -145 80t-277 -80l-98 209q199 78 393 78z" />
    <glyph glyph-name="afii10101" unicode="&#x454;" horiz-adv-x="1010" 
d="M731 893q-252 0 -350 -244h410l-37 -192h-410q-3 -26 -3 -50q0 -107 55 -167t159 -60q145 0 315 101l-28 -244q-159 -60 -316 -60q-213 0 -324.5 112.5t-111.5 326.5q0 168 80 333.5t219 255t313 89.5t299 -56l-51 -215q-112 70 -219 70z" />
    <glyph glyph-name="afii10102" unicode="&#x455;" horiz-adv-x="934" 
d="M573 883q-65 0 -109 -29.5t-44 -81.5t105 -107q105 -54 203.5 -108t98.5 -197q0 -175 -132.5 -277.5t-323.5 -102.5t-359 100l131 225q126 -117 246 -117q78 0 126 38t48 98t-92 108q-150 78 -199 110t-81.5 86t-32.5 122q0 148 116 245t314 97q119 0 321 -84l-116 -230
q-120 105 -220 105z" />
    <glyph glyph-name="afii10103" unicode="&#x456;" horiz-adv-x="641" 
d="M397 0h-254l162 870h-137l43 201h387zM346 1409q0 62 44 107t104 45t104.5 -41.5t44.5 -109.5t-45.5 -109t-103.5 -41t-103 43.5t-45 105.5z" />
    <glyph glyph-name="afii10104" unicode="&#x457;" horiz-adv-x="641" 
d="M228 1552q56 0 101.5 -36t45.5 -98t-42 -101t-101 -39t-103.5 37t-44.5 97t44 100t100 40zM397 0h-254l162 870h-137l43 201h387zM549 1414q0 62 42.5 100t100.5 38t103 -39.5t45 -98.5t-43 -97.5t-101 -38.5t-102.5 37t-44.5 99z" />
    <glyph glyph-name="afii10105" unicode="&#x458;" horiz-adv-x="678" 
d="M436 14q-39 -218 -188 -326t-469 -108l12 221q210 0 293.5 51.5t103.5 167.5l152 850h-143l47 201h389zM383 1410q0 61 43.5 106t103.5 45t105 -41.5t45 -109.5t-44 -109t-106 -41t-104.5 44.5t-42.5 105.5z" />
    <glyph glyph-name="afii10106" unicode="&#x459;" horiz-adv-x="1788" 
d="M1366 700q160 0 253 -91t93 -240q0 -111 -87 -250t-404 -139q-101 0 -221 23t-199 58l151 813h-268q-42 -226 -117 -423.5t-169.5 -298.5t-187 -132.5t-220.5 -31.5l43 221q123 0 239 143t232 719h727l-76 -397q110 26 211 26zM1468 344q0 166 -178 166q-73 0 -170 -18
l-53 -285q55 -39 165 -39t173 46t63 130z" />
    <glyph glyph-name="afii10107" unicode="&#x45a;" horiz-adv-x="1708" 
d="M1286 700q160 0 253 -91t93 -251t-125 -269t-366 -109q-102 0 -223.5 23t-200.5 58l71 398h-399l-82 -459h-248l193 1071h248l-74 -405h401l76 405h246l-76 -397q108 26 213 26zM1386 344q0 166 -178 166q-73 0 -170 -18l-53 -285q55 -39 165 -39t173 46t63 130z" />
    <glyph glyph-name="afii10108" unicode="&#x45b;" horiz-adv-x="1192" 
d="M768 1036q164 0 259 -87t95 -250q0 -52 -4 -76l-112 -623h-254l77 417q41 218 41 245q0 79 -48 124t-120 45q-152 0 -258 -112l-129 -719h-252l213 1184h-151l29 159h151l35 189h252l-35 -189h391l-28 -159h-392l-43 -236q119 88 283 88z" />
    <glyph glyph-name="afii10109" unicode="&#x45c;" horiz-adv-x="1122" 
d="M1051 1575l-269 -332h-207l205 332h271zM1061 879q-40 0 -66 -66q-85 -217 -319 -256q225 -76 235 -307q3 -55 50 -55q15 0 45 4l-37 -205q-54 -6 -127 -6t-120.5 48.5t-47.5 139.5q0 285 -271 285h-10l-82 -461h-252l193 1071h252l-72 -403h12q259 0 340 239
q30 88 82.5 132t159.5 44q36 0 119 -6l-37 -203q-26 5 -47 5z" />
    <glyph glyph-name="afii10110" unicode="&#x45e;" horiz-adv-x="1094" 
d="M702 1225q-152 0 -240.5 79t-88.5 218q0 29 4 61l217 -22q-4 -23 -4 -42q0 -124 133 -124q156 0 188 176l199 -45q-82 -301 -408 -301zM43 -178q286 0 362 182l52 121q-137 35 -189 305l-123 641h263q115 -696 149 -735l344 735h283l-563 -1177q-148 -311 -578 -314v242z
" />
    <glyph glyph-name="afii10193" unicode="&#x45f;" horiz-adv-x="1182" 
d="M113 279q0 53 10 109l127 683h256l-128 -694q-5 -29 -5 -60q0 -129 143 -129q93 0 181 63t91 83l136 737h252l-160 -866q-19 -97 -27 -205h-246l9 88q-77 -50 -154 -78l-74 -383h-231l90 353q-120 6 -195 82t-75 217z" />
    <glyph glyph-name="afii10050" unicode="&#x490;" horiz-adv-x="1139" 
d="M1200 1237h-645l-236 -1237h-266l277 1464h690l57 322h221z" />
    <glyph glyph-name="afii10098" unicode="&#x491;" horiz-adv-x="952" 
d="M961 862h-490l-156 -862h-256l193 1071h543l49 270h203z" />
    <glyph glyph-name="Wgrave" unicode="&#x1e80;" horiz-adv-x="1897" 
d="M1272 -20h-105l-159 894l-475 -894h-105l-207 1485h265l111 -888l462 888h113l136 -882l428 882h282zM1112 1585l-153 333h280l35 -333h-162z" />
    <glyph glyph-name="wgrave" unicode="&#x1e81;" horiz-adv-x="1584" 
d="M1064 -20h-90l-187 619l-401 -619h-92l-211 1091h254l107 -590l367 590h90l177 -597l309 597h265zM857 1285l-153 333h280l35 -333h-162z" />
    <glyph glyph-name="Wacute" unicode="&#x1e82;" horiz-adv-x="1897" 
d="M1272 -20h-105l-159 894l-475 -894h-105l-207 1485h265l111 -888l462 888h113l136 -882l428 882h282zM1180 1585h-216l205 333h284z" />
    <glyph glyph-name="wacute" unicode="&#x1e83;" horiz-adv-x="1584" 
d="M1064 -20h-90l-187 619l-401 -619h-92l-211 1091h254l107 -590l367 590h90l177 -597l309 597h265zM962 1285h-216l205 333h284z" />
    <glyph glyph-name="Wdieresis" unicode="&#x1e84;" horiz-adv-x="1897" 
d="M1272 -20h-105l-159 894l-475 -894h-105l-207 1485h265l111 -888l462 888h113l136 -882l428 882h282zM772 1770q0 50 45 82t103 31t102 -31q45 -30 45 -80t-45 -82t-103 -32q-59 0 -103 31t-44 81zM1245 1771q0 51 45 81q44 30 102 31t103 -31t45 -82t-44 -81t-104 -31
q-58 0 -102 31t-45 82z" />
    <glyph glyph-name="wdieresis" unicode="&#x1e85;" horiz-adv-x="1584" 
d="M1064 -20h-90l-187 619l-401 -619h-92l-211 1091h254l107 -590l367 590h90l177 -597l309 597h265zM502 1400q0 50 45 82t103 31t102 -31q45 -30 45 -80t-45 -82t-103 -32q-59 0 -103 31t-44 81zM975 1401q0 51 45 81q44 30 102 31t103 -31t45 -82t-44 -81t-104 -31
q-58 0 -102 31t-45 82z" />
    <glyph glyph-name="Ygrave" unicode="&#x1ef2;" horiz-adv-x="1400" 
d="M848 648l-119 -648h-258l121 656l-345 809h271l236 -573l439 573h297zM807 1585l-153 333h280l35 -333h-162z" />
    <glyph glyph-name="ygrave" unicode="&#x1ef3;" horiz-adv-x="1155" 
d="M620 -107q-149 -311 -578 -313v241q283 1 363 183l52 120q-137 39 -185 288l-127 659h263q117 -704 149 -735l344 735h283zM627 1285l-153 333h280l35 -333h-162z" />
    <glyph glyph-name="endash" unicode="&#x2013;" horiz-adv-x="752" 
d="M63 502v201h581v-201h-581z" />
    <glyph glyph-name="emdash" unicode="&#x2014;" horiz-adv-x="1504" 
d="M63 502v201h1369v-201h-1369z" />
    <glyph glyph-name="afii00208" unicode="&#x2015;" horiz-adv-x="1504" 
d="M63 502v201h1369v-201h-1369z" />
    <glyph glyph-name="underscoredbl" unicode="&#x2017;" 
d="M-8 -504v129h1214v-129h-1214zM-8 -254v129h1214v-129h-1214z" />
    <glyph glyph-name="quoteleft" unicode="&#x2018;" horiz-adv-x="752" 
d="M435 866q-155 0 -155 164q0 14 2 28q24 276 323 452l73 -111q-73 -53 -109 -88t-40 -79t40 -99t40 -105q-14 -162 -174 -162z" />
    <glyph glyph-name="quoteright" unicode="&#x2019;" horiz-adv-x="752" 
d="M523 1510q155 0 155 -164q0 -14 -2 -28q-24 -276 -323 -452l-73 111q73 53 109 88t40 79t-40 99t-40 105q14 162 174 162z" />
    <glyph glyph-name="quotesinglbase" unicode="&#x201a;" horiz-adv-x="752" 
d="M333 277q155 0 155 -164q0 -14 -2 -28q-24 -276 -323 -452l-73 111q73 53 109 88t40 79t-40 99t-40 105q14 162 174 162z" />
    <glyph glyph-name="quotereversed" unicode="&#x201b;" horiz-adv-x="752" 
d="M300 1206q0 78 29 158q55 146 169 146q39 0 71 -9q103 -30 103 -126t-98 -154q-118 -70 -75 -162q20 -43 67 -109l-118 -84q-148 166 -148 340z" />
    <glyph glyph-name="quotedblleft" unicode="&#x201c;" 
d="M435 866q-155 0 -155 164q0 14 2 28q24 276 323 452l73 -111q-73 -53 -109 -88t-40 -79t40 -99t40 -105q-14 -162 -174 -162zM895 866q-155 0 -155 164q0 14 2 28q24 276 323 452l73 -111q-73 -53 -109 -88t-40 -79t40 -99t40 -105q-14 -162 -174 -162z" />
    <glyph glyph-name="quotedblright" unicode="&#x201d;" 
d="M523 1510q155 0 155 -164q0 -14 -2 -28q-24 -276 -323 -452l-73 111q73 53 109 88t40 79t-40 99t-40 105q14 162 174 162zM983 1510q155 0 155 -164q0 -14 -2 -28q-24 -276 -323 -452l-73 111q73 53 109 88t40 79t-40 99t-40 105q14 162 174 162z" />
    <glyph glyph-name="quotedblbase" unicode="&#x201e;" 
d="M354 277q155 0 155 -164q0 -14 -2 -28q-24 -276 -323 -452l-73 111q73 53 109 88t40 79t-40 99t-40 105q14 162 174 162zM814 277q155 0 155 -164q0 -14 -2 -28q-24 -276 -323 -452l-73 111q73 53 109 88t40 79t-40 99t-40 105q14 162 174 162z" />
    <glyph glyph-name="dagger" unicode="&#x2020;" horiz-adv-x="940" 
d="M641 888l-198 -1122l-125 -120l-85 119l198 1123h-350l34 194h350l53 303h210l-53 -303h350l-34 -194h-350z" />
    <glyph glyph-name="daggerdbl" unicode="&#x2021;" horiz-adv-x="940" 
d="M524 221l-81 -455l-129 -128l-80 128l80 455h-350l34 194h350l83 473h-350l35 194h350l53 303h210l-53 -303h350l-35 -194h-350l-83 -473h350l-34 -194h-350z" />
    <glyph glyph-name="bullet" unicode="&#x2022;" horiz-adv-x="1074" 
d="M542 863q122 0 205.5 -83.5t83.5 -205.5t-83.5 -205.5t-205.5 -83.5t-205.5 83.5t-83.5 205.5t83.5 205.5t205.5 83.5z" />
    <glyph glyph-name="ellipsis" unicode="&#x2026;" horiz-adv-x="1504" 
d="M1404 131q0 -62 -44 -106.5t-106 -44.5t-106 44.5t-44 106.5t44 106t106 44t106 -44t44 -106zM902 131q0 -62 -44 -106.5t-106 -44.5t-106 44.5t-44 106.5t44 106t106 44t106 -44t44 -106zM400 131q0 -62 -44 -106.5t-106 -44.5t-106 44.5t-44 106.5t44 106t106 44
t106 -44t44 -106z" />
    <glyph glyph-name="perthousand" unicode="&#x2030;" horiz-adv-x="2135" 
d="M1621 260q1 -116 81 -116t124.5 81t44.5 197t-86 117q-75 0 -119.5 -81.5t-44.5 -197.5zM1422 240q0 195 109.5 329t285.5 134q249 0 249 -269q0 -189 -107.5 -321.5t-278.5 -132.5q-258 0 -258 260zM911 260q1 -116 81 -116t124.5 81t44.5 197t-86 117
q-75 0 -119.5 -81.5t-44.5 -197.5zM712 240q0 195 109.5 329t285.5 134q249 0 249 -269q0 -189 -107.5 -321.5t-278.5 -132.5q-258 0 -258 260zM252 -20h-208l1190 1511h207zM340 1048q0 -116 80 -116t125 83t45 197t-86 115q-75 0 -119.5 -81.5t-44.5 -197.5zM141 1027
q0 194 109.5 329t284.5 135q250 0 250 -269q0 -189 -107.5 -321.5t-278.5 -132.5q-258 0 -258 259z" />
    <glyph glyph-name="minute" unicode="&#x2032;" horiz-adv-x="406" 
d="M348 1056h-193l166 411h244z" />
    <glyph glyph-name="second" unicode="&#x2033;" horiz-adv-x="766" 
d="M708 1056h-193l166 411h244zM348 1056h-193l166 411h244z" />
    <glyph glyph-name="guilsinglleft" unicode="&#x2039;" horiz-adv-x="752" 
d="M141 519v96l415 285v-197l-189 -140l189 -124v-197z" />
    <glyph glyph-name="guilsinglright" unicode="&#x203a;" horiz-adv-x="752" 
d="M181 242v197l189 124l-189 140v197l415 -285v-96z" />
    <glyph glyph-name="exclamdbl" unicode="&#x203c;" horiz-adv-x="1252" 
d="M163 141q-1 69 49 115t118 46t118 -46t49 -115q0 -69 -49 -115t-118 -46t-118 46t-49 115zM442 424h-132l10 279q8 212 36 368l78 420h297l-57 -330q-13 -77 -103 -348zM663 141q-1 69 49 115t118 46t118 -46t49 -115q0 -69 -49 -115t-118 -46t-118 46t-49 115zM942 424
h-132l10 279q8 212 36 368l78 420h297l-57 -330q-13 -77 -103 -348z" />
    <glyph glyph-name="radicalex" unicode="&#x203e;" horiz-adv-x="1074" 
d="M785 1471v-175h-791v175h791z" />
    <glyph glyph-name="fraction" unicode="&#x2044;" 
d="M256 -35h-188l884 1526h186z" />
    <glyph glyph-name="fraction" unicode="&#x2215;" 
d="M256 -35h-188l884 1526h186z" />
    <glyph glyph-name="nsuperior" unicode="&#x207f;" horiz-adv-x="876" 
d="M876 1272q0 -48 -8 -92l-84 -452h-162l82 433q8 44 8 88q0 95 -100 95t-172 -80l-99 -536h-162l107 558q2 11 2 56t-21 120l156 31l17 -84q93 82 209 82q227 0 227 -219z" />
    <glyph glyph-name="franc" unicode="&#x20a3;" horiz-adv-x="1807" 
d="M1240 1237h-705l-61 -337h515l-41 -218h-515l-125 -682h-267l272 1465h969zM1603 883q-97 -1 -177 -85t-102 -193l-113 -605h-251l200 1071h251l-17 -93q133 113 294 113q41 0 147 -19l-75 -255q-89 66 -157 66z" />
    <glyph glyph-name="afii08941" unicode="&#x20a4;" 
d="M712 154q145 0 247 151l162 -170q-51 -103 -169 -161t-233 -58t-244 28t-229 28t-200 -21l-51 203q140 37 188 80q101 89 135 280h-196l26 143h186v150h-161l26 143h137q38 529 563 529q150 0 262 -84l-137 -205q-92 61 -178 61q-215 0 -239 -301h305l-25 -143h-283
l-2 -150h260l-26 -143h-245q-23 -209 -118 -317q137 -43 239 -43z" />
    <glyph glyph-name="peseta" unicode="&#x20a7;" horiz-adv-x="2400" 
d="M852 1028q0 232 -203 232q-50 0 -117 -17l-88 -483q50 -15 107 -15q138 0 219.5 74t81.5 209zM2088 889q-86 0 -132 -30q-47 -31 -47 -81t65 -92q17 -11 154 -88q164 -93 164 -256t-130 -264t-302 -101t-277 89q-110 -86 -241 -86t-195 71t-64 191q0 63 7 92l114 536
h-121q-38 -125 -129 -208q-152 -142 -395 -142q-81 0 -156 19l-98 -539h-266l276 1462q170 23 285 23q497 0 510 -414h135l41 219l277 105l-70 -324h168l-41 -201h-170l-102 -479q-11 -48 -11 -100q0 -105 103 -105q73 0 198 109q101 -113 232 -113q73 0 120.5 37t47.5 101
t-84 112q-54 29 -154 86q-133 83 -133 236q-1 152 115 244t286 92t299 -74l-100 -187q-93 60 -179 60z" />
    <glyph glyph-name="Euro" unicode="&#x20ac;" 
d="M39 519v151h116q8 81 25 159h-141v151h186q87 230 258 370t410 140q162 0 288 -58l-87 -231q-91 63 -212 63q-244 0 -389 -284h514l-50 -151h-524q-23 -79 -32 -159h496l-60 -151h-440q13 -140 85 -228t201 -88q207 0 327 125v-249q-109 -104 -375 -104q-219 1 -350 153
t-137 391h-109z" />
    <glyph glyph-name="afii61248" unicode="&#x2105;" horiz-adv-x="1477" 
d="M572 1363q-101 1 -164 -79t-63 -168q0 -161 119 -161q91 0 217 80l-25 -187q-107 -41 -212 -41t-183 71t-78 201q0 182 112.5 307t270.5 125q105 0 193 -47l-39 -156q-81 55 -148 55zM1058 99q96 1 142 79t46 204t-114 125q-95 -1 -143 -79t-48 -204t117 -125zM1408 377
q0 -178 -102 -302t-262 -124q-115 0 -190 75t-75 205q0 175 102 299t265 125q113 0 187.5 -74t74.5 -204zM1408 1491l-1063 -1526h-190l1063 1526h190z" />
    <glyph glyph-name="afii61289" unicode="&#x2113;" 
d="M874 1232q0 57 -45 57q-100 0 -144 -224l-28 -144q191 159 212 267q5 25 5 44zM551 322q0 -140 102 -140q92 0 164 63l72 -163q-45 -42 -134 -72t-155 -30q-220 0 -280 139q-24 55 -24 143t23 204l-96 -51l-45 186l186 100l22 111q58 300 128 438q122 241 346 241
q133 0 196 -80q46 -57 46 -140q0 -33 -8 -71q-45 -236 -493 -568l-36 -187q-14 -71 -14 -123z" />
    <glyph glyph-name="afii61352" unicode="&#x2116;" horiz-adv-x="1964" 
d="M1750 738q0 122 -105 122q-89 0 -136 -86t-47 -184q0 -127 105 -127q92 0 142 98q41 79 41 177zM1309 1465l-277 -1483h-114l-455 920l-166 -902h-244l275 1484h114l455 -919l168 900h244zM1778 164l-33 -170h-524l32 170h525zM1658 1014q132 0 200 -72q66 -72 66 -180
q0 -107 -36 -204t-98 -157q-97 -92 -233 -92q-137 0 -203 78t-66 201q0 204 137 332q101 94 233 94z" />
    <glyph glyph-name="trademark" unicode="&#x2122;" horiz-adv-x="1319" 
d="M499 1332v-594h-160v594h-218v139h726l147 -454l145 454h123l122 -732h-155l-66 364l-117 -369h-103l-123 374l-61 -369h-156l98 593h-202z" />
    <glyph glyph-name="Ohm" unicode="&#x2126;" horiz-adv-x="1370" 
d="M1114 902q0 206 -75 286.5t-247 80.5t-312 -183t-140 -427q0 -139 54.5 -276t144.5 -200l-32 -183l-550 1l34 192l226 -1q-143 166 -143 404q0 380 209.5 637.5t555.5 257.5q237 0 387 -149t150 -392q0 -482 -357 -757h241l-33 -192l-550 -1l31 181q224 171 315 343
t91 378z" />
    <glyph glyph-name="estimated" unicode="&#x212e;" horiz-adv-x="1125" 
d="M250 605h630v281q-120 142 -310 142t-320 -142v-281zM1063 537h-814v-371q151 -123 309 -123q94 0 220 45t166 93l47 -53q-163 -148 -430 -148q-217 0 -358.5 149t-141.5 399t147.5 406.5t366.5 156.5t353.5 -166.5t134.5 -387.5z" />
    <glyph glyph-name="oneeighth" unicode="&#x215b;" horiz-adv-x="1796" 
d="M1167 222q-1 -110 129 -111q60 0 105 43.5t45 120.5t-107 133q-69 -19 -121 -74q-52 -54 -51 -112zM1491 682q0 30 -27.5 52.5t-64.5 22.5q-115 0 -115 -102q0 -66 105 -118q102 73 102 145zM600 1478l-147 -913h-166l100 613l-156 -86l25 186q193 97 262 200h82z
M1393 1491l-883 -1526h-188l884 1526h187zM999 190q0 198 207 299q-90 62 -90 169t88 176t200 69t184 -56q72 -57 71 -135q0 -161 -154 -245q109 -82 109 -188q0 -143 -92 -229t-258 -85q-113 0 -189 61.5t-76 163.5z" />
    <glyph glyph-name="threeeighths" unicode="&#x215c;" horiz-adv-x="1796" 
d="M1176 222q0 -110 128 -111q60 0 105 43.5t45 120.5t-106 133q-70 -19 -121 -74q-51 -54 -51 -112zM1499 682q0 30 -27.5 52.5t-64.5 22.5q-115 0 -115 -102q0 -66 105 -118q102 73 102 145zM743 1270q0 -149 -147 -230q106 -51 106 -168q0 -147 -91 -231
q-87 -87 -244 -87t-236 91l82 162q59 -94 158 -94q163 0 163 140q0 114 -184 114l27 144q84 0 141 36t57 104q0 81 -98 81q-65 0 -131 -55l-82 120q92 94 250 94q105 0 167 -61t62 -160zM1440 1491l-883 -1526h-188l884 1526h187zM1008 190q0 198 206 299q-90 62 -90 169
t88 176t200 69t184 -56q72 -57 71 -135q0 -162 -154 -245q109 -82 109 -188q0 -143 -92 -229t-258 -85q-112 0 -188 61.5t-76 163.5z" />
    <glyph glyph-name="fiveeighths" unicode="&#x215d;" horiz-adv-x="1796" 
d="M1176 222q0 -110 128 -111q60 0 105 43.5t45 120.5t-106 133q-70 -19 -121 -74q-51 -54 -51 -112zM1499 682q0 30 -27.5 52.5t-64.5 22.5q-115 0 -115 -102q0 -66 105 -118q102 73 102 145zM510 1190q99 0 164 -62t65 -159q1 -184 -103 -300t-294 -116q-128 0 -217 82
l76 146q66 -82 159 -82q93 1 150 67t57 170q0 115 -129 115q-85 0 -149 -64l-74 33l90 457h494l-27 -146h-330l-34 -155q41 14 102 14zM1440 1491l-883 -1526h-188l884 1526h187zM1008 190q0 198 206 299q-90 62 -90 169t88 176t200 69t184 -56q72 -57 71 -135
q0 -162 -154 -245q109 -82 109 -188q0 -143 -92 -229t-258 -85q-112 0 -188 61.5t-76 163.5z" />
    <glyph glyph-name="seveneighths" unicode="&#x215e;" horiz-adv-x="1796" 
d="M1169 222q-1 -110 129 -111q60 0 105 43.5t45 120.5t-107 133q-69 -19 -121 -74q-52 -54 -51 -112zM1493 682q0 30 -27.5 52.5t-64.5 22.5q-115 0 -115 -102q0 -66 105 -118q102 73 102 145zM913 1477v-74q-288 -399 -507 -838h-197q216 413 446 758h-381l31 154h608z
M1415 1491l-883 -1526h-188l885 1526h186zM1001 190q0 198 207 299q-90 62 -90 169t88 176t200 69t184 -56q72 -57 71 -135q0 -161 -154 -245q109 -82 109 -188q0 -143 -92 -229t-258 -85q-113 0 -189 61.5t-76 163.5z" />
    <glyph glyph-name="partialdiff" unicode="&#x2202;" horiz-adv-x="1180" 
d="M330 407q0 -95 51.5 -150.5t145.5 -55.5q166 0 261.5 146.5t95.5 355.5q0 120 -46 182q-208 0 -358 -138t-150 -340zM1134 726q0 -313 -185 -530t-471 -217q-193 0 -298 97.5t-105 279.5q0 283 194 490t476 222q-44 95 -189 177.5t-257 82.5l98 213q301 0 519 -251
t218 -564z" />
    <glyph glyph-name="Delta" unicode="&#x2206;" horiz-adv-x="1198" 
d="M727 1076l-481 -855h640zM-84 0l27 153l767 1312h186l257 -1312l-27 -153h-1210z" />
    <glyph glyph-name="product" unicode="&#x220f;" horiz-adv-x="1304" 
d="M1246 1233l-248 -1403h-260l248 1403h-430l-248 -1403h-260l248 1403h-130l41 232h1210l-41 -232h-130z" />
    <glyph glyph-name="summation" unicode="&#x2211;" horiz-adv-x="1075" 
d="M-68 -173l37 210l518 697l-300 539l34 192h935l-41 -232h-605l288 -495l-513 -679h662l-41 -232h-974z" />
    <glyph glyph-name="minus" unicode="&#x2212;" 
d="M1062 736v-201h-898v201h898z" />
    <glyph glyph-name="periodcentered" unicode="&#x2219;" horiz-adv-x="752" 
d="M392 831q62 0 106 -43.5t44 -106.5t-44 -107t-106 -44t-106 44.5t-44 106.5t44 106t106 44z" />
    <glyph glyph-name="radical" unicode="&#x221a;" 
d="M1214 1471v-175h-424l-384 -1296h-179l-236 290l146 119l131 -167l364 1229h582z" />
    <glyph glyph-name="infinity" unicode="&#x221e;" 
d="M357 777q-120 0 -120 -106t110 -106q65 0 151 107q-75 82 -99.5 93.5t-41.5 11.5zM846 565q110 0 110 106q0 46 -34 76t-74 30t-84 -34t-69 -71q87 -107 151 -107zM354 402q-128 0 -206 74t-78 189t82.5 193t191.5 78q143 0 250 -113q108 113 240 113t210 -74t78 -194
t-80 -193t-208 -73t-239 127q-113 -127 -241 -127z" />
    <glyph glyph-name="integral" unicode="&#x222b;" horiz-adv-x="1074" 
d="M237 -250q82 0 125 74t43 167v1073q0 180 110.5 313t270.5 133t280 -102l-124 -142q-59 74 -166 74q-68 0 -110 -55t-42 -251v-1011q0 -188 -93 -315.5t-261 -127.5t-292 123l100 142q77 -95 159 -95z" />
    <glyph glyph-name="approxequal" unicode="&#x2248;" 
d="M391 496q48 0 96 -10t197 -56q41 -11 73 -11q60 0 87 77h148q-40 -154 -94 -210.5t-134 -56.5t-209.5 38.5t-148.5 38.5q-52 0 -89 -77h-146q21 120 78.5 193.5t141.5 73.5zM391 886q48 0 96 -10t197 -56q41 -11 73 -11q60 0 87 77h148q-40 -154 -94 -210.5t-134 -56.5
t-209.5 38.5t-148.5 38.5q-52 0 -89 -77h-146q21 120 78.5 193.5t141.5 73.5z" />
    <glyph glyph-name="notequal" unicode="&#x2260;" 
d="M174 325v201h271l163 219h-434v201h584l116 155h189l-116 -155h125v-201h-275l-163 -219h438v-201h-588l-121 -162h-188l120 162h-121z" />
    <glyph glyph-name="lessequal" unicode="&#x2264;" 
d="M1062 201v-201h-898v201h898zM192 627v161l799 383v-228l-528 -236l528 -239v-228z" />
    <glyph glyph-name="greaterequal" unicode="&#x2265;" 
d="M1062 0h-898v201h898v-201zM1034 627l-799 -387v228l528 239l-528 236v228l799 -383v-161z" />
    <glyph glyph-name="H22073" unicode="&#x25a1;" horiz-adv-x="1237" 
d="M222 868v-792h792v792h-792zM146 944h944v-944h-944v944z" />
    <glyph glyph-name="H18543" unicode="&#x25aa;" horiz-adv-x="726" 
d="M594 908v-463h-463v463h463z" />
    <glyph glyph-name="H18551" unicode="&#x25ab;" horiz-adv-x="726" 
d="M518 832h-311v-311h311v311zM594 908v-463h-463v463h463z" />
    <glyph glyph-name="lozenge" unicode="&#x25ca;" horiz-adv-x="1229" 
d="M613 1004l-369 -369l369 -369l368 369zM613 18l-618 617l618 617l617 -617z" />
    <glyph glyph-name="H18533" unicode="&#x25cf;" horiz-adv-x="1237" 
d="M177 576q0 182 129.5 311.5t311.5 129.5t311 -129.5t129 -311.5t-129 -311t-311 -129t-311.5 129t-129.5 311z" />
    <glyph glyph-name="openbullet" unicode="&#x25e6;" horiz-adv-x="726" 
d="M363 852q-73 0 -124 -52t-51 -124t51.5 -123t123.5 -51t123.5 51t51.5 123t-51 124t-124 52zM362 928q104 0 178 -73.5t74 -177.5t-73.5 -177.5t-177.5 -73.5t-177.5 73.5t-73.5 177.5t73 177.5t177 73.5z" />
    <glyph glyph-name="fi" unicode="&#xfb01;" horiz-adv-x="1370" 
d="M802 1510q104 0 177 -43l-50 -196q-81 36 -139 36q-144 0 -198 -236h705l-200 -1071h-254l162 870h-444l-160 -938q-26 -152 -141 -251.5t-269 -100.5l-53 166q71 16 128 71t70 125l167 928h-151l33 201h148q103 439 469 439zM1023 1415q0 67 47.5 111.5t115.5 44.5
t115.5 -44.5t47.5 -110.5t-48 -111.5t-115 -45.5t-115 44.5t-48 111.5z" />
    <glyph glyph-name="fl" unicode="&#xfb02;" horiz-adv-x="1320" 
d="M1038 -10q-90 0 -142 59t-52 167t48 337l139 669q-101 85 -243 85t-196 -236h246l-25 -201h-252l-160 -938q-26 -152 -141 -251.5t-269 -100.5l-53 166q71 16 128 71t70 125l167 928h-151l33 201h148q103 439 469 439q74 0 157 -25t116 -54h1l17 79h248l-206 -997
q-44 -213 -44 -287t36 -108t90 -34q-59 -94 -179 -94z" />
    <glyph glyph-name="glyph0" horiz-adv-x="1024" 
d="M256 478h512v512h-512v-512zM128 350v768h768v-768h-768z" />
    <glyph glyph-name="apple" horiz-adv-x="1024" 
d="M256 478h512v512h-512v-512zM128 350v768h768v-768h-768z" />
    <glyph glyph-name="dotlessj" horiz-adv-x="794" 
d="M512 15q-41 -222 -191 -328.5t-466 -106.5l11 221q140 0 254 28.5t144 191.5l152 849h-144l47 201h389z" />
    <glyph glyph-name="f007" horiz-adv-x="752" 
d="M409 1496q0 -28 37.5 -67.5t37.5 -92.5t-39.5 -87t-93.5 -34q-128 0 -128 164q0 194 204 336l77 -101q-95 -90 -95 -118z" />
    <glyph glyph-name="commaaccenthigh" horiz-adv-x="752" 
d="M325 1256q0 26 -34.5 60.5t-34.5 75.5q0 118 117 118q123 0 123 -139q0 -196 -204 -323l-63 85q66 50 81 73.5t15 49.5z" />
    <glyph glyph-name="foursuperior" horiz-adv-x="910" 
d="M458 946h185l37 214zM881 796h-97l-37 -231h-166l37 231h-385l18 110l560 572h83l-87 -532h97z" />
    <glyph glyph-name="dottediacute" horiz-adv-x="669" 
d="M397 0h-254l162 870h-137l42 201h387zM323 1415q-1 67 47 111t116 45q68 -1 115 -45q48 -44 48 -110t-48 -112q-48 -45 -115 -45q-67 1 -115 45t-48 111zM598 1641h-216l205 333h284z" />
    </font>
</defs>
</svg>
