<?xml version="1.0" standalone="no"?>
<!DOCTYPE svg PUBLIC "-//W3C//DTD SVG 1.1//EN" "http://www.w3.org/Graphics/SVG/1.1/DTD/svg11.dtd" >
<svg xmlns="http://www.w3.org/2000/svg">
<metadata>
Created by FontPrep 20130207 at Mon May 12 12:00:30 2014
 By Justin Leggio
(c) 2006 Microsoft Corporation. All Rights Reserved.
</metadata>
<defs>
<font id="a265e151e3422f818ca3234ca91169ad" horiz-adv-x='1024' >
  <font-face 
    font-family="TrebuchetMS-Bold"
    font-weight="700"
    font-stretch="normal"
    units-per-em="2048"
    panose-1="2 11 7 3 2 2 2 2 2 4"
    ascent="1638"
    descent="-410"
    x-height="1071"
    cap-height="1464"
    bbox="-206 -552 2314 2008"
    underline-thickness="200"
    underline-position="-161"
    unicode-range="U+0020-FB02"
  />
<missing-glyph horiz-adv-x="748" 
d="M136 68h408v1229h-408v-1229zM68 0v1365h544v-1365h-544z" />
    <glyph glyph-name=".notdef" horiz-adv-x="748" 
d="M136 68h408v1229h-408v-1229zM68 0v1365h544v-1365h-544z" />
    <glyph glyph-name="glyph1" horiz-adv-x="0" 
 />
    <glyph glyph-name="glyph2" horiz-adv-x="823" 
 />
    <glyph glyph-name="space" unicode=" " horiz-adv-x="617" 
 />
    <glyph glyph-name="exclam" unicode="!" horiz-adv-x="752" 
d="M382 308q68 0 115.5 -48t47.5 -116t-47.5 -116t-115.5 -48t-116 48t-48 116t48 116t116 48zM244 1081v410h260v-409q0 -200 -78 -700h-104q-78 500 -78 699z" />
    <glyph glyph-name="quotedbl" unicode="&#x22;" horiz-adv-x="751" 
d="M287 1036h-189l-28 431h248zM667 1036h-189l-28 431h248z" />
    <glyph glyph-name="numbersign" unicode="#" 
d="M769 910h-237l-84 -320h235zM1174 910h-215l-84 -320h154v-181h-202l-120 -429h-195l118 429h-230l-118 -429h-195l118 429h-140v181h189l83 320h-157v181h205l108 396h193l-105 -396h229l108 396h193l-104 -396h167v-181z" />
    <glyph glyph-name="dollar" unicode="$" 
d="M554 206q229 0 229 158q0 79 -58.5 148.5t-222 151.5t-254 165t-90.5 267q0 136 85.5 240t229.5 139v181h229l-1 -171q184 -18 274 -90l-79 -224q-137 98 -289 98q-90 0 -139.5 -48.5t-49.5 -122.5q0 -126 279 -262q147 -72 246 -164t99 -289q0 -140 -90 -244.5
t-250 -143.5v-230h-229v212q-174 12 -318 104l96 233q154 -108 303 -108z" />
    <glyph glyph-name="percent" unicode="%" horiz-adv-x="1401" 
d="M917 344q0 -100 31.5 -154t81.5 -54q132 0 132 204t-117 203q-128 0 -128 -199zM731 353q0 152 89 248.5t227 96.5t219.5 -96t81.5 -262t-86 -263t-223 -97q-308 0 -308 373zM335 -20h-196l918 1511h195zM217 1136q0 -100 32 -154t81 -54q132 0 132 204t-117 203
q-128 0 -128 -199zM31 1146q0 152 89 248.5t227 96.5t219.5 -96t81.5 -262t-86 -263t-223 -97q-308 0 -308 373z" />
    <glyph glyph-name="ampersand" unicode="&#x26;" horiz-adv-x="1446" 
d="M810 330v360h-358q-80 -97 -80 -218q0 -271 275 -271q109 0 170 32q-7 37 -7 97zM565 -20q-210 0 -331.5 129t-121.5 348t149 369q-129 131 -129 285t124.5 267t335.5 113t351 -109l-106 -182q-125 89 -229 89t-165 -54.5t-61 -154.5t96 -176h332v167l250 93v-263h249
v-211h-249v-289q0 -115 31 -157.5t102 -42.5t140 31v-219q-104 -33 -212 -33t-196 64q-150 -64 -360 -64z" />
    <glyph glyph-name="quotesingle" unicode="'" horiz-adv-x="470" 
d="M337 1036h-189l-28 431h248z" />
    <glyph glyph-name="parenleft" unicode="(" horiz-adv-x="752" 
d="M450 556q0 -622 198 -842v-169q-236 160 -360.5 423.5t-124.5 565.5t140 579.5t345 380.5v-138q-198 -277 -198 -800z" />
    <glyph glyph-name="parenright" unicode=")" horiz-adv-x="752" 
d="M361 556q0 523 -198 800v138q205 -103 345 -380.5t140 -579.5t-124.5 -565.5t-360.5 -423.5v169q198 220 198 842z" />
    <glyph glyph-name="asterisk" unicode="*" horiz-adv-x="885" 
d="M671 1102l-134 -11l137 -78l86 -111l-193 -144l-84 122l-53 128l-49 -114l-111 -136l-172 154l118 115l110 57l-135 12l-156 62l98 205l158 -67l71 -76l-54 155v136l236 -1v-131l-46 -162l100 89l142 62l81 -201z" />
    <glyph glyph-name="plus" unicode="+" 
d="M713 535v-355h-201v355h-348v201h348v343h201v-343h349v-201h-349z" />
    <glyph glyph-name="comma" unicode="," horiz-adv-x="752" 
d="M315 -50q0 30 -21 59q-95 46 -95 129q0 60 49.5 99.5t121.5 39.5t123.5 -52.5t51.5 -121.5q0 -127 -59.5 -231.5t-268.5 -245.5l-85 109q183 137 183 215z" />
    <glyph glyph-name="hyphen" unicode="-" horiz-adv-x="752" 
d="M109 476v235h529v-235h-529z" />
    <glyph glyph-name="hyphen" unicode="&#x2010;" horiz-adv-x="752" 
d="M109 476v235h529v-235h-529z" />
    <glyph glyph-name="period" unicode="." horiz-adv-x="752" 
d="M174 131q0 75 52.5 127.5t127.5 52.5t127.5 -52.5t52.5 -127.5t-52.5 -128t-127.5 -53t-127.5 53t-52.5 128z" />
    <glyph glyph-name="slash" unicode="/" horiz-adv-x="799" 
d="M241 0h-225l553 1471h223z" />
    <glyph glyph-name="zero" unicode="0" 
d="M345 759q0 -293 56.5 -431t194.5 -138t198 124.5t60 432.5t-57.5 421t-188.5 113q-263 0 -263 -522zM75 777q0 300 146.5 507t391.5 207q511 0 511 -746q0 -349 -138 -557t-396 -208t-386.5 192t-128.5 605z" />
    <glyph glyph-name="one" unicode="1" 
d="M569 0v1056l-298 -179v250q287 139 454 344h104v-1471h-260z" />
    <glyph glyph-name="two" unicode="2" 
d="M155 0v76l464 683q139 205 139 345q0 166 -199 166q-152 0 -245 -161l-175 138q52 105 163.5 174.5t246.5 69.5q225 0 352 -102.5t127 -276.5t-163 -424l-300 -457h550v-231h-960z" />
    <glyph glyph-name="three" unicode="3" 
d="M525 201q248 0 248 233q0 106 -72 172.5t-194 66.5h-46v214h39q224 0 224 187q0 196 -209 196q-108 0 -210 -102l-122 179q47 58 147 101t200 43q219 0 341.5 -100t122.5 -280q0 -214 -184 -326q233 -112 233 -366q0 -209 -138.5 -324t-371.5 -115t-390 143l130 201
q116 -123 252 -123z" />
    <glyph glyph-name="four" unicode="4" 
d="M734 589v440l-376 -440h376zM984 383v-383h-250v383h-667v149l803 939h114v-882h148v-206h-148z" />
    <glyph glyph-name="five" unicode="5" 
d="M541 201q252 0 252 310q0 149 -56.5 217.5t-184.5 68.5t-243 -119l-103 67v726h789v-221h-539v-262q66 30 158 30q216 0 332.5 -125t116.5 -354q0 -559 -521 -559q-216 0 -377 131l103 214q159 -124 273 -124z" />
    <glyph glyph-name="six" unicode="6" 
d="M626 718q-224 0 -224 -258t227 -259q93 0 148 66.5t55 186.5t-57.5 192t-148.5 72zM639 939q207 0 332.5 -128.5t125.5 -346.5t-128.5 -351t-324.5 -133q-512 0 -512 639q0 268 197.5 542.5t430.5 332.5l138 -146q-149 -78 -271 -205t-168 -251q104 47 180 47z" />
    <glyph glyph-name="seven" unicode="7" 
d="M141 1231v240h1010v-111l-132 -249q-350 -678 -482 -1111h-285q163 502 560 1231h-671z" />
    <glyph glyph-name="eight" unicode="8" 
d="M377 419q0 -94 59.5 -156t157.5 -62t161 54.5t63 143.5q0 152 -250 298q-191 -108 -191 -278zM762 1130q0 62 -45.5 101t-120.5 39q-166 0 -166 -145q0 -64 61 -130.5t129 -92.5q56 26 99 96t43 132zM170 1123q0 169 119.5 268.5t313.5 99.5t307 -99.5t113 -269.5
q0 -89 -63 -188.5t-138 -139.5q95 -44 175.5 -159t80.5 -216q0 -208 -131 -323.5t-357 -115.5t-349.5 113t-123.5 326q0 110 65.5 216t169.5 167q-80 54 -131 143t-51 178z" />
    <glyph glyph-name="nine" unicode="9" 
d="M381 1012q0 -122 58 -193t148 -71q224 0 224 250q0 272 -227 272q-93 0 -148 -68t-55 -190zM574 527q-206 0 -332 128t-126 347t129 354t324 135q512 0 512 -644q0 -268 -197.5 -542.5t-430.5 -332.5l-138 146q304 168 430 439q-67 -30 -171 -30z" />
    <glyph glyph-name="colon" unicode=":" horiz-adv-x="752" 
d="M174 131q0 75 52.5 127.5t127.5 52.5t127.5 -52.5t52.5 -127.5t-52.5 -128t-127.5 -53t-127.5 53t-52.5 128zM174 941q0 75 52.5 127.5t127.5 52.5t127.5 -52.5t52.5 -127.5t-52.5 -128t-127.5 -53t-127.5 53t-52.5 128z" />
    <glyph glyph-name="semicolon" unicode=";" horiz-adv-x="752" 
d="M315 -50q0 30 -21 59q-95 46 -95 129q0 60 49.5 99.5t121.5 39.5t123.5 -52.5t51.5 -121.5q0 -127 -59.5 -231.5t-268.5 -245.5l-85 109q183 137 183 215zM174 941q0 75 52.5 127.5t127.5 52.5t127.5 -52.5t52.5 -127.5t-52.5 -128t-127.5 -53t-127.5 53t-52.5 128z" />
    <glyph glyph-name="less" unicode="&#x3c;" 
d="M192 557v161l799 383v-228l-528 -236l528 -239v-228z" />
    <glyph glyph-name="equal" unicode="=" 
d="M179 325v201h898v-201h-898zM179 745v201h898v-201h-898z" />
    <glyph glyph-name="greater" unicode="&#x3e;" 
d="M265 170v228l527 239l-527 236v228l799 -383v-161z" />
    <glyph glyph-name="question" unicode="?" horiz-adv-x="897" 
d="M412 308q68 0 115.5 -48t47.5 -116t-47.5 -116t-115.5 -48t-116 48t-48 116t48 116t116 48zM271 587q0 48 17.5 106t51.5 108.5t134.5 161.5t100.5 183q0 140 -183 140q-89 0 -186 -89l-103 193q129 101 339 101q162 0 270.5 -90t108.5 -239q0 -102 -39.5 -172.5
t-139 -165.5t-129.5 -158t-30 -138q0 -16 14 -84h-191q-2 7 -18.5 51t-16.5 92z" />
    <glyph glyph-name="at" unicode="@" horiz-adv-x="1578" 
d="M852 597h-21q-165 0 -165 -125q0 -39 29 -64.5t75 -25.5t82 31v184zM720 231q-116 0 -192 63.5t-76 172.5q0 252 396 266q-19 94 -84 94q-94 0 -193 -57l-59 136q110 79 238 79q308 0 308 -335v-215q57 -37 92 -37q156 0 156 263q0 228 -132.5 358.5t-370.5 130.5
t-384.5 -159.5t-146.5 -406.5t144.5 -395t388.5 -148q129 0 208 29.5t158 99.5q1 -2 1 -28t-1 -77v-101q-172 -98 -366 -98q-333 0 -534 198t-201 520t204 531.5t536 209.5t515 -174t183 -493q0 -174 -97 -296.5t-252 -122.5t-237 58q-86 -66 -202 -66z" />
    <glyph glyph-name="A" unicode="A" horiz-adv-x="1297" 
d="M646 1037l-176 -541h352zM1005 0l-107 297h-502l-102 -297h-289l584 1485h114l589 -1485h-287z" />
    <glyph glyph-name="B" unicode="B" horiz-adv-x="1219" 
d="M538 211q174 0 252.5 59t78.5 190t-73 188t-255 57q-38 0 -131 -3v-484q79 -7 128 -7zM536 901q254 0 254 191q0 169 -231 169q-61 0 -149 -5v-351q60 -4 126 -4zM598 0h-448v1464q296 14 415 14q228 0 356.5 -97t128.5 -275t-184 -279q273 -95 273 -392
q0 -200 -151 -317.5t-390 -117.5z" />
    <glyph glyph-name="C" unicode="C" horiz-adv-x="1253" 
d="M772 1259q-188 0 -305 -153.5t-117 -388.5t108.5 -373t302.5 -138t311 148l121 -210q-159 -169 -466 -169t-477 202t-170 539t188.5 555.5t482.5 218.5q252 0 403 -103l-107 -215q-87 87 -275 87z" />
    <glyph glyph-name="D" unicode="D" horiz-adv-x="1316" 
d="M546 231q197 0 308.5 143t111.5 400q0 470 -437 470q-42 0 -119 -7v-1000q63 -6 136 -6zM475 0h-325v1464q311 11 391 11q320 0 507.5 -187.5t187.5 -497.5q0 -790 -761 -790z" />
    <glyph glyph-name="E" unicode="E" horiz-adv-x="1165" 
d="M410 1234v-343h484v-221h-484v-439h664v-231h-924v1465h935v-231h-675z" />
    <glyph glyph-name="F" unicode="F" horiz-adv-x="1195" 
d="M410 1234v-343h515v-221h-515v-670h-260v1465h965v-231h-705z" />
    <glyph glyph-name="G" unicode="G" horiz-adv-x="1375" 
d="M816 1259q-216 0 -341 -146.5t-125 -386.5t122.5 -380t333.5 -140q139 0 229 76v288h-203v222h463v-656q-93 -76 -239.5 -118.5t-291.5 -42.5q-315 0 -499.5 206.5t-184.5 545.5t201 551t541 212q241 0 410 -144l-109 -209q-46 41 -142 81.5t-165 40.5z" />
    <glyph glyph-name="H" unicode="H" horiz-adv-x="1400" 
d="M993 0v660h-583v-660h-260v1465h260v-574h583v574h257v-1465h-257z" />
    <glyph glyph-name="I" unicode="I" horiz-adv-x="570" 
d="M155 0v1465h260v-1465h-260z" />
    <glyph glyph-name="J" unicode="J" horiz-adv-x="1091" 
d="M463 211q128 0 180.5 83t52.5 252v919h260v-911q0 -292 -124 -433t-398 -141q-182 0 -294 95t-123 264h232q33 -128 214 -128z" />
    <glyph glyph-name="K" unicode="K" horiz-adv-x="1264" 
d="M410 0h-260v1465h260v-701l498 701h296l-459 -640l547 -825h-311l-408 624l-163 -223v-401z" />
    <glyph glyph-name="L" unicode="L" horiz-adv-x="1132" 
d="M150 0v1465h260v-1234h662v-231h-922z" />
    <glyph glyph-name="M" unicode="M" horiz-adv-x="1526" 
d="M1516 -1h-252l-152 790l-295 -809h-93l-295 809l-158 -790h-251l295 1466h138l317 -987l310 987h137z" />
    <glyph glyph-name="N" unicode="N" horiz-adv-x="1367" 
d="M400 -1h-250v1466h125l692 -884v884h250v-1485h-106l-711 927v-908z" />
    <glyph glyph-name="O" unicode="O" horiz-adv-x="1440" 
d="M350 734q0 -246 87 -387t253 -141q195 0 297.5 138t102.5 401q0 515 -380 515q-174 0 -267 -140t-93 -386zM80 722q0 336 171 552.5t473 216.5t469 -196t167 -550t-174.5 -562t-482.5 -208t-465.5 205.5t-157.5 541.5z" />
    <glyph glyph-name="P" unicode="P" horiz-adv-x="1202" 
d="M514 763q178 0 260 59.5t82 193.5q0 228 -367 228q-41 0 -79 -5v-469q66 -7 104 -7zM410 0h-260v1464q260 11 304 11q347 0 507.5 -106.5t160.5 -332.5q0 -504 -594 -504q-44 0 -118 7v-539z" />
    <glyph glyph-name="Q" unicode="Q" horiz-adv-x="1452" 
d="M350 746q0 -236 92 -391t258 -155q192 0 291 142t99 398q0 519 -390 519q-172 0 -261 -138.5t-89 -374.5zM1405 -312q-186 0 -342.5 75.5t-243.5 211.5q-37 -7 -119 -7q-289 0 -454.5 216t-165.5 547t169 545.5t451 214.5q317 0 488.5 -198.5t171.5 -552.5
q0 -525 -344 -701q109 -120 362 -120q93 0 161 20v-242q-66 -9 -134 -9z" />
    <glyph glyph-name="R" unicode="R" horiz-adv-x="1251" 
d="M530 826q163 0 238.5 46t75.5 166t-81 163.5t-255 43.5q-42 0 -88 -6v-407q72 -6 110 -6zM1114 1048q0 -130 -77 -237t-194 -151l433 -660h-300l-391 605q-59 1 -165 7v-612h-270v1465l406 15q558 0 558 -432z" />
    <glyph glyph-name="S" unicode="S" horiz-adv-x="1047" 
d="M479 206q229 0 229 160q0 75 -54 143t-222.5 152.5t-258.5 168.5t-90 260t124.5 288t319.5 112q254 0 373 -95l-79 -224q-137 98 -289 98q-90 0 -139.5 -47.5t-49.5 -123.5q0 -126 279 -262q147 -72 246 -164t99 -280q0 -187 -140.5 -302t-360.5 -115t-386 106l96 233
q154 -108 303 -108z" />
    <glyph glyph-name="T" unicode="T" horiz-adv-x="1253" 
d="M746 1234v-1234h-260v1234h-466v231h1213v-231h-487z" />
    <glyph glyph-name="U" unicode="U" horiz-adv-x="1388" 
d="M150 1465h260v-993q0 -118 72 -192t206 -74t212 72.5t78 198.5v988h260v-1008q0 -226 -151.5 -354t-405.5 -128t-392.5 125t-138.5 358v1007z" />
    <glyph glyph-name="V" unicode="V" horiz-adv-x="1273" 
d="M696 -20h-143l-548 1485h286l339 -990l358 990h280z" />
    <glyph glyph-name="W" unicode="W" horiz-adv-x="1810" 
d="M1331 -20h-107l-320 924l-311 -924h-107l-481 1485h271l275 -884l297 884h114l298 -884l274 884h271z" />
    <glyph glyph-name="X" unicode="X" horiz-adv-x="1230" 
d="M942 0l-346 527l-320 -527h-271l439 759l-404 707l266 -1l297 -495l327 495h272l-464 -710l487 -755h-283z" />
    <glyph glyph-name="Y" unicode="Y" horiz-adv-x="1256" 
d="M759 0h-260v601l-494 864h276l347 -625l348 625h275l-492 -864v-601z" />
    <glyph glyph-name="Z" unicode="Z" horiz-adv-x="1147" 
d="M80 0v84l611 1150h-601v231h955v-84l-613 -1150h635v-231h-987z" />
    <glyph glyph-name="bracketleft" unicode="[" horiz-adv-x="823" 
d="M150 -420v1930h523v-223h-263v-1484h263v-223h-523z" />
    <glyph glyph-name="backslash" unicode="\" horiz-adv-x="728" 
d="M528 0l-536 1471h206l537 -1471h-207z" />
    <glyph glyph-name="bracketright" unicode="]" horiz-adv-x="823" 
d="M673 -420h-523v223h263v1484h-263v223h523v-1930z" />
    <glyph glyph-name="asciicircum" unicode="^" 
d="M812 907l-214 358l-218 -362h-192l358 568h107l356 -564h-197z" />
    <glyph glyph-name="underscore" unicode="_" 
d="M-8 -334v209h1215v-209h-1215z" />
    <glyph glyph-name="grave" unicode="`" 
d="M596 1215l-226 293h267l169 -293h-210z" />
    <glyph glyph-name="a" unicode="a" horiz-adv-x="1091" 
d="M611 517q-296 0 -296 -194q0 -144 167 -144q225 0 225 225v100q-64 13 -96 13zM436 -20q-173 0 -272 87t-99 259t139.5 277t396.5 105q44 0 104 -15q0 189 -239 189q-141 0 -236 -47l-54 194q129 62 307 62q245 0 359 -111.5t114 -422.5v-229q0 -214 86 -269
q-31 -54 -68.5 -66.5t-89.5 -12.5t-95 40t-58 87q-34 -56 -118.5 -91.5t-176.5 -35.5z" />
    <glyph glyph-name="b" unicode="b" horiz-adv-x="1191" 
d="M514 192q181 0 256.5 86t75.5 275q0 326 -312 326q-111 0 -169 -63v-559q55 -65 149 -65zM115 -20v1490l250 60v-500q100 61 218 61q235 0 379 -148.5t144 -398.5t-145 -407t-393 -157q-149 0 -256 79l-56 -79h-141z" />
    <glyph glyph-name="c" unicode="c" horiz-adv-x="1048" 
d="M635 882q-145 0 -227.5 -94.5t-82.5 -261.5q0 -337 321 -337q139 0 245 92l92 -197q-109 -68 -190.5 -86t-192.5 -18q-248 0 -391.5 144.5t-143.5 399.5t157 411t428 156q187 0 325 -105l-107 -187q-88 83 -233 83z" />
    <glyph glyph-name="d" unicode="d" horiz-adv-x="1189" 
d="M657 879q-150 0 -231 -91.5t-81 -262.5q0 -334 322 -334q36 0 88.5 21.5t68.5 43.5v559q-80 64 -167 64zM824 0v65q-31 -34 -105 -59.5t-153 -25.5q-224 0 -352.5 142t-128.5 396t147.5 413.5t369.5 159.5q122 0 222 -50v429l250 60v-1530h-250z" />
    <glyph glyph-name="e" unicode="e" horiz-adv-x="1177" 
d="M601 882q-214 0 -266 -235h526q-26 235 -260 235zM649 189q154 0 243 89l97 -191q-131 -107 -385 -107t-396.5 143.5t-142.5 398.5t156.5 412t382.5 157t367 -139t141 -354q0 -46 -21 -139h-765q7 -128 88 -199t235 -71z" />
    <glyph glyph-name="f" unicode="f" horiz-adv-x="757" 
d="M606 1308q-71 0 -120.5 -61t-49.5 -150q0 -13 1 -26h222v-206h-218v-865h-250v865h-156v206h157q8 197 116.5 318t280.5 121q89 0 217 -39l-74 -190q-82 27 -126 27z" />
    <glyph glyph-name="g" unicode="g" horiz-adv-x="1028" 
d="M305 690q0 -90 52.5 -147.5t141.5 -57.5t137 55.5t48 145.5t-51.5 146t-135.5 56t-138 -54t-54 -144zM90 180q0 53 43 104t100 75q-183 119 -183 337q0 172 126 284.5t310 112.5q144 0 241 -54l98 114l173 -157l-119 -87q62 -94 62 -222q0 -183 -111.5 -292.5
t-281.5 -109.5q-27 0 -72 5l-41 6q-7 0 -53.5 -21.5t-46.5 -44.5q0 -40 69 -40q31 0 104 15t125 15q365 0 365 -293q0 -162 -146 -254.5t-372 -92.5t-425 145l158 195q131 -120 292 -120q108 0 178 32t70 88q0 95 -155 95l-250 -20q-258 0 -258 185z" />
    <glyph glyph-name="h" unicode="h" horiz-adv-x="1214" 
d="M828 0v660q0 99 -62 159t-162 60q-62 0 -125 -33.5t-90 -76.5v-769h-254v1470l254 60v-527q97 88 283 88t296.5 -111.5t110.5 -319.5v-660h-251z" />
    <glyph glyph-name="i" unicode="i" horiz-adv-x="611" 
d="M202 0v866h-137v205h390v-1071h-253zM331 1486q60 0 102.5 -42.5t42.5 -102.5t-42.5 -102.5t-102.5 -42.5t-102.5 42.5t-42.5 102.5t42.5 102.5t102.5 42.5z" />
    <glyph glyph-name="j" unicode="j" horiz-adv-x="751" 
d="M-12 -420v223q200 0 270.5 47.5t70.5 170.5v844h-193v206h443v-1046q0 -230 -144.5 -337.5t-446.5 -107.5zM446 1486q60 0 102.5 -42.5t42.5 -102.5t-42.5 -102.5t-102.5 -42.5t-102.5 42.5t-42.5 102.5t42.5 102.5t102.5 42.5z" />
    <glyph glyph-name="k" unicode="k" horiz-adv-x="1122" 
d="M385 0h-250v1470l250 60v-870l357 411h301l-362 -406l436 -665h-297l-315 485l-120 -127v-358z" />
    <glyph glyph-name="l" unicode="l" horiz-adv-x="604" 
d="M428 326q0 -198 118 -236q-58 -110 -198 -110q-170 0 -170 236v1254l250 60v-1204z" />
    <glyph glyph-name="m" unicode="m" horiz-adv-x="1760" 
d="M1375 0v671q0 211 -189 211q-56 0 -108 -33t-73 -76v-773h-250v710q0 79 -49 125.5t-138 46.5q-47 0 -102.5 -35t-80.5 -77v-770h-250v1071h172l51 -94q104 114 269 114q213 0 321 -116q47 53 131 84.5t168 31.5q179 0 278.5 -102.5t99.5 -281.5v-707h-250z" />
    <glyph glyph-name="n" unicode="n" horiz-adv-x="1209" 
d="M824 0v619q0 137 -52.5 200t-171.5 63q-55 0 -117.5 -31t-97.5 -77v-774h-250v1071h180l46 -100q102 120 297 120t305.5 -114.5t110.5 -319.5v-657h-250z" />
    <glyph glyph-name="o" unicode="o" horiz-adv-x="1159" 
d="M325 538q0 -354 255 -354q117 0 185.5 92t68.5 262q0 349 -254 349q-117 0 -186 -92t-69 -257zM65 534q0 249 141.5 403t379.5 154t373 -148.5t135 -404.5t-137 -407t-379 -151t-377.5 152.5t-135.5 401.5z" />
    <glyph glyph-name="p" unicode="p" horiz-adv-x="1193" 
d="M524 191q173 0 248.5 82.5t75.5 266.5t-75 261.5t-248 77.5q-90 0 -160 -70v-563q68 -55 159 -55zM365 -420h-250v1491h250v-72q94 92 231 92q512 0 512 -564q0 -263 -141.5 -405t-386.5 -142q-118 0 -215 47v-447z" />
    <glyph glyph-name="q" unicode="q" horiz-adv-x="1196" 
d="M656 879q-146 0 -228.5 -96.5t-82.5 -257.5q0 -334 303 -334q111 0 183 52v574q-67 62 -175 62zM831 -420v450q-90 -50 -248 -50q-234 0 -366 142t-132 402t151.5 413.5t387.5 153.5q140 0 254 -84l41 64h162v-1491h-250z" />
    <glyph glyph-name="r" unicode="r" horiz-adv-x="875" 
d="M604 882q-84 0 -151.5 -79t-67.5 -193v-610h-250v1071h250v-98q105 118 279 118q128 0 196 -39l-106 -214q-66 44 -150 44z" />
    <glyph glyph-name="s" unicode="s" horiz-adv-x="882" 
d="M414 179q144 0 143 104q0 61 -44 100t-171 92q-277 115 -277 322q0 139 106 216.5t272 77.5t313 -75l-72 -194q-82 70 -220 70t-139 -104q0 -41 43 -74t184 -88.5t203 -134.5t62 -191q0 -149 -110.5 -234.5t-300.5 -85.5q-107 0 -171.5 17.5t-165.5 71.5l89 199
q112 -89 256 -89z" />
    <glyph glyph-name="t" unicode="t" horiz-adv-x="812" 
d="M173 870h-124v201h124v218l250 92v-310h294v-201h-294v-469q0 -115 36 -162.5t126 -47.5t168 49v-230q-87 -30 -247 -30t-246.5 90.5t-86.5 257.5v542z" />
    <glyph glyph-name="u" unicode="u" horiz-adv-x="1210" 
d="M825 -1v90q-53 -45 -146 -77t-171 -32q-373 0 -373 396v695h250v-676q0 -206 185 -206q85 0 158 44t97 102v736h250v-1072h-250z" />
    <glyph glyph-name="v" unicode="v" horiz-adv-x="1080" 
d="M579 -20h-90l-484 1091h274l256 -654l275 654h265z" />
    <glyph glyph-name="w" unicode="w" horiz-adv-x="1605" 
d="M1187 -20h-91l-294 658l-293 -658h-92l-404 1091h263l215 -639l262 639h90l271 -643l232 643h246z" />
    <glyph glyph-name="x" unicode="x" horiz-adv-x="1131" 
d="M823 0l-275 349l-247 -349h-296l411 548l-378 523h287l226 -327l252 327h285l-411 -523l449 -548h-303z" />
    <glyph glyph-name="y" unicode="y" horiz-adv-x="1093" 
d="M131 -420v221q289 0 289 145q0 96 -80 294l-335 831h259l292 -740l263 740h259l-469 -1243q-40 -107 -171.5 -177.5t-306.5 -70.5z" />
    <glyph glyph-name="z" unicode="z" horiz-adv-x="1082" 
d="M65 0v85l581 768h-571v218h936v-88l-560 -765h566v-218h-952z" />
    <glyph glyph-name="braceleft" unicode="{" horiz-adv-x="888" 
d="M641 -420q-180 0 -302.5 86t-122.5 232q0 72 37 212t37 212q0 165 -209 178v136q209 15 209 195q0 64 -37 186.5t-37 186.5q0 139 123 222.5t293 83.5h178v-187h-205q-134 0 -134 -149q0 -56 31.5 -162.5t31.5 -162.5q0 -154 -192 -275q192 -100 192 -246
q0 -62 -31.5 -181t-31.5 -185t29.5 -110.5t85 -61t224.5 -16.5v-194h-169z" />
    <glyph glyph-name="bar" unicode="|" 
d="M505 -420v1930h206v-1930h-206z" />
    <glyph glyph-name="braceright" unicode="}" horiz-adv-x="888" 
d="M601 322q0 -72 37 -212t37 -212q0 -146 -122.5 -232t-302.5 -86h-169v194q169 0 254 25.5t85 166.5q0 61 -31.5 180.5t-31.5 181.5q0 146 192 246q-192 121 -192 275q0 56 31.5 162.5t31.5 162.5q0 149 -134 149h-205v187h178q169 0 292.5 -83.5t123.5 -222.5
q0 -64 -37 -186.5t-37 -186.5q0 -180 209 -195v-136q-209 -13 -209 -178z" />
    <glyph glyph-name="asciitilde" unicode="~" 
d="M400 746q48 0 96 -10t197 -56q41 -11 73 -11q60 0 87 77h148q-38 -148 -92 -207.5t-135 -59.5t-210.5 38.5t-148.5 38.5q-52 0 -89 -77h-146q21 120 78.5 193.5t141.5 73.5z" />
    <glyph glyph-name="nonbreakingspace" unicode="&#xa0;" horiz-adv-x="617" 
 />
    <glyph glyph-name="exclamdown" unicode="&#xa1;" horiz-adv-x="752" 
d="M504 -420h-260v410q0 199 78 699h104q78 -500 78 -700v-409zM382 763q-68 0 -116 48t-48 116t48 116t116 48t115.5 -48t47.5 -116t-47.5 -116t-115.5 -48z" />
    <glyph glyph-name="cent" unicode="&#xa2;" 
d="M439 528q0 -90 34 -148l163 405q-197 -17 -197 -257zM669 285q101 0 188 76l78 -168q-86 -53 -149.5 -68.5t-145.5 -15.5t-146 19l-44 -110h-123l63 156q-166 109 -166 354q0 195 120.5 314.5t327.5 119.5q18 0 35 -1l48 119h122l-58 -144q60 -21 110 -60l-91 -158
q-37 35 -86 52l-188 -467q46 -18 105 -18z" />
    <glyph glyph-name="sterling" unicode="&#xa3;" horiz-adv-x="1074" 
d="M576 0h-474v183q90 29 90 103v394h-82v201h82v113q0 236 121 366.5t329 130.5t317 -145l-130 -177q-80 103 -223 103q-154 0 -154 -270v-121h199v-201h-199v-449h193q77 0 126 25t102 96l187 -141q-124 -211 -484 -211z" />
    <glyph glyph-name="currency" unicode="&#xa4;" 
d="M321 726q0 -112 78 -191t190 -79t191 79t79 191t-78.5 190.5t-190.5 78.5t-190.5 -78.5t-78.5 -190.5zM591 276q-131 0 -250 75l-147 -148l-126 132l147 144q-73 123 -73 247t73 246l-147 144l126 132l148 -148q118 75 249 75t249 -74l147 147l127 -132l-147 -144
q74 -122 74 -246t-74 -247l147 -144l-127 -132l-147 148q-118 -75 -249 -75z" />
    <glyph glyph-name="yen" unicode="&#xa5;" horiz-adv-x="1168" 
d="M251 520h204v81l-494 864h275l348 -625l348 625h275l-492 -864v-81h210v-194h-210v-326h-260v326h-204v194z" />
    <glyph glyph-name="brokenbar" unicode="&#xa6;" 
d="M504 -420v837h206v-837h-206zM504 673v837h206v-837h-206z" />
    <glyph glyph-name="section" unicode="&#xa7;" horiz-adv-x="929" 
d="M321 786q0 -44 32 -74.5t230 -79.5q1 11 1 64t-42 96.5t-183 62.5q-38 -25 -38 -69zM450 206q160 0 160 112q0 107 -205 147q-152 30 -240 102.5t-88 180.5t77 180q-99 86 -99 232t121 238t301 92q72 0 167.5 -33t156.5 -82l-103 -218q-41 43 -105 72.5t-111 29.5
q-157 0 -157 -103q0 -53 40.5 -71.5t139.5 -41.5q179 -41 256 -117.5t77 -187.5t-66 -183q108 -80 108 -217q0 -173 -117 -267t-331 -94t-367 107l91 240q134 -118 294 -118z" />
    <glyph glyph-name="dieresis" unicode="&#xa8;" 
d="M908 1500q59 0 100.5 -42t41.5 -101t-41.5 -100.5t-100.5 -41.5t-101 41.5t-42 100.5t42 101t101 42zM288 1500q59 0 100.5 -42t41.5 -101t-41.5 -100.5t-100.5 -41.5t-101 41.5t-42 100.5t42 101t101 42z" />
    <glyph glyph-name="copyright" unicode="&#xa9;" horiz-adv-x="1460" 
d="M795 934q-92 0 -144.5 -76.5t-52.5 -197.5t55 -191.5t142 -70.5t158 92l92 -126q-115 -113 -269 -113t-246.5 114t-92.5 295t97.5 300.5t240.5 119.5t237 -55l-56 -142q-69 51 -161 51zM245 661q0 -221 157 -378t378 -157t377.5 156t156.5 378t-156 378.5t-378 156.5
t-378.5 -156.5t-156.5 -377.5zM75 661q0 292 206.5 498t498.5 206t498 -206t206 -498t-206 -498.5t-498 -206.5t-498.5 206.5t-206.5 498.5z" />
    <glyph glyph-name="ordfeminine" unicode="&#xaa;" horiz-adv-x="879" 
d="M481 1116q-163 0 -163 -101q0 -91 85 -91q130 0 130 120v67q-39 5 -52 5zM376 794q-101 0 -164.5 55t-63.5 159t89.5 163.5t237.5 59.5q24 0 56 -6q0 59 -38.5 95t-108.5 36t-142 -35l-40 126q92 44 203 44t179.5 -43.5t93.5 -125.5t25 -334q0 -107 58 -148
q-45 -46 -111 -46t-94 87q-21 -38 -75 -62.5t-105 -24.5z" />
    <glyph glyph-name="guillemotleft" unicode="&#xab;" 
d="M99 519v96l415 285v-197l-189 -140l189 -124v-197zM588 519v96l415 285v-197l-189 -140l189 -124v-197z" />
    <glyph glyph-name="logicalnot" unicode="&#xac;" 
d="M1062 966v-556h-201v355h-697v201h898z" />
    <glyph glyph-name="sfthyphen" unicode="&#xad;" horiz-adv-x="752" 
d="M109 476v235h529v-235h-529z" />
    <glyph glyph-name="registered" unicode="&#xae;" horiz-adv-x="1460" 
d="M742 926h-58v-197q94 0 143.5 7.5t49.5 93.5q0 96 -135 96zM684 590v-323h-162v805h220q297 0 297 -235q0 -145 -133 -216l214 -354h-180l-190 323h-66zM245 661q0 -221 157 -378t378 -157t377.5 156t156.5 378t-156 378.5t-378 156.5t-378.5 -156.5t-156.5 -377.5z
M75 661q0 292 206.5 498t498.5 206t498 -206t206 -498t-206 -498.5t-498 -206.5t-498.5 206.5t-206.5 498.5z" />
    <glyph glyph-name="overscore" unicode="&#xaf;" 
d="M-8 1466v209h1215v-209h-1215z" />
    <glyph glyph-name="degree" unicode="&#xb0;" 
d="M520 1282q0 -45 32 -77t77 -32t77 32t32 77t-32 77t-77 32t-77 -32t-32 -77zM387 1282q0 99 71 169t171 70t170.5 -70t70.5 -169t-70.5 -169.5t-170.5 -70.5t-171 70.5t-71 169.5z" />
    <glyph glyph-name="plusminus" unicode="&#xb1;" 
d="M713 535v-334h349v-201h-898v201h348v334h-348v201h348v343h201v-343h349v-201h-349z" />
    <glyph glyph-name="twosuperior" unicode="&#xb2;" horiz-adv-x="924" 
d="M154 565v63l271 421q81 126 81 207q0 35 -35.5 63.5t-82.5 28.5q-105 0 -166 -101l-109 103q73 170 289 170q140 0 217 -69.5t77 -184.5q0 -76 -44.5 -184t-206.5 -339h309v-178h-600z" />
    <glyph glyph-name="threesuperior" unicode="&#xb3;" horiz-adv-x="929" 
d="M392 735q133 0 133 112q0 133 -144 133h-40v162h36q118 0 118 109q0 89 -109 89q-71 0 -129 -65l-85 144q78 101 214 101t217.5 -70.5t81.5 -188.5t-99 -193q129 -76 129 -221t-86.5 -218.5t-232.5 -73.5t-249 96l92 159q67 -75 153 -75z" />
    <glyph glyph-name="acute" unicode="&#xb4;" 
d="M817 1508l-226 -293h-190l169 293h247z" />
    <glyph glyph-name="mu1" unicode="&#xb5;" horiz-adv-x="1120" 
d="M340 -420h-250v1491h250v-676q0 -206 185 -206q85 0 158 44t97 102v736h250v-1072h-250v90q-129 -109 -297 -109q-85 0 -143 43v-443z" />
    <glyph glyph-name="paragraph" unicode="&#xb6;" horiz-adv-x="1074" 
d="M778 -250v1616h-158v-1616h-154v893q-348 0 -348 434q0 176 81 294t226 118h507v-1739h-154z" />
    <glyph glyph-name="middot" unicode="&#xb7;" horiz-adv-x="752" 
d="M205 741q1 75 53 127t127 53q75 -1 127 -53t53 -127q-1 -75 -53 -128t-127 -53t-127 53t-53 128z" />
    <glyph glyph-name="cedilla" unicode="&#xb8;" 
d="M494 -307q131 0 131 91q0 33 -20.5 64t-51.5 39l85 89q180 -37 180 -207q0 -96 -71 -150.5t-184 -54.5q-51 0 -98 11l-41 127q34 -9 70 -9z" />
    <glyph glyph-name="onesuperior" unicode="&#xb9;" horiz-adv-x="924" 
d="M409 565v651l-188 -112v184q208 105 297 220h81v-943h-190z" />
    <glyph glyph-name="ordmasculine" unicode="&#xba;" horiz-adv-x="879" 
d="M291 1142q-1 -196 137 -195q138 -1 138 195t-138 196t-137 -196zM105 1141q0 156 89 253t238 97t234.5 -93.5t85.5 -252.5t-86.5 -255t-236.5 -96t-237 95.5t-87 251.5z" />
    <glyph glyph-name="guillemotright" unicode="&#xbb;" 
d="M139 242v197l189 124l-189 140v197l415 -285v-96zM628 242v197l189 124l-189 140v197l415 -285v-96z" />
    <glyph glyph-name="onequarter" unicode="&#xbc;" horiz-adv-x="1668" 
d="M1292 384v258l-198 -258h198zM1482 230v-230h-190v230h-400v111l490 602h100v-559h89v-154h-89zM1329 1491l-882 -1526h-168l884 1526h166zM470 565h-190v651l-188 -112v184q206 104 297 220h81v-943z" />
    <glyph glyph-name="onehalf" unicode="&#xbd;" horiz-adv-x="1668" 
d="M1008 0v63l271 421q81 126 81 207q0 35 -36 63.5t-82 28.5q-105 0 -166 -101l-109 103q73 170 289 170q140 0 217 -69.5t77 -184.5q0 -76 -44.5 -184t-206.5 -339h309v-178h-600zM380 -35h-168l884 1526h166zM273 565v651l-188 -112v184q207 105 297 220h81v-943h-190z
" />
    <glyph glyph-name="threequarters" unicode="&#xbe;" horiz-adv-x="1668" 
d="M1327 384v258l-198 -258h198zM1517 230v-230h-190v230h-400v111l490 602h100v-559h89v-154h-89zM1363 1491l-882 -1526h-168l884 1526h166zM308 735q133 0 133 112q0 133 -144 133h-40v162h36q118 0 118 109q0 89 -109 89q-72 0 -129 -65l-86 144q78 101 214 101
t218 -70.5t82 -188.5t-99 -193q129 -76 129 -220t-87 -218.5t-233 -74.5t-248 96l91 159q68 -75 154 -75z" />
    <glyph glyph-name="questiondown" unicode="&#xbf;" horiz-adv-x="897" 
d="M482 -420q-161 0 -270 90.5t-109 238.5q0 74 29.5 149.5t144.5 185.5t139.5 172.5t24.5 102.5t-14 108h192q2 -7 18 -51t16 -92t-18 -107t-49.5 -107t-134 -160.5t-102.5 -184.5q0 -140 183 -140q90 0 187 89l102 -193q-128 -101 -339 -101zM513 763q-68 0 -115.5 48
t-47.5 116t47.5 116t115.5 48t116 -48t48 -116t-48 -116t-116 -48z" />
    <glyph glyph-name="Agrave" unicode="&#xc0;" horiz-adv-x="1297" 
d="M646 1037l-176 -541h352zM1005 0l-107 297h-502l-102 -297h-289l584 1485h114l589 -1485h-287zM576 1585l-226 293h267l169 -293h-210z" />
    <glyph glyph-name="Aacute" unicode="&#xc1;" horiz-adv-x="1297" 
d="M646 1037l-176 -541h352zM1005 0l-107 297h-502l-102 -297h-289l584 1485h114l589 -1485h-287zM937 1878l-226 -293h-190l169 293h247z" />
    <glyph glyph-name="Acircumflex" unicode="&#xc2;" horiz-adv-x="1297" 
d="M646 1037l-176 -541h352zM1005 0l-107 297h-502l-102 -297h-289l584 1485h114l589 -1485h-287zM824 1585l-157 149l-139 -149h-267l355 315h107l368 -315h-267z" />
    <glyph glyph-name="Atilde" unicode="&#xc3;" horiz-adv-x="1297" 
d="M646 1037l-176 -541h352zM1005 0l-107 297h-502l-102 -297h-289l584 1485h114l589 -1485h-287zM526 1812q82 0 160 -38t100 -39q61 0 87 77h148q-38 -149 -93 -203q-56 -54 -128 -54q-72 1 -152 39t-103 38q-52 0 -89 -77h-145q19 113 77 185q56 72 138 72z" />
    <glyph glyph-name="Adieresis" unicode="&#xc4;" horiz-adv-x="1297" 
d="M646 1037l-176 -541h352zM1005 0l-107 297h-502l-102 -297h-289l584 1485h114l589 -1485h-287zM952 1870q58 0 100 -42t42 -101t-42 -101t-100 -41q-59 -1 -101 41t-42 101t42 101t101 42zM332 1870q58 0 100 -42t42 -101t-42 -101t-100 -41q-59 -1 -101 41t-42 101
t42 101t101 42z" />
    <glyph glyph-name="Aring" unicode="&#xc5;" horiz-adv-x="1297" 
d="M822 496l-176 541l-176 -541h352zM647 1677q-44 0 -75 -25.5t-31 -70.5q0 -96 106 -96t106 96t-106 96zM396 1582q0 91 76 151t178 60t176 -59t74 -152q0 -145 -158 -196l550 -1386h-287l-107 297h-502l-102 -297h-289l545 1386q-154 51 -154 196z" />
    <glyph glyph-name="AE" unicode="&#xc6;" horiz-adv-x="1915" 
d="M920 496v581l-352 -581h352zM1180 1234v-343h484v-221h-484v-439h664v-231h-924v297h-446l-183 -297h-289l888 1465h965v-231h-675z" />
    <glyph glyph-name="Ccedilla" unicode="&#xc7;" horiz-adv-x="1253" 
d="M772 1259q-188 1 -305 -153t-117 -389t108 -373t303 -138q194 0 311 148l121 -210q-159 -169 -466 -169q-19 0 -38 1q179 -37 179 -207q0 -97 -71 -151t-184 -54q-51 0 -98 11l-41 127q34 -9 70 -9q131 0 131 91q-1 33 -21 64t-51 39l85 89q-279 12 -443 208
q-165 195 -165 532q0 338 188 556t483 218q252 0 403 -103l-107 -215q-87 87 -275 87z" />
    <glyph glyph-name="Egrave" unicode="&#xc8;" horiz-adv-x="1165" 
d="M410 1234v-343h484v-221h-484v-439h664v-231h-924v1465h935v-231h-675zM566 1585l-226 293h267l169 -293h-210z" />
    <glyph glyph-name="Eacute" unicode="&#xc9;" horiz-adv-x="1165" 
d="M410 1234v-343h484v-221h-484v-439h664v-231h-924v1465h935v-231h-675zM877 1878l-226 -293h-190l169 293h247z" />
    <glyph glyph-name="Ecircumflex" unicode="&#xca;" horiz-adv-x="1165" 
d="M410 1234v-343h484v-221h-484v-439h664v-231h-924v1465h935v-231h-675zM764 1585l-157 149l-139 -149h-267l355 315h107l368 -315h-267z" />
    <glyph glyph-name="Edieresis" unicode="&#xcb;" horiz-adv-x="1165" 
d="M410 1234v-343h484v-221h-484v-439h664v-231h-924v1465h935v-231h-675zM918 1870q58 0 100 -42t42 -101t-42 -101t-100 -41q-59 -1 -101 41t-42 101t42 101t101 42zM298 1870q58 0 100 -42t42 -101t-42 -101t-100 -41q-59 -1 -101 41t-42 101t42 101t101 42z" />
    <glyph glyph-name="Igrave" unicode="&#xcc;" horiz-adv-x="570" 
d="M155 0v1465h260v-1465h-260zM241 1585l-226 293h267l169 -293h-210z" />
    <glyph glyph-name="Iacute" unicode="&#xcd;" horiz-adv-x="570" 
d="M155 0v1465h260v-1465h-260zM571 1878l-226 -293h-190l169 293h247z" />
    <glyph glyph-name="Icircumflex" unicode="&#xce;" horiz-adv-x="570" 
d="M155 0v1465h260v-1465h-260zM434 1585l-157 149l-139 -149h-267l355 315h107l368 -315h-267z" />
    <glyph glyph-name="Idieresis" unicode="&#xcf;" horiz-adv-x="570" 
d="M155 0v1465h260v-1465h-260zM618 1870q58 0 100 -42t42 -101t-42 -101t-100 -41q-59 -1 -101 41t-42 101t42 101t101 42zM-2 1870q58 0 100 -42t42 -101t-42 -101t-100 -41q-59 -1 -101 41t-42 101t42 101t101 42z" />
    <glyph glyph-name="Eth" unicode="&#xd0;" horiz-adv-x="1316" 
d="M547 898v-204h-137v-457q63 -6 136 -6q197 0 308.5 143t111.5 400q0 470 -437 470q-42 0 -119 -7v-339h137zM150 694h-124v204h124v566q311 11 391 11q320 0 507.5 -187.5t187.5 -497.5q0 -790 -761 -790h-325v694z" />
    <glyph glyph-name="Ntilde" unicode="&#xd1;" horiz-adv-x="1367" 
d="M400 -1h-250v1466h125l692 -884v884h250v-1485h-106l-711 927v-908zM536 1812q82 0 160 -38t100 -39q61 0 87 77h148q-38 -149 -93 -203q-56 -54 -128 -54q-72 1 -152 39t-103 38q-52 0 -89 -77h-145q19 113 77 185q56 72 138 72z" />
    <glyph glyph-name="Ograve" unicode="&#xd2;" horiz-adv-x="1440" 
d="M350 734q0 -246 87 -387t253 -141q196 0 298 138t102 401q0 515 -380 515q-174 0 -267 -140t-93 -386zM80 722q0 336 172 552t472 217q302 0 469 -196t167 -550t-174 -562t-483 -208q-307 0 -465 206q-158 205 -158 541zM666 1585l-226 293h267l169 -293h-210z" />
    <glyph glyph-name="Oacute" unicode="&#xd3;" horiz-adv-x="1440" 
d="M350 734q0 -246 87 -387t253 -141q196 0 298 138t102 401q0 515 -380 515q-174 0 -267 -140t-93 -386zM80 722q0 336 172 552t472 217q302 0 469 -196t167 -550t-174 -562t-483 -208q-307 0 -465 206q-158 205 -158 541zM997 1878l-226 -293h-190l169 293h247z" />
    <glyph glyph-name="Ocircumflex" unicode="&#xd4;" horiz-adv-x="1440" 
d="M350 734q0 -246 87 -387t253 -141q196 0 298 138t102 401q0 515 -380 515q-174 0 -267 -140t-93 -386zM80 722q0 336 172 552t472 217q302 0 469 -196t167 -550t-174 -562t-483 -208q-307 0 -465 206q-158 205 -158 541zM884 1585l-157 149l-139 -149h-267l355 315h107
l368 -315h-267z" />
    <glyph glyph-name="Otilde" unicode="&#xd5;" horiz-adv-x="1440" 
d="M350 734q0 -246 87 -387t253 -141q196 0 298 138t102 401q0 515 -380 515q-174 0 -267 -140t-93 -386zM80 722q0 336 172 552t472 217q302 0 469 -196t167 -550t-174 -562t-483 -208q-307 0 -465 206q-158 205 -158 541zM576 1812q82 0 160 -38t100 -39q61 0 87 77h148
q-38 -149 -93 -203q-56 -54 -128 -54q-72 1 -152 39t-103 38q-52 0 -89 -77h-145q19 113 77 185q56 72 138 72z" />
    <glyph glyph-name="Odieresis" unicode="&#xd6;" horiz-adv-x="1440" 
d="M350 734q0 -246 87 -387t253 -141q196 0 298 138t102 401q0 515 -380 515q-174 0 -267 -140t-93 -386zM80 722q0 336 172 552t472 217q302 0 469 -196t167 -550t-174 -562t-483 -208q-307 0 -465 206q-158 205 -158 541zM1038 1870q58 0 100 -42t42 -101t-42 -101
t-100 -41q-59 -1 -101 41t-42 101t42 101t101 42zM418 1870q58 0 100 -42t42 -101t-42 -101t-100 -41q-59 -1 -101 41t-42 101t42 101t101 42z" />
    <glyph glyph-name="multiply" unicode="&#xd7;" 
d="M759 629l314 -315l-143 -142l-314 315l-317 -317l-142 141l317 317l-321 321l142 142l321 -321l317 317l143 -141z" />
    <glyph glyph-name="Oslash" unicode="&#xd8;" horiz-adv-x="1400" 
d="M670 206q195 0 297.5 138t102.5 401q0 191 -50 310l-560 -763q82 -86 210 -86zM682 1260q-166 0 -259 -139.5t-93 -356.5t53 -349l557 758q-92 87 -258 87zM1340 738q0 -348 -174.5 -555.5t-495.5 -207.5q-216 0 -360 113l-83 -113h-167l154 210q-154 205 -154 539
t171.5 550.5t458.5 216.5q242 0 398 -116l85 116h167l-155 -211q155 -194 155 -542z" />
    <glyph glyph-name="Ugrave" unicode="&#xd9;" horiz-adv-x="1388" 
d="M150 1465h260v-993q0 -118 72 -192t206 -74t212 72t78 199v988h260v-1008q0 -226 -152 -354t-405 -128q-255 0 -393 125t-138 358v1007zM646 1585l-226 293h267l169 -293h-210z" />
    <glyph glyph-name="Uacute" unicode="&#xda;" horiz-adv-x="1388" 
d="M150 1465h260v-993q0 -118 72 -192t206 -74t212 72t78 199v988h260v-1008q0 -226 -152 -354t-405 -128q-255 0 -393 125t-138 358v1007zM977 1878l-226 -293h-190l169 293h247z" />
    <glyph glyph-name="Ucircumflex" unicode="&#xdb;" horiz-adv-x="1388" 
d="M150 1465h260v-993q0 -118 72 -192t206 -74t212 72t78 199v988h260v-1008q0 -226 -152 -354t-405 -128q-255 0 -393 125t-138 358v1007zM837 1585l-157 149l-139 -149h-267l355 315h107l368 -315h-267z" />
    <glyph glyph-name="Udieresis" unicode="&#xdc;" horiz-adv-x="1388" 
d="M150 1465h260v-993q0 -118 72 -192t206 -74t212 72t78 199v988h260v-1008q0 -226 -152 -354t-405 -128q-255 0 -393 125t-138 358v1007zM998 1870q58 0 100 -42t42 -101t-42 -101t-100 -41q-59 -1 -101 41t-42 101t42 101t101 42zM378 1870q58 0 100 -42t42 -101
t-42 -101t-100 -41q-59 -1 -101 41t-42 101t42 101t101 42z" />
    <glyph glyph-name="Yacute" unicode="&#xdd;" horiz-adv-x="1256" 
d="M759 0h-260v601l-494 864h276l347 -625l348 625h275l-492 -864v-601zM917 1878l-226 -293h-190l169 293h247z" />
    <glyph glyph-name="Thorn" unicode="&#xde;" horiz-adv-x="1142" 
d="M484 553q178 0 260 59.5t82 193.5q0 228 -367 228q-41 0 -79 -5v-469q66 -7 104 -7zM380 0h-260v1464l260 2v-202q25 1 44 1q347 0 507.5 -106.5t160.5 -332.5q0 -504 -594 -504q-44 0 -118 7v-329z" />
    <glyph glyph-name="germandbls" unicode="&#xdf;" horiz-adv-x="1119" 
d="M614 197q195 0 195 248q0 112 -45.5 165t-161.5 138.5t-116 179.5q0 33 76.5 97t76.5 137q0 127 -139 127q-80 0 -112.5 -60t-32.5 -223v-1007h-250v1102q0 189 101.5 299t277.5 110t283 -79t107 -211t-90 -239q-37 -44 -38 -44q0 -10 76 -48q247 -124 247 -432
q0 -220 -105 -348.5t-301 -128.5q-82 0 -176 32l48 197q78 -12 79 -12z" />
    <glyph glyph-name="agrave" unicode="&#xe0;" horiz-adv-x="1091" 
d="M611 517q-296 0 -296 -194q0 -144 167 -144q225 0 225 225v100q-64 13 -96 13zM436 -20q-173 0 -272 86t-99 260q-1 172 139 277t397 105q44 0 104 -15q0 189 -239 189q-141 0 -236 -47l-54 194q129 62 307 62q245 1 359 -111t114 -423v-229q0 -214 86 -269
q-31 -55 -69 -67q-37 -12 -89 -12t-95 40t-58 87q-35 -55 -119 -91t-176 -36zM466 1215l-226 293h267l169 -293h-210z" />
    <glyph glyph-name="aacute" unicode="&#xe1;" horiz-adv-x="1091" 
d="M611 517q-296 0 -296 -194q0 -144 167 -144q225 0 225 225v100q-64 13 -96 13zM436 -20q-173 0 -272 86t-99 260q-1 172 139 277t397 105q44 0 104 -15q0 189 -239 189q-141 0 -236 -47l-54 194q129 62 307 62q245 1 359 -111t114 -423v-229q0 -214 86 -269
q-31 -55 -69 -67q-37 -12 -89 -12t-95 40t-58 87q-35 -55 -119 -91t-176 -36zM787 1508l-226 -293h-190l169 293h247z" />
    <glyph glyph-name="acircumflex" unicode="&#xe2;" horiz-adv-x="1091" 
d="M611 517q-296 0 -296 -194q0 -144 167 -144q225 0 225 225v100q-64 13 -96 13zM436 -20q-173 0 -272 86t-99 260q-1 172 139 277t397 105q44 0 104 -15q0 189 -239 189q-141 0 -236 -47l-54 194q129 62 307 62q245 1 359 -111t114 -423v-229q0 -214 86 -269
q-31 -55 -69 -67q-37 -12 -89 -12t-95 40t-58 87q-35 -55 -119 -91t-176 -36zM724 1215l-157 149l-139 -149h-267l355 315h107l368 -315h-267z" />
    <glyph glyph-name="atilde" unicode="&#xe3;" horiz-adv-x="1091" 
d="M611 517q-296 0 -296 -194q0 -144 167 -144q225 0 225 225v100q-64 13 -96 13zM436 -20q-173 0 -272 86t-99 260q-1 172 139 277t397 105q44 0 104 -15q0 189 -239 189q-141 0 -236 -47l-54 194q129 62 307 62q245 1 359 -111t114 -423v-229q0 -214 86 -269
q-31 -55 -69 -67q-37 -12 -89 -12t-95 40t-58 87q-35 -55 -119 -91t-176 -36zM376 1442q82 0 160 -38t100 -39q61 0 87 77h148q-38 -149 -93 -203q-56 -54 -128 -54q-72 1 -152 39t-103 38q-52 0 -89 -77h-145q19 113 77 185q56 72 138 72z" />
    <glyph glyph-name="adieresis" unicode="&#xe4;" horiz-adv-x="1091" 
d="M611 517q-296 0 -296 -194q0 -144 167 -144q225 0 225 225v100q-64 13 -96 13zM436 -20q-173 0 -272 86t-99 260q-1 172 139 277t397 105q44 0 104 -15q0 189 -239 189q-141 0 -236 -47l-54 194q129 62 307 62q245 1 359 -111t114 -423v-229q0 -214 86 -269
q-31 -55 -69 -67q-37 -12 -89 -12t-95 40t-58 87q-35 -55 -119 -91t-176 -36zM858 1500q58 0 100 -42t42 -101t-42 -101t-100 -41q-59 -1 -101 41t-42 101t42 101t101 42zM238 1500q58 0 100 -42t42 -101t-42 -101t-100 -41q-59 -1 -101 41t-42 101t42 101t101 42z" />
    <glyph glyph-name="aring" unicode="&#xe5;" horiz-adv-x="1091" 
d="M611 517q-296 0 -296 -194q0 -144 167 -144q225 0 225 225v100q-64 13 -96 13zM436 -20q-173 0 -272 86t-99 260q-1 172 139 277t397 105q44 0 104 -15q0 189 -239 189q-141 0 -236 -47l-54 194q129 62 307 62q245 1 359 -111t114 -423v-229q0 -214 86 -269
q-31 -55 -69 -67q-37 -12 -89 -12t-95 40t-58 87q-35 -55 -119 -91t-176 -36zM504 1522q-44 0 -75 -26t-31 -70q0 -96 106 -96t106 96t-106 96zM504 1216q-104 0 -178 58t-73 151q0 93 76 153q75 60 177 60t176 -59t75 -152q-1 -93 -75 -152t-178 -59z" />
    <glyph glyph-name="ae" unicode="&#xe6;" horiz-adv-x="1767" 
d="M1221 882q-108 0 -180 -64t-96 -171h536q-25 235 -260 235zM1270 189q152 0 242 89l97 -191q-131 -107 -394 -107q-190 0 -268 66l3 -46h-198q-13 34 -36 105q-38 -61 -124 -93t-171 -32q-167 0 -269 84t-102 248q0 209 171 312q140 84 365 84q51 0 104 -15
q0 190 -239 190q-139 0 -236 -48l-54 194q129 62 307 62q284 0 389 -147q149 147 367 147t363 -135t145 -358q0 -50 -21 -139h-775q6 -130 94 -200t240 -70zM596 517q-296 0 -296 -194q0 -144 167 -144q225 0 225 225v100q-50 13 -96 13z" />
    <glyph glyph-name="ccedilla" unicode="&#xe7;" horiz-adv-x="1048" 
d="M635 882q-145 0 -227 -94t-83 -262q0 -337 321 -337q139 0 245 92l92 -197q-109 -68 -191 -86t-192 -18q-248 0 -392 144t-143 400q0 255 157 411t428 156q187 0 325 -105l-107 -187q-88 83 -233 83zM384 -307q131 0 131 91q-1 33 -21 64t-51 39l85 89q180 -37 180 -207
q0 -97 -71 -151t-184 -54q-51 0 -98 11l-41 127q34 -9 70 -9z" />
    <glyph glyph-name="egrave" unicode="&#xe8;" horiz-adv-x="1177" 
d="M601 882q-214 0 -266 -235h526q-26 235 -260 235zM649 189q154 0 243 89l97 -191q-131 -107 -385 -107t-396 144t-143 398q1 255 157 412t382 157t367 -139t141 -354q0 -46 -21 -139h-765q7 -128 88 -199t235 -71zM576 1215l-226 293h267l169 -293h-210z" />
    <glyph glyph-name="eacute" unicode="&#xe9;" horiz-adv-x="1177" 
d="M601 882q-214 0 -266 -235h526q-26 235 -260 235zM649 189q154 0 243 89l97 -191q-131 -107 -385 -107t-396 144t-143 398q1 255 157 412t382 157t367 -139t141 -354q0 -46 -21 -139h-765q7 -128 88 -199t235 -71zM897 1508l-226 -293h-190l169 293h247z" />
    <glyph glyph-name="ecircumflex" unicode="&#xea;" horiz-adv-x="1177" 
d="M601 882q-214 0 -266 -235h526q-26 235 -260 235zM649 189q154 0 243 89l97 -191q-131 -107 -385 -107t-396 144t-143 398q1 255 157 412t382 157t367 -139t141 -354q0 -46 -21 -139h-765q7 -128 88 -199t235 -71zM771 1215l-157 149l-139 -149h-267l355 315h107
l368 -315h-267z" />
    <glyph glyph-name="edieresis" unicode="&#xeb;" horiz-adv-x="1177" 
d="M601 882q-214 0 -266 -235h526q-26 235 -260 235zM649 189q154 0 243 89l97 -191q-131 -107 -385 -107t-396 144t-143 398q1 255 157 412t382 157t367 -139t141 -354q0 -46 -21 -139h-765q7 -128 88 -199t235 -71zM898 1500q58 0 100 -42t42 -101t-42 -101t-100 -41
q-59 -1 -101 41t-42 101t42 101t101 42zM278 1500q58 0 100 -42t42 -101t-42 -101t-100 -41q-59 -1 -101 41t-42 101t42 101t101 42z" />
    <glyph glyph-name="igrave" unicode="&#xec;" horiz-adv-x="611" 
d="M202 0v866h-137v205h390v-1071h-253zM291 1215l-226 293h267l169 -293h-210z" />
    <glyph glyph-name="iacute" unicode="&#xed;" horiz-adv-x="611" 
d="M207 0v866h-137v205h390v-1071h-253zM552 1508l-226 -293h-190l169 293h247z" />
    <glyph glyph-name="icircumflex" unicode="&#xee;" horiz-adv-x="611" 
d="M202 0v866h-137v205h390v-1071h-253zM474 1215l-157 149l-139 -149h-267l355 315h107l368 -315h-267z" />
    <glyph glyph-name="idieresis" unicode="&#xef;" horiz-adv-x="611" 
d="M202 0v866h-137v205h390v-1071h-253zM608 1500q58 0 100 -42t42 -101t-42 -101t-100 -41q-59 -1 -101 41t-42 101t42 101t101 42zM-12 1500q58 0 100 -42t42 -101t-42 -101t-100 -41q-59 -1 -101 41t-42 101t42 101t101 42z" />
    <glyph glyph-name="eth" unicode="&#xf0;" horiz-adv-x="1159" 
d="M315 546q0 -345 265 -345q128 0 196 93.5t68 251.5q0 339 -264 339q-126 0 -195.5 -91.5t-69.5 -247.5zM1094 546q0 -256 -136 -411t-378 -155t-378.5 154t-136.5 404t139 404.5t376 154.5q41 0 87 -6q-40 64 -94 140l-148 -78l-58 102l136 67q-94 105 -219 188h354
q36 -36 75 -81l162 88l58 -96l-153 -82q183 -272 248.5 -450.5t65.5 -342.5z" />
    <glyph glyph-name="ntilde" unicode="&#xf1;" horiz-adv-x="1209" 
d="M824 0v619q0 137 -52 200t-172 63q-56 0 -118 -31t-97 -77v-774h-250v1071h180l46 -100q102 120 297 120q196 -1 306 -115t110 -319v-657h-250zM466 1442q82 0 160 -38t100 -39q61 0 87 77h148q-38 -149 -93 -203q-56 -54 -128 -54q-72 1 -152 39t-103 38q-52 0 -89 -77
h-145q19 113 77 185q56 72 138 72z" />
    <glyph glyph-name="ograve" unicode="&#xf2;" horiz-adv-x="1159" 
d="M325 538q0 -354 255 -354q118 0 186 92t68 262q0 349 -254 349q-117 0 -186 -92t-69 -257zM65 534q-1 249 141 403t380 154t373 -148q135 -149 135 -405t-138 -407t-378 -151q-242 0 -378 152t-135 402zM536 1215l-226 293h267l169 -293h-210z" />
    <glyph glyph-name="oacute" unicode="&#xf3;" horiz-adv-x="1159" 
d="M325 538q0 -354 255 -354q118 0 186 92t68 262q0 349 -254 349q-117 0 -186 -92t-69 -257zM65 534q-1 249 141 403t380 154t373 -148q135 -149 135 -405t-138 -407t-378 -151q-242 0 -378 152t-135 402zM817 1508l-226 -293h-190l169 293h247z" />
    <glyph glyph-name="ocircumflex" unicode="&#xf4;" horiz-adv-x="1159" 
d="M325 538q0 -354 255 -354q118 0 186 92t68 262q0 349 -254 349q-117 0 -186 -92t-69 -257zM65 534q-1 249 141 403t380 154t373 -148q135 -149 135 -405t-138 -407t-378 -151q-242 0 -378 152t-135 402zM724 1215l-157 149l-139 -149h-267l355 315h107l368 -315h-267z
" />
    <glyph glyph-name="otilde" unicode="&#xf5;" horiz-adv-x="1159" 
d="M325 538q0 -354 255 -354q118 0 186 92t68 262q0 349 -254 349q-117 0 -186 -92t-69 -257zM65 534q-1 249 141 403t380 154t373 -148q135 -149 135 -405t-138 -407t-378 -151q-242 0 -378 152t-135 402zM456 1442q82 0 160 -38t100 -39q61 0 87 77h148q-38 -149 -93 -203
q-56 -54 -128 -54q-72 1 -152 39t-103 38q-52 0 -89 -77h-145q19 113 77 185q56 72 138 72z" />
    <glyph glyph-name="odieresis" unicode="&#xf6;" horiz-adv-x="1159" 
d="M325 538q0 -354 255 -354q118 0 186 92t68 262q0 349 -254 349q-117 0 -186 -92t-69 -257zM65 534q-1 249 141 403t380 154t373 -148q135 -149 135 -405t-138 -407t-378 -151q-242 0 -378 152t-135 402zM908 1500q58 0 100 -42t42 -101t-42 -101t-100 -41q-59 -1 -101 41
t-42 101t42 101t101 42zM288 1500q58 0 100 -42t42 -101t-42 -101t-100 -41q-59 -1 -101 41t-42 101t42 101t101 42z" />
    <glyph glyph-name="divide" unicode="&#xf7;" 
d="M763 230q0 -62 -44 -106.5t-106 -44.5t-106 44.5t-44 106.5t44 106t106 44t106 -44t44 -106zM1062 736v-201h-898v201h898zM763 1020q0 -62 -44 -106.5t-106 -44.5t-106 44.5t-44 106.5t44 106t106 44t106 -44t44 -106z" />
    <glyph glyph-name="oslash" unicode="&#xf8;" horiz-adv-x="1159" 
d="M580 184q117 0 185.5 92t68.5 262q0 106 -23 180l-376 -494q57 -40 145 -40zM580 887q-117 0 -186 -92t-69 -257q0 -110 23 -185l376 494q-57 40 -144 40zM1094 532q0 -250 -137.5 -401t-376.5 -151q-161 0 -277 69l-53 -69h-185l125 165q-125 150 -125 394t141.5 398
t373.5 154q162 0 278 -67l51 67h185l-123 -162q123 -147 123 -397z" />
    <glyph glyph-name="ugrave" unicode="&#xf9;" horiz-adv-x="1210" 
d="M825 -1v90q-53 -45 -146 -77t-171 -32q-373 0 -373 396v695h250v-676q0 -206 185 -206q85 0 158 44t97 102v736h250v-1072h-250zM556 1215l-226 293h267l169 -293h-210z" />
    <glyph glyph-name="uacute" unicode="&#xfa;" horiz-adv-x="1210" 
d="M825 -1v90q-53 -45 -146 -77t-171 -32q-373 0 -373 396v695h250v-676q0 -206 185 -206q85 0 158 44t97 102v736h250v-1072h-250zM867 1508l-226 -293h-190l169 293h247z" />
    <glyph glyph-name="ucircumflex" unicode="&#xfb;" horiz-adv-x="1210" 
d="M825 -1v90q-53 -45 -146 -77t-171 -32q-373 0 -373 396v695h250v-676q0 -206 185 -206q85 0 158 44t97 102v736h250v-1072h-250zM754 1215l-157 149l-139 -149h-267l355 315h107l368 -315h-267z" />
    <glyph glyph-name="udieresis" unicode="&#xfc;" horiz-adv-x="1210" 
d="M825 -1v90q-53 -45 -146 -77t-171 -32q-373 0 -373 396v695h250v-676q0 -206 185 -206q85 0 158 44t97 102v736h250v-1072h-250zM918 1500q58 0 100 -42t42 -101t-42 -101t-100 -41q-59 -1 -101 41t-42 101t42 101t101 42zM298 1500q58 0 100 -42t42 -101t-42 -101
t-100 -41q-59 -1 -101 41t-42 101t42 101t101 42z" />
    <glyph glyph-name="yacute" unicode="&#xfd;" horiz-adv-x="1093" 
d="M131 -420v221q289 0 289 145q0 96 -80 294l-335 831h259l292 -740l263 740h259l-469 -1243q-39 -108 -171 -178t-307 -70zM817 1508l-226 -293h-190l169 293h247z" />
    <glyph glyph-name="thorn" unicode="&#xfe;" horiz-adv-x="1193" 
d="M524 191q173 0 248.5 82.5t75.5 266.5t-75 261.5t-248 77.5q-90 0 -160 -70v-563q68 -55 159 -55zM365 -420h-250v1890l250 60v-531q94 92 231 92q512 0 512 -564q0 -263 -141.5 -405t-386.5 -142q-118 0 -215 47v-447z" />
    <glyph glyph-name="ydieresis" unicode="&#xff;" horiz-adv-x="1093" 
d="M131 -420v221q289 0 289 145q0 96 -80 294l-335 831h259l292 -740l263 740h259l-469 -1243q-39 -108 -171 -178t-307 -70zM850 1500q58 0 100 -42t42 -101t-42 -101t-100 -41q-59 -1 -101 41t-42 101t42 101t101 42zM230 1500q58 0 100 -42t42 -101t-42 -101t-100 -41
q-59 -1 -101 41t-42 101t42 101t101 42z" />
    <glyph glyph-name="Amacron" unicode="&#x100;" horiz-adv-x="1297" 
d="M646 1037l-176 -541h352zM1005 0l-107 297h-502l-102 -297h-289l584 1485h114l589 -1485h-287zM1001 1766v-181h-738v181h738z" />
    <glyph glyph-name="amacron" unicode="&#x101;" horiz-adv-x="1091" 
d="M611 517q-296 0 -296 -194q0 -144 167 -144q225 0 225 225v100q-64 13 -96 13zM436 -20q-173 0 -272 86t-99 260q-1 172 139 277t397 105q44 0 104 -15q0 189 -239 189q-141 0 -236 -47l-54 194q129 62 307 62q245 1 359 -111t114 -423v-229q0 -214 86 -269
q-31 -55 -69 -67q-37 -12 -89 -12t-95 40t-58 87q-35 -55 -119 -91t-176 -36zM871 1396v-181h-738v181h738z" />
    <glyph glyph-name="Abreve" unicode="&#x102;" horiz-adv-x="1297" 
d="M646 1037l-176 -541h352zM1005 0l-107 297h-502l-102 -297h-289l584 1485h114l589 -1485h-287zM958 1910q0 -139 -96 -232t-245 -93t-235 89t-87 236h141q0 -64 52 -102t134 -39t138 37t55 104h143z" />
    <glyph glyph-name="abreve" unicode="&#x103;" horiz-adv-x="1091" 
d="M611 517q-296 0 -296 -194q0 -144 167 -144q225 0 225 225v100q-64 13 -96 13zM436 -20q-173 0 -272 86t-99 260q-1 172 139 277t397 105q44 0 104 -15q0 189 -239 189q-141 0 -236 -47l-54 194q129 62 307 62q245 1 359 -111t114 -423v-229q0 -214 86 -269
q-31 -55 -69 -67q-37 -12 -89 -12t-95 40t-58 87q-35 -55 -119 -91t-176 -36zM828 1540q0 -139 -96 -232t-245 -93t-235 89t-87 236h141q0 -64 52 -102t134 -39t138 37t55 104h143z" />
    <glyph glyph-name="Aogonek" unicode="&#x104;" horiz-adv-x="1297" 
d="M646 1037l-176 -541h352zM1247 0q-21 0 -61.5 -42t-40.5 -96t38.5 -83.5t88.5 -29.5t92 39l65 -124q-78 -58 -201 -58t-194 59t-71 161t41 176l-106 295h-502l-102 -297h-289l584 1485h114l589 -1485h-45z" />
    <glyph glyph-name="aogonek" unicode="&#x105;" horiz-adv-x="1091" 
d="M611 517q-296 0 -296 -194q0 -144 167 -144q225 0 225 225v100q-64 13 -96 13zM436 -20q-173 0 -272 87t-99 259t139.5 277t396.5 105q44 0 104 -15q0 189 -239 189q-141 0 -236 -47l-54 194q129 62 307 62q245 0 359 -111.5t114 -422.5v-229q0 -214 86 -269
q-27 -45 -52.5 -59t-60.5 -18q-67 -48 -67 -130q0 -44 38 -73.5t88 -29.5t93 39l65 -124q-78 -58 -201 -58t-194 59.5t-71 154.5q0 148 79 233q-20 28 -28 54q-34 -56 -118.5 -91.5t-176.5 -35.5z" />
    <glyph glyph-name="Cacute" unicode="&#x106;" horiz-adv-x="1253" 
d="M772 1259q-188 1 -305 -153t-117 -389t108 -373t303 -138q194 0 311 148l121 -210q-159 -169 -466 -169t-477 202t-170 539q0 338 188 556t483 218q252 0 403 -103l-107 -215q-87 87 -275 87zM997 1878l-226 -293h-190l169 293h247z" />
    <glyph glyph-name="cacute" unicode="&#x107;" horiz-adv-x="1048" 
d="M635 882q-145 0 -227 -94t-83 -262q0 -337 321 -337q139 0 245 92l92 -197q-109 -68 -191 -86t-192 -18q-248 0 -392 144t-143 400q0 255 157 411t428 156q187 0 325 -105l-107 -187q-88 83 -233 83zM837 1508l-226 -293h-190l169 293h247z" />
    <glyph glyph-name="Ccircumflex" unicode="&#x108;" horiz-adv-x="1253" 
d="M772 1259q-188 1 -305 -153t-117 -389t108 -373t303 -138q194 0 311 148l121 -210q-159 -169 -466 -169t-477 202t-170 539q0 338 188 556t483 218q252 0 403 -103l-107 -215q-87 87 -275 87zM884 1585l-157 149l-139 -149h-267l355 315h107l368 -315h-267z" />
    <glyph glyph-name="ccircumflex" unicode="&#x109;" horiz-adv-x="1048" 
d="M635 882q-145 0 -227 -94t-83 -262q0 -337 321 -337q139 0 245 92l92 -197q-109 -68 -191 -86t-192 -18q-248 0 -392 144t-143 400q0 255 157 411t428 156q187 0 325 -105l-107 -187q-88 83 -233 83zM744 1215l-157 149l-139 -149h-267l355 315h107l368 -315h-267z" />
    <glyph glyph-name="Cdot" unicode="&#x10a;" horiz-adv-x="1253" 
d="M772 1259q-188 1 -305 -153t-117 -389t108 -373t303 -138q194 0 311 148l121 -210q-159 -169 -466 -169t-477 202t-170 539q0 338 188 556t483 218q252 0 403 -103l-107 -215q-87 87 -275 87zM740 1887q62 -1 106 -45t45 -106q-1 -62 -45 -106t-106 -45q-62 1 -108 45
q-44 44 -44 106t44 106q46 44 108 45z" />
    <glyph glyph-name="cdot" unicode="&#x10b;" horiz-adv-x="1048" 
d="M635 882q-145 0 -227 -94t-83 -262q0 -337 321 -337q139 0 245 92l92 -197q-109 -68 -191 -86t-192 -18q-248 0 -392 144t-143 400q0 255 157 411t428 156q187 0 325 -105l-107 -187q-88 83 -233 83zM600 1517q62 -1 106 -45t45 -106q-1 -62 -45 -106t-106 -45
q-62 1 -108 45q-44 44 -44 106t44 106q46 44 108 45z" />
    <glyph glyph-name="Ccaron" unicode="&#x10c;" horiz-adv-x="1253" 
d="M772 1259q-188 1 -305 -153t-117 -389t108 -373t303 -138q194 0 311 148l121 -210q-159 -169 -466 -169t-477 202t-170 539q0 338 188 556t483 218q252 0 403 -103l-107 -215q-87 87 -275 87zM1151 1900l-368 -315h-107l-355 315h267l139 -149l157 149h267z" />
    <glyph glyph-name="ccaron" unicode="&#x10d;" horiz-adv-x="1048" 
d="M635 882q-145 0 -227 -94t-83 -262q0 -337 321 -337q139 0 245 92l92 -197q-109 -68 -191 -86t-192 -18q-248 0 -392 144t-143 400q0 255 157 411t428 156q187 0 325 -105l-107 -187q-88 83 -233 83zM991 1530l-368 -315h-107l-355 315h267l139 -149l157 149h267z" />
    <glyph glyph-name="Dcaron" unicode="&#x10e;" horiz-adv-x="1316" 
d="M546 231q196 0 308 143t112 400q0 470 -437 470q-42 0 -119 -7v-1000q63 -6 136 -6zM475 0h-325v1464q311 11 391 11q319 1 507 -187t188 -498q0 -790 -761 -790zM1021 1900l-368 -315h-107l-355 315h267l139 -149l157 149h267z" />
    <glyph glyph-name="dcaron" unicode="&#x10f;" horiz-adv-x="1502" 
d="M637 879q-150 1 -231 -91t-81 -263q0 -334 322 -334q37 -1 89 21t68 44v559q-80 64 -167 64zM804 0v65q-31 -33 -105 -59t-153 -26q-224 0 -352 142t-129 396t147 414t370 159q122 0 222 -50v429l250 60v-1530h-250zM1245 1256q-1 26 -35 60t-34 76q0 118 117 118
q123 0 123 -139q0 -196 -204 -323l-63 85q66 49 81 73t15 50z" />
    <glyph glyph-name="Dslash" unicode="&#x110;" horiz-adv-x="1316" 
d="M547 898v-204h-137v-457q63 -6 136 -6q196 0 308 143t112 400q0 470 -437 470q-42 0 -119 -7v-339h137zM150 694h-124v204h124v566q311 11 391 11q319 1 507 -187t188 -498q0 -790 -761 -790h-325v694z" />
    <glyph glyph-name="dcroat" unicode="&#x111;" horiz-adv-x="1189" 
d="M657 879q-150 0 -231 -91.5t-81 -262.5q0 -334 322 -334q36 0 88.5 21.5t68.5 43.5v559q-80 64 -167 64zM1153 1362v-141h-79v-1221h-250v65q-31 -34 -105 -59.5t-153 -25.5q-224 0 -352.5 142t-128.5 396t147.5 413.5t369.5 159.5q122 0 222 -50v180h-292v141h292v108
l250 60v-168h79z" />
    <glyph glyph-name="Emacron" unicode="&#x112;" horiz-adv-x="1165" 
d="M410 1234v-343h484v-221h-484v-439h664v-231h-924v1465h935v-231h-675zM1011 1766v-181h-738v181h738z" />
    <glyph glyph-name="emacron" unicode="&#x113;" horiz-adv-x="1177" 
d="M601 882q-214 0 -266 -235h526q-26 235 -260 235zM649 189q154 0 243 89l97 -191q-131 -107 -385 -107t-396 144t-143 398q1 255 157 412t382 157t367 -139t141 -354q0 -46 -21 -139h-765q7 -128 88 -199t235 -71zM971 1396v-181h-738v181h738z" />
    <glyph glyph-name="Ebreve" unicode="&#x114;" horiz-adv-x="1165" 
d="M410 1234v-343h484v-221h-484v-439h664v-231h-924v1465h935v-231h-675zM978 1910q0 -139 -96 -232t-245 -93t-235 89t-87 236h141q0 -64 52 -102t134 -39t138 37t55 104h143z" />
    <glyph glyph-name="ebreve" unicode="&#x115;" horiz-adv-x="1177" 
d="M601 882q-214 0 -266 -235h526q-26 235 -260 235zM649 189q154 0 243 89l97 -191q-131 -107 -385 -107t-396 144t-143 398q1 255 157 412t382 157t367 -139t141 -354q0 -46 -21 -139h-765q7 -128 88 -199t235 -71zM928 1540q0 -139 -96 -232t-245 -93t-235 89t-87 236
h141q0 -64 52 -102t134 -39t138 37t55 104h143z" />
    <glyph glyph-name="Edot" unicode="&#x116;" horiz-adv-x="1165" 
d="M410 1234v-343h484v-221h-484v-439h664v-231h-924v1465h935v-231h-675zM630 1887q62 -1 106 -45t45 -106q-1 -62 -45 -106t-106 -45q-62 1 -108 45q-44 44 -44 106t44 106q46 44 108 45z" />
    <glyph glyph-name="edot" unicode="&#x117;" horiz-adv-x="1177" 
d="M601 882q-214 0 -266 -235h526q-26 235 -260 235zM649 189q154 0 243 89l97 -191q-131 -107 -385 -107t-396 144t-143 398q1 255 157 412t382 157t367 -139t141 -354q0 -46 -21 -139h-765q7 -128 88 -199t235 -71zM580 1517q62 -1 106 -45t45 -106q-1 -62 -45 -106
t-106 -45q-62 1 -108 45q-44 44 -44 106t44 106q46 44 108 45z" />
    <glyph glyph-name="Eogonek" unicode="&#x118;" horiz-adv-x="1165" 
d="M150 0v1465h935v-231h-675v-343h484v-221h-484v-439h664v-231h-100q-21 0 -61.5 -42t-40.5 -96t38 -83.5t88 -29.5t93 39l65 -124q-78 -58 -201 -58t-194 59.5t-71 160.5t41 174h-581z" />
    <glyph glyph-name="eogonek" unicode="&#x119;" horiz-adv-x="1177" 
d="M601 882q-214 0 -266 -235h526q-26 235 -260 235zM65 536q0 242 156.5 398.5t382.5 156.5t367 -139t141 -354q0 -46 -21 -139h-765q7 -128 88 -199t235 -71t243 89l97 -191q-94 -76 -261 -99q-76 -45 -76 -136q0 -44 38 -73.5t88 -29.5t93 39l65 -124q-78 -58 -202 -58
t-194 60.5t-70 155.5t33 164q-208 27 -323 167.5t-115 382.5z" />
    <glyph glyph-name="Ecaron" unicode="&#x11a;" horiz-adv-x="1165" 
d="M410 1234v-343h484v-221h-484v-439h664v-231h-924v1465h935v-231h-675zM1041 1900l-368 -315h-107l-355 315h267l139 -149l157 149h267z" />
    <glyph glyph-name="ecaron" unicode="&#x11b;" horiz-adv-x="1177" 
d="M601 882q-214 0 -266 -235h526q-26 235 -260 235zM649 189q154 0 243 89l97 -191q-131 -107 -385 -107t-396 144t-143 398q1 255 157 412t382 157t367 -139t141 -354q0 -46 -21 -139h-765q7 -128 88 -199t235 -71zM1021 1530l-368 -315h-107l-355 315h267l139 -149
l157 149h267z" />
    <glyph glyph-name="Gcircumflex" unicode="&#x11c;" horiz-adv-x="1375" 
d="M816 1259q-216 -1 -341 -147t-125 -386t122 -380t334 -140q139 0 229 76v288h-203v222h463v-656q-93 -76 -239 -118t-292 -43q-316 1 -500 207t-184 545t201 551t541 212q241 0 410 -144l-109 -209q-46 41 -142 81t-165 41zM901 1585l-157 149l-139 -149h-267l355 315
h107l368 -315h-267z" />
    <glyph glyph-name="gcircumflex" unicode="&#x11d;" horiz-adv-x="1028" 
d="M305 690q1 -90 53 -148t141 -57q89 0 137 56q48 55 48 145t-52 146t-135 56q-84 0 -138 -54t-54 -144zM90 180q0 53 43 104t100 75q-183 119 -183 337q0 172 126 284t310 113q144 0 241 -54l98 114l173 -157l-119 -87q62 -94 62 -222q1 -183 -111 -293t-282 -109
q-27 0 -72 5l-41 6q-7 0 -53 -22t-47 -44q0 -40 69 -40q31 0 104 15t125 15q365 0 365 -293q0 -163 -146 -255t-372 -92t-425 145l158 195q131 -120 292 -120q108 0 178 32t70 88q0 95 -155 95l-250 -20q-258 0 -258 185zM604 1215l-157 149l-139 -149h-267l355 315h107
l368 -315h-267z" />
    <glyph glyph-name="Gbreve" unicode="&#x11e;" horiz-adv-x="1375" 
d="M816 1259q-216 -1 -341 -147t-125 -386t122 -380t334 -140q139 0 229 76v288h-203v222h463v-656q-93 -76 -239 -118t-292 -43q-316 1 -500 207t-184 545t201 551t541 212q241 0 410 -144l-109 -209q-46 41 -142 81t-165 41zM1088 1910q0 -139 -96 -232t-245 -93t-235 89
t-87 236h141q0 -64 52 -102t134 -39t138 37t55 104h143z" />
    <glyph glyph-name="gbreve" unicode="&#x11f;" horiz-adv-x="1028" 
d="M305 690q1 -90 53 -148t141 -57q89 0 137 56q48 55 48 145t-52 146t-135 56q-84 0 -138 -54t-54 -144zM90 180q0 53 43 104t100 75q-183 119 -183 337q0 172 126 284t310 113q144 0 241 -54l98 114l173 -157l-119 -87q62 -94 62 -222q1 -183 -111 -293t-282 -109
q-27 0 -72 5l-41 6q-7 0 -53 -22t-47 -44q0 -40 69 -40q31 0 104 15t125 15q365 0 365 -293q0 -163 -146 -255t-372 -92t-425 145l158 195q131 -120 292 -120q108 0 178 32t70 88q0 95 -155 95l-250 -20q-258 0 -258 185zM808 1540q0 -139 -96 -232t-245 -93t-235 89
t-87 236h141q0 -64 52 -102t134 -39t138 37t55 104h143z" />
    <glyph glyph-name="Gdot" unicode="&#x120;" horiz-adv-x="1375" 
d="M816 1259q-216 -1 -341 -147t-125 -386t122 -380t334 -140q139 0 229 76v288h-203v222h463v-656q-93 -76 -239 -118t-292 -43q-316 1 -500 207t-184 545t201 551t541 212q241 0 410 -144l-109 -209q-46 41 -142 81t-165 41zM740 1887q62 -1 106 -45t45 -106
q-1 -62 -45 -106t-106 -45q-62 1 -108 45q-44 44 -44 106t44 106q46 44 108 45z" />
    <glyph glyph-name="gdot" unicode="&#x121;" horiz-adv-x="1028" 
d="M305 690q1 -90 53 -148t141 -57q89 0 137 56q48 55 48 145t-52 146t-135 56q-84 0 -138 -54t-54 -144zM90 180q0 53 43 104t100 75q-183 119 -183 337q0 172 126 284t310 113q144 0 241 -54l98 114l173 -157l-119 -87q62 -94 62 -222q1 -183 -111 -293t-282 -109
q-27 0 -72 5l-41 6q-7 0 -53 -22t-47 -44q0 -40 69 -40q31 0 104 15t125 15q365 0 365 -293q0 -163 -146 -255t-372 -92t-425 145l158 195q131 -120 292 -120q108 0 178 32t70 88q0 95 -155 95l-250 -20q-258 0 -258 185zM460 1517q62 -1 106 -45t45 -106q-1 -62 -45 -106
t-106 -45q-62 1 -108 45q-44 44 -44 106t44 106q46 44 108 45z" />
    <glyph glyph-name="Gcedilla" unicode="&#x122;" horiz-adv-x="1375" 
d="M816 1259q-216 -1 -341 -147t-125 -386t122 -380t334 -140q139 0 229 76v288h-203v222h463v-656q-93 -76 -239 -118t-292 -43q-19 0 -38 1q179 -37 179 -207q0 -97 -71 -151t-184 -54q-51 0 -98 11l-41 127q34 -9 70 -9q131 0 131 91q0 33 -20 64t-52 39l85 89
q-287 12 -466 212t-179 539t201 551t541 212q241 0 410 -144l-109 -209q-46 41 -142 81t-165 41z" />
    <glyph glyph-name="gcedilla" unicode="&#x123;" horiz-adv-x="1028" 
d="M305 690q1 -90 53 -148t141 -57q89 0 137 56q48 55 48 145t-52 146t-135 56q-84 0 -138 -54t-54 -144zM90 180q0 53 43 104t100 75q-183 119 -183 337q0 172 126 284t310 113q144 0 241 -54l98 114l173 -157l-119 -87q62 -94 62 -222q1 -183 -111 -293t-282 -109
q-27 0 -72 5l-41 6q-7 0 -53 -22t-47 -44q0 -40 69 -40q31 0 104 15t125 15q365 0 365 -293q0 -163 -146 -255t-372 -92t-425 145l158 195q131 -120 292 -120q108 0 178 32t70 88q0 95 -155 95l-250 -20q-258 0 -258 185zM538 1492q0 -20 42 -60t42 -93q0 -54 -39 -89
t-97 -35q-128 0 -128 179t187 324l82 -97q-69 -69 -79 -89t-10 -40z" />
    <glyph glyph-name="Hcircumflex" unicode="&#x124;" horiz-adv-x="1400" 
d="M993 0v660h-583v-660h-260v1465h260v-574h583v574h257v-1465h-257zM857 1585l-157 149l-139 -149h-267l355 315h107l368 -315h-267z" />
    <glyph glyph-name="hcircumflex" unicode="&#x125;" horiz-adv-x="1214" 
d="M828 0v660q0 99 -62 159t-162 60q-62 1 -125 -33t-90 -77v-769h-254v1470l254 60v-527q97 88 283 88q186 1 296 -111q111 -112 111 -320v-660h-251zM774 1585l-157 149l-139 -149h-267l355 315h107l368 -315h-267z" />
    <glyph glyph-name="Hbar" unicode="&#x126;" horiz-adv-x="1436" 
d="M1016 891v212h-592v-212h592zM1411 1103h-139v-1103h-256v659h-592v-659h-260v1103h-139v155h139v207h260v-207h592v207h256v-207h139v-155z" />
    <glyph glyph-name="hbar" unicode="&#x127;" horiz-adv-x="1227" 
d="M1090 0h-250v612q0 99 -63 159t-145 60t-145 -33q-62 -33 -90 -77v-721h-250v1184h-151v159h151v130l250 59v-189h391v-159h-391v-236q101 88 287 88t296 -112.5t110 -319.5v-604z" />
    <glyph glyph-name="Itilde" unicode="&#x128;" horiz-adv-x="570" 
d="M155 0v1465h260v-1465h-260zM146 1812q82 0 159 -38q78 -38 100 -39q61 0 87 77h148q-38 -149 -93 -203t-127 -54q-72 1 -152 39t-104 38q-52 0 -89 -77h-145q18 113 76 185t140 72z" />
    <glyph glyph-name="itilde" unicode="&#x129;" horiz-adv-x="611" 
d="M202 0v866h-137v205h390v-1071h-253zM168 1442q82 0 160 -38t100 -39q61 0 87 77h148q-38 -149 -93 -203q-56 -54 -128 -54q-72 1 -152 39t-103 38q-52 0 -89 -77h-145q19 113 77 185q56 72 138 72z" />
    <glyph glyph-name="Imacron" unicode="&#x12a;" horiz-adv-x="570" 
d="M155 0v1465h260v-1465h-260zM654 1766v-181h-738v181h738z" />
    <glyph glyph-name="imacron" unicode="&#x12b;" horiz-adv-x="611" 
d="M202 0v866h-137v205h390v-1071h-253zM681 1396v-181h-738v181h738z" />
    <glyph glyph-name="Ibreve" unicode="&#x12c;" horiz-adv-x="570" 
d="M155 0v1465h260v-1465h-260zM616 1910q0 -139 -96 -232t-245 -93t-235 89t-87 236h141q0 -64 52 -102t134 -39t138 37t55 104h143z" />
    <glyph glyph-name="ibreve" unicode="&#x12d;" horiz-adv-x="611" 
d="M202 0v866h-137v205h390v-1071h-253zM638 1540q0 -139 -96 -232t-245 -93t-235 89t-87 236h141q0 -64 52 -102t134 -39t138 37t55 104h143z" />
    <glyph glyph-name="Iogonek" unicode="&#x12e;" horiz-adv-x="570" 
d="M390 -394q-117 0 -194 54t-77 159q0 104 44 181h-8v1465h260v-1465h-12q-45 -14 -73.5 -57t-28.5 -90t39 -75q38 -28 88 -29q50 0 92 39l65 -124q-78 -58 -195 -58z" />
    <glyph glyph-name="iogonek" unicode="&#x12f;" horiz-adv-x="611" 
d="M437 -394q-117 0 -194 54t-77 159q0 104 44 181h-8v866h-137v205h389v-1071h-4q-45 -14 -73.5 -57t-28.5 -90t39 -75t89 -29q50 0 91 39l65 -124q-78 -58 -195 -58zM474 1342q0 -62 -42 -104t-102 -42t-102.5 44t-42.5 102t42.5 101.5t102.5 43.5t102 -41.5t42 -103.5z
" />
    <glyph glyph-name="Idotaccent" unicode="&#x130;" horiz-adv-x="570" 
d="M155 0v1465h260v-1465h-260zM288 1887q62 -1 106 -45t45 -106q-1 -62 -45 -106t-106 -45q-62 1 -108 45q-44 44 -44 106t44 106q46 44 108 45z" />
    <glyph glyph-name="dotlessi" unicode="&#x131;" horiz-adv-x="611" 
d="M202 0v866h-137v205h390v-1071h-253z" />
    <glyph glyph-name="IJ" unicode="&#x132;" horiz-adv-x="1621" 
d="M155 0v1465h260v-1465h-260zM993 211q129 0 181 83t52 252v919h260v-911q0 -292 -124 -433t-398 -141q-182 0 -294 95t-123 264h232q33 -128 214 -128z" />
    <glyph glyph-name="ij" unicode="&#x133;" horiz-adv-x="1274" 
d="M202 0v866h-137v205h390v-1071h-253zM331 1486q61 0 103 -42t42 -103t-42 -103t-103 -42t-103 42t-42 103t42 103t103 42zM511 -420v223q201 -1 271 47t70 171v844h-193v206h443v-1046q0 -229 -144 -337t-447 -108zM969 1486q61 0 103 -42t42 -103t-42 -103t-103 -42
t-103 42t-42 103t42 103t103 42z" />
    <glyph glyph-name="Jcircumflex" unicode="&#x134;" horiz-adv-x="1091" 
d="M463 211q129 0 181 83t52 252v919h260v-911q0 -292 -124 -433t-398 -141q-182 0 -294 95t-123 264h232q33 -128 214 -128zM853 1585l-157 149l-139 -149h-267l355 315h107l368 -315h-267z" />
    <glyph glyph-name="jcircumflex" unicode="&#x135;" horiz-adv-x="751" 
d="M-12 -420v223q200 -1 270 47t71 171v844h-193v206h443v-1046q-1 -229 -145 -337t-446 -108zM524 1215l-157 149l-139 -149h-267l355 315h107l368 -315h-267z" />
    <glyph glyph-name="Kcedilla" unicode="&#x136;" horiz-adv-x="1264" 
d="M410 0h-260v1465h260v-701l498 701h296l-459 -640l547 -825h-311l-408 624l-163 -223v-401zM480 -307q131 0 131 91q-1 33 -21 64t-51 39l85 89q180 -37 180 -207q0 -97 -71 -151t-184 -54q-51 0 -98 11l-41 127q34 -9 70 -9z" />
    <glyph glyph-name="kcedilla" unicode="&#x137;" horiz-adv-x="1122" 
d="M385 0h-250v1470l250 60v-870l357 411h301l-362 -406l436 -665h-297l-315 485l-120 -127v-358zM420 -307q131 0 131 91q-1 33 -21 64t-51 39l85 89q180 -37 180 -207q0 -97 -71 -151t-184 -54q-51 0 -98 11l-41 127q34 -9 70 -9z" />
    <glyph glyph-name="kgreenlandic" unicode="&#x138;" horiz-adv-x="1176" 
d="M393 0h-250v1071h250v-481l406 481h301l-398 -442l455 -629h-313l-301 453l-150 -164v-289z" />
    <glyph glyph-name="Lacute" unicode="&#x139;" horiz-adv-x="1132" 
d="M150 0v1465h260v-1234h662v-231h-922zM667 1878l-226 -293h-190l169 293h247z" />
    <glyph glyph-name="lacute" unicode="&#x13a;" horiz-adv-x="604" 
d="M428 326q0 -198 118 -236q-58 -110 -198 -110q-170 0 -170 236v1254l250 60v-1204zM597 1878l-226 -293h-190l169 293h247z" />
    <glyph glyph-name="Lcedilla" unicode="&#x13b;" horiz-adv-x="1132" 
d="M150 0v1465h260v-1234h662v-231h-922zM480 -307q131 0 131 91q-1 33 -21 64t-51 39l85 89q180 -37 180 -207q0 -97 -71 -151t-184 -54q-51 0 -98 11l-41 127q34 -9 70 -9z" />
    <glyph glyph-name="lcedilla" unicode="&#x13c;" horiz-adv-x="604" 
d="M428 326q0 -198 118 -236q-58 -110 -198 -110q-170 0 -170 236v1254l250 60v-1204zM204 -307q131 0 131 91q-1 33 -21 64t-51 39l85 89q180 -37 180 -207q0 -97 -71 -151t-184 -54q-51 0 -98 11l-41 127q34 -9 70 -9z" />
    <glyph glyph-name="Lcaron" unicode="&#x13d;" horiz-adv-x="1132" 
d="M150 0v1465h260v-1234h662v-231h-922zM775 1256q-1 26 -35 60t-34 76q0 118 117 118q123 0 123 -139q0 -196 -204 -323l-63 85q66 49 81 73t15 50z" />
    <glyph glyph-name="lcaron" unicode="&#x13e;" horiz-adv-x="773" 
d="M428 326q0 -198 118 -236q-58 -110 -198 -110q-170 0 -170 236v1254l250 60v-1204zM635 1256q-1 26 -35 60t-34 76q0 118 117 118q123 0 123 -139q0 -196 -204 -323l-63 85q66 49 81 73t15 50z" />
    <glyph glyph-name="Ldot" unicode="&#x13f;" horiz-adv-x="1132" 
d="M150 0v1465h260v-1234h662v-231h-922zM654 741q0 75 52 127t128 53q76 -1 128 -53t52 -127t-52 -128t-128 -53t-128 53t-52 128z" />
    <glyph glyph-name="ldot" unicode="&#x140;" horiz-adv-x="894" 
d="M428 326q0 -198 118 -236q-58 -110 -198 -110q-170 0 -170 236v1254l250 60v-1204zM564 741q0 75 52 127t128 53q76 -1 128 -53t52 -127t-52 -128t-128 -53t-128 53t-52 128z" />
    <glyph glyph-name="Lslash" unicode="&#x141;" horiz-adv-x="1132" 
d="M410 231h662v-231h-922v657l-129 -87v174l129 84v637h260v-469l135 88v-161l-135 -91v-601z" />
    <glyph glyph-name="lslash" unicode="&#x142;" horiz-adv-x="604" 
d="M428 326q0 -198 118 -236q-58 -110 -198 -110q-170 0 -170 236v437l-135 -90v174l135 88v645l250 60v-543l139 90v-165l-139 -93v-493z" />
    <glyph glyph-name="Nacute" unicode="&#x143;" horiz-adv-x="1367" 
d="M400 -1h-250v1466h125l692 -884v884h250v-1485h-106l-711 927v-908zM947 1878l-226 -293h-190l169 293h247z" />
    <glyph glyph-name="nacute" unicode="&#x144;" horiz-adv-x="1209" 
d="M824 0v619q0 137 -52 200t-172 63q-56 0 -118 -31t-97 -77v-774h-250v1071h180l46 -100q102 120 297 120q196 -1 306 -115t110 -319v-657h-250zM897 1508l-226 -293h-190l169 293h247z" />
    <glyph glyph-name="Ncedilla" unicode="&#x145;" horiz-adv-x="1367" 
d="M400 -1h-250v1466h125l692 -884v884h250v-1485h-106l-711 927v-908zM534 -307q131 0 131 91q-1 33 -21 64t-51 39l85 89q180 -37 180 -207q0 -97 -71 -151t-184 -54q-51 0 -98 11l-41 127q34 -9 70 -9z" />
    <glyph glyph-name="ncedilla" unicode="&#x146;" horiz-adv-x="1209" 
d="M824 0v619q0 137 -52 200t-172 63q-56 0 -118 -31t-97 -77v-774h-250v1071h180l46 -100q102 120 297 120q196 -1 306 -115t110 -319v-657h-250zM454 -307q131 0 131 91q-1 33 -21 64t-51 39l85 89q180 -37 180 -207q0 -97 -71 -151t-184 -54q-51 0 -98 11l-41 127
q34 -9 70 -9z" />
    <glyph glyph-name="Ncaron" unicode="&#x147;" horiz-adv-x="1367" 
d="M400 -1h-250v1466h125l692 -884v884h250v-1485h-106l-711 927v-908zM1101 1900l-368 -315h-107l-355 315h267l139 -149l157 149h267z" />
    <glyph glyph-name="ncaron" unicode="&#x148;" horiz-adv-x="1209" 
d="M824 0v619q0 137 -52 200t-172 63q-56 0 -118 -31t-97 -77v-774h-250v1071h180l46 -100q102 120 297 120q196 -1 306 -115t110 -319v-657h-250zM1021 1530l-368 -315h-107l-355 315h267l139 -149l157 149h267z" />
    <glyph glyph-name="napostrophe" unicode="&#x149;" horiz-adv-x="1399" 
d="M96 1256q0 26 -34 60t-35 76q0 118 117 118q123 0 123 -139q0 -196 -204 -323l-63 85q66 49 81 73t15 50zM1014 0v619q0 137 -52 200t-172 63q-56 0 -118 -31t-97 -77v-774h-250v1071h180l46 -100q102 120 297 120q196 -1 306 -115t110 -319v-657h-250z" />
    <glyph glyph-name="Eng" unicode="&#x14a;" horiz-adv-x="1397" 
d="M1253 403q0 -204 -97.5 -319t-276.5 -115q-65 0 -133 27t-103 63l100 183q54 -47 117 -47q133 0 133 180v532q0 186 -69.5 269.5t-227.5 83.5q-76 0 -158.5 -42.5t-127.5 -103.5v-1114h-260v1465h174l51 -126q147 152 377 152t365.5 -140.5t135.5 -389.5v-558z" />
    <glyph glyph-name="eng" unicode="&#x14b;" horiz-adv-x="1209" 
d="M1075 74q0 -493 -471 -498v217q219 0 219 260v565q0 139 -52 202t-171 63q-56 0 -119 -32t-96 -77v-774h-250v1071h180l45 -100q102 121 300 121t306 -118t109 -317v-583z" />
    <glyph glyph-name="Omacron" unicode="&#x14c;" horiz-adv-x="1440" 
d="M350 734q0 -246 87 -387t253 -141q196 0 298 138t102 401q0 515 -380 515q-174 0 -267 -140t-93 -386zM80 722q0 336 172 552t472 217q302 0 469 -196t167 -550t-174 -562t-483 -208q-307 0 -465 206q-158 205 -158 541zM1079 1766v-181h-738v181h738z" />
    <glyph glyph-name="omacron" unicode="&#x14d;" horiz-adv-x="1159" 
d="M325 538q0 -354 255 -354q118 0 186 92t68 262q0 349 -254 349q-117 0 -186 -92t-69 -257zM65 534q-1 249 141 403t380 154t373 -148q135 -149 135 -405t-138 -407t-378 -151q-242 0 -378 152t-135 402zM949 1396v-181h-738v181h738z" />
    <glyph glyph-name="Obreve" unicode="&#x14e;" horiz-adv-x="1440" 
d="M350 734q0 -246 87 -387t253 -141q196 0 298 138t102 401q0 515 -380 515q-174 0 -267 -140t-93 -386zM80 722q0 336 172 552t472 217q302 0 469 -196t167 -550t-174 -562t-483 -208q-307 0 -465 206q-158 205 -158 541zM1054 1910q0 -139 -96 -232t-245 -93t-235 89
t-87 236h141q0 -64 52 -102t134 -39t138 37t55 104h143z" />
    <glyph glyph-name="obreve" unicode="&#x14f;" horiz-adv-x="1159" 
d="M325 538q0 -354 255 -354q118 0 186 92t68 262q0 349 -254 349q-117 0 -186 -92t-69 -257zM65 534q-1 249 141 403t380 154t373 -148q135 -149 135 -405t-138 -407t-378 -151q-242 0 -378 152t-135 402zM924 1540q0 -139 -96 -232t-245 -93t-235 89t-87 236h141
q0 -64 52 -102t134 -39t138 37t55 104h143z" />
    <glyph glyph-name="Odblacute" unicode="&#x150;" horiz-adv-x="1440" 
d="M350 734q0 -246 87 -387t253 -141q196 0 298 138t102 401q0 515 -380 515q-174 0 -267 -140t-93 -386zM80 722q0 336 172 552t472 217q302 0 469 -196t167 -550t-174 -562t-483 -208q-307 0 -465 206q-158 205 -158 541zM1217 1878l-226 -293h-190l169 293h247zM797 1878
l-226 -293h-190l169 293h247z" />
    <glyph glyph-name="odblacute" unicode="&#x151;" horiz-adv-x="1159" 
d="M325 538q0 -354 255 -354q118 0 186 92t68 262q0 349 -254 349q-117 0 -186 -92t-69 -257zM65 534q-1 249 141 403t380 154t373 -148q135 -149 135 -405t-138 -407t-378 -151q-242 0 -378 152t-135 402zM1077 1508l-226 -293h-190l169 293h247zM657 1508l-226 -293h-190
l169 293h247z" />
    <glyph glyph-name="OE" unicode="&#x152;" horiz-adv-x="2055" 
d="M330 734q0 -246 87 -387t253 -141q195 0 297.5 138t102.5 401q0 515 -380 515q-174 0 -267 -140t-93 -386zM1320 1234v-343h484v-221h-484v-439h664v-231h-914v95q-159 -120 -400 -120q-295 0 -452.5 205.5t-157.5 541.5t171.5 552.5t458.5 216.5q230 0 380 -105v79h925
v-231h-675z" />
    <glyph glyph-name="oe" unicode="&#x153;" horiz-adv-x="1886" 
d="M1340 882q-214 0 -266 -235h526q-26 235 -260 235zM295 538q0 -354 255 -354q117 0 185.5 92t68.5 262q0 349 -254 349q-117 0 -186 -92t-69 -257zM1388 189q154 0 243 89l97 -191q-131 -107 -392 -107t-403 158q-139 -158 -383 -158t-379.5 152.5t-135.5 401.5
t141.5 403t388.5 154t383 -171q157 171 389 171t373 -139t141 -354q0 -46 -21 -139h-765q7 -128 88 -199t235 -71z" />
    <glyph glyph-name="Racute" unicode="&#x154;" horiz-adv-x="1251" 
d="M530 826q162 0 238 46t76 166t-81 164q-81 43 -255 43q-42 0 -88 -6v-407q72 -6 110 -6zM1114 1048q0 -130 -77 -237t-194 -151l433 -660h-300l-391 605q-59 1 -165 7v-612h-270v1465l406 15q558 0 558 -432zM837 1878l-226 -293h-190l169 293h247z" />
    <glyph glyph-name="racute" unicode="&#x155;" horiz-adv-x="875" 
d="M604 882q-84 0 -152 -79t-67 -193v-610h-250v1071h250v-98q105 118 279 118q128 0 196 -39l-106 -214q-66 44 -150 44zM767 1508l-226 -293h-190l169 293h247z" />
    <glyph glyph-name="Rcedilla" unicode="&#x156;" horiz-adv-x="1251" 
d="M530 826q162 0 238 46t76 166t-81 164q-81 43 -255 43q-42 0 -88 -6v-407q72 -6 110 -6zM1114 1048q0 -130 -77 -237t-194 -151l433 -660h-300l-391 605q-59 1 -165 7v-612h-270v1465l406 15q558 0 558 -432zM480 -307q131 0 131 91q-1 33 -21 64t-51 39l85 89
q180 -37 180 -207q0 -97 -71 -151t-184 -54q-51 0 -98 11l-41 127q34 -9 70 -9z" />
    <glyph glyph-name="rcedilla" unicode="&#x157;" horiz-adv-x="875" 
d="M604 882q-84 0 -152 -79t-67 -193v-610h-250v1071h250v-98q105 118 279 118q128 0 196 -39l-106 -214q-66 44 -150 44zM144 -307q131 0 131 91q-1 33 -21 64t-51 39l85 89q180 -37 180 -207q0 -97 -71 -151t-184 -54q-51 0 -98 11l-41 127q34 -9 70 -9z" />
    <glyph glyph-name="Rcaron" unicode="&#x158;" horiz-adv-x="1251" 
d="M530 826q162 0 238 46t76 166t-81 164q-81 43 -255 43q-42 0 -88 -6v-407q72 -6 110 -6zM1114 1048q0 -130 -77 -237t-194 -151l433 -660h-300l-391 605q-59 1 -165 7v-612h-270v1465l406 15q558 0 558 -432zM1001 1900l-368 -315h-107l-355 315h267l139 -149l157 149
h267z" />
    <glyph glyph-name="rcaron" unicode="&#x159;" horiz-adv-x="875" 
d="M604 882q-84 0 -152 -79t-67 -193v-610h-250v1071h250v-98q105 118 279 118q128 0 196 -39l-106 -214q-66 44 -150 44zM941 1530l-368 -315h-107l-355 315h267l139 -149l157 149h267z" />
    <glyph glyph-name="Sacute" unicode="&#x15a;" horiz-adv-x="1047" 
d="M479 206q229 0 229 160q0 75 -54 143q-54 69 -222 153t-228 138q-122 113 -121 290q1 176 125 288t319 112q254 0 373 -95l-79 -224q-137 98 -289 98q-90 1 -140 -47t-49 -124q0 -126 279 -262q147 -72 212 -132q133 -124 133 -312q-1 -187 -141 -302t-360 -115t-386 106
l96 233q154 -108 303 -108zM787 1878l-226 -293h-190l169 293h247z" />
    <glyph glyph-name="sacute" unicode="&#x15b;" horiz-adv-x="882" 
d="M414 179q144 0 143 104q0 61 -44 100t-171 92q-277 115 -277 322q0 139 106 217t272 77q166 0 313 -75l-72 -194q-82 70 -220 70t-139 -104q0 -41 43 -74q43 -32 184 -88t203 -135t62 -191q-1 -148 -111 -234t-300 -86q-108 0 -172 18t-165 71l89 199q112 -89 256 -89z
M677 1508l-226 -293h-190l169 293h247z" />
    <glyph glyph-name="Scircumflex" unicode="&#x15c;" horiz-adv-x="1047" 
d="M479 206q229 0 229 160q0 75 -54 143q-54 69 -222 153t-228 138q-122 113 -121 290q1 176 125 288t319 112q254 0 373 -95l-79 -224q-137 98 -289 98q-90 1 -140 -47t-49 -124q0 -126 279 -262q147 -72 212 -132q133 -124 133 -312q-1 -187 -141 -302t-360 -115t-386 106
l96 233q154 -108 303 -108zM684 1585l-157 149l-139 -149h-267l355 315h107l368 -315h-267z" />
    <glyph glyph-name="scircumflex" unicode="&#x15d;" horiz-adv-x="882" 
d="M414 179q144 0 143 104q0 61 -44 100t-171 92q-277 115 -277 322q0 139 106 217t272 77q166 0 313 -75l-72 -194q-82 70 -220 70t-139 -104q0 -41 43 -74q43 -32 184 -88t203 -135t62 -191q-1 -148 -111 -234t-300 -86q-108 0 -172 18t-165 71l89 199q112 -89 256 -89z
M584 1215l-157 149l-139 -149h-267l355 315h107l368 -315h-267z" />
    <glyph glyph-name="Scedilla" unicode="&#x15e;" horiz-adv-x="1047" 
d="M479 206q229 0 229 160q0 75 -54 143q-54 69 -222 153t-228 138q-122 113 -121 290q1 176 125 288t319 112q254 0 373 -95l-79 -224q-137 98 -289 98q-90 1 -140 -47t-49 -124q0 -126 279 -262q147 -72 212 -132q133 -124 133 -312q0 -187 -135 -297t-343 -119
q179 -37 179 -207q0 -97 -71 -151t-184 -54q-51 0 -98 11l-41 127q34 -9 70 -9q131 0 131 91q-1 33 -21 64t-51 39l85 89q-19 -1 -38 -1q-205 0 -370 106l96 233q154 -108 303 -108z" />
    <glyph glyph-name="scedilla" unicode="&#x15f;" horiz-adv-x="882" 
d="M414 179q144 0 143 104q0 61 -44 100t-171 92q-277 115 -277 322q0 139 106 217t272 77q166 0 313 -75l-72 -194q-82 70 -220 70t-139 -104q0 -41 43 -74q43 -32 184 -88t203 -135t62 -191q-1 -148 -111 -234t-300 -86q-108 0 -172 18t-165 71l89 199q112 -89 256 -89z
M364 -307q131 0 131 91q-1 33 -21 64t-51 39l85 89q180 -37 180 -207q0 -97 -71 -151t-184 -54q-51 0 -98 11l-41 127q34 -9 70 -9z" />
    <glyph glyph-name="Scaron" unicode="&#x160;" horiz-adv-x="1047" 
d="M479 206q229 0 229 160q0 75 -54 143q-54 69 -222 153t-228 138q-122 113 -121 290q1 176 125 288t319 112q254 0 373 -95l-79 -224q-137 98 -289 98q-90 1 -140 -47t-49 -124q0 -126 279 -262q147 -72 212 -132q133 -124 133 -312q-1 -187 -141 -302t-360 -115t-386 106
l96 233q154 -108 303 -108zM931 1900l-368 -315h-107l-355 315h267l139 -149l157 149h267z" />
    <glyph glyph-name="scaron" unicode="&#x161;" horiz-adv-x="882" 
d="M458 179q144 0 143 104q0 61 -44 100t-171 92q-277 115 -277 322q0 139 106 217t272 77q166 0 313 -75l-72 -194q-82 70 -220 70t-139 -104q0 -41 43 -74q43 -32 184 -88t203 -135t62 -191q-1 -148 -111 -234t-300 -86q-108 0 -172 18t-165 71l89 199q112 -89 256 -89z
M895 1530l-368 -315h-107l-355 315h267l139 -149l157 149h267z" />
    <glyph glyph-name="Tcedilla" unicode="&#x162;" horiz-adv-x="1253" 
d="M746 1234v-1234h-260v1234h-466v231h1213v-231h-487zM488 -307q131 0 131 91q-1 33 -21 64t-51 39l85 89q180 -37 180 -207q0 -97 -71 -151t-184 -54q-51 0 -98 11l-41 127q34 -9 70 -9z" />
    <glyph glyph-name="tcedilla" unicode="&#x163;" horiz-adv-x="812" 
d="M173 870h-124v201h124v218l250 92v-310h294v-201h-294v-469q0 -115 36 -163t126 -47q90 0 168 49v-230q-87 -30 -247 -30t-247 90q-86 90 -86 258v542zM270 -307q131 0 131 91q-1 33 -21 64t-51 39l85 89q180 -37 180 -207q0 -97 -71 -151t-184 -54q-51 0 -98 11l-41 127
q34 -9 70 -9z" />
    <glyph glyph-name="Tcaron" unicode="&#x164;" horiz-adv-x="1253" 
d="M746 1234v-1234h-260v1234h-466v231h1213v-231h-487zM1041 1900l-368 -315h-107l-355 315h267l139 -149l157 149h267z" />
    <glyph glyph-name="tcaron" unicode="&#x165;" horiz-adv-x="1117" 
d="M173 870h-124v201h124v218l250 92v-310h294v-201h-294v-469q0 -115 36 -163t126 -47q90 0 168 49v-230q-87 -30 -247 -30t-247 90q-86 90 -86 258v542zM918 1125q0 27 -34 61t-35 75q0 118 117 118q123 0 123 -139q0 -196 -204 -323l-63 85q66 50 81 74t15 49z" />
    <glyph glyph-name="Tbar" unicode="&#x166;" horiz-adv-x="1253" 
d="M1233 1236h-488v-456h318v-164h-318v-616h-260v616h-317v164h317v456h-465v229h1213v-229z" />
    <glyph glyph-name="tbar" unicode="&#x167;" horiz-adv-x="812" 
d="M506 -20q-334 0 -334 348v170h-123v155h123v217h-123v201h123v217l252 92v-309h293v-201h-293v-217h242v-155h-242v-97q0 -119 36 -165t124 -46t170 50v-230q-87 -30 -248 -30z" />
    <glyph glyph-name="Utilde" unicode="&#x168;" horiz-adv-x="1388" 
d="M150 1465h260v-993q0 -118 72 -192t206 -74t212 72t78 199v988h260v-1008q0 -226 -152 -354t-405 -128q-255 0 -393 125t-138 358v1007zM554 1812q82 0 160 -38t100 -39q61 0 87 77h148q-38 -149 -93 -203q-56 -54 -128 -54q-72 1 -152 39t-103 38q-52 0 -89 -77h-145
q19 113 77 185q56 72 138 72z" />
    <glyph glyph-name="utilde" unicode="&#x169;" horiz-adv-x="1210" 
d="M825 -1v90q-53 -45 -146 -77t-171 -32q-373 0 -373 396v695h250v-676q0 -206 185 -206q85 0 158 44t97 102v736h250v-1072h-250zM466 1442q82 0 160 -38t100 -39q61 0 87 77h148q-38 -149 -93 -203q-56 -54 -128 -54q-72 1 -152 39t-103 38q-52 0 -89 -77h-145
q19 113 77 185q56 72 138 72z" />
    <glyph glyph-name="Umacron" unicode="&#x16a;" horiz-adv-x="1388" 
d="M150 1465h260v-993q0 -118 72 -192t206 -74t212 72t78 199v988h260v-1008q0 -226 -152 -354t-405 -128q-255 0 -393 125t-138 358v1007zM1063 1766v-181h-738v181h738z" />
    <glyph glyph-name="umacron" unicode="&#x16b;" horiz-adv-x="1210" 
d="M825 -1v90q-53 -45 -146 -77t-171 -32q-373 0 -373 396v695h250v-676q0 -206 185 -206q85 0 158 44t97 102v736h250v-1072h-250zM974 1396v-181h-738v181h738z" />
    <glyph glyph-name="Ubreve" unicode="&#x16c;" horiz-adv-x="1388" 
d="M150 1465h260v-993q0 -118 72 -192t206 -74t212 72t78 199v988h260v-1008q0 -226 -152 -354t-405 -128q-255 0 -393 125t-138 358v1007zM1025 1910q0 -139 -96 -232t-245 -93q-150 0 -236 89t-86 236h141q1 -64 53 -102t134 -39t136 37q56 38 56 104h143z" />
    <glyph glyph-name="ubreve" unicode="&#x16d;" horiz-adv-x="1210" 
d="M825 -1v90q-53 -45 -146 -77t-171 -32q-373 0 -373 396v695h250v-676q0 -206 185 -206q85 0 158 44t97 102v736h250v-1072h-250zM936 1540q0 -139 -96 -232t-245 -93t-235 89t-87 236h141q0 -64 52 -102t134 -39t138 37t55 104h143z" />
    <glyph glyph-name="Uring" unicode="&#x16e;" horiz-adv-x="1388" 
d="M150 1465h260v-993q0 -118 72 -192t206 -74t212 72t78 199v988h260v-1008q0 -226 -152 -354t-405 -128q-255 0 -393 125t-138 358v1007zM694 1892q-44 0 -75 -26t-31 -70q0 -96 106 -96t106 96t-106 96zM694 1586q-104 0 -178 58t-73 151q0 93 76 153q75 60 177 60
t176 -59t75 -152q-1 -93 -75 -152t-178 -59z" />
    <glyph glyph-name="uring" unicode="&#x16f;" horiz-adv-x="1210" 
d="M825 -1v90q-53 -45 -146 -77t-171 -32q-373 0 -373 396v695h250v-676q0 -206 185 -206q85 0 158 44t97 102v736h250v-1072h-250zM604 1522q-44 0 -75 -26t-31 -70q0 -96 106 -96t106 96t-106 96zM604 1216q-104 0 -178 58t-73 151q0 93 76 153q75 60 177 60t176 -59
t75 -152q-1 -93 -75 -152t-178 -59z" />
    <glyph glyph-name="Udblacute" unicode="&#x170;" horiz-adv-x="1388" 
d="M150 1465h260v-993q0 -118 72 -192t206 -74t212 72t78 199v988h260v-1008q0 -226 -152 -354t-405 -128q-255 0 -393 125t-138 358v1007zM1187 1878l-226 -293h-190l169 293h247zM767 1878l-226 -293h-190l169 293h247z" />
    <glyph glyph-name="udblacute" unicode="&#x171;" horiz-adv-x="1210" 
d="M825 -1v90q-53 -45 -146 -77t-171 -32q-373 0 -373 396v695h250v-676q0 -206 185 -206q85 0 158 44t97 102v736h250v-1072h-250zM1087 1508l-226 -293h-190l169 293h247zM667 1508l-226 -293h-190l169 293h247z" />
    <glyph glyph-name="Uogonek" unicode="&#x172;" horiz-adv-x="1388" 
d="M1237 457q0 -229 -150 -355q-113 -95 -283 -119q-68 -47 -68 -131q0 -46 39 -74t89 -29q50 0 91 39l65 -124q-78 -58 -195 -58t-194 54t-77 152t34 168q-210 21 -324 144.5t-114 334.5v1005h260v-993q0 -122 74 -193t206 -71t210.5 73.5t78.5 196.5v987h258v-1007z" />
    <glyph glyph-name="uogonek" unicode="&#x173;" horiz-adv-x="1210" 
d="M1047 -394q-117 0 -194 54t-77 162q0 107 49 178v89q-54 -46 -146 -77.5t-171 -31.5q-373 0 -373 397v694h250v-676q0 -207 184 -207q76 0 152 41t104 107v735h250v-1071h-15q-45 -14 -73.5 -57t-28.5 -90t38 -75t89 -29q50 0 92 39l65 -124q-78 -58 -195 -58z" />
    <glyph glyph-name="Wcircumflex" unicode="&#x174;" horiz-adv-x="1810" 
d="M1331 -20h-107l-320 924l-311 -924h-107l-481 1485h271l275 -884l297 884h114l298 -884l274 884h271zM1062 1585l-157 149l-139 -149h-267l355 315h107l368 -315h-267z" />
    <glyph glyph-name="wcircumflex" unicode="&#x175;" horiz-adv-x="1605" 
d="M1187 -20h-91l-294 658l-293 -658h-92l-404 1091h263l215 -639l262 639h90l271 -643l232 643h246zM955 1215l-157 149l-139 -149h-267l355 315h107l368 -315h-267z" />
    <glyph glyph-name="Ycircumflex" unicode="&#x176;" horiz-adv-x="1256" 
d="M759 0h-260v601l-494 864h276l347 -625l348 625h275l-492 -864v-601zM776 1585l-157 149l-139 -149h-267l355 315h107l368 -315h-267z" />
    <glyph glyph-name="ycircumflex" unicode="&#x177;" horiz-adv-x="1093" 
d="M131 -420v221q289 0 289 145q0 96 -80 294l-335 831h259l292 -740l263 740h259l-469 -1243q-39 -108 -171 -178t-307 -70zM689 1215l-157 149l-139 -149h-267l355 315h107l368 -315h-267z" />
    <glyph glyph-name="Ydieresis" unicode="&#x178;" horiz-adv-x="1256" 
d="M759 0h-260v601l-494 864h276l347 -625l348 625h275l-492 -864v-601zM948 1870q58 0 100 -42t42 -101t-42 -101t-100 -41q-59 -1 -101 41t-42 101t42 101t101 42zM328 1870q58 0 100 -42t42 -101t-42 -101t-100 -41q-59 -1 -101 41t-42 101t42 101t101 42z" />
    <glyph glyph-name="Zacute" unicode="&#x179;" horiz-adv-x="1147" 
d="M80 0v84l611 1150h-601v231h955v-84l-613 -1150h635v-231h-987zM817 1878l-226 -293h-190l169 293h247z" />
    <glyph glyph-name="zacute" unicode="&#x17a;" horiz-adv-x="1082" 
d="M65 0v85l581 768h-571v218h936v-88l-560 -765h566v-218h-952zM797 1508l-226 -293h-190l169 293h247z" />
    <glyph glyph-name="Zdot" unicode="&#x17b;" horiz-adv-x="1147" 
d="M80 0v84l611 1150h-601v231h955v-84l-613 -1150h635v-231h-987zM570 1887q62 -1 106 -45t45 -106q-1 -62 -45 -106t-106 -45q-62 1 -108 45q-44 44 -44 106t44 106q46 44 108 45z" />
    <glyph glyph-name="zdot" unicode="&#x17c;" horiz-adv-x="1082" 
d="M65 0v85l581 768h-571v218h936v-88l-560 -765h566v-218h-952zM520 1517q62 -1 106 -45t45 -106q-1 -62 -45 -106t-106 -45q-62 1 -108 45q-44 44 -44 106t44 106q46 44 108 45z" />
    <glyph glyph-name="Zcaron" unicode="&#x17d;" horiz-adv-x="1147" 
d="M80 0v84l611 1150h-601v231h955v-84l-613 -1150h635v-231h-987zM991 1900l-368 -315h-107l-355 315h267l139 -149l157 149h267z" />
    <glyph glyph-name="zcaron" unicode="&#x17e;" horiz-adv-x="1082" 
d="M65 0v85l581 768h-571v218h936v-88l-560 -765h566v-218h-952zM961 1530l-368 -315h-107l-355 315h267l139 -149l157 149h267z" />
    <glyph glyph-name="longs" unicode="&#x17f;" horiz-adv-x="739" 
d="M567 1310q-164 0 -164 -215v-1095h-249v1068q0 202 103 322t294 120q106 0 217 -39l-68 -190q-73 29 -133 29z" />
    <glyph glyph-name="florin" unicode="&#x192;" horiz-adv-x="795" 
d="M696 1510q58 0 178 -39l-51 -201q-103 36 -139 36q-160 0 -202 -222q91 -3 250 13l-20 -171q-174 -24 -266 -30l-161 -955q-22 -130 -106 -212.5t-178 -110t-122 -27.5q-22 0 -37 40l-21 56q-27 78 -27 108q84 16 158.5 61t82.5 95l160 933q-69 -2 -153 -20l43 220l148 1
q97 425 463 425z" />
    <glyph glyph-name="Aringacute" unicode="&#x1fa;" horiz-adv-x="1297" 
d="M822 496l-176 488l-176 -488h352zM753 1475q0 86 -106 86q-40 0 -73 -23t-33 -63q0 -86 106 -86t106 86zM396 1474q0 133 145 185l125 219h247l-175 -213q162 -44 162 -184t-158 -191l550 -1290h-287l-107 297h-502l-102 -297h-289l545 1290q-154 51 -154 184z" />
    <glyph glyph-name="aringacute" unicode="&#x1fb;" horiz-adv-x="1091" 
d="M611 517q-296 0 -296 -194q0 -144 167 -144q225 0 225 225v100q-64 13 -96 13zM436 -20q-173 0 -272 86t-99 260q-1 172 139 277t397 105q44 0 104 -15q0 189 -239 189q-141 0 -236 -47l-54 194q129 62 307 62q245 1 359 -111t114 -423v-229q0 -214 86 -269
q-31 -55 -69 -67q-37 -12 -89 -12t-95 40t-58 87q-35 -55 -119 -91t-176 -36zM504 1472q-44 0 -75 -26t-31 -70q0 -96 106 -96t106 96t-106 96zM504 1166q-104 0 -178 58t-73 151q0 93 76 153q75 60 177 60t176 -59t75 -152q-1 -93 -75 -152t-178 -59zM787 1931l-226 -293
h-190l169 293h247z" />
    <glyph glyph-name="AEacute" unicode="&#x1fc;" horiz-adv-x="1915" 
d="M920 496v581l-352 -581h352zM1180 1234v-343h484v-221h-484v-439h664v-231h-924v297h-446l-183 -297h-289l888 1465h965v-231h-675zM1497 1878l-226 -293h-190l169 293h247z" />
    <glyph glyph-name="aeacute" unicode="&#x1fd;" horiz-adv-x="1767" 
d="M1221 882q-108 0 -180 -64t-96 -171h536q-25 235 -260 235zM1270 189q152 0 242 89l97 -191q-131 -107 -394 -107q-190 0 -268 66l3 -46h-198q-13 34 -36 105q-38 -61 -124 -93t-171 -32q-167 0 -269 84t-102 248q0 209 171 312q140 84 365 84q51 0 104 -15
q0 190 -239 190q-139 0 -236 -48l-54 194q129 62 307 62q284 0 389 -147q149 147 367 147t363 -135t145 -358q0 -50 -21 -139h-775q6 -130 94 -200t240 -70zM596 517q-296 0 -296 -194q0 -144 167 -144q225 0 225 225v100q-50 13 -96 13zM1147 1508l-226 -293h-190l169 293
h247z" />
    <glyph glyph-name="Oslashacute" unicode="&#x1fe;" horiz-adv-x="1400" 
d="M670 206q196 0 298 138t102 401q0 191 -50 310l-560 -763q82 -86 210 -86zM682 1260q-166 0 -259 -140t-93 -356q0 -217 53 -349l557 758q-92 87 -258 87zM1340 738q0 -348 -174 -555q-174 -208 -496 -208q-216 0 -360 113l-83 -113h-167l154 210q-154 205 -154 539
t172 550t458 217q242 0 398 -116l85 116h167l-155 -211q155 -194 155 -542zM977 1878l-226 -293h-190l169 293h247z" />
    <glyph glyph-name="oslashacute" unicode="&#x1ff;" horiz-adv-x="1159" 
d="M580 184q118 0 186 92t68 262q0 106 -23 180l-376 -494q57 -40 145 -40zM580 887q-117 0 -186 -92t-69 -257q0 -110 23 -185l376 494q-57 40 -144 40zM1094 532q0 -250 -138 -401t-376 -151q-161 0 -277 69l-53 -69h-185l125 165q-125 150 -125 394q-1 244 141 398
t374 154q162 0 278 -67l51 67h185l-123 -162q123 -147 123 -397zM817 1508l-226 -293h-190l169 293h247z" />
    <glyph glyph-name="Scommaaccent" unicode="&#x218;" horiz-adv-x="1047" 
d="M479 206q229 0 229 160q0 75 -54 143q-54 69 -222 153t-228 138q-122 113 -121 290q1 176 125 288t319 112q254 0 373 -95l-79 -224q-137 98 -289 98q-90 1 -140 -47t-49 -124q0 -126 279 -262q147 -72 212 -132q133 -124 133 -312q-1 -187 -141 -302t-360 -115t-386 106
l96 233q154 -108 303 -108zM449 -344q-1 26 -35 60t-34 76q0 118 117 118q123 0 123 -139q0 -196 -204 -323l-63 85q66 49 81 73t15 50z" />
    <glyph glyph-name="scommaaccent" unicode="&#x219;" horiz-adv-x="882" 
d="M414 179q144 0 143 104q0 61 -44 100t-171 92q-277 115 -277 322q0 139 106 217t272 77q166 0 313 -75l-72 -194q-82 70 -220 70t-139 -104q0 -41 43 -74q43 -32 184 -88t203 -135t62 -191q-1 -148 -111 -234t-300 -86q-108 0 -172 18t-165 71l89 199q112 -89 256 -89z
M389 -344q-1 26 -35 60t-34 76q0 118 117 118q123 0 123 -139q0 -196 -204 -323l-63 85q66 49 81 73t15 50z" />
    <glyph glyph-name="Tcommaaccent" unicode="&#x21a;" horiz-adv-x="1253" 
d="M746 1234v-1234h-260v1234h-466v231h1213v-231h-487zM565 -344q-1 26 -35 60t-34 76q0 118 117 118q123 0 123 -139q0 -196 -204 -323l-63 85q66 49 81 73t15 50z" />
    <glyph glyph-name="tcommaaccent" unicode="&#x21b;" horiz-adv-x="812" 
d="M173 870h-124v201h124v218l250 92v-310h294v-201h-294v-469q0 -115 36 -163t126 -47q90 0 168 49v-230q-87 -30 -247 -30t-247 90q-86 90 -86 258v542zM425 -344q-1 26 -35 60t-34 76q0 118 117 118q123 0 123 -139q0 -196 -204 -323l-63 85q66 49 81 73t15 50z" />
    <glyph glyph-name="circumflex" unicode="&#x2c6;" 
d="M724 1215l-157 149l-139 -149h-267l355 315h107l368 -315h-267z" />
    <glyph glyph-name="caron" unicode="&#x2c7;" 
d="M991 1530l-368 -315h-107l-355 315h267l139 -149l157 149h267z" />
    <glyph glyph-name="macron" unicode="&#x2c9;" 
d="M971 1396v-181h-738v181h738z" />
    <glyph glyph-name="breve" unicode="&#x2d8;" 
d="M928 1540q0 -139 -96 -232t-245 -93t-235.5 89t-86.5 236h141q0 -64 52 -102.5t134 -38.5t137.5 37.5t55.5 103.5h143z" />
    <glyph glyph-name="dotaccent" unicode="&#x2d9;" 
d="M580 1517q62 0 106.5 -44.5t44.5 -106.5t-44.5 -106.5t-106.5 -44.5t-107 44.5t-45 106.5t45 106.5t107 44.5z" />
    <glyph glyph-name="ring" unicode="&#x2da;" 
d="M604 1522q-44 0 -75 -25.5t-31 -70.5q0 -96 106 -96t106 96t-106 96zM604 1216q-104 0 -177.5 58t-73.5 151t75.5 153t177.5 60t176.5 -59t74.5 -152t-74.5 -152t-178.5 -59z" />
    <glyph glyph-name="ogonek" unicode="&#x2db;" 
d="M632 -144q0 -48 38 -77.5t88 -29.5t93 39l65 -124q-78 -58 -201 -58t-194 59.5t-71 154.5q0 225 210 323l74 -143q-41 -13 -71.5 -54.5t-30.5 -89.5z" />
    <glyph glyph-name="tilde" unicode="&#x2dc;" 
d="M456 1442q82 0 160 -38.5t100 -38.5q61 0 87 77h148q-38 -149 -93.5 -203t-127.5 -54t-151.5 38.5t-103.5 38.5q-52 0 -89 -77h-145q19 114 76 185.5t139 71.5z" />
    <glyph glyph-name="hungarumlaut" unicode="&#x2dd;" 
d="M1037 1508l-226 -293h-190l169 293h247zM617 1508l-226 -293h-190l169 293h247z" />
    <glyph glyph-name="questiongreek" unicode="&#x37e;" horiz-adv-x="752" 
d="M315 -49q0 26 -20 57q-96 48 -96 120t51.5 110t121.5 38t121.5 -51t51.5 -123q0 -121 -56 -226t-272 -251l-86 111q184 135 184 215zM174 941q0 74 52 126.5t128 52.5t128.5 -53t52.5 -127t-53.5 -127t-127.5 -53t-127 53.5t-53 127.5z" />
    <glyph glyph-name="tonos" unicode="&#x384;" 
d="M784 1610l-176 -330h-192l108 330h260z" />
    <glyph glyph-name="dieresistonos" unicode="&#x385;" 
d="M414 1366h2q0 -59 -41.5 -101t-100.5 -42t-102 41.5t-43 101.5t41.5 100.5t101.5 40.5t101 -40.5t41 -100.5zM926 1507q60 0 102.5 -41.5t42.5 -99.5t-42.5 -100.5t-100.5 -42.5t-101 41.5t-43 101.5t41 100.5t101 40.5zM690 1550l-31 -336h-122l-35 336h188z" />
    <glyph glyph-name="Alphatonos" unicode="&#x386;" horiz-adv-x="1317" 
d="M385 1464l-160 -366h-188l100 366h248zM666 1036l-177 -540h353zM1026 0l-108 297h-502l-101 -297h-290l585 1485h113l590 -1485h-287z" />
    <glyph glyph-name="anoteleia" unicode="&#x387;" horiz-adv-x="752" 
d="M174 742q0 74 53 127t127 53t127.5 -53.5t53.5 -127.5t-53 -128t-128 -54t-127.5 54.5t-52.5 128.5z" />
    <glyph glyph-name="Epsilontonos" unicode="&#x388;" horiz-adv-x="1411" 
d="M244 1464l-160 -366h-188l100 366h248zM655 1235v-344h486v-221h-486v-439h664v-231h-924v1464h936v-229h-676z" />
    <glyph glyph-name="Etatonos" unicode="&#x389;" horiz-adv-x="1647" 
d="M244 1464l-160 -366h-188l100 366h248zM1239 0v659h-584v-659h-260v1464h260v-573h584v573h256v-1464h-256z" />
    <glyph glyph-name="Iotatonos" unicode="&#x38a;" horiz-adv-x="809" 
d="M244 1464l-160 -366h-188l100 366h248zM395 0v1464h260v-1464h-260z" />
    <glyph glyph-name="Omicrontonos" unicode="&#x38c;" horiz-adv-x="1579" 
d="M244 1464l-160 -366h-188l100 366h248zM489 730q0 -252 88.5 -387.5t251.5 -135.5q195 0 297.5 136t102.5 402q0 515 -379 515q-175 0 -268 -139t-93 -391zM219 745q0 223 132 484.5t499 261.5q313 0 481 -194.5t168 -552.5t-175 -563.5t-484 -205.5t-465 207.5
t-156 562.5z" />
    <glyph glyph-name="Upsilontonos" unicode="&#x38e;" horiz-adv-x="1587" 
d="M244 1464l-160 -366h-188l100 366h248zM1092 0h-261v600l-495 864h276l349 -624l348 624h274l-491 -864v-600z" />
    <glyph glyph-name="Omegatonos" unicode="&#x38f;" horiz-adv-x="1626" 
d="M244 1464l-160 -366h-188l100 366h248zM969 0v80q138 174 214.5 345.5t76.5 383.5t-98 336.5t-276 124.5t-276 -128t-98 -326t75.5 -372.5t219.5 -363.5v-80h-594v223q125 0 256 -22q-227 287 -227 593t178 506.5t478 200.5t466 -188.5t166 -511.5q0 -144 -59.5 -303
t-170.5 -297q121 20 259 20v-221h-590z" />
    <glyph glyph-name="iotadieresistonos" unicode="&#x390;" horiz-adv-x="594" 
d="M-46 1507q60 0 101 -40.5t41 -100.5t-41.5 -101.5t-100.5 -41.5t-100.5 41.5t-41.5 101.5t41 100.5t101 40.5zM602 1507q60 0 101.5 -41.5t41.5 -99.5t-42.5 -100.5t-100.5 -42.5t-99.5 41.5t-41.5 101.5t40.5 100.5t100.5 40.5zM373 1550l-33 -336h-123l-33 336h189z
M336 -18q-182 0 -182 241v848h252v-733q0 -106 32 -162.5t109 -79.5q-63 -114 -211 -114z" />
    <glyph glyph-name="Alpha" unicode="&#x391;" horiz-adv-x="1296" 
d="M645 1036l-176 -540h352zM1006 0l-109 297h-502l-100 -297h-291l586 1485h112l590 -1485h-286z" />
    <glyph glyph-name="Beta" unicode="&#x392;" horiz-adv-x="1219" 
d="M539 211q163 0 246 55.5t83 189.5t-71.5 191.5t-255.5 57.5q-70 0 -131 -3v-485q79 -6 129 -6zM537 901q254 0 254 191q0 170 -232 170q-60 0 -149 -7v-350q78 -4 127 -4zM598 0h-448v1464q345 15 415 15q227 0 356.5 -97.5t129.5 -275.5t-185 -279q273 -94 273 -393
q0 -200 -151 -317t-390 -117z" />
    <glyph glyph-name="Gamma" unicode="&#x393;" horiz-adv-x="1116" 
d="M1061 1235h-651v-1235h-260v1464h911v-229z" />
    <glyph glyph-name="glyph168" unicode="&#x394;" horiz-adv-x="1198" 
d="M616 1076l-330 -855h640zM-5 0v153l536 1312h185l489 -1312v-153h-1210z" />
    <glyph glyph-name="Epsilon" unicode="&#x395;" horiz-adv-x="1165" 
d="M410 1235v-344h485v-221h-485v-439h663v-231h-923v1464h935v-229h-675z" />
    <glyph glyph-name="Zeta" unicode="&#x396;" horiz-adv-x="1147" 
d="M80 0v84l610 1151h-600v229h954v-84l-612 -1149h635v-231h-987z" />
    <glyph glyph-name="Eta" unicode="&#x397;" horiz-adv-x="1401" 
d="M993 0v659h-583v-659h-260v1464h260v-573h583v573h256v-1464h-256z" />
    <glyph glyph-name="Theta" unicode="&#x398;" horiz-adv-x="1470" 
d="M1012 637h-553v223h553v-223zM342 724q0 -244 100 -383.5t294 -139.5t293 146t99 398q0 521 -389 521q-196 0 -296.5 -149t-100.5 -393zM80 726q0 324 175 544.5t487 220.5t480.5 -199.5t168.5 -539.5t-173.5 -558.5t-493.5 -218.5t-482 213.5t-162 537.5z" />
    <glyph glyph-name="Iota" unicode="&#x399;" horiz-adv-x="569" 
d="M156 0v1464h260v-1464h-260z" />
    <glyph glyph-name="Kappa" unicode="&#x39a;" horiz-adv-x="1264" 
d="M410 0h-260v1464h260v-700l497 700h297l-459 -639l547 -825h-311l-408 625l-163 -224v-401z" />
    <glyph glyph-name="Lambda" unicode="&#x39b;" horiz-adv-x="1288" 
d="M1280 0h-299l-342 989l-338 -989h-293l574 1485h120z" />
    <glyph glyph-name="Mu" unicode="&#x39c;" horiz-adv-x="1526" 
d="M1516 0h-252l-152 788l-295 -808h-92l-297 808l-158 -788h-250l295 1464h138l317 -987l309 987h138z" />
    <glyph glyph-name="Nu" unicode="&#x39d;" horiz-adv-x="1366" 
d="M399 0h-249v1464h124l693 -882v882h250v-1484h-107l-711 927v-907z" />
    <glyph glyph-name="Xi" unicode="&#x39e;" horiz-adv-x="1292" 
d="M1190 0h-1088v219h418v459h-305v207h305v362h-405v217h1063v-217h-406v-362h305v-207h-305v-459h418v-219z" />
    <glyph glyph-name="Omicron" unicode="&#x39f;" horiz-adv-x="1440" 
d="M350 730q0 -252 88 -387.5t252 -135.5q195 0 297.5 136t102.5 402q0 515 -379 515q-176 0 -268.5 -139t-92.5 -391zM80 724q0 334 172 550.5t472 216.5t468 -194.5t168 -552.5t-175 -563.5t-484 -205.5t-465 207.5t-156 541.5z" />
    <glyph glyph-name="Pi" unicode="&#x3a0;" horiz-adv-x="1360" 
d="M1210 0h-260v1235h-540v-1235h-260v1464h1060v-1464z" />
    <glyph glyph-name="Rho" unicode="&#x3a1;" horiz-adv-x="1202" 
d="M514 764q178 0 260 58.5t82 193.5q0 227 -367 227q-55 0 -79 -4v-469q67 -6 104 -6zM410 0h-260v1464q287 11 305 11q342 0 504.5 -106t162.5 -333q0 -504 -594 -504q-45 0 -118 7v-539z" />
    <glyph glyph-name="Sigma" unicode="&#x3a3;" horiz-adv-x="1192" 
d="M1112 1235h-571l338 -430l-410 -574h637v-231h-1047v84l521 696l-482 602v82h1014v-229z" />
    <glyph glyph-name="Tau" unicode="&#x3a4;" horiz-adv-x="1253" 
d="M745 1235v-1235h-260v1235h-465v229h1213v-229h-488z" />
    <glyph glyph-name="Upsilon" unicode="&#x3a5;" horiz-adv-x="1255" 
d="M760 0h-260v600l-496 864h277l348 -624l348 624h274l-491 -864v-600z" />
    <glyph glyph-name="Phi" unicode="&#x3a6;" horiz-adv-x="1628" 
d="M1298 750q0 177 -93 288.5t-265 132.5v-849q358 45 358 428zM330 745q0 -176 94 -288t266 -133v850q-360 -47 -360 -429zM1552 758q0 -270 -162 -442.5t-446 -192.5v-152h-258v152q-288 17 -449 180t-161 432t163 443t447 194v152h258v-152q288 -17 448 -180.5
t160 -433.5z" />
    <glyph glyph-name="Chi" unicode="&#x3a7;" horiz-adv-x="1231" 
d="M942 0l-346 526l-320 -526h-272l440 760l-403 706l264 -2l297 -493l328 493h272l-465 -708l488 -756h-283z" />
    <glyph glyph-name="Psi" unicode="&#x3a8;" horiz-adv-x="1667" 
d="M1544 913q0 -244 -153.5 -400t-425.5 -187v-330h-258v328q-278 25 -431 176.5t-153 396.5v567h256v-546q0 -157 85 -258t247 -119v923h250v-925q160 19 243.5 119.5t83.5 250.5v555h256v-551z" />
    <glyph glyph-name="Omega" unicode="&#x3a9;" horiz-adv-x="1370" 
d="M765 0v188q163 143 227 271t63 286q0 515 -385 515q-172 0 -264 -138t-91 -377q-1 -143 85 -313t205 -243v-189h-560v202h218q-218 208 -218 532t169 540q170 216 472 217q302 0 470 -197t169 -542q0 -345 -233 -550h233v-202h-560z" />
    <glyph glyph-name="Iotadieresis" unicode="&#x3aa;" horiz-adv-x="569" 
d="M-7 1870q60 0 101 -41t41 -100t-41.5 -101.5t-100.5 -42.5t-101 42t-42 102t41.5 100.5t101.5 40.5zM579 1870q59 0 101.5 -42t42.5 -100t-42.5 -100.5t-100.5 -42.5t-100 42.5t-42 101.5t41 100t100 41zM156 0v1464h260v-1464h-260z" />
    <glyph glyph-name="Upsilondieresis" unicode="&#x3ab;" horiz-adv-x="1255" 
d="M327 1870q60 0 101 -41t41 -100t-41.5 -101.5t-100.5 -42.5t-101 42t-42 102t41.5 100.5t101.5 40.5zM946 1870q60 0 102 -42t42 -100t-43 -100.5t-101 -42.5t-99.5 42.5t-41.5 101.5t40.5 100t100.5 41zM760 0h-260v600l-496 864h277l348 -624l348 624h274l-491 -864
v-600z" />
    <glyph glyph-name="alphatonos" unicode="&#x3ac;" horiz-adv-x="1217" 
d="M874 1610l-176 -330h-190l108 330h258zM599 885q-116 0 -194.5 -100.5t-78.5 -232.5t53.5 -249t210.5 -117q111 0 207 101v532q-82 66 -198 66zM995 -20q-96 0 -164 116q-103 -116 -307 -116t-328 145.5t-124 395.5t139 410.5t373 160.5q176 0 268 -105q63 105 149 105
q110 0 148 -76q-107 -49 -107 -254v-434q0 -218 111 -269q-36 -79 -158 -79z" />
    <glyph glyph-name="epsilontonos" unicode="&#x3ad;" horiz-adv-x="1040" 
d="M836 1610l-177 -330h-190l109 330h258zM526 -23q-184 0 -300.5 81.5t-116.5 226.5q0 80 52 151t148 111q-85 22 -132.5 85.5t-47.5 147.5q0 113 109 213.5t306 100.5t394 -74l-70 -201q-159 72 -321 72q-71 0 -115.5 -32.5t-44.5 -88.5t49.5 -91.5t143.5 -35.5t180 6
v-192q-102 6 -192 6t-144.5 -43t-54.5 -108t51 -99.5t147 -34.5q180 0 320 107l98 -191q-200 -117 -459 -117z" />
    <glyph glyph-name="etatonos" unicode="&#x3ae;" horiz-adv-x="1210" 
d="M918 1610l-177 -330h-190l108 330h259zM821 618q0 143 -53.5 204t-163.5 61q-48 0 -109 -29t-102 -86v-768h-250v1071h181l47 -106q108 127 293 127t296 -114.5t111 -320.5v-933l-250 -60v954z" />
    <glyph glyph-name="iotatonos" unicode="&#x3af;" horiz-adv-x="594" 
d="M520 1610l-176 -330h-190l108 330h258zM336 -18q-182 0 -182 241v848h252v-733q0 -106 32 -162.5t109 -79.5q-63 -114 -211 -114z" />
    <glyph glyph-name="upsilondieresistonos" unicode="&#x3b0;" horiz-adv-x="1184" 
d="M260 1507q60 0 100.5 -40.5t40.5 -100.5t-41.5 -101.5t-100.5 -41.5t-100.5 41.5t-41.5 101.5t41.5 100.5t101.5 40.5zM913 1507q59 0 101.5 -41.5t42.5 -99.5t-43 -100.5t-101 -42.5t-99.5 41.5t-41.5 101.5t41 100.5t100 40.5zM678 1550l-33 -336h-123l-33 336h189z
M1049 477q0 -241 -117 -368t-342 -127q-455 0 -455 491v598h250v-616q0 -265 209 -265q108 0 156.5 61.5t48.5 197.5v622h250v-594z" />
    <glyph glyph-name="alpha" unicode="&#x3b1;" horiz-adv-x="1217" 
d="M599 885q-116 0 -194.5 -100.5t-78.5 -232.5t53.5 -249t210.5 -117q111 0 207 101v532q-82 66 -198 66zM995 -20q-96 0 -164 116q-103 -116 -307 -116t-328 145.5t-124 395.5t139 410.5t373 160.5q176 0 268 -105q63 105 149 105q110 0 148 -76q-107 -49 -107 -254v-434
q0 -218 111 -269q-36 -79 -158 -79z" />
    <glyph glyph-name="beta" unicode="&#x3b2;" 
d="M586 180q142 0 215 66t73 194t-94 208.5t-262 80.5h-131v-459q57 -90 199 -90zM387 920h148q114 0 180.5 60t66.5 150t-50 139.5t-138 49.5q-207 0 -207 -291v-108zM1128 442q0 -194 -142 -328t-342 -134t-306 83l-55 -83h-142v1030q0 230 123.5 369t321.5 139t318 -99.5
t120 -257.5q0 -113 -60 -199.5t-167 -125.5q160 -42 245.5 -146.5t85.5 -247.5z" />
    <glyph glyph-name="gamma" unicode="&#x3b3;" horiz-adv-x="1161" 
d="M719 -420h-254v432q-94 309 -181 529.5t-131 274.5t-102 54h-12v209h20q112 0 187.5 -29.5t125.5 -102t116.5 -252t119.5 -382.5l279 758h264l-432 -1048v-443z" />
    <glyph glyph-name="delta" unicode="&#x3b4;" horiz-adv-x="1171" 
d="M586 184q123 0 188.5 98t65.5 234t-26.5 217t-86.5 148q-23 24 -123 24q-131 0 -201.5 -101t-70.5 -263q0 -357 254 -357zM1100 541q0 -251 -137 -406t-380 -155t-377 151t-134 408q0 151 59.5 275.5t166 194.5t228.5 70q38 0 80 -10l-293 361v79h736v-200q-352 0 -381 8
l-2 -6q38 -22 191 -211t198 -311.5t45 -247.5z" />
    <glyph glyph-name="epsilon" unicode="&#x3b5;" horiz-adv-x="1040" 
d="M526 -23q-184 0 -300.5 81.5t-116.5 226.5q0 80 52 151t148 111q-85 22 -132.5 85.5t-47.5 147.5q0 113 109 213.5t306 100.5t394 -74l-70 -201q-159 72 -321 72q-71 0 -115.5 -32.5t-44.5 -88.5t49.5 -91.5t143.5 -35.5t180 6v-192q-102 6 -192 6t-144.5 -43t-54.5 -108
t51 -99.5t147 -34.5q180 0 320 107l98 -191q-200 -117 -459 -117z" />
    <glyph glyph-name="zeta" unicode="&#x3b6;" horiz-adv-x="954" 
d="M340 406q0 -95 52.5 -146.5t238.5 -69.5t261 -99.5t75 -206.5t-103.5 -214.5t-259.5 -89.5q-82 0 -147 14l28 183q49 -15 109 -15t95.5 29t35.5 87t-47.5 84t-202.5 34q-194 8 -298.5 105t-104.5 272q0 449 538 938l-2 6q-29 -8 -381 -8v200h740v-79q-281 -306 -454 -559
t-173 -465z" />
    <glyph glyph-name="eta" unicode="&#x3b7;" horiz-adv-x="1210" 
d="M821 618q0 141 -52.5 203t-164.5 62q-48 0 -109 -29t-102 -86v-768h-250v1071h181l47 -106q108 127 293 127t296 -114.5t111 -320.5v-933l-250 -60v954z" />
    <glyph glyph-name="theta" unicode="&#x3b8;" horiz-adv-x="1182" 
d="M596 182q230 0 244 492h-498q17 -492 254 -492zM586 1313q-215 0 -240 -441h490q-26 441 -250 441zM92 743q0 375 129.5 574t368.5 199t369.5 -196.5t130.5 -571.5t-128 -571.5t-370 -196.5t-371 194t-129 569z" />
    <glyph glyph-name="iota" unicode="&#x3b9;" horiz-adv-x="594" 
d="M336 -18q-182 0 -182 241v848h252v-733q0 -106 32 -162.5t109 -79.5q-63 -114 -211 -114z" />
    <glyph glyph-name="kappa" unicode="&#x3ba;" horiz-adv-x="1176" 
d="M393 0h-250v1071h250v-481l406 481h301l-398 -442l455 -629h-313l-301 453l-150 -164v-289z" />
    <glyph glyph-name="lambda" unicode="&#x3bb;" horiz-adv-x="1145" 
d="M322 1304q-62 0 -134 -35l-67 209q122 39 231 39q189 0 285 -142q53 -78 92 -195l395 -1180h-276l-240 793l-305 -793h-278l471 1098q-23 80 -47 128q-39 78 -127 78z" />
    <glyph glyph-name="mu" unicode="&#x3bc;" horiz-adv-x="1120" 
d="M340 -420h-250v1491h250v-676q0 -206 185 -206q85 0 158 44t97 102v736h250v-1072h-250v90q-129 -109 -297 -109q-85 0 -143 43v-443z" />
    <glyph glyph-name="nu" unicode="&#x3bd;" horiz-adv-x="1092" 
d="M582 -20h-90l-482 1091h281l258 -672l266 672h266z" />
    <glyph glyph-name="xi" unicode="&#x3be;" horiz-adv-x="987" 
d="M862 719h-192q-122 0 -227 -83.5t-105 -215.5q0 -88 52 -149t200 -77t205 -36t121.5 -79t64.5 -189t-103.5 -220t-259.5 -90q-82 0 -147 14l29 183q50 -15 108 -15t94.5 30t36.5 84t-43.5 83t-223.5 37t-290 113t-110 262t87 268.5t240 173.5q-124 23 -197 109.5
t-73 205.5q0 173 130.5 281.5t340.5 108.5q164 0 340 -64l-70 -203q-139 64 -282 64q-91 0 -145 -51.5t-54 -125.5t52 -142t256 -70l165 -2v-205z" />
    <glyph glyph-name="omicron" unicode="&#x3bf;" horiz-adv-x="1171" 
d="M332 539q0 -355 254 -355q115 0 184.5 90.5t69.5 264.5q0 348 -254 348q-116 0 -185 -91t-69 -257zM72 539q0 170 103.5 361.5t410.5 191.5q244 0 379 -150t135 -408t-140 -406t-378 -148t-374 151.5t-136 407.5z" />
    <glyph glyph-name="pi" unicode="&#x3c0;" horiz-adv-x="1232" 
d="M1025 863v-863h-253v863h-277v-863h-253v863h-167v208h1108v-208h-158z" />
    <glyph glyph-name="rho" unicode="&#x3c1;" horiz-adv-x="1210" 
d="M596 188q138 0 210.5 90t72.5 260t-71.5 259.5t-181.5 89.5t-177.5 -91t-67.5 -264v-278q41 -30 103.5 -48t111.5 -18zM129 -420v909q0 271 132.5 437t368.5 166t372.5 -152.5t136.5 -396.5t-140.5 -403.5t-384.5 -159.5q-127 0 -235 55v-455h-250z" />
    <glyph glyph-name="sigma1" unicode="&#x3c2;" horiz-adv-x="981" 
d="M614 883q-130 0 -206 -97.5t-76 -237.5q0 -268 274 -327q206 -44 287.5 -118.5t81.5 -208.5t-102 -224t-259 -90q-82 0 -147 14l29 183q46 -15 108 -15t96.5 27.5t34.5 75.5q0 114 -147 139q-187 28 -288 83.5t-164.5 168t-63.5 256.5q0 247 140.5 413.5t416.5 166.5
q184 0 319 -103l-106 -186q-98 80 -228 80z" />
    <glyph glyph-name="sigma" unicode="&#x3c3;" horiz-adv-x="1223" 
d="M842 472q0 118 -57 221t-154 173q-145 0 -222 -90t-77 -248t70 -251t192 -93t185 85t63 203zM1102 483q0 -140 -63 -257t-179.5 -181.5t-271.5 -64.5q-240 0 -378 145.5t-138 391.5t154.5 400t408.5 154h534v-209l-268 4q201 -179 201 -383z" />
    <glyph glyph-name="tau" unicode="&#x3c4;" horiz-adv-x="965" 
d="M918 860h-361v-534q0 -136 100 -136q53 0 115 25v-215q-91 -18 -168 -18q-143 0 -221 82.5t-78 234.5v561h-266v211h879v-211z" />
    <glyph glyph-name="upsilon" unicode="&#x3c5;" horiz-adv-x="1184" 
d="M1049 477q0 -241 -117 -368t-342 -127q-455 0 -455 491v598h250v-616q0 -265 209 -265q108 0 156.5 61.5t48.5 197.5v622h250v-594z" />
    <glyph glyph-name="phi" unicode="&#x3c6;" horiz-adv-x="1540" 
d="M1221 534q0 156 -65.5 260.5t-154.5 104.5q-49 0 -81.5 -34t-32.5 -148v-541q155 12 244.5 107t89.5 251zM649 655q0 239 97 339t243 100q212 0 345.5 -158.5t133.5 -391.5t-151.5 -387.5t-427.5 -174.5v-402h-242v402q-279 14 -427 161.5t-148 386.5q0 179 86 327
t248 239l118 -156q-205 -147 -205 -391q0 -158 88 -258t242 -113v477z" />
    <glyph glyph-name="chi" unicode="&#x3c7;" horiz-adv-x="1141" 
d="M817 0l-252 369l-258 -369h-291l422 545l-393 526h289l237 -340l238 340h281l-392 -514l424 -557h-305z" />
    <glyph glyph-name="psi" unicode="&#x3c8;" horiz-adv-x="1583" 
d="M1452 563q0 -536 -537 -581v-402h-241v402q-543 38 -543 573v516h244v-526q0 -160 76 -255t225 -110v891h237v-893q299 34 299 361v532h240v-508z" />
    <glyph glyph-name="omega" unicode="&#x3c9;" horiz-adv-x="1604" 
d="M1526 462q0 -214 -111.5 -348t-312.5 -134t-301 149q-107 -149 -305 -149t-308 131.5t-110 363.5q0 378 323 625l154 -168q-223 -173 -223 -440q0 -147 49 -226.5t127 -79.5t127 55t49 72v193q0 160 -8 268h252q-6 -134 -6 -262v-186q59 -140 182 -140q168 0 168 299
q0 270 -223 447l153 168q324 -219 324 -638z" />
    <glyph glyph-name="iotadieresis" unicode="&#x3ca;" horiz-adv-x="594" 
d="M8 1507q60 0 101 -40.5t41 -100.5t-42 -101.5t-100 -41.5t-100.5 41.5t-42.5 101.5t41.5 100.5t101.5 40.5zM546 1507q60 0 102 -41.5t42 -99.5t-43 -100.5t-101 -42.5t-99 41.5t-41 101.5t40 100.5t100 40.5zM336 -18q-182 0 -182 241v848h252v-733q0 -106 32 -162.5
t109 -79.5q-63 -114 -211 -114z" />
    <glyph glyph-name="upsilondieresis" unicode="&#x3cb;" horiz-adv-x="1184" 
d="M323 1507q60 0 101 -40.5t41 -99.5t-42.5 -101.5t-100.5 -42.5t-100 41.5t-42 101.5t41.5 100.5t101.5 40.5zM868 1507q60 0 102 -41.5t42 -99.5t-43 -100.5t-101 -42.5t-99.5 41.5t-41.5 101.5t40.5 100.5t100.5 40.5zM1049 477q0 -241 -117 -368t-342 -127
q-455 0 -455 491v598h250v-616q0 -265 209 -265q108 0 156.5 61.5t48.5 197.5v622h250v-594z" />
    <glyph glyph-name="omicrontonos" unicode="&#x3cc;" horiz-adv-x="1171" 
d="M850 1610l-176 -330h-191l109 330h258zM332 539q0 -355 254 -355q115 0 184.5 90.5t69.5 264.5q0 348 -254 348q-116 0 -185 -91t-69 -257zM72 539q0 170 103.5 361.5t410.5 191.5q244 0 379 -150t135 -408t-140 -406t-378 -148t-374 151.5t-136 407.5z" />
    <glyph glyph-name="upsilontonos" unicode="&#x3cd;" horiz-adv-x="1184" 
d="M860 1610l-176 -330h-190l108 330h258zM1049 477q0 -241 -117 -368t-342 -127q-455 0 -455 491v598h250v-616q0 -265 209 -265q108 0 156.5 61.5t48.5 197.5v622h250v-594z" />
    <glyph glyph-name="omegatonos" unicode="&#x3ce;" horiz-adv-x="1604" 
d="M1079 1610l-176 -330h-190l108 330h258zM1526 463q0 -213 -112 -348t-312 -135t-301 149q-107 -149 -305 -149t-308 131.5t-110 363.5q0 378 323 625l154 -168q-223 -173 -223 -440q0 -147 49 -226.5t127 -79.5t127 55t49 72v193q0 160 -8 268h252q-6 -134 -6 -262v-186
q59 -140 182 -140q168 0 168 299q0 270 -223 447l153 168q324 -218 324 -637z" />
    <glyph glyph-name="afii10023" unicode="&#x401;" horiz-adv-x="1180" 
d="M407 1866q57 0 97.5 -41t40.5 -97t-40.5 -97.5t-96.5 -41.5t-96 41t-40 99t39 97.5t96 39.5zM857 1866q57 0 96.5 -40.5t39.5 -97.5t-39.5 -98t-95.5 -41t-96.5 41.5t-40.5 99.5t39.5 97t96.5 39zM410 1235v-344h485v-221h-485v-439h663v-231h-923v1464h935v-229h-675z
" />
    <glyph glyph-name="afii10051" unicode="&#x402;" horiz-adv-x="1546" 
d="M1460 416q0 -202 -121.5 -314t-298.5 -112q-43 0 -118 8v215q51 -8 88 -8q186 0 186 196v31q0 126 -75 194t-208 68q-82 0 -204 -22v-672h-260v1239h-400v225h1118v-225h-458v-358q127 22 237 22q240 0 377 -117.5t137 -330.5v-39z" />
    <glyph glyph-name="afii10052" unicode="&#x403;" horiz-adv-x="1126" 
d="M928 1919l-223 -330h-199l168 330h254zM1061 1235h-649v-1235h-262v1464h911v-229z" />
    <glyph glyph-name="afii10053" unicode="&#x404;" horiz-adv-x="1253" 
d="M716 -25q-296 0 -466 204.5t-170 542.5t185 553.5t501 215.5q203 0 399 -96l-116 -226q-130 97 -292 97t-269 -102t-134 -292h537v-215h-553q9 -207 118.5 -330.5t295.5 -123.5t327 135l131 -207q-198 -156 -494 -156z" />
    <glyph glyph-name="afii10054" unicode="&#x405;" horiz-adv-x="1051" 
d="M483 207q230 0 230 160q0 67 -49.5 135.5t-222.5 156.5t-263 169.5t-90 259.5q0 179 124 291t318 112q255 0 373 -96l-78 -224q-138 99 -288 99q-91 0 -141 -50t-50 -122q0 -124 281 -262q201 -97 272.5 -201.5t71.5 -251.5q0 -179 -140.5 -293.5t-361.5 -114.5t-385 107
l96 231q152 -106 303 -106z" />
    <glyph glyph-name="afii10055" unicode="&#x406;" horiz-adv-x="569" 
d="M156 0v1464h260v-1464h-260z" />
    <glyph glyph-name="afii10056" unicode="&#x407;" horiz-adv-x="569" 
d="M66 1866q58 0 98.5 -40.5t40.5 -97.5t-40.5 -98t-96.5 -41t-96 41t-40 99t38 97.5t96 39.5zM517 1866q57 0 96.5 -40.5t39.5 -97.5t-39.5 -98t-95.5 -41t-96.5 41.5t-40.5 99.5t39.5 97t96.5 39zM156 0v1464h260v-1464h-260z" />
    <glyph glyph-name="afii10057" unicode="&#x408;" horiz-adv-x="1118" 
d="M489 211q129 0 181.5 85t52.5 251v917h260v-909q0 -301 -128.5 -438t-393.5 -137q-178 0 -291.5 93.5t-126.5 266.5h233q31 -129 213 -129z" />
    <glyph glyph-name="afii10058" unicode="&#x409;" horiz-adv-x="2060" 
d="M1401 209q181 0 250 71t69 189t-74.5 184t-234.5 66q-48 0 -141 -10v-494q105 -6 131 -6zM1444 926q254 0 394 -121t140 -338t-142 -342t-396 -125h-422v1243h-285q-37 -372 -117.5 -672t-207 -442.5t-375.5 -142.5v239q70 0 118.5 18.5t100.5 84.5t137.5 326t142.5 810
h738v-549q104 11 174 11z" />
    <glyph glyph-name="afii10059" unicode="&#x40a;" horiz-adv-x="1944" 
d="M1284 209q182 0 251 71t69 189t-75 184t-235 66q-48 0 -141 -10v-494q105 -6 131 -6zM1327 926q254 0 394.5 -121t140.5 -335t-138.5 -342t-400.5 -128h-422v659h-500v-659h-251v1464h251v-573h500v573h252v-549q105 11 174 11z" />
    <glyph glyph-name="afii10060" unicode="&#x40b;" horiz-adv-x="1573" 
d="M1442 0h-264v426q0 133 -74 200.5t-185 67.5t-210 -22v-672h-260v1239h-400v225h1110v-225h-450v-358q125 22 229 22q238 0 371 -119t133 -338v-446z" />
    <glyph glyph-name="afii10061" unicode="&#x40c;" horiz-adv-x="1311" 
d="M975 1919l-223 -330h-199l168 330h254zM1135 -12q-137 0 -207 66t-97 216q-37 210 -134.5 302t-276.5 92h-12v-664h-258v1464h258v-579h20q340 0 396 306q28 153 89 218.5t197 65.5q55 0 92 -5v-231q-10 2 -49 2t-57.5 -21t-34.5 -98q-27 -129 -116 -222t-224 -124
q143 -42 229 -141.5t121 -278.5q19 -90 39.5 -111.5t56.5 -21.5t54 4v-233q-29 -6 -86 -6z" />
    <glyph glyph-name="afii10062" unicode="&#x40e;" horiz-adv-x="1272" 
d="M666 1585q-147 0 -244 78t-127 229l209 43q23 -180 166 -180q151 0 166 178l204 -41q-30 -151 -128.5 -229t-245.5 -78zM133 -14v239q12 -2 47 -2q128 0 211 46t148 139l-525 1056h289l385 -852q178 362 303 852h269q-124 -448 -311.5 -824t-360 -515t-455.5 -139z" />
    <glyph glyph-name="afii10145" unicode="&#x40f;" horiz-adv-x="1300" 
d="M1210 0h-413v-420h-234v420h-413v1464h258v-1237h544v1237h258v-1464z" />
    <glyph glyph-name="afii10017" unicode="&#x410;" horiz-adv-x="1305" 
d="M649 1036l-176 -540h352zM1010 0l-109 297h-502l-100 -297h-291l586 1485h113l589 -1485h-286z" />
    <glyph glyph-name="afii10018" unicode="&#x411;" horiz-adv-x="1225" 
d="M549 211q321 1 321 241q0 112 -68 176t-245 64q-70 0 -149 -8v-467q81 -6 141 -6zM598 901q256 0 398.5 -118t142.5 -330t-142.5 -332.5t-398.5 -120.5h-448v1464h884v-225h-626v-348q108 10 190 10z" />
    <glyph glyph-name="afii10019" unicode="&#x412;" horiz-adv-x="1223" 
d="M539 211q163 0 246 55.5t83 189.5t-71.5 191.5t-255.5 57.5q-70 0 -131 -3v-485q79 -6 129 -6zM537 901q254 0 254 191q0 170 -232 170q-60 0 -149 -7v-350q78 -4 127 -4zM598 0h-448v1464q345 15 415 15q227 0 356.5 -98.5t129.5 -276.5t-185 -277q273 -94 273 -393
q0 -200 -151 -317t-390 -117z" />
    <glyph glyph-name="afii10020" unicode="&#x413;" horiz-adv-x="1126" 
d="M1061 1235h-649v-1235h-262v1464h911v-229z" />
    <glyph glyph-name="afii10021" unicode="&#x414;" horiz-adv-x="1493" 
d="M1034 215v1036h-250q-51 -311 -153 -592t-223 -444h626zM1448 -420h-229v420h-959v-420h-229v635h100q120 155 243 432.5t230 816.5h680v-1249h164v-635z" />
    <glyph glyph-name="afii10022" unicode="&#x415;" horiz-adv-x="1180" 
d="M410 1235v-344h485v-221h-485v-439h663v-231h-923v1464h935v-229h-675z" />
    <glyph glyph-name="afii10024" unicode="&#x416;" horiz-adv-x="1911" 
d="M1735 -12q-125 0 -191 68t-90 216q-63 394 -371 394v-666h-247v666q-322 0 -383 -390q-24 -150 -89.5 -219t-187.5 -69q-57 0 -84 6v231q16 -4 50 -4t55 22t36 111q26 150 111 259.5t217 158.5q-263 43 -319 344q-13 68 -29.5 97.5t-56.5 29.5t-47 -2v229q34 5 90 5
q123 0 181.5 -66t82.5 -209q53 -317 373 -317v581h247v-581q153 0 248 80t119 229t81.5 216t180.5 67q56 0 90 -5v-229q-8 2 -44 2t-56 -23.5t-35 -99.5q-25 -129 -107 -222t-204 -122q263 -89 321 -418q16 -89 37.5 -113t55.5 -24t49 4v-231q-27 -6 -84 -6z" />
    <glyph glyph-name="afii10025" unicode="&#x417;" horiz-adv-x="1141" 
d="M737 1090q0 180 -248 180q-119 0 -284 -88l-90 215q221 94 425 94t331.5 -99.5t127.5 -277.5q0 -109 -55.5 -193t-150.5 -120q127 -46 194.5 -142t67.5 -229q0 -212 -149.5 -333.5t-409.5 -121.5t-445 113l113 227q157 -116 344 -116q132 0 206 61.5t74 179.5t-86.5 185
t-248.5 67q-88 0 -150 -6v213q78 -8 156 -8q133 0 205.5 53.5t72.5 145.5z" />
    <glyph glyph-name="afii10026" unicode="&#x418;" horiz-adv-x="1438" 
d="M1286 0h-260v985l-766 -1008h-110v1487h260v-985l766 1008h110v-1487z" />
    <glyph glyph-name="afii10027" unicode="&#x419;" horiz-adv-x="1473" 
d="M746 1585q-147 0 -244 78t-127 229l209 43q23 -180 166 -180q150 0 165 178l205 -41q-30 -151 -128.5 -229t-245.5 -78zM1286 0h-260v985l-766 -1008h-110v1487h260v-985l766 1008h110v-1487z" />
    <glyph glyph-name="afii10028" unicode="&#x41a;" horiz-adv-x="1311" 
d="M1135 -12q-137 0 -207 66t-97 216q-37 210 -134.5 302t-276.5 92h-12v-664h-258v1464h258v-579h20q340 0 396 306q28 153 89 218.5t197 65.5q55 0 92 -5v-231q-10 2 -49 2t-57.5 -21t-34.5 -98q-27 -129 -116 -222t-224 -124q143 -42 229 -141.5t121 -278.5
q19 -90 39.5 -111.5t56.5 -21.5t54 4v-233q-29 -6 -86 -6z" />
    <glyph glyph-name="afii10029" unicode="&#x41b;" horiz-adv-x="1430" 
d="M1278 0h-256v1243h-283q-30 -298 -92.5 -567.5t-149.5 -423t-197.5 -210t-266.5 -56.5v239q70 0 119 18.5t101.5 83.5t139.5 329.5t144 807.5h741v-1464z" />
    <glyph glyph-name="afii10030" unicode="&#x41c;" horiz-adv-x="1593" 
d="M1544 0h-252l-151 788l-295 -808h-92l-297 808l-158 -788h-250l295 1464h137l318 -987l309 987h137z" />
    <glyph glyph-name="afii10031" unicode="&#x41d;" horiz-adv-x="1401" 
d="M993 0v659h-583v-659h-260v1464h260v-573h583v573h256v-1464h-256z" />
    <glyph glyph-name="afii10032" unicode="&#x41e;" horiz-adv-x="1440" 
d="M350 730q0 -252 88 -387.5t252 -135.5q195 0 297.5 136t102.5 402q0 515 -379 515q-176 0 -268.5 -139t-92.5 -391zM80 724q0 334 172 550.5t472 216.5t468 -194.5t168 -552.5t-175 -563.5t-484 -205.5t-465 207.5t-156 541.5z" />
    <glyph glyph-name="afii10033" unicode="&#x41f;" horiz-adv-x="1362" 
d="M1210 0h-260v1235h-540v-1235h-260v1464h1060v-1464z" />
    <glyph glyph-name="afii10034" unicode="&#x420;" horiz-adv-x="1206" 
d="M514 764q178 0 260 58.5t82 193.5q0 227 -367 227q-55 0 -79 -4v-469q67 -6 104 -6zM410 0h-260v1464q287 11 305 11q342 0 504.5 -106t162.5 -333q0 -504 -594 -504q-45 0 -118 7v-539z" />
    <glyph glyph-name="afii10035" unicode="&#x421;" horiz-adv-x="1253" 
d="M768 1260q-192 0 -305 -159t-113 -384t105 -367.5t303 -142.5t313 147l123 -211q-160 -168 -468 -168t-477 202.5t-169 536.5t186.5 555.5t485.5 221.5q248 0 401 -105l-106 -215q-87 89 -279 89z" />
    <glyph glyph-name="afii10036" unicode="&#x422;" horiz-adv-x="1331" 
d="M784 1235v-1235h-260v1235h-465v229h1213v-229h-488z" />
    <glyph glyph-name="afii10037" unicode="&#x423;" horiz-adv-x="1272" 
d="M133 -14v239q12 -2 47 -2q128 0 211 46t148 139l-525 1056h289l385 -852q178 362 303 852h269q-124 -448 -311.5 -824t-360 -515t-455.5 -139z" />
    <glyph glyph-name="afii10038" unicode="&#x424;" horiz-adv-x="1618" 
d="M326 743q0 -180 95 -291.5t267 -134.5v846q-176 -20 -269 -130t-93 -290zM1292 740q0 180 -94 290.5t-266 132.5v-846q175 21 267.5 132t92.5 291zM1534 750q0 -260 -160.5 -432.5t-437.5 -192.5v-158h-252v158q-283 23 -441.5 185t-158.5 422t161 431.5t439 192.5v157
h252v-157q283 -23 440.5 -184.5t157.5 -421.5z" />
    <glyph glyph-name="afii10039" unicode="&#x425;" horiz-adv-x="1253" 
d="M954 0l-346 526l-319 -526h-273l441 760l-404 706l264 -2l297 -493l328 493h272l-464 -708l487 -756h-283z" />
    <glyph glyph-name="afii10040" unicode="&#x426;" horiz-adv-x="1393" 
d="M1348 -420h-234v420h-964v1464h258v-1237h516v1237h256v-1237h168v-647z" />
    <glyph glyph-name="afii10041" unicode="&#x427;" horiz-adv-x="1296" 
d="M1145 0h-260v582q-130 -29 -258 -29q-238 0 -371 119.5t-133 339.5v452h270v-436q0 -128 69.5 -195t187.5 -67t235 29v669h260v-1464z" />
    <glyph glyph-name="afii10042" unicode="&#x428;" horiz-adv-x="1905" 
d="M1753 0h-1603v1464h247v-1247h432v1247h248v-1247h432v1247h244v-1464z" />
    <glyph glyph-name="afii10043" unicode="&#x429;" horiz-adv-x="1962" 
d="M1917 -420h-231v420h-1536v1464h247v-1247h432v1247h248v-1247h432v1247h244v-1241h164v-643z" />
    <glyph glyph-name="afii10044" unicode="&#x42a;" horiz-adv-x="1589" 
d="M913 211q191 0 260.5 68.5t69.5 193.5q0 244 -317 244q-52 0 -148 -10v-490q110 -6 135 -6zM977 926q253 0 391.5 -120t138.5 -338t-141.5 -343t-394.5 -125h-449v1237h-469v227h725v-551q98 13 199 13z" />
    <glyph glyph-name="afii10045" unicode="&#x42b;" horiz-adv-x="1718" 
d="M1567 0h-256v1464h256v-1464zM537 211q189 0 257 74t68 187t-77 179t-238 66q-50 0 -144 -10v-490q110 -6 134 -6zM588 926q254 0 394 -121t140 -338t-142 -342t-396 -125h-434v1464h253v-551q122 13 185 13z" />
    <glyph glyph-name="afii10046" unicode="&#x42c;" horiz-adv-x="1241" 
d="M561 211q330 0 330 260q0 115 -81 180.5t-235 65.5q-56 0 -165 -10v-490q84 -6 151 -6zM618 928q255 0 398 -123t143 -339t-143 -341t-398 -125h-468v1464h260v-549q128 13 208 13z" />
    <glyph glyph-name="afii10047" unicode="&#x42d;" horiz-adv-x="1264" 
d="M557 1491q298 0 462.5 -201.5t164.5 -551.5t-182 -556.5t-498 -206.5q-257 0 -451 131l113 226q159 -129 342 -129t291 116t123 338h-551v215h544q-21 186 -119 290t-267 104t-322 -107l-111 215q200 117 461 117z" />
    <glyph glyph-name="afii10048" unicode="&#x42e;" horiz-adv-x="1929" 
d="M1235 197q171 0 259.5 149.5t88.5 394.5q0 521 -350 521q-169 0 -256.5 -152t-87.5 -393t87.5 -380.5t258.5 -139.5zM1239 1487q296 0 451 -205.5t155 -547.5t-164.5 -552.5t-448.5 -210.5t-431.5 187.5t-161.5 503.5h-236v-662h-253v1464h253v-575h244q44 280 200.5 439
t391.5 159z" />
    <glyph glyph-name="afii10049" unicode="&#x42f;" horiz-adv-x="1311" 
d="M705 1270q-118 0 -197.5 -55t-79.5 -160q0 -231 332 -236l143 -2v443q-80 10 -198 10zM1159 0h-258v608h-61q-170 0 -264 -84t-126 -246t-98.5 -226t-187.5 -64q-61 0 -88 6v231q18 -4 53 -4t55.5 30.5t34.5 96.5q52 250 287 346q-192 45 -264 136.5t-72 220.5
q0 181 141 305.5t424 124.5q188 0 424 -19v-1462z" />
    <glyph glyph-name="afii10065" unicode="&#x430;" horiz-adv-x="1094" 
d="M612 516q-295 0 -295 -192q0 -146 166 -146q226 0 226 225v101q-65 12 -97 12zM438 -20q-176 0 -273 87t-97 254t134 277.5t400 110.5q43 0 105 -17q0 191 -238 191q-140 0 -238 -47l-53 192q127 64 307 64q248 0 360.5 -114.5t112.5 -420.5v-229q0 -214 86 -269
q-29 -52 -64.5 -65.5t-89.5 -13.5t-97 38.5t-60 87.5q-34 -55 -122 -90.5t-173 -35.5z" />
    <glyph glyph-name="afii10066" unicode="&#x431;" horiz-adv-x="1194" 
d="M624 180q122 0 189.5 90t67.5 242t-68.5 237t-191.5 85t-201 -91t-78 -233t80 -236t202 -94zM651 1028q220 0 348.5 -136t128.5 -370t-135.5 -388t-381.5 -154t-386.5 172t-140.5 469q0 387 105 535t216 210.5t280 95.5l347 68l53 -221q-402 -76 -471.5 -91t-183 -79.5
t-145.5 -315.5q72 97 170.5 151t195.5 54z" />
    <glyph glyph-name="afii10067" unicode="&#x432;" horiz-adv-x="1116" 
d="M596 190q195 0 195 142q0 71 -56 106t-139 35l-219 -2v-276q130 -5 219 -5zM583 651q167 0 167 125q0 54 -40.5 86.5t-111.5 32.5q-132 0 -221 -8v-234q39 -2 206 -2zM1036 301q0 -138 -106 -219.5t-316 -81.5h-479v1069q301 14 477 14t276.5 -80.5t100.5 -214.5
q0 -68 -42.5 -127.5t-119.5 -89.5q209 -75 209 -270z" />
    <glyph glyph-name="afii10068" unicode="&#x433;" horiz-adv-x="946" 
d="M879 860h-492v-860h-252v1071h744v-211z" />
    <glyph glyph-name="afii10069" unicode="&#x434;" horiz-adv-x="1280" 
d="M848 197v680h-270q-20 -430 -191 -680h461zM1227 -373h-215v373h-752v-373h-215v570h102q108 144 166 341t58 396v137h708v-874h148v-570z" />
    <glyph glyph-name="afii10070" unicode="&#x435;" horiz-adv-x="1184" 
d="M604 883q-211 0 -264 -236h524q-25 236 -260 236zM654 188q152 0 243 91l96 -193q-135 -106 -386 -106t-394 141t-143 399t157 415t381 157t366 -138.5t142 -355.5q0 -51 -20 -139h-766q6 -128 89 -199.5t235 -71.5z" />
    <glyph glyph-name="afii10072" unicode="&#x436;" horiz-adv-x="1595" 
d="M1415 -12q-178 0 -205 192q-37 285 -295 285v-465h-225v465q-270 0 -309 -281q-27 -196 -207 -196q-47 0 -96 6v205q12 -4 43 -4q47 0 59 65q42 231 269 303q-214 38 -254 250q-11 66 -60 66q-15 0 -41 -5v203q74 6 103 6q170 0 194 -180q17 -122 89 -179.5t210 -57.5
v405h225v-405q254 0 287 233q25 184 197 184q23 0 102 -6v-203q-26 5 -49 5q-39 0 -53 -66q-43 -200 -252 -248q223 -59 270 -311q12 -59 56 -59q32 0 45 4v-205q-50 -6 -103 -6z" />
    <glyph glyph-name="afii10073" unicode="&#x437;" horiz-adv-x="989" 
d="M907 319q0 -167 -121.5 -254.5t-349.5 -87.5t-393 119l123 197q128 -109 306 -109t177 133q0 144 -213 144q-80 0 -143 -6v196q37 -2 162 -2q170 0 170 119q0 55 -41 88t-117 33q-142 0 -279 -82l-90 197q194 90 379 90t292.5 -86t107.5 -215q0 -173 -172 -234
q92 -29 147 -95.5t55 -144.5z" />
    <glyph glyph-name="afii10074" unicode="&#x438;" horiz-adv-x="1231" 
d="M1096 0h-250v647l-643 -672h-68v1096h250v-647l643 672h68v-1096z" />
    <glyph glyph-name="afii10075" unicode="&#x439;" horiz-adv-x="1231" 
d="M635 1282q-145 0 -242 78t-127 229l209 43q23 -180 170 -180t162 178l203 -41q-28 -149 -129 -228t-246 -79zM1096 0h-250v647l-643 -672h-68v1096h250v-647l643 672h68v-1096z" />
    <glyph glyph-name="afii10076" unicode="&#x43a;" horiz-adv-x="1118" 
d="M928 -12q-188 0 -217 192q-41 281 -322 281h-6v-461h-248v1071h248v-403h12q272 0 307 231q28 184 211 184q28 0 113 -6v-203q-26 5 -47 5q-40 0 -55 -62q-48 -204 -273 -252q242 -65 291 -311q12 -59 51 -59t51 4v-205q-53 -6 -116 -6z" />
    <glyph glyph-name="afii10077" unicode="&#x43b;" horiz-adv-x="1227" 
d="M1092 0h-244v874h-264q-8 -224 -50.5 -417t-116.5 -297.5t-158.5 -138t-213.5 -33.5v221q100 0 166 68.5t112 269t46 457.5v67h723v-1071z" />
    <glyph glyph-name="afii10078" unicode="&#x43c;" horiz-adv-x="1475" 
d="M1073 580h-10q-21 -70 -37 -101l-252 -499h-88l-186 365q-88 173 -105 235h-10q0 -67 -19 -179l-67 -401h-244l203 1092h96l389 -764l383 764h91l202 -1092h-256q-81 454 -85.5 507t-4.5 73z" />
    <glyph glyph-name="afii10079" unicode="&#x43d;" horiz-adv-x="1214" 
d="M1079 0h-250v459h-444v-459h-250v1071h250v-405h444v405h250v-1071z" />
    <glyph glyph-name="afii10080" unicode="&#x43e;" horiz-adv-x="1167" 
d="M330 539q0 -355 254 -355q115 0 184.5 90.5t69.5 264.5q0 348 -254 348q-116 0 -185 -91t-69 -257zM70 532q0 250 141 405t379 155t373 -150t135 -408t-140 -406t-378 -148t-374 151t-136 401z" />
    <glyph glyph-name="afii10081" unicode="&#x43f;" horiz-adv-x="1196" 
d="M1061 0h-250v860h-426v-860h-250v1071h926v-1071z" />
    <glyph glyph-name="afii10082" unicode="&#x440;" horiz-adv-x="1198" 
d="M545 190q169 0 246 83t77 263t-72.5 261.5t-250.5 81.5q-90 0 -160 -70v-563q68 -56 160 -56zM385 -420h-250v1491h250v-72q95 93 231 93q512 0 512 -566q0 -260 -141 -403t-387 -143q-114 0 -215 47v-447z" />
    <glyph glyph-name="afii10083" unicode="&#x441;" horiz-adv-x="1057" 
d="M639 883q-143 0 -226 -93t-83 -264q0 -338 319 -338q142 0 246 93l92 -197q-114 -70 -195 -87t-188 -17q-244 0 -389 143t-145 401t155.5 413t427.5 155q189 0 326 -107l-107 -186q-90 84 -233 84z" />
    <glyph glyph-name="afii10084" unicode="&#x442;" horiz-adv-x="997" 
d="M625 860v-860h-252v860h-307v211h866v-211h-307z" />
    <glyph glyph-name="afii10085" unicode="&#x443;" horiz-adv-x="1108" 
d="M143 -420v221q289 0 289 146q0 95 -80 293l-336 831h260l291 -739l264 739h259l-469 -1243q-40 -107 -169 -177.5t-309 -70.5z" />
    <glyph glyph-name="afii10086" unicode="&#x444;" horiz-adv-x="1632" 
d="M555 899q-231 1 -231 -361t241 -362q64 0 135 25v669q-75 29 -145 29zM1067 176q242 0 242 371q0 172 -59 262t-171 90q-65 0 -143 -27v-673q71 -23 131 -23zM1108 1092q214 0 328 -148t114 -412t-119.5 -408t-304.5 -144q-101 0 -188 36v-436h-240v440q-95 -40 -194 -40
q-196 0 -309 144t-113 406t121 412t321 150q89 0 174 -41v419l240 60v-481q83 43 170 43z" />
    <glyph glyph-name="afii10087" unicode="&#x445;" horiz-adv-x="1147" 
d="M821 0l-252 369l-258 -369h-291l422 545l-393 526h289l237 -340l238 340h281l-392 -514l424 -557h-305z" />
    <glyph glyph-name="afii10088" unicode="&#x446;" horiz-adv-x="1233" 
d="M1180 -373h-219v373h-826v1071h248v-866h401v866h248v-866h148v-578z" />
    <glyph glyph-name="afii10089" unicode="&#x447;" horiz-adv-x="1161" 
d="M1026 0h-250v403q-155 -36 -270 -36q-193 0 -295 101.5t-102 291.5v311h253v-289q0 -207 201 -207q101 0 213 27v469h250v-1071z" />
    <glyph glyph-name="afii10090" unicode="&#x448;" horiz-adv-x="1628" 
d="M1493 0h-1358v1071h242v-868h315v868h242v-868h317v868h242v-1071z" />
    <glyph glyph-name="afii10091" unicode="&#x449;" horiz-adv-x="1683" 
d="M1630 -373h-219v373h-1276v1071h242v-868h311v868h242v-868h311v868h242v-868h147v-576z" />
    <glyph glyph-name="afii10092" unicode="&#x44a;" horiz-adv-x="1333" 
d="M830 193q107 0 143.5 49t36.5 112t-49 106.5t-128 43.5t-196 -6v-301q86 -4 193 -4zM840 696q198 0 309 -92.5t111 -256.5t-101 -255.5t-321 -91.5h-447v864h-321v207h567v-383q92 8 203 8z" />
    <glyph glyph-name="afii10093" unicode="&#x44b;" horiz-adv-x="1528" 
d="M1393 0h-246v1071h246v-1071zM560 190q98 0 137.5 46t39.5 114t-48.5 112t-121.5 44t-188 -6v-305q83 -5 181 -5zM569 696q197 0 306.5 -92.5t109.5 -263.5q0 -340 -418 -340h-432v1071h244v-383q88 8 190 8z" />
    <glyph glyph-name="afii10094" unicode="&#x44c;" horiz-adv-x="1106" 
d="M575 193q205 0 205 157q0 65 -47.5 109.5t-154.5 44.5q-56 0 -195 -6v-301q100 -4 192 -4zM602 696q201 0 315.5 -93t114.5 -256t-103 -255t-333 -92h-461v1071h248v-383q98 8 219 8z" />
    <glyph glyph-name="afii10095" unicode="&#x44d;" horiz-adv-x="1073" 
d="M482 1094q235 0 378.5 -149.5t143.5 -407.5t-156 -409t-422 -151q-210 0 -358 115l116 189q112 -95 252 -95t219.5 70t94.5 201h-406v192h401q-39 238 -307 238q-138 0 -243 -82l-105 182q157 107 392 107z" />
    <glyph glyph-name="afii10096" unicode="&#x44e;" horiz-adv-x="1565" 
d="M1020 184q103 0 164 90t61 265q0 348 -225 348q-105 0 -165 -98.5t-60 -249.5q0 -355 225 -355zM1022 1092q228 0 348.5 -152.5t120.5 -408.5t-130 -403.5t-339 -147.5t-327 127t-140 354h-180v-461h-240v1071h240v-407h186q30 189 151 308.5t310 119.5z" />
    <glyph glyph-name="afii10097" unicode="&#x44f;" horiz-adv-x="1147" 
d="M582 895q-190 0 -189 -147q0 -66 57.5 -109.5t157.5 -44.5l158 -2v295q-80 8 -184 8zM1012 0h-246v406h-66q-281 0 -315 -242q-24 -176 -211 -176q-53 0 -102 6v205q12 -4 43 -4q45 0 57 59q18 86 78 148t149 85q-260 48 -260 279q0 136 101 226.5t331 90.5
q135 0 441 -16v-1067z" />
    <glyph glyph-name="afii10071" unicode="&#x451;" horiz-adv-x="1184" 
d="M392 1483q58 0 98 -40.5t40 -96.5t-40 -98t-96 -42t-96 41t-40 99t38 97.5t96 39.5zM843 1483q57 0 96.5 -40.5t39.5 -97.5t-39.5 -98t-95.5 -41t-96.5 41t-40.5 99t39.5 97.5t96.5 39.5zM602 883q-211 0 -264 -236h524q-25 236 -260 236zM652 188q152 0 243 91l96 -193
q-135 -106 -386 -106t-394 141t-143 399t157 415t381 157t366 -138.5t142 -355.5q0 -51 -20 -139h-766q6 -128 89 -199.5t235 -71.5z" />
    <glyph glyph-name="afii10099" unicode="&#x452;" horiz-adv-x="1227" 
d="M1090 72q0 -250 -127.5 -369t-391.5 -125v217q138 1 203.5 68.5t65.5 212.5v536q0 95 -61 157t-165 62q-65 0 -127.5 -34t-89.5 -76v-721h-250v1184h-151v159h151v130l250 59v-189h391v-159h-391v-236q102 88 287 88t295.5 -112.5t110.5 -319.5v-532z" />
    <glyph glyph-name="afii10100" unicode="&#x453;" horiz-adv-x="946" 
d="M821 1573l-223 -330h-199l168 330h254zM879 860h-492v-860h-252v1071h744v-211z" />
    <glyph glyph-name="afii10101" unicode="&#x454;" horiz-adv-x="1073" 
d="M596 -23q-242 0 -384 147.5t-142 390.5t144 411t431 168q192 0 336 -105l-119 -178q-101 76 -227 76t-204.5 -63.5t-98.5 -174.5h397v-192h-407q13 -130 98.5 -200.5t231.5 -70.5t253 90l99 -192q-166 -107 -408 -107z" />
    <glyph glyph-name="afii10102" unicode="&#x455;" horiz-adv-x="893" 
d="M419 178q142 0 142 105q0 56 -41 96.5t-174 95.5q-276 114 -276 322q0 141 106 218t272 77t312 -76l-72 -195q-84 72 -221 72t-137 -105q0 -49 59 -85.5t183 -84.5t186.5 -124t62.5 -209t-110.5 -219t-300.5 -86q-110 0 -179.5 21t-156.5 69l88 198q115 -90 257 -90z" />
    <glyph glyph-name="afii10103" unicode="&#x456;" horiz-adv-x="616" 
d="M217 0v866h-137v205h389v-1071h-252zM334 1487q60 0 102.5 -41.5t42.5 -103.5t-42 -104t-102 -42t-102.5 43.5t-42.5 101.5t42 102t102 44z" />
    <glyph glyph-name="afii10104" unicode="&#x457;" horiz-adv-x="616" 
d="M65 1483q57 0 97.5 -40.5t40.5 -96.5t-40.5 -98t-96.5 -42t-96 41t-40 99t39 97.5t96 39.5zM515 1483q57 0 96.5 -40.5t39.5 -97.5t-39.5 -98t-95.5 -41t-96.5 41t-40.5 99t39.5 97.5t96.5 39.5zM217 0v866h-137v205h389v-1071h-252z" />
    <glyph glyph-name="afii10105" unicode="&#x458;" horiz-adv-x="680" 
d="M-53 -420v223q198 0 270 47t72 170v844h-195v207h445v-1046q0 -227 -142.5 -336t-449.5 -109zM407 1487q58 0 101 -43t43 -101t-41.5 -102.5t-102.5 -44.5t-104 43t-43 104t44.5 102.5t102.5 41.5z" />
    <glyph glyph-name="afii10106" unicode="&#x459;" horiz-adv-x="1784" 
d="M1280 190q102 0 142 46.5t40 113.5t-50 111.5t-128 44.5t-192 -6v-305q86 -5 188 -5zM1290 696q198 0 309 -92.5t111 -256.5t-100.5 -255.5t-321.5 -91.5h-440v874h-264q-8 -224 -50.5 -417t-116.5 -297.5t-158.5 -138t-213.5 -33.5v221q100 0 166 68.5t112 269t46 457.5
v67h723v-383q92 8 198 8z" />
    <glyph glyph-name="afii10107" unicode="&#x45a;" horiz-adv-x="1720" 
d="M1216 190q101 0 142 46.5t41 113.5t-49.5 111.5t-127.5 44.5t-194 -6v-305q87 -5 188 -5zM1227 696q198 0 309 -92.5t111 -256.5t-101 -255.5t-321 -91.5h-441v459h-403v-459h-246v1071h246v-405h403v405h244v-383q93 8 199 8z" />
    <glyph glyph-name="afii10108" unicode="&#x45b;" horiz-adv-x="1227" 
d="M1090 0h-250v612q0 95 -61 157t-165 62q-65 0 -127.5 -34t-89.5 -76v-721h-250v1184h-151v159h151v130l250 59v-189h391v-159h-391v-236q102 88 287 88t295.5 -112.5t110.5 -319.5v-604z" />
    <glyph glyph-name="afii10109" unicode="&#x45c;" horiz-adv-x="1118" 
d="M879 1573l-224 -330h-198l168 330h254zM928 -12q-188 0 -217 192q-41 281 -322 281h-6v-461h-248v1071h248v-403h12q272 0 307 231q28 184 211 184q28 0 113 -6v-203q-26 5 -47 5q-40 0 -55 -62q-48 -204 -273 -252q242 -65 291 -311q12 -59 51 -59t51 4v-205
q-53 -6 -116 -6z" />
    <glyph glyph-name="afii10110" unicode="&#x45e;" horiz-adv-x="1108" 
d="M570 1282q-144 0 -241.5 78t-127.5 229l209 43q24 -180 170 -180t161 178l203 -41q-28 -149 -129 -228t-245 -79zM143 -420v221q289 0 289 146q0 95 -80 293l-336 831h260l291 -739l264 739h259l-469 -1243q-40 -107 -169 -177.5t-309 -70.5z" />
    <glyph glyph-name="afii10193" unicode="&#x45f;" horiz-adv-x="1208" 
d="M1061 0h-352v-373h-222v373h-352v1071h250v-862h426v862h250v-1071z" />
    <glyph glyph-name="afii10050" unicode="&#x490;" horiz-adv-x="1126" 
d="M1061 1237h-649v-1237h-262v1464h692v322h219v-549z" />
    <glyph glyph-name="afii10098" unicode="&#x491;" horiz-adv-x="940" 
d="M879 862h-492v-862h-252v1071h545v270h199v-479z" />
    <glyph glyph-name="Wgrave" unicode="&#x1e80;" horiz-adv-x="1810" 
d="M1331 -20h-107l-320 924l-311 -924h-107l-481 1485h271l275 -884l297 884h114l298 -884l274 884h271zM848 1585l-226 293h267l169 -293h-210z" />
    <glyph glyph-name="wgrave" unicode="&#x1e81;" horiz-adv-x="1605" 
d="M1187 -20h-91l-294 658l-293 -658h-92l-404 1091h263l215 -639l262 639h90l271 -643l232 643h246zM753 1215l-226 293h267l169 -293h-210z" />
    <glyph glyph-name="Wacute" unicode="&#x1e82;" horiz-adv-x="1810" 
d="M1331 -20h-107l-320 924l-311 -924h-107l-481 1485h271l275 -884l297 884h114l298 -884l274 884h271zM1188 1878l-226 -293h-190l169 293h247z" />
    <glyph glyph-name="wacute" unicode="&#x1e83;" horiz-adv-x="1605" 
d="M1187 -20h-91l-294 658l-293 -658h-92l-404 1091h263l215 -639l262 639h90l271 -643l232 643h246zM1069 1508l-226 -293h-190l169 293h247z" />
    <glyph glyph-name="Wdieresis" unicode="&#x1e84;" horiz-adv-x="1810" 
d="M1331 -20h-107l-320 924l-311 -924h-107l-481 1485h271l275 -884l297 884h114l298 -884l274 884h271zM1215 1870q59 0 101 -42t41 -101q1 -59 -41 -101t-101 -41q-59 -1 -101 41t-42 101t42 101t101 42zM595 1870q59 0 101 -42t41 -101q1 -59 -41 -101t-101 -41
q-59 -1 -101 41t-42 101t42 101t101 42z" />
    <glyph glyph-name="wdieresis" unicode="&#x1e85;" horiz-adv-x="1605" 
d="M1187 -20h-91l-294 658l-293 -658h-92l-404 1091h263l215 -639l262 639h90l271 -643l232 643h246zM1108 1500q58 0 100 -42t42 -101t-42 -101t-100 -41q-59 -1 -101 41t-42 101t42 101t101 42zM488 1500q58 0 100 -42t42 -101t-42 -101t-100 -41q-59 -1 -101 41t-42 101
t42 101t101 42z" />
    <glyph glyph-name="Ygrave" unicode="&#x1ef2;" horiz-adv-x="1256" 
d="M759 0h-260v601l-494 864h276l347 -625l348 625h275l-492 -864v-601zM585 1585l-226 293h267l169 -293h-210z" />
    <glyph glyph-name="ygrave" unicode="&#x1ef3;" horiz-adv-x="1093" 
d="M131 -420v221q289 0 289 145q0 96 -80 294l-335 831h259l292 -740l263 740h259l-469 -1243q-39 -108 -171 -178t-307 -70zM472 1215l-226 293h267l169 -293h-210z" />
    <glyph glyph-name="endash" unicode="&#x2013;" horiz-adv-x="752" 
d="M63 502v201h581v-201h-581z" />
    <glyph glyph-name="emdash" unicode="&#x2014;" horiz-adv-x="1504" 
d="M63 502v201h1369v-201h-1369z" />
    <glyph glyph-name="afii00208" unicode="&#x2015;" horiz-adv-x="1504" 
d="M63 502v201h1369v-201h-1369z" />
    <glyph glyph-name="underscoredbl" unicode="&#x2017;" 
d="M-8 -504v129h1214v-129h-1214zM-8 -254v129h1214v-129h-1214z" />
    <glyph glyph-name="quoteleft" unicode="&#x2018;" horiz-adv-x="752" 
d="M438 1221q0 -39 49 -88t49 -105q0 -162 -160 -162q-81 0 -125.5 52t-44.5 140q0 276 284 452l83 -111q-93 -71 -114 -105t-21 -73z" />
    <glyph glyph-name="quoteright" unicode="&#x2019;" horiz-adv-x="752" 
d="M314 1155q0 39 -49 88t-49 105q0 162 160 162q81 0 125.5 -52t44.5 -140q0 -276 -284 -452l-83 111q93 71 114 105t21 73z" />
    <glyph glyph-name="quotesinglbase" unicode="&#x201a;" horiz-adv-x="752" 
d="M314 -78q0 39 -49 88t-49 105q0 162 160 162q81 0 125.5 -52t44.5 -140q0 -276 -284 -452l-83 111q93 71 114 105t21 73z" />
    <glyph glyph-name="quotereversed" unicode="&#x201b;" horiz-adv-x="752" 
d="M179 1318q0 192 170 192q160 0 160 -162q0 -50 -49 -105t-49 -99t46 -92q20 -22 89 -75l-83 -111q-284 176 -284 452z" />
    <glyph glyph-name="quotedblleft" unicode="&#x201c;" 
d="M898 1221q0 -39 49 -88t49 -105q0 -162 -160 -162q-81 0 -125.5 52t-44.5 140q0 276 284 452l83 -111q-93 -71 -114 -105t-21 -73zM438 1221q0 -39 49 -88t49 -105q0 -162 -160 -162q-81 0 -125.5 52t-44.5 140q0 276 284 452l83 -111q-93 -71 -114 -105t-21 -73z" />
    <glyph glyph-name="quotedblright" unicode="&#x201d;" 
d="M314 1155q0 39 -49 88t-49 105q0 162 160 162q82 0 126 -52t44 -140q0 -276 -284 -452l-83 111q93 71 114 105t21 73zM774 1155q0 39 -49 88t-49 105q0 162 160 162q82 0 126 -52t44 -140q0 -276 -284 -452l-83 111q93 71 114 105t21 73z" />
    <glyph glyph-name="quotedblbase" unicode="&#x201e;" horiz-adv-x="1074" 
d="M264 -78q0 39 -49 88t-49 105q0 162 160 162q82 0 126 -52t44 -140q0 -276 -284 -452l-83 111q93 71 114 105t21 73zM724 -78q0 39 -49 88t-49 105q0 162 160 162q82 0 126 -52t44 -140q0 -276 -284 -452l-83 111q93 71 114 105t21 73z" />
    <glyph glyph-name="dagger" unicode="&#x2020;" horiz-adv-x="940" 
d="M575 888v-1122l-103 -120l-107 119v1123h-350v194h350v303h210v-303h350v-194h-350z" />
    <glyph glyph-name="daggerdbl" unicode="&#x2021;" horiz-adv-x="940" 
d="M575 221v-455l-107 -128l-103 128v455h-350v194h350v473h-350v194h350v303h210v-303h350v-194h-350v-473h350v-194h-350z" />
    <glyph glyph-name="bullet" unicode="&#x2022;" horiz-adv-x="1074" 
d="M223 574q0 132 93.5 225.5t225.5 93.5t225.5 -93.5t93.5 -225.5t-93.5 -225.5t-225.5 -93.5t-225.5 93.5t-93.5 225.5z" />
    <glyph glyph-name="ellipsis" unicode="&#x2026;" horiz-adv-x="1504" 
d="M1404 131q0 -62 -44 -106.5t-106 -44.5t-106 44.5t-44 106.5t44 106t106 44t106 -44t44 -106zM902 131q0 -62 -44 -106.5t-106 -44.5t-106 44.5t-44 106.5t44 106t106 44t106 -44t44 -106zM400 131q0 -62 -44 -106.5t-106 -44.5t-106 44.5t-44 106.5t44 106t106 44
t106 -44t44 -106z" />
    <glyph glyph-name="perthousand" unicode="&#x2030;" horiz-adv-x="2121" 
d="M1637 344q0 -100 31.5 -154t81.5 -54q132 0 132 204t-117 203q-128 0 -128 -199zM1451 353q0 152 89 248.5t227 96.5t219.5 -96t81.5 -262t-86 -263t-223 -97q-308 0 -308 373zM917 344q0 -100 31.5 -154t81.5 -54q132 0 132 204t-117 203q-128 0 -128 -199zM731 353
q0 152 89 248.5t227 96.5t219.5 -96t81.5 -262t-86 -263t-223 -97q-308 0 -308 373zM335 -20h-196l918 1511h195zM217 1136q0 -100 32 -154t81 -54q132 0 132 204t-117 203q-128 0 -128 -199zM31 1146q0 152 89 248.5t227 96.5t219.5 -96t81.5 -262t-86 -263t-223 -97
q-308 0 -308 373z" />
    <glyph glyph-name="minute" unicode="&#x2032;" horiz-adv-x="406" 
d="M239 1056h-193l116 411h244z" />
    <glyph glyph-name="second" unicode="&#x2033;" horiz-adv-x="766" 
d="M599 1056h-193l116 411h244zM239 1056h-193l116 411h244z" />
    <glyph glyph-name="guilsinglleft" unicode="&#x2039;" horiz-adv-x="752" 
d="M141 519v96l415 285v-197l-189 -140l189 -124v-197z" />
    <glyph glyph-name="guilsinglright" unicode="&#x203a;" horiz-adv-x="752" 
d="M181 242v197l189 124l-189 140v197l415 -285v-96z" />
    <glyph glyph-name="exclamdbl" unicode="&#x203c;" horiz-adv-x="1248" 
d="M382 308q68 0 116 -48t47 -116q1 -68 -47 -116t-116 -48t-116 48t-48 116t48 116t116 48zM244 1081v410h260v-409q0 -200 -78 -700h-104q-78 500 -78 699zM882 308q68 0 116 -48t47 -116q1 -68 -47 -116t-116 -48t-116 48t-48 116t48 116t116 48zM744 1081v410h260v-409
q0 -200 -78 -700h-104q-78 500 -78 699z" />
    <glyph glyph-name="radicalex" unicode="&#x203e;" horiz-adv-x="1074" 
d="M785 1471v-175h-791v175h791z" />
    <glyph glyph-name="fraction" unicode="&#x2044;" 
d="M236 -35h-168l884 1526h166z" />
    <glyph glyph-name="fraction" unicode="&#x2215;" 
d="M236 -35h-168l884 1526h166z" />
    <glyph glyph-name="nsuperior" unicode="&#x207f;" horiz-adv-x="831" 
d="M717 809h-168v395q0 150 -127 150q-74 0 -123 -70v-475h-168v670h119l24 -64q68 76 188 76q120 -1 188 -75t67 -199v-408z" />
    <glyph glyph-name="franc" unicode="&#x20a3;" horiz-adv-x="1195" 
d="M692 520v-194h-282v-326h-260v326h-112v194h112v945h965v-231h-705v-343h515v-221h-515v-150h282z" />
    <glyph glyph-name="afii08941" unicode="&#x20a4;" horiz-adv-x="1073" 
d="M575 0h-473v182q91 31 91 105v227h-91v143h91v150h-91v143h91v43q0 238 121 368t327 130t317 -145l-129 -177q-81 103 -223 103q-153 0 -153 -271v-51h307v-143h-307v-150h307v-143h-307v-283h192q138 0 227 121l189 -141q-125 -211 -486 -211z" />
    <glyph glyph-name="peseta" unicode="&#x20a7;" horiz-adv-x="2380" 
d="M754 1016q0 232 -295 232q-43 0 -64 -4v-478q53 -6 86 -6q137 0 205 62t68 194zM2314 299q0 -145 -107 -232t-267 -87t-281 81q-96 -81 -225 -81q-312 0 -312 348v544h-131q-83 -340 -491 -340q-31 0 -105 7v-539h-256v1465q143 11 283 11q285 0 429 -107t157 -300h114
v220l248 92v-312h174v-197h-174v-485q0 -111 31 -154t113 -43t165 97q115 -109 250 -109t135 109q0 69 -59 112q-33 23 -113 61t-104 50q-186 103 -186 283q0 146 99.5 222.5t261.5 76.5t298 -74l-68 -191q-99 70 -221 70t-123 -109q0 -41 40.5 -73t132.5 -73t102 -46
q190 -100 190 -297z" />
    <glyph glyph-name="Euro" unicode="&#x20ac;" 
d="M796 1259q-255 0 -349 -312h513l-55 -151h-487q-3 -40 -3 -80t3 -79h423l-54 -151h-341q85 -280 332 -280q200 0 295 143v-274q-118 -100 -333 -100q-214 0 -358 137t-191 374h-127v151h107q-6 84 -1 159h-106v151h127q52 235 206 389t384 154t369 -103l-98 -215
q-80 87 -256 87z" />
    <glyph glyph-name="afii61248" unicode="&#x2105;" horiz-adv-x="1610" 
d="M1327 313q1 212 -149 212q-150 1 -150 -213t150 -214q67 0 108 54t41 161zM1513 315q1 -166 -89 -268t-246 -102q-156 1 -246 103t-90 264t92 264t246 102t243.5 -98.5t89.5 -264.5zM1335 1491l-884 -1526h-168l884 1526h168zM437 786q-156 0 -248 97t-92 265t102.5 270
t252.5 102t245 -74l-82 -140q-71 61 -158 61t-131 -62t-43 -158q0 -208 190 -208q81 0 158 68l72 -147q-110 -74 -266 -74z" />
    <glyph glyph-name="afii61289" unicode="&#x2113;" 
d="M754 1184q0 104 -60 105q-48 0 -74 -45t-26 -179v-144q160 159 160 263zM720 -20q-221 0 -307 139q-69 109 -69 347l-86 -51l-81 186q111 66 167 100v111q0 362 75.5 520.5t266.5 158.5q133 0 212 -80t79 -211q0 -236 -383 -568v-187q0 -263 139 -263q92 0 152 63
l104 -163q-38 -42 -122 -72t-147 -30z" />
    <glyph glyph-name="afii61352" unicode="&#x2116;" horiz-adv-x="1978" 
d="M1575 465q133 -1 133 197t-136 198t-136 -198t139 -197zM1130 -18h-104l-637 918v-900h-239v1484h104l637 -917v898h239v-1483zM1837 -6h-524v170h524v-170zM1576 1012q142 0 224 -92t82 -258q0 -164 -81 -258t-224 -93q-143 0 -228 96.5t-85 254.5t85 254t227 96z" />
    <glyph glyph-name="trademark" unicode="&#x2122;" horiz-adv-x="1319" 
d="M499 1332v-594h-160v594h-218v139h726l147 -454l145 454h123l122 -732h-155l-66 364l-117 -369h-103l-123 374l-61 -369h-156l98 593h-202z" />
    <glyph glyph-name="Ohm" unicode="&#x2126;" horiz-adv-x="1370" 
d="M765 0v188q163 143 226.5 271t63.5 286q0 515 -385 515q-172 0 -263.5 -138.5t-91.5 -376.5q0 -143 85.5 -313.5t204.5 -242.5v-189h-560v202h218q-218 208 -218 532t169.5 540.5t471.5 216.5t470.5 -197t168.5 -542t-233 -550h233v-202h-560z" />
    <glyph glyph-name="estimated" unicode="&#x212e;" horiz-adv-x="1125" 
d="M250 605h630v281q-120 142 -310 142t-320 -142v-281zM1063 537h-814v-371q151 -123 309 -123q94 0 220 45t166 93l47 -53q-163 -148 -430 -148q-217 0 -358.5 149t-141.5 399t147.5 406.5t366.5 156.5t353.5 -166.5t134.5 -387.5z" />
    <glyph glyph-name="oneeighth" unicode="&#x215b;" horiz-adv-x="1668" 
d="M1415 221q0 88 -143 170q-109 -62 -109 -158q0 -55 33.5 -89.5t89.5 -34.5q129 0 129 112zM1384 666q0 84 -96 84t-96 -84q0 -36 36.5 -75t74.5 -54q33 17 57 55.5t24 73.5zM469 565h-188v652l-189 -113v184q203 103 297 219h80v-942zM1309 1491l-883 -1526h-168
l885 1526h166zM1014 666q0 118 77 180.5t197 62.5q120 1 198 -59t79 -176q0 -62 -38 -121.5t-100 -91.5q78 -38 123 -102t45 -134q0 -136 -85 -208t-224 -72q-305 0 -305 280q0 149 158 242q-125 81 -125 199z" />
    <glyph glyph-name="threeeighths" unicode="&#x215c;" horiz-adv-x="1668" 
d="M1423 221q0 88 -143 170q-109 -62 -109 -158q0 -55 33.5 -89.5t89.5 -34.5q129 0 129 112zM1393 666q-1 84 -97 84t-96 -84q0 -36 36.5 -75t74.5 -54q32 16 57 55t25 74zM614 847q0 -146 -87 -219t-233 -73t-247 96l90 160q67 -76 154 -76q133 0 133 113q0 133 -143 133
h-41v162h36q119 0 119 108q0 88 -110 88q-72 0 -129 -63l-86 143q80 101 216 101t217 -70t81 -188t-99 -195q129 -74 129 -220zM1335 1491l-882 -1526h-168l882 1526h168zM1022 666q0 118 77 180.5t197 62.5q120 1 198 -59t79 -176q0 -62 -38.5 -122t-98.5 -91
q76 -37 122 -102t46 -134q0 -137 -86 -209t-224 -71q-305 0 -305 280q0 149 158 242q-125 81 -125 199z" />
    <glyph glyph-name="fiveeighths" unicode="&#x215d;" horiz-adv-x="1668" 
d="M1423 221q0 88 -143 170q-109 -62 -109 -158q0 -55 33.5 -89.5t89.5 -34.5q129 0 129 112zM1393 666q-1 84 -97 84t-96 -84q0 -36 36.5 -75t74.5 -54q32 16 57 55t25 74zM637 898q-1 -148 -87 -246q-86 -97 -232 -97t-259 92l84 166q89 -82 164 -82q131 0 131 160
t-129 160q-72 0 -137 -68l-84 51v469h510v-168h-326v-139q34 10 80 10q137 0 211 -80t74 -228zM1335 1491l-882 -1526h-168l882 1526h168zM1022 666q0 118 77 180.5t197 62.5q120 1 198 -59t79 -176q0 -62 -38.5 -122t-98.5 -91q76 -37 122 -102t46 -134q0 -137 -86 -209
t-224 -71q-305 0 -305 280q0 149 158 242q-125 81 -125 199z" />
    <glyph glyph-name="seveneighths" unicode="&#x215e;" horiz-adv-x="1668" 
d="M1415 221q0 88 -143 170q-109 -62 -109 -158q0 -55 33.5 -89.5t89.5 -34.5q129 0 129 112zM1384 666q0 84 -96 84t-96 -84q0 -36 36.5 -75t74.5 -54q33 17 57 55.5t24 73.5zM125 1331v172h639v-88l-82 -155q-86 -162 -173 -360t-124 -333h-211q94 326 348 764h-397z
M1296 1491l-882 -1526h-168l884 1526h166zM1014 666q0 118 77 180.5t197 62.5q120 1 198 -59t79 -176q0 -62 -38 -121.5t-100 -91.5q78 -38 123 -102t45 -134q0 -136 -85 -208t-224 -72q-305 0 -305 280q0 149 158 242q-125 81 -125 199z" />
    <glyph glyph-name="partialdiff" unicode="&#x2202;" 
d="M340 479q0 -129 66 -203.5t184 -74.5t193.5 95.5t75.5 293.5t-89 295q-196 0 -313 -115t-117 -291zM1109 559q0 -253 -148.5 -416.5t-383.5 -163.5t-361 133.5t-126 377.5t158 405t397 173q-48 79 -205 169.5t-287 90.5l60 213q206 0 422 -139.5t345 -364.5t129 -478z
" />
    <glyph glyph-name="Delta" unicode="&#x2206;" horiz-adv-x="1198" 
d="M616 1076l-330 -855h640zM-5 0v153l536 1312h185l489 -1312v-153h-1210z" />
    <glyph glyph-name="product" unicode="&#x220f;" horiz-adv-x="1304" 
d="M1124 1233v-1403h-260v1403h-430v-1403h-260v1403h-130v232h1210v-232h-130z" />
    <glyph glyph-name="summation" unicode="&#x2211;" horiz-adv-x="1075" 
d="M58 -173v210l395 697l-395 539v192h935v-232h-605l376 -495l-394 -679h662v-232h-974z" />
    <glyph glyph-name="minus" unicode="&#x2212;" 
d="M1062 736v-201h-898v201h898z" />
    <glyph glyph-name="periodcentered" unicode="&#x2219;" horiz-adv-x="752" 
d="M174 741q0 75 52.5 127.5t127.5 52.5t127.5 -52.5t52.5 -127.5t-52.5 -128t-127.5 -53t-127.5 53t-52.5 128z" />
    <glyph glyph-name="radical" unicode="&#x221a;" 
d="M1214 1471v-175h-424l-384 -1296h-179l-236 290l146 119l131 -167l364 1229h582z" />
    <glyph glyph-name="infinity" unicode="&#x221e;" 
d="M357 777q-120 0 -120 -106t110 -106q65 0 151 107q-75 82 -99.5 93.5t-41.5 11.5zM846 565q110 0 110 106q0 46 -34 76t-74 30t-84 -34t-69 -71q87 -107 151 -107zM354 402q-128 0 -206 74t-78 189t82.5 193t191.5 78q143 0 250 -113q108 113 240 113t210 -74t78 -194
t-80 -193t-208 -73t-239 127q-113 -127 -241 -127z" />
    <glyph glyph-name="integral" unicode="&#x222b;" horiz-adv-x="1074" 
d="M237 -250q82 0 125 74t43 167v1073q0 180 110.5 313t270.5 133t280 -102l-124 -142q-59 74 -166 74q-68 0 -110 -55t-42 -251v-1011q0 -188 -93 -315.5t-261 -127.5t-292 123l100 142q77 -95 159 -95z" />
    <glyph glyph-name="approxequal" unicode="&#x2248;" 
d="M391 496q48 0 96 -10t197 -56q41 -11 73 -11q60 0 87 77h148q-40 -154 -94 -210.5t-134 -56.5t-209.5 38.5t-148.5 38.5q-52 0 -89 -77h-146q21 120 78.5 193.5t141.5 73.5zM391 886q48 0 96 -10t197 -56q41 -11 73 -11q60 0 87 77h148q-40 -154 -94 -210.5t-134 -56.5
t-209.5 38.5t-148.5 38.5q-52 0 -89 -77h-146q21 120 78.5 193.5t141.5 73.5z" />
    <glyph glyph-name="notequal" unicode="&#x2260;" 
d="M174 325v201h271l163 219h-434v201h584l116 155h189l-116 -155h125v-201h-275l-163 -219h438v-201h-588l-121 -162h-188l120 162h-121z" />
    <glyph glyph-name="lessequal" unicode="&#x2264;" 
d="M1062 201v-201h-898v201h898zM192 627v161l799 383v-228l-528 -236l528 -239v-228z" />
    <glyph glyph-name="greaterequal" unicode="&#x2265;" 
d="M1062 0h-898v201h898v-201zM1034 627l-799 -387v228l528 239l-528 236v228l799 -383v-161z" />
    <glyph glyph-name="H22073" unicode="&#x25a1;" horiz-adv-x="1237" 
d="M222 868v-792h792v792h-792zM146 944h944v-944h-944v944z" />
    <glyph glyph-name="H18543" unicode="&#x25aa;" horiz-adv-x="726" 
d="M594 908v-463h-463v463h463z" />
    <glyph glyph-name="H18551" unicode="&#x25ab;" horiz-adv-x="726" 
d="M518 832h-311v-311h311v311zM594 908v-463h-463v463h463z" />
    <glyph glyph-name="lozenge" unicode="&#x25ca;" horiz-adv-x="1229" 
d="M613 1004l-369 -369l369 -369l368 369zM613 18l-618 617l618 617l617 -617z" />
    <glyph glyph-name="H18533" unicode="&#x25cf;" horiz-adv-x="1237" 
d="M177 576q0 182 129.5 311.5t311.5 129.5t311 -129.5t129 -311.5t-129 -311t-311 -129t-311.5 129t-129.5 311z" />
    <glyph glyph-name="openbullet" unicode="&#x25e6;" horiz-adv-x="726" 
d="M363 852q-73 0 -124 -52t-51 -124t51.5 -123t123.5 -51t123.5 51t51.5 123t-51 124t-124 52zM362 928q104 0 178 -73.5t74 -177.5t-73.5 -177.5t-177.5 -73.5t-177.5 73.5t-73.5 177.5t73 177.5t177 73.5z" />
    <glyph glyph-name="fi" unicode="&#xfb01;" horiz-adv-x="1274" 
d="M1016 1486q60 0 102.5 -42.5t42.5 -102.5t-42.5 -102.5t-102.5 -42.5t-102.5 42.5t-42.5 102.5t42.5 102.5t102.5 42.5zM887 0v865h-446v-865h-250v865h-156v206h157q8 197 116.5 318t280.5 121q89 0 217 -39l-74 -190q-82 27 -126 27q-71 0 -120.5 -61t-49.5 -150
q0 -13 1 -26h703v-1071h-253z" />
    <glyph glyph-name="fl" unicode="&#xfb02;" horiz-adv-x="1304" 
d="M1128 326q0 -198 118 -236q-58 -110 -198 -110q-170 0 -170 236v1044q-92 48 -204 48t-174.5 -64.5t-62.5 -172.5h222v-206h-218v-865h-250v865h-156v206h157q9 208 124.5 323.5t302.5 115.5q81 0 171 -18l88 -21l250 59v-1204z" />
    <glyph glyph-name="glyph0" horiz-adv-x="1024" 
d="M256 478h512v512h-512v-512zM128 350v768h768v-768h-768z" />
    <glyph glyph-name="apple" horiz-adv-x="1024" 
d="M256 478h512v512h-512v-512zM128 350v768h768v-768h-768z" />
    <glyph glyph-name="dotlessj" horiz-adv-x="751" 
d="M-12 -420v223q200 0 270.5 47.5t70.5 170.5v844h-193v206h443v-1046q0 -230 -144.5 -337.5t-446.5 -107.5z" />
    <glyph glyph-name="f007" horiz-adv-x="752" 
d="M407 1492q0 -20 42 -59.5t42 -93.5t-39 -89t-97 -35q-128 0 -128 179t187 324l82 -97q-68 -68 -78.5 -88.5t-10.5 -40.5z" />
    <glyph glyph-name="commaaccenthigh" horiz-adv-x="752" 
d="M325 1256q0 26 -34.5 60.5t-34.5 75.5q0 118 117 118q123 0 123 -139q0 -196 -204 -323l-63 85q66 50 81 73.5t15 49.5z" />
    <glyph glyph-name="dottediacute" horiz-adv-x="611" 
d="M202 0v866h-137v205h390v-1071h-253zM331 1486q61 0 103 -42t42 -103t-42 -103t-103 -42t-103 42t-42 103t42 103t103 42zM634 1864l-226 -293h-190l169 293h247z" />
    </font>
</defs>
</svg>
